<?xml version="1.0" standalone="no"?>
<!DOCTYPE svg PUBLIC "-//W3C//DTD SVG 1.1//EN" "http://www.w3.org/Graphics/SVG/1.1/DTD/svg11.dtd" >
<svg xmlns="http://www.w3.org/2000/svg" xmlns:xlink="http://www.w3.org/1999/xlink" version="1.1">
<metadata>
Created by FontForge 20200511 at Tue Dec 17 09:27:34 2019
 By convertio
Copyright \(c\) 2019 by Abbie Gonzalez. All rights reserved.
</metadata>
<defs>
<font id="OpenDyslexic-Regular" horiz-adv-x="0" >
  <font-face 
    font-family="OpenDyslexic"
    font-weight="400"
    font-stretch="normal"
    units-per-em="1000"
    panose-1="0 0 5 0 0 0 0 0 0 0"
    ascent="800"
    descent="-200"
    x-height="547"
    cap-height="847"
    bbox="-1025 -533 2341 1610"
    underline-thickness="50"
    underline-position="-100"
    stemh="88"
    stemv="106"
    unicode-range="U+0020-FB06"
  />
<missing-glyph horiz-adv-x="1352" 
d="M676 -211c-375 0 -646 1 -646 646s271 646 646 646s646 -1 646 -646s-271 -646 -646 -646zM590 198c26 1 101 28 167 57v115c74 36 149 110 152 233c3 128 -54 196 -121 232c-113 60 -232 30 -345 -73c26 -33 42 -49 68 -83c52 67 180 115 240 60c37 -34 41 -103 38 -145
c-7 -96 -53 -112 -167 -153l-16 -39c0 -36 2 -40 0 -74c-2 -52 -8 -82 -16 -130zM570 -86h175v175h-175v-175z" />
    <glyph glyph-name="f_f" unicode="ff" horiz-adv-x="1070" 
d="M930 548v-89h-143l15 -458h-130l15 456l-223 1h-143l15 -458h-130l15 458h-81v89h81c0 214 51 248 154 248h80v-75h-81c-85 0 -75 -124 -66 -169l379 -2c0 213 51 247 154 247h80v-75h-81c-89 0 -74 -136 -65 -175z" />
    <glyph glyph-name="f_f_i" unicode="ffi" horiz-adv-x="1282" 
d="M840 721c-89 0 -74 -136 -65 -175l155 2v-89h-143l15 -458h-130l15 456l-223 1h-143l15 -458h-130l15 458h-81v89h81c0 214 51 248 154 248h80v-75h-81c-85 0 -75 -124 -66 -169l379 -2c0 213 51 247 154 247h80v-75h-81zM1110 761l15 -114h-90l15 114h60zM1119 552
c-7 -165 -7 -359 23 -551h-132c13 192 29 329 29 551h80z" />
    <glyph glyph-name="f_f_l" unicode="ffl" horiz-adv-x="1442" 
d="M840 721c-89 0 -74 -136 -65 -175l155 2v-89h-143l15 -458h-130l15 456l-223 1h-143l15 -458h-130l15 458h-81v89h81c0 214 51 248 154 248h80v-75h-81c-85 0 -75 -124 -66 -169l379 -2c0 213 51 247 154 247h80v-75h-81zM1286 111l16 -111h-230c-12 111 1 506 42 784h85
c-27 -240 -42 -430 -32 -673h119z" />
    <glyph glyph-name="fi" unicode="fi" horiz-adv-x="776" 
d="M186 0l15 458h-81v89h81c0 214 51 248 154 248h80v-75h-81c-89 0 -74 -136 -65 -175l155 2v-89h-143l15 -458h-130zM549 646l15 114h60l15 -114h-90zM524 0c13 192 29 329 29 551h80c-7 -165 -7 -359 23 -551h-132z" />
    <glyph glyph-name="fl" unicode="fl" horiz-adv-x="916" 
d="M166 0l15 458h-81v89h81c0 214 51 248 154 248h80v-75h-81c-89 0 -74 -136 -65 -175l155 2v-89h-143l15 -458h-130zM566 -1c-12 111 1 506 42 784h85c-27 -240 -42 -430 -32 -673h119l16 -111h-230z" />
    <glyph glyph-name=".notdef" horiz-adv-x="1352" 
d="M676 -211c-375 0 -646 1 -646 646s271 646 646 646s646 -1 646 -646s-271 -646 -646 -646zM590 198c26 1 101 28 167 57v115c74 36 149 110 152 233c3 128 -54 196 -121 232c-113 60 -232 30 -345 -73c26 -33 42 -49 68 -83c52 67 180 115 240 60c37 -34 41 -103 38 -145
c-7 -96 -53 -112 -167 -153l-16 -39c0 -36 2 -40 0 -74c-2 -52 -8 -82 -16 -130zM570 -86h175v175h-175v-175z" />
    <glyph glyph-name="space" unicode=" " horiz-adv-x="847" 
 />
    <glyph glyph-name="A" unicode="A" horiz-adv-x="1136" 
d="M190 -1l325 850h107l324 -850h-159l-32 136h-371l-43 -136h-151zM417 266h303l-153 445z" />
    <glyph glyph-name="Aacute" unicode="&#xc1;" horiz-adv-x="1136" 
d="M509 989l97 197h66l-66 -197h-97zM190 -1l325 850h107l324 -850h-159l-32 136h-371l-43 -136h-151zM417 266h303l-153 445z" />
    <glyph glyph-name="Abreve" unicode="&#x102;" horiz-adv-x="1136" 
d="M564 1027c-107 0 -192 74 -192 197h65c0 -88 48 -102 127 -102c93 0 136 15 136 102h65c0 -123 -95 -197 -201 -197zM622 849l324 -850h-159l-32 136h-371l-43 -136h-151l325 850h107zM417 266h303l-153 445z" />
    <glyph glyph-name="uni1EAE" unicode="&#x1eae;" horiz-adv-x="1136" 
d="M672 1548l-66 -197h-97l97 197h66zM564 1027c-107 0 -192 74 -192 197h65c0 -88 48 -102 127 -102c93 0 136 15 136 102h65c0 -123 -95 -197 -201 -197zM622 849l324 -850h-159l-32 136h-371l-43 -136h-151l325 850h107zM417 266h303l-153 445z" />
    <glyph glyph-name="uni1EB6" unicode="&#x1eb6;" horiz-adv-x="1136" 
d="M564 1027c-107 0 -192 74 -192 197h65c0 -88 48 -102 127 -102c93 0 136 15 136 102h65c0 -123 -95 -197 -201 -197zM622 849l324 -850h-159l-32 136h-371l-43 -136h-151l325 850h107zM417 266h303l-153 445zM478 -321v165h165v-165h-165z" />
    <glyph glyph-name="uni1EB0" unicode="&#x1eb0;" horiz-adv-x="1136" 
d="M699 1342l-162 18l-140 135h95zM564 1027c-107 0 -192 74 -192 197h65c0 -88 48 -102 127 -102c93 0 136 15 136 102h65c0 -123 -95 -197 -201 -197zM622 849l324 -850h-159l-32 136h-371l-43 -136h-151l325 850h107zM417 266h303l-153 445z" />
    <glyph glyph-name="uni1EB2" unicode="&#x1eb2;" horiz-adv-x="1136" 
d="M624 1477c0 11 -17 26 -61 26c-28 0 -54 -9 -84 -25v39c35 16 67 22 97 22c31 0 55 -6 74 -17c17 -13 30 -31 30 -48c0 -20 -13 -41 -41 -58l-20 -14c-11 -7 -14 -12 -15 -14c-4 -7 -5 -14 -5 -23h-51v5c0 11 1 23 4 29c7 10 16 19 30 28l22 19c12 8 20 18 20 31z
M564 1027c-107 0 -192 74 -192 197h65c0 -88 48 -102 127 -102c93 0 136 15 136 102h65c0 -123 -95 -197 -201 -197zM622 849l324 -850h-159l-32 136h-371l-43 -136h-151l325 850h107zM417 266h303l-153 445z" />
    <glyph glyph-name="uni1EB4" unicode="&#x1eb4;" horiz-adv-x="1136" 
d="M498 1559c-44 1 -44 -70 -44 -119h-62c9 132 26 170 106 170c75 0 94 -113 144 -113c56 0 44 57 46 113h52c-2 -165 -36 -171 -97 -170c-82 1 -103 118 -145 119zM564 1027c-107 0 -192 74 -192 197h65c0 -88 48 -102 127 -102c93 0 136 15 136 102h65
c0 -123 -95 -197 -201 -197zM622 849l324 -850h-159l-32 136h-371l-43 -136h-151l325 850h107zM417 266h303l-153 445z" />
    <glyph glyph-name="uni01CD" unicode="&#x1cd;" horiz-adv-x="1136" 
d="M546 1030l-44 64l-133 131h54l143 -99l145 99h54l-132 -131l-39 -64h-48zM190 -1l325 850h107l324 -850h-159l-32 136h-371l-43 -136h-151zM417 266h303l-153 445z" />
    <glyph glyph-name="Acircumflex" unicode="&#xc2;" horiz-adv-x="1136" 
d="M549 1129h48l39 -64l132 -131h-54l-145 99l-143 -99h-54l133 131zM190 -1l325 850h107l324 -850h-159l-32 136h-371l-43 -136h-151zM417 266h303l-153 445z" />
    <glyph glyph-name="uni1EA4" unicode="&#x1ea4;" horiz-adv-x="1136" 
d="M799 997l97 197h66l-66 -197h-97zM549 1129h48l39 -64l132 -131h-54l-145 99l-143 -99h-54l133 131zM190 -1l325 850h107l324 -850h-159l-32 136h-371l-43 -136h-151zM417 266h303l-153 445z" />
    <glyph glyph-name="uni1EAC" unicode="&#x1eac;" horiz-adv-x="1136" 
d="M549 1129h48l39 -64l132 -131h-54l-145 99l-143 -99h-54l133 131zM190 -1l325 850h107l324 -850h-159l-32 136h-371l-43 -136h-151zM417 266h303l-153 445zM478 -321v165h165v-165h-165z" />
    <glyph glyph-name="uni1EA6" unicode="&#x1ea6;" horiz-adv-x="1136" 
d="M869 1093l-140 135h95l207 -153zM549 1129h48l39 -64l132 -131h-54l-145 99l-143 -99h-54l133 131zM190 -1l325 850h107l324 -850h-159l-32 136h-371l-43 -136h-151zM417 266h303l-153 445z" />
    <glyph glyph-name="uni1EA8" unicode="&#x1ea8;" horiz-adv-x="1136" 
d="M726 1075v5c0 11 1 23 4 29c7 10 16 19 30 28l22 19c12 8 20 18 20 31c0 11 -17 26 -61 26c-28 0 -54 -9 -84 -25v39c35 16 67 22 97 22c31 0 55 -6 74 -17c17 -13 30 -31 30 -48c0 -20 -13 -41 -41 -58l-20 -14c-11 -7 -14 -12 -15 -14c-4 -7 -5 -14 -5 -23h-51z
M549 1129h48l39 -64l132 -131h-54l-145 99l-143 -99h-54l133 131zM190 -1l325 850h107l324 -850h-159l-32 136h-371l-43 -136h-151zM417 266h303l-153 445z" />
    <glyph glyph-name="uni1EAA" unicode="&#x1eaa;" horiz-adv-x="1136" 
d="M459 1178h-62c9 132 26 170 106 170c75 0 94 -113 144 -113c56 0 44 57 46 113h52c-2 -165 -36 -171 -97 -170c-82 1 -103 118 -145 119c-44 1 -44 -70 -44 -119zM550 1143h48l39 -64l132 -131h-54l-145 99l-143 -99h-54l133 131zM190 -1l325 850h107l324 -850h-159
l-32 136h-371l-43 -136h-151zM417 266h303l-153 445z" />
    <glyph glyph-name="Adieresis" unicode="&#xc4;" horiz-adv-x="1136" 
d="M353 980v165h165v-165h-165zM625 980v165h165v-165h-165zM190 -1l325 850h107l324 -850h-159l-32 136h-371l-43 -136h-151zM417 266h303l-153 445z" />
    <glyph glyph-name="uni01DE" unicode="&#x1de;" horiz-adv-x="1136" 
d="M388 1402l386 24l29 -77l-446 -17zM353 980v165h165v-165h-165zM625 980v165h165v-165h-165zM190 -1l325 850h107l324 -850h-159l-32 136h-371l-43 -136h-151zM417 266h303l-153 445z" />
    <glyph glyph-name="uni0226" unicode="&#x226;" horiz-adv-x="1136" 
d="M484 1020v165h165v-165h-165zM190 -1l325 850h107l324 -850h-159l-32 136h-371l-43 -136h-151zM417 266h303l-153 445z" />
    <glyph glyph-name="uni1EA0" unicode="&#x1ea0;" horiz-adv-x="1136" 
d="M190 -1l325 850h107l324 -850h-159l-32 136h-371l-43 -136h-151zM417 266h303l-153 445zM478 -321v165h165v-165h-165z" />
    <glyph glyph-name="uni01E0" unicode="&#x1e0;" horiz-adv-x="1136" 
d="M378 1551l386 24l29 -77l-446 -17zM484 1020v165h165v-165h-165zM190 -1l325 850h107l324 -850h-159l-32 136h-371l-43 -136h-151zM417 266h303l-153 445z" />
    <glyph glyph-name="Agrave" unicode="&#xc0;" horiz-adv-x="1136" 
d="M513 988l-140 135h95l207 -153zM190 -1l325 850h107l324 -850h-159l-32 136h-371l-43 -136h-151zM417 266h303l-153 445z" />
    <glyph glyph-name="uni1EA2" unicode="&#x1ea2;" horiz-adv-x="1136" 
d="M545 1011v6c0 12 1 26 5 33c8 11 18 21 34 31l25 22c13 9 22 20 22 35c0 12 -19 29 -69 29c-31 0 -61 -10 -95 -28v44c40 18 76 25 110 25c35 0 62 -7 84 -19c19 -15 33 -35 33 -55c0 -22 -14 -46 -46 -65l-23 -16c-12 -8 -15 -14 -16 -16c-5 -8 -6 -16 -6 -26h-58z
M190 -1l325 850h107l324 -850h-159l-32 136h-371l-43 -136h-151zM417 266h303l-153 445z" />
    <glyph glyph-name="uni2C6D" unicode="&#x2c6d;" horiz-adv-x="762" 
d="M563 602l24 71h95c0 -73 -33 -68 -33 -344c0 -269 20 -254 20 -329h-108v82c-38 -65 -110 -90 -190 -96c-127 -10 -291 27 -291 228c0 47 9 104 30 173c47 155 130 264 272 287c80 13 120 -11 181 -72zM176 282c6 -70 69 -134 183 -132c91 2 169 41 185 149
c16 107 -24 292 -129 304c-115 13 -249 -208 -239 -321z" />
    <glyph glyph-name="Amacron" unicode="&#x100;" horiz-adv-x="1136" 
d="M377 1165l386 24l29 -77l-446 -17zM190 -1l325 850h107l324 -850h-159l-32 136h-371l-43 -136h-151zM417 266h303l-153 445z" />
    <glyph glyph-name="Aogonek" unicode="&#x104;" horiz-adv-x="1136" 
d="M828 -156c15 0 34 2 55 5c3 -20 8 -53 11 -70c-115 -2 -183 30 -183 86c0 36 28 82 92 134h-16l-32 136h-371l-43 -136h-151l325 850h107l324 -850h-85c-62 -58 -94 -99 -94 -124c0 -20 20 -31 61 -31zM417 266h303l-153 445z" />
    <glyph glyph-name="Aring" unicode="&#xc5;" horiz-adv-x="1136" 
d="M569 999c-56 0 -102 49 -102 108s46 108 102 108s102 -49 102 -108s-46 -108 -102 -108zM569 1061c32 0 58 1 58 61c0 33 -26 60 -58 60s-58 -27 -58 -60c0 -60 26 -61 58 -61zM190 -1l325 850h107l324 -850h-159l-32 136h-371l-43 -136h-151zM417 266h303l-153 445z" />
    <glyph glyph-name="Aringacute" unicode="&#x1fa;" horiz-adv-x="1136" 
d="M511 1284l97 197h66l-66 -197h-97zM569 1028c-56 0 -102 49 -102 108s46 108 102 108s102 -49 102 -108s-46 -108 -102 -108zM569 1090c32 0 58 1 58 61c0 33 -26 60 -58 60s-58 -27 -58 -60c0 -60 26 -61 58 -61zM190 -1l325 850h107l324 -850h-159l-32 136h-371
l-43 -136h-151zM417 266h303l-153 445z" />
    <glyph glyph-name="uni1E00" unicode="&#x1e00;" horiz-adv-x="1136" 
d="M190 -1l325 850h107l324 -850h-159l-32 136h-371l-43 -136h-151zM417 266h303l-153 445zM568 -431c-56 0 -102 49 -102 108s46 108 102 108s102 -49 102 -108s-46 -108 -102 -108zM568 -369c32 0 58 1 58 61c0 33 -26 60 -58 60s-58 -27 -58 -60c0 -60 26 -61 58 -61z
" />
    <glyph glyph-name="Atilde" unicode="&#xc3;" horiz-adv-x="1136" 
d="M455 975h-62c9 132 26 170 106 170c75 0 94 -113 144 -113c56 0 44 57 46 113h52c-2 -165 -36 -171 -97 -170c-82 1 -103 118 -145 119c-44 1 -44 -70 -44 -119zM190 -1l325 850h107l324 -850h-159l-32 136h-371l-43 -136h-151zM417 266h303l-153 445z" />
    <glyph glyph-name="AE" unicode="&#xc6;" horiz-adv-x="1451" 
d="M1261 0h-315v-1h-159v1h-71l4 132h-303l-76 -133h-151l533 832h20v1l501 15l-23 -106l-373 -21v-18l29 -205l248 11v-116l-232 -15l29 -206h302zM482 260h242l14 432z" />
    <glyph glyph-name="B" unicode="B" horiz-adv-x="975" 
d="M190 0v847h257c170 0 259 -73 266 -192c6 -98 -49 -152 -128 -165c146 -23 205 -92 200 -259c-5 -197 -114 -231 -299 -231h-296zM302 541h165c108 0 150 32 150 102c0 72 -42 119 -150 119h-165v-221zM302 164h178c120 0 182 41 182 140c0 58 -20 69 -49 99
c-13 15 -53 37 -133 37h-178v-276z" />
    <glyph glyph-name="uni1E04" unicode="&#x1e04;" horiz-adv-x="975" 
d="M190 0v847h257c170 0 259 -73 266 -192c6 -98 -49 -152 -128 -165c146 -23 205 -92 200 -259c-5 -197 -114 -231 -299 -231h-296zM302 541h165c108 0 150 32 150 102c0 72 -42 119 -150 119h-165v-221zM302 164h178c120 0 182 41 182 140c0 58 -20 69 -49 99
c-13 15 -53 37 -133 37h-178v-276zM396 -244v165h165v-165h-165z" />
    <glyph glyph-name="uni0181" unicode="&#x181;" horiz-adv-x="975" 
d="M585 490c146 -23 205 -92 200 -259c-5 -197 -114 -231 -299 -231h-296v717c-55 -8 -82 -50 -90 -98c-6 -36 -6 -106 -6 -142l-65 99v67c0 84 52 187 161 203v1h9c7 1 14 1 21 1v-1h227c170 0 259 -73 266 -192c6 -98 -49 -152 -128 -165zM302 762v-221h165
c108 0 150 32 150 102c0 72 -42 119 -150 119h-165zM480 164c120 0 182 41 182 140c0 58 -20 69 -49 99c-13 15 -53 37 -133 37h-178v-276h178z" />
    <glyph glyph-name="uni0243" unicode="&#x243;" horiz-adv-x="975" 
d="M585 490c146 -23 205 -92 200 -259c-5 -197 -114 -231 -299 -231h-296v233h-152v103h152v511h257c170 0 259 -73 266 -192c6 -98 -49 -152 -128 -165zM302 762v-221h165c108 0 150 32 150 102c0 72 -42 119 -150 119h-165zM480 164c120 0 182 41 182 140
c0 58 -20 69 -49 99c-13 15 -53 37 -133 37h-178v-104h177v-103h-177v-69h178z" />
    <glyph glyph-name="C" unicode="C" horiz-adv-x="1003" 
d="M813 830l-16 -108c-64 11 -138 22 -186 19c-118 -8 -251 -119 -278 -267c-35 -189 102 -278 289 -271c96 4 130 26 185 43l2 -234c-63 -19 -247 -34 -342 -25c-215 21 -314 231 -265 487c27 143 126 339 402 373c99 13 131 -5 209 -17z" />
    <glyph glyph-name="Cacute" unicode="&#x106;" horiz-adv-x="1003" 
d="M569 965l97 197h66l-66 -197h-97zM813 830l-16 -108c-64 11 -138 22 -186 19c-118 -8 -251 -119 -278 -267c-35 -189 102 -278 289 -271c96 4 130 26 185 43l2 -234c-63 -19 -247 -34 -342 -25c-215 21 -314 231 -265 487c27 143 126 339 402 373c99 13 131 -5 209 -17z
" />
    <glyph glyph-name="Ccaron" unicode="&#x10c;" horiz-adv-x="1003" 
d="M606 1006l-44 64l-133 131h54l143 -99l145 99h54l-132 -131l-39 -64h-48zM813 830l-16 -108c-64 11 -138 22 -186 19c-118 -8 -251 -119 -278 -267c-35 -189 102 -278 289 -271c96 4 130 26 185 43l2 -234c-63 -19 -247 -34 -342 -25c-215 21 -314 231 -265 487
c27 143 126 339 402 373c99 13 131 -5 209 -17z" />
    <glyph glyph-name="Ccedilla" unicode="&#xc7;" horiz-adv-x="1003" 
d="M809 12c-40 -12 -127 -22 -210 -26l-22 -60h35c44 0 113 -18 102 -86c-9 -55 -53 -88 -118 -88h-70l13 60c26 -6 35 -6 59 -6c41 0 74 22 74 40c0 50 -43 52 -71 52c-19 0 -42 -2 -69 -6l31 93c-36 -1 -69 -1 -96 2c-215 21 -314 231 -265 487c27 143 126 339 402 373
c99 13 131 -5 209 -17l-16 -108c-64 11 -138 22 -186 19c-118 -8 -251 -119 -278 -267c-35 -189 102 -278 289 -271c96 4 130 26 185 43z" />
    <glyph glyph-name="Cdotaccent" unicode="&#x10a;" horiz-adv-x="1003" 
d="M544 996v165h165v-165h-165zM813 830l-16 -108c-64 11 -138 22 -186 19c-118 -8 -251 -119 -278 -267c-35 -189 102 -278 289 -271c96 4 130 26 185 43l2 -234c-63 -19 -247 -34 -342 -25c-215 21 -314 231 -265 487c27 143 126 339 402 373c99 13 131 -5 209 -17z" />
    <glyph glyph-name="uni0187" unicode="&#x187;" horiz-adv-x="1003" 
d="M805 942v-21v-90c3 0 5 -1 8 -1l-16 -108c-64 11 -138 22 -186 19c-118 -8 -251 -119 -278 -267c-35 -189 102 -278 289 -271c96 4 130 26 185 43l2 -234c-63 -19 -247 -34 -342 -25c-215 21 -314 231 -265 487c27 143 126 339 402 373c76 10 112 2 160 -8v82v2v19
c0 6 0 8 1 20c2 43 13 46 74 45v-33c-33 0 -34 -1 -34 -20v-12z" />
    <glyph glyph-name="D" unicode="D" horiz-adv-x="1089" 
d="M190 0v849h230c319 0 445 -220 473 -429c49 -354 -234 -420 -473 -420h-230zM308 215h134c285 0 327 80 305 229c-18 127 -78 270 -305 270h-134v-499z" />
    <glyph glyph-name="uni01F1" unicode="&#x1f1;" horiz-adv-x="1988" 
d="M190 0v849h230c319 0 445 -220 473 -429c49 -354 -234 -420 -473 -420h-230zM1049 0v157l545 553l-402 -5l-50 144h636l-12 -164l-454 -520h433l53 -158zM308 215h134c285 0 327 80 305 229c-18 127 -78 270 -305 270h-134v-499z" />
    <glyph glyph-name="uni01C4" unicode="&#x1c4;" horiz-adv-x="1988" 
d="M1390 967l-44 64l-133 131h54l143 -99l145 99h54l-132 -131l-39 -64h-48zM190 0v849h230c319 0 445 -220 473 -429c49 -354 -234 -420 -473 -420h-230zM1049 0v157l545 553l-402 -5l-50 144h636l-12 -164l-454 -520h433l53 -158zM308 215h134c285 0 327 80 305 229
c-18 127 -78 270 -305 270h-134v-499z" />
    <glyph glyph-name="uni0189" unicode="&#x189;" horiz-adv-x="1089" 
d="M893 420c49 -354 -234 -420 -473 -420h-230v368h-140v103h140v378h230c319 0 445 -220 473 -429zM442 215c285 0 327 80 305 229c-18 127 -78 270 -305 270h-134v-243h183v-103h-183v-153h134z" />
    <glyph glyph-name="Eth" unicode="&#xd0;" horiz-adv-x="1089" 
d="M893 420c49 -354 -234 -420 -473 -420h-230v368h-140v103h140v378h230c319 0 445 -220 473 -429zM442 215c285 0 327 80 305 229c-18 127 -78 270 -305 270h-134v-243h183v-103h-183v-153h134z" />
    <glyph glyph-name="Dcaron" unicode="&#x10e;" horiz-adv-x="1089" 
d="M474 1004l-44 64l-133 131h54l143 -99l145 99h54l-132 -131l-39 -64h-48zM190 0v849h230c319 0 445 -220 473 -429c49 -354 -234 -420 -473 -420h-230zM308 215h134c285 0 327 80 305 229c-18 127 -78 270 -305 270h-134v-499z" />
    <glyph glyph-name="uni1E12" unicode="&#x1e12;" horiz-adv-x="1089" 
d="M190 0v849h230c319 0 445 -220 473 -429c49 -354 -234 -420 -473 -420h-230zM308 215h134c285 0 327 80 305 229c-18 127 -78 270 -305 270h-134v-499zM471 -169h48l39 -64l132 -131h-54l-145 99l-143 -99h-54l133 131z" />
    <glyph glyph-name="Dcroat" unicode="&#x110;" horiz-adv-x="1089" 
d="M893 420c49 -354 -234 -420 -473 -420h-230v368h-140v103h140v378h230c319 0 445 -220 473 -429zM442 215c285 0 327 80 305 229c-18 127 -78 270 -305 270h-134v-243h183v-103h-183v-153h134z" />
    <glyph glyph-name="uni1E0A" unicode="&#x1e0a;" horiz-adv-x="1089" 
d="M412 994v165h165v-165h-165zM190 0v849h230c319 0 445 -220 473 -429c49 -354 -234 -420 -473 -420h-230zM308 215h134c285 0 327 80 305 229c-18 127 -78 270 -305 270h-134v-499z" />
    <glyph glyph-name="uni1E0C" unicode="&#x1e0c;" horiz-adv-x="1089" 
d="M190 0v849h230c319 0 445 -220 473 -429c49 -354 -234 -420 -473 -420h-230zM308 215h134c285 0 327 80 305 229c-18 127 -78 270 -305 270h-134v-499zM405 -248v165h165v-165h-165z" />
    <glyph glyph-name="uni018A" unicode="&#x18a;" horiz-adv-x="1089" 
d="M893 420c49 -354 -234 -420 -473 -420h-230v720c-68 0 -101 -46 -110 -100c-6 -36 -6 -106 -6 -142l-65 99v67c0 89 58 199 181 205h230c319 0 445 -220 473 -429zM442 215c285 0 327 80 305 229c-18 127 -78 270 -305 270h-134v-499h134z" />
    <glyph glyph-name="uni1E0E" unicode="&#x1e0e;" horiz-adv-x="1089" 
d="M190 0v849h230c319 0 445 -220 473 -429c49 -354 -234 -420 -473 -420h-230zM308 215h134c285 0 327 80 305 229c-18 127 -78 270 -305 270h-134v-499zM342 -142l307 18l23 -57l-354 -13z" />
    <glyph glyph-name="uni01F2" unicode="&#x1f2;" horiz-adv-x="1886" 
d="M190 0v849h230c319 0 445 -220 473 -429c49 -354 -234 -420 -473 -420h-230zM308 215h134c285 0 327 80 305 229c-18 127 -78 270 -305 270h-134v-499zM1222 0l24 131l351 333h-291v96h414l13 -90l-332 -349h265l57 -121h-501z" />
    <glyph glyph-name="uni01C5" unicode="&#x1c5;" horiz-adv-x="1906" 
d="M1488 716l-44 64l-133 131h54l143 -99l145 99h54l-132 -131l-39 -64h-48zM190 0v849h230c319 0 445 -220 473 -429c49 -354 -234 -420 -473 -420h-230zM308 215h134c285 0 327 80 305 229c-18 127 -78 270 -305 270h-134v-499zM1242 0l24 131l351 333h-291v96h414l13 -90
l-332 -349h265l57 -121h-501z" />
    <glyph glyph-name="E" unicode="E" horiz-adv-x="925" 
d="M190 0l27 832l501 15l-23 -106l-373 -21v-224l277 12v-116l-277 -18v-203h376l37 -171h-545z" />
    <glyph glyph-name="Eacute" unicode="&#xc9;" horiz-adv-x="925" 
d="M414 972l97 197h66l-66 -197h-97zM190 0l27 832l501 15l-23 -106l-373 -21v-224l277 12v-116l-277 -18v-203h376l37 -171h-545z" />
    <glyph glyph-name="Ebreve" unicode="&#x114;" horiz-adv-x="925" 
d="M469 1010c-107 0 -192 74 -192 197h65c0 -88 48 -102 127 -102c93 0 136 15 136 102h65c0 -123 -95 -197 -201 -197zM698 171l37 -171h-545l27 832l501 15l-23 -106l-373 -21v-224l277 12v-116l-277 -18v-203h376z" />
    <glyph glyph-name="Ecaron" unicode="&#x11a;" horiz-adv-x="925" 
d="M451 1013l-44 64l-133 131h54l143 -99l145 99h54l-132 -131l-39 -64h-48zM190 0l27 832l501 15l-23 -106l-373 -21v-224l277 12v-116l-277 -18v-203h376l37 -171h-545z" />
    <glyph glyph-name="uni0228" unicode="&#x228;" horiz-adv-x="925" 
d="M548 -24c44 0 113 -18 102 -86c-9 -55 -53 -88 -118 -88h-70l13 60c26 -6 35 -6 59 -6c41 0 74 22 74 40c0 50 -43 52 -71 52c-19 0 -42 -2 -69 -6l20 58h-298l27 832l501 15l-23 -106l-373 -21v-224l277 12v-116l-277 -18v-203h376l37 -171h-213l-9 -24h35z" />
    <glyph glyph-name="Ecircumflex" unicode="&#xca;" horiz-adv-x="925" 
d="M454 1112h48l39 -64l132 -131h-54l-145 99l-143 -99h-54l133 131zM190 0l27 832l501 15l-23 -106l-373 -21v-224l277 12v-116l-277 -18v-203h376l37 -171h-545z" />
    <glyph glyph-name="uni1EBE" unicode="&#x1ebe;" horiz-adv-x="925" 
d="M704 980l97 197h66l-66 -197h-97zM454 1112h48l39 -64l132 -131h-54l-145 99l-143 -99h-54l133 131zM190 0l27 832l501 15l-23 -106l-373 -21v-224l277 12v-116l-277 -18v-203h376l37 -171h-545z" />
    <glyph glyph-name="uni1EC6" unicode="&#x1ec6;" horiz-adv-x="925" 
d="M454 1112h48l39 -64l132 -131h-54l-145 99l-143 -99h-54l133 131zM190 0l27 832l501 15l-23 -106l-373 -21v-224l277 12v-116l-277 -18v-203h376l37 -171h-545zM423 -236v165h165v-165h-165z" />
    <glyph glyph-name="uni1EC0" unicode="&#x1ec0;" horiz-adv-x="925" 
d="M774 1076l-140 135h95l207 -153zM454 1112h48l39 -64l132 -131h-54l-145 99l-143 -99h-54l133 131zM190 0l27 832l501 15l-23 -106l-373 -21v-224l277 12v-116l-277 -18v-203h376l37 -171h-545z" />
    <glyph glyph-name="uni1EC2" unicode="&#x1ec2;" horiz-adv-x="925" 
d="M642 1096v5c0 11 1 23 4 29c7 10 16 19 30 28l22 19c12 8 20 18 20 31c0 11 -17 26 -61 26c-28 0 -54 -9 -84 -25v39c35 16 67 22 97 22c31 0 55 -6 74 -17c17 -13 30 -31 30 -48c0 -20 -13 -41 -41 -58l-20 -14c-11 -7 -14 -12 -15 -14c-4 -7 -5 -14 -5 -23h-51z
M454 1112h48l39 -64l132 -131h-54l-145 99l-143 -99h-54l133 131zM190 0l27 832l501 15l-23 -106l-373 -21v-224l277 12v-116l-277 -18v-203h376l37 -171h-545z" />
    <glyph glyph-name="uni1EC4" unicode="&#x1ec4;" horiz-adv-x="925" 
d="M364 1161h-62c9 132 26 170 106 170c75 0 94 -113 144 -113c56 0 44 57 46 113h52c-2 -165 -36 -171 -97 -170c-82 1 -103 118 -145 119c-44 1 -44 -70 -44 -119zM455 1126h48l39 -64l132 -131h-54l-145 99l-143 -99h-54l133 131zM190 0l27 832l501 15l-23 -106l-373 -21
v-224l277 12v-116l-277 -18v-203h376l37 -171h-545z" />
    <glyph glyph-name="Edieresis" unicode="&#xcb;" horiz-adv-x="925" 
d="M258 963v165h165v-165h-165zM530 963v165h165v-165h-165zM190 0l27 832l501 15l-23 -106l-373 -21v-224l277 12v-116l-277 -18v-203h376l37 -171h-545z" />
    <glyph glyph-name="Edotaccent" unicode="&#x116;" horiz-adv-x="925" 
d="M389 1003v165h165v-165h-165zM190 0l27 832l501 15l-23 -106l-373 -21v-224l277 12v-116l-277 -18v-203h376l37 -171h-545z" />
    <glyph glyph-name="uni1EB8" unicode="&#x1eb8;" horiz-adv-x="925" 
d="M190 0l27 832l501 15l-23 -106l-373 -21v-224l277 12v-116l-277 -18v-203h376l37 -171h-545zM423 -236v165h165v-165h-165z" />
    <glyph glyph-name="Egrave" unicode="&#xc8;" horiz-adv-x="925" 
d="M418 971l-140 135h95l207 -153zM190 0l27 832l501 15l-23 -106l-373 -21v-224l277 12v-116l-277 -18v-203h376l37 -171h-545z" />
    <glyph glyph-name="uni1EBA" unicode="&#x1eba;" horiz-adv-x="925" 
d="M453 986v5c0 11 1 23 4 29c7 10 16 19 30 28l22 19c12 8 20 18 20 31c0 11 -17 26 -61 26c-28 0 -54 -9 -84 -25v39c35 16 67 22 97 22c31 0 55 -6 74 -17c17 -13 30 -31 30 -48c0 -20 -13 -41 -41 -58l-20 -14c-11 -7 -14 -12 -15 -14c-4 -7 -5 -14 -5 -23h-51zM190 0
l27 832l501 15l-23 -106l-373 -21v-224l277 12v-116l-277 -18v-203h376l37 -171h-545z" />
    <glyph glyph-name="Emacron" unicode="&#x112;" horiz-adv-x="925" 
d="M282 1148l386 24l29 -77l-446 -17zM190 0l27 832l501 15l-23 -106l-373 -21v-224l277 12v-116l-277 -18v-203h376l37 -171h-545z" />
    <glyph glyph-name="Eogonek" unicode="&#x118;" horiz-adv-x="925" 
d="M522 -119c15 0 34 2 55 5c3 -20 8 -53 11 -70c-115 -2 -183 30 -183 86c0 28 17 61 53 98h-268l27 832l501 15l-23 -106l-373 -21v-224l277 12v-116l-277 -18v-203h376l37 -171h-217c-38 -39 -57 -68 -57 -88s20 -31 61 -31z" />
    <glyph glyph-name="uni0190" unicode="&#x190;" horiz-adv-x="697" 
d="M358 -17c-130 0 -245 74 -245 225c0 89 33 149 145 165c-91 32 -129 77 -129 154c0 112 89 181 234 181c56 0 179 -34 179 -158l-63 -13c1 83 -55 109 -106 109c-97 0 -176 -36 -176 -112c0 -89 66 -116 160 -116h33l17 -75h-32c-104 1 -160 -46 -160 -109
c0 -64 37 -121 133 -122c70 -2 142 0 105 146l114 10c82 -244 -149 -285 -209 -285z" />
    <glyph glyph-name="uni018E" unicode="&#x18e;" horiz-adv-x="925" 
d="M735 0h-545l37 171h376v203l-277 18v116l277 -12v224l-373 21l-23 106l501 -15z" />
    <glyph glyph-name="uni01A9" unicode="&#x1a9;" horiz-adv-x="599" 
d="M519 629h-371l237 -246v-1l1 -1v-72l-1 2l-199 -208h333v-109h-438l-1 -1v110l268 246l-267 278v2h-1v71h439v-71z" />
    <glyph glyph-name="uni1EBC" unicode="&#x1ebc;" horiz-adv-x="925" 
d="M359 1061h-62c9 132 26 170 106 170c75 0 94 -113 144 -113c56 0 44 57 46 113h52c-2 -165 -36 -171 -97 -170c-82 1 -103 118 -145 119c-44 1 -44 -70 -44 -119zM190 0l27 832l501 15l-23 -106l-373 -21v-224l277 12v-116l-277 -18v-203h376l37 -171h-545z" />
    <glyph glyph-name="uni1E1A" unicode="&#x1e1a;" horiz-adv-x="925" 
d="M190 0l27 832l501 15l-23 -106l-373 -21v-224l277 12v-116l-277 -18v-203h376l37 -171h-545zM376 -250h-62c9 132 26 170 106 170c75 0 94 -113 144 -113c56 0 44 57 46 113h52c-2 -165 -36 -171 -97 -170c-82 1 -103 118 -145 119c-44 1 -44 -70 -44 -119z" />
    <glyph glyph-name="uni01B7" unicode="&#x1b7;" horiz-adv-x="726" 
d="M389 314c120 -9 226 -111 234 -207c14 -164 -24 -307 -238 -307c-33 0 -158 -2 -285 123l127 104c141 -138 274 -50 271 99c-7 79 -121 119 -261 106v93c112 105 167 143 261 248c-113 -1 -248 -1 -395 0v94c98 0 395 4 475 0c12 -69 10 -69 18 -140
c-90 -100 -115 -121 -207 -213z" />
    <glyph glyph-name="uni01EE" unicode="&#x1ee;" horiz-adv-x="726" 
d="M334 782l-44 64l-133 131h54l143 -99l145 99h54l-132 -131l-39 -64h-48zM389 314c120 -9 226 -111 234 -207c14 -164 -24 -307 -238 -307c-33 0 -158 -2 -285 123l127 104c141 -138 274 -50 271 99c-7 79 -121 119 -261 106v93c112 105 167 143 261 248
c-113 -1 -248 -1 -395 0v94c98 0 395 4 475 0c12 -69 10 -69 18 -140c-90 -100 -115 -121 -207 -213z" />
    <glyph glyph-name="F" unicode="F" horiz-adv-x="857" 
d="M190 0l44 834l433 13v-74l-326 -19l-18 -201h293v-116h-288l16 -437h-154z" />
    <glyph glyph-name="uni1E1E" unicode="&#x1e1e;" horiz-adv-x="857" 
d="M344 1001v165h165v-165h-165zM190 0l44 834l433 13v-74l-326 -19l-18 -201h293v-116h-288l16 -437h-154z" />
    <glyph glyph-name="uni0191" unicode="&#x191;" horiz-adv-x="857" 
d="M667 773l-326 -19l-18 -201h293v-116h-288l14 -379c13 -23 25 -45 25 -57c0 -90 -151 -182 -298 -182c1 60 3 87 10 146c59 0 95 30 113 71l42 798l433 13v-74z" />
    <glyph glyph-name="G" unicode="G" horiz-adv-x="1148" 
d="M602 -14c-348 0 -400 147 -411 427c-16 388 173 425 411 436c108 5 198 -3 225 -27l13 -98c-52 34 -173 35 -229 34c-201 -6 -279 -80 -279 -334c0 -214 78 -256 279 -256c79 0 146 11 173 39l2 102l-150 26l-16 88l319 -36l19 -108l-76 13l12 -234
c-93 -61 -210 -72 -292 -72z" />
    <glyph glyph-name="uni01F4" unicode="&#x1f4;" horiz-adv-x="1148" 
d="M533 967l97 197h66l-66 -197h-97zM602 -14c-348 0 -400 147 -411 427c-16 388 173 425 411 436c108 5 198 -3 225 -27l13 -98c-52 34 -173 35 -229 34c-201 -6 -279 -80 -279 -334c0 -214 78 -256 279 -256c79 0 146 11 173 39l2 102l-150 26l-16 88l319 -36l19 -108
l-76 13l12 -234c-93 -61 -210 -72 -292 -72z" />
    <glyph glyph-name="Gbreve" unicode="&#x11e;" horiz-adv-x="1148" 
d="M588 1005c-107 0 -192 74 -192 197h65c0 -88 48 -102 127 -102c93 0 136 15 136 102h65c0 -123 -95 -197 -201 -197zM958 279l-76 13l12 -234c-93 -61 -210 -72 -292 -72c-348 0 -400 147 -411 427c-16 388 173 425 411 436c108 5 198 -3 225 -27l13 -98
c-52 34 -173 35 -229 34c-201 -6 -279 -80 -279 -334c0 -214 78 -256 279 -256c79 0 146 11 173 39l2 102l-150 26l-16 88l319 -36z" />
    <glyph glyph-name="Gcaron" unicode="&#x1e6;" horiz-adv-x="1148" 
d="M570 1008l-44 64l-133 131h54l143 -99l145 99h54l-132 -131l-39 -64h-48zM602 -14c-348 0 -400 147 -411 427c-16 388 173 425 411 436c108 5 198 -3 225 -27l13 -98c-52 34 -173 35 -229 34c-201 -6 -279 -80 -279 -334c0 -214 78 -256 279 -256c79 0 146 11 173 39
l2 102l-150 26l-16 88l319 -36l19 -108l-76 13l12 -234c-93 -61 -210 -72 -292 -72z" />
    <glyph glyph-name="uni0122" unicode="&#x122;" horiz-adv-x="1148" 
d="M958 279l-76 13l12 -234c-93 -61 -210 -72 -292 -72c-348 0 -400 147 -411 427c-16 388 173 425 411 436c108 5 198 -3 225 -27l13 -98c-52 34 -173 35 -229 34c-201 -6 -279 -80 -279 -334c0 -214 78 -256 279 -256c79 0 146 11 173 39l2 102l-150 26l-16 88l319 -36z
M695 -165l-78 -281h-152l51 142h-8l16 139h171z" />
    <glyph glyph-name="Gdotaccent" unicode="&#x120;" horiz-adv-x="1148" 
d="M508 998v165h165v-165h-165zM602 -14c-348 0 -400 147 -411 427c-16 388 173 425 411 436c108 5 198 -3 225 -27l13 -98c-52 34 -173 35 -229 34c-201 -6 -279 -80 -279 -334c0 -214 78 -256 279 -256c79 0 146 11 173 39l2 102l-150 26l-16 88l319 -36l19 -108l-76 13
l12 -234c-93 -61 -210 -72 -292 -72z" />
    <glyph glyph-name="uni0193" unicode="&#x193;" horiz-adv-x="1148" 
d="M958 279l-76 13l12 -234c-93 -61 -210 -72 -292 -72c-348 0 -400 147 -411 427c-16 388 173 425 411 436c60 3 115 2 156 -4v147v2v27c0 8 0 12 1 28c4 61 23 65 125 64v-47c-55 0 -57 -1 -57 -28v-17v-29v-170l13 -98c-52 34 -173 35 -229 34
c-201 -6 -279 -80 -279 -334c0 -214 78 -256 279 -256c79 0 146 11 173 39l2 102l-150 26l-16 88l319 -36z" />
    <glyph glyph-name="uni01E4" unicode="&#x1e4;" horiz-adv-x="1148" 
d="M958 279l-76 13l12 -234c-93 -61 -210 -72 -292 -72c-348 0 -400 147 -411 427c0 6 0 11 -1 17h-163v103h166c26 276 198 306 409 316c108 5 198 -3 225 -27l13 -98c-52 34 -173 35 -229 34c-169 -5 -251 -58 -273 -225h130v-103h-136v-6c0 -214 78 -256 279 -256
c79 0 146 11 173 39l2 102l-150 26l-16 88l319 -36z" />
    <glyph glyph-name="H" unicode="H" horiz-adv-x="1071" 
d="M881 0h-180l7 211h-354l8 -211h-172l23 847h117l17 -448h367l14 448h118z" />
    <glyph glyph-name="Hbar" unicode="&#x126;" horiz-adv-x="1071" 
d="M904 575l-8 -91h-35l20 -484h-180l7 211h-354l8 -211h-172l13 486h-66l7 91h62l7 270h117l10 -271l379 -1l9 272h118l11 -272h47zM714 399l2 85l-372 1l3 -86h367z" />
    <glyph glyph-name="uni1E28" unicode="&#x1e28;" horiz-adv-x="1071" 
d="M881 0h-180l7 211h-354l8 -211h-72l-28 -75h35c44 0 113 -18 102 -86c-9 -55 -53 -88 -118 -88h-70l13 60c26 -6 35 -6 59 -6c41 0 74 22 74 40c0 50 -43 52 -71 52c-19 0 -42 -2 -69 -6l37 109h-64l23 847h117l17 -448h367l14 448h118z" />
    <glyph glyph-name="uni1E24" unicode="&#x1e24;" horiz-adv-x="1071" 
d="M881 0h-180l7 211h-354l8 -211h-172l23 847h117l17 -448h367l14 448h118zM446 -192v165h165v-165h-165z" />
    <glyph glyph-name="uniA7AA" unicode="&#xa7aa;" horiz-adv-x="1071" 
d="M881 0h-180l7 211h-354l8 -211h-172l19 718c-65 -2 -96 -47 -105 -100c-6 -36 -6 -106 -6 -142l-65 99v67c0 88 58 198 180 205h117l17 -448h367l14 448h118z" />
    <glyph glyph-name="uniA78D" unicode="&#xa78d;" horiz-adv-x="663" 
d="M80 430l5 300h80l5 -271c1 -57 15 -97 42 -120c22 -18 54 -27 97 -27c48 0 86 14 114 42c29 29 44 70 45 123l12 253h83l20 -730h-125l7 278c-35 -55 -97 -82 -186 -82c-63 0 -112 20 -147 60c-35 41 -52 99 -52 174z" />
    <glyph glyph-name="I" unicode="I" horiz-adv-x="438" 
d="M140 0c35 330 17 738 6 847h143c-12 -267 0 -572 29 -847h-178z" />
    <glyph glyph-name="IJ" unicode="&#x132;" horiz-adv-x="913" 
d="M402 -238l-75 7l8 182l57 -13c96 -21 140 70 142 130l26 780h142l-39 -787c-10 -198 -73 -297 -261 -299zM140 0c35 330 17 738 6 847h143c-12 -267 0 -572 29 -847h-178z" />
    <glyph glyph-name="Iacute" unicode="&#xcd;" horiz-adv-x="438" 
d="M152 1037l97 197h66l-66 -197h-97zM140 0c35 330 17 738 6 847h143c-12 -267 0 -572 29 -847h-178z" />
    <glyph glyph-name="uni01CF" unicode="&#x1cf;" horiz-adv-x="438" 
d="M189 1078l-44 64l-133 131h54l143 -99l145 99h54l-132 -131l-39 -64h-48zM140 0c35 330 17 738 6 847h143c-12 -267 0 -572 29 -847h-178z" />
    <glyph glyph-name="Icircumflex" unicode="&#xce;" horiz-adv-x="438" 
d="M192 1177h48l39 -64l132 -131h-54l-145 99l-143 -99h-54l133 131zM140 0c35 330 17 738 6 847h143c-12 -267 0 -572 29 -847h-178z" />
    <glyph glyph-name="Idieresis" unicode="&#xcf;" horiz-adv-x="438" 
d="M-4 1028v165h165v-165h-165zM268 1028v165h165v-165h-165zM140 0c35 330 17 738 6 847h143c-12 -267 0 -572 29 -847h-178z" />
    <glyph glyph-name="uni1E2E" unicode="&#x1e2e;" horiz-adv-x="438" 
d="M156 1273l97 197h66l-66 -197h-97zM-11 1039v165h165v-165h-165zM261 1039v165h165v-165h-165zM140 0c35 330 17 738 6 847h143c-12 -267 0 -572 29 -847h-178z" />
    <glyph glyph-name="Idotaccent" unicode="&#x130;" horiz-adv-x="438" 
d="M127 1068v165h165v-165h-165zM140 0c35 330 17 738 6 847h143c-12 -267 0 -572 29 -847h-178z" />
    <glyph glyph-name="uni1ECA" unicode="&#x1eca;" horiz-adv-x="438" 
d="M140 0c35 330 17 738 6 847h143c-12 -267 0 -572 29 -847h-178zM135 -255v165h165v-165h-165z" />
    <glyph glyph-name="Igrave" unicode="&#xcc;" horiz-adv-x="438" 
d="M156 1036l-140 135h95l207 -153zM140 0c35 330 17 738 6 847h143c-12 -267 0 -572 29 -847h-178z" />
    <glyph glyph-name="uni1EC8" unicode="&#x1ec8;" horiz-adv-x="438" 
d="M191 1051v5c0 11 1 23 4 29c7 10 16 19 30 28l22 19c12 8 20 18 20 31c0 11 -17 26 -61 26c-28 0 -54 -9 -84 -25v39c35 16 67 22 97 22c31 0 55 -6 74 -17c17 -13 30 -31 30 -48c0 -20 -13 -41 -41 -58l-20 -14c-11 -7 -14 -12 -15 -14c-4 -7 -5 -14 -5 -23h-51zM140 0
c35 330 17 738 6 847h143c-12 -267 0 -572 29 -847h-178z" />
    <glyph glyph-name="Imacron" unicode="&#x12a;" horiz-adv-x="438" 
d="M20 1213l386 24l29 -77l-446 -17zM140 0c35 330 17 738 6 847h143c-12 -267 0 -572 29 -847h-178z" />
    <glyph glyph-name="Iogonek" unicode="&#x12e;" horiz-adv-x="600" 
d="M384 -138c15 0 34 2 55 5c3 -20 8 -53 11 -70c-115 -2 -183 30 -183 86c0 32 22 72 72 117h-49c35 330 17 738 6 847h143c-12 -267 0 -572 29 -847h-69c-50 -49 -76 -84 -76 -107c0 -20 20 -31 61 -31z" />
    <glyph glyph-name="uni0196" unicode="&#x196;" horiz-adv-x="358" 
d="M305 102c4 -40 4 -55 4 -85c-67 -17 -126 -21 -168 -21c-24 0 -44 1 -54 3c-31 7 -35 11 -35 32c0 11 2 26 6 45c2 10 3 21 5 34c15 200 32 347 32 582h91c-8 -177 -8 -386 24 -592c8 -5 19 -7 32 -7c17 0 37 3 63 9z" />
    <glyph glyph-name="uni0197" unicode="&#x197;" horiz-adv-x="438" 
d="M346 500v-103h-57c6 -134 15 -269 29 -397h-178c14 128 19 268 20 397h-82v103h82c-1 160 -8 292 -14 347h143c-5 -111 -6 -228 -3 -347h60z" />
    <glyph glyph-name="Itilde" unicode="&#x128;" horiz-adv-x="438" 
d="M97 1126h-62c9 132 26 170 106 170c75 0 94 -113 144 -113c56 0 44 57 46 113h52c-2 -165 -36 -171 -97 -170c-82 1 -103 118 -145 119c-44 1 -44 -70 -44 -119zM140 0c35 330 17 738 6 847h143c-12 -267 0 -572 29 -847h-178z" />
    <glyph glyph-name="J" unicode="J" horiz-adv-x="755" 
d="M265 -211l-75 7l8 182l57 -13c96 -21 140 70 142 130l26 780h142l-39 -787c-10 -198 -73 -297 -261 -299z" />
    <glyph glyph-name="K" unicode="K" horiz-adv-x="1024" 
d="M190 0l73 849h100l-15 -396l235 396h144l-275 -455l382 -394h-263l-223 329l-13 -329h-145z" />
    <glyph glyph-name="uni0136" unicode="&#x136;" horiz-adv-x="1024" 
d="M452 394l382 -394h-263l-223 329l-13 -329h-145l73 849h100l-15 -396l235 396h144zM525 -61l-78 -281h-152l51 142h-8l16 139h171z" />
    <glyph glyph-name="uni0198" unicode="&#x198;" horiz-adv-x="1024" 
d="M452 394l382 -394h-263l-223 329l-13 -329h-145l73 849h100l-15 -396l235 396h5v3c53 19 94 14 124 -3h15l-4 -7c38 -28 56 -78 56 -128v-67l-65 -122c0 36 0 106 -6 140c-6 33 -22 60 -51 67z" />
    <glyph glyph-name="L" unicode="L" horiz-adv-x="909" 
d="M190 0l40 847h100l-23 -683l412 18v-182h-529z" />
    <glyph glyph-name="uni01C7" unicode="&#x1c7;" horiz-adv-x="1534" 
d="M801 182v-182h-218c-40 -38 -98 -57 -180 -58l-75 7l2 51h-58l40 847h100l-23 -683l122 5c15 25 23 55 24 79l26 780h142l-39 -787c-1 -23 -3 -45 -6 -65z" />
    <glyph glyph-name="Lacute" unicode="&#x139;" horiz-adv-x="909" 
d="M210 933l97 197h66l-66 -197h-97zM190 0l40 847h100l-23 -683l412 18v-182h-529z" />
    <glyph glyph-name="uni023D" unicode="&#x23d;" horiz-adv-x="909" 
d="M307 164l412 18v-182h-529l18 374l-216 1l5 91l215 -1l18 382h100l-13 -382l234 -1l-6 -91l-231 1z" />
    <glyph glyph-name="Lcaron" unicode="&#x13d;" horiz-adv-x="909" 
d="M190 0l40 847h100l-23 -683l412 18v-182h-529zM617 459h-95l28 213h79z" />
    <glyph glyph-name="uni1E3C" unicode="&#x1e3c;" horiz-adv-x="909" 
d="M190 0l40 847h100l-23 -683l412 18v-182h-529zM433 -197h48l39 -64l132 -131h-54l-145 99l-143 -99h-54l133 131z" />
    <glyph glyph-name="uni013B" unicode="&#x13b;" horiz-adv-x="909" 
d="M307 164l412 18v-182h-529l40 847h100zM550 -159l-78 -281h-152l51 142h-8l16 139h171z" />
    <glyph glyph-name="Ldot" unicode="&#x13f;" horiz-adv-x="909" 
d="M190 0l40 847h100l-23 -683l412 18v-182h-529zM499 526v165h165v-165h-165z" />
    <glyph glyph-name="uni1E36" unicode="&#x1e36;" horiz-adv-x="909" 
d="M190 0l40 847h100l-23 -683l412 18v-182h-529zM367 -276v165h165v-165h-165z" />
    <glyph glyph-name="uni01C8" unicode="&#x1c8;" horiz-adv-x="1062" 
d="M120 0l40 847h100l-23 -683l412 18v-182h-529zM934 696v148h148v-148h-148zM946 0c17 59 17 193 28 595h95l-30 -571c-6 -107 -22 -149 -57 -176c-33 -26 -168 -46 -253 -29l46 94c50 -9 144 -4 171 87z" />
    <glyph glyph-name="uni2C62" unicode="&#x2c62;" horiz-adv-x="909" 
d="M307 164l412 18v-182h-529l20 425c-9 7 -19 12 -29 12c-57 1 -57 -70 -57 -119h-80c12 132 34 170 137 170c12 0 22 -2 32 -4l17 363h100l-15 -446c15 -15 31 -26 51 -26c73 0 57 57 60 113h67c-3 -165 -47 -171 -125 -170c-21 0 -40 5 -55 13z" />
    <glyph glyph-name="Lslash" unicode="&#x141;" horiz-adv-x="909" 
d="M307 164l412 18v-182h-529l15 312l-87 -71l-100 22l191 143l21 441h100l-12 -360l131 98l57 -26l-191 -157z" />
    <glyph glyph-name="M" unicode="M" horiz-adv-x="1239" 
d="M190 0l46 847h169l214 -520l208 520h155l67 -847h-214l45 624l-202 -553h-123l-224 553l40 -624h-181z" />
    <glyph glyph-name="uni1E3E" unicode="&#x1e3e;" horiz-adv-x="1239" 
d="M560 1025l97 197h66l-66 -197h-97zM190 0l46 847h169l214 -520l208 520h155l67 -847h-214l45 624l-202 -553h-123l-224 553l40 -624h-181z" />
    <glyph glyph-name="uni1E40" unicode="&#x1e40;" horiz-adv-x="1239" 
d="M535 1056v165h165v-165h-165zM190 0l46 847h169l214 -520l208 520h155l67 -847h-214l45 624l-202 -553h-123l-224 553l40 -624h-181z" />
    <glyph glyph-name="uni1E42" unicode="&#x1e42;" horiz-adv-x="1239" 
d="M190 0l46 847h169l214 -520l208 520h155l67 -847h-214l45 624l-202 -553h-123l-224 553l40 -624h-181zM530 -294v165h165v-165h-165z" />
    <glyph glyph-name="N" unicode="N" horiz-adv-x="1077" 
d="M190 0l65 816h139l312 -659l56 689h125l-45 -846h-197l-281 590l10 -590h-184z" />
    <glyph glyph-name="uni01CA" unicode="&#x1ca;" horiz-adv-x="1461" 
d="M190 0l65 816h139l312 -659l56 689h125l-45 -846h-197l-281 590l10 -590h-184zM943 -245l-75 7l8 182l57 -13c96 -21 140 70 142 130l26 780h142l-39 -787c-10 -198 -73 -297 -261 -299z" />
    <glyph glyph-name="Nacute" unicode="&#x143;" horiz-adv-x="1077" 
d="M508 933l97 197h66l-66 -197h-97zM190 0l65 816h139l312 -659l56 689h125l-45 -846h-197l-281 590l10 -590h-184z" />
    <glyph glyph-name="Ncaron" unicode="&#x147;" horiz-adv-x="1077" 
d="M545 974l-44 64l-133 131h54l143 -99l145 99h54l-132 -131l-39 -64h-48zM190 0l65 816h139l312 -659l56 689h125l-45 -846h-197l-281 590l10 -590h-184z" />
    <glyph glyph-name="uni1E4A" unicode="&#x1e4a;" horiz-adv-x="1077" 
d="M190 0l65 816h139l312 -659l56 689h125l-45 -846h-197l-281 590l10 -590h-184zM504 -113h48l39 -64l132 -131h-54l-145 99l-143 -99h-54l133 131z" />
    <glyph glyph-name="uni0145" unicode="&#x145;" horiz-adv-x="1077" 
d="M762 846h125l-45 -846h-197l-281 590l10 -590h-184l65 816h139l312 -659zM621 -75l-78 -281h-152l51 142h-8l16 139h171z" />
    <glyph glyph-name="uni1E44" unicode="&#x1e44;" horiz-adv-x="1077" 
d="M483 964v165h165v-165h-165zM190 0l65 816h139l312 -659l56 689h125l-45 -846h-197l-281 590l10 -590h-184z" />
    <glyph glyph-name="uni1E46" unicode="&#x1e46;" horiz-adv-x="1077" 
d="M190 0l65 816h139l312 -659l56 689h125l-45 -846h-197l-281 590l10 -590h-184zM438 -192v165h165v-165h-165z" />
    <glyph glyph-name="uni01F8" unicode="&#x1f8;" horiz-adv-x="1077" 
d="M536 942l-140 135h95l207 -153zM190 0l65 816h139l312 -659l56 689h125l-45 -846h-197l-281 590l10 -590h-184z" />
    <glyph glyph-name="Eng" unicode="&#x14a;" horiz-adv-x="1077" 
d="M847 90c1 -36 -1 -66 -5 -89v-1c-8 -48 -23 -74 -40 -88c-35 -33 -278 -86 -337 -79l29 86l66 11c68 11 83 26 87 70h-2l-281 590l10 -590h-184l65 816h139l312 -659l56 689h125z" />
    <glyph glyph-name="uni019D" unicode="&#x19d;" horiz-adv-x="1047" 
d="M802 846h125l-45 -846h-197l-281 590l10 -567c2 -6 4 -12 4 -17c0 -95 -151 -204 -298 -214c1 63 3 92 10 155c48 4 80 27 100 59l65 810h139l312 -659z" />
    <glyph glyph-name="uni01CB" unicode="&#x1cb;" horiz-adv-x="1444" 
d="M190 0l65 816h139l312 -659l56 689h125l-45 -846h-197l-281 590l10 -590h-184zM1116 693v148h148v-148h-148zM1128 -3c17 59 17 193 28 595h95l-30 -571c-6 -107 -22 -149 -57 -176c-33 -26 -168 -46 -253 -29l46 94c50 -9 144 -4 171 87z" />
    <glyph glyph-name="Ntilde" unicode="&#xd1;" horiz-adv-x="1077" 
d="M454 919h-62c9 132 26 170 106 170c75 0 94 -113 144 -113c56 0 44 57 46 113h52c-2 -165 -36 -171 -97 -170c-82 1 -103 118 -145 119c-44 1 -44 -70 -44 -119zM190 0l65 816h139l312 -659l56 689h125l-45 -846h-197l-281 590l10 -590h-184z" />
    <glyph glyph-name="O" unicode="O" horiz-adv-x="1143" 
d="M572 -14c-263 2 -382 145 -382 438c0 294 150 428 382 428s388 -122 381 -428c-7 -293 -94 -440 -381 -438zM572 197c162 0 263 46 263 216c0 172 -101 348 -263 348s-264 -176 -264 -348c0 -170 102 -216 264 -216z" />
    <glyph glyph-name="Oacute" unicode="&#xd3;" horiz-adv-x="1143" 
d="M520 943l97 197h66l-66 -197h-97zM572 -14c-263 2 -382 145 -382 438c0 294 150 428 382 428s388 -122 381 -428c-7 -293 -94 -440 -381 -438zM572 197c162 0 263 46 263 216c0 172 -101 348 -263 348s-264 -176 -264 -348c0 -170 102 -216 264 -216z" />
    <glyph glyph-name="Obreve" unicode="&#x14e;" horiz-adv-x="1143" 
d="M575 981c-107 0 -192 74 -192 197h65c0 -88 48 -102 127 -102c93 0 136 15 136 102h65c0 -123 -95 -197 -201 -197zM572 852c232 0 388 -122 381 -428c-7 -293 -94 -440 -381 -438c-263 2 -382 145 -382 438c0 294 150 428 382 428zM572 197c162 0 263 46 263 216
c0 172 -101 348 -263 348s-264 -176 -264 -348c0 -170 102 -216 264 -216z" />
    <glyph glyph-name="uni01D1" unicode="&#x1d1;" horiz-adv-x="1143" 
d="M557 984l-44 64l-133 131h54l143 -99l145 99h54l-132 -131l-39 -64h-48zM572 -14c-263 2 -382 145 -382 438c0 294 150 428 382 428s388 -122 381 -428c-7 -293 -94 -440 -381 -438zM572 197c162 0 263 46 263 216c0 172 -101 348 -263 348s-264 -176 -264 -348
c0 -170 102 -216 264 -216z" />
    <glyph glyph-name="Ocircumflex" unicode="&#xd4;" horiz-adv-x="1143" 
d="M560 1083h48l39 -64l132 -131h-54l-145 99l-143 -99h-54l133 131zM572 -14c-263 2 -382 145 -382 438c0 294 150 428 382 428s388 -122 381 -428c-7 -293 -94 -440 -381 -438zM572 197c162 0 263 46 263 216c0 172 -101 348 -263 348s-264 -176 -264 -348
c0 -170 102 -216 264 -216z" />
    <glyph glyph-name="uni1ED0" unicode="&#x1ed0;" horiz-adv-x="1143" 
d="M810 951l97 197h66l-66 -197h-97zM560 1083h48l39 -64l132 -131h-54l-145 99l-143 -99h-54l133 131zM572 -14c-263 2 -382 145 -382 438c0 294 150 428 382 428s388 -122 381 -428c-7 -293 -94 -440 -381 -438zM572 197c162 0 263 46 263 216c0 172 -101 348 -263 348
s-264 -176 -264 -348c0 -170 102 -216 264 -216z" />
    <glyph glyph-name="uni1ED8" unicode="&#x1ed8;" horiz-adv-x="1143" 
d="M560 1083h48l39 -64l132 -131h-54l-145 99l-143 -99h-54l133 131zM572 -14c-263 2 -382 145 -382 438c0 294 150 428 382 428s388 -122 381 -428c-7 -293 -94 -440 -381 -438zM572 197c162 0 263 46 263 216c0 172 -101 348 -263 348s-264 -176 -264 -348
c0 -170 102 -216 264 -216zM489 -312v165h165v-165h-165z" />
    <glyph glyph-name="uni1ED2" unicode="&#x1ed2;" horiz-adv-x="1143" 
d="M880 1047l-140 135h95l207 -153zM560 1083h48l39 -64l132 -131h-54l-145 99l-143 -99h-54l133 131zM572 -14c-263 2 -382 145 -382 438c0 294 150 428 382 428s388 -122 381 -428c-7 -293 -94 -440 -381 -438zM572 197c162 0 263 46 263 216c0 172 -101 348 -263 348
s-264 -176 -264 -348c0 -170 102 -216 264 -216z" />
    <glyph glyph-name="uni1ED4" unicode="&#x1ed4;" horiz-adv-x="1143" 
d="M744 1056v5c0 11 1 23 4 29c7 10 16 19 30 28l22 19c12 8 20 18 20 31c0 11 -17 26 -61 26c-28 0 -54 -9 -84 -25v39c35 16 67 22 97 22c31 0 55 -6 74 -17c17 -13 30 -31 30 -48c0 -20 -13 -41 -41 -58l-20 -14c-11 -7 -14 -12 -15 -14c-4 -7 -5 -14 -5 -23h-51z
M560 1083h48l39 -64l132 -131h-54l-145 99l-143 -99h-54l133 131zM572 -14c-263 2 -382 145 -382 438c0 294 150 428 382 428s388 -122 381 -428c-7 -293 -94 -440 -381 -438zM572 197c162 0 263 46 263 216c0 172 -101 348 -263 348s-264 -176 -264 -348
c0 -170 102 -216 264 -216z" />
    <glyph glyph-name="uni1ED6" unicode="&#x1ed6;" horiz-adv-x="1143" 
d="M470 1132h-62c9 132 26 170 106 170c75 0 94 -113 144 -113c56 0 44 57 46 113h52c-2 -165 -36 -171 -97 -170c-82 1 -103 118 -145 119c-44 1 -44 -70 -44 -119zM561 1097h48l39 -64l132 -131h-54l-145 99l-143 -99h-54l133 131zM572 -14c-263 2 -382 145 -382 438
c0 294 150 428 382 428s388 -122 381 -428c-7 -293 -94 -440 -381 -438zM572 197c162 0 263 46 263 216c0 172 -101 348 -263 348s-264 -176 -264 -348c0 -170 102 -216 264 -216z" />
    <glyph glyph-name="Odieresis" unicode="&#xd6;" horiz-adv-x="1143" 
d="M364 934v165h165v-165h-165zM636 934v165h165v-165h-165zM572 -14c-263 2 -382 145 -382 438c0 294 150 428 382 428s388 -122 381 -428c-7 -293 -94 -440 -381 -438zM572 197c162 0 263 46 263 216c0 172 -101 348 -263 348s-264 -176 -264 -348
c0 -170 102 -216 264 -216z" />
    <glyph glyph-name="uni022A" unicode="&#x22a;" horiz-adv-x="1143" 
d="M388 1353l386 24l29 -77l-446 -17zM364 934v165h165v-165h-165zM636 934v165h165v-165h-165zM572 -14c-263 2 -382 145 -382 438c0 294 150 428 382 428s388 -122 381 -428c-7 -293 -94 -440 -381 -438zM572 197c162 0 263 46 263 216c0 172 -101 348 -263 348
s-264 -176 -264 -348c0 -170 102 -216 264 -216z" />
    <glyph glyph-name="uni1ECC" unicode="&#x1ecc;" horiz-adv-x="1143" 
d="M572 -14c-263 2 -382 145 -382 438c0 294 150 428 382 428s388 -122 381 -428c-7 -293 -94 -440 -381 -438zM572 197c162 0 263 46 263 216c0 172 -101 348 -263 348s-264 -176 -264 -348c0 -170 102 -216 264 -216zM489 -312v165h165v-165h-165z" />
    <glyph glyph-name="Ograve" unicode="&#xd2;" horiz-adv-x="1143" 
d="M524 942l-140 135h95l207 -153zM572 -14c-263 2 -382 145 -382 438c0 294 150 428 382 428s388 -122 381 -428c-7 -293 -94 -440 -381 -438zM572 197c162 0 263 46 263 216c0 172 -101 348 -263 348s-264 -176 -264 -348c0 -170 102 -216 264 -216z" />
    <glyph glyph-name="uni1ECE" unicode="&#x1ece;" horiz-adv-x="1143" 
d="M559 957v5c0 11 1 23 4 29c7 10 16 19 30 28l22 19c12 8 20 18 20 31c0 11 -17 26 -61 26c-28 0 -54 -9 -84 -25v39c35 16 67 22 97 22c31 0 55 -6 74 -17c17 -13 30 -31 30 -48c0 -20 -13 -41 -41 -58l-20 -14c-11 -7 -14 -12 -15 -14c-4 -7 -5 -14 -5 -23h-51zM572 -14
c-263 2 -382 145 -382 438c0 294 150 428 382 428s388 -122 381 -428c-7 -293 -94 -440 -381 -438zM572 197c162 0 263 46 263 216c0 172 -101 348 -263 348s-264 -176 -264 -348c0 -170 102 -216 264 -216z" />
    <glyph glyph-name="Ohorn" unicode="&#x1a0;" horiz-adv-x="1143" 
d="M1012 850c0 -54 -17 -121 -59 -160c-19 -15 -27 -23 -39 -31c27 -61 41 -139 39 -235c-7 -293 -94 -440 -381 -438c-263 2 -382 145 -382 438c0 294 150 428 382 428c132 0 240 -40 306 -130c18 9 29 13 41 23c30 28 28 93 28 116c0 16 -4 28 -11 42l68 -7
c4 -18 8 -33 8 -46zM572 197c162 0 263 46 263 216c0 172 -101 348 -263 348s-264 -176 -264 -348c0 -170 102 -216 264 -216z" />
    <glyph glyph-name="uni1EDA" unicode="&#x1eda;" horiz-adv-x="1143" 
d="M689 1186l-66 -197h-97l97 197h66zM1012 850c0 -54 -17 -121 -59 -160c-19 -15 -27 -23 -39 -31c27 -61 41 -139 39 -235c-7 -293 -94 -440 -381 -438c-263 2 -382 145 -382 438c0 294 150 428 382 428c132 0 240 -40 306 -130c18 9 29 13 41 23c30 28 28 93 28 116
c0 16 -4 28 -11 42l68 -7c4 -18 8 -33 8 -46zM572 197c162 0 263 46 263 216c0 172 -101 348 -263 348s-264 -176 -264 -348c0 -170 102 -216 264 -216z" />
    <glyph glyph-name="uni1EE2" unicode="&#x1ee2;" horiz-adv-x="1143" 
d="M1012 850c0 -54 -17 -121 -59 -160c-19 -15 -27 -23 -39 -31c27 -61 41 -139 39 -235c-7 -293 -94 -440 -381 -438c-263 2 -382 145 -382 438c0 294 150 428 382 428c132 0 240 -40 306 -130c18 9 29 13 41 23c30 28 28 93 28 116c0 16 -4 28 -11 42l68 -7
c4 -18 8 -33 8 -46zM572 197c162 0 263 46 263 216c0 172 -101 348 -263 348s-264 -176 -264 -348c0 -170 102 -216 264 -216zM489 -312v165h165v-165h-165z" />
    <glyph glyph-name="uni1EDC" unicode="&#x1edc;" horiz-adv-x="1143" 
d="M716 980l-162 18l-140 135h95zM1012 850c0 -54 -17 -121 -59 -160c-19 -15 -27 -23 -39 -31c27 -61 41 -139 39 -235c-7 -293 -94 -440 -381 -438c-263 2 -382 145 -382 438c0 294 150 428 382 428c132 0 240 -40 306 -130c18 9 29 13 41 23c30 28 28 93 28 116
c0 16 -4 28 -11 42l68 -7c4 -18 8 -33 8 -46zM572 197c162 0 263 46 263 216c0 172 -101 348 -263 348s-264 -176 -264 -348c0 -170 102 -216 264 -216z" />
    <glyph glyph-name="uni1EDE" unicode="&#x1ede;" horiz-adv-x="1143" 
d="M641 1115c0 11 -17 26 -61 26c-28 0 -54 -9 -84 -25v39c35 16 67 22 97 22c31 0 55 -6 74 -17c17 -13 30 -31 30 -48c0 -20 -13 -41 -41 -58l-20 -14c-11 -7 -14 -12 -15 -14c-4 -7 -5 -14 -5 -23h-51v5c0 11 1 23 4 29c7 10 16 19 30 28l22 19c12 8 20 18 20 31z
M1012 850c0 -54 -17 -121 -59 -160c-19 -15 -27 -23 -39 -31c27 -61 41 -139 39 -235c-7 -293 -94 -440 -381 -438c-263 2 -382 145 -382 438c0 294 150 428 382 428c132 0 240 -40 306 -130c18 9 29 13 41 23c30 28 28 93 28 116c0 16 -4 28 -11 42l68 -7
c4 -18 8 -33 8 -46zM572 197c162 0 263 46 263 216c0 172 -101 348 -263 348s-264 -176 -264 -348c0 -170 102 -216 264 -216z" />
    <glyph glyph-name="uni1EE0" unicode="&#x1ee0;" horiz-adv-x="1143" 
d="M515 1197c-44 1 -44 -70 -44 -119h-62c9 132 26 170 106 170c75 0 94 -113 144 -113c56 0 44 57 46 113h52c-2 -165 -36 -171 -97 -170c-82 1 -103 118 -145 119zM1012 850c0 -54 -17 -121 -59 -160c-19 -15 -27 -23 -39 -31c27 -61 41 -139 39 -235
c-7 -293 -94 -440 -381 -438c-263 2 -382 145 -382 438c0 294 150 428 382 428c132 0 240 -40 306 -130c18 9 29 13 41 23c30 28 28 93 28 116c0 16 -4 28 -11 42l68 -7c4 -18 8 -33 8 -46zM572 197c162 0 263 46 263 216c0 172 -101 348 -263 348s-264 -176 -264 -348
c0 -170 102 -216 264 -216z" />
    <glyph glyph-name="Ohungarumlaut" unicode="&#x150;" horiz-adv-x="1143" 
d="M525 970l-162 -18l207 153h95zM708 970l-162 -18l207 153h95zM572 -14c-263 2 -382 145 -382 438c0 294 150 428 382 428s388 -122 381 -428c-7 -293 -94 -440 -381 -438zM572 197c162 0 263 46 263 216c0 172 -101 348 -263 348s-264 -176 -264 -348
c0 -170 102 -216 264 -216z" />
    <glyph glyph-name="Omacron" unicode="&#x14c;" horiz-adv-x="1143" 
d="M388 1119l386 24l29 -77l-446 -17zM572 -14c-263 2 -382 145 -382 438c0 294 150 428 382 428s388 -122 381 -428c-7 -293 -94 -440 -381 -438zM572 197c162 0 263 46 263 216c0 172 -101 348 -263 348s-264 -176 -264 -348c0 -170 102 -216 264 -216z" />
    <glyph glyph-name="uni1E52" unicode="&#x1e52;" horiz-adv-x="1143" 
d="M531 1204l97 197h66l-66 -197h-97zM388 1119l386 24l29 -77l-446 -17zM572 -14c-263 2 -382 145 -382 438c0 294 150 428 382 428s388 -122 381 -428c-7 -293 -94 -440 -381 -438zM572 197c162 0 263 46 263 216c0 172 -101 348 -263 348s-264 -176 -264 -348
c0 -170 102 -216 264 -216z" />
    <glyph glyph-name="uni1E50" unicode="&#x1e50;" horiz-adv-x="1143" 
d="M559 1213l-140 135h95l207 -153zM388 1119l386 24l29 -77l-446 -17zM572 -14c-263 2 -382 145 -382 438c0 294 150 428 382 428s388 -122 381 -428c-7 -293 -94 -440 -381 -438zM572 197c162 0 263 46 263 216c0 172 -101 348 -263 348s-264 -176 -264 -348
c0 -170 102 -216 264 -216z" />
    <glyph glyph-name="uni01EA" unicode="&#x1ea;" horiz-adv-x="1143" 
d="M572 852c232 0 388 -122 381 -428c-5 -218 -55 -355 -197 -410c20 0 36 0 47 -1c-67 -61 -101 -104 -101 -130c0 -20 20 -31 61 -31c15 0 34 2 55 5c3 -20 8 -53 11 -70c-115 -2 -183 30 -183 86c0 37 29 83 94 135c-47 -15 -102 -22 -168 -22c-263 2 -382 145 -382 438
c0 294 150 428 382 428zM572 197c162 0 263 46 263 216c0 172 -101 348 -263 348s-264 -176 -264 -348c0 -170 102 -216 264 -216z" />
    <glyph glyph-name="uni01EC" unicode="&#x1ec;" horiz-adv-x="1143" 
d="M774 1143l29 -77l-446 -17l31 70zM572 852c232 0 388 -122 381 -428c-5 -218 -55 -355 -197 -410c20 0 36 0 47 -1c-67 -61 -101 -104 -101 -130c0 -20 20 -31 61 -31c15 0 34 2 55 5c3 -20 8 -53 11 -70c-115 -2 -183 30 -183 86c0 37 29 83 94 135
c-47 -15 -102 -22 -168 -22c-263 2 -382 145 -382 438c0 294 150 428 382 428zM572 197c162 0 263 46 263 216c0 172 -101 348 -263 348s-264 -176 -264 -348c0 -170 102 -216 264 -216z" />
    <glyph glyph-name="uni0186" unicode="&#x186;" horiz-adv-x="1003" 
d="M190 20l16 108c64 -11 138 -22 186 -19c118 8 251 119 278 267c35 189 -102 278 -289 271c-96 -4 -130 -26 -185 -43l-2 234c63 19 247 34 342 25c215 -21 314 -231 265 -487c-27 -143 -126 -339 -402 -373c-99 -13 -131 5 -209 17z" />
    <glyph glyph-name="Oslash" unicode="&#xd8;" horiz-adv-x="825" 
d="M842 763c73 -68 115 -178 111 -339c-7 -293 -94 -440 -381 -438c-75 1 -138 13 -190 36l-1 -2l-217 -78l111 163c-58 73 -85 179 -85 319c0 294 150 428 382 428c69 0 131 -11 185 -34l26 39l133 26zM308 413c0 -80 22 -132 63 -165l322 476c-35 23 -76 37 -121 37
c-162 0 -264 -176 -264 -348zM572 197c162 0 263 46 263 216c0 83 -24 167 -66 232l-275 -443c24 -4 50 -5 78 -5z" />
    <glyph glyph-name="Oslashacute" unicode="&#x1fe;" horiz-adv-x="1172" 
d="M619 1140l-66 -197h-97l97 197h66zM778 763c73 -68 115 -178 111 -339c-7 -293 -94 -440 -381 -438c-75 1 -138 13 -190 36l-1 -2l-217 -78l111 163c-58 73 -85 179 -85 319c0 294 150 428 382 428c69 0 131 -11 185 -34l26 39l133 26zM244 413c0 -80 22 -132 63 -165
l322 476c-35 23 -76 37 -121 37c-162 0 -264 -176 -264 -348zM508 197c162 0 263 46 263 216c0 83 -24 167 -66 232l-275 -443c24 -4 50 -5 78 -5z" />
    <glyph glyph-name="Otilde" unicode="&#xd5;" horiz-adv-x="1143" 
d="M466 929h-62c9 132 26 170 106 170c75 0 94 -113 144 -113c56 0 44 57 46 113h52c-2 -165 -36 -171 -97 -170c-82 1 -103 118 -145 119c-44 1 -44 -70 -44 -119zM572 -14c-263 2 -382 145 -382 438c0 294 150 428 382 428s388 -122 381 -428c-7 -293 -94 -440 -381 -438z
M572 197c162 0 263 46 263 216c0 172 -101 348 -263 348s-264 -176 -264 -348c0 -170 102 -216 264 -216z" />
    <glyph glyph-name="uni1E4C" unicode="&#x1e4c;" horiz-adv-x="1143" 
d="M549 1268l97 197h66l-66 -197h-97zM466 929h-62c9 132 26 170 106 170c75 0 94 -113 144 -113c56 0 44 57 46 113h52c-2 -165 -36 -171 -97 -170c-82 1 -103 118 -145 119c-44 1 -44 -70 -44 -119zM572 -14c-263 2 -382 145 -382 438c0 294 150 428 382 428
s388 -122 381 -428c-7 -293 -94 -440 -381 -438zM572 197c162 0 263 46 263 216c0 172 -101 348 -263 348s-264 -176 -264 -348c0 -170 102 -216 264 -216z" />
    <glyph glyph-name="OE" unicode="&#x152;" horiz-adv-x="1203" 
d="M1295 -5h-545l1 17c-49 -18 -108 -26 -179 -26c-263 2 -382 145 -382 438c0 294 150 428 382 428c78 0 147 -14 204 -43l1 18l501 15l-23 -106l-372 -21c38 -55 62 -128 69 -221l207 9v-116l-208 -14c-5 -82 -18 -151 -42 -207h349zM572 197c77 0 141 10 186 40l13 404
c-46 71 -114 120 -199 120c-162 0 -264 -176 -264 -348c0 -170 102 -216 264 -216z" />
    <glyph glyph-name="P" unicode="P" horiz-adv-x="930" 
d="M190 0l47 851h210c208 0 293 -109 293 -207c0 -174 -85 -245 -271 -254l-134 -7l23 -383h-168zM329 510l152 7c100 5 150 15 150 137c0 58 -73 103 -180 103h-122v-247z" />
    <glyph glyph-name="uni1E56" unicode="&#x1e56;" horiz-adv-x="930" 
d="M380 1018v165h165v-165h-165zM190 0l47 851h210c208 0 293 -109 293 -207c0 -174 -85 -245 -271 -254l-134 -7l23 -383h-168zM329 510l152 7c100 5 150 15 150 137c0 58 -73 103 -180 103h-122v-247z" />
    <glyph glyph-name="uni01A4" unicode="&#x1a4;" horiz-adv-x="930" 
d="M447 851c208 0 293 -109 293 -207c0 -174 -85 -245 -271 -254l-134 -7l23 -383h-168l40 722c-64 -4 -94 -48 -103 -100c-6 -36 -6 -106 -6 -142l-65 99v67c0 89 58 199 181 205h210zM481 517c100 5 150 15 150 137c0 58 -73 103 -180 103h-122v-247z" />
    <glyph glyph-name="Thorn" unicode="&#xde;" horiz-adv-x="560" 
d="M506 419c0 -138 -192 -250 -353 -256v-163h-99v791h99v-116c161 -6 353 -119 353 -256zM199 261c58 0 227 111 227 163s-174 164 -233 164c-14 0 -28 -6 -40 -16v-290c14 -13 30 -21 46 -21z" />
    <glyph glyph-name="Q" unicode="Q" horiz-adv-x="1011" 
d="M645 -129l-117 133c-24 -2 -34 -2 -47 -2c-226 0 -381 62 -381 432c0 229 153 431 387 431s381 -169 381 -431c0 -195 -68 -295 -135 -368l178 -195h-266zM415 196l61 3l37 87c61 -33 123 -57 169 -57c34 0 67 118 67 205c0 210 -99 340 -262 340
c-164 0 -263 -164 -263 -340c0 -241 127 -240 191 -238z" />
    <glyph glyph-name="R" unicode="R" horiz-adv-x="973" 
d="M581 433c47 -33 103 -48 138 -184l64 -249h-203l10 235c6 121 -115 129 -183 118l-59 -11l19 -342h-177l51 847h201c166 0 263 -77 263 -237c0 -109 -47 -165 -124 -177zM453 755h-140v-251h140c85 0 152 68 152 116c0 108 -67 135 -152 135z" />
    <glyph glyph-name="Racute" unicode="&#x154;" horiz-adv-x="973" 
d="M401 924l97 197h66l-66 -197h-97zM581 433c47 -33 103 -48 138 -184l64 -249h-203l10 235c6 121 -115 129 -183 118l-59 -11l19 -342h-177l51 847h201c166 0 263 -77 263 -237c0 -109 -47 -165 -124 -177zM453 755h-140v-251h140c85 0 152 68 152 116
c0 108 -67 135 -152 135z" />
    <glyph glyph-name="Rcaron" unicode="&#x158;" horiz-adv-x="973" 
d="M438 965l-44 64l-133 131h54l143 -99l145 99h54l-132 -131l-39 -64h-48zM581 433c47 -33 103 -48 138 -184l64 -249h-203l10 235c6 121 -115 129 -183 118l-59 -11l19 -342h-177l51 847h201c166 0 263 -77 263 -237c0 -109 -47 -165 -124 -177zM453 755h-140v-251h140
c85 0 152 68 152 116c0 108 -67 135 -152 135z" />
    <glyph glyph-name="uni0156" unicode="&#x156;" horiz-adv-x="973" 
d="M580 0l10 235c6 121 -115 129 -183 118l-59 -11l19 -342h-177l51 847h201c166 0 263 -77 263 -237c0 -109 -47 -165 -124 -177c47 -33 103 -48 138 -184l64 -249h-203zM453 504c85 0 152 68 152 116c0 108 -67 135 -152 135h-140v-251h140zM554 -182l-78 -281h-152
l51 142h-8l16 139h171z" />
    <glyph glyph-name="uni1E5A" unicode="&#x1e5a;" horiz-adv-x="973" 
d="M581 433c47 -33 103 -48 138 -184l64 -249h-203l10 235c6 121 -115 129 -183 118l-59 -11l19 -342h-177l51 847h201c166 0 263 -77 263 -237c0 -109 -47 -165 -124 -177zM453 755h-140v-251h140c85 0 152 68 152 116c0 108 -67 135 -152 135zM371 -299v165h165v-165h-165
z" />
    <glyph glyph-name="uni024C" unicode="&#x24c;" horiz-adv-x="1096" 
d="M580 0l10 235c5 92 -64 119 -127 121h-19c-13 0 -26 -1 -37 -3l-59 -11l19 -342h-177l22 358l-162 1l4 145l166 -1l21 344h201c166 0 263 -77 263 -237c0 -109 -47 -165 -124 -177c47 -33 103 -48 138 -184l64 -249h-203zM453 504c85 0 152 68 152 116
c0 108 -67 135 -152 135h-140v-251h140z" />
    <glyph glyph-name="uni2C64" unicode="&#x2c64;" horiz-adv-x="973" 
d="M580 0l10 235c6 121 -115 129 -183 118l-59 -11l18 -332c1 -3 2 -6 2 -9c0 -90 -151 -182 -298 -182c1 60 3 87 10 146c58 0 94 29 112 69l49 813h201c166 0 263 -77 263 -237c0 -109 -47 -165 -124 -177c47 -33 103 -48 138 -184l64 -249h-203zM453 504
c85 0 152 68 152 116c0 108 -67 135 -152 135h-140v-251h140z" />
    <glyph glyph-name="S" unicode="S" horiz-adv-x="1125" 
d="M796 839l-17 -118c-57 5 -60 26 -172 18c-120 -9 -211 -41 -218 -128c-6 -72 54 -81 153 -102l66 -13c170 -34 327 -126 327 -260c0 -136 -134 -250 -399 -250c-146 0 -251 -9 -346 58l121 169c43 -33 199 -33 261 -33c57 0 135 -3 137 80c1 53 -33 87 -134 107l-67 13
c-166 33 -236 100 -236 225c0 146 81 255 289 255c43 0 163 -5 235 -21z" />
    <glyph glyph-name="Sacute" unicode="&#x15a;" horiz-adv-x="1125" 
d="M485 994l97 197h66l-66 -197h-97zM796 839l-17 -118c-57 5 -60 26 -172 18c-120 -9 -211 -41 -218 -128c-6 -72 54 -81 153 -102l66 -13c170 -34 327 -126 327 -260c0 -136 -134 -250 -399 -250c-146 0 -251 -9 -346 58l121 169c43 -33 199 -33 261 -33
c57 0 135 -3 137 80c1 53 -33 87 -134 107l-67 13c-166 33 -236 100 -236 225c0 146 81 255 289 255c43 0 163 -5 235 -21z" />
    <glyph glyph-name="uni1E64" unicode="&#x1e64;" horiz-adv-x="1125" 
d="M518 1304v165h165v-165h-165zM485 994l97 197h66l-66 -197h-97zM796 839l-17 -118c-57 5 -60 26 -172 18c-120 -9 -211 -41 -218 -128c-6 -72 54 -81 153 -102l66 -13c170 -34 327 -126 327 -260c0 -136 -134 -250 -399 -250c-146 0 -251 -9 -346 58l121 169
c43 -33 199 -33 261 -33c57 0 135 -3 137 80c1 53 -33 87 -134 107l-67 13c-166 33 -236 100 -236 225c0 146 81 255 289 255c43 0 163 -5 235 -21z" />
    <glyph glyph-name="uniA78B" unicode="&#xa78b;" horiz-adv-x="392" 
d="M80 763h232l-51 -643h-103z" />
    <glyph glyph-name="Scaron" unicode="&#x160;" horiz-adv-x="1125" 
d="M522 1035l-44 64l-133 131h54l143 -99l145 99h54l-132 -131l-39 -64h-48zM796 839l-17 -118c-57 5 -60 26 -172 18c-120 -9 -211 -41 -218 -128c-6 -72 54 -81 153 -102l66 -13c170 -34 327 -126 327 -260c0 -136 -134 -250 -399 -250c-146 0 -251 -9 -346 58l121 169
c43 -33 199 -33 261 -33c57 0 135 -3 137 80c1 53 -33 87 -134 107l-67 13c-166 33 -236 100 -236 225c0 146 81 255 289 255c43 0 163 -5 235 -21z" />
    <glyph glyph-name="uni1E66" unicode="&#x1e66;" horiz-adv-x="1125" 
d="M466 1359v165h165v-165h-165zM522 1035l-44 64l-133 131h54l143 -99l145 99h54l-132 -131l-39 -64h-48zM796 839l-17 -118c-57 5 -60 26 -172 18c-120 -9 -211 -41 -218 -128c-6 -72 54 -81 153 -102l66 -13c170 -34 327 -126 327 -260c0 -136 -134 -250 -399 -250
c-146 0 -251 -9 -346 58l121 169c43 -33 199 -33 261 -33c57 0 135 -3 137 80c1 53 -33 87 -134 107l-67 13c-166 33 -236 100 -236 225c0 146 81 255 289 255c43 0 163 -5 235 -21z" />
    <glyph glyph-name="Scedilla" unicode="&#x15e;" horiz-adv-x="1125" 
d="M935 236c0 -130 -122 -240 -364 -249l-20 -55h35c44 0 113 -18 102 -86c-9 -55 -53 -88 -118 -88h-70l13 60c26 -6 35 -6 59 -6c41 0 74 22 74 40c0 50 -43 52 -71 52c-19 0 -42 -2 -69 -6l30 88c-146 0 -251 -9 -346 58l121 169c43 -33 199 -33 261 -33
c57 0 135 -3 137 80c1 53 -33 87 -134 107l-67 13c-166 33 -236 100 -236 225c0 146 81 255 289 255c43 0 163 -5 235 -21l-17 -118c-57 5 -60 26 -172 18c-120 -9 -211 -41 -218 -128c-6 -72 54 -81 153 -102l66 -13c170 -34 327 -126 327 -260z" />
    <glyph glyph-name="Scircumflex" unicode="&#x15c;" horiz-adv-x="1125" 
d="M532 1185h48l39 -64l132 -131h-54l-145 99l-143 -99h-54l133 131zM796 839l-17 -118c-57 5 -60 26 -172 18c-120 -9 -211 -41 -218 -128c-6 -72 54 -81 153 -102l66 -13c170 -34 327 -126 327 -260c0 -136 -134 -250 -399 -250c-146 0 -251 -9 -346 58l121 169
c43 -33 199 -33 261 -33c57 0 135 -3 137 80c1 53 -33 87 -134 107l-67 13c-166 33 -236 100 -236 225c0 146 81 255 289 255c43 0 163 -5 235 -21z" />
    <glyph glyph-name="uni0218" unicode="&#x218;" horiz-adv-x="1125" 
d="M608 496c170 -34 327 -126 327 -260c0 -136 -134 -250 -399 -250c-146 0 -251 -9 -346 58l121 169c43 -33 199 -33 261 -33c57 0 135 -3 137 80c1 53 -33 87 -134 107l-67 13c-166 33 -236 100 -236 225c0 146 81 255 289 255c43 0 163 -5 235 -21l-17 -118
c-57 5 -60 26 -172 18c-120 -9 -211 -41 -218 -128c-6 -72 54 -81 153 -102zM644 -163l-78 -281h-152l51 142h-8l16 139h171z" />
    <glyph glyph-name="uni1E60" unicode="&#x1e60;" horiz-adv-x="1125" 
d="M460 1025v165h165v-165h-165zM796 839l-17 -118c-57 5 -60 26 -172 18c-120 -9 -211 -41 -218 -128c-6 -72 54 -81 153 -102l66 -13c170 -34 327 -126 327 -260c0 -136 -134 -250 -399 -250c-146 0 -251 -9 -346 58l121 169c43 -33 199 -33 261 -33c57 0 135 -3 137 80
c1 53 -33 87 -134 107l-67 13c-166 33 -236 100 -236 225c0 146 81 255 289 255c43 0 163 -5 235 -21z" />
    <glyph glyph-name="uni1E62" unicode="&#x1e62;" horiz-adv-x="1125" 
d="M796 839l-17 -118c-57 5 -60 26 -172 18c-120 -9 -211 -41 -218 -128c-6 -72 54 -81 153 -102l66 -13c170 -34 327 -126 327 -260c0 -136 -134 -250 -399 -250c-146 0 -251 -9 -346 58l121 169c43 -33 199 -33 261 -33c57 0 135 -3 137 80c1 53 -33 87 -134 107l-67 13
c-166 33 -236 100 -236 225c0 146 81 255 289 255c43 0 163 -5 235 -21zM461 -280v165h165v-165h-165z" />
    <glyph glyph-name="uni1E9E" unicode="&#x1e9e;" horiz-adv-x="1980" 
d="M796 839l-17 -118c-57 5 -60 26 -172 18c-120 -9 -211 -41 -218 -128c-6 -72 54 -81 153 -102l66 -13c170 -34 327 -126 327 -260c0 -136 -134 -250 -399 -250c-146 0 -251 -9 -346 58l121 169c43 -33 199 -33 261 -33c57 0 135 -3 137 80c1 53 -33 87 -134 107l-67 13
c-166 33 -236 100 -236 225c0 146 81 255 289 255c43 0 163 -5 235 -21zM1651 839l-17 -118c-57 5 -60 26 -172 18c-120 -9 -211 -41 -218 -128c-6 -72 54 -81 153 -102l66 -13c170 -34 327 -126 327 -260c0 -136 -134 -250 -399 -250c-146 0 -251 -9 -346 58l121 169
c43 -33 199 -33 261 -33c57 0 135 -3 137 80c1 53 -33 87 -134 107l-67 13c-166 33 -236 100 -236 225c0 146 81 255 289 255c43 0 163 -5 235 -21z" />
    <glyph glyph-name="uni018F" unicode="&#x18f;" horiz-adv-x="656" 
d="M-23 212l434 11c4 95 -59 155 -199 176c-74 11 -121 5 -200 -25l5 124c66 25 132 37 203 34c174 -7 289 -121 282 -294c-14 -178 -126 -307 -291 -300c-111 13 -209 92 -234 274zM395 147l-321 -19c7 -61 36 -126 140 -123c102 3 178 76 181 142z" />
    <glyph glyph-name="T" unicode="T" horiz-adv-x="1077" 
d="M450 0l33 742l-293 -22v127h697v-116l-293 11l23 -742h-167z" />
    <glyph glyph-name="Tbar" unicode="&#x166;" horiz-adv-x="1077" 
d="M887 731l-293 11l9 -282h149v-103h-146l11 -357h-167l16 357h-155v103h159l13 282l-293 -22v127h697v-116z" />
    <glyph glyph-name="Tcaron" unicode="&#x164;" horiz-adv-x="1077" 
d="M515 971l-44 64l-133 131h54l143 -99l145 99h54l-132 -131l-39 -64h-48zM450 0l33 742l-293 -22v127h697v-116l-293 11l23 -742h-167z" />
    <glyph glyph-name="uni0162" unicode="&#x162;" horiz-adv-x="1077" 
d="M887 847v-116l-293 11l23 -742h-28l-8 -21h35c44 0 113 -18 102 -86c-9 -55 -53 -88 -118 -88h-70l13 60c26 -6 35 -6 59 -6c41 0 74 22 74 40c0 50 -43 52 -71 52c-19 0 -42 -2 -69 -6l19 55h-105l33 742l-293 -22v127h697z" />
    <glyph glyph-name="uni1E70" unicode="&#x1e70;" horiz-adv-x="1077" 
d="M450 0l33 742l-293 -22v127h697v-116l-293 11l23 -742h-167zM514 -180h48l39 -64l132 -131h-54l-145 99l-143 -99h-54l133 131z" />
    <glyph glyph-name="uni021A" unicode="&#x21a;" horiz-adv-x="1077" 
d="M190 847h697v-116l-293 11l23 -742h-167l33 742l-293 -22v127zM631 -142l-78 -281h-152l51 142h-8l16 139h171z" />
    <glyph glyph-name="uni1E6A" unicode="&#x1e6a;" horiz-adv-x="1077" 
d="M453 961v165h165v-165h-165zM450 0l33 742l-293 -22v127h697v-116l-293 11l23 -742h-167z" />
    <glyph glyph-name="uni1E6C" unicode="&#x1e6c;" horiz-adv-x="1077" 
d="M450 0l33 742l-293 -22v127h697v-116l-293 11l23 -742h-167zM448 -259v165h165v-165h-165z" />
    <glyph glyph-name="uni01AC" unicode="&#x1ac;" horiz-adv-x="1077" 
d="M887 847v-116l-293 11l23 -742h-167l33 742l-293 -22v2c-5 -10 -5 -24 -1 -40c7 -29 35 -88 49 -118l-111 103c-7 17 -18 40 -26 57c-33 71 -16 143 99 123h687z" />
    <glyph glyph-name="uni1E6E" unicode="&#x1e6e;" horiz-adv-x="1077" 
d="M450 0l33 742l-293 -22v127h697v-116l-293 11l23 -742h-167zM385 -153l307 18l23 -57l-354 -13z" />
    <glyph glyph-name="uni01AE" unicode="&#x1ae;" horiz-adv-x="1077" 
d="M887 731l-293 11l22 -697c14 -51 51 -92 120 -92c7 -59 9 -86 10 -146c-147 0 -298 92 -298 182c0 3 1 7 2 11l33 742l-293 -22v127h697v-116z" />
    <glyph glyph-name="U" unicode="U" horiz-adv-x="1054" 
d="M208 310l-18 538h163l-16 -425c-9 -240 67 -240 188 -240c120 0 194 0 185 240l-16 425h170l-25 -538c-15 -325 -107 -313 -314 -313c-209 0 -305 -12 -317 313z" />
    <glyph glyph-name="Uacute" unicode="&#xda;" horiz-adv-x="1054" 
d="M469 995l97 197h66l-66 -197h-97zM208 310l-18 538h163l-16 -425c-9 -240 67 -240 188 -240c120 0 194 0 185 240l-16 425h170l-25 -538c-15 -325 -107 -313 -314 -313c-209 0 -305 -12 -317 313z" />
    <glyph glyph-name="uni0244" unicode="&#x244;" horiz-adv-x="1054" 
d="M986 498l-10 -91h-132l-5 -97c-15 -325 -107 -313 -314 -313c-209 0 -305 -12 -317 313l-3 99h-186l9 91h174l-12 348h163l-13 -349h367l-13 349h170l-16 -350h138zM525 183c117 0 191 0 185 225h-373c-6 -225 70 -225 188 -225z" />
    <glyph glyph-name="uni01D3" unicode="&#x1d3;" horiz-adv-x="1054" 
d="M506 1036l-44 64l-133 131h54l143 -99l145 99h54l-132 -131l-39 -64h-48zM208 310l-18 538h163l-16 -425c-9 -240 67 -240 188 -240c120 0 194 0 185 240l-16 425h170l-25 -538c-15 -325 -107 -313 -314 -313c-209 0 -305 -12 -317 313z" />
    <glyph glyph-name="Ucircumflex" unicode="&#xdb;" horiz-adv-x="1054" 
d="M509 1135h48l39 -64l132 -131h-54l-145 99l-143 -99h-54l133 131zM208 310l-18 538h163l-16 -425c-9 -240 67 -240 188 -240c120 0 194 0 185 240l-16 425h170l-25 -538c-15 -325 -107 -313 -314 -313c-209 0 -305 -12 -317 313z" />
    <glyph glyph-name="Udieresis" unicode="&#xdc;" horiz-adv-x="1054" 
d="M313 986v165h165v-165h-165zM585 986v165h165v-165h-165zM208 310l-18 538h163l-16 -425c-9 -240 67 -240 188 -240c120 0 194 0 185 240l-16 425h170l-25 -538c-15 -325 -107 -313 -314 -313c-209 0 -305 -12 -317 313z" />
    <glyph glyph-name="uni01D7" unicode="&#x1d7;" horiz-adv-x="1054" 
d="M481 1261l97 197h66l-66 -197h-97zM313 986v165h165v-165h-165zM585 986v165h165v-165h-165zM208 310l-18 538h163l-16 -425c-9 -240 67 -240 188 -240c120 0 194 0 185 240l-16 425h170l-25 -538c-15 -325 -107 -313 -314 -313c-209 0 -305 -12 -317 313z" />
    <glyph glyph-name="uni1E72" unicode="&#x1e72;" horiz-adv-x="1054" 
d="M208 310l-18 538h163l-16 -425c-9 -240 67 -240 188 -240c120 0 194 0 185 240l-16 425h170l-25 -538c-15 -325 -107 -313 -314 -313c-209 0 -305 -12 -317 313zM305 -365v165h165v-165h-165zM577 -365v165h165v-165h-165z" />
    <glyph glyph-name="uni01D9" unicode="&#x1d9;" horiz-adv-x="1054" 
d="M510 1272l-44 64l-133 131h54l143 -99l145 99h54l-132 -131l-39 -64h-48zM306 997v165h165v-165h-165zM578 997v165h165v-165h-165zM208 310l-18 538h163l-16 -425c-9 -240 67 -240 188 -240c120 0 194 0 185 240l-16 425h170l-25 -538c-15 -325 -107 -313 -314 -313
c-209 0 -305 -12 -317 313z" />
    <glyph glyph-name="uni01DB" unicode="&#x1db;" horiz-adv-x="1054" 
d="M501 1240l-140 135h95l207 -153zM306 997v165h165v-165h-165zM578 997v165h165v-165h-165zM208 310l-18 538h163l-16 -425c-9 -240 67 -240 188 -240c120 0 194 0 185 240l-16 425h170l-25 -538c-15 -325 -107 -313 -314 -313c-209 0 -305 -12 -317 313z" />
    <glyph glyph-name="uni01D5" unicode="&#x1d5;" horiz-adv-x="1054" 
d="M349 1437l386 24l29 -77l-446 -17zM313 986v165h165v-165h-165zM585 986v165h165v-165h-165zM208 310l-18 538h163l-16 -425c-9 -240 67 -240 188 -240c120 0 194 0 185 240l-16 425h170l-25 -538c-15 -325 -107 -313 -314 -313c-209 0 -305 -12 -317 313z" />
    <glyph glyph-name="uni1EE4" unicode="&#x1ee4;" horiz-adv-x="1054" 
d="M208 310l-18 538h163l-16 -425c-9 -240 67 -240 188 -240c120 0 194 0 185 240l-16 425h170l-25 -538c-15 -325 -107 -313 -314 -313c-209 0 -305 -12 -317 313zM435 -278v165h165v-165h-165z" />
    <glyph glyph-name="Ugrave" unicode="&#xd9;" horiz-adv-x="1054" 
d="M473 994l-140 135h95l207 -153zM208 310l-18 538h163l-16 -425c-9 -240 67 -240 188 -240c120 0 194 0 185 240l-16 425h170l-25 -538c-15 -325 -107 -313 -314 -313c-209 0 -305 -12 -317 313z" />
    <glyph glyph-name="uni1EE6" unicode="&#x1ee6;" horiz-adv-x="1054" 
d="M508 1009v5c0 11 1 23 4 29c7 10 16 19 30 28l22 19c12 8 20 18 20 31c0 11 -17 26 -61 26c-28 0 -54 -9 -84 -25v39c35 16 67 22 97 22c31 0 55 -6 74 -17c17 -13 30 -31 30 -48c0 -20 -13 -41 -41 -58l-20 -14c-11 -7 -14 -12 -15 -14c-4 -7 -5 -14 -5 -23h-51z
M208 310l-18 538h163l-16 -425c-9 -240 67 -240 188 -240c120 0 194 0 185 240l-16 425h170l-25 -538c-15 -325 -107 -313 -314 -313c-209 0 -305 -12 -317 313z" />
    <glyph glyph-name="Uhorn" unicode="&#x1af;" horiz-adv-x="1054" 
d="M945 942c4 -17 7 -32 7 -43c0 -47 -15 -99 -55 -113c-18 -6 -25 -9 -36 -10l-22 -466c-15 -325 -107 -313 -314 -313c-209 0 -305 -12 -317 313l-18 538h163l-16 -425c-9 -240 67 -240 188 -240c120 0 194 0 185 240l-16 425h162c3 0 6 1 9 2c28 10 26 68 26 88
c0 14 -4 27 -10 42z" />
    <glyph glyph-name="uni1EE8" unicode="&#x1ee8;" horiz-adv-x="1054" 
d="M632 1192l-66 -197h-97l97 197h66zM945 942c4 -17 7 -32 7 -43c0 -47 -15 -99 -55 -113c-18 -6 -25 -9 -36 -10l-22 -466c-15 -325 -107 -313 -314 -313c-209 0 -305 -12 -317 313l-18 538h163l-16 -425c-9 -240 67 -240 188 -240c120 0 194 0 185 240l-16 425h162
c3 0 6 1 9 2c28 10 26 68 26 88c0 14 -4 27 -10 42z" />
    <glyph glyph-name="uni1EF0" unicode="&#x1ef0;" horiz-adv-x="1054" 
d="M945 942c4 -17 7 -32 7 -43c0 -47 -15 -99 -55 -113c-18 -6 -25 -9 -36 -10l-22 -466c-15 -325 -107 -313 -314 -313c-209 0 -305 -12 -317 313l-18 538h163l-16 -425c-9 -240 67 -240 188 -240c120 0 194 0 185 240l-16 425h162c3 0 6 1 9 2c28 10 26 68 26 88
c0 14 -4 27 -10 42zM435 -278v165h165v-165h-165z" />
    <glyph glyph-name="uni1EEA" unicode="&#x1eea;" horiz-adv-x="1054" 
d="M659 986l-162 18l-140 135h95zM945 942c4 -17 7 -32 7 -43c0 -47 -15 -99 -55 -113c-18 -6 -25 -9 -36 -10l-22 -466c-15 -325 -107 -313 -314 -313c-209 0 -305 -12 -317 313l-18 538h163l-16 -425c-9 -240 67 -240 188 -240c120 0 194 0 185 240l-16 425h162
c3 0 6 1 9 2c28 10 26 68 26 88c0 14 -4 27 -10 42z" />
    <glyph glyph-name="uni1EEC" unicode="&#x1eec;" horiz-adv-x="1054" 
d="M584 1121c0 11 -17 26 -61 26c-28 0 -54 -9 -84 -25v39c35 16 67 22 97 22c31 0 55 -6 74 -17c17 -13 30 -31 30 -48c0 -20 -13 -41 -41 -58l-20 -14c-11 -7 -14 -12 -15 -14c-4 -7 -5 -14 -5 -23h-51v5c0 11 1 23 4 29c7 10 16 19 30 28l22 19c12 8 20 18 20 31z
M945 942c4 -17 7 -32 7 -43c0 -47 -15 -99 -55 -113c-18 -6 -25 -9 -36 -10l-22 -466c-15 -325 -107 -313 -314 -313c-209 0 -305 -12 -317 313l-18 538h163l-16 -425c-9 -240 67 -240 188 -240c120 0 194 0 185 240l-16 425h162c3 0 6 1 9 2c28 10 26 68 26 88
c0 14 -4 27 -10 42z" />
    <glyph glyph-name="uni1EEE" unicode="&#x1eee;" horiz-adv-x="1054" 
d="M458 1203c-44 1 -44 -70 -44 -119h-62c9 132 26 170 106 170c75 0 94 -113 144 -113c56 0 44 57 46 113h52c-2 -165 -36 -171 -97 -170c-82 1 -103 118 -145 119zM945 942c4 -17 7 -32 7 -43c0 -47 -15 -99 -55 -113c-18 -6 -25 -9 -36 -10l-22 -466
c-15 -325 -107 -313 -314 -313c-209 0 -305 -12 -317 313l-18 538h163l-16 -425c-9 -240 67 -240 188 -240c120 0 194 0 185 240l-16 425h162c3 0 6 1 9 2c28 10 26 68 26 88c0 14 -4 27 -10 42z" />
    <glyph glyph-name="Uhungarumlaut" unicode="&#x170;" horiz-adv-x="1054" 
d="M474 1022l-162 -18l207 153h95zM657 1022l-162 -18l207 153h95zM208 310l-18 538h163l-16 -425c-9 -240 67 -240 188 -240c120 0 194 0 185 240l-16 425h170l-25 -538c-15 -325 -107 -313 -314 -313c-209 0 -305 -12 -317 313z" />
    <glyph glyph-name="Umacron" unicode="&#x16a;" horiz-adv-x="1054" 
d="M337 1171l386 24l29 -77l-446 -17zM208 310l-18 538h163l-16 -425c-9 -240 67 -240 188 -240c120 0 194 0 185 240l-16 425h170l-25 -538c-15 -325 -107 -313 -314 -313c-209 0 -305 -12 -317 313z" />
    <glyph glyph-name="Uogonek" unicode="&#x172;" horiz-adv-x="1054" 
d="M694 848h170l-25 -538c-11 -238 -63 -295 -172 -309c-40 -41 -61 -72 -61 -92s20 -31 61 -31c15 0 34 2 55 5c3 -20 8 -53 11 -70c-115 -2 -183 30 -183 86c0 28 17 61 53 98h-78c-209 0 -305 -12 -317 313l-18 538h163l-16 -425c-9 -240 67 -240 188 -240
c120 0 194 0 185 240z" />
    <glyph glyph-name="uni01B1" unicode="&#x1b1;" horiz-adv-x="970" 
d="M879 974v-108c-42 -5 -48 -5 -150 -21c72 -48 144 -84 144 -296c0 -260 -149 -427 -380 -427c-232 0 -382 167 -382 427c0 209 86 248 130 296c-59 7 -110 13 -151 21v108c28 1 64 0 111 0h201c0 -48 -1 -69 -10 -139c-119 11 -164 -173 -164 -286
c0 -208 103 -348 265 -348c161 0 263 140 263 348c0 113 -68 244 -183 280c-8 60 -13 97 -13 145h186c43 0 112 4 133 0z" />
    <glyph glyph-name="Uring" unicode="&#x16e;" horiz-adv-x="1054" 
d="M529 1034c-56 0 -102 49 -102 108s46 108 102 108s102 -49 102 -108s-46 -108 -102 -108zM529 1096c32 0 58 1 58 61c0 33 -26 60 -58 60s-58 -27 -58 -60c0 -60 26 -61 58 -61zM208 310l-18 538h163l-16 -425c-9 -240 67 -240 188 -240c120 0 194 0 185 240l-16 425h170
l-25 -538c-15 -325 -107 -313 -314 -313c-209 0 -305 -12 -317 313z" />
    <glyph glyph-name="Utilde" unicode="&#x168;" horiz-adv-x="1054" 
d="M414 1084h-62c9 132 26 170 106 170c75 0 94 -113 144 -113c56 0 44 57 46 113h52c-2 -165 -36 -171 -97 -170c-82 1 -103 118 -145 119c-44 1 -44 -70 -44 -119zM208 310l-18 538h163l-16 -425c-9 -240 67 -240 188 -240c120 0 194 0 185 240l-16 425h170l-25 -538
c-15 -325 -107 -313 -314 -313c-209 0 -305 -12 -317 313z" />
    <glyph glyph-name="uni1E74" unicode="&#x1e74;" horiz-adv-x="1054" 
d="M208 310l-18 538h163l-16 -425c-9 -240 67 -240 188 -240c120 0 194 0 185 240l-16 425h170l-25 -538c-15 -325 -107 -313 -314 -313c-209 0 -305 -12 -317 313zM388 -292h-62c9 132 26 170 106 170c75 0 94 -113 144 -113c56 0 44 57 46 113h52
c-2 -165 -36 -171 -97 -170c-82 1 -103 118 -145 119c-44 1 -44 -70 -44 -119z" />
    <glyph glyph-name="V" unicode="V" horiz-adv-x="1158" 
d="M689 0h-231l-268 847h128l224 -605h53l246 605h127z" />
    <glyph glyph-name="uni0194" unicode="&#x194;" horiz-adv-x="962" 
d="M882 800c-13 -17 -62 -77 -69 -87c-124 -167 -222 -301 -295 -408c215 -377 281 -509 -50 -505c-386 4 -317 159 -89 508c-65 108 -148 244 -253 418c-8 12 -33 54 -46 74h159c17 -25 21 -29 33 -51c65 -124 126 -233 180 -329c68 103 145 220 226 352c10 17 8 11 20 28
h184zM464 -73c110 -3 114 36 -19 267c-122 -198 -113 -263 19 -267z" />
    <glyph glyph-name="uni01B2" unicode="&#x1b2;" horiz-adv-x="1054" 
d="M864 846c1 -14 1 -28 -2 -42l-23 -494c-15 -325 -107 -313 -314 -313c-209 0 -305 -12 -317 313l-18 538h163l-16 -425c-9 -240 67 -240 188 -240c120 0 194 0 185 240l-16 425h2c-26 17 -65 28 -121 28c3 52 6 76 17 129c180 0 262 -78 272 -157v-2z" />
    <glyph glyph-name="uni1E7C" unicode="&#x1e7c;" horiz-adv-x="1158" 
d="M464 1026h-62c9 132 26 170 106 170c75 0 94 -113 144 -113c56 0 44 57 46 113h52c-2 -165 -36 -171 -97 -170c-82 1 -103 118 -145 119c-44 1 -44 -70 -44 -119zM689 0h-231l-268 847h128l224 -605h53l246 605h127z" />
    <glyph glyph-name="uni0245" unicode="&#x245;" horiz-adv-x="1158" 
d="M689 850l279 -847h-127l-246 605h-53l-224 -605h-128l268 847h231z" />
    <glyph glyph-name="W" unicode="W" horiz-adv-x="1423" 
d="M374 0l-184 847h130l145 -603l195 370h97l179 -381l167 616h130l-207 -849h-163l-151 411l-164 -411h-174z" />
    <glyph glyph-name="Wacute" unicode="&#x1e82;" horiz-adv-x="1423" 
d="M649 964l97 197h66l-66 -197h-97zM374 0l-184 847h130l145 -603l195 370h97l179 -381l167 616h130l-207 -849h-163l-151 411l-164 -411h-174z" />
    <glyph glyph-name="Wcircumflex" unicode="&#x174;" horiz-adv-x="1423" 
d="M689 1104h48l39 -64l132 -131h-54l-145 99l-143 -99h-54l133 131zM374 0l-184 847h130l145 -603l195 370h97l179 -381l167 616h130l-207 -849h-163l-151 411l-164 -411h-174z" />
    <glyph glyph-name="Wdieresis" unicode="&#x1e84;" horiz-adv-x="1423" 
d="M493 955v165h165v-165h-165zM765 955v165h165v-165h-165zM374 0l-184 847h130l145 -603l195 370h97l179 -381l167 616h130l-207 -849h-163l-151 411l-164 -411h-174z" />
    <glyph glyph-name="Wgrave" unicode="&#x1e80;" horiz-adv-x="1423" 
d="M653 963l-140 135h95l207 -153zM374 0l-184 847h130l145 -603l195 370h97l179 -381l167 616h130l-207 -849h-163l-151 411l-164 -411h-174z" />
    <glyph glyph-name="uni2C72" unicode="&#x2c72;" horiz-adv-x="1283" 
d="M1282 899l94 -101c-34 12 -100 34 -134 39c-51 8 -95 -13 -94 -86c-3 1 -6 1 -8 2l-184 -753h-163l-151 411l-164 -411h-174l-184 847h130l145 -603l195 370h97l179 -381l167 616h3c28 80 112 95 182 71z" />
    <glyph glyph-name="X" unicode="X" horiz-adv-x="1135" 
d="M945 -1h-190l-184 299l-188 -299h-193l306 420l-264 429h112l229 -323l235 323h110l-270 -429z" />
    <glyph glyph-name="Y" unicode="Y" horiz-adv-x="1062" 
d="M454 296l-264 553h120l222 -388l220 388h120l-268 -553v-297h-206z" />
    <glyph glyph-name="Yacute" unicode="&#xdd;" horiz-adv-x="1062" 
d="M471 1011l97 197h66l-66 -197h-97zM454 296l-264 553h120l222 -388l220 388h120l-268 -553v-297h-206z" />
    <glyph glyph-name="Ycircumflex" unicode="&#x176;" horiz-adv-x="1062" 
d="M511 1151h48l39 -64l132 -131h-54l-145 99l-143 -99h-54l133 131zM454 296l-264 553h120l222 -388l220 388h120l-268 -553v-297h-206z" />
    <glyph glyph-name="Ydieresis" unicode="&#x178;" horiz-adv-x="1062" 
d="M315 1002v165h165v-165h-165zM587 1002v165h165v-165h-165zM454 296l-264 553h120l222 -388l220 388h120l-268 -553v-297h-206z" />
    <glyph glyph-name="uni1EF4" unicode="&#x1ef4;" horiz-adv-x="1062" 
d="M454 296l-264 553h120l222 -388l220 388h120l-268 -553v-297h-206zM415 -431v165h165v-165h-165z" />
    <glyph glyph-name="Ygrave" unicode="&#x1ef2;" horiz-adv-x="1062" 
d="M475 1010l-140 135h95l207 -153zM454 296l-264 553h120l222 -388l220 388h120l-268 -553v-297h-206z" />
    <glyph glyph-name="uni01B3" unicode="&#x1b3;" horiz-adv-x="1062" 
d="M758 849c123 70 181 -5 181 -94v-67l-65 -139c0 36 0 106 -6 139c-6 30 -21 52 -48 53l-216 -445v-297h-206l56 297l-264 553h120l222 -388l216 381v1s1 0 1 1l3 5h6z" />
    <glyph glyph-name="uni1EF6" unicode="&#x1ef6;" horiz-adv-x="1062" 
d="M510 1025v5c0 11 1 23 4 29c7 10 16 19 30 28l22 19c12 8 20 18 20 31c0 11 -17 26 -61 26c-28 0 -54 -9 -84 -25v39c35 16 67 22 97 22c31 0 55 -6 74 -17c17 -13 30 -31 30 -48c0 -20 -13 -41 -41 -58l-20 -14c-11 -7 -14 -12 -15 -14c-4 -7 -5 -14 -5 -23h-51z
M454 296l-264 553h120l222 -388l220 388h120l-268 -553v-297h-206z" />
    <glyph glyph-name="uni1EF8" unicode="&#x1ef8;" horiz-adv-x="1062" 
d="M416 1100h-62c9 132 26 170 106 170c75 0 94 -113 144 -113c56 0 44 57 46 113h52c-2 -165 -36 -171 -97 -170c-82 1 -103 118 -145 119c-44 1 -44 -70 -44 -119zM454 296l-264 553h120l222 -388l220 388h120l-268 -553v-297h-206z" />
    <glyph glyph-name="Z" unicode="Z" horiz-adv-x="1129" 
d="M190 0v157l545 553l-402 -5l-50 144h636l-12 -164l-454 -520h433l53 -158z" />
    <glyph glyph-name="Zacute" unicode="&#x179;" horiz-adv-x="1129" 
d="M492 947l97 197h66l-66 -197h-97zM190 0v157l545 553l-402 -5l-50 144h636l-12 -164l-454 -520h433l53 -158z" />
    <glyph glyph-name="Zcaron" unicode="&#x17d;" horiz-adv-x="1129" 
d="M529 988l-44 64l-133 131h54l143 -99l145 99h54l-132 -131l-39 -64h-48zM190 0v157l545 553l-402 -5l-50 144h636l-12 -164l-454 -520h433l53 -158z" />
    <glyph glyph-name="uni1E90" unicode="&#x1e90;" horiz-adv-x="1129" 
d="M539 1138h48l39 -64l132 -131h-54l-145 99l-143 -99h-54l133 131zM190 0v157l545 553l-402 -5l-50 144h636l-12 -164l-454 -520h433l53 -158z" />
    <glyph glyph-name="Zdotaccent" unicode="&#x17b;" horiz-adv-x="1129" 
d="M467 978v165h165v-165h-165zM190 0v157l545 553l-402 -5l-50 144h636l-12 -164l-454 -520h433l53 -158z" />
    <glyph glyph-name="uni1E92" unicode="&#x1e92;" horiz-adv-x="1129" 
d="M190 0v157l545 553l-402 -5l-50 144h636l-12 -164l-454 -520h433l53 -158zM465 -305v165h165v-165h-165z" />
    <glyph glyph-name="uni0299" unicode="&#x299;" horiz-adv-x="663" 
d="M129 0v576h175c115 0 176 -50 181 -131c4 -66 -34 -103 -87 -112c99 -16 139 -62 136 -176c-4 -134 -78 -157 -204 -157h-201zM205 368h112c74 0 102 22 102 69c0 49 -28 81 -102 81h-112v-150zM205 111h121c82 0 124 28 124 96c0 39 -14 47 -33 67c-9 10 -36 25 -91 25
h-121v-188z" />
    <glyph glyph-name="uni0262" unicode="&#x262;" horiz-adv-x="776" 
d="M407 -9c-235 0 -270 99 -278 288c-11 263 117 288 278 295c73 4 134 -2 152 -18l9 -66c-35 23 -117 23 -155 23c-136 -4 -188 -54 -188 -226c0 -145 52 -173 188 -173c54 0 99 7 117 26l2 69l-102 18l-11 59l216 -24l13 -73l-51 8l8 -158c-63 -41 -142 -48 -198 -48z" />
    <glyph glyph-name="uni029B" unicode="&#x29b;" horiz-adv-x="619" 
d="M674 189l-51 8l8 -158c-63 -41 -142 -48 -198 -48c-235 0 -270 99 -278 288c-11 252 107 286 259 294c0 7 0 15 1 30c4 99 25 104 136 104l-9 -67c-60 0 -63 -2 -63 -45v-20c52 0 92 -7 106 -19l9 -66c-35 23 -117 23 -155 23c-6 0 -11 0 -17 -1l-9 -1v1
c-117 -10 -162 -64 -162 -225c0 -145 52 -173 188 -173c54 0 99 7 117 26l2 69l-102 18l-11 59l216 -24z" />
    <glyph glyph-name="uni029C" unicode="&#x29c;" horiz-adv-x="735" 
d="M604 0h-123l4 145h-242l5 -145h-118l16 581h80l12 -307h251l10 307h81z" />
    <glyph glyph-name="uni026A" unicode="&#x26a;" horiz-adv-x="301" 
d="M96 0c24 227 12 508 4 583h99c-8 -184 0 -394 20 -583h-123z" />
    <glyph glyph-name="uni029F" unicode="&#x29f;" horiz-adv-x="623" 
d="M130 0l28 581h68l-15 -469l282 13v-125h-363z" />
    <glyph glyph-name="uni0274" unicode="&#x274;" horiz-adv-x="743" 
d="M131 0l45 563h96l215 -455l39 476h86l-31 -584h-136l-194 407l7 -407h-127z" />
    <glyph glyph-name="uni0276" unicode="&#x276;" horiz-adv-x="818" 
d="M881 -3h-371v11c-33 -12 -73 -18 -121 -18c-179 2 -260 99 -260 298c0 200 102 291 260 291c53 0 100 -9 139 -29v12l341 11l-16 -73l-252 -14c26 -37 42 -87 46 -150l141 6v-79l-141 -9c-4 -56 -13 -103 -29 -141h237zM389 134c52 0 95 7 126 27l9 276
c-31 47 -77 80 -135 80c-110 0 -180 -119 -180 -236c0 -116 70 -147 180 -147z" />
    <glyph glyph-name="uni0280" unicode="&#x280;" horiz-adv-x="671" 
d="M401 299c32 -23 71 -33 95 -127l44 -172h-140l7 162c4 84 -79 89 -126 82l-41 -8l13 -236h-122l35 585h139c115 0 182 -54 182 -164c0 -75 -33 -114 -86 -122zM313 521h-97v-173h97c58 0 105 47 105 80c0 74 -47 93 -105 93z" />
    <glyph glyph-name="uni0281" unicode="&#x281;" horiz-adv-x="671" 
d="M270 261c-32 23 -71 33 -95 127l-44 172h140l-7 -162c-4 -84 79 -89 126 -82l41 8l-13 236h122l-35 -585h-139c-115 0 -182 54 -182 164c0 75 33 114 86 122zM358 39h97v173h-97c-58 0 -105 -47 -105 -80c0 -74 47 -93 105 -93z" />
    <glyph glyph-name="uni028F" unicode="&#x28f;" horiz-adv-x="727" 
d="M311 203l-181 378h82l152 -265l151 265h82l-183 -378v-204h-141z" />
    <glyph glyph-name="a" unicode="a" horiz-adv-x="820" 
d="M377 -14c-157 0 -254 114 -216 326c37 207 153 238 210 246c79 11 134 -11 170 -69l-2 58h71l57 -547h-100v82c-38 -65 -110 -96 -190 -96zM365 138c161 0 168 112 168 161c0 152 -74 175 -141 175c-56 0 -138 -50 -157 -188c-12 -89 12 -148 130 -148z" />
    <glyph glyph-name="aacute" unicode="&#xe1;" horiz-adv-x="820" 
d="M337 692l97 197h66l-66 -197h-97zM377 -14c-157 0 -254 114 -216 326c37 207 153 238 210 246c79 11 134 -11 170 -69l-2 58h71l57 -547h-100v82c-38 -65 -110 -96 -190 -96zM365 138c161 0 168 112 168 161c0 152 -74 175 -141 175c-56 0 -138 -50 -157 -188
c-12 -89 12 -148 130 -148z" />
    <glyph glyph-name="abreve" unicode="&#x103;" horiz-adv-x="820" 
d="M392 730c-107 0 -192 74 -192 197h65c0 -88 48 -102 127 -102c93 0 136 15 136 102h65c0 -123 -95 -197 -201 -197zM667 0h-100v82c-38 -65 -110 -96 -190 -96c-157 0 -254 114 -216 326c37 207 153 238 210 246c79 11 134 -11 170 -69l-2 58h71zM365 138
c161 0 168 112 168 161c0 152 -74 175 -141 175c-56 0 -138 -50 -157 -188c-12 -89 12 -148 130 -148z" />
    <glyph glyph-name="uni1EAF" unicode="&#x1eaf;" horiz-adv-x="820" 
d="M500 1251l-66 -197h-97l97 197h66zM392 730c-107 0 -192 74 -192 197h65c0 -88 48 -102 127 -102c93 0 136 15 136 102h65c0 -123 -95 -197 -201 -197zM667 0h-100v82c-38 -65 -110 -96 -190 -96c-157 0 -254 114 -216 326c37 207 153 238 210 246c79 11 134 -11 170 -69
l-2 58h71zM365 138c161 0 168 112 168 161c0 152 -74 175 -141 175c-56 0 -138 -50 -157 -188c-12 -89 12 -148 130 -148z" />
    <glyph glyph-name="uni1EB7" unicode="&#x1eb7;" horiz-adv-x="820" 
d="M392 730c-107 0 -192 74 -192 197h65c0 -88 48 -102 127 -102c93 0 136 15 136 102h65c0 -123 -95 -197 -201 -197zM667 0h-100v82c-38 -65 -110 -96 -190 -96c-157 0 -254 114 -216 326c37 207 153 238 210 246c79 11 134 -11 170 -69l-2 58h71zM365 138
c161 0 168 112 168 161c0 152 -74 175 -141 175c-56 0 -138 -50 -157 -188c-12 -89 12 -148 130 -148zM300 -276v165h165v-165h-165z" />
    <glyph glyph-name="uni1EB1" unicode="&#x1eb1;" horiz-adv-x="820" 
d="M527 1045l-162 18l-140 135h95zM392 730c-107 0 -192 74 -192 197h65c0 -88 48 -102 127 -102c93 0 136 15 136 102h65c0 -123 -95 -197 -201 -197zM667 0h-100v82c-38 -65 -110 -96 -190 -96c-157 0 -254 114 -216 326c37 207 153 238 210 246c79 11 134 -11 170 -69
l-2 58h71zM365 138c161 0 168 112 168 161c0 152 -74 175 -141 175c-56 0 -138 -50 -157 -188c-12 -89 12 -148 130 -148z" />
    <glyph glyph-name="uni1EB3" unicode="&#x1eb3;" horiz-adv-x="820" 
d="M477 1200c0 16 -25 37 -88 37c-41 0 -78 -13 -121 -36v56c50 23 96 32 140 32s79 -9 106 -24c25 -19 44 -45 44 -70c0 -29 -19 -59 -60 -83l-28 -21c-16 -10 -21 -17 -22 -20c-6 -10 -7 -20 -7 -33h-74v7c0 16 2 33 6 42c10 15 23 28 43 41l32 27c17 11 29 26 29 45z
M392 673c-107 0 -192 74 -192 197h65c0 -88 48 -102 127 -102c93 0 136 15 136 102h65c0 -123 -95 -197 -201 -197zM667 0h-100v82c-38 -65 -110 -96 -190 -96c-157 0 -254 114 -216 326c37 207 153 238 210 246c79 11 134 -11 170 -69l-2 58h71zM365 138
c161 0 168 112 168 161c0 152 -74 175 -141 175c-56 0 -138 -50 -157 -188c-12 -89 12 -148 130 -148z" />
    <glyph glyph-name="uni1EB5" unicode="&#x1eb5;" horiz-adv-x="820" 
d="M326 1262c-44 1 -44 -70 -44 -119h-62c9 132 26 170 106 170c75 0 94 -113 144 -113c56 0 44 57 46 113h52c-2 -165 -36 -171 -97 -170c-82 1 -103 118 -145 119zM392 730c-107 0 -192 74 -192 197h65c0 -88 48 -102 127 -102c93 0 136 15 136 102h65
c0 -123 -95 -197 -201 -197zM667 0h-100v82c-38 -65 -110 -96 -190 -96c-157 0 -254 114 -216 326c37 207 153 238 210 246c79 11 134 -11 170 -69l-2 58h71zM365 138c161 0 168 112 168 161c0 152 -74 175 -141 175c-56 0 -138 -50 -157 -188c-12 -89 12 -148 130 -148z
" />
    <glyph glyph-name="uni01CE" unicode="&#x1ce;" horiz-adv-x="820" 
d="M374 733l-44 64l-133 131h54l143 -99l145 99h54l-132 -131l-39 -64h-48zM377 -14c-157 0 -254 114 -216 326c37 207 153 238 210 246c79 11 134 -11 170 -69l-2 58h71l57 -547h-100v82c-38 -65 -110 -96 -190 -96zM365 138c161 0 168 112 168 161c0 152 -74 175 -141 175
c-56 0 -138 -50 -157 -188c-12 -89 12 -148 130 -148z" />
    <glyph glyph-name="acircumflex" unicode="&#xe2;" horiz-adv-x="820" 
d="M377 832h48l39 -64l132 -131h-54l-145 99l-143 -99h-54l133 131zM377 -14c-157 0 -254 114 -216 326c37 207 153 238 210 246c79 11 134 -11 170 -69l-2 58h71l57 -547h-100v82c-38 -65 -110 -96 -190 -96zM365 138c161 0 168 112 168 161c0 152 -74 175 -141 175
c-56 0 -138 -50 -157 -188c-12 -89 12 -148 130 -148z" />
    <glyph glyph-name="uni1EA5" unicode="&#x1ea5;" horiz-adv-x="820" 
d="M627 700l97 197h66l-66 -197h-97zM377 832h48l39 -64l132 -131h-54l-145 99l-143 -99h-54l133 131zM377 -14c-157 0 -254 114 -216 326c37 207 153 238 210 246c79 11 134 -11 170 -69l-2 58h71l57 -547h-100v82c-38 -65 -110 -96 -190 -96zM365 138
c161 0 168 112 168 161c0 152 -74 175 -141 175c-56 0 -138 -50 -157 -188c-12 -89 12 -148 130 -148z" />
    <glyph glyph-name="uni1EAD" unicode="&#x1ead;" horiz-adv-x="820" 
d="M384 883h48l39 -64l132 -131h-54l-145 99l-143 -99h-54l133 131zM377 -14c-157 0 -254 114 -216 326c37 207 153 238 210 246c79 11 134 -11 170 -69l-2 58h71l57 -547h-100v82c-38 -65 -110 -96 -190 -96zM365 138c161 0 168 112 168 161c0 152 -74 175 -141 175
c-56 0 -138 -50 -157 -188c-12 -89 12 -148 130 -148zM300 -276v165h165v-165h-165z" />
    <glyph glyph-name="uni1EA7" unicode="&#x1ea7;" horiz-adv-x="820" 
d="M697 796l-140 135h95l207 -153zM377 832h48l39 -64l132 -131h-54l-145 99l-143 -99h-54l133 131zM377 -14c-157 0 -254 114 -216 326c37 207 153 238 210 246c79 11 134 -11 170 -69l-2 58h71l57 -547h-100v82c-38 -65 -110 -96 -190 -96zM365 138c161 0 168 112 168 161
c0 152 -74 175 -141 175c-56 0 -138 -50 -157 -188c-12 -89 12 -148 130 -148z" />
    <glyph glyph-name="uni1EA9" unicode="&#x1ea9;" horiz-adv-x="820" 
d="M550 809v5c0 11 1 23 4 29c7 10 16 19 30 28l22 19c12 8 20 18 20 31c0 11 -17 26 -61 26c-28 0 -54 -9 -84 -25v39c35 16 67 22 97 22c31 0 55 -6 74 -17c17 -13 30 -31 30 -48c0 -20 -13 -41 -41 -58l-20 -14c-11 -7 -14 -12 -15 -14c-4 -7 -5 -14 -5 -23h-51zM378 838
h48l39 -64l132 -131h-54l-145 99l-143 -99h-54l133 131zM377 -14c-157 0 -254 114 -216 326c37 207 153 238 210 246c79 11 134 -11 170 -69l-2 58h71l57 -547h-100v82c-38 -65 -110 -96 -190 -96zM365 138c161 0 168 112 168 161c0 152 -74 175 -141 175
c-56 0 -138 -50 -157 -188c-12 -89 12 -148 130 -148z" />
    <glyph glyph-name="uni1EAB" unicode="&#x1eab;" horiz-adv-x="820" 
d="M287 881h-62c9 132 26 170 106 170c75 0 94 -113 144 -113c56 0 44 57 46 113h52c-2 -165 -36 -171 -97 -170c-82 1 -103 118 -145 119c-44 1 -44 -70 -44 -119zM378 846h48l39 -64l132 -131h-54l-145 99l-143 -99h-54l133 131zM377 -14c-157 0 -254 114 -216 326
c37 207 153 238 210 246c79 11 134 -11 170 -69l-2 58h71l57 -547h-100v82c-38 -65 -110 -96 -190 -96zM365 138c161 0 168 112 168 161c0 152 -74 175 -141 175c-56 0 -138 -50 -157 -188c-12 -89 12 -148 130 -148z" />
    <glyph glyph-name="adieresis" unicode="&#xe4;" horiz-adv-x="820" 
d="M181 683v165h165v-165h-165zM453 683v165h165v-165h-165zM377 -14c-157 0 -254 114 -216 326c37 207 153 238 210 246c79 11 134 -11 170 -69l-2 58h71l57 -547h-100v82c-38 -65 -110 -96 -190 -96zM365 138c161 0 168 112 168 161c0 152 -74 175 -141 175
c-56 0 -138 -50 -157 -188c-12 -89 12 -148 130 -148z" />
    <glyph glyph-name="uni01DF" unicode="&#x1df;" horiz-adv-x="820" 
d="M209 1104l386 24l29 -77l-446 -17zM174 694v165h165v-165h-165zM446 694v165h165v-165h-165zM377 -14c-157 0 -254 114 -216 326c37 207 153 238 210 246c79 11 134 -11 170 -69l-2 58h71l57 -547h-100v82c-38 -65 -110 -96 -190 -96zM365 138c161 0 168 112 168 161
c0 152 -74 175 -141 175c-56 0 -138 -50 -157 -188c-12 -89 12 -148 130 -148z" />
    <glyph glyph-name="uni0227" unicode="&#x227;" horiz-adv-x="820" 
d="M312 723v165h165v-165h-165zM377 -14c-157 0 -254 114 -216 326c37 207 153 238 210 246c79 11 134 -11 170 -69l-2 58h71l57 -547h-100v82c-38 -65 -110 -96 -190 -96zM365 138c161 0 168 112 168 161c0 152 -74 175 -141 175c-56 0 -138 -50 -157 -188
c-12 -89 12 -148 130 -148z" />
    <glyph glyph-name="uni1EA1" unicode="&#x1ea1;" horiz-adv-x="820" 
d="M377 -14c-157 0 -254 114 -216 326c37 207 153 238 210 246c79 11 134 -11 170 -69l-2 58h71l57 -547h-100v82c-38 -65 -110 -96 -190 -96zM365 138c161 0 168 112 168 161c0 152 -74 175 -141 175c-56 0 -138 -50 -157 -188c-12 -89 12 -148 130 -148zM300 -276v165h165
v-165h-165z" />
    <glyph glyph-name="uni01E1" unicode="&#x1e1;" horiz-adv-x="820" 
d="M226 1221l386 24l29 -77l-446 -17zM312 723v165h165v-165h-165zM377 -14c-157 0 -254 114 -216 326c37 207 153 238 210 246c79 11 134 -11 170 -69l-2 58h71l57 -547h-100v82c-38 -65 -110 -96 -190 -96zM365 138c161 0 168 112 168 161c0 152 -74 175 -141 175
c-56 0 -138 -50 -157 -188c-12 -89 12 -148 130 -148z" />
    <glyph glyph-name="agrave" unicode="&#xe0;" horiz-adv-x="820" 
d="M341 691l-140 135h95l207 -153zM377 -14c-157 0 -254 114 -216 326c37 207 153 238 210 246c79 11 134 -11 170 -69l-2 58h71l57 -547h-100v82c-38 -65 -110 -96 -190 -96zM365 138c161 0 168 112 168 161c0 152 -74 175 -141 175c-56 0 -138 -50 -157 -188
c-12 -89 12 -148 130 -148z" />
    <glyph glyph-name="uni1EA3" unicode="&#x1ea3;" horiz-adv-x="820" 
d="M376 706v5c0 11 1 23 4 29c7 10 16 19 30 28l22 19c12 8 20 18 20 31c0 11 -17 26 -61 26c-28 0 -54 -9 -84 -25v39c35 16 67 22 97 22c31 0 55 -6 74 -17c17 -13 30 -31 30 -48c0 -20 -13 -41 -41 -58l-20 -14c-11 -7 -14 -12 -15 -14c-4 -7 -5 -14 -5 -23h-51zM377 -14
c-157 0 -254 114 -216 326c37 207 153 238 210 246c79 11 134 -11 170 -69l-2 58h71l57 -547h-100v82c-38 -65 -110 -96 -190 -96zM365 138c161 0 168 112 168 161c0 152 -74 175 -141 175c-56 0 -138 -50 -157 -188c-12 -89 12 -148 130 -148z" />
    <glyph glyph-name="uni0251" unicode="&#x251;" horiz-adv-x="820" 
d="M377 -14c-157 0 -254 114 -216 326c37 207 153 238 210 246c79 11 134 -11 170 -69l-2 58h71l57 -547h-100v82c-38 -65 -110 -96 -190 -96zM365 138c161 0 168 112 168 161c0 152 -74 175 -141 175c-56 0 -138 -50 -157 -188c-12 -89 12 -148 130 -148z" />
    <glyph glyph-name="uni0252" unicode="&#x252;" horiz-adv-x="820" 
d="M443 574c157 0 254 -114 216 -326c-37 -207 -153 -238 -210 -246c-79 -11 -134 11 -170 69l2 -58h-71l-57 547h100v-82c38 65 110 96 190 96zM455 422c-161 0 -168 -112 -168 -161c0 -152 74 -175 141 -175c56 0 138 50 157 188c12 89 -12 148 -130 148z" />
    <glyph glyph-name="amacron" unicode="&#x101;" horiz-adv-x="820" 
d="M205 868l386 24l29 -77l-446 -17zM377 -14c-157 0 -254 114 -216 326c37 207 153 238 210 246c79 11 134 -11 170 -69l-2 58h71l57 -547h-100v82c-38 -65 -110 -96 -190 -96zM365 138c161 0 168 112 168 161c0 152 -74 175 -141 175c-56 0 -138 -50 -157 -188
c-12 -89 12 -148 130 -148z" />
    <glyph glyph-name="aogonek" unicode="&#x105;" horiz-adv-x="820" 
d="M663 -105c3 -20 8 -53 11 -70c-115 -2 -183 30 -183 86c0 33 24 74 76 120v51c-38 -65 -110 -96 -190 -96c-157 0 -254 114 -216 326c37 207 153 238 210 246c79 11 134 -11 170 -69l-2 58h71l57 -547h-71c-33 -35 -49 -61 -49 -79c0 -20 20 -31 61 -31c15 0 34 2 55 5z
M365 138c161 0 168 112 168 161c0 152 -74 175 -141 175c-56 0 -138 -50 -157 -188c-12 -89 12 -148 130 -148z" />
    <glyph glyph-name="aring" unicode="&#xe5;" horiz-adv-x="820" 
d="M397 702c-56 0 -102 49 -102 108s46 108 102 108s102 -49 102 -108s-46 -108 -102 -108zM397 764c32 0 58 1 58 61c0 33 -26 60 -58 60s-58 -27 -58 -60c0 -60 26 -61 58 -61zM377 -14c-157 0 -254 114 -216 326c37 207 153 238 210 246c79 11 134 -11 170 -69l-2 58h71
l57 -547h-100v82c-38 -65 -110 -96 -190 -96zM365 138c161 0 168 112 168 161c0 152 -74 175 -141 175c-56 0 -138 -50 -157 -188c-12 -89 12 -148 130 -148z" />
    <glyph glyph-name="aringacute" unicode="&#x1fb;" horiz-adv-x="820" 
d="M339 987l97 197h66l-66 -197h-97zM397 731c-56 0 -102 49 -102 108s46 108 102 108s102 -49 102 -108s-46 -108 -102 -108zM397 793c32 0 58 1 58 61c0 33 -26 60 -58 60s-58 -27 -58 -60c0 -60 26 -61 58 -61zM377 -14c-157 0 -254 114 -216 326c37 207 153 238 210 246
c79 11 134 -11 170 -69l-2 58h71l57 -547h-100v82c-38 -65 -110 -96 -190 -96zM365 138c161 0 168 112 168 161c0 152 -74 175 -141 175c-56 0 -138 -50 -157 -188c-12 -89 12 -148 130 -148z" />
    <glyph glyph-name="atilde" unicode="&#xe3;" horiz-adv-x="820" 
d="M283 678h-62c9 132 26 170 106 170c75 0 94 -113 144 -113c56 0 44 57 46 113h52c-2 -165 -36 -171 -97 -170c-82 1 -103 118 -145 119c-44 1 -44 -70 -44 -119zM377 -14c-157 0 -254 114 -216 326c37 207 153 238 210 246c79 11 134 -11 170 -69l-2 58h71l57 -547h-100
v82c-38 -65 -110 -96 -190 -96zM365 138c161 0 168 112 168 161c0 152 -74 175 -141 175c-56 0 -138 -50 -157 -188c-12 -89 12 -148 130 -148z" />
    <glyph glyph-name="uni0250" unicode="&#x250;" horiz-adv-x="820" 
d="M443 574c157 0 254 -114 216 -326c-37 -207 -153 -238 -210 -246c-79 -11 -134 11 -170 69l2 -58h-71l-57 547h100v-82c38 65 110 96 190 96zM455 422c-161 0 -168 -112 -168 -161c0 -152 74 -175 141 -175c56 0 138 50 157 188c12 89 -12 148 -130 148z" />
    <glyph glyph-name="ae" unicode="&#xe6;" horiz-adv-x="1224" 
d="M844 119c74 -8 121 0 198 33v-124c-65 -28 -130 -42 -201 -42c-69 0 -130 17 -178 49l4 -35h-100v82c-38 -65 -110 -96 -190 -96c-157 0 -254 114 -216 326c37 207 153 238 210 246c79 11 134 -11 170 -69l-2 58h71l7 -68c49 63 121 101 209 101c112 -9 213 -84 245 -265
l-433 -28v-12l2 -15c12 -79 77 -127 204 -141zM826 513c-102 -7 -175 -83 -175 -149l320 31c-10 61 -41 125 -145 118zM365 138c161 0 168 112 168 161c0 152 -74 175 -141 175c-56 0 -138 -50 -157 -188c-12 -89 12 -148 130 -148z" />
    <glyph glyph-name="uni01E3" unicode="&#x1e3;" horiz-adv-x="1224" 
d="M817 953l29 -77l-446 -17l31 70zM844 119c74 -8 121 0 198 33v-124c-65 -28 -130 -42 -201 -42c-69 0 -130 17 -178 49l4 -35h-100v82c-38 -65 -110 -96 -190 -96c-157 0 -254 114 -216 326c37 207 153 238 210 246c79 11 134 -11 170 -69l-2 58h71l7 -68
c49 63 121 101 209 101c112 -9 213 -84 245 -265l-433 -28v-12l2 -15c12 -79 77 -127 204 -141zM826 513c-102 -7 -175 -83 -175 -149l320 31c-10 61 -41 125 -145 118zM365 138c161 0 168 112 168 161c0 152 -74 175 -141 175c-56 0 -138 -50 -157 -188
c-12 -89 12 -148 130 -148z" />
    <glyph glyph-name="b" unicode="b" horiz-adv-x="859" 
d="M441 -14c-143 0 -206 41 -232 113c-21 45 -26 388 -56 751h134v-322c0 -75 46 25 154 28c148 4 265 -119 265 -263c0 -172 -132 -307 -265 -307zM462 146c80 6 146 65 146 147c0 99 -50 175 -146 175c-95 0 -152 -73 -152 -179c0 -102 22 -143 152 -143z" />
    <glyph glyph-name="uni1E03" unicode="&#x1e03;" horiz-adv-x="859" 
d="M132 1036v165h165v-165h-165zM441 -14c-143 0 -206 41 -232 113c-21 45 -26 388 -56 751h134v-322c0 -75 46 25 154 28c148 4 265 -119 265 -263c0 -172 -132 -307 -265 -307zM462 146c80 6 146 65 146 147c0 99 -50 175 -146 175c-95 0 -152 -73 -152 -179
c0 -102 22 -143 152 -143z" />
    <glyph glyph-name="uni1E05" unicode="&#x1e05;" horiz-adv-x="859" 
d="M441 -14c-143 0 -206 41 -232 113c-21 45 -26 388 -56 751h134v-322c0 -75 46 25 154 28c148 4 265 -119 265 -263c0 -172 -132 -307 -265 -307zM462 146c80 6 146 65 146 147c0 99 -50 175 -146 175c-95 0 -152 -73 -152 -179c0 -102 22 -143 152 -143zM330 -334v165
h165v-165h-165z" />
    <glyph glyph-name="uni0253" unicode="&#x253;" horiz-adv-x="859" 
d="M441 556c148 4 265 -119 265 -263c0 -172 -132 -307 -265 -307c-143 0 -206 41 -232 113c-20 42 -25 342 -50 676l-6 35c-14 87 59 202 253 214c7 -51 8 -75 7 -125c-63 -4 -103 -23 -126 -49v-322c0 -75 46 25 154 28zM462 146c80 6 146 65 146 147
c0 99 -50 175 -146 175c-95 0 -152 -73 -152 -179c0 -102 22 -143 152 -143z" />
    <glyph glyph-name="uni02AD" unicode="&#x2ad;" horiz-adv-x="444" 
d="M364 504v-154h-69v94h-146v-94h-69v154h284zM364 162v-154h-69v94h-146v-94h-69v154h284z" />
    <glyph glyph-name="uni0298" unicode="&#x298;" horiz-adv-x="1143" 
d="M572 -14c-263 2 -382 145 -382 438c0 294 150 428 382 428s388 -122 381 -428c-7 -293 -94 -440 -381 -438zM572 197c162 0 263 46 263 216c0 172 -101 348 -263 348s-264 -176 -264 -348c0 -170 102 -216 264 -216zM491 392v165h165v-165h-165z" />
    <glyph glyph-name="uni02AC" unicode="&#x2ac;" horiz-adv-x="611" 
d="M213 384l-88 336h74l50 -208l82 113h38l82 -113l51 208h73l-87 -336h-77l-61 104l-63 -104h-74zM213 0l-88 336h74l50 -208l82 113h38l82 -113l51 208h73l-87 -336h-77l-61 104l-63 -104h-74z" />
    <glyph glyph-name="uni1D6C" unicode="&#x1d6c;" horiz-adv-x="859" 
d="M441 556c148 4 265 -119 265 -263c0 -172 -132 -307 -265 -307c-143 0 -206 41 -232 113c-17 37 -24 270 -42 552c-3 2 -7 3 -11 3c-44 1 -44 -70 -44 -119h-62c9 132 26 170 106 170h8c-3 47 -7 96 -11 145h134v-255c4 -2 8 -3 13 -3c56 0 44 57 46 113h52
c-2 -165 -36 -171 -97 -170c-5 0 -10 1 -14 1v-8c0 -75 46 25 154 28zM462 146c80 6 146 65 146 147c0 99 -50 175 -146 175c-95 0 -152 -73 -152 -179c0 -102 22 -143 152 -143z" />
    <glyph glyph-name="c" unicode="c" horiz-adv-x="747" 
d="M518 553v-86c-32 10 -77 15 -105 15c-97 -1 -159 -60 -159 -209c10 -130 141 -199 246 -147l94 -102c-47 -28 -110 -35 -171 -31c-207 14 -270 104 -270 280c0 198 71 288 240 292c48 1 104 -5 125 -12z" />
    <glyph glyph-name="cacute" unicode="&#x107;" horiz-adv-x="747" 
d="M331 595l97 197h66l-66 -197h-97zM518 553v-86c-32 10 -77 15 -105 15c-97 -1 -159 -60 -159 -209c10 -130 141 -199 246 -147l94 -102c-47 -28 -110 -35 -171 -31c-207 14 -270 104 -270 280c0 198 71 288 240 292c48 1 104 -5 125 -12z" />
    <glyph glyph-name="ccaron" unicode="&#x10d;" horiz-adv-x="747" 
d="M368 636l-44 64l-133 131h54l143 -99l145 99h54l-132 -131l-39 -64h-48zM518 553v-86c-32 10 -77 15 -105 15c-97 -1 -159 -60 -159 -209c10 -130 141 -199 246 -147l94 -102c-47 -28 -110 -35 -171 -31c-207 14 -270 104 -270 280c0 198 71 288 240 292
c48 1 104 -5 125 -12z" />
    <glyph glyph-name="ccedilla" unicode="&#xe7;" horiz-adv-x="747" 
d="M414 -50c44 0 113 -18 102 -86c-9 -55 -53 -88 -118 -88h-70l13 60c26 -6 35 -6 59 -6c41 0 74 22 74 40c0 50 -43 52 -71 52c-19 0 -42 -2 -69 -6l28 84c-159 27 -209 115 -209 273c0 198 71 288 240 292c48 1 104 -5 125 -12v-86c-32 10 -77 15 -105 15
c-97 -1 -159 -60 -159 -209c10 -130 141 -199 246 -147l94 -102c-47 -28 -110 -35 -171 -31c-9 1 -19 1 -27 2l-17 -45h35z" />
    <glyph glyph-name="uni0255" unicode="&#x255;" horiz-adv-x="686" 
d="M606 183c0 -84 -94 -166 -198 -190v-3c4 -65 8 -127 8 -190h-110v188c-172 15 -226 122 -226 285c0 178 109 287 279 287c27 0 64 -5 85 -12v-71c-32 10 -77 12 -105 12c-117 0 -159 -83 -159 -216c1 -66 29 -164 126 -175v78c0 93 52 158 127 158c31 0 66 -11 102 -36
c50 -35 71 -75 71 -115zM401 108c66 19 104 60 104 89c0 9 -3 17 -11 23c-16 12 -32 19 -46 19c-27 0 -48 -26 -48 -87c0 -15 0 -30 1 -44z" />
    <glyph glyph-name="cdotaccent" unicode="&#x10b;" horiz-adv-x="747" 
d="M306 626v165h165v-165h-165zM518 553v-86c-32 10 -77 15 -105 15c-97 -1 -159 -60 -159 -209c10 -130 141 -199 246 -147l94 -102c-47 -28 -110 -35 -171 -31c-207 14 -270 104 -270 280c0 198 71 288 240 292c48 1 104 -5 125 -12z" />
    <glyph glyph-name="uniAB53" unicode="&#xab53;" horiz-adv-x="757" 
d="M522 6c26 -53 60 -66 161 -66v-123c-161 0 -192 0 -239 101l-69 152l-154 -253l-148 2l254 357l-44 97c-14 29 -62 115 -186 115v105c172 0 245 -120 259 -149l37 -75l154 217h81l-189 -311z" />
    <glyph glyph-name="uni0188" unicode="&#x188;" horiz-adv-x="747" 
d="M500 126l94 -102c-47 -28 -110 -35 -171 -31c-207 14 -270 104 -270 280c0 198 71 288 240 292c12 0 25 0 38 -1v77v1v20c0 5 1 8 2 19c4 43 28 46 154 45v-33c-68 0 -71 -1 -71 -19v-12v-21v-87c1 -1 1 -1 2 -1v-86c-32 10 -77 15 -105 15c-97 -1 -159 -60 -159 -209
c10 -130 141 -199 246 -147z" />
    <glyph glyph-name="d" unicode="d" horiz-adv-x="843" 
d="M583 470l17 380h90l-24 -615l12 -237l-95 2v72c-37 -65 -95 -88 -175 -86c-157 3 -264 115 -254 287c9 158 122 297 254 304c80 4 138 -42 175 -107zM249 283c0 -95 55 -134 150 -134c75 0 144 20 144 141c0 108 -46 181 -141 181c-96 0 -153 -80 -153 -188z" />
    <glyph glyph-name="eth" unicode="&#xf0;" horiz-adv-x="836" 
d="M790 628v-103h-183c-3 -38 -10 -76 -23 -161c-37 -240 -92 -378 -260 -378c-147 0 -244 98 -244 248c0 153 91 248 238 248c69 0 138 -26 184 -146c13 78 26 130 30 189h-183v103h182v4c-7 72 -57 88 -130 88l31 67c58 0 176 -19 177 -131v-28h181zM324 116
c88 0 154 54 144 118c-14 92 -56 170 -144 170c-89 0 -145 -65 -145 -170c0 -66 56 -118 145 -118z" />
    <glyph glyph-name="dcaron" unicode="&#x10f;" horiz-adv-x="843" 
d="M583 470l17 380h90l-24 -615l12 -237l-95 2v72c-37 -65 -95 -88 -175 -86c-157 3 -264 115 -254 287c9 158 122 297 254 304c80 4 138 -42 175 -107zM873 556h-95l28 213h79zM249 283c0 -95 55 -134 150 -134c75 0 144 20 144 141c0 108 -46 181 -141 181
c-96 0 -153 -80 -153 -188z" />
    <glyph glyph-name="uni1E13" unicode="&#x1e13;" horiz-adv-x="843" 
d="M583 470l17 380h90l-24 -615l12 -237l-95 2v72c-37 -65 -95 -88 -175 -86c-157 3 -264 115 -254 287c9 158 122 297 254 304c80 4 138 -42 175 -107zM249 283c0 -95 55 -134 150 -134c75 0 144 20 144 141c0 108 -46 181 -141 181c-96 0 -153 -80 -153 -188zM378 -248h48
l39 -64l132 -131h-54l-145 99l-143 -99h-54l133 131z" />
    <glyph glyph-name="dcroat" unicode="&#x111;" horiz-adv-x="843" 
d="M850 607h-169l-15 -372l12 -237l-95 2v72c-37 -65 -95 -88 -175 -86c-157 3 -264 115 -254 287c9 158 122 297 254 304c80 4 138 -42 175 -107l6 137h-180v103h185l6 140h90l-5 -140h165v-103zM399 149c75 0 144 20 144 141c0 108 -46 181 -141 181
c-96 0 -153 -80 -153 -188c0 -95 55 -134 150 -134z" />
    <glyph glyph-name="uni1E0B" unicode="&#x1e0b;" horiz-adv-x="843" 
d="M583 470l17 380h90l-24 -615l12 -237l-95 2v72c-37 -65 -95 -88 -175 -86c-157 3 -264 115 -254 287c9 158 122 297 254 304c80 4 138 -42 175 -107zM323 669v165h165v-165h-165zM249 283c0 -95 55 -134 150 -134c75 0 144 20 144 141c0 108 -46 181 -141 181
c-96 0 -153 -80 -153 -188z" />
    <glyph glyph-name="uni1E0D" unicode="&#x1e0d;" horiz-adv-x="843" 
d="M583 470l17 380h90l-24 -615l12 -237l-95 2v72c-37 -65 -95 -88 -175 -86c-157 3 -264 115 -254 287c9 158 122 297 254 304c80 4 138 -42 175 -107zM249 283c0 -95 55 -134 150 -134c75 0 144 20 144 141c0 108 -46 181 -141 181c-96 0 -153 -80 -153 -188zM312 -327
v165h165v-165h-165z" />
    <glyph glyph-name="uni02A4" unicode="&#x2a4;" horiz-adv-x="1308" 
d="M1152 85c14 -164 -24 -307 -238 -307c-33 0 -158 -2 -285 123l127 104c141 -138 274 -50 271 99c-7 79 -121 119 -261 106v93c112 105 167 143 261 248c-101 -1 -220 -1 -349 0l-12 -316l12 -237l-95 2v72c-37 -65 -95 -88 -175 -86c-157 3 -264 115 -254 287
c9 158 122 297 254 304c80 4 138 -42 175 -107l17 380h90l-8 -205c125 1 356 3 425 0c12 -69 10 -69 18 -140c-90 -100 -115 -121 -207 -213c120 -9 226 -111 234 -207zM399 149c75 0 144 20 144 141c0 108 -46 181 -141 181c-96 0 -153 -80 -153 -188
c0 -95 55 -134 150 -134z" />
    <glyph glyph-name="uni0257" unicode="&#x257;" horiz-adv-x="843" 
d="M602 850c20 75 80 147 183 147c-1 -53 -3 -77 -9 -129c-41 0 -69 -16 -87 -40l-23 -593l12 -237l-95 2v72c-37 -65 -95 -88 -175 -86c-157 3 -264 115 -254 287c9 158 122 297 254 304c80 4 138 -42 175 -107l11 254v68c0 16 2 32 6 49v9h2zM399 149c75 0 144 20 144 141
c0 108 -46 181 -141 181c-96 0 -153 -80 -153 -188c0 -95 55 -134 150 -134z" />
    <glyph glyph-name="uni1E0F" unicode="&#x1e0f;" horiz-adv-x="843" 
d="M583 470l17 380h90l-24 -615l12 -237l-95 2v72c-37 -65 -95 -88 -175 -86c-157 3 -264 115 -254 287c9 158 122 297 254 304c80 4 138 -42 175 -107zM249 283c0 -95 55 -134 150 -134c75 0 144 20 144 141c0 108 -46 181 -141 181c-96 0 -153 -80 -153 -188zM249 -221
l307 18l23 -57l-354 -13z" />
    <glyph glyph-name="uni1D6D" unicode="&#x1d6d;" horiz-adv-x="891" 
d="M725 780h52c-2 -165 -36 -171 -97 -170c-10 0 -19 2 -27 5l-15 -380l12 -237l-95 2v72c-37 -65 -95 -88 -175 -86c-157 3 -264 115 -254 287c9 158 122 297 254 304c80 4 138 -42 175 -107l11 238c-10 12 -20 21 -31 21c-44 1 -44 -70 -44 -119h-62c9 132 26 170 106 170
c13 0 24 -3 33 -9l4 79h90l-7 -174c8 -6 15 -9 24 -9c56 0 44 57 46 113zM371 149c75 0 144 20 144 141c0 108 -46 181 -141 181c-96 0 -153 -80 -153 -188c0 -95 55 -134 150 -134z" />
    <glyph glyph-name="uni0256" unicode="&#x256;" horiz-adv-x="843" 
d="M765 -143c-128 0 -189 110 -191 201c-37 -54 -92 -74 -166 -72c-157 3 -264 115 -254 287c9 158 122 297 254 304c80 4 138 -42 175 -107l17 380h90l-24 -615l11 -218c18 -19 44 -31 79 -31c6 -52 8 -76 9 -129zM399 149c75 0 144 20 144 141c0 108 -46 181 -141 181
c-96 0 -153 -80 -153 -188c0 -95 55 -134 150 -134z" />
    <glyph glyph-name="uni01F3" unicode="&#x1f3;" horiz-adv-x="1261" 
d="M809 118h265l57 -121h-501v1l-80 2v72c-37 -65 -95 -88 -175 -86c-157 3 -264 115 -254 287c9 158 122 297 254 304c80 4 138 -42 175 -107l17 380h90l-24 -615l9 -174l12 67l351 333h-291v96h414l13 -90zM366 149c75 0 144 20 144 141c0 108 -46 181 -141 181
c-96 0 -153 -80 -153 -188c0 -95 55 -134 150 -134z" />
    <glyph glyph-name="uni02A3" unicode="&#x2a3;" horiz-adv-x="1167" 
d="M828 108h265l57 -121h-501l2 12l-68 1v72c-37 -65 -95 -88 -175 -86c-157 3 -264 115 -254 287c9 158 122 297 254 304c42 2 78 -10 109 -31h69l14 304h90l-12 -304h55v1h414l13 -90zM399 149c75 0 144 20 144 141c0 108 -46 181 -141 181c-96 0 -153 -80 -153 -188
c0 -95 55 -134 150 -134zM666 235l6 -122l1 5l351 333h-281v-2h-69z" />
    <glyph glyph-name="uni01C6" unicode="&#x1c6;" horiz-adv-x="1344" 
d="M909 713l-44 64l-133 131h54l143 -99l145 99h54l-132 -131l-39 -64h-48zM842 118h265l57 -121h-501v1l-80 2v72c-37 -65 -95 -88 -175 -86c-157 3 -264 115 -254 287c9 158 122 297 254 304c80 4 138 -42 175 -107l17 380h90l-24 -615l9 -174l12 67l351 333h-291v96h414
l13 -90zM399 149c75 0 144 20 144 141c0 108 -46 181 -141 181c-96 0 -153 -80 -153 -188c0 -95 55 -134 150 -134z" />
    <glyph glyph-name="uni02A5" unicode="&#x2a5;" horiz-adv-x="1229" 
d="M1072 254c138 -36 72 -255 -60 -255h-22c-3 -50 -5 -113 -5 -193h-99c0 74 2 139 6 193h-214v-1l-47 1h-48v73c-37 -65 -95 -88 -175 -86c-157 3 -264 115 -254 287c9 158 122 297 254 304c44 2 82 -11 113 -34v5h65l14 302h90l-12 -302h403l13 -67l-352 -361h167
c26 122 78 157 163 134zM576 481c3 -4 5 -7 7 -11v11h-7zM666 235l2 -48l317 294h-309zM399 149c75 0 144 20 144 141c0 108 -46 181 -141 181c-96 0 -153 -80 -153 -188c0 -95 55 -134 150 -134zM1003 121c70 5 56 38 45 47c-15 12 -32 13 -45 -47z" />
    <glyph glyph-name="e" unicode="e" horiz-adv-x="830" 
d="M677 315l-433 -28c0 -95 65 -153 206 -168c74 -8 121 0 198 33v-124c-65 -28 -130 -42 -201 -42c-174 0 -294 109 -294 282c7 179 114 312 279 312c112 -9 213 -84 245 -265zM257 364l320 31c-10 61 -41 125 -145 118c-102 -7 -175 -83 -175 -149z" />
    <glyph glyph-name="eacute" unicode="&#xe9;" horiz-adv-x="830" 
d="M359 762l97 197h66l-66 -197h-97zM677 315l-433 -28c0 -95 65 -153 206 -168c74 -8 121 0 198 33v-124c-65 -28 -130 -42 -201 -42c-174 0 -294 109 -294 282c7 179 114 312 279 312c112 -9 213 -84 245 -265zM257 364l320 31c-10 61 -41 125 -145 118
c-102 -7 -175 -83 -175 -149z" />
    <glyph glyph-name="ebreve" unicode="&#x115;" horiz-adv-x="830" 
d="M414 800c-107 0 -192 74 -192 197h65c0 -88 48 -102 127 -102c93 0 136 15 136 102h65c0 -123 -95 -197 -201 -197zM450 119c74 -8 121 0 198 33v-124c-65 -28 -130 -42 -201 -42c-174 0 -294 109 -294 282c7 179 114 312 279 312c112 -9 213 -84 245 -265l-433 -28
c0 -95 65 -153 206 -168zM432 513c-102 -7 -175 -83 -175 -149l320 31c-10 61 -41 125 -145 118z" />
    <glyph glyph-name="ecaron" unicode="&#x11b;" horiz-adv-x="830" 
d="M396 803l-44 64l-133 131h54l143 -99l145 99h54l-132 -131l-39 -64h-48zM677 315l-433 -28c0 -95 65 -153 206 -168c74 -8 121 0 198 33v-124c-65 -28 -130 -42 -201 -42c-174 0 -294 109 -294 282c7 179 114 312 279 312c112 -9 213 -84 245 -265zM257 364l320 31
c-10 61 -41 125 -145 118c-102 -7 -175 -83 -175 -149z" />
    <glyph glyph-name="uni0229" unicode="&#x229;" horiz-adv-x="830" 
d="M450 119c74 -8 121 0 198 33v-124c-62 -27 -124 -41 -191 -42l-24 -66h35c44 0 113 -18 102 -86c-9 -55 -53 -88 -118 -88h-70l13 60c26 -6 35 -6 59 -6c41 0 74 22 74 40c0 50 -43 52 -71 52c-19 0 -42 -2 -69 -6l34 101c-160 10 -269 116 -269 281
c7 179 114 312 279 312c112 -9 213 -84 245 -265l-433 -28c0 -95 65 -153 206 -168zM432 513c-102 -7 -175 -83 -175 -149l320 31c-10 61 -41 125 -145 118z" />
    <glyph glyph-name="ecircumflex" unicode="&#xea;" horiz-adv-x="830" 
d="M399 902h48l39 -64l132 -131h-54l-145 99l-143 -99h-54l133 131zM677 315l-433 -28c0 -95 65 -153 206 -168c74 -8 121 0 198 33v-124c-65 -28 -130 -42 -201 -42c-174 0 -294 109 -294 282c7 179 114 312 279 312c112 -9 213 -84 245 -265zM257 364l320 31
c-10 61 -41 125 -145 118c-102 -7 -175 -83 -175 -149z" />
    <glyph glyph-name="uni1EBF" unicode="&#x1ebf;" horiz-adv-x="830" 
d="M596 793l97 197h66l-66 -197h-97zM399 902h48l39 -64l132 -131h-54l-145 99l-143 -99h-54l133 131zM677 315l-433 -28c0 -95 65 -153 206 -168c74 -8 121 0 198 33v-124c-65 -28 -130 -42 -201 -42c-174 0 -294 109 -294 282c7 179 114 312 279 312
c112 -9 213 -84 245 -265zM257 364l320 31c-10 61 -41 125 -145 118c-102 -7 -175 -83 -175 -149z" />
    <glyph glyph-name="uni1EC7" unicode="&#x1ec7;" horiz-adv-x="830" 
d="M406 953h48l39 -64l132 -131h-54l-145 99l-143 -99h-54l133 131zM677 315l-433 -28c0 -95 65 -153 206 -168c74 -8 121 0 198 33v-124c-65 -28 -130 -42 -201 -42c-174 0 -294 109 -294 282c7 179 114 312 279 312c112 -9 213 -84 245 -265zM257 364l320 31
c-10 61 -41 125 -145 118c-102 -7 -175 -83 -175 -149zM343 -292v165h165v-165h-165z" />
    <glyph glyph-name="uni1EC1" unicode="&#x1ec1;" horiz-adv-x="830" 
d="M666 889l-140 135h95l207 -153zM399 902h48l39 -64l132 -131h-54l-145 99l-143 -99h-54l133 131zM677 315l-433 -28c0 -95 65 -153 206 -168c74 -8 121 0 198 33v-124c-65 -28 -130 -42 -201 -42c-174 0 -294 109 -294 282c7 179 114 312 279 312
c112 -9 213 -84 245 -265zM257 364l320 31c-10 61 -41 125 -145 118c-102 -7 -175 -83 -175 -149z" />
    <glyph glyph-name="uni1EC3" unicode="&#x1ec3;" horiz-adv-x="830" 
d="M572 879v5c0 11 1 23 4 29c7 10 16 19 30 28l22 19c12 8 20 18 20 31c0 11 -17 26 -61 26c-28 0 -54 -9 -84 -25v39c35 16 67 22 97 22c31 0 55 -6 74 -17c17 -13 30 -31 30 -48c0 -20 -13 -41 -41 -58l-20 -14c-11 -7 -14 -12 -15 -14c-4 -7 -5 -14 -5 -23h-51zM400 908
h48l39 -64l132 -131h-54l-145 99l-143 -99h-54l133 131zM677 315l-433 -28c0 -95 65 -153 206 -168c74 -8 121 0 198 33v-124c-65 -28 -130 -42 -201 -42c-174 0 -294 109 -294 282c7 179 114 312 279 312c112 -9 213 -84 245 -265zM257 364l320 31c-10 61 -41 125 -145 118
c-102 -7 -175 -83 -175 -149z" />
    <glyph glyph-name="uni1EC5" unicode="&#x1ec5;" horiz-adv-x="830" 
d="M309 951h-62c9 132 26 170 106 170c75 0 94 -113 144 -113c56 0 44 57 46 113h52c-2 -165 -36 -171 -97 -170c-82 1 -103 118 -145 119c-44 1 -44 -70 -44 -119zM400 916h48l39 -64l132 -131h-54l-145 99l-143 -99h-54l133 131zM677 315l-433 -28c0 -95 65 -153 206 -168
c74 -8 121 0 198 33v-124c-65 -28 -130 -42 -201 -42c-174 0 -294 109 -294 282c7 179 114 312 279 312c112 -9 213 -84 245 -265zM257 364l320 31c-10 61 -41 125 -145 118c-102 -7 -175 -83 -175 -149z" />
    <glyph glyph-name="edieresis" unicode="&#xeb;" horiz-adv-x="830" 
d="M203 753v165h165v-165h-165zM475 753v165h165v-165h-165zM677 315l-433 -28c0 -95 65 -153 206 -168c74 -8 121 0 198 33v-124c-65 -28 -130 -42 -201 -42c-174 0 -294 109 -294 282c7 179 114 312 279 312c112 -9 213 -84 245 -265zM257 364l320 31
c-10 61 -41 125 -145 118c-102 -7 -175 -83 -175 -149z" />
    <glyph glyph-name="edotaccent" unicode="&#x117;" horiz-adv-x="830" 
d="M334 793v165h165v-165h-165zM677 315l-433 -28c0 -95 65 -153 206 -168c74 -8 121 0 198 33v-124c-65 -28 -130 -42 -201 -42c-174 0 -294 109 -294 282c7 179 114 312 279 312c112 -9 213 -84 245 -265zM257 364l320 31c-10 61 -41 125 -145 118
c-102 -7 -175 -83 -175 -149z" />
    <glyph glyph-name="uni1EB9" unicode="&#x1eb9;" horiz-adv-x="830" 
d="M677 315l-433 -28c0 -95 65 -153 206 -168c74 -8 121 0 198 33v-124c-65 -28 -130 -42 -201 -42c-174 0 -294 109 -294 282c7 179 114 312 279 312c112 -9 213 -84 245 -265zM257 364l320 31c-10 61 -41 125 -145 118c-102 -7 -175 -83 -175 -149zM343 -292v165h165v-165
h-165z" />
    <glyph glyph-name="egrave" unicode="&#xe8;" horiz-adv-x="830" 
d="M363 761l-140 135h95l207 -153zM677 315l-433 -28c0 -95 65 -153 206 -168c74 -8 121 0 198 33v-124c-65 -28 -130 -42 -201 -42c-174 0 -294 109 -294 282c7 179 114 312 279 312c112 -9 213 -84 245 -265zM257 364l320 31c-10 61 -41 125 -145 118
c-102 -7 -175 -83 -175 -149z" />
    <glyph glyph-name="uni1EBB" unicode="&#x1ebb;" horiz-adv-x="830" 
d="M398 776v5c0 11 1 23 4 29c7 10 16 19 30 28l22 19c12 8 20 18 20 31c0 11 -17 26 -61 26c-28 0 -54 -9 -84 -25v39c35 16 67 22 97 22c31 0 55 -6 74 -17c17 -13 30 -31 30 -48c0 -20 -13 -41 -41 -58l-20 -14c-11 -7 -14 -12 -15 -14c-4 -7 -5 -14 -5 -23h-51zM677 315
l-433 -28c0 -95 65 -153 206 -168c74 -8 121 0 198 33v-124c-65 -28 -130 -42 -201 -42c-174 0 -294 109 -294 282c7 179 114 312 279 312c112 -9 213 -84 245 -265zM257 364l320 31c-10 61 -41 125 -145 118c-102 -7 -175 -83 -175 -149z" />
    <glyph glyph-name="emacron" unicode="&#x113;" horiz-adv-x="830" 
d="M227 938l386 24l29 -77l-446 -17zM677 315l-433 -28c0 -95 65 -153 206 -168c74 -8 121 0 198 33v-124c-65 -28 -130 -42 -201 -42c-174 0 -294 109 -294 282c7 179 114 312 279 312c112 -9 213 -84 245 -265zM257 364l320 31c-10 61 -41 125 -145 118
c-102 -7 -175 -83 -175 -149z" />
    <glyph glyph-name="uni1E17" unicode="&#x1e17;" horiz-adv-x="830" 
d="M360 1137l97 197h66l-66 -197h-97zM227 938l386 24l29 -77l-446 -17zM677 315l-433 -28c0 -95 65 -153 206 -168c74 -8 121 0 198 33v-124c-65 -28 -130 -42 -201 -42c-174 0 -294 109 -294 282c7 179 114 312 279 312c112 -9 213 -84 245 -265zM257 364l320 31
c-10 61 -41 125 -145 118c-102 -7 -175 -83 -175 -149z" />
    <glyph glyph-name="uni1E15" unicode="&#x1e15;" horiz-adv-x="830" 
d="M364 1136l-140 135h95l207 -153zM227 938l386 24l29 -77l-446 -17zM677 315l-433 -28c0 -95 65 -153 206 -168c74 -8 121 0 198 33v-124c-65 -28 -130 -42 -201 -42c-174 0 -294 109 -294 282c7 179 114 312 279 312c112 -9 213 -84 245 -265zM257 364l320 31
c-10 61 -41 125 -145 118c-102 -7 -175 -83 -175 -149z" />
    <glyph glyph-name="eogonek" unicode="&#x119;" horiz-adv-x="830" 
d="M450 119c74 -8 121 0 198 33v-124c-57 -25 -115 -39 -177 -41c4 -1 8 -1 11 -1c-67 -61 -101 -104 -101 -130c0 -20 20 -31 61 -31c15 0 34 2 55 5c3 -20 8 -53 11 -70c-115 -2 -183 30 -183 86c0 38 31 86 100 141c-162 8 -272 115 -272 281c7 179 114 312 279 312
c112 -9 213 -84 245 -265l-433 -28c0 -95 65 -153 206 -168zM432 513c-102 -7 -175 -83 -175 -149l320 31c-10 61 -41 125 -145 118z" />
    <glyph glyph-name="uni025B" unicode="&#x25b;" horiz-adv-x="492" 
d="M253 -12c-92 0 -173 52 -173 159c0 63 23 105 102 116c-64 23 -91 55 -91 109c0 79 63 128 165 128c40 0 127 -24 127 -112l-45 -9c1 59 -39 77 -75 77c-68 0 -124 -25 -124 -79c0 -63 47 -82 113 -82h23l12 -53h-22c-74 1 -113 -32 -113 -77s26 -85 94 -86
c49 -1 100 0 74 103l80 7c58 -172 -105 -201 -147 -201z" />
    <glyph glyph-name="uni025C" unicode="&#x25c;" horiz-adv-x="492" 
d="M239 -12c-42 0 -205 29 -147 201l80 -7c-26 -103 25 -104 74 -103c68 1 94 41 94 86s-39 78 -113 77h-22l12 53h23c66 0 113 19 113 82c0 54 -56 79 -124 79c-36 0 -76 -18 -75 -77l-45 9c0 88 87 112 127 112c102 0 165 -49 165 -128c0 -54 -27 -86 -91 -109
c79 -11 102 -53 102 -116c0 -107 -81 -159 -173 -159z" />
    <glyph glyph-name="uni025E" unicode="&#x25e;" horiz-adv-x="580" 
d="M80 249c0 120 46 251 244 251c102 0 165 -49 165 -128c0 -54 -4 -82 -91 -109c79 -11 102 -53 102 -116c0 -107 -81 -163 -173 -159c-178 8 -247 131 -247 261zM142 252c0 -58 42 -173 192 -173c68 0 94 41 94 86s-39 78 -113 77h-22l12 53h23c66 0 113 19 113 82
c0 54 -56 79 -124 79c-126 0 -175 -110 -175 -204z" />
    <glyph glyph-name="uni025D" unicode="&#x25d;" horiz-adv-x="492" 
d="M491 184c4 -28 5 -38 5 -55c-60 0 -76 48 -76 90v31l-52 -5c33 -21 44 -54 44 -98c0 -107 -81 -159 -173 -159c-42 0 -205 29 -147 201l80 -7c-26 -103 25 -104 74 -103c68 1 94 41 94 86s-39 78 -113 77h-22l12 53h23c66 0 113 19 113 82c0 54 -56 79 -124 79
c-36 0 -76 -18 -75 -77l-45 9c0 88 87 112 127 112c102 0 165 -49 165 -128c0 -36 -12 -63 -40 -83l89 7c0 -17 0 -49 3 -66c4 -25 6 -46 38 -46zM310 263h3v1c-1 0 -2 -1 -3 -1z" />
    <glyph glyph-name="uni0258" unicode="&#x258;" horiz-adv-x="830" 
d="M153 315c32 181 133 256 245 265c165 0 272 -133 279 -312c0 -173 -120 -282 -294 -282c-71 0 -136 14 -201 42v124c77 -33 124 -41 198 -33c141 15 206 73 206 168zM573 364c0 66 -73 142 -175 149c-104 7 -135 -57 -145 -118z" />
    <glyph glyph-name="uni0283" unicode="&#x283;" horiz-adv-x="859" 
d="M824 866v-80c-28 22 -56 32 -89 32c-71 0 -114 -43 -130 -140l-42 -262l-36 -268c-49 -365 -143 -356 -272 -356c-42 0 -165 32 -220 124l141 74c37 -24 72 -36 107 -36c71 0 108 45 132 167l43 295l44 261c23 134 102 209 213 209c39 0 76 -7 109 -20z" />
    <glyph glyph-name="uni1EBD" unicode="&#x1ebd;" horiz-adv-x="830" 
d="M304 851h-62c9 132 26 170 106 170c75 0 94 -113 144 -113c56 0 44 57 46 113h52c-2 -165 -36 -171 -97 -170c-82 1 -103 118 -145 119c-44 1 -44 -70 -44 -119zM677 315l-433 -28c0 -95 65 -153 206 -168c74 -8 121 0 198 33v-124c-65 -28 -130 -42 -201 -42
c-174 0 -294 109 -294 282c7 179 114 312 279 312c112 -9 213 -84 245 -265zM257 364l320 31c-10 61 -41 125 -145 118c-102 -7 -175 -83 -175 -149z" />
    <glyph glyph-name="uni01DD" unicode="&#x1dd;" horiz-adv-x="764" 
d="M120 220l433 26c0 95 -65 153 -205 169c-74 8 -121 0 -199 -32l1 124c65 27 130 41 201 41c174 -1 294 -110 293 -283c-8 -179 -115 -312 -280 -311c-112 9 -213 85 -244 266zM540 169l-321 -30c10 -61 41 -125 145 -118c102 6 175 82 176 148z" />
    <glyph glyph-name="uni0259" unicode="&#x259;" horiz-adv-x="830" 
d="M153 245l433 28c0 95 -65 153 -206 168c-74 8 -121 0 -198 -33v124c65 28 130 42 201 42c174 0 294 -109 294 -282c-7 -179 -114 -312 -279 -312c-112 9 -213 84 -245 265zM573 196l-320 -31c10 -61 41 -125 145 -118c102 7 175 83 175 149z" />
    <glyph glyph-name="uni025A" unicode="&#x25a;" horiz-adv-x="830" 
d="M777 154c4 -28 5 -38 5 -55c-60 0 -76 48 -76 90v31l-38 -4c-31 -139 -129 -236 -270 -236c-112 9 -213 84 -245 265l433 28c0 95 -65 153 -206 168c-74 8 -121 0 -198 -33v124c65 28 130 42 201 42c174 0 294 -109 294 -282c0 -10 -1 -21 -2 -31l61 5c0 -17 0 -49 3 -66
c4 -25 6 -46 38 -46zM398 47c102 7 175 83 175 149l-320 -31c10 -61 41 -125 145 -118z" />
    <glyph glyph-name="uni0292" unicode="&#x292;" horiz-adv-x="726" 
d="M389 314c120 -9 226 -111 234 -207c14 -164 -24 -307 -238 -307c-33 0 -158 -2 -285 123l127 104c141 -138 274 -50 271 99c-7 79 -121 119 -261 106v93c112 105 167 143 261 248c-113 -1 -248 -1 -395 0v94c98 0 395 4 475 0c12 -69 10 -69 18 -140
c-90 -100 -115 -121 -207 -213z" />
    <glyph glyph-name="uni01EF" unicode="&#x1ef;" horiz-adv-x="726" 
d="M334 782l-44 64l-133 131h54l143 -99l145 99h54l-132 -131l-39 -64h-48zM389 314c120 -9 226 -111 234 -207c14 -164 -24 -307 -238 -307c-33 0 -158 -2 -285 123l127 104c141 -138 274 -50 271 99c-7 79 -121 119 -261 106v93c112 105 167 143 261 248
c-113 -1 -248 -1 -395 0v94c98 0 395 4 475 0c12 -69 10 -69 18 -140c-90 -100 -115 -121 -207 -213z" />
    <glyph glyph-name="f" unicode="f" horiz-adv-x="630" 
d="M219 0l15 458h-81v89h81c0 214 51 248 154 248h80v-75h-81c-89 0 -74 -136 -65 -175l155 2v-89h-143l15 -458h-130z" />
    <glyph glyph-name="uni1E1F" unicode="&#x1e1f;" horiz-adv-x="630" 
d="M230 958v165h165v-165h-165zM219 0l15 458h-81v89h81c0 214 51 248 154 248h80v-75h-81c-89 0 -74 -136 -65 -175l155 2v-89h-143l15 -458h-130z" />
    <glyph glyph-name="uni02A9" unicode="&#x2a9;" horiz-adv-x="931" 
d="M924 -6h-1c-2 -79 -16 -113 -31 -128c-25 -27 -195 -41 -237 -25c3 10 17 70 20 82h47c62 0 62 22 62 103c0 2 1 4 2 6l10 291c3 97 -27 143 -107 143c-110 0 -144 -78 -140 -168l14 -304h-148l34 464h-115l15 -458h-130l15 458h-81v89h81c0 214 51 248 154 248h80v-75
h-81c-89 0 -74 -136 -65 -175l155 2v-7h44l17 -44c47 22 85 55 161 55c125 0 193 -90 203 -234l17 -252c2 -2 3 -4 3 -6c1 -18 1 -34 1 -49z" />
    <glyph glyph-name="uni1D6E" unicode="&#x1d6e;" horiz-adv-x="630" 
d="M477 458h-143l7 -215c6 -4 12 -6 19 -6c56 0 44 57 46 113h52c-2 -165 -36 -171 -97 -170c-6 0 -12 1 -18 2l6 -182h-130l10 295c-4 3 -9 4 -13 4c-44 1 -44 -70 -44 -119h-62c9 132 26 170 106 170c5 0 10 -1 14 -1l4 109h-81v89h81c0 214 51 248 154 248h80v-75h-81
c-89 0 -74 -136 -65 -175l155 2v-89z" />
    <glyph glyph-name="g" unicode="g" horiz-adv-x="805" 
d="M374 -261c-63 0 -140 16 -202 47l37 132c53 -29 104 -49 157 -42c78 10 136 75 159 140l12 46c-50 -45 -100 -72 -160 -72c-134 0 -224 121 -224 290s90 280 224 280c80 0 109 -42 164 -83l21 70h90l-21 -478c-10 -221 -86 -330 -257 -330zM353 146c97 0 160 26 160 129
c0 98 -56 185 -153 185c-96 0 -118 -87 -125 -175c-9 -113 21 -139 118 -139z" />
    <glyph glyph-name="uni01F5" unicode="&#x1f5;" horiz-adv-x="805" 
d="M353 675l97 197h66l-66 -197h-97zM374 -261c-63 0 -140 16 -202 47l37 132c53 -29 104 -49 157 -42c78 10 136 75 159 140l12 46c-50 -45 -100 -72 -160 -72c-134 0 -224 121 -224 290s90 280 224 280c80 0 109 -42 164 -83l21 70h90l-21 -478
c-10 -221 -86 -330 -257 -330zM353 146c97 0 160 26 160 129c0 98 -56 185 -153 185c-96 0 -118 -87 -125 -175c-9 -113 21 -139 118 -139z" />
    <glyph glyph-name="uni0263" unicode="&#x263;" horiz-adv-x="704" 
d="M549 515l75 -67c-7 -9 -10 -15 -17 -21c-82 -76 -148 -143 -200 -202c191 -256 193 -424 -56 -422c-297 3 -247 168 -52 418c-50 61 -116 132 -202 214c-8 7 -7 8 -17 20l73 60c12 -15 17 -22 29 -34c66 -67 124 -130 174 -190c50 61 107 126 169 194c9 10 15 20 24 30z
M348 -100c88 -2 133 70 2 255c-128 -169 -111 -252 -2 -255z" />
    <glyph glyph-name="gbreve" unicode="&#x11f;" horiz-adv-x="805" 
d="M408 713c-107 0 -192 74 -192 197h65c0 -88 48 -102 127 -102c93 0 136 15 136 102h65c0 -123 -95 -197 -201 -197zM562 547h90l-21 -478c-10 -221 -86 -330 -257 -330c-63 0 -140 16 -202 47l37 132c53 -29 104 -49 157 -42c78 10 136 75 159 140l12 46
c-50 -45 -100 -72 -160 -72c-134 0 -224 121 -224 290s90 280 224 280c80 0 109 -42 164 -83zM353 146c97 0 160 26 160 129c0 98 -56 185 -153 185c-96 0 -118 -87 -125 -175c-9 -113 21 -139 118 -139z" />
    <glyph glyph-name="gcaron" unicode="&#x1e7;" horiz-adv-x="805" 
d="M390 716l-44 64l-133 131h54l143 -99l145 99h54l-132 -131l-39 -64h-48zM374 -261c-63 0 -140 16 -202 47l37 132c53 -29 104 -49 157 -42c78 10 136 75 159 140l12 46c-50 -45 -100 -72 -160 -72c-134 0 -224 121 -224 290s90 280 224 280c80 0 109 -42 164 -83l21 70
h90l-21 -478c-10 -221 -86 -330 -257 -330zM353 146c97 0 160 26 160 129c0 98 -56 185 -153 185c-96 0 -118 -87 -125 -175c-9 -113 21 -139 118 -139z" />
    <glyph glyph-name="uni0123" unicode="&#x123;" horiz-adv-x="805" 
d="M462 713h-152l51 142h-8l16 139h171zM562 547h90l-21 -478c-10 -221 -86 -330 -257 -330c-63 0 -140 16 -202 47l37 132c53 -29 104 -49 157 -42c78 10 136 75 159 140l12 46c-50 -45 -100 -72 -160 -72c-134 0 -224 121 -224 290s90 280 224 280c80 0 109 -42 164 -83z
M353 146c97 0 160 26 160 129c0 98 -56 185 -153 185c-96 0 -118 -87 -125 -175c-9 -113 21 -139 118 -139z" />
    <glyph glyph-name="gdotaccent" unicode="&#x121;" horiz-adv-x="805" 
d="M328 706v165h165v-165h-165zM374 -261c-63 0 -140 16 -202 47l37 132c53 -29 104 -49 157 -42c78 10 136 75 159 140l12 46c-50 -45 -100 -72 -160 -72c-134 0 -224 121 -224 290s90 280 224 280c80 0 109 -42 164 -83l21 70h90l-21 -478c-10 -221 -86 -330 -257 -330z
M353 146c97 0 160 26 160 129c0 98 -56 185 -153 185c-96 0 -118 -87 -125 -175c-9 -113 21 -139 118 -139z" />
    <glyph glyph-name="uni0260" unicode="&#x260;" horiz-adv-x="805" 
d="M571 707c10 111 36 116 172 108l-4 -85c-74 4 -77 1 -80 -47c0 -11 -1 -21 -1 -31l-1 -19c0 -7 -1 -13 -1 -19l-6 -110l-19 -435c-10 -221 -86 -330 -257 -330c-63 0 -140 16 -202 47l37 132c53 -29 104 -49 157 -42c78 10 136 75 159 140l12 46
c-50 -45 -100 -72 -160 -72c-134 0 -224 121 -224 290s90 280 224 280c80 0 109 -42 164 -83l19 63l3 63c1 13 1 23 2 31l1 23c1 14 2 21 5 50zM353 146c97 0 160 26 160 129c0 98 -56 185 -153 185c-96 0 -118 -87 -125 -175c-9 -113 21 -139 118 -139z" />
    <glyph glyph-name="uni0294" unicode="&#x294;" horiz-adv-x="478" 
d="M163 32l1 271c0 65 4 80 33 127c33 51 153 70 153 150c0 60 -23 102 -74 112c-75 16 -124 4 -124 -71h-93c0 131 159 159 231 142c94 -21 125 -89 129 -171c6 -175 -157 -184 -157 -229s-2 -264 -2 -298c0 -8 -50 -21 -97 -33z" />
    <glyph glyph-name="uni0295" unicode="&#x295;" horiz-adv-x="540" 
d="M356 36c-53 14 -110 28 -110 37c0 39 -2 286 -2 337s-184 61 -177 259c4 93 39 169 145 193c82 19 261 -12 261 -160h-105c0 84 -55 98 -140 80c-58 -11 -83 -59 -83 -127c0 -90 135 -111 172 -169c33 -53 38 -70 38 -144z" />
    <glyph glyph-name="uni0242" unicode="&#x242;" horiz-adv-x="478" 
d="M156 220c0 64 12 156 41 202c33 51 153 70 153 151c0 59 -23 101 -74 111c-75 15 -124 5 -124 -71h-93c0 131 159 160 231 143c94 -22 125 -90 129 -171c6 -175 -157 -184 -157 -229c0 -46 7 -93 4 -136h-110z" />
    <glyph glyph-name="uni02A1" unicode="&#x2a1;" horiz-adv-x="540" 
d="M473 669c7 -198 -177 -208 -177 -259c0 -19 0 -65 -1 -118h101v-100h-101c-1 -56 -1 -104 -1 -119c0 -9 -57 -23 -110 -37c0 22 0 89 1 156h-116v100h116v50c0 74 5 91 38 144c37 58 172 79 172 169c0 68 -25 116 -83 127c-85 18 -140 4 -140 -80h-105
c0 148 179 179 261 160c106 -24 141 -100 145 -193z" />
    <glyph glyph-name="uni02A2" unicode="&#x2a2;" horiz-adv-x="610" 
d="M401 387v-57h131v-113h-131c1 -76 1 -151 1 -176c-60 15 -124 32 -124 42c0 17 0 71 -1 134h-114v113h113c-1 60 -1 112 -1 134c0 57 -208 68 -200 292c5 105 45 191 165 218c92 22 295 -14 295 -181h-119c0 96 -63 111 -158 91c-66 -13 -95 -67 -95 -143
c0 -103 153 -127 195 -192c37 -60 43 -79 43 -162z" />
    <glyph glyph-name="uni0261" unicode="&#x261;" horiz-adv-x="805" 
d="M374 -261c-63 0 -140 16 -202 47l37 132c53 -29 104 -49 157 -42c78 10 136 75 159 140l12 46c-50 -45 -100 -72 -160 -72c-134 0 -224 121 -224 290s90 280 224 280c80 0 109 -42 164 -83l21 70h90l-21 -478c-10 -221 -86 -330 -257 -330zM353 146c97 0 160 26 160 129
c0 98 -56 185 -153 185c-96 0 -118 -87 -125 -175c-9 -113 21 -139 118 -139z" />
    <glyph glyph-name="uni01E5" unicode="&#x1e5;" horiz-adv-x="805" 
d="M827 312v-65h-188l-8 -178c-10 -221 -86 -330 -257 -330c-63 0 -140 16 -202 47l37 132c53 -29 104 -49 157 -42c78 10 136 75 159 140l12 46c-50 -45 -100 -72 -160 -72c-134 0 -224 121 -224 290s90 280 224 280c80 0 109 -42 164 -83l21 70h90l-10 -235h185zM353 146
c88 0 147 21 158 101h-220v65h219c-12 82 -65 148 -150 148c-96 0 -118 -87 -125 -175c-9 -113 21 -139 118 -139z" />
    <glyph glyph-name="h" unicode="h" horiz-adv-x="822" 
d="M648 330l21 -330h-138c54 325 45 446 -94 446c-119 0 -190 -81 -136 -446h-148l61 850h90l-23 -364c69 54 90 68 176 62c85 -6 179 -26 191 -218z" />
    <glyph glyph-name="hbar" unicode="&#x127;" horiz-adv-x="666" 
d="M669 0h-138c54 325 45 446 -94 446c-119 0 -190 -81 -136 -446h-148l47 659l-156 -15v65l161 15l9 126h90l-7 -117l145 14v-65l-150 -14l-11 -182c69 54 90 68 176 62c85 -6 179 -26 191 -218z" />
    <glyph glyph-name="uni021F" unicode="&#x21f;" horiz-adv-x="822" 
d="M237 929l-44 64l-133 131h54l143 -99l145 99h54l-132 -131l-39 -64h-48zM648 330l21 -330h-138c54 325 45 446 -94 446c-119 0 -190 -81 -136 -446h-148l61 850h90l-23 -364c69 54 90 68 176 62c85 -6 179 -26 191 -218z" />
    <glyph glyph-name="uni1E29" unicode="&#x1e29;" horiz-adv-x="822" 
d="M669 0h-138c54 325 45 446 -94 446c-119 0 -190 -81 -136 -446h-61l-32 -87h35c44 0 113 -18 102 -86c-9 -55 -53 -88 -118 -88h-70l13 60c26 -6 35 -6 59 -6c41 0 74 22 74 40c0 50 -43 52 -71 52c-19 0 -42 -2 -69 -6l41 121h-51l61 850h90l-23 -364
c69 54 90 68 176 62c85 -6 179 -26 191 -218z" />
    <glyph glyph-name="hcircumflex" unicode="&#x125;" horiz-adv-x="822" 
d="M247 1079h48l39 -64l132 -131h-54l-145 99l-143 -99h-54l133 131zM648 330l21 -330h-138c54 325 45 446 -94 446c-119 0 -190 -81 -136 -446h-148l61 850h90l-23 -364c69 54 90 68 176 62c85 -6 179 -26 191 -218z" />
    <glyph glyph-name="uni1E25" unicode="&#x1e25;" horiz-adv-x="822" 
d="M648 330l21 -330h-138c54 325 45 446 -94 446c-119 0 -190 -81 -136 -446h-148l61 850h90l-23 -364c69 54 90 68 176 62c85 -6 179 -26 191 -218zM321 -298v165h165v-165h-165z" />
    <glyph glyph-name="uni0267" unicode="&#x267;" horiz-adv-x="822" 
d="M661 167c0 -39 44 -108 44 -134c0 -97 -129 -195 -255 -195c1 64 2 93 8 156c35 0 61 16 78 40c48 299 35 412 -99 412c-119 0 -190 -81 -136 -446h-148l60 836v11c0 14 1 21 2 50c4 112 30 118 165 117v-85c-73 0 -76 -3 -76 -51v-31v-54v-289c52 39 77 49 153 44
c85 -6 179 -26 191 -218l10 -159z" />
    <glyph glyph-name="uni0266" unicode="&#x266;" horiz-adv-x="822" 
d="M669 0h-138c54 325 45 446 -94 446c-119 0 -190 -81 -136 -446h-148l60 836v11c0 14 1 21 2 50c4 112 30 118 165 117v-85c-73 0 -76 -3 -76 -51v-31v-54v-289c52 39 77 49 153 44c85 -6 179 -26 191 -218z" />
    <glyph glyph-name="uni0265" unicode="&#x265;" horiz-adv-x="822" 
d="M174 230l-21 330h138c-54 -325 -45 -446 94 -446c119 0 190 81 136 446h148l-61 -850h-90l23 364c-69 -54 -90 -68 -176 -62c-85 6 -179 26 -191 218z" />
    <glyph glyph-name="i" unicode="i" horiz-adv-x="428" 
d="M167 646l15 114h60l15 -114h-90zM142 0c13 192 29 329 29 551h80c-7 -165 -7 -359 23 -551h-132z" />
    <glyph glyph-name="dotlessi" unicode="&#x131;" horiz-adv-x="282" 
d="M67 0c13 192 29 329 29 551h80c-7 -165 -7 -359 23 -551h-132z" />
    <glyph glyph-name="iacute" unicode="&#xed;" horiz-adv-x="282" 
d="M77 678l97 197h66l-66 -197h-97zM67 0c13 192 29 329 29 551h80c-7 -165 -7 -359 23 -551h-132z" />
    <glyph glyph-name="uni01D0" unicode="&#x1d0;" horiz-adv-x="282" 
d="M114 719l-44 64l-133 131h54l143 -99l145 99h54l-132 -131l-39 -64h-48zM67 0c13 192 29 329 29 551h80c-7 -165 -7 -359 23 -551h-132z" />
    <glyph glyph-name="icircumflex" unicode="&#xee;" horiz-adv-x="282" 
d="M124 869h48l39 -64l132 -131h-54l-145 99l-143 -99h-54l133 131zM67 0c13 192 29 329 29 551h80c-7 -165 -7 -359 23 -551h-132z" />
    <glyph glyph-name="idieresis" unicode="&#xef;" horiz-adv-x="282" 
d="M-86 680v165h165v-165h-165zM186 680v165h165v-165h-165zM67 0c13 192 29 329 29 551h80c-7 -165 -7 -359 23 -551h-132z" />
    <glyph glyph-name="uni1E2F" unicode="&#x1e2f;" horiz-adv-x="282" 
d="M81 914l97 197h66l-66 -197h-97zM-86 680v165h165v-165h-165zM186 680v165h165v-165h-165zM67 0c13 192 29 329 29 551h80c-7 -165 -7 -359 23 -551h-132z" />
    <glyph glyph-name="i.loclTRK" horiz-adv-x="282" 
d="M52 709v165h165v-165h-165zM67 0c13 192 29 329 29 551h80c-7 -165 -7 -359 23 -551h-132z" />
    <glyph glyph-name="uni1ECB" unicode="&#x1ecb;" horiz-adv-x="428" 
d="M167 646l15 114h60l15 -114h-90zM142 0c13 192 29 329 29 551h80c-7 -165 -7 -359 23 -551h-132zM124 -252v165h165v-165h-165z" />
    <glyph glyph-name="igrave" unicode="&#xec;" horiz-adv-x="282" 
d="M81 677l-140 135h95l207 -153zM67 0c13 192 29 329 29 551h80c-7 -165 -7 -359 23 -551h-132z" />
    <glyph glyph-name="uni1EC9" unicode="&#x1ec9;" horiz-adv-x="282" 
d="M116 692v5c0 11 1 23 4 29c7 10 16 19 30 28l22 19c12 8 20 18 20 31c0 11 -17 26 -61 26c-28 0 -54 -9 -84 -25v39c35 16 67 22 97 22c31 0 55 -6 74 -17c17 -13 30 -31 30 -48c0 -20 -13 -41 -41 -58l-20 -14c-11 -7 -14 -12 -15 -14c-4 -7 -5 -14 -5 -23h-51zM67 0
c13 192 29 329 29 551h80c-7 -165 -7 -359 23 -551h-132z" />
    <glyph glyph-name="ij" unicode="&#x133;" horiz-adv-x="732" 
d="M538 645v148h148v-148h-148zM167 646l15 114h60l15 -114h-90zM142 0c13 192 29 329 29 551h80c-7 -165 -7 -359 23 -551h-132zM550 -51c17 59 17 193 28 595h95l-30 -571c-6 -107 -22 -149 -57 -176c-33 -26 -168 -46 -253 -29l46 94c50 -9 144 -4 171 87z" />
    <glyph glyph-name="imacron" unicode="&#x12b;" horiz-adv-x="282" 
d="M-55 854l386 24l29 -77l-446 -17zM67 0c13 192 29 329 29 551h80c-7 -165 -7 -359 23 -551h-132z" />
    <glyph glyph-name="iogonek" unicode="&#x12f;" horiz-adv-x="428" 
d="M242 760l15 -114h-90l15 114h60zM278 -130c3 -20 8 -53 11 -70c-115 -2 -183 30 -183 86c0 32 21 70 69 114h-33c13 192 29 329 29 551h80c-7 -165 -7 -359 23 -551h-39c-48 -47 -73 -82 -73 -104c0 -20 20 -31 61 -31c15 0 34 2 55 5z" />
    <glyph glyph-name="uni0269" unicode="&#x269;" horiz-adv-x="334" 
d="M247 0c-153 0 -143 0 -167 44c22 219 5 345 5 462h80c-4 -94 1 -334 -1 -427c48 -23 54 -12 90 -12z" />
    <glyph glyph-name="uni0268" unicode="&#x268;" horiz-adv-x="428" 
d="M242 760l15 -114h-90l15 114h60zM442 333v-103h-191c4 -76 11 -153 23 -230h-132c6 83 12 156 17 230h-158v103h164c4 66 6 136 6 218h80c-3 -68 -5 -142 -3 -218h194z" />
    <glyph glyph-name="itilde" unicode="&#x129;" horiz-adv-x="282" 
d="M22 767h-62c9 132 26 170 106 170c75 0 94 -113 144 -113c56 0 44 57 46 113h52c-2 -165 -36 -171 -97 -170c-82 1 -103 118 -145 119c-44 1 -44 -70 -44 -119zM67 0c13 192 29 329 29 551h80c-7 -165 -7 -359 23 -551h-132z" />
    <glyph glyph-name="j" unicode="j" horiz-adv-x="414" 
d="M220 645v148h148v-148h-148zM232 -51c17 59 17 193 28 595h95l-30 -571c-6 -107 -22 -149 -57 -176c-33 -26 -168 -46 -253 -29l46 94c50 -9 144 -4 171 87z" />
    <glyph glyph-name="uni0237" unicode="&#x237;" horiz-adv-x="646" 
d="M370 -38c17 59 17 193 28 595h95l-30 -571c-6 -107 -22 -149 -57 -176c-33 -26 -168 -46 -253 -29l46 94c50 -9 144 -4 171 87z" />
    <glyph glyph-name="jcircumflex" unicode="&#x135;" horiz-adv-x="646" 
d="M427 849h48l39 -64l132 -131h-54l-145 99l-143 -99h-54l133 131zM370 -38c17 59 17 193 28 595h95l-30 -571c-6 -107 -22 -149 -57 -176c-33 -26 -168 -46 -253 -29l46 94c50 -9 144 -4 171 87z" />
    <glyph glyph-name="uni029D" unicode="&#x29d;" horiz-adv-x="646" 
d="M520 854v-165h-165v165h165zM468 89c74 -1 145 -4 216 -4v-110c-63 0 -147 4 -212 8c-16 -198 -33 -198 -171 -207c-71 -5 -118 -12 -148 5v0c-32 18 -43 63 -43 167c0 75 65 127 198 137c26 2 51 3 76 4c5 90 8 233 14 468h95zM332 -9c-140 -10 -156 -115 -45 -105
c29 2 69 39 89 102v4c-13 0 -27 0 -44 -1z" />
    <glyph glyph-name="uni025F" unicode="&#x25f;" horiz-adv-x="646" 
d="M659 317v-103h-184l-12 -228c-6 -107 -22 -149 -57 -176c-33 -26 -168 -46 -253 -29l46 94c50 -9 144 -4 171 87c11 37 15 105 19 252h-171v103h174c1 67 3 146 6 240h95l-13 -240h179z" />
    <glyph glyph-name="uni0284" unicode="&#x284;" horiz-adv-x="746" 
d="M596 317v-103h-133l-12 -228c-6 -107 -22 -149 -56 -176c-32 -26 -163 -46 -246 -29l45 94c48 -9 140 -4 166 87c11 37 15 105 19 252h-118v103h113l13 271h-1c3 64 3 49 7 95c9 101 37 106 182 101l-4 -77c-78 2 -81 0 -83 -44c-2 -26 -3 -49 -4 -77l-12 -269h124z" />
    <glyph glyph-name="k" unicode="k" horiz-adv-x="816" 
d="M153 0l42 793h100l-23 -442l135 169h118l-173 -221l311 -299h-205l-186 238l11 -238h-130z" />
    <glyph glyph-name="uni01E9" unicode="&#x1e9;" horiz-adv-x="816" 
d="M223 951l-44 64l-133 131h54l143 -99l145 99h54l-132 -131l-39 -64h-48zM153 0l42 793h100l-23 -442l135 169h118l-173 -221l311 -299h-205l-186 238l11 -238h-130z" />
    <glyph glyph-name="uni0137" unicode="&#x137;" horiz-adv-x="816" 
d="M352 299l311 -299h-205l-186 238l11 -238h-130l42 793h100l-23 -442l135 169h118zM445 -158l-78 -281h-152l51 142h-8l16 139h171z" />
    <glyph glyph-name="kgreenlandic" unicode="&#x138;" horiz-adv-x="641" 
d="M119 0l46 531h62l-9 -248l147 248h90l-172 -285l239 -246h-165l-139 206l-8 -206h-91z" />
    <glyph glyph-name="uni0199" unicode="&#x199;" horiz-adv-x="816" 
d="M663 0h-205l-186 238l11 -238h-130l42 793h10c8 81 39 86 152 85v-85c-36 0 -54 -1 -62 -9l-9 -164v-251l121 151h118l-173 -221z" />
    <glyph glyph-name="uni029E" unicode="&#x29e;" horiz-adv-x="660" 
d="M507 504l-42 -793h-100l23 442l-135 -169h-118l173 221l-311 299h205l186 -238l-11 238h130z" />
    <glyph glyph-name="l" unicode="l" horiz-adv-x="540" 
d="M157 0c-12 111 1 506 42 784h85c-27 -240 -42 -430 -32 -673h119l16 -111h-230z" />
    <glyph glyph-name="lacute" unicode="&#x13a;" horiz-adv-x="540" 
d="M203 883l97 197h66l-66 -197h-97zM157 0c-12 111 1 506 42 784h85c-27 -240 -42 -430 -32 -673h119l16 -111h-230z" />
    <glyph glyph-name="uni019A" unicode="&#x19a;" horiz-adv-x="540" 
d="M393 357l-143 1c-2 -79 -2 -159 2 -247h119l16 -111h-230c-6 59 -6 199 3 358l-113 1l3 91l115 -1c8 114 19 233 34 335h85c-13 -120 -24 -227 -30 -335l142 -1z" />
    <glyph glyph-name="uni026C" unicode="&#x26c;" horiz-adv-x="672" 
d="M592 290c-86 1 -160 3 -223 9v-188h115l16 -111h-230c-6 54 -6 174 1 316c-93 22 -151 64 -179 140c-25 68 -10 117 40 152c36 25 79 30 110 30c18 0 36 -4 51 -11c5 54 12 108 19 157h85c-12 -108 -22 -206 -28 -303v-1v-79c100 0 157 -3 223 -3v-108zM170 501
c0 -28 45 -68 106 -88c1 30 3 60 6 90c-13 28 -36 40 -55 40c-14 0 -30 -7 -46 -19c-8 -6 -11 -14 -11 -23z" />
    <glyph glyph-name="lcaron" unicode="&#x13e;" horiz-adv-x="540" 
d="M488 642h-95l28 213h79zM157 0c-12 111 1 506 42 784h85c-27 -240 -42 -430 -32 -673h119l16 -111h-230z" />
    <glyph glyph-name="uni1E3D" unicode="&#x1e3d;" horiz-adv-x="540" 
d="M157 0c-12 111 1 506 42 784h85c-27 -240 -42 -430 -32 -673h119l16 -111h-230zM251 -160h48l39 -64l132 -131h-54l-145 99l-143 -99h-54l133 131z" />
    <glyph glyph-name="uni013C" unicode="&#x13c;" horiz-adv-x="540" 
d="M387 0h-230c-12 111 1 506 42 784h85c-27 -240 -42 -430 -32 -673h119zM368 -122l-78 -281h-152l51 142h-8l16 139h171z" />
    <glyph glyph-name="ldot" unicode="&#x140;" horiz-adv-x="540" 
d="M157 0c-12 111 1 506 42 784h85c-27 -240 -42 -430 -32 -673h119l16 -111h-230zM371 433v165h165v-165h-165z" />
    <glyph glyph-name="uni1E37" unicode="&#x1e37;" horiz-adv-x="540" 
d="M157 0c-12 111 1 506 42 784h85c-27 -240 -42 -430 -32 -673h119l16 -111h-230zM185 -239v165h165v-165h-165z" />
    <glyph glyph-name="uni026E" unicode="&#x26e;" horiz-adv-x="1003" 
d="M800 49c14 -164 -24 -307 -238 -307c-33 0 -158 -2 -285 123l127 104c141 -138 274 -50 271 99c-7 79 -121 119 -261 106v93c112 105 167 143 261 248c-111 -1 -243 -1 -386 0l-19 -618h-70l26 850h70l-4 -138c108 0 386 4 463 0c12 -69 10 -69 18 -140
c-90 -100 -115 -121 -207 -213c120 -9 226 -111 234 -207z" />
    <glyph glyph-name="uni026D" unicode="&#x26d;" horiz-adv-x="555" 
d="M475 20c-11 -278 -103 -275 -336 -265c-47 2 -60 82 -57 190c8 282 39 663 57 839h85c-17 -147 -13 -634 -14 -839c-1 -108 152 -113 152 55z" />
    <glyph glyph-name="uni01C9" unicode="&#x1c9;" horiz-adv-x="787" 
d="M124 0c-12 111 1 506 42 784h85c-27 -240 -42 -430 -32 -673h119l16 -111h-230zM519 546v148h148v-148h-148zM531 -150c17 59 17 193 28 595h95l-30 -571c-6 -107 -22 -149 -57 -176c-33 -26 -168 -46 -253 -29l46 94c50 -9 144 -4 171 87z" />
    <glyph glyph-name="uni026B" unicode="&#x26b;" horiz-adv-x="540" 
d="M252 111h119l16 -111h-230c-7 68 -5 241 7 429c-5 3 -9 5 -14 5c-44 1 -44 -70 -44 -119h-62c9 132 26 170 106 170c6 0 12 -1 17 -2c8 103 18 209 32 301h85c-16 -138 -27 -259 -32 -384c13 -16 26 -28 42 -28c56 0 44 57 46 113h52c-2 -165 -36 -171 -97 -170
c-18 0 -33 6 -45 15c-2 -70 -1 -142 2 -219z" />
    <glyph glyph-name="uni02AA" unicode="&#x2aa;" horiz-adv-x="858" 
d="M655 335c165 -51 194 -93 194 -171c0 -138 -77 -169 -228 -169c-45 0 -79 2 -107 5h-357c-12 111 1 506 42 784h85c-27 -240 -42 -429 -32 -672h178l50 57c58 -22 82 -28 143 -33c35 -3 101 -7 101 50c0 32 -61 52 -131 66c-45 7 -167 37 -167 168c0 73 35 162 208 162
c67 0 127 -13 177 -24l-46 -60c-62 8 -85 6 -120 8c-129 0 -145 -37 -144 -82c1 -32 67 -62 154 -89z" />
    <glyph glyph-name="lslash" unicode="&#x142;" horiz-adv-x="390" 
d="M371 111l16 -111h-230c-8 74 -5 272 10 478l-45 -24l-116 23l167 77c7 80 15 159 26 230h85c-7 -66 -14 -128 -19 -188l45 21l73 -21l-124 -67c-10 -136 -13 -266 -7 -418h119z" />
    <glyph glyph-name="uni02AB" unicode="&#x2ab;" horiz-adv-x="858" 
d="M519 120h265l57 -121h-501v1h-183c-12 111 1 506 42 784h85c-9 -79 -17 -153 -22 -225h576l13 -90zM252 111h109l3 19l351 333h-460c-7 -113 -8 -225 -3 -352z" />
    <glyph glyph-name="m" unicode="m" horiz-adv-x="1170" 
d="M647 442c45 83 104 122 181 122c124 0 172 -104 178 -264l11 -300h-135l34 312c11 104 -22 153 -98 153c-94 0 -129 -76 -146 -186l-42 -279h-124l71 317c20 88 -37 154 -114 154c-92 0 -155 -93 -159 -148l-26 -323h-125l65 547h90l-10 -85c41 67 106 102 176 102
c80 0 146 -42 173 -122z" />
    <glyph glyph-name="uni1E3F" unicode="&#x1e3f;" horiz-adv-x="1170" 
d="M587 646l97 197h66l-66 -197h-97zM647 442c45 83 104 122 181 122c124 0 172 -104 178 -264l11 -300h-135l34 312c11 104 -22 153 -98 153c-94 0 -129 -76 -146 -186l-42 -279h-124l71 317c20 88 -37 154 -114 154c-92 0 -155 -93 -159 -148l-26 -323h-125l65 547h90
l-10 -85c41 67 106 102 176 102c80 0 146 -42 173 -122z" />
    <glyph glyph-name="uni1E41" unicode="&#x1e41;" horiz-adv-x="1170" 
d="M562 677v165h165v-165h-165zM647 442c45 83 104 122 181 122c124 0 172 -104 178 -264l11 -300h-135l34 312c11 104 -22 153 -98 153c-94 0 -129 -76 -146 -186l-42 -279h-124l71 317c20 88 -37 154 -114 154c-92 0 -155 -93 -159 -148l-26 -323h-125l65 547h90l-10 -85
c41 67 106 102 176 102c80 0 146 -42 173 -122z" />
    <glyph glyph-name="uni0271" unicode="&#x271;" horiz-adv-x="1170" 
d="M1033 56c5 -124 -13 -170 -34 -189c-27 -26 -216 -40 -261 -24c2 9 18 68 21 80h52c68 0 68 21 68 100c0 3 2 7 7 10l30 279c11 104 -22 153 -98 153c-94 0 -129 -76 -146 -186l-42 -279h-124l71 317c20 88 -37 154 -114 154c-92 0 -155 -93 -159 -148l-26 -323h-125
l65 547h90l-10 -85c41 67 106 102 176 102c80 0 146 -42 173 -122c45 83 104 122 181 122c124 0 172 -104 178 -264l9 -234c11 -1 18 -4 18 -10z" />
    <glyph glyph-name="uni0270" unicode="&#x270;" horiz-adv-x="1024" 
d="M897 565h124l-55 -696h-109l8 144h-3l6 54l2 28c-41 -65 -105 -99 -174 -99c-80 0 -146 42 -173 122c-45 -83 -104 -122 -181 -122c-124 0 -172 104 -178 264l-11 300h135l-34 -312c-11 -104 22 -153 98 -153c94 0 129 76 146 186l42 279h124l-71 -317
c-20 -88 37 -154 114 -154c92 0 155 93 159 148l26 323h5v5z" />
    <glyph glyph-name="uni1D6F" unicode="&#x1d6f;" horiz-adv-x="1170" 
d="M1198 364c-4 -123 -70 -158 -188 -167l7 -197h-135l21 194h-31c-87 0 -154 12 -209 29l-33 -223h-124l58 260c-62 27 -113 53 -178 53c-36 0 -63 -4 -84 -11l-24 -302h-125l23 194h-146c21 92 55 138 165 158l23 195h90l-10 -85c41 67 106 102 176 102
c80 0 146 -42 173 -122c45 83 104 122 181 122c124 0 172 -104 178 -264l1 -22c24 22 13 54 17 86h174zM315 363c22 1 45 1 71 1c81 0 142 -12 194 -28c8 78 -46 135 -117 135c-72 0 -126 -57 -148 -108zM869 251c15 0 28 0 40 1l7 60c11 104 -22 153 -98 153
c-88 0 -124 -66 -142 -165c61 -25 116 -49 193 -49z" />
    <glyph glyph-name="uni026F" unicode="&#x26f;" horiz-adv-x="1170" 
d="M523 118c-45 -83 -104 -122 -181 -122c-124 0 -172 104 -178 264l-11 300h135l-34 -312c-11 -104 22 -153 98 -153c94 0 129 76 146 186l42 279h124l-71 -317c-20 -88 37 -154 114 -154c92 0 155 93 159 148l26 323h125l-65 -547h-90l10 85c-41 -67 -106 -102 -176 -102
c-80 0 -146 42 -173 122z" />
    <glyph glyph-name="n" unicode="n" horiz-adv-x="815" 
d="M640 323l22 -323h-139l11 329c3 97 -27 143 -107 143c-110 0 -144 -78 -140 -168l14 -304h-148l40 546h66l17 -44c47 22 85 55 161 55c125 0 193 -90 203 -234z" />
    <glyph glyph-name="nacute" unicode="&#x144;" horiz-adv-x="815" 
d="M383 701l97 197h66l-66 -197h-97zM640 323l22 -323h-139l11 329c3 97 -27 143 -107 143c-110 0 -144 -78 -140 -168l14 -304h-148l40 546h66l17 -44c47 22 85 55 161 55c125 0 193 -90 203 -234z" />
    <glyph glyph-name="napostrophe" unicode="&#x149;" horiz-adv-x="669" 
d="M216 582l-162 -24l207 205h95zM640 323l22 -323h-139l11 329c3 97 -27 143 -107 143c-110 0 -144 -78 -140 -168l14 -304h-148l40 546h66l17 -44c47 22 85 55 161 55c125 0 193 -90 203 -234z" />
    <glyph glyph-name="ncaron" unicode="&#x148;" horiz-adv-x="815" 
d="M420 742l-44 64l-133 131h54l143 -99l145 99h54l-132 -131l-39 -64h-48zM640 323l22 -323h-139l11 329c3 97 -27 143 -107 143c-110 0 -144 -78 -140 -168l14 -304h-148l40 546h66l17 -44c47 22 85 55 161 55c125 0 193 -90 203 -234z" />
    <glyph glyph-name="uni1E4B" unicode="&#x1e4b;" horiz-adv-x="815" 
d="M640 323l22 -323h-139l11 329c3 97 -27 143 -107 143c-110 0 -144 -78 -140 -168l14 -304h-148l40 546h66l17 -44c47 22 85 55 161 55c125 0 193 -90 203 -234zM330 -219h48l39 -64l132 -131h-54l-145 99l-143 -99h-54l133 131z" />
    <glyph glyph-name="uni0146" unicode="&#x146;" horiz-adv-x="815" 
d="M523 0l11 329c3 97 -27 143 -107 143c-110 0 -144 -78 -140 -168l14 -304h-148l40 546h66l17 -44c47 22 85 55 161 55c125 0 193 -90 203 -234l22 -323h-139zM447 -181l-78 -281h-152l51 142h-8l16 139h171z" />
    <glyph glyph-name="uni1E45" unicode="&#x1e45;" horiz-adv-x="815" 
d="M358 732v165h165v-165h-165zM640 323l22 -323h-139l11 329c3 97 -27 143 -107 143c-110 0 -144 -78 -140 -168l14 -304h-148l40 546h66l17 -44c47 22 85 55 161 55c125 0 193 -90 203 -234z" />
    <glyph glyph-name="uni1E47" unicode="&#x1e47;" horiz-adv-x="815" 
d="M640 323l22 -323h-139l11 329c3 97 -27 143 -107 143c-110 0 -144 -78 -140 -168l14 -304h-148l40 546h66l17 -44c47 22 85 55 161 55c125 0 193 -90 203 -234zM264 -298v165h165v-165h-165z" />
    <glyph glyph-name="uni01F9" unicode="&#x1f9;" horiz-adv-x="815" 
d="M411 710l-140 135h95l207 -153zM640 323l22 -323h-139l11 329c3 97 -27 143 -107 143c-110 0 -144 -78 -140 -168l14 -304h-148l40 546h66l17 -44c47 22 85 55 161 55c125 0 193 -90 203 -234z" />
    <glyph glyph-name="eng" unicode="&#x14b;" horiz-adv-x="815" 
d="M662 0h-1c-2 -79 -16 -113 -31 -128c-25 -27 -195 -41 -237 -25c3 10 17 70 20 82h47c62 0 62 22 62 103c0 2 1 4 2 6l10 291c3 97 -27 143 -107 143c-110 0 -144 -78 -140 -168l14 -304h-148l40 546h66l17 -44c47 22 85 55 161 55c125 0 193 -90 203 -234l17 -252
c2 -2 3 -4 3 -6c1 -18 1 -34 1 -49z" />
    <glyph glyph-name="uni0272" unicode="&#x272;" horiz-adv-x="751" 
d="M605 0l11 329c3 97 -27 143 -107 143c-110 0 -144 -78 -140 -168l13 -272c6 -145 1 -198 -46 -198h-179v108c76 0 74 16 80 90l38 514h66l17 -44c47 22 85 55 161 55c125 0 193 -90 203 -234l22 -323h-139z" />
    <glyph glyph-name="uni0273" unicode="&#x273;" horiz-adv-x="741" 
d="M659 0c1 -59 9 -68 77 -68v-108h-167c-47 0 -47 53 -47 198h2l10 307c3 97 -27 143 -107 143c-110 0 -144 -78 -140 -168l14 -304h-148l40 546h66l17 -44c47 22 85 55 161 55c125 0 193 -90 203 -234l22 -323h-3z" />
    <glyph glyph-name="uni01CC" unicode="&#x1cc;" horiz-adv-x="1105" 
d="M864 658v148h148v-148h-148zM640 323l22 -323h-139l11 329c3 97 -27 143 -107 143c-110 0 -144 -78 -140 -168l14 -304h-148l40 546h66l17 -44c47 22 85 55 161 55c125 0 193 -90 203 -234zM876 -38c17 59 17 193 28 595h95l-30 -571c-6 -107 -22 -149 -57 -176
c-33 -26 -168 -46 -253 -29l46 94c50 -9 144 -4 171 87z" />
    <glyph glyph-name="uni1D70" unicode="&#x1d70;" horiz-adv-x="815" 
d="M803 354c-4 -136 -57 -164 -154 -169l13 -185h-139l6 188c-123 17 -175 90 -242 110l14 -298h-148l20 271c-18 -25 -18 -59 -18 -87h-140c17 111 47 155 164 167l14 195h66l17 -44c47 22 85 55 161 55c125 0 193 -90 203 -234l5 -74c51 18 36 62 40 105h118zM289 352
c118 -11 169 -80 242 -103l3 80c3 97 -27 143 -107 143c-90 0 -129 -52 -138 -120z" />
    <glyph glyph-name="ntilde" unicode="&#xf1;" horiz-adv-x="815" 
d="M329 687h-62c9 132 26 170 106 170c75 0 94 -113 144 -113c56 0 44 57 46 113h52c-2 -165 -36 -171 -97 -170c-82 1 -103 118 -145 119c-44 1 -44 -70 -44 -119zM640 323l22 -323h-139l11 329c3 97 -27 143 -107 143c-110 0 -144 -78 -140 -168l14 -304h-148l40 546h66
l17 -44c47 22 85 55 161 55c125 0 193 -90 203 -234z" />
    <glyph glyph-name="o" unicode="o" horiz-adv-x="828" 
d="M414 -13c-163 0 -261 117 -261 286c0 176 98 287 261 287c162 0 261 -111 261 -287c0 -169 -99 -286 -261 -286zM414 136c120 0 162 23 162 154c0 139 -62 182 -162 182s-162 -43 -162 -182c0 -131 42 -154 162 -154z" />
    <glyph glyph-name="oacute" unicode="&#xf3;" horiz-adv-x="828" 
d="M354 656l97 197h66l-66 -197h-97zM414 -13c-163 0 -261 117 -261 286c0 176 98 287 261 287c162 0 261 -111 261 -287c0 -169 -99 -286 -261 -286zM414 136c120 0 162 23 162 154c0 139 -62 182 -162 182s-162 -43 -162 -182c0 -131 42 -154 162 -154z" />
    <glyph glyph-name="uni0275" unicode="&#x275;" horiz-adv-x="828" 
d="M414 560c162 0 261 -111 261 -287c0 -169 -99 -286 -261 -286c-163 0 -261 117 -261 286c0 176 98 287 261 287zM414 472c-97 0 -158 -40 -162 -168l323 16c-9 115 -69 152 -161 152zM414 136c111 0 155 20 161 127l-322 -11c9 -98 54 -116 161 -116z" />
    <glyph glyph-name="obreve" unicode="&#x14f;" horiz-adv-x="828" 
d="M409 694c-107 0 -192 74 -192 197h65c0 -88 48 -102 127 -102c93 0 136 15 136 102h65c0 -123 -95 -197 -201 -197zM414 560c162 0 261 -111 261 -287c0 -169 -99 -286 -261 -286c-163 0 -261 117 -261 286c0 176 98 287 261 287zM414 136c120 0 162 23 162 154
c0 139 -62 182 -162 182s-162 -43 -162 -182c0 -131 42 -154 162 -154z" />
    <glyph glyph-name="uni01D2" unicode="&#x1d2;" horiz-adv-x="828" 
d="M391 697l-44 64l-133 131h54l143 -99l145 99h54l-132 -131l-39 -64h-48zM414 -13c-163 0 -261 117 -261 286c0 176 98 287 261 287c162 0 261 -111 261 -287c0 -169 -99 -286 -261 -286zM414 136c120 0 162 23 162 154c0 139 -62 182 -162 182s-162 -43 -162 -182
c0 -131 42 -154 162 -154z" />
    <glyph glyph-name="ocircumflex" unicode="&#xf4;" horiz-adv-x="828" 
d="M394 796h48l39 -64l132 -131h-54l-145 99l-143 -99h-54l133 131zM414 -13c-163 0 -261 117 -261 286c0 176 98 287 261 287c162 0 261 -111 261 -287c0 -169 -99 -286 -261 -286zM414 136c120 0 162 23 162 154c0 139 -62 182 -162 182s-162 -43 -162 -182
c0 -131 42 -154 162 -154z" />
    <glyph glyph-name="uni1ED1" unicode="&#x1ed1;" horiz-adv-x="828" 
d="M616 701l97 197h66l-66 -197h-97zM394 796h48l39 -64l132 -131h-54l-145 99l-143 -99h-54l133 131zM414 -13c-163 0 -261 117 -261 286c0 176 98 287 261 287c162 0 261 -111 261 -287c0 -169 -99 -286 -261 -286zM414 136c120 0 162 23 162 154c0 139 -62 182 -162 182
s-162 -43 -162 -182c0 -131 42 -154 162 -154z" />
    <glyph glyph-name="uni1ED9" unicode="&#x1ed9;" horiz-adv-x="828" 
d="M394 796h48l39 -64l132 -131h-54l-145 99l-143 -99h-54l133 131zM414 -13c-163 0 -261 117 -261 286c0 176 98 287 261 287c162 0 261 -111 261 -287c0 -169 -99 -286 -261 -286zM414 136c120 0 162 23 162 154c0 139 -62 182 -162 182s-162 -43 -162 -182
c0 -131 42 -154 162 -154zM315 -297v165h165v-165h-165z" />
    <glyph glyph-name="uni1ED3" unicode="&#x1ed3;" horiz-adv-x="828" 
d="M686 797l-140 135h95l207 -153zM394 796h48l39 -64l132 -131h-54l-145 99l-143 -99h-54l133 131zM414 -13c-163 0 -261 117 -261 286c0 176 98 287 261 287c162 0 261 -111 261 -287c0 -169 -99 -286 -261 -286zM414 136c120 0 162 23 162 154c0 139 -62 182 -162 182
s-162 -43 -162 -182c0 -131 42 -154 162 -154z" />
    <glyph glyph-name="uni1ED5" unicode="&#x1ed5;" horiz-adv-x="828" 
d="M567 773v5c0 11 1 23 4 29c7 10 16 19 30 28l22 19c12 8 20 18 20 31c0 11 -17 26 -61 26c-28 0 -54 -9 -84 -25v39c35 16 67 22 97 22c31 0 55 -6 74 -17c17 -13 30 -31 30 -48c0 -20 -13 -41 -41 -58l-20 -14c-11 -7 -14 -12 -15 -14c-4 -7 -5 -14 -5 -23h-51zM395 802
h48l39 -64l132 -131h-54l-145 99l-143 -99h-54l133 131zM414 -13c-163 0 -261 117 -261 286c0 176 98 287 261 287c162 0 261 -111 261 -287c0 -169 -99 -286 -261 -286zM414 136c120 0 162 23 162 154c0 139 -62 182 -162 182s-162 -43 -162 -182c0 -131 42 -154 162 -154z
" />
    <glyph glyph-name="uni1ED7" unicode="&#x1ed7;" horiz-adv-x="828" 
d="M304 845h-62c9 132 26 170 106 170c75 0 94 -113 144 -113c56 0 44 57 46 113h52c-2 -165 -36 -171 -97 -170c-82 1 -103 118 -145 119c-44 1 -44 -70 -44 -119zM395 810h48l39 -64l132 -131h-54l-145 99l-143 -99h-54l133 131zM414 -13c-163 0 -261 117 -261 286
c0 176 98 287 261 287c162 0 261 -111 261 -287c0 -169 -99 -286 -261 -286zM414 136c120 0 162 23 162 154c0 139 -62 182 -162 182s-162 -43 -162 -182c0 -131 42 -154 162 -154z" />
    <glyph glyph-name="odieresis" unicode="&#xf6;" horiz-adv-x="828" 
d="M198 647v165h165v-165h-165zM470 647v165h165v-165h-165zM414 -13c-163 0 -261 117 -261 286c0 176 98 287 261 287c162 0 261 -111 261 -287c0 -169 -99 -286 -261 -286zM414 136c120 0 162 23 162 154c0 139 -62 182 -162 182s-162 -43 -162 -182
c0 -131 42 -154 162 -154z" />
    <glyph glyph-name="uni022B" unicode="&#x22b;" horiz-adv-x="828" 
d="M356 823v-165h-165v165h165zM628 823v-165h-165v165h165zM414 560c162 0 261 -111 261 -287c0 -169 -99 -286 -261 -286c-163 0 -261 117 -261 286c0 176 98 287 261 287zM414 472c-92 0 -152 -37 -161 -152l320 20c-14 100 -72 132 -159 132zM414 136
c111 0 155 20 161 126l-321 -12c8 -96 53 -114 160 -114z" />
    <glyph glyph-name="uni1ECD" unicode="&#x1ecd;" horiz-adv-x="828" 
d="M414 -13c-163 0 -261 117 -261 286c0 176 98 287 261 287c162 0 261 -111 261 -287c0 -169 -99 -286 -261 -286zM414 136c120 0 162 23 162 154c0 139 -62 182 -162 182s-162 -43 -162 -182c0 -131 42 -154 162 -154zM329 -329v165h165v-165h-165z" />
    <glyph glyph-name="ograve" unicode="&#xf2;" horiz-adv-x="828" 
d="M358 655l-140 135h95l207 -153zM414 -13c-163 0 -261 117 -261 286c0 176 98 287 261 287c162 0 261 -111 261 -287c0 -169 -99 -286 -261 -286zM414 136c120 0 162 23 162 154c0 139 -62 182 -162 182s-162 -43 -162 -182c0 -131 42 -154 162 -154z" />
    <glyph glyph-name="uni1ECF" unicode="&#x1ecf;" horiz-adv-x="828" 
d="M393 670v5c0 11 1 23 4 29c7 10 16 19 30 28l22 19c12 8 20 18 20 31c0 11 -17 26 -61 26c-28 0 -54 -9 -84 -25v39c35 16 67 22 97 22c31 0 55 -6 74 -17c17 -13 30 -31 30 -48c0 -20 -13 -41 -41 -58l-20 -14c-11 -7 -14 -12 -15 -14c-4 -7 -5 -14 -5 -23h-51zM414 -13
c-163 0 -261 117 -261 286c0 176 98 287 261 287c162 0 261 -111 261 -287c0 -169 -99 -286 -261 -286zM414 136c120 0 162 23 162 154c0 139 -62 182 -162 182s-162 -43 -162 -182c0 -131 42 -154 162 -154z" />
    <glyph glyph-name="ohorn" unicode="&#x1a1;" horiz-adv-x="828" 
d="M732 589c3 -14 6 -26 6 -36c0 -42 -13 -95 -46 -125c-18 -15 -24 -21 -37 -29c13 -37 20 -79 20 -126c0 -169 -99 -286 -261 -286c-163 0 -261 117 -261 286c0 176 98 287 261 287c97 0 172 -40 216 -110c16 9 25 12 35 21c24 22 22 73 22 91c0 12 -3 22 -8 33zM414 136
c120 0 162 23 162 154c0 139 -62 182 -162 182s-162 -43 -162 -182c0 -131 42 -154 162 -154z" />
    <glyph glyph-name="uni1EDB" unicode="&#x1edb;" horiz-adv-x="828" 
d="M517 853l-66 -197h-97l97 197h66zM732 589c3 -14 6 -26 6 -36c0 -42 -13 -95 -46 -125c-18 -15 -24 -21 -37 -29c13 -37 20 -79 20 -126c0 -169 -99 -286 -261 -286c-163 0 -261 117 -261 286c0 176 98 287 261 287c97 0 172 -40 216 -110c16 9 25 12 35 21
c24 22 22 73 22 91c0 12 -3 22 -8 33zM414 136c120 0 162 23 162 154c0 139 -62 182 -162 182s-162 -43 -162 -182c0 -131 42 -154 162 -154z" />
    <glyph glyph-name="uni1EE3" unicode="&#x1ee3;" horiz-adv-x="828" 
d="M732 589c3 -14 6 -26 6 -36c0 -42 -13 -95 -46 -125c-18 -15 -24 -21 -37 -29c13 -37 20 -79 20 -126c0 -169 -99 -286 -261 -286c-163 0 -261 117 -261 286c0 176 98 287 261 287c97 0 172 -40 216 -110c16 9 25 12 35 21c24 22 22 73 22 91c0 12 -3 22 -8 33zM414 136
c120 0 162 23 162 154c0 139 -62 182 -162 182s-162 -43 -162 -182c0 -131 42 -154 162 -154zM329 -329v165h165v-165h-165z" />
    <glyph glyph-name="uni1EDD" unicode="&#x1edd;" horiz-adv-x="828" 
d="M544 647l-162 18l-140 135h95zM732 589c3 -14 6 -26 6 -36c0 -42 -13 -95 -46 -125c-18 -15 -24 -21 -37 -29c13 -37 20 -79 20 -126c0 -169 -99 -286 -261 -286c-163 0 -261 117 -261 286c0 176 98 287 261 287c97 0 172 -40 216 -110c16 9 25 12 35 21
c24 22 22 73 22 91c0 12 -3 22 -8 33zM414 136c120 0 162 23 162 154c0 139 -62 182 -162 182s-162 -43 -162 -182c0 -131 42 -154 162 -154z" />
    <glyph glyph-name="uni1EDF" unicode="&#x1edf;" horiz-adv-x="828" 
d="M469 782c0 11 -17 26 -61 26c-28 0 -54 -9 -84 -25v39c35 16 67 22 97 22c31 0 55 -6 74 -17c17 -13 30 -31 30 -48c0 -20 -13 -41 -41 -58l-20 -14c-11 -7 -14 -12 -15 -14c-4 -7 -5 -14 -5 -23h-51v5c0 11 1 23 4 29c7 10 16 19 30 28l22 19c12 8 20 18 20 31zM732 589
c3 -14 6 -26 6 -36c0 -42 -13 -95 -46 -125c-18 -15 -24 -21 -37 -29c13 -37 20 -79 20 -126c0 -169 -99 -286 -261 -286c-163 0 -261 117 -261 286c0 176 98 287 261 287c97 0 172 -40 216 -110c16 9 25 12 35 21c24 22 22 73 22 91c0 12 -3 22 -8 33zM414 136
c120 0 162 23 162 154c0 139 -62 182 -162 182s-162 -43 -162 -182c0 -131 42 -154 162 -154z" />
    <glyph glyph-name="uni1EE1" unicode="&#x1ee1;" horiz-adv-x="828" 
d="M343 864c-44 1 -44 -70 -44 -119h-62c9 132 26 170 106 170c75 0 94 -113 144 -113c56 0 44 57 46 113h52c-2 -165 -36 -171 -97 -170c-82 1 -103 118 -145 119zM732 589c3 -14 6 -26 6 -36c0 -42 -13 -95 -46 -125c-18 -15 -24 -21 -37 -29c13 -37 20 -79 20 -126
c0 -169 -99 -286 -261 -286c-163 0 -261 117 -261 286c0 176 98 287 261 287c97 0 172 -40 216 -110c16 9 25 12 35 21c24 22 22 73 22 91c0 12 -3 22 -8 33zM414 136c120 0 162 23 162 154c0 139 -62 182 -162 182s-162 -43 -162 -182c0 -131 42 -154 162 -154z" />
    <glyph glyph-name="ohungarumlaut" unicode="&#x151;" horiz-adv-x="828" 
d="M359 683l-162 -18l207 153h95zM542 683l-162 -18l207 153h95zM414 -13c-163 0 -261 117 -261 286c0 176 98 287 261 287c162 0 261 -111 261 -287c0 -169 -99 -286 -261 -286zM414 136c120 0 162 23 162 154c0 139 -62 182 -162 182s-162 -43 -162 -182
c0 -131 42 -154 162 -154z" />
    <glyph glyph-name="omacron" unicode="&#x14d;" horiz-adv-x="828" 
d="M222 832l386 24l29 -77l-446 -17zM414 -13c-163 0 -261 117 -261 286c0 176 98 287 261 287c162 0 261 -111 261 -287c0 -169 -99 -286 -261 -286zM414 136c120 0 162 23 162 154c0 139 -62 182 -162 182s-162 -43 -162 -182c0 -131 42 -154 162 -154z" />
    <glyph glyph-name="uni1E53" unicode="&#x1e53;" horiz-adv-x="828" 
d="M378 902l97 197h66l-66 -197h-97zM222 832l386 24l29 -77l-446 -17zM414 -13c-163 0 -261 117 -261 286c0 176 98 287 261 287c162 0 261 -111 261 -287c0 -169 -99 -286 -261 -286zM414 136c120 0 162 23 162 154c0 139 -62 182 -162 182s-162 -43 -162 -182
c0 -131 42 -154 162 -154z" />
    <glyph glyph-name="uni1E51" unicode="&#x1e51;" horiz-adv-x="828" 
d="M406 911l-140 135h95l207 -153zM222 832l386 24l29 -77l-446 -17zM414 -13c-163 0 -261 117 -261 286c0 176 98 287 261 287c162 0 261 -111 261 -287c0 -169 -99 -286 -261 -286zM414 136c120 0 162 23 162 154c0 139 -62 182 -162 182s-162 -43 -162 -182
c0 -131 42 -154 162 -154z" />
    <glyph glyph-name="uni01EB" unicode="&#x1eb;" horiz-adv-x="828" 
d="M675 273c0 -111 -42 -199 -117 -247h4c-67 -61 -101 -104 -101 -130c0 -20 20 -31 61 -31c15 0 34 2 55 5c3 -20 8 -53 11 -70c-115 -2 -183 30 -183 86c0 29 19 65 60 105c-16 -3 -33 -4 -51 -4c-163 0 -261 117 -261 286c0 176 98 287 261 287c162 0 261 -111 261 -287
zM414 136c120 0 162 23 162 154c0 139 -62 182 -162 182s-162 -43 -162 -182c0 -131 42 -154 162 -154z" />
    <glyph glyph-name="uni01ED" unicode="&#x1ed;" horiz-adv-x="828" 
d="M608 856l29 -77l-446 -17l31 70zM675 273c0 -111 -42 -199 -117 -247h4c-67 -61 -101 -104 -101 -130c0 -20 20 -31 61 -31c15 0 34 2 55 5c3 -20 8 -53 11 -70c-115 -2 -183 30 -183 86c0 29 19 65 60 105c-16 -3 -33 -4 -51 -4c-163 0 -261 117 -261 286
c0 176 98 287 261 287c162 0 261 -111 261 -287zM414 136c120 0 162 23 162 154c0 139 -62 182 -162 182s-162 -43 -162 -182c0 -131 42 -154 162 -154z" />
    <glyph glyph-name="uni0254" unicode="&#x254;" horiz-adv-x="747" 
d="M229 7v86c32 -10 77 -15 105 -15c97 1 159 60 159 209c-10 130 -141 199 -246 147l-94 102c47 28 110 35 171 31c207 -14 270 -104 270 -280c0 -198 -71 -288 -240 -292c-48 -1 -104 5 -125 12z" />
    <glyph glyph-name="oslash" unicode="&#xf8;" horiz-adv-x="828" 
d="M528 538c93 -41 147 -135 147 -265c0 -169 -99 -286 -261 -286c-12 0 -23 1 -34 2l-18 -67l-142 -104l62 201c-82 45 -129 137 -129 254c0 176 98 287 261 287c12 0 25 -1 36 -2l26 83l92 47zM252 290c0 -89 20 -128 70 -144l101 326h-9c-100 0 -162 -43 -162 -182z
M420 136c115 1 156 25 156 154c0 90 -26 139 -71 163z" />
    <glyph glyph-name="oslashacute" unicode="&#x1ff;" horiz-adv-x="828" 
d="M614 1039l-66 -197h-97l97 197h66zM528 538c93 -41 147 -135 147 -265c0 -169 -99 -286 -261 -286c-12 0 -23 1 -34 2l-18 -67l-142 -104l62 201c-82 45 -129 137 -129 254c0 176 98 287 261 287c12 0 25 -1 36 -2l26 83l92 47zM252 290c0 -89 20 -128 70 -144l101 326
h-9c-100 0 -162 -43 -162 -182zM420 136c115 1 156 25 156 154c0 90 -26 139 -71 163z" />
    <glyph glyph-name="otilde" unicode="&#xf5;" horiz-adv-x="828" 
d="M300 642h-62c9 132 26 170 106 170c75 0 94 -113 144 -113c56 0 44 57 46 113h52c-2 -165 -36 -171 -97 -170c-82 1 -103 118 -145 119c-44 1 -44 -70 -44 -119zM414 -13c-163 0 -261 117 -261 286c0 176 98 287 261 287c162 0 261 -111 261 -287
c0 -169 -99 -286 -261 -286zM414 136c120 0 162 23 162 154c0 139 -62 182 -162 182s-162 -43 -162 -182c0 -131 42 -154 162 -154z" />
    <glyph glyph-name="uni1E4D" unicode="&#x1e4d;" horiz-adv-x="828" 
d="M377 1064l97 197h66l-66 -197h-97zM299 745h-62c9 132 26 170 106 170c75 0 94 -113 144 -113c56 0 44 57 46 113h52c-2 -165 -36 -171 -97 -170c-82 1 -103 118 -145 119c-44 1 -44 -70 -44 -119zM414 -13c-163 0 -261 117 -261 286c0 176 98 287 261 287
c162 0 261 -111 261 -287c0 -169 -99 -286 -261 -286zM414 136c120 0 162 23 162 154c0 139 -62 182 -162 182s-162 -43 -162 -182c0 -131 42 -154 162 -154z" />
    <glyph glyph-name="uni1E4F" unicode="&#x1e4f;" horiz-adv-x="828" 
d="M196 900v165h165v-165h-165zM468 900v165h165v-165h-165zM300 642h-62c9 132 26 170 106 170c75 0 94 -113 144 -113c56 0 44 57 46 113h52c-2 -165 -36 -171 -97 -170c-82 1 -103 118 -145 119c-44 1 -44 -70 -44 -119zM414 -13c-163 0 -261 117 -261 286
c0 176 98 287 261 287c162 0 261 -111 261 -287c0 -169 -99 -286 -261 -286zM414 136c120 0 162 23 162 154c0 139 -62 182 -162 182s-162 -43 -162 -182c0 -131 42 -154 162 -154z" />
    <glyph glyph-name="oe" unicode="&#x153;" horiz-adv-x="1070" 
d="M866 119c74 -8 121 0 198 33v-124c-65 -28 -130 -42 -201 -42c-103 0 -187 38 -239 105c-44 -65 -117 -104 -210 -104c-163 0 -261 117 -261 286c0 176 98 287 261 287c93 0 166 -37 211 -102c48 75 125 122 223 122c112 -9 213 -84 245 -265l-418 -27v-15
c0 -17 -1 -34 -3 -49c25 -58 88 -94 194 -105zM848 513c-102 -7 -175 -83 -175 -149l320 31c-10 61 -41 125 -145 118zM414 136c98 0 144 15 157 91c-1 13 -2 27 -2 41c1 19 3 38 6 56c-10 112 -70 148 -161 148c-100 0 -162 -43 -162 -182c0 -131 42 -154 162 -154z" />
    <glyph glyph-name="p" unicode="p" horiz-adv-x="877" 
d="M325 82l-43 -286l-129 -8l80 449l-16 295h90l18 -75c37 65 95 98 175 96c133 -4 224 -105 224 -270c0 -157 -66 -298 -224 -298c-80 0 -148 32 -175 97zM636 302c-4 106 -40 171 -123 171s-162 -65 -162 -171s72 -168 167 -168s122 62 118 168z" />
    <glyph glyph-name="uni1E57" unicode="&#x1e57;" horiz-adv-x="877" 
d="M393 662v165h165v-165h-165zM325 82l-43 -286l-129 -8l80 449l-16 295h90l18 -75c37 65 95 98 175 96c133 -4 224 -105 224 -270c0 -157 -66 -298 -224 -298c-80 0 -148 32 -175 97zM636 302c-4 106 -40 171 -123 171s-162 -65 -162 -171s72 -168 167 -168
s122 62 118 168z" />
    <glyph glyph-name="uni0278" unicode="&#x278;" horiz-adv-x="1143" 
d="M604 851c214 -11 356 -135 349 -427c-7 -288 -91 -435 -368 -438l-2 -107h-70l2 110c-223 21 -325 164 -325 435c0 278 134 413 344 427l5 217h70zM590 197c151 4 245 52 245 216c0 161 -89 326 -233 346zM308 413c0 -151 80 -204 212 -214l12 558
c-139 -26 -224 -187 -224 -344z" />
    <glyph glyph-name="uni01A5" unicode="&#x1a5;" horiz-adv-x="877" 
d="M500 553c133 -4 224 -105 224 -270c0 -157 -66 -298 -224 -298c-80 0 -148 32 -175 97l-43 -286l-129 -8l64 359v388c0 14 0 21 2 50c4 112 30 118 166 117v-85c-73 0 -77 -3 -77 -51v-31v-7l17 -71c37 65 95 98 175 96zM518 134c95 0 122 62 118 168s-40 171 -123 171
s-162 -65 -162 -171s72 -168 167 -168z" />
    <glyph glyph-name="thorn" unicode="&#xfe;" horiz-adv-x="560" 
d="M171 636c141 -7 312 -107 309 -265c-4 -205 -161 -307 -300 -320l4 -231h-88l-16 980h88zM409 375c2 85 -154 184 -206 184c-11 0 -21 -4 -31 -12l7 -403c8 -5 16 -7 24 -7c52 0 203 98 206 238z" />
    <glyph glyph-name="uni1D71" unicode="&#x1d71;" horiz-adv-x="877" 
d="M500 553c133 -4 224 -105 224 -270c0 -157 -66 -298 -224 -298c-80 0 -148 32 -175 97l-29 -193c8 -4 17 -6 27 -6c65 0 51 42 54 83h60c-2 -122 -42 -126 -113 -126c-13 0 -24 2 -35 5l-7 -49l-129 -8l24 134c-7 4 -15 7 -23 7c-51 0 -51 -52 -51 -89h-73
c11 98 31 126 124 126c11 0 21 -1 30 -4l49 275l-16 295h90l18 -75c37 65 95 98 175 96zM518 134c95 0 122 62 118 168s-40 171 -123 171s-162 -65 -162 -171s72 -168 167 -168z" />
    <glyph glyph-name="q" unicode="q" horiz-adv-x="947" 
d="M536 -208l27 290c-38 -65 -95 -100 -175 -96c-132 7 -235 116 -235 288s100 265 232 283c96 13 139 -25 193 -110v100h107l-35 -361l-12 -256l70 20l86 30l-26 -120zM374 127c95 0 144 46 156 159c12 112 -31 196 -126 196c-96 0 -148 -84 -160 -196
c-12 -113 35 -159 130 -159z" />
    <glyph glyph-name="uni02A0" unicode="&#x2a0;" horiz-adv-x="760" 
d="M638 -70l70 20l86 30l-26 -120l-232 -68l27 290c-38 -65 -95 -100 -175 -96c-132 7 -235 116 -235 288s100 265 232 283c91 12 135 -22 185 -98l8 60v28h4l3 27v2l7 51c2 15 4 21 9 50c19 111 49 114 201 100l-10 -84c-83 7 -87 4 -93 -44l-4 -30c-2 -18 -4 -35 -7 -54
l-5 -42l-33 -337zM530 286c12 112 -31 196 -126 196c-96 0 -148 -84 -160 -196c-12 -113 35 -159 130 -159s144 46 156 159z" />
    <glyph glyph-name="uni024B" unicode="&#x24b;" horiz-adv-x="874" 
d="M810 37c49 -1 71 -3 120 -8c-10 -88 -90 -171 -162 -169l-232 -68l27 290c-38 -65 -95 -100 -175 -96c-132 7 -235 116 -235 288s100 265 232 283c96 13 139 -25 193 -110v100h107l-35 -361l-10 -211c25 -3 51 -5 68 -4c51 0 96 18 102 66zM530 286
c12 112 -31 196 -126 196c-96 0 -148 -84 -160 -196c-12 -113 35 -159 130 -159s144 46 156 159z" />
    <glyph glyph-name="r" unicode="r" horiz-adv-x="659" 
d="M491 549l15 -126c-177 37 -195 -40 -195 -137c0 -58 -6 -122 23 -286h-181c41 196 46 317 46 545h93v-59c55 42 83 57 199 63z" />
    <glyph glyph-name="racute" unicode="&#x155;" horiz-adv-x="659" 
d="M234 595l97 197h66l-66 -197h-97zM491 549l15 -126c-177 37 -195 -40 -195 -137c0 -58 -6 -122 23 -286h-181c41 196 46 317 46 545h93v-59c55 42 83 57 199 63z" />
    <glyph glyph-name="uni0264" unicode="&#x264;" horiz-adv-x="696" 
d="M489 513c122 2 127 -116 127 -174h-65c-4 58 -19 114 -62 114c-42 0 -67 -50 -97 -126c10 -19 19 -39 29 -59c47 -96 86 -166 51 -217c-35 -50 -87 -59 -130 -59c-60 0 -84 8 -118 59c-30 45 15 127 64 244c8 20 16 38 23 55c-23 59 -48 98 -85 98
c-76 0 -84 -26 -84 -109h-62c0 83 0 172 143 172c48 0 85 -37 119 -90c30 57 67 91 147 92zM342 57c64 0 41 60 9 167c-45 -109 -61 -167 -9 -167z" />
    <glyph glyph-name="rcaron" unicode="&#x159;" horiz-adv-x="659" 
d="M271 636l-44 64l-133 131h54l143 -99l145 99h54l-132 -131l-39 -64h-48zM491 549l15 -126c-177 37 -195 -40 -195 -137c0 -58 -6 -122 23 -286h-181c41 196 46 317 46 545h93v-59c55 42 83 57 199 63z" />
    <glyph glyph-name="uni0157" unicode="&#x157;" horiz-adv-x="659" 
d="M491 549l15 -126c-177 37 -195 -40 -195 -137c0 -58 -6 -122 23 -286h-181c41 196 46 317 46 545h93v-59c55 42 83 57 199 63zM338 -252l-78 -281h-152l51 142h-8l16 139h171z" />
    <glyph glyph-name="uni1E5B" unicode="&#x1e5b;" horiz-adv-x="659" 
d="M491 549l15 -126c-177 37 -195 -40 -195 -137c0 -58 -6 -122 23 -286h-181c41 196 46 317 46 545h93v-59c55 42 83 57 199 63zM155 -369v165h165v-165h-165z" />
    <glyph glyph-name="uni027E" unicode="&#x27e;" horiz-adv-x="316" 
d="M82 449c4 112 28 118 154 117v-85c-68 0 -71 -3 -71 -51v-31v-54v-341h-85v395c0 14 1 21 2 50z" />
    <glyph glyph-name="uni1D73" unicode="&#x1d73;" horiz-adv-x="316" 
d="M246 384h52c-2 -165 -36 -171 -97 -170c-14 0 -25 3 -36 9v-219h-85v316c-8 8 -15 13 -24 13c-44 1 -44 -70 -44 -119h-62c9 132 26 170 106 170c9 0 17 -2 24 -4v19c0 14 1 21 2 50c4 112 28 118 154 117v-85c-68 0 -71 -3 -71 -51v-31v-54v-54c11 -12 22 -20 35 -20
c56 0 44 57 46 113z" />
    <glyph glyph-name="uni027D" unicode="&#x27d;" horiz-adv-x="659" 
d="M327 45c19 -36 53 -62 108 -62c7 -59 9 -86 10 -146c-147 0 -298 92 -298 182c0 10 8 27 19 45c29 161 33 279 33 481h93v-59c55 42 83 57 199 63l15 -126c-177 37 -195 -40 -195 -137c0 -52 -5 -110 16 -241z" />
    <glyph glyph-name="uni027B" unicode="&#x27b;" horiz-adv-x="659" 
d="M540 -16c6 -52 8 -76 9 -129c-130 0 -191 114 -191 205v7c-49 -37 -80 -50 -190 -56l-15 126c177 -37 195 40 195 137c0 58 6 122 -23 286h181c-41 -196 -46 -317 -46 -544c18 -20 44 -32 80 -32z" />
    <glyph glyph-name="uni027A" unicode="&#x27a;" horiz-adv-x="529" 
d="M118 11l-15 126c177 -37 195 40 195 137c0 58 -14 392 -43 556h221c-41 -196 -66 -587 -66 -815h-93v59c-55 -42 -83 -57 -199 -63z" />
    <glyph glyph-name="uni1D72" unicode="&#x1d72;" horiz-adv-x="659" 
d="M506 423c-177 37 -195 -40 -195 -137v-40h2c56 0 44 57 46 113h52c-2 -165 -36 -171 -97 -170h-3c2 -44 8 -103 23 -189h-181c23 111 35 198 41 294c-8 8 -16 14 -25 14c-44 1 -44 -70 -44 -119h-62c9 132 26 170 106 170c10 0 19 -2 27 -6c2 57 3 119 3 192h93v-59
c55 42 83 57 199 63z" />
    <glyph glyph-name="uni0279" unicode="&#x279;" horiz-adv-x="659" 
d="M168 11l-15 126c177 -37 195 40 195 137c0 58 6 122 -23 286h181c-41 -196 -46 -317 -46 -545h-93v59c-55 -42 -83 -57 -199 -63z" />
    <glyph glyph-name="s" unicode="s" horiz-adv-x="773" 
d="M582 549l-46 -60c-62 8 -85 6 -120 8c-129 0 -145 -37 -144 -82c1 -32 67 -62 154 -89c165 -51 194 -93 194 -171c0 -138 -77 -169 -228 -169c-183 0 -195 30 -239 63l98 111c58 -22 82 -28 143 -33c35 -3 101 -7 101 50c0 32 -61 52 -131 66c-45 7 -167 37 -167 168
c0 73 35 162 208 162c67 0 127 -13 177 -24z" />
    <glyph glyph-name="sacute" unicode="&#x15b;" horiz-adv-x="773" 
d="M341 674l97 197h66l-66 -197h-97zM582 549l-46 -60c-62 8 -85 6 -120 8c-129 0 -145 -37 -144 -82c1 -32 67 -62 154 -89c165 -51 194 -93 194 -171c0 -138 -77 -169 -228 -169c-183 0 -195 30 -239 63l98 111c58 -22 82 -28 143 -33c35 -3 101 -7 101 50
c0 32 -61 52 -131 66c-45 7 -167 37 -167 168c0 73 35 162 208 162c67 0 127 -13 177 -24z" />
    <glyph glyph-name="uni1E65" unicode="&#x1e65;" horiz-adv-x="773" 
d="M446 939v165h165v-165h-165zM413 629l97 197h66l-66 -197h-97zM582 549l-46 -60c-62 8 -85 6 -120 8c-129 0 -145 -37 -144 -82c1 -32 67 -62 154 -89c165 -51 194 -93 194 -171c0 -138 -77 -169 -228 -169c-183 0 -195 30 -239 63l98 111c58 -22 82 -28 143 -33
c35 -3 101 -7 101 50c0 32 -61 52 -131 66c-45 7 -167 37 -167 168c0 73 35 162 208 162c67 0 127 -13 177 -24z" />
    <glyph glyph-name="uniA78C" unicode="&#xa78c;" horiz-adv-x="281" 
d="M80 758h121l-38 -422h-47z" />
    <glyph glyph-name="scaron" unicode="&#x161;" horiz-adv-x="773" 
d="M378 715l-44 64l-133 131h54l143 -99l145 99h54l-132 -131l-39 -64h-48zM582 549l-46 -60c-62 8 -85 6 -120 8c-129 0 -145 -37 -144 -82c1 -32 67 -62 154 -89c165 -51 194 -93 194 -171c0 -138 -77 -169 -228 -169c-183 0 -195 30 -239 63l98 111
c58 -22 82 -28 143 -33c35 -3 101 -7 101 50c0 32 -61 52 -131 66c-45 7 -167 37 -167 168c0 73 35 162 208 162c67 0 127 -13 177 -24z" />
    <glyph glyph-name="uni1E67" unicode="&#x1e67;" horiz-adv-x="773" 
d="M327 964v165h165v-165h-165zM378 715l-44 64l-133 131h54l143 -99l145 99h54l-132 -131l-39 -64h-48zM582 549l-46 -60c-62 8 -85 6 -120 8c-129 0 -145 -37 -144 -82c1 -32 67 -62 154 -89c165 -51 194 -93 194 -171c0 -138 -77 -169 -228 -169c-183 0 -195 30 -239 63
l98 111c58 -22 82 -28 143 -33c35 -3 101 -7 101 50c0 32 -61 52 -131 66c-45 7 -167 37 -167 168c0 73 35 162 208 162c67 0 127 -13 177 -24z" />
    <glyph glyph-name="scedilla" unicode="&#x15f;" horiz-adv-x="773" 
d="M620 155c0 -129 -67 -164 -199 -169l-29 -78h35c44 0 113 -18 102 -86c-9 -55 -53 -88 -118 -88h-70l13 60c26 -6 35 -6 59 -6c41 0 74 22 74 40c0 50 -43 52 -71 52c-19 0 -42 -2 -69 -6l38 112c-176 1 -189 30 -232 63l98 111c58 -22 82 -28 143 -33
c35 -3 101 -7 101 50c0 32 -61 52 -131 66c-45 7 -167 37 -167 168c0 73 35 162 208 162c67 0 127 -13 177 -24l-46 -60c-62 8 -85 6 -120 8c-129 0 -145 -37 -144 -82c1 -32 67 -62 154 -89c165 -51 194 -93 194 -171z" />
    <glyph glyph-name="scircumflex" unicode="&#x15d;" horiz-adv-x="773" 
d="M388 865h48l39 -64l132 -131h-54l-145 99l-143 -99h-54l133 131zM582 549l-46 -60c-62 8 -85 6 -120 8c-129 0 -145 -37 -144 -82c1 -32 67 -62 154 -89c165 -51 194 -93 194 -171c0 -138 -77 -169 -228 -169c-183 0 -195 30 -239 63l98 111c58 -22 82 -28 143 -33
c35 -3 101 -7 101 50c0 32 -61 52 -131 66c-45 7 -167 37 -167 168c0 73 35 162 208 162c67 0 127 -13 177 -24z" />
    <glyph glyph-name="uni0219" unicode="&#x219;" horiz-adv-x="773" 
d="M426 326c165 -51 194 -93 194 -171c0 -138 -77 -169 -228 -169c-183 0 -195 30 -239 63l98 111c58 -22 82 -28 143 -33c35 -3 101 -7 101 50c0 32 -61 52 -131 66c-45 7 -167 37 -167 168c0 73 35 162 208 162c67 0 127 -13 177 -24l-46 -60c-62 8 -85 6 -120 8
c-129 0 -145 -37 -144 -82c1 -32 67 -62 154 -89zM485 -187l-78 -281h-152l51 142h-8l16 139h171z" />
    <glyph glyph-name="uni1E61" unicode="&#x1e61;" horiz-adv-x="773" 
d="M316 705v165h165v-165h-165zM582 549l-46 -60c-62 8 -85 6 -120 8c-129 0 -145 -37 -144 -82c1 -32 67 -62 154 -89c165 -51 194 -93 194 -171c0 -138 -77 -169 -228 -169c-183 0 -195 30 -239 63l98 111c58 -22 82 -28 143 -33c35 -3 101 -7 101 50c0 32 -61 52 -131 66
c-45 7 -167 37 -167 168c0 73 35 162 208 162c67 0 127 -13 177 -24z" />
    <glyph glyph-name="uni1E63" unicode="&#x1e63;" horiz-adv-x="773" 
d="M582 549l-46 -60c-62 8 -85 6 -120 8c-129 0 -145 -37 -144 -82c1 -32 67 -62 154 -89c165 -51 194 -93 194 -171c0 -138 -77 -169 -228 -169c-183 0 -195 30 -239 63l98 111c58 -22 82 -28 143 -33c35 -3 101 -7 101 50c0 32 -61 52 -131 66c-45 7 -167 37 -167 168
c0 73 35 162 208 162c67 0 127 -13 177 -24zM302 -304v165h165v-165h-165z" />
    <glyph glyph-name="germandbls" unicode="&#xdf;" horiz-adv-x="682" 
d="M80 0l29 555c0 131 81 205 223 205c136 0 210 -77 210 -223c-98 -5 -155 -44 -155 -107c0 -31 17 -55 60 -83l28 -18c107 -69 127 -105 127 -170c0 -112 -75 -173 -212 -173c-42 0 -86 8 -134 24v119c53 -20 97 -29 139 -29c76 0 116 22 116 62c0 14 -5 27 -14 41
c-10 14 -32 31 -64 51l-40 27c-30 38 -65 85 -65 139c0 82 29 141 160 160c-51 119 -84 125 -158 125c-84 0 -126 -40 -139 -152l24 -553h-135z" />
    <glyph glyph-name="uni0282" unicode="&#x282;" horiz-adv-x="773" 
d="M426 326c165 -51 194 -93 194 -171c0 -138 -77 -169 -228 -169c-91 0 -140 7 -172 19c1 -22 3 -45 6 -61c9 -39 42 -72 111 -72c6 -38 8 -55 9 -94c-130 0 -191 83 -191 149v120h1l-3 2l98 111c58 -22 82 -28 143 -33c35 -3 101 -7 101 50c0 32 -61 52 -131 66
c-45 7 -167 37 -167 168c0 73 35 162 208 162c67 0 127 -13 177 -24l-46 -60c-62 8 -85 6 -120 8c-129 0 -145 -37 -144 -82c1 -32 67 -62 154 -89z" />
    <glyph glyph-name="uni1D74" unicode="&#x1d74;" horiz-adv-x="773" 
d="M594 241c20 -24 26 -52 26 -86c0 -138 -77 -169 -228 -169c-183 0 -195 30 -239 63l98 111c58 -22 82 -28 143 -33c35 -3 101 -7 101 50c0 16 -16 30 -41 41c-20 3 -37 9 -52 16c-12 4 -25 6 -38 9c-23 4 -67 13 -104 40c-23 -14 -23 -45 -23 -68h-82c9 61 23 91 70 103
c-17 23 -28 53 -28 93c0 73 35 162 208 162c67 0 127 -13 177 -24l-46 -60c-62 8 -85 6 -120 8c-129 0 -145 -37 -144 -82c1 -32 67 -62 154 -89c52 -16 90 -31 119 -47c3 13 1 29 2 45h68c-1 -41 -8 -67 -21 -83z" />
    <glyph glyph-name="longs" unicode="&#x17f;" horiz-adv-x="520" 
d="M156 0l15 458v89c0 168 87 263 184 263c31 0 64 -10 95 -31v-75c-31 19 -58 28 -82 28c-65 0 -103 -68 -103 -185c0 -27 2 -57 6 -89l15 -458h-130z" />
    <glyph glyph-name="t" unicode="t" horiz-adv-x="712" 
d="M380 221c-3 -89 0 -87 159 -91l19 -128c-37 -2 -213 -2 -260 -2c-34 0 -38 43 -38 50c0 19 6 204 21 430h-128l29 67h103c3 43 6 86 10 130l104 60l-7 -190h149l18 -67h-169z" />
    <glyph glyph-name="tbar" unicode="&#x167;" horiz-adv-x="712" 
d="M380 221c-3 -89 0 -87 159 -91l19 -128c-37 -2 -213 -2 -260 -2c-34 0 -38 43 -38 50c0 13 3 105 10 236h-157v103h162l6 91h-128l29 67h103c3 43 6 86 10 130l104 60l-7 -190h149l18 -67h-169l-4 -91h168v-103h-172z" />
    <glyph glyph-name="tcaron" unicode="&#x165;" horiz-adv-x="712" 
d="M521 840h79l-12 -213h-95zM390 480l-10 -259c-3 -89 0 -87 159 -91l19 -128c-37 -2 -213 -2 -260 -2c-34 0 -38 43 -38 50c0 19 6 204 21 430h-128l29 67h103c3 43 6 86 10 130l104 60l-7 -190h149l18 -67h-169z" />
    <glyph glyph-name="uni02A8" unicode="&#x2a8;" horiz-adv-x="1059" 
d="M982 180c0 -84 -94 -166 -198 -190v-3c4 -65 8 -127 8 -190h-110v188c-41 3 -75 12 -103 25l1 -8c-37 -2 -213 -2 -260 -2c-34 0 -38 43 -38 50c0 19 6 204 21 430h-128l29 67h103c3 43 6 86 10 130l104 60l-7 -190h237c26 7 54 10 84 10c27 0 64 -5 85 -12v-71
c-32 10 -77 12 -105 12c-117 0 -159 -83 -159 -216c1 -66 29 -164 126 -175v78c0 93 52 158 127 158c31 0 66 -11 102 -36c50 -35 71 -75 71 -115zM402 221c-2 -69 -1 -83 72 -88c-13 39 -18 85 -18 137c0 89 27 161 76 210h-120zM777 105c66 19 104 60 104 89
c0 9 -3 17 -11 23c-16 12 -32 19 -46 19c-27 0 -48 -26 -48 -87c0 -15 0 -30 1 -44z" />
    <glyph glyph-name="uni0163" unicode="&#x163;" horiz-adv-x="712" 
d="M558 2c-20 -1 -81 -2 -140 -2l-3 -8h35c44 0 113 -18 102 -86c-9 -55 -53 -88 -118 -88h-70l13 60c26 -6 35 -6 59 -6c41 0 74 22 74 40c0 50 -43 52 -71 52c-19 0 -42 -2 -69 -6l14 42h-86c-34 0 -38 43 -38 50c0 19 6 204 21 430h-128l29 67h103c3 43 6 86 10 130
l104 60l-7 -190h149l18 -67h-169l-10 -259c-3 -89 0 -87 159 -91z" />
    <glyph glyph-name="uni1E71" unicode="&#x1e71;" horiz-adv-x="712" 
d="M260 50c0 19 6 204 21 430h-128l29 67h103c3 43 6 86 10 130l104 60l-7 -190h149l18 -67h-169l-10 -259c-3 -89 0 -87 159 -91l19 -128c-37 -2 -213 -2 -260 -2c-34 0 -38 43 -38 50zM478 -205l132 -131h-54l-145 99l-143 -99h-54l133 131l44 64h48z" />
    <glyph glyph-name="uni021B" unicode="&#x21b;" horiz-adv-x="712" 
d="M380 221c-3 -89 0 -87 159 -91l19 -128c-37 -2 -213 -2 -260 -2c-34 0 -38 43 -38 50c0 19 6 204 21 430h-128l29 67h103c3 43 6 86 10 130l104 60l-7 -190h149l18 -67h-169zM508 -103l-78 -281h-152l51 142h-8l16 139h171z" />
    <glyph glyph-name="uni1E6B" unicode="&#x1e6b;" horiz-adv-x="712" 
d="M444 952v-165h-165v165h165zM380 221c-3 -89 0 -87 159 -91l19 -128c-37 -2 -213 -2 -260 -2c-34 0 -38 43 -38 50c0 19 6 204 21 430h-128l29 67h103c3 43 6 86 10 130l104 60l-7 -190h149l18 -67h-169z" />
    <glyph glyph-name="uni1E6D" unicode="&#x1e6d;" horiz-adv-x="712" 
d="M380 221c-3 -89 0 -87 159 -91l19 -128c-37 -2 -213 -2 -260 -2c-34 0 -38 43 -38 50c0 19 6 204 21 430h-128l29 67h103c3 43 6 86 10 130l104 60l-7 -190h149l18 -67h-169zM325 -220v165h165v-165h-165z" />
    <glyph glyph-name="uni02A7" unicode="&#x2a7;" horiz-adv-x="921" 
d="M841 962l18 -78c-32 15 -62 19 -94 11c-69 -16 -101 -67 -95 -165l18 -265l25 -269c35 -367 -59 -379 -185 -408c-41 -10 -168 -6 -242 71l121 104c41 -15 78 -19 112 -11c69 16 95 68 91 192l-24 297l-2 38h-139v1h-57l-19 -259c-6 -89 -3 -87 156 -91l14 -128
c-37 -2 -213 -2 -260 -2c-34 0 -36 43 -36 50c1 19 13 204 36 430h-128l31 67h104c4 43 9 86 14 130l106 60l-14 -190h149v-2h39l-10 161c-8 135 52 226 160 251c38 9 76 10 111 5z" />
    <glyph glyph-name="uni01AD" unicode="&#x1ad;" horiz-adv-x="712" 
d="M380 221c-3 -89 0 -87 159 -91l19 -128c-37 -2 -213 -2 -260 -2c-34 0 -38 43 -38 50c0 19 6 204 21 430h-128l29 67h103c3 35 5 70 8 105v4c0 91 61 205 191 205c-1 -53 -3 -77 -9 -129c-34 0 -59 -11 -77 -29l-6 -156h149l18 -67h-169z" />
    <glyph glyph-name="uni1E6F" unicode="&#x1e6f;" horiz-adv-x="712" 
d="M260 50c0 19 6 204 21 430h-128l29 67h103c3 43 6 86 10 130l104 60l-7 -190h149l18 -67h-169l-10 -259c-3 -89 0 -87 159 -91l19 -128c-37 -2 -213 -2 -260 -2c-34 0 -38 43 -38 50zM569 -96l23 -57l-354 -13l24 52z" />
    <glyph glyph-name="uni1D75" unicode="&#x1d75;" horiz-adv-x="712" 
d="M380 221c-3 -89 0 -87 159 -91l19 -128c-37 -2 -213 -2 -260 -2c-34 0 -38 43 -38 50c0 16 4 149 14 325h-3c-44 1 -44 -70 -44 -119h-62c9 132 26 170 106 170h6c1 18 2 36 4 54h-128l29 67h103c3 43 6 86 10 130l104 60l-7 -190h149l18 -67h-169l-6 -151
c9 -10 19 -16 31 -16c56 0 44 57 46 113h52c-2 -165 -36 -171 -97 -170c-13 0 -24 3 -34 8z" />
    <glyph glyph-name="uni0288" unicode="&#x288;" horiz-adv-x="566" 
d="M282 11c51 0 122 0 140 -1l8 -148c-37 -2 -183 -2 -230 -2c-34 0 -38 43 -38 50c0 19 22 372 43 638h-125l29 67h102c4 46 7 87 11 122h94l-6 -122h158l18 -67h-179z" />
    <glyph glyph-name="uni02A6" unicode="&#x2a6;" horiz-adv-x="1069" 
d="M755 356c165 -54 194 -99 194 -181c0 -146 -77 -179 -228 -179c-173 0 -193 28 -232 61l8 -55c-35 -2 -199 -2 -242 -2c-32 0 -36 43 -36 50c0 19 6 204 20 430h-119l14 35v34l109 -1l9 129l97 60l-7 -190h139v-1h11v-42l6 -24h-158l-9 -259c-3 -89 0 -87 148 -91l8 -60
l93 110c58 -23 82 -29 143 -35c35 -3 101 -7 101 53c0 34 -61 55 -131 70c-45 7 -167 39 -167 177c0 78 35 172 208 172c67 0 127 -14 177 -26l-46 -63c-62 8 -85 6 -120 8c-129 0 -145 -39 -144 -86c1 -34 67 -66 154 -94z" />
    <glyph glyph-name="u" unicode="u" horiz-adv-x="800" 
d="M366 -16c-123 0 -180 43 -192 232l-21 344h96l20 -263c8 -109 0 -137 117 -136c127 1 132 28 135 144l7 255h99l20 -560h-109l4 84c-34 -90 -118 -100 -176 -100z" />
    <glyph glyph-name="uacute" unicode="&#xfa;" horiz-adv-x="800" 
d="M327 678l97 197h66l-66 -197h-97zM366 -16c-123 0 -180 43 -192 232l-21 344h96l20 -263c8 -109 0 -137 117 -136c127 1 132 28 135 144l7 255h99l20 -560h-109l4 84c-34 -90 -118 -100 -176 -100z" />
    <glyph glyph-name="uni0289" unicode="&#x289;" horiz-adv-x="800" 
d="M730 330l-95 -2l12 -328h-109l4 84c-34 -90 -118 -100 -176 -100c-123 0 -180 43 -192 232l-6 103l-88 -2l45 52l40 1l-12 190h96l14 -187l260 9l5 178h99l6 -175l55 2zM521 305l1 21l-255 -5l2 -24c8 -109 0 -137 117 -136c127 1 132 28 135 144z" />
    <glyph glyph-name="uni01D4" unicode="&#x1d4;" horiz-adv-x="800" 
d="M364 719l-44 64l-133 131h54l143 -99l145 99h54l-132 -131l-39 -64h-48zM366 -16c-123 0 -180 43 -192 232l-21 344h96l20 -263c8 -109 0 -137 117 -136c127 1 132 28 135 144l7 255h99l20 -560h-109l4 84c-34 -90 -118 -100 -176 -100z" />
    <glyph glyph-name="ucircumflex" unicode="&#xfb;" horiz-adv-x="800" 
d="M367 818h48l39 -64l132 -131h-54l-145 99l-143 -99h-54l133 131zM366 -16c-123 0 -180 43 -192 232l-21 344h96l20 -263c8 -109 0 -137 117 -136c127 1 132 28 135 144l7 255h99l20 -560h-109l4 84c-34 -90 -118 -100 -176 -100z" />
    <glyph glyph-name="udieresis" unicode="&#xfc;" horiz-adv-x="800" 
d="M171 669v165h165v-165h-165zM443 669v165h165v-165h-165zM366 -16c-123 0 -180 43 -192 232l-21 344h96l20 -263c8 -109 0 -137 117 -136c127 1 132 28 135 144l7 255h99l20 -560h-109l4 84c-34 -90 -118 -100 -176 -100z" />
    <glyph glyph-name="uni01D8" unicode="&#x1d8;" horiz-adv-x="800" 
d="M339 977l97 197h66l-66 -197h-97zM171 669v165h165v-165h-165zM443 669v165h165v-165h-165zM366 -16c-123 0 -180 43 -192 232l-21 344h96l20 -263c8 -109 0 -137 117 -136c127 1 132 28 135 144l7 255h99l20 -560h-109l4 84c-34 -90 -118 -100 -176 -100z" />
    <glyph glyph-name="uni01DA" unicode="&#x1da;" horiz-adv-x="800" 
d="M368 955l-44 64l-133 131h54l143 -99l145 99h54l-132 -131l-39 -64h-48zM164 680v165h165v-165h-165zM436 680v165h165v-165h-165zM366 -16c-123 0 -180 43 -192 232l-21 344h96l20 -263c8 -109 0 -137 117 -136c127 1 132 28 135 144l7 255h99l20 -560h-109l4 84
c-34 -90 -118 -100 -176 -100z" />
    <glyph glyph-name="uni01DC" unicode="&#x1dc;" horiz-adv-x="800" 
d="M359 923l-140 135h95l207 -153zM164 680v165h165v-165h-165zM436 680v165h165v-165h-165zM366 -16c-123 0 -180 43 -192 232l-21 344h96l20 -263c8 -109 0 -137 117 -136c127 1 132 28 135 144l7 255h99l20 -560h-109l4 84c-34 -90 -118 -100 -176 -100z" />
    <glyph glyph-name="uni01D6" unicode="&#x1d6;" horiz-adv-x="800" 
d="M207 1153l386 24l29 -77l-446 -17zM171 669v165h165v-165h-165zM443 669v165h165v-165h-165zM366 -16c-123 0 -180 43 -192 232l-21 344h96l20 -263c8 -109 0 -137 117 -136c127 1 132 28 135 144l7 255h99l20 -560h-109l4 84c-34 -90 -118 -100 -176 -100z" />
    <glyph glyph-name="uni1EE5" unicode="&#x1ee5;" horiz-adv-x="800" 
d="M366 -16c-123 0 -180 43 -192 232l-21 344h96l20 -263c8 -109 0 -137 117 -136c127 1 132 28 135 144l7 255h99l20 -560h-109l4 84c-34 -90 -118 -100 -176 -100zM301 -260v165h165v-165h-165z" />
    <glyph glyph-name="ugrave" unicode="&#xf9;" horiz-adv-x="800" 
d="M331 677l-140 135h95l207 -153zM366 -16c-123 0 -180 43 -192 232l-21 344h96l20 -263c8 -109 0 -137 117 -136c127 1 132 28 135 144l7 255h99l20 -560h-109l4 84c-34 -90 -118 -100 -176 -100z" />
    <glyph glyph-name="uni1EE7" unicode="&#x1ee7;" horiz-adv-x="800" 
d="M366 692v5c0 11 1 23 4 29c7 10 16 19 30 28l22 19c12 8 20 18 20 31c0 11 -17 26 -61 26c-28 0 -54 -9 -84 -25v39c35 16 67 22 97 22c31 0 55 -6 74 -17c17 -13 30 -31 30 -48c0 -20 -13 -41 -41 -58l-20 -14c-11 -7 -14 -12 -15 -14c-4 -7 -5 -14 -5 -23h-51zM366 -16
c-123 0 -180 43 -192 232l-21 344h96l20 -263c8 -109 0 -137 117 -136c127 1 132 28 135 144l7 255h99l20 -560h-109l4 84c-34 -90 -118 -100 -176 -100z" />
    <glyph glyph-name="uhorn" unicode="&#x1b0;" horiz-adv-x="800" 
d="M724 610c3 -14 6 -26 6 -36c0 -42 -13 -95 -46 -125c-24 -20 -26 -24 -52 -36l15 -413h-109l4 84c-34 -90 -118 -100 -176 -100c-123 0 -180 43 -192 232l-21 344h96l20 -263c8 -109 0 -137 117 -136c127 1 132 28 135 144l7 255h99l3 -84c11 6 19 9 27 16
c24 22 22 73 22 91c0 12 -3 22 -8 33z" />
    <glyph glyph-name="uni1EE9" unicode="&#x1ee9;" horiz-adv-x="800" 
d="M490 875l-66 -197h-97l97 197h66zM724 610c3 -14 6 -26 6 -36c0 -42 -13 -95 -46 -125c-24 -20 -26 -24 -52 -36l15 -413h-109l4 84c-34 -90 -118 -100 -176 -100c-123 0 -180 43 -192 232l-21 344h96l20 -263c8 -109 0 -137 117 -136c127 1 132 28 135 144l7 255h99
l3 -84c11 6 19 9 27 16c24 22 22 73 22 91c0 12 -3 22 -8 33z" />
    <glyph glyph-name="uni1EF1" unicode="&#x1ef1;" horiz-adv-x="800" 
d="M724 610c3 -14 6 -26 6 -36c0 -42 -13 -95 -46 -125c-24 -20 -26 -24 -52 -36l15 -413h-109l4 84c-34 -90 -118 -100 -176 -100c-123 0 -180 43 -192 232l-21 344h96l20 -263c8 -109 0 -137 117 -136c127 1 132 28 135 144l7 255h99l3 -84c11 6 19 9 27 16
c24 22 22 73 22 91c0 12 -3 22 -8 33zM301 -260v165h165v-165h-165z" />
    <glyph glyph-name="uni1EEB" unicode="&#x1eeb;" horiz-adv-x="800" 
d="M517 669l-162 18l-140 135h95zM724 610c3 -14 6 -26 6 -36c0 -42 -13 -95 -46 -125c-24 -20 -26 -24 -52 -36l15 -413h-109l4 84c-34 -90 -118 -100 -176 -100c-123 0 -180 43 -192 232l-21 344h96l20 -263c8 -109 0 -137 117 -136c127 1 132 28 135 144l7 255h99l3 -84
c11 6 19 9 27 16c24 22 22 73 22 91c0 12 -3 22 -8 33z" />
    <glyph glyph-name="uni1EED" unicode="&#x1eed;" horiz-adv-x="800" 
d="M442 804c0 11 -17 26 -61 26c-28 0 -54 -9 -84 -25v39c35 16 67 22 97 22c31 0 55 -6 74 -17c17 -13 30 -31 30 -48c0 -20 -13 -41 -41 -58l-20 -14c-11 -7 -14 -12 -15 -14c-4 -7 -5 -14 -5 -23h-51v5c0 11 1 23 4 29c7 10 16 19 30 28l22 19c12 8 20 18 20 31zM724 610
c3 -14 6 -26 6 -36c0 -42 -13 -95 -46 -125c-24 -20 -26 -24 -52 -36l15 -413h-109l4 84c-34 -90 -118 -100 -176 -100c-123 0 -180 43 -192 232l-21 344h96l20 -263c8 -109 0 -137 117 -136c127 1 132 28 135 144l7 255h99l3 -84c11 6 19 9 27 16c24 22 22 73 22 91
c0 12 -3 22 -8 33z" />
    <glyph glyph-name="uni1EEF" unicode="&#x1eef;" horiz-adv-x="800" 
d="M316 886c-44 1 -44 -70 -44 -119h-62c9 132 26 170 106 170c75 0 94 -113 144 -113c56 0 44 57 46 113h52c-2 -165 -36 -171 -97 -170c-82 1 -103 118 -145 119zM724 610c3 -14 6 -26 6 -36c0 -42 -13 -95 -46 -125c-24 -20 -26 -24 -52 -36l15 -413h-109l4 84
c-34 -90 -118 -100 -176 -100c-123 0 -180 43 -192 232l-21 344h96l20 -263c8 -109 0 -137 117 -136c127 1 132 28 135 144l7 255h99l3 -84c11 6 19 9 27 16c24 22 22 73 22 91c0 12 -3 22 -8 33z" />
    <glyph glyph-name="uhungarumlaut" unicode="&#x171;" horiz-adv-x="800" 
d="M332 705l-162 -18l207 153h95zM515 705l-162 -18l207 153h95zM366 -16c-123 0 -180 43 -192 232l-21 344h96l20 -263c8 -109 0 -137 117 -136c127 1 132 28 135 144l7 255h99l20 -560h-109l4 84c-34 -90 -118 -100 -176 -100z" />
    <glyph glyph-name="umacron" unicode="&#x16b;" horiz-adv-x="800" 
d="M195 854l386 24l29 -77l-446 -17zM366 -16c-123 0 -180 43 -192 232l-21 344h96l20 -263c8 -109 0 -137 117 -136c127 1 132 28 135 144l7 255h99l20 -560h-109l4 84c-34 -90 -118 -100 -176 -100z" />
    <glyph glyph-name="uogonek" unicode="&#x173;" horiz-adv-x="800" 
d="M558 -157c15 0 34 2 55 5c3 -20 8 -53 11 -70c-115 -2 -183 30 -183 86c0 37 30 84 97 138l4 82c-34 -90 -118 -100 -176 -100c-123 0 -180 43 -192 232l-21 344h96l20 -263c8 -109 0 -137 117 -136c127 1 132 28 135 144l7 255h99l20 -560h-53
c-64 -59 -97 -101 -97 -126c0 -20 20 -31 61 -31z" />
    <glyph glyph-name="uni028A" unicode="&#x28a;" horiz-adv-x="858" 
d="M778 542v-95c-37 -5 -43 -5 -133 -19c64 -42 128 -74 128 -262c0 -230 -132 -378 -337 -378s-338 148 -338 378c0 185 76 220 115 262c-52 6 -97 12 -133 19v95c24 1 56 0 98 0h178c0 -42 -1 -61 -9 -123c-105 10 -145 -153 -145 -253c0 -184 91 -308 234 -308
s233 124 233 308c0 100 -60 216 -162 248c-7 53 -11 86 -11 128h164c38 0 99 4 118 0z" />
    <glyph glyph-name="uring" unicode="&#x16f;" horiz-adv-x="800" 
d="M387 717c-56 0 -102 49 -102 108s46 108 102 108s102 -49 102 -108s-46 -108 -102 -108zM387 779c32 0 58 1 58 61c0 33 -26 60 -58 60s-58 -27 -58 -60c0 -60 26 -61 58 -61zM366 -16c-123 0 -180 43 -192 232l-21 344h96l20 -263c8 -109 0 -137 117 -136
c127 1 132 28 135 144l7 255h99l20 -560h-109l4 84c-34 -90 -118 -100 -176 -100z" />
    <glyph glyph-name="utilde" unicode="&#x169;" horiz-adv-x="800" 
d="M272 767h-62c9 132 26 170 106 170c75 0 94 -113 144 -113c56 0 44 57 46 113h52c-2 -165 -36 -171 -97 -170c-82 1 -103 118 -145 119c-44 1 -44 -70 -44 -119zM366 -16c-123 0 -180 43 -192 232l-21 344h96l20 -263c8 -109 0 -137 117 -136c127 1 132 28 135 144l7 255
h99l20 -560h-109l4 84c-34 -90 -118 -100 -176 -100z" />
    <glyph glyph-name="v" unicode="v" horiz-adv-x="900" 
d="M363 0l-28 144l-182 403h95l212 -401l192 401h95l-180 -403l-20 -144h-184z" />
    <glyph glyph-name="uni028B" unicode="&#x28b;" horiz-adv-x="560" 
d="M80 216v331h85v-250c0 -157 47 -157 128 -157c97 0 98 57 98 214c0 56 11 141 -82 141v75c189 0 171 -101 171 -312c0 -97 19 -274 -187 -274c-123 0 -213 43 -213 232z" />
    <glyph glyph-name="uni1E7D" unicode="&#x1e7d;" horiz-adv-x="900" 
d="M371 729h-62c9 132 26 170 106 170c75 0 94 -113 144 -113c56 0 44 57 46 113h52c-2 -165 -36 -171 -97 -170c-82 1 -103 118 -145 119c-44 1 -44 -70 -44 -119zM363 0l-28 144l-182 403h95l212 -401l192 401h95l-180 -403l-20 -144h-184z" />
    <glyph glyph-name="uni028C" unicode="&#x28c;" horiz-adv-x="828" 
d="M324 855h231l268 -847h-128l-224 605h-53l-246 -605h-127z" />
    <glyph glyph-name="w" unicode="w" horiz-adv-x="1040" 
d="M296 0l-143 547h120l82 -339l134 185h62l134 -185l82 339h120l-143 -547h-125l-99 169l-103 -169h-121z" />
    <glyph glyph-name="wacute" unicode="&#x1e83;" horiz-adv-x="1040" 
d="M460 711l97 197h66l-66 -197h-97zM296 0l-143 547h120l82 -339l134 185h62l134 -185l82 339h120l-143 -547h-125l-99 169l-103 -169h-121z" />
    <glyph glyph-name="wcircumflex" unicode="&#x175;" horiz-adv-x="1040" 
d="M500 851h48l39 -64l132 -131h-54l-145 99l-143 -99h-54l133 131zM296 0l-143 547h120l82 -339l134 185h62l134 -185l82 339h120l-143 -547h-125l-99 169l-103 -169h-121z" />
    <glyph glyph-name="wdieresis" unicode="&#x1e85;" horiz-adv-x="1040" 
d="M304 702v165h165v-165h-165zM576 702v165h165v-165h-165zM296 0l-143 547h120l82 -339l134 185h62l134 -185l82 339h120l-143 -547h-125l-99 169l-103 -169h-121z" />
    <glyph glyph-name="wgrave" unicode="&#x1e81;" horiz-adv-x="1040" 
d="M464 710l-140 135h95l207 -153zM296 0l-143 547h120l82 -339l134 185h62l134 -185l82 339h120l-143 -547h-125l-99 169l-103 -169h-121z" />
    <glyph glyph-name="uni2C73" unicode="&#x2c73;" horiz-adv-x="894" 
d="M768 548c130 56 191 -31 191 -122v-67l-65 -127c0 36 0 106 -6 139c-4 25 -15 45 -32 56l-112 -427h-125l-99 169l-103 -169h-121l-143 547h120l82 -339l134 185h62l134 -185l82 339h1v1z" />
    <glyph glyph-name="uni028D" unicode="&#x28d;" horiz-adv-x="1040" 
d="M296 560h121l103 -169l99 169h125l143 -547h-120l-82 339l-134 -185h-62l-134 185l-82 -339h-120z" />
    <glyph glyph-name="x" unicode="x" horiz-adv-x="891" 
d="M738 0h-150l-133 206l-153 -206h-149l241 299l-169 261h116l124 -175l141 175h111l-192 -259z" />
    <glyph glyph-name="y" unicode="y" horiz-adv-x="838" 
d="M183 -258v129h63c77 0 205 79 155 182l-248 507h95l224 -381l117 381h96l-139 -594c-37 -159 -201 -224 -281 -224h-82z" />
    <glyph glyph-name="yacute" unicode="&#xfd;" horiz-adv-x="838" 
d="M370 762l97 197h66l-66 -197h-97zM183 -258v129h63c77 0 205 79 155 182l-248 507h95l224 -381l117 381h96l-139 -594c-37 -159 -201 -224 -281 -224h-82z" />
    <glyph glyph-name="ycircumflex" unicode="&#x177;" horiz-adv-x="838" 
d="M410 902h48l39 -64l132 -131h-54l-145 99l-143 -99h-54l133 131zM183 -258v129h63c77 0 205 79 155 182l-248 507h95l224 -381l117 381h96l-139 -594c-37 -159 -201 -224 -281 -224h-82z" />
    <glyph glyph-name="ydieresis" unicode="&#xff;" horiz-adv-x="838" 
d="M214 753v165h165v-165h-165zM486 753v165h165v-165h-165zM183 -258v129h63c77 0 205 79 155 182l-248 507h95l224 -381l117 381h96l-139 -594c-37 -159 -201 -224 -281 -224h-82z" />
    <glyph glyph-name="uni1EF5" unicode="&#x1ef5;" horiz-adv-x="838" 
d="M183 -258v129h63c77 0 205 79 155 182l-248 507h95l224 -381l117 381h96l-139 -594c-37 -159 -201 -224 -281 -224h-82zM643 -295v165h165v-165h-165z" />
    <glyph glyph-name="ygrave" unicode="&#x1ef3;" horiz-adv-x="838" 
d="M374 761l-140 135h95l207 -153zM183 -258v129h63c77 0 205 79 155 182l-248 507h95l224 -381l117 381h96l-139 -594c-37 -159 -201 -224 -281 -224h-82z" />
    <glyph glyph-name="uni01B4" unicode="&#x1b4;" horiz-adv-x="838" 
d="M683 553c66 -38 97 -115 97 -180v-67l-65 -99c0 36 0 106 -6 142s-23 68 -53 86l-110 -469c-37 -159 -201 -224 -281 -224h-82v129h63c77 0 205 79 155 182l-248 507h95l224 -381l117 381v18c31 0 59 -7 82 -18h14z" />
    <glyph glyph-name="uni1EF7" unicode="&#x1ef7;" horiz-adv-x="838" 
d="M409 776v5c0 11 1 23 4 29c7 10 16 19 30 28l22 19c12 8 20 18 20 31c0 11 -17 26 -61 26c-28 0 -54 -9 -84 -25v39c35 16 67 22 97 22c31 0 55 -6 74 -17c17 -13 30 -31 30 -48c0 -20 -13 -41 -41 -58l-20 -14c-11 -7 -14 -12 -15 -14c-4 -7 -5 -14 -5 -23h-51z
M183 -258v129h63c77 0 205 79 155 182l-248 507h95l224 -381l117 381h96l-139 -594c-37 -159 -201 -224 -281 -224h-82z" />
    <glyph glyph-name="uni1EF9" unicode="&#x1ef9;" horiz-adv-x="838" 
d="M315 851h-62c9 132 26 170 106 170c75 0 94 -113 144 -113c56 0 44 57 46 113h52c-2 -165 -36 -171 -97 -170c-82 1 -103 118 -145 119c-44 1 -44 -70 -44 -119zM183 -258v129h63c77 0 205 79 155 182l-248 507h95l224 -381l117 381h96l-139 -594
c-37 -159 -201 -224 -281 -224h-82z" />
    <glyph glyph-name="uni028E" unicode="&#x28e;" horiz-adv-x="772" 
d="M622 808v-129h-63c-77 0 -205 -79 -155 -182l248 -507h-95l-224 381l-117 -381h-96l139 594c37 159 201 224 281 224h82z" />
    <glyph glyph-name="z" unicode="z" horiz-adv-x="817" 
d="M153 0l24 131l351 333h-291v96h414l13 -90l-332 -349h265l57 -121h-501z" />
    <glyph glyph-name="zacute" unicode="&#x17a;" horiz-adv-x="817" 
d="M362 675l97 197h66l-66 -197h-97zM153 0l24 131l351 333h-291v96h414l13 -90l-332 -349h265l57 -121h-501z" />
    <glyph glyph-name="zcaron" unicode="&#x17e;" horiz-adv-x="817" 
d="M399 716l-44 64l-133 131h54l143 -99l145 99h54l-132 -131l-39 -64h-48zM153 0l24 131l351 333h-291v96h414l13 -90l-332 -349h265l57 -121h-501z" />
    <glyph glyph-name="uni1E91" unicode="&#x1e91;" horiz-adv-x="817" 
d="M409 866h48l39 -64l132 -131h-54l-145 99l-143 -99h-54l133 131zM153 0l24 131l351 333h-291v96h414l13 -90l-332 -349h265l57 -121h-501z" />
    <glyph glyph-name="uni0291" unicode="&#x291;" horiz-adv-x="726" 
d="M569 255c138 -36 72 -255 -60 -255h-22c-3 -50 -5 -113 -5 -193h-99c0 74 2 139 6 193h-309l24 131l378 351h-313v67h409l13 -67l-352 -361h167c26 122 78 157 163 134zM500 122c70 5 56 38 45 47c-15 12 -32 13 -45 -47z" />
    <glyph glyph-name="zdotaccent" unicode="&#x17c;" horiz-adv-x="817" 
d="M337 706v165h165v-165h-165zM153 0l24 131l351 333h-291v96h414l13 -90l-332 -349h265l57 -121h-501z" />
    <glyph glyph-name="uni1E93" unicode="&#x1e93;" horiz-adv-x="817" 
d="M153 0l24 131l351 333h-291v96h414l13 -90l-332 -349h265l57 -121h-501zM306 -266v165h165v-165h-165z" />
    <glyph glyph-name="uni1D76" unicode="&#x1d76;" horiz-adv-x="817" 
d="M521 231c-29 0 -53 5 -73 12l-116 -122h265l57 -121h-501l24 131l175 166c-14 9 -28 14 -44 14c-65 1 -65 -47 -65 -80h-91c13 89 38 115 156 115c32 0 57 -7 79 -16l141 134h-291v96h414l13 -90l-184 -193c12 -5 25 -8 40 -8c82 0 64 39 67 77h77
c-3 -112 -53 -116 -143 -115z" />
    <glyph glyph-name="uni0290" unicode="&#x290;" horiz-adv-x="679" 
d="M703 -40c4 -28 5 -38 5 -55c-60 0 -76 48 -76 90v5h-479l24 131l351 333h-291v96h414l13 -90l-332 -349h153l186 21l-6 -136c4 -25 6 -46 38 -46z" />
    <glyph glyph-name="a.ss01" horiz-adv-x="576" 
d="M283 554c143 0 213 -80 213 -245v-285v-24h-81v24v11c0 21 -10 25 -25 10c-35 -39 -82 -59 -146 -59c-99 0 -164 67 -164 171c0 122 74 185 221 185h92c14 0 22 3 22 8c0 83 -45 132 -140 139c-47 0 -92 -11 -133 -31c-15 -8 -13 -6 -26 -17v75c3 1 6 3 18 8
c52 21 102 30 149 30zM257 122c80 0 112 19 113 131c0 15 -9 23 -22 23h-51c-110 0 -144 -24 -149 -80c-1 -10 -1 -18 3 -29c13 -41 53 -45 106 -45z" />
    <glyph glyph-name="fb06" unicode="&#xfb06;" horiz-adv-x="1119" 
d="M817 222c-3 -89 0 -87 159 -91l19 -128c-37 -2 -213 -2 -260 -2c-34 0 -38 43 -38 50c0 19 6 204 21 430h-128l29 67h103c3 43 6 86 10 130l104 60l-7 -190h149l18 -67h-169zM396 326c165 -51 194 -93 194 -171c0 -138 -77 -169 -228 -169c-183 0 -195 30 -239 63l98 111
c58 -22 82 -28 143 -33c35 -3 101 -7 101 50c0 32 -61 52 -131 66c-45 7 -167 37 -167 168c0 73 35 162 208 162c67 0 127 -13 177 -24l-46 -60c-62 8 -85 6 -120 8c-129 0 -145 -37 -144 -82c1 -32 67 -62 154 -89z" />
    <glyph glyph-name="longs_t" horiz-adv-x="905" 
d="M434 779v-75c-31 19 -58 28 -82 28c-65 0 -103 -68 -103 -185c0 -27 2 -57 6 -89l15 -458h-130l15 458v89c0 168 87 263 184 263c31 0 64 -10 95 -31zM586 217c-3 -89 0 -87 159 -91l19 -128c-37 -2 -213 -2 -260 -2c-34 0 -38 43 -38 50c0 19 6 204 21 430h-128l29 67
h103c3 43 6 86 10 130l104 60l-7 -190h149l18 -67h-169z" />
    <glyph glyph-name="s_t" horiz-adv-x="1153" 
d="M834 222c-3 -89 0 -87 159 -91l19 -128c-37 -2 -213 -2 -260 -2c-34 0 -38 43 -38 50c0 19 6 204 21 430h-128l29 67h103c3 43 6 86 10 130l104 60l-7 -190h149l18 -67h-169zM413 326c165 -51 194 -93 194 -171c0 -138 -77 -169 -228 -169c-183 0 -195 30 -239 63l98 111
c58 -22 82 -28 143 -33c35 -3 101 -7 101 50c0 32 -61 52 -131 66c-45 7 -167 37 -167 168c0 73 35 162 208 162c67 0 127 -13 177 -24l-46 -60c-62 8 -85 6 -120 8c-129 0 -145 -37 -144 -82c1 -32 67 -62 154 -89z" />
    <glyph glyph-name="ordfeminine" unicode="&#xaa;" horiz-adv-x="419" 
d="M235 415c-82 0 -133 59 -113 170c20 108 80 125 110 129c41 6 70 -6 89 -36l-1 30h37l30 -286h-52v43c-20 -34 -58 -50 -100 -50zM229 494c84 0 88 59 88 84c0 80 -39 92 -74 92c-29 0 -72 -26 -82 -98c-6 -47 6 -78 68 -78z" />
    <glyph glyph-name="ordmasculine" unicode="&#xba;" horiz-adv-x="420" 
d="M253 408c-84 0 -135 61 -135 148c0 91 51 148 135 148s135 -57 135 -148c0 -87 -51 -148 -135 -148zM253 485c62 0 84 12 84 80c0 72 -32 94 -84 94s-84 -22 -84 -94c0 -68 22 -80 84 -80z" />
    <glyph glyph-name="uni01C2" unicode="&#x1c2;" horiz-adv-x="607" 
d="M498 337l29 -77l-204 -8l-12 -402h-70l12 400l-172 -7l31 70l143 9l5 153l-179 -7l31 70l150 9l5 153h70l-5 -148l166 10l29 -77l-197 -8l-4 -151z" />
    <glyph glyph-name="uni01C0" unicode="&#x1c0;" horiz-adv-x="256" 
d="M106 700h70l-26 -850h-70z" />
    <glyph glyph-name="uni01C1" unicode="&#x1c1;" horiz-adv-x="545" 
d="M106 700h70l-26 -850h-70zM395 700h70l-26 -850h-70z" />
    <glyph glyph-name="uni01C3" unicode="&#x1c3;" horiz-adv-x="428" 
d="M142 850h132c-30 -192 -30 -386 -23 -551h-80c0 222 -16 359 -29 551zM167 204h90l-15 -114h-60z" />
    <glyph glyph-name="uni02B0" unicode="&#x2b0;" horiz-adv-x="482" 
d="M384 572l10 -165h-69c27 162 23 223 -47 223c-59 0 -95 -41 -68 -223h-74l31 425h45l-12 -182c35 27 45 34 88 31s90 -13 96 -109z" />
    <glyph glyph-name="uni02B2" unicode="&#x2b2;" horiz-adv-x="414" 
d="M219 706v66h65v-66h-65zM224 400c8 26 8 85 13 262h41l-13 -252c-2 -47 -9 -66 -25 -77c-14 -12 -74 -21 -111 -13l20 41c22 -4 63 -2 75 39z" />
    <glyph glyph-name="uni02E1" unicode="&#x2e1;" horiz-adv-x="540" 
d="M157 0c-12 111 1 506 42 784h85c-27 -240 -42 -430 -32 -673h119l16 -111h-230z" />
    </font>
</defs>
</svg>
