<?xml version="1.0" standalone="no"?>
<!DOCTYPE svg PUBLIC "-//W3C//DTD SVG 1.1//EN" "http://www.w3.org/Graphics/SVG/1.1/DTD/svg11.dtd" >
<svg xmlns="http://www.w3.org/2000/svg" xmlns:xlink="http://www.w3.org/1999/xlink" version="1.1">
<metadata>
Created by FontForge 20201107 at Fri Apr 29 19:27:25 2022
 By Emric Alwyn
Copyright 2015 The Public Sans Project Authors https:github.comuswdspublic-sans
</metadata>
<defs>
<font id="PublicSans-Bold" horiz-adv-x="0" >
  <font-face 
    font-family="Public Sans"
    font-weight="700"
    font-stretch="normal"
    units-per-em="2000"
    panose-1="0 0 0 0 0 0 0 0 0 0"
    ascent="1600"
    descent="-400"
    x-height="1034"
    cap-height="1446"
    bbox="-334 -480 2599 2201"
    underline-thickness="140"
    underline-position="-440"
    stemh="238"
    stemv="292"
    unicode-range="U+000D-FB02"
  />
<missing-glyph horiz-adv-x="1315" 
d="M200 1652h918c22 0 35 -16 35 -42v-1876c0 -40 -20 -56 -65 -56h-873c-42 0 -53 16 -53 48v1880c0 30 16 46 38 46zM1051 -112v1632c0 20 -11 34 -29 34h-687zM264 1433v-1617c0 -26 10 -40 44 -40h670z" />
    <glyph glyph-name="fi" unicode="fi" horiz-adv-x="1327" 
d="M241 0v831h-191v203h191v149c0 167 103 263 282 263h237l2 -194h-137c-74 0 -97 -34 -97 -118v-100h224v-203h-218v-831h-293zM918 1182v263h284v-263h-284zM921 0v1034h279v-1034h-279z" />
    <glyph glyph-name="fl" unicode="fl" horiz-adv-x="1451" 
d="M1248 -18c-306 0 -330 159 -330 308v1196h286v-1160c0 -76 27 -126 117 -136l49 -3v-180c-40 -14 -83 -25 -122 -25zM241 0v831h-191v203h191v149c0 167 103 263 282 263h237l2 -194h-137c-74 0 -97 -34 -97 -118v-100h224v-203h-218v-831h-293z" />
    <glyph glyph-name=".notdef" horiz-adv-x="1315" 
d="M200 1652h918c22 0 35 -16 35 -42v-1876c0 -40 -20 -56 -65 -56h-873c-42 0 -53 16 -53 48v1880c0 30 16 46 38 46zM1051 -112v1632c0 20 -11 34 -29 34h-687zM264 1433v-1617c0 -26 10 -40 44 -40h670z" />
    <glyph glyph-name="A" unicode="A" horiz-adv-x="1453" 
d="M55 0l517 1446h309l517 -1446h-291l-118 335h-521l-120 -335h-293zM534 590h384l-191 575z" />
    <glyph glyph-name="Aacute" unicode="&#xc1;" horiz-adv-x="1453" 
d="M618 1567l206 291h300l-296 -291h-210zM55 0l517 1446h309l517 -1446h-291l-118 335h-521l-120 -335h-293zM534 590h384l-191 575z" />
    <glyph glyph-name="Abreve" unicode="&#x102;" horiz-adv-x="1453" 
d="M726 1566c-167 0 -315 86 -350 255h185c20 -65 79 -112 165 -112s147 47 168 112h184c-35 -167 -182 -255 -352 -255zM55 0l517 1446h309l517 -1446h-291l-118 335h-521l-120 -335h-293zM534 590h384l-191 575z" />
    <glyph glyph-name="uni1EAE" unicode="&#x1eae;" horiz-adv-x="1453" 
d="M650 1880l151 261h225l-225 -261h-151zM728 1566c-168 0 -315 86 -350 255h184c21 -65 80 -112 166 -112c85 0 147 47 168 112h183c-34 -167 -181 -255 -351 -255zM55 0l517 1446h309l517 -1446h-291l-118 335h-521l-120 -335h-293zM534 590h384l-191 575z" />
    <glyph glyph-name="uni1EB6" unicode="&#x1eb6;" horiz-adv-x="1453" 
d="M726 1566c-167 0 -315 86 -350 255h185c20 -65 79 -112 165 -112s147 47 168 112h184c-35 -167 -182 -255 -352 -255zM55 0l517 1446h309l517 -1446h-291l-118 335h-521l-120 -335h-293zM534 590h384l-191 575zM588 -398v238h279v-238h-279z" />
    <glyph glyph-name="uni1EB0" unicode="&#x1eb0;" horiz-adv-x="1453" 
d="M662 1879l-226 261h226l157 -261h-157zM728 1566c-168 0 -315 86 -350 255h184c21 -65 80 -112 166 -112c85 0 147 47 168 112h183c-34 -167 -181 -255 -351 -255zM55 0l517 1446h309l517 -1446h-291l-118 335h-521l-120 -335h-293zM534 590h384l-191 575z" />
    <glyph glyph-name="uni1EB2" unicode="&#x1eb2;" horiz-adv-x="1453" 
d="M737 1804l-69 108c52 33 74 80 46 126c-24 40 -84 41 -132 9l-69 106c50 32 101 48 149 48c70 0 131 -32 167 -88c73 -114 43 -228 -92 -309zM728 1566c-168 0 -315 86 -350 255h184c21 -65 80 -112 166 -112c85 0 147 47 168 112h183c-34 -167 -181 -255 -351 -255z
M55 0l517 1446h309l517 -1446h-291l-118 335h-521l-120 -335h-293zM534 590h384l-191 575z" />
    <glyph glyph-name="uni1EB4" unicode="&#x1eb4;" horiz-adv-x="1453" 
d="M425 1917l-45 153c48 50 101 92 192 92c112 0 205 -62 295 -62c70 0 125 37 167 69l36 -173c-42 -34 -113 -70 -202 -70c-111 0 -184 56 -286 56c-67 0 -105 -21 -157 -65zM728 1566c-168 0 -315 86 -350 255h184c21 -65 80 -112 166 -112c85 0 147 47 168 112h183
c-34 -167 -181 -255 -351 -255zM55 0l517 1446h309l517 -1446h-291l-118 335h-521l-120 -335h-293zM534 590h384l-191 575z" />
    <glyph glyph-name="Acircumflex" unicode="&#xc2;" horiz-adv-x="1453" 
d="M361 1567l265 259h201l257 -259h-228l-132 140l-146 -140h-217zM55 0l517 1446h309l517 -1446h-291l-118 335h-521l-120 -335h-293zM534 590h384l-191 575z" />
    <glyph glyph-name="uni1EA4" unicode="&#x1ea4;" horiz-adv-x="1453" 
d="M954 1810l151 262h225l-225 -262h-151zM363 1567l264 259h201l258 -259h-229l-131 140l-147 -140h-216zM55 0l517 1446h309l517 -1446h-291l-118 335h-521l-120 -335h-293zM534 590h384l-191 575z" />
    <glyph glyph-name="uni1EAC" unicode="&#x1eac;" horiz-adv-x="1453" 
d="M363 1567l264 259h201l258 -259h-229l-131 140l-147 -140h-216zM55 0l517 1446h309l517 -1446h-291l-118 335h-521l-120 -335h-293zM534 590h384l-191 575zM588 -398v238h279v-238h-279z" />
    <glyph glyph-name="uni1EA6" unicode="&#x1ea6;" horiz-adv-x="1453" 
d="M1041 1810l-227 261h226l157 -261h-156zM363 1567l264 259h201l258 -259h-229l-131 140l-147 -140h-216zM55 0l517 1446h309l517 -1446h-291l-118 335h-521l-120 -335h-293zM534 590h384l-191 575z" />
    <glyph glyph-name="uni1EA8" unicode="&#x1ea8;" horiz-adv-x="1453" 
d="M1025 1765l-68 109c52 33 74 80 46 125c-25 40 -85 41 -132 10l-69 106c122 78 255 54 316 -41c73 -113 42 -228 -93 -309zM370 1567l264 259h201l258 -259h-229l-132 140l-146 -140h-216zM55 0l517 1446h309l517 -1446h-291l-118 335h-521l-120 -335h-293zM534 590h384
l-191 575z" />
    <glyph glyph-name="uni1EAA" unicode="&#x1eaa;" horiz-adv-x="1453" 
d="M426 1918l-45 153c48 51 101 92 192 92c112 0 205 -62 295 -62c70 0 125 37 167 70l36 -174c-42 -34 -113 -70 -202 -70c-111 0 -184 56 -286 56c-67 0 -105 -21 -157 -65zM366 1567l264 259h201l258 -259h-229l-132 140l-146 -140h-216zM55 0l517 1446h309l517 -1446
h-291l-118 335h-521l-120 -335h-293zM534 590h384l-191 575z" />
    <glyph glyph-name="uni0200" unicode="&#x200;" horiz-adv-x="1453" 
d="M442 1567l-312 291h276l246 -291h-210zM795 1567l-258 291h267l201 -291h-210zM55 0l517 1446h309l517 -1446h-291l-118 335h-521l-120 -335h-293zM534 590h384l-191 575z" />
    <glyph glyph-name="Adieresis" unicode="&#xc4;" horiz-adv-x="1453" 
d="M822 1620l3 238h273l-3 -238h-273zM356 1620l3 238h273l-3 -238h-273zM55 0l517 1446h309l517 -1446h-291l-118 335h-521l-120 -335h-293zM534 590h384l-191 575z" />
    <glyph glyph-name="uni1EA0" unicode="&#x1ea0;" horiz-adv-x="1453" 
d="M55 0l517 1446h309l517 -1446h-291l-118 335h-521l-120 -335h-293zM534 590h384l-191 575zM588 -398v238h279v-238h-279z" />
    <glyph glyph-name="Agrave" unicode="&#xc0;" horiz-adv-x="1453" 
d="M619 1567l-297 291h301l206 -291h-210zM55 0l517 1446h309l517 -1446h-291l-118 335h-521l-120 -335h-293zM534 590h384l-191 575z" />
    <glyph glyph-name="uni1EA2" unicode="&#x1ea2;" horiz-adv-x="1453" 
d="M810 1565l-69 109c52 33 74 80 46 125c-25 40 -84 41 -132 10l-69 106c122 78 255 54 316 -41c73 -113 43 -228 -92 -309zM55 0l517 1446h309l517 -1446h-291l-118 335h-521l-120 -335h-293zM534 590h384l-191 575z" />
    <glyph glyph-name="uni0202" unicode="&#x202;" horiz-adv-x="1453" 
d="M374 1592c35 169 183 255 350 255c171 0 317 -88 352 -255h-184c-21 66 -82 113 -168 113s-145 -47 -165 -113h-185zM55 0l517 1446h309l517 -1446h-291l-118 335h-521l-120 -335h-293zM534 590h384l-191 575z" />
    <glyph glyph-name="Amacron" unicode="&#x100;" horiz-adv-x="1453" 
d="M375 1617v187h703v-187h-703zM55 0l517 1446h309l517 -1446h-291l-118 335h-521l-120 -335h-293zM534 590h384l-191 575z" />
    <glyph glyph-name="Aogonek" unicode="&#x104;" horiz-adv-x="1453" 
d="M55 0l517 1446h309l516 -1443h1c0 -1 -1 -1 -1 -1l1 -2h-7c-135 -50 -178 -90 -178 -143c0 -43 23 -64 72 -64c61 0 106 21 145 44v-132c-37 -23 -120 -48 -210 -48c-136 0 -218 57 -218 164c0 69 33 129 169 179h-64l-118 335h-521l-120 -335h-293zM534 590h384
l-191 575z" />
    <glyph glyph-name="Aring" unicode="&#xc5;" horiz-adv-x="1453" 
d="M727 1547c-122 0 -217 97 -217 221c0 117 97 210 217 210c121 0 218 -95 218 -214c0 -122 -97 -217 -218 -217zM725 1661c56 0 99 48 99 102c0 57 -43 99 -99 99c-54 0 -102 -42 -102 -99c0 -54 48 -102 102 -102zM55 0l517 1446h309l517 -1446h-291l-118 335h-521
l-120 -335h-293zM534 590h384l-191 575z" />
    <glyph glyph-name="Aringacute" unicode="&#x1fa;" horiz-adv-x="1453" 
d="M55 0l511 1427c-30 35 -47 80 -47 133c0 92 64 165 150 186l31 134h171l-60 -142c73 -30 124 -97 124 -182c0 -51 -18 -96 -47 -130l510 -1426h-291l-118 335h-521l-120 -335h-293zM724 1452c56 0 101 49 101 102c0 57 -45 99 -101 99c-53 0 -101 -42 -101 -99
c0 -53 48 -102 101 -102zM534 590h384l-191 575z" />
    <glyph glyph-name="Atilde" unicode="&#xc3;" horiz-adv-x="1453" 
d="M432 1603l-45 153c48 50 102 91 192 91c113 0 206 -61 296 -61c69 0 124 37 166 69l36 -173c-42 -35 -113 -70 -202 -70c-111 0 -184 55 -286 55c-67 0 -105 -21 -157 -64zM55 0l517 1446h309l517 -1446h-291l-118 335h-521l-120 -335h-293zM534 590h384l-191 575z" />
    <glyph glyph-name="AE" unicode="&#xc6;" horiz-adv-x="2080" 
d="M0 0l774 1446h1181l-1 -243h-685v-355h593v-240h-593v-364h707v-244h-1039v338h-466l-178 -338h-293zM581 590h356v665z" />
    <glyph glyph-name="AEacute" unicode="&#x1fc;" horiz-adv-x="2080" 
d="M1226 1567l206 291h301l-296 -291h-211zM0 0l774 1446h1181l-1 -243h-685v-355h593v-240h-593v-364h707v-244h-1039v338h-466l-178 -338h-293zM581 590h356v665z" />
    <glyph glyph-name="B" unicode="B" horiz-adv-x="1369" 
d="M162 0v1446h524c379 0 559 -135 559 -379c0 -144 -63 -247 -251 -326c241 -64 285 -215 285 -349c0 -267 -174 -392 -569 -392h-548zM453 848h279c119 0 231 54 231 181c0 125 -105 191 -251 191h-259v-372zM453 226h263c175 0 267 76 267 195c0 128 -108 195 -251 195
h-279v-390z" />
    <glyph glyph-name="C" unicode="C" horiz-adv-x="1436" 
d="M751 -20c-404 0 -655 300 -655 755s248 731 655 731c326 0 560 -215 589 -499h-306c-27 151 -125 259 -292 259c-202 0 -325 -138 -325 -495c0 -360 123 -511 325 -511c167 0 265 129 292 280h306c-35 -275 -182 -520 -589 -520z" />
    <glyph glyph-name="Cacute" unicode="&#x106;" horiz-adv-x="1436" 
d="M639 1567l206 291h301l-296 -291h-211zM751 -20c-404 0 -655 300 -655 755s248 731 655 731c326 0 560 -215 589 -499h-306c-27 151 -125 259 -292 259c-202 0 -325 -138 -325 -495c0 -360 123 -511 325 -511c167 0 265 129 292 280h306c-35 -275 -182 -520 -589 -520z
" />
    <glyph glyph-name="Ccaron" unicode="&#x10c;" horiz-adv-x="1436" 
d="M647 1567l-263 261h217l146 -150l132 150h228l-257 -261h-203zM751 -20c-404 0 -655 300 -655 755s248 731 655 731c326 0 560 -215 589 -499h-306c-27 151 -125 259 -292 259c-202 0 -325 -138 -325 -495c0 -360 123 -511 325 -511c167 0 265 129 292 280h306
c-35 -275 -182 -520 -589 -520z" />
    <glyph glyph-name="Ccedilla" unicode="&#xc7;" horiz-adv-x="1436" 
d="M744 -425c-84 0 -163 13 -230 54l40 98c41 -26 95 -49 154 -49c63 0 100 23 100 62c0 52 -46 80 -170 82c-17 0 -23 2 -16 19l62 142c-365 32 -588 323 -588 752c0 455 248 731 655 731c326 0 560 -215 589 -499h-306c-27 151 -125 259 -292 259
c-202 0 -325 -138 -325 -495c0 -360 123 -511 325 -511c167 0 265 129 292 280h306c-33 -261 -167 -494 -526 -518l-34 -89c151 -3 203 -86 203 -156c0 -102 -111 -162 -239 -162z" />
    <glyph glyph-name="Ccircumflex" unicode="&#x108;" horiz-adv-x="1436" 
d="M384 1567l264 259h202l257 -259h-228l-132 140l-146 -140h-217zM751 -20c-404 0 -655 300 -655 755s248 731 655 731c326 0 560 -215 589 -499h-306c-27 151 -125 259 -292 259c-202 0 -325 -138 -325 -495c0 -360 123 -511 325 -511c167 0 265 129 292 280h306
c-35 -275 -182 -520 -589 -520z" />
    <glyph glyph-name="Cdotaccent" unicode="&#x10a;" horiz-adv-x="1436" 
d="M608 1620v238h279v-238h-279zM751 -20c-404 0 -655 300 -655 755s248 731 655 731c326 0 560 -215 589 -499h-306c-27 151 -125 259 -292 259c-202 0 -325 -138 -325 -495c0 -360 123 -511 325 -511c167 0 265 129 292 280h306c-35 -275 -182 -520 -589 -520z" />
    <glyph glyph-name="D" unicode="D" horiz-adv-x="1440" 
d="M162 0v1446c30 0 308 1 432 -2c526 -13 750 -282 750 -714c0 -450 -242 -730 -760 -730h-422zM456 236h134c248 0 449 132 449 496c0 338 -171 478 -445 478h-138v-974z" />
    <glyph glyph-name="Eth" unicode="&#xd0;" horiz-adv-x="1498" 
d="M219 0v612h-149v213h149v621c31 0 309 1 433 -2c526 -13 750 -282 750 -714c0 -450 -242 -730 -760 -730h-423zM514 236h134c248 0 448 132 448 496c0 338 -170 478 -444 478h-138v-385h290v-213h-290v-376z" />
    <glyph glyph-name="Dcaron" unicode="&#x10e;" horiz-adv-x="1440" 
d="M612 1567l-263 261h217l147 -150l131 150h229l-258 -261h-203zM162 0v1446c30 0 308 1 432 -2c526 -13 750 -282 750 -714c0 -450 -242 -730 -760 -730h-422zM456 236h134c248 0 449 132 449 496c0 338 -171 478 -445 478h-138v-974z" />
    <glyph glyph-name="Dcroat" unicode="&#x110;" horiz-adv-x="1498" 
d="M219 0v612h-149v213h149v621c31 0 309 1 433 -2c526 -13 750 -282 750 -714c0 -450 -242 -730 -760 -730h-423zM514 236h134c248 0 448 132 448 496c0 338 -170 478 -444 478h-138v-385h290v-213h-290v-376z" />
    <glyph glyph-name="uni1E0C" unicode="&#x1e0c;" horiz-adv-x="1440" 
d="M162 0v1446c30 0 308 1 432 -2c526 -13 750 -282 750 -714c0 -450 -242 -730 -760 -730h-422zM456 236h134c248 0 449 132 449 496c0 338 -171 478 -445 478h-138v-974zM569 -398v238h279v-238h-279z" />
    <glyph glyph-name="E" unicode="E" horiz-adv-x="1269" 
d="M162 0v1446h993l-1 -246h-699v-351h607v-241h-609v-359l712 -1v-248h-1003z" />
    <glyph glyph-name="Eacute" unicode="&#xc9;" horiz-adv-x="1269" 
d="M551 1567l206 291h300l-296 -291h-210zM162 0v1446h993l-1 -246h-699v-351h607v-241h-609v-359l712 -1v-248h-1003z" />
    <glyph glyph-name="Ebreve" unicode="&#x114;" horiz-adv-x="1269" 
d="M659 1566c-168 0 -315 86 -350 255h184c21 -65 80 -112 166 -112c85 0 147 47 168 112h184c-35 -167 -182 -255 -352 -255zM162 0v1446h993l-1 -246h-699v-351h607v-241h-609v-359l712 -1v-248h-1003z" />
    <glyph glyph-name="Ecaron" unicode="&#x11a;" horiz-adv-x="1269" 
d="M558 1567l-263 261h217l147 -150l131 150h229l-258 -261h-203zM162 0v1446h993l-1 -246h-699v-351h607v-241h-609v-359l712 -1v-248h-1003z" />
    <glyph glyph-name="Ecircumflex" unicode="&#xca;" horiz-adv-x="1269" 
d="M296 1567l264 259h201l258 -259h-229l-131 140l-147 -140h-216zM162 0v1446h993l-1 -246h-699v-351h607v-241h-609v-359l712 -1v-248h-1003z" />
    <glyph glyph-name="uni1EBE" unicode="&#x1ebe;" horiz-adv-x="1269" 
d="M887 1810l151 262h225l-225 -262h-151zM296 1567l264 259h201l258 -259h-229l-131 140l-147 -140h-216zM162 0v1446h993l-1 -246h-699v-351h607v-241h-609v-359l712 -1v-248h-1003z" />
    <glyph glyph-name="uni1EC6" unicode="&#x1ec6;" horiz-adv-x="1269" 
d="M296 1567l264 259h201l258 -259h-229l-131 140l-147 -140h-216zM162 0v1446h993l-1 -246h-699v-351h607v-241h-609v-359l712 -1v-248h-1003zM538 -398v238h279v-238h-279z" />
    <glyph glyph-name="uni1EC0" unicode="&#x1ec0;" horiz-adv-x="1269" 
d="M974 1810l-227 261h226l157 -261h-156zM296 1567l264 259h201l258 -259h-229l-131 140l-147 -140h-216zM162 0v1446h993l-1 -246h-699v-351h607v-241h-609v-359l712 -1v-248h-1003z" />
    <glyph glyph-name="uni1EC2" unicode="&#x1ec2;" horiz-adv-x="1269" 
d="M958 1765l-68 109c52 33 74 80 46 125c-25 40 -85 41 -132 10l-69 106c122 78 255 54 316 -41c73 -113 42 -228 -93 -309zM303 1567l264 259h201l258 -259h-229l-132 140l-146 -140h-216zM162 0v1446h993l-1 -246h-699v-351h607v-241h-609v-359l712 -1v-248h-1003z" />
    <glyph glyph-name="uni1EC4" unicode="&#x1ec4;" horiz-adv-x="1269" 
d="M358 1918l-44 153c48 51 101 92 192 92c112 0 205 -62 295 -62c70 0 124 37 167 70l36 -174c-42 -34 -113 -70 -202 -70c-112 0 -185 56 -287 56c-66 0 -105 -21 -157 -65zM298 1567l265 259h201l257 -259h-228l-132 140l-146 -140h-217zM162 0v1446h993l-1 -246h-699
v-351h607v-241h-609v-359l712 -1v-248h-1003z" />
    <glyph glyph-name="uni0204" unicode="&#x204;" horiz-adv-x="1269" 
d="M375 1567l-312 291h276l246 -291h-210zM728 1567l-258 291h267l201 -291h-210zM162 0v1446h993l-1 -246h-699v-351h607v-241h-609v-359l712 -1v-248h-1003z" />
    <glyph glyph-name="Edieresis" unicode="&#xcb;" horiz-adv-x="1269" 
d="M755 1620l3 238h273l-3 -238h-273zM289 1620l3 238h273l-3 -238h-273zM162 0v1446h993l-1 -246h-699v-351h607v-241h-609v-359l712 -1v-248h-1003z" />
    <glyph glyph-name="Edotaccent" unicode="&#x116;" horiz-adv-x="1269" 
d="M520 1620v238h279v-238h-279zM162 0v1446h993l-1 -246h-699v-351h607v-241h-609v-359l712 -1v-248h-1003z" />
    <glyph glyph-name="uni1EB8" unicode="&#x1eb8;" horiz-adv-x="1269" 
d="M162 0v1446h993l-1 -246h-699v-351h607v-241h-609v-359l712 -1v-248h-1003zM538 -398v238h279v-238h-279z" />
    <glyph glyph-name="Egrave" unicode="&#xc8;" horiz-adv-x="1269" 
d="M552 1567l-297 291h301l206 -291h-210zM162 0v1446h993l-1 -246h-699v-351h607v-241h-609v-359l712 -1v-248h-1003z" />
    <glyph glyph-name="uni1EBA" unicode="&#x1eba;" horiz-adv-x="1269" 
d="M743 1565l-69 109c52 33 74 80 46 125c-25 40 -84 41 -132 10l-69 106c122 78 255 54 316 -41c73 -113 43 -228 -92 -309zM162 0v1446h993l-1 -246h-699v-351h607v-241h-609v-359l712 -1v-248h-1003z" />
    <glyph glyph-name="uni0206" unicode="&#x206;" horiz-adv-x="1269" 
d="M307 1592c35 169 183 255 350 255c170 0 317 -88 352 -255h-184c-21 66 -82 113 -168 113s-145 -47 -165 -113h-185zM162 0v1446h993l-1 -246h-699v-351h607v-241h-609v-359l712 -1v-248h-1003z" />
    <glyph glyph-name="Emacron" unicode="&#x112;" horiz-adv-x="1269" 
d="M308 1617v187h703v-187h-703zM162 0v1446h993l-1 -246h-699v-351h607v-241h-609v-359l712 -1v-248h-1003z" />
    <glyph glyph-name="Eogonek" unicode="&#x118;" horiz-adv-x="1269" 
d="M162 0v1446h993l-1 -246h-699v-351h607v-241h-609v-359l712 -1v-239l29 -1c-141 -51 -185 -91 -185 -145c0 -43 23 -64 72 -64c61 0 106 21 145 43v-132c-37 -23 -120 -47 -210 -47c-136 0 -218 57 -218 164c0 66 31 124 155 173h-791z" />
    <glyph glyph-name="uni1EBC" unicode="&#x1ebc;" horiz-adv-x="1269" 
d="M365 1603l-45 153c48 50 101 91 192 91c112 0 205 -61 296 -61c69 0 124 37 166 69l36 -173c-42 -35 -113 -70 -202 -70c-111 0 -184 55 -286 55c-67 0 -105 -21 -157 -64zM162 0v1446h993l-1 -246h-699v-351h607v-241h-609v-359l712 -1v-248h-1003z" />
    <glyph glyph-name="F" unicode="F" horiz-adv-x="1227" 
d="M162 0v1446h984l-1 -244h-689v-363h597v-239h-597v-600h-294z" />
    <glyph glyph-name="G" unicode="G" horiz-adv-x="1518" 
d="M747 -20c-398 0 -651 287 -651 739c0 460 267 747 667 747c343 0 580 -242 591 -499h-308c-27 138 -131 252 -290 252c-193 0 -342 -139 -342 -492c0 -382 173 -490 354 -490c171 0 270 128 285 231l11 88h-299v202l605 -3v-755h-199v189c-75 -99 -190 -209 -424 -209z
" />
    <glyph glyph-name="Gbreve" unicode="&#x11e;" horiz-adv-x="1518" 
d="M754 1566c-167 0 -315 86 -350 255h185c20 -65 79 -112 165 -112s147 47 168 112h184c-35 -167 -182 -255 -352 -255zM747 -20c-398 0 -651 287 -651 739c0 460 267 747 667 747c343 0 580 -242 591 -499h-308c-27 138 -131 252 -290 252c-193 0 -342 -139 -342 -492
c0 -382 173 -490 354 -490c171 0 270 128 285 231l11 88h-299v202l605 -3v-755h-199v189c-75 -99 -190 -209 -424 -209z" />
    <glyph glyph-name="Gcircumflex" unicode="&#x11c;" horiz-adv-x="1518" 
d="M391 1567l264 259h201l258 -259h-229l-131 140l-147 -140h-216zM747 -20c-398 0 -651 287 -651 739c0 460 267 747 667 747c343 0 580 -242 591 -499h-308c-27 138 -131 252 -290 252c-193 0 -342 -139 -342 -492c0 -382 173 -490 354 -490c171 0 270 128 285 231l11 88
h-299v202l605 -3v-755h-199v189c-75 -99 -190 -209 -424 -209z" />
    <glyph glyph-name="uni0122" unicode="&#x122;" horiz-adv-x="1518" 
d="M747 -20c-398 0 -651 287 -651 739c0 460 267 747 667 747c343 0 580 -242 591 -499h-308c-27 138 -131 252 -290 252c-193 0 -342 -139 -342 -492c0 -382 173 -490 354 -490c171 0 270 128 285 231l11 88h-299v202l605 -3v-755h-199v189c-75 -99 -190 -209 -424 -209z
M613 -440l91 149l-80 10v187h249v-156l-157 -190h-103z" />
    <glyph glyph-name="Gdotaccent" unicode="&#x120;" horiz-adv-x="1518" 
d="M615 1620v238h279v-238h-279zM747 -20c-398 0 -651 287 -651 739c0 460 267 747 667 747c343 0 580 -242 591 -499h-308c-27 138 -131 252 -290 252c-193 0 -342 -139 -342 -492c0 -382 173 -490 354 -490c171 0 270 128 285 231l11 88h-299v202l605 -3v-755h-199v189
c-75 -99 -190 -209 -424 -209z" />
    <glyph glyph-name="H" unicode="H" horiz-adv-x="1540" 
d="M162 0v1446h291v-580h633v580h292v-1446h-292v621h-633v-621h-291z" />
    <glyph glyph-name="Hbar" unicode="&#x126;" horiz-adv-x="1649" 
d="M224 0v1096h-190v164h190v186h292v-186h633v186h292v-186h174v-164h-174v-1096h-292v621h-633v-621h-292zM516 866h633v230h-633v-230z" />
    <glyph glyph-name="Hcircumflex" unicode="&#x124;" horiz-adv-x="1540" 
d="M407 1571l264 259h201l258 -259h-229l-132 140l-146 -140h-216zM162 0v1446h291v-580h633v580h292v-1446h-292v621h-633v-621h-291z" />
    <glyph glyph-name="uni1E24" unicode="&#x1e24;" horiz-adv-x="1540" 
d="M162 0v1446h291v-580h633v580h292v-1446h-292v621h-633v-621h-291zM639 -398v238h279v-238h-279z" />
    <glyph glyph-name="I" unicode="I" horiz-adv-x="615" 
d="M162 0v1446h291v-1446h-291z" />
    <glyph glyph-name="Iacute" unicode="&#xcd;" horiz-adv-x="615" 
d="M199 1567l206 291h301l-296 -291h-211zM162 0v1446h291v-1446h-291z" />
    <glyph glyph-name="Ibreve" unicode="&#x12c;" horiz-adv-x="615" 
d="M308 1566c-168 0 -315 86 -350 255h184c21 -65 79 -112 166 -112c85 0 146 47 168 112h183c-34 -167 -181 -255 -351 -255zM162 0v1446h291v-1446h-291z" />
    <glyph glyph-name="Icircumflex" unicode="&#xce;" horiz-adv-x="615" 
d="M-55 1567l264 259h201l258 -259h-229l-132 140l-146 -140h-216zM162 0v1446h291v-1446h-291z" />
    <glyph glyph-name="uni0208" unicode="&#x208;" horiz-adv-x="615" 
d="M24 1567l-312 291h276l246 -291h-210zM377 1567l-258 291h267l201 -291h-210zM162 0v1446h291v-1446h-291z" />
    <glyph glyph-name="Idieresis" unicode="&#xcf;" horiz-adv-x="615" 
d="M404 1620l2 238h274l-3 -238h-273zM-62 1620l2 238h274l-3 -238h-273zM162 0v1446h291v-1446h-291z" />
    <glyph glyph-name="Idotaccent" unicode="&#x130;" horiz-adv-x="615" 
d="M169 1620v238h279v-238h-279zM162 0v1446h291v-1446h-291z" />
    <glyph glyph-name="uni1ECA" unicode="&#x1eca;" horiz-adv-x="615" 
d="M162 0v1446h291v-1446h-291zM184 -398v238h279v-238h-279z" />
    <glyph glyph-name="Igrave" unicode="&#xcc;" horiz-adv-x="615" 
d="M201 1567l-297 291h301l206 -291h-210zM162 0v1446h291v-1446h-291z" />
    <glyph glyph-name="uni1EC8" unicode="&#x1ec8;" horiz-adv-x="615" 
d="M392 1565l-69 109c52 33 74 80 46 125c-25 40 -85 41 -132 10l-69 106c122 78 255 54 316 -41c73 -113 43 -228 -92 -309zM162 0v1446h291v-1446h-291z" />
    <glyph glyph-name="uni020A" unicode="&#x20a;" horiz-adv-x="615" 
d="M-44 1592c35 169 182 255 350 255c170 0 317 -88 352 -255h-184c-21 66 -83 113 -168 113c-86 0 -145 -47 -166 -113h-184zM162 0v1446h291v-1446h-291z" />
    <glyph glyph-name="Imacron" unicode="&#x12a;" horiz-adv-x="615" 
d="M-43 1617v187h703v-187h-703zM162 0v1446h291v-1446h-291z" />
    <glyph glyph-name="Iogonek" unicode="&#x12e;" horiz-adv-x="615" 
d="M162 0v1446h291v-1446h-2c-141 -52 -185 -91 -185 -145c0 -43 23 -65 72 -65c61 0 107 22 145 44v-132c-37 -23 -120 -48 -210 -48c-136 0 -218 57 -218 165c0 69 34 130 177 181h-70z" />
    <glyph glyph-name="Itilde" unicode="&#x128;" horiz-adv-x="615" 
d="M14 1603l-45 153c48 50 101 91 192 91c112 0 205 -61 295 -61c70 0 125 37 167 69l36 -173c-42 -35 -113 -70 -202 -70c-111 0 -184 55 -286 55c-67 0 -105 -21 -157 -64zM162 0v1446h291v-1446h-291z" />
    <glyph glyph-name="J" unicode="J" horiz-adv-x="804" 
d="M304 -20c-92 0 -203 20 -249 32l6 267c39 -9 89 -26 150 -26c134 0 171 67 171 227v966h292v-1044c0 -277 -71 -422 -370 -422z" />
    <glyph glyph-name="Jcircumflex" unicode="&#x134;" horiz-adv-x="804" 
d="M157 1567l265 259h201l257 -259h-228l-132 140l-146 -140h-217zM304 -20c-92 0 -203 20 -249 32l6 267c39 -9 89 -26 150 -26c134 0 171 67 171 227v966h292v-1044c0 -277 -71 -422 -370 -422z" />
    <glyph glyph-name="K" unicode="K" horiz-adv-x="1434" 
d="M162 0v1446h303v-662l527 662h335l-439 -560l492 -886h-318l-383 673l-214 -258v-415h-303z" />
    <glyph glyph-name="uni0136" unicode="&#x136;" horiz-adv-x="1434" 
d="M162 0v1446h303v-662l527 662h335l-439 -560l492 -886h-318l-383 673l-214 -258v-415h-303zM566 -440l91 149l-80 10v187h249v-156l-157 -190h-103z" />
    <glyph glyph-name="L" unicode="L" horiz-adv-x="1155" 
d="M162 0v1446h294v-1199h628v-247h-922z" />
    <glyph glyph-name="Lacute" unicode="&#x139;" horiz-adv-x="1155" 
d="M194 1567l206 291h301l-296 -291h-211zM162 0v1446h294v-1199h628v-247h-922z" />
    <glyph glyph-name="Lcaron" unicode="&#x13d;" horiz-adv-x="1155" 
d="M162 0v1446h294v-1199h628v-247h-922zM783 1010l81 202l-71 12v222h200v-233l-86 -203h-124z" />
    <glyph glyph-name="uni013B" unicode="&#x13b;" horiz-adv-x="1155" 
d="M162 0v1446h294v-1199h628v-247h-922zM479 -440l92 149l-80 10v187h248v-156l-156 -190h-104z" />
    <glyph glyph-name="Ldot" unicode="&#x13f;" horiz-adv-x="1155" 
d="M162 0v1446h294v-1199h628v-247h-922zM736 658v288h299v-288h-299z" />
    <glyph glyph-name="Lslash" unicode="&#x141;" horiz-adv-x="1180" 
d="M186 0v617l-177 -49v242l177 47l1 589h293v-512l310 82v-231l-310 -86v-452h628v-247h-922z" />
    <glyph glyph-name="M" unicode="M" horiz-adv-x="1835" 
d="M162 0v1446h424l331 -1031l334 1031h423v-1446h-295v1106l-348 -1106h-229l-346 1101v-1101h-294z" />
    <glyph glyph-name="N" unicode="N" horiz-adv-x="1564" 
d="M162 0v1446h289l660 -957v957h292v-1446h-263l-687 995v-995h-291z" />
    <glyph glyph-name="Nacute" unicode="&#x143;" horiz-adv-x="1564" 
d="M672 1567l206 291h301l-296 -291h-211zM162 0v1446h289l660 -957v957h292v-1446h-263l-687 995v-995h-291z" />
    <glyph glyph-name="Ncaron" unicode="&#x147;" horiz-adv-x="1564" 
d="M680 1567l-263 261h217l146 -150l132 150h228l-257 -261h-203zM162 0v1446h289l660 -957v957h292v-1446h-263l-687 995v-995h-291z" />
    <glyph glyph-name="uni0145" unicode="&#x145;" horiz-adv-x="1564" 
d="M162 0v1446h289l660 -957v957h292v-1446h-263l-687 995v-995h-291zM631 -440l91 149l-80 10v187h248v-156l-156 -190h-103z" />
    <glyph glyph-name="uni1E44" unicode="&#x1e44;" horiz-adv-x="1564" 
d="M642 1620v238h278v-238h-278zM162 0v1446h289l660 -957v957h292v-1446h-263l-687 995v-995h-291z" />
    <glyph glyph-name="Eng" unicode="&#x14a;" horiz-adv-x="1564" 
d="M1031 -480c-92 0 -203 20 -249 32l7 267c38 -9 88 -26 149 -26c118 0 171 52 171 180v71l-656 951v-995h-291v1446h289l660 -957v957h292l-1 -1502c0 -302 -91 -424 -371 -424z" />
    <glyph glyph-name="Ntilde" unicode="&#xd1;" horiz-adv-x="1564" 
d="M486 1603l-44 153c48 50 101 91 192 91c112 0 205 -61 295 -61c70 0 124 37 167 69l36 -173c-42 -35 -113 -70 -202 -70c-112 0 -185 55 -287 55c-66 0 -105 -21 -157 -64zM162 0v1446h289l660 -957v957h292v-1446h-263l-687 995v-995h-291z" />
    <glyph glyph-name="O" unicode="O" horiz-adv-x="1521" 
d="M763 -20c-410 0 -667 280 -667 740c0 462 263 746 667 746c402 0 662 -283 662 -746c0 -458 -255 -740 -662 -740zM763 220c211 0 345 143 345 496c0 361 -135 510 -345 510s-347 -150 -347 -510c0 -353 137 -496 347 -496z" />
    <glyph glyph-name="Oacute" unicode="&#xd3;" horiz-adv-x="1521" 
d="M653 1567l206 291h301l-297 -291h-210zM763 -20c-410 0 -667 280 -667 740c0 462 263 746 667 746c402 0 662 -283 662 -746c0 -458 -255 -740 -662 -740zM763 220c211 0 345 143 345 496c0 361 -135 510 -345 510s-347 -150 -347 -510c0 -353 137 -496 347 -496z" />
    <glyph glyph-name="Obreve" unicode="&#x14e;" horiz-adv-x="1521" 
d="M761 1566c-167 0 -315 86 -350 255h185c20 -65 79 -112 165 -112s147 47 168 112h184c-35 -167 -181 -255 -352 -255zM763 -20c-410 0 -667 280 -667 740c0 462 263 746 667 746c402 0 662 -283 662 -746c0 -458 -255 -740 -662 -740zM763 220c211 0 345 143 345 496
c0 361 -135 510 -345 510s-347 -150 -347 -510c0 -353 137 -496 347 -496z" />
    <glyph glyph-name="Ocircumflex" unicode="&#xd4;" horiz-adv-x="1521" 
d="M398 1567l264 259h202l257 -259h-229l-131 140l-147 -140h-216zM763 -20c-410 0 -667 280 -667 740c0 462 263 746 667 746c402 0 662 -283 662 -746c0 -458 -255 -740 -662 -740zM763 220c211 0 345 143 345 496c0 361 -135 510 -345 510s-347 -150 -347 -510
c0 -353 137 -496 347 -496z" />
    <glyph glyph-name="uni1ED0" unicode="&#x1ed0;" horiz-adv-x="1521" 
d="M989 1810l152 262h224l-224 -262h-152zM398 1567l264 259h202l257 -259h-229l-131 140l-147 -140h-216zM763 -20c-410 0 -667 280 -667 740c0 462 263 746 667 746c402 0 662 -283 662 -746c0 -458 -255 -740 -662 -740zM763 220c211 0 345 143 345 496
c0 361 -135 510 -345 510s-347 -150 -347 -510c0 -353 137 -496 347 -496z" />
    <glyph glyph-name="uni1ED8" unicode="&#x1ed8;" horiz-adv-x="1521" 
d="M398 1567l264 259h202l257 -259h-229l-131 140l-147 -140h-216zM763 -20c-410 0 -667 280 -667 740c0 462 263 746 667 746c402 0 662 -283 662 -746c0 -458 -255 -740 -662 -740zM763 220c211 0 345 143 345 496c0 361 -135 510 -345 510s-347 -150 -347 -510
c0 -353 137 -496 347 -496zM626 -398v238h279v-238h-279z" />
    <glyph glyph-name="uni1ED2" unicode="&#x1ed2;" horiz-adv-x="1521" 
d="M1076 1810l-227 261h226l157 -261h-156zM398 1567l264 259h202l257 -259h-229l-131 140l-147 -140h-216zM763 -20c-410 0 -667 280 -667 740c0 462 263 746 667 746c402 0 662 -283 662 -746c0 -458 -255 -740 -662 -740zM763 220c211 0 345 143 345 496
c0 361 -135 510 -345 510s-347 -150 -347 -510c0 -353 137 -496 347 -496z" />
    <glyph glyph-name="uni1ED4" unicode="&#x1ed4;" horiz-adv-x="1521" 
d="M1061 1765l-69 109c52 33 74 80 46 125c-25 40 -84 41 -132 10l-69 106c122 78 255 54 316 -41c73 -113 43 -228 -92 -309zM405 1567l264 259h201l258 -259h-229l-131 140l-147 -140h-216zM763 -20c-410 0 -667 280 -667 740c0 462 263 746 667 746
c402 0 662 -283 662 -746c0 -458 -255 -740 -662 -740zM763 220c211 0 345 143 345 496c0 361 -135 510 -345 510s-347 -150 -347 -510c0 -353 137 -496 347 -496z" />
    <glyph glyph-name="uni1ED6" unicode="&#x1ed6;" horiz-adv-x="1521" 
d="M461 1918l-45 153c48 51 101 92 192 92c112 0 205 -62 296 -62c69 0 124 37 166 70l36 -174c-42 -34 -113 -70 -202 -70c-111 0 -184 56 -286 56c-67 0 -105 -21 -157 -65zM401 1567l264 259h201l258 -259h-229l-131 140l-147 -140h-216zM763 -20
c-410 0 -667 280 -667 740c0 462 263 746 667 746c402 0 662 -283 662 -746c0 -458 -255 -740 -662 -740zM763 220c211 0 345 143 345 496c0 361 -135 510 -345 510s-347 -150 -347 -510c0 -353 137 -496 347 -496z" />
    <glyph glyph-name="uni020C" unicode="&#x20c;" horiz-adv-x="1521" 
d="M477 1567l-311 291h275l247 -291h-211zM830 1567l-257 291h266l201 -291h-210zM763 -20c-410 0 -667 280 -667 740c0 462 263 746 667 746c402 0 662 -283 662 -746c0 -458 -255 -740 -662 -740zM763 220c211 0 345 143 345 496c0 361 -135 510 -345 510
s-347 -150 -347 -510c0 -353 137 -496 347 -496z" />
    <glyph glyph-name="Odieresis" unicode="&#xd6;" horiz-adv-x="1521" 
d="M857 1620l3 238h273l-2 -238h-274zM391 1620l3 238h273l-2 -238h-274zM763 -20c-410 0 -667 280 -667 740c0 462 263 746 667 746c402 0 662 -283 662 -746c0 -458 -255 -740 -662 -740zM763 220c211 0 345 143 345 496c0 361 -135 510 -345 510s-347 -150 -347 -510
c0 -353 137 -496 347 -496z" />
    <glyph glyph-name="uni1ECC" unicode="&#x1ecc;" horiz-adv-x="1521" 
d="M763 -20c-410 0 -667 280 -667 740c0 462 263 746 667 746c402 0 662 -283 662 -746c0 -458 -255 -740 -662 -740zM763 220c211 0 345 143 345 496c0 361 -135 510 -345 510s-347 -150 -347 -510c0 -353 137 -496 347 -496zM626 -398v238h279v-238h-279z" />
    <glyph glyph-name="Ograve" unicode="&#xd2;" horiz-adv-x="1521" 
d="M654 1567l-296 291h300l206 -291h-210zM763 -20c-410 0 -667 280 -667 740c0 462 263 746 667 746c402 0 662 -283 662 -746c0 -458 -255 -740 -662 -740zM763 220c211 0 345 143 345 496c0 361 -135 510 -345 510s-347 -150 -347 -510c0 -353 137 -496 347 -496z" />
    <glyph glyph-name="uni1ECE" unicode="&#x1ece;" horiz-adv-x="1521" 
d="M845 1565l-69 109c52 33 74 80 46 125c-24 40 -84 41 -132 10l-69 106c122 78 255 54 316 -41c73 -113 43 -228 -92 -309zM763 -20c-410 0 -667 280 -667 740c0 462 263 746 667 746c402 0 662 -283 662 -746c0 -458 -255 -740 -662 -740zM763 220c211 0 345 143 345 496
c0 361 -135 510 -345 510s-347 -150 -347 -510c0 -353 137 -496 347 -496z" />
    <glyph glyph-name="Ohorn" unicode="&#x1a0;" horiz-adv-x="1670" 
d="M763 -20c-410 0 -667 280 -667 740c0 462 263 746 667 746c197 0 360 -68 474 -191c124 0 170 7 185 210h193c-2 -243 -67 -354 -275 -360c55 -109 85 -246 85 -405c0 -458 -255 -740 -662 -740zM763 220c211 0 345 143 345 496c0 361 -135 510 -345 510
s-347 -150 -347 -510c0 -353 137 -496 347 -496z" />
    <glyph glyph-name="uni1EDA" unicode="&#x1eda;" horiz-adv-x="1670" 
d="M653 1567l206 291h301l-297 -291h-210zM763 -20c-410 0 -667 280 -667 740c0 462 263 746 667 746c197 0 360 -68 474 -191c124 0 170 7 185 210h193c-2 -243 -67 -354 -275 -360c55 -109 85 -246 85 -405c0 -458 -255 -740 -662 -740zM763 220c211 0 345 143 345 496
c0 361 -135 510 -345 510s-347 -150 -347 -510c0 -353 137 -496 347 -496z" />
    <glyph glyph-name="uni1EE2" unicode="&#x1ee2;" horiz-adv-x="1670" 
d="M763 -20c-410 0 -667 280 -667 740c0 462 263 746 667 746c197 0 360 -68 474 -191c124 0 170 7 185 210h193c-2 -243 -67 -354 -275 -360c55 -109 85 -246 85 -405c0 -458 -255 -740 -662 -740zM763 220c211 0 345 143 345 496c0 361 -135 510 -345 510
s-347 -150 -347 -510c0 -353 137 -496 347 -496zM626 -398v238h279v-238h-279z" />
    <glyph glyph-name="uni1EDC" unicode="&#x1edc;" horiz-adv-x="1670" 
d="M654 1567l-296 291h300l206 -291h-210zM763 -20c-410 0 -667 280 -667 740c0 462 263 746 667 746c197 0 360 -68 474 -191c124 0 170 7 185 210h193c-2 -243 -67 -354 -275 -360c55 -109 85 -246 85 -405c0 -458 -255 -740 -662 -740zM763 220c211 0 345 143 345 496
c0 361 -135 510 -345 510s-347 -150 -347 -510c0 -353 137 -496 347 -496z" />
    <glyph glyph-name="uni1EDE" unicode="&#x1ede;" horiz-adv-x="1670" 
d="M845 1565l-69 109c52 33 74 80 46 125c-24 40 -84 41 -132 10l-69 106c122 78 255 54 316 -41c73 -113 43 -228 -92 -309zM763 -20c-410 0 -667 280 -667 740c0 462 263 746 667 746c197 0 360 -68 474 -191c124 0 170 7 185 210h193c-2 -243 -67 -354 -275 -360
c55 -109 85 -246 85 -405c0 -458 -255 -740 -662 -740zM763 220c211 0 345 143 345 496c0 361 -135 510 -345 510s-347 -150 -347 -510c0 -353 137 -496 347 -496z" />
    <glyph glyph-name="uni1EE0" unicode="&#x1ee0;" horiz-adv-x="1670" 
d="M467 1603l-45 153c49 50 102 91 193 91c112 0 205 -61 295 -61c69 0 124 37 166 69l36 -173c-41 -35 -112 -70 -201 -70c-112 0 -185 55 -287 55c-67 0 -105 -21 -157 -64zM763 -20c-410 0 -667 280 -667 740c0 462 263 746 667 746c197 0 360 -68 474 -191
c124 0 170 7 185 210h193c-2 -243 -67 -354 -275 -360c55 -109 85 -246 85 -405c0 -458 -255 -740 -662 -740zM763 220c211 0 345 143 345 496c0 361 -135 510 -345 510s-347 -150 -347 -510c0 -353 137 -496 347 -496z" />
    <glyph glyph-name="Ohungarumlaut" unicode="&#x150;" horiz-adv-x="1521" 
d="M835 1567l246 291h276l-312 -291h-210zM482 1567l201 291h266l-257 -291h-210zM763 -20c-410 0 -667 280 -667 740c0 462 263 746 667 746c402 0 662 -283 662 -746c0 -458 -255 -740 -662 -740zM763 220c211 0 345 143 345 496c0 361 -135 510 -345 510
s-347 -150 -347 -510c0 -353 137 -496 347 -496z" />
    <glyph glyph-name="uni020E" unicode="&#x20e;" horiz-adv-x="1521" 
d="M409 1592c35 169 183 255 350 255c171 0 317 -88 352 -255h-183c-22 66 -83 113 -169 113s-145 -47 -165 -113h-185zM763 -20c-410 0 -667 280 -667 740c0 462 263 746 667 746c402 0 662 -283 662 -746c0 -458 -255 -740 -662 -740zM763 220c211 0 345 143 345 496
c0 361 -135 510 -345 510s-347 -150 -347 -510c0 -353 137 -496 347 -496z" />
    <glyph glyph-name="Omacron" unicode="&#x14c;" horiz-adv-x="1521" 
d="M410 1617v187h703v-187h-703zM763 -20c-410 0 -667 280 -667 740c0 462 263 746 667 746c402 0 662 -283 662 -746c0 -458 -255 -740 -662 -740zM763 220c211 0 345 143 345 496c0 361 -135 510 -345 510s-347 -150 -347 -510c0 -353 137 -496 347 -496z" />
    <glyph glyph-name="uni01EA" unicode="&#x1ea;" horiz-adv-x="1521" 
d="M786 -338c-137 0 -218 57 -218 164c0 59 24 112 118 157c-365 34 -590 306 -590 737c0 462 263 746 667 746c402 0 662 -283 662 -746c0 -384 -179 -644 -477 -718c-128 -49 -169 -88 -169 -140c0 -43 22 -64 72 -64c61 0 106 21 145 44v-132c-37 -23 -120 -48 -210 -48z
M763 220c211 0 345 143 345 496c0 361 -135 510 -345 510s-347 -150 -347 -510c0 -353 137 -496 347 -496z" />
    <glyph glyph-name="Oslash" unicode="&#xd8;" horiz-adv-x="1552" 
d="M172 -27l-129 131l167 172c-69 116 -106 265 -106 443c0 463 260 747 666 747c181 0 331 -56 443 -161l162 166l127 -129l-174 -182c68 -116 105 -265 105 -440c0 -459 -256 -740 -664 -740c-180 0 -329 55 -439 153zM476 538l534 566c-52 89 -131 130 -240 130
c-186 0 -286 -125 -306 -394c-8 -101 -3 -201 12 -302zM771 215c179 0 276 111 297 355c11 104 7 211 -8 327l-531 -564c53 -80 132 -118 242 -118z" />
    <glyph glyph-name="Oslashacute" unicode="&#x1fe;" horiz-adv-x="1552" 
d="M659 1567l206 291h301l-296 -291h-211zM172 -27l-129 131l167 172c-69 116 -106 265 -106 443c0 463 260 747 666 747c181 0 331 -56 443 -161l162 166l127 -129l-174 -182c68 -116 105 -265 105 -440c0 -459 -256 -740 -664 -740c-180 0 -329 55 -439 153zM476 538
l534 566c-52 89 -131 130 -240 130c-186 0 -286 -125 -306 -394c-8 -101 -3 -201 12 -302zM771 215c179 0 276 111 297 355c11 104 7 211 -8 327l-531 -564c53 -80 132 -118 242 -118z" />
    <glyph glyph-name="Otilde" unicode="&#xd5;" horiz-adv-x="1521" 
d="M467 1603l-45 153c49 50 102 91 193 91c112 0 205 -61 295 -61c69 0 124 37 166 69l36 -173c-41 -35 -112 -70 -201 -70c-112 0 -185 55 -287 55c-67 0 -105 -21 -157 -64zM763 -20c-410 0 -667 280 -667 740c0 462 263 746 667 746c402 0 662 -283 662 -746
c0 -458 -255 -740 -662 -740zM763 220c211 0 345 143 345 496c0 361 -135 510 -345 510s-347 -150 -347 -510c0 -353 137 -496 347 -496z" />
    <glyph glyph-name="OE" unicode="&#x152;" horiz-adv-x="2254" 
d="M1438 608v-359l712 -1v-248h-1004v132c-93 -99 -224 -152 -383 -152c-410 0 -667 280 -667 740c0 462 263 746 667 746c159 0 290 -53 383 -154v134h994l-2 -246h-698v-351h606v-241h-608zM763 220c211 0 345 143 345 496c0 361 -135 510 -345 510s-347 -150 -347 -510
c0 -353 137 -496 347 -496z" />
    <glyph glyph-name="P" unicode="P" horiz-adv-x="1305" 
d="M162 0v1446h532c315 0 553 -168 553 -474c0 -288 -204 -456 -515 -456h-276v-516h-294zM453 742h271c146 0 250 106 250 245c0 144 -113 235 -254 235h-267v-480z" />
    <glyph glyph-name="Thorn" unicode="&#xde;" horiz-adv-x="1361" 
d="M162 0v1446h294v-277h294c322 0 553 -141 553 -432c0 -286 -231 -437 -549 -437h-298v-300h-294zM456 541h285c155 0 257 52 257 198c0 139 -102 190 -261 190h-281v-388z" />
    <glyph glyph-name="Q" unicode="Q" horiz-adv-x="1546" 
d="M1421 -246c-189 0 -344 29 -494 240c-68 -10 -113 -14 -165 -14c-407 0 -666 276 -666 740s262 746 666 746c405 0 665 -282 665 -746c0 -265 -79 -464 -241 -599c32 -81 128 -131 235 -133v-234zM762 220c219 0 346 142 346 497c0 357 -128 509 -346 509
c-217 0 -345 -152 -345 -510c0 -354 127 -496 345 -496z" />
    <glyph glyph-name="R" unicode="R" horiz-adv-x="1392" 
d="M162 0v1446h610c346 0 497 -178 497 -432c0 -228 -118 -341 -254 -408l269 -606h-303l-235 557h-293v-557h-291zM453 782h267c156 0 254 92 254 225s-99 216 -233 216h-288v-441z" />
    <glyph glyph-name="Racute" unicode="&#x154;" horiz-adv-x="1392" 
d="M571 1567l206 291h300l-296 -291h-210zM162 0v1446h610c346 0 497 -178 497 -432c0 -228 -118 -341 -254 -408l269 -606h-303l-235 557h-293v-557h-291zM453 782h267c156 0 254 92 254 225s-99 216 -233 216h-288v-441z" />
    <glyph glyph-name="Rcaron" unicode="&#x158;" horiz-adv-x="1392" 
d="M578 1567l-263 261h217l147 -150l131 150h229l-258 -261h-203zM162 0v1446h610c346 0 497 -178 497 -432c0 -228 -118 -341 -254 -408l269 -606h-303l-235 557h-293v-557h-291zM453 782h267c156 0 254 92 254 225s-99 216 -233 216h-288v-441z" />
    <glyph glyph-name="uni0156" unicode="&#x156;" horiz-adv-x="1392" 
d="M162 0v1446h610c346 0 497 -178 497 -432c0 -228 -118 -341 -254 -408l269 -606h-303l-235 557h-293v-557h-291zM453 782h267c156 0 254 92 254 225s-99 216 -233 216h-288v-441zM562 -440l91 149l-80 10v187h249v-156l-156 -190h-104z" />
    <glyph glyph-name="uni0210" unicode="&#x210;" horiz-adv-x="1392" 
d="M395 1567l-312 291h276l246 -291h-210zM748 1567l-258 291h267l201 -291h-210zM162 0v1446h610c346 0 497 -178 497 -432c0 -228 -118 -341 -254 -408l269 -606h-303l-235 557h-293v-557h-291zM453 782h267c156 0 254 92 254 225s-99 216 -233 216h-288v-441z" />
    <glyph glyph-name="uni1E5A" unicode="&#x1e5a;" horiz-adv-x="1392" 
d="M162 0v1446h610c346 0 497 -178 497 -432c0 -228 -118 -341 -254 -408l269 -606h-303l-235 557h-293v-557h-291zM453 782h267c156 0 254 92 254 225s-99 216 -233 216h-288v-441zM559 -398v238h279v-238h-279z" />
    <glyph glyph-name="uni0212" unicode="&#x212;" horiz-adv-x="1392" 
d="M327 1592c35 169 183 255 350 255c170 0 317 -88 352 -255h-184c-21 66 -82 113 -168 113s-145 -47 -165 -113h-185zM162 0v1446h610c346 0 497 -178 497 -432c0 -228 -118 -341 -254 -408l269 -606h-303l-235 557h-293v-557h-291zM453 782h267c156 0 254 92 254 225
s-99 216 -233 216h-288v-441z" />
    <glyph glyph-name="S" unicode="S" horiz-adv-x="1384" 
d="M704 -20c-289 0 -574 143 -604 433h299c29 -131 148 -204 322 -204c136 0 271 59 271 184c0 99 -76 142 -201 171l-271 59c-232 48 -378 171 -378 405c0 270 245 436 566 436c360 0 560 -194 563 -438h-292c-16 150 -128 207 -279 207c-174 0 -251 -83 -251 -176
c0 -88 57 -140 192 -168l251 -54c280 -55 394 -208 394 -413c0 -262 -241 -442 -582 -442z" />
    <glyph glyph-name="Sacute" unicode="&#x15a;" horiz-adv-x="1384" 
d="M585 1567l206 291h301l-297 -291h-210zM704 -20c-289 0 -574 143 -604 433h299c29 -131 148 -204 322 -204c136 0 271 59 271 184c0 99 -76 142 -201 171l-271 59c-232 48 -378 171 -378 405c0 270 245 436 566 436c360 0 560 -194 563 -438h-292
c-16 150 -128 207 -279 207c-174 0 -251 -83 -251 -176c0 -88 57 -140 192 -168l251 -54c280 -55 394 -208 394 -413c0 -262 -241 -442 -582 -442z" />
    <glyph glyph-name="Scaron" unicode="&#x160;" horiz-adv-x="1384" 
d="M593 1567l-263 261h217l146 -150l132 150h228l-257 -261h-203zM704 -20c-289 0 -574 143 -604 433h299c29 -131 148 -204 322 -204c136 0 271 59 271 184c0 99 -76 142 -201 171l-271 59c-232 48 -378 171 -378 405c0 270 245 436 566 436c360 0 560 -194 563 -438h-292
c-16 150 -128 207 -279 207c-174 0 -251 -83 -251 -176c0 -88 57 -140 192 -168l251 -54c280 -55 394 -208 394 -413c0 -262 -241 -442 -582 -442z" />
    <glyph glyph-name="Scedilla" unicode="&#x15e;" horiz-adv-x="1384" 
d="M681 -425c-83 0 -163 13 -230 54l40 98c42 -26 96 -49 154 -49c63 0 100 23 100 62c0 52 -45 80 -169 82c-17 0 -24 2 -17 19l63 143c-259 25 -495 167 -522 429h299c29 -131 148 -204 322 -204c136 0 271 59 271 184c0 99 -76 142 -201 171l-271 59
c-232 48 -378 171 -378 405c0 270 245 436 566 436c360 0 560 -194 563 -438h-292c-16 150 -128 207 -279 207c-174 0 -251 -83 -251 -176c0 -88 57 -140 192 -168l251 -54c280 -55 394 -208 394 -413c0 -250 -219 -425 -535 -441l-33 -88c150 -3 202 -86 202 -156
c0 -102 -111 -162 -239 -162z" />
    <glyph glyph-name="Scircumflex" unicode="&#x15c;" horiz-adv-x="1384" 
d="M330 1567l264 259h202l257 -259h-228l-132 140l-146 -140h-217zM704 -20c-289 0 -574 143 -604 433h299c29 -131 148 -204 322 -204c136 0 271 59 271 184c0 99 -76 142 -201 171l-271 59c-232 48 -378 171 -378 405c0 270 245 436 566 436c360 0 560 -194 563 -438h-292
c-16 150 -128 207 -279 207c-174 0 -251 -83 -251 -176c0 -88 57 -140 192 -168l251 -54c280 -55 394 -208 394 -413c0 -262 -241 -442 -582 -442z" />
    <glyph glyph-name="uni0218" unicode="&#x218;" horiz-adv-x="1384" 
d="M704 -20c-289 0 -574 143 -604 433h299c29 -131 148 -204 322 -204c136 0 271 59 271 184c0 99 -76 142 -201 171l-271 59c-232 48 -378 171 -378 405c0 270 245 436 566 436c360 0 560 -194 563 -438h-292c-16 150 -128 207 -279 207c-174 0 -251 -83 -251 -176
c0 -88 57 -140 192 -168l251 -54c280 -55 394 -208 394 -413c0 -262 -241 -442 -582 -442zM554 -440l92 149l-80 10v187h248v-156l-156 -190h-104z" />
    <glyph glyph-name="uni1E62" unicode="&#x1e62;" horiz-adv-x="1384" 
d="M704 -20c-289 0 -574 143 -604 433h299c29 -131 148 -204 322 -204c136 0 271 59 271 184c0 99 -76 142 -201 171l-271 59c-232 48 -378 171 -378 405c0 270 245 436 566 436c360 0 560 -194 563 -438h-292c-16 150 -128 207 -279 207c-174 0 -251 -83 -251 -176
c0 -88 57 -140 192 -168l251 -54c280 -55 394 -208 394 -413c0 -262 -241 -442 -582 -442zM552 -398v238h278v-238h-278z" />
    <glyph glyph-name="uni018F" unicode="&#x18f;" horiz-adv-x="1518" 
d="M757 -20c-389 0 -660 246 -660 821h977c0 250 -118 393 -323 393s-327 -138 -327 -249h-328c0 231 255 521 661 521c415 0 665 -265 665 -731c0 -510 -276 -755 -665 -755zM757 236c206 0 312 145 314 351l-618 2c0 -208 107 -353 304 -353z" />
    <glyph glyph-name="T" unicode="T" horiz-adv-x="1232" 
d="M475 0v1186h-437v260h1157v-260h-427v-1186h-293z" />
    <glyph glyph-name="Tbar" unicode="&#x166;" horiz-adv-x="1232" 
d="M475 0v596h-265v214h265v376h-437v260h1157v-260h-427v-376h252v-214h-252v-596h-293z" />
    <glyph glyph-name="Tcaron" unicode="&#x164;" horiz-adv-x="1232" 
d="M533 1567l-263 261h217l147 -150l131 150h229l-258 -261h-203zM475 0v1186h-437v260h1157v-260h-427v-1186h-293z" />
    <glyph glyph-name="uni0162" unicode="&#x162;" horiz-adv-x="1232" 
d="M475 0v1186h-437v260h1157v-260h-427v-1186h-66l-40 -106c151 -3 203 -85 203 -156c0 -102 -111 -162 -239 -162c-84 0 -163 13 -230 54l40 99c41 -26 95 -50 154 -50c63 0 100 23 100 62c0 53 -46 81 -170 82c-17 0 -23 2 -16 19l69 158h-98z" />
    <glyph glyph-name="uni021A" unicode="&#x21a;" horiz-adv-x="1232" 
d="M475 0v1186h-437v260h1157v-260h-427v-1186h-293zM499 -439l91 149l-80 10v187h249v-155l-157 -191h-103z" />
    <glyph glyph-name="uni1E6C" unicode="&#x1e6c;" horiz-adv-x="1232" 
d="M475 0v1186h-437v260h1157v-260h-427v-1186h-293zM496 -396v237h279v-237h-279z" />
    <glyph glyph-name="U" unicode="U" horiz-adv-x="1448" 
d="M740 -20c-423 0 -578 221 -578 581v885h297v-907c0 -216 114 -311 281 -311c166 0 284 93 284 311v907h295v-895c0 -351 -158 -571 -579 -571z" />
    <glyph glyph-name="Uacute" unicode="&#xda;" horiz-adv-x="1448" 
d="M632 1567l206 291h301l-297 -291h-210zM740 -20c-423 0 -578 221 -578 581v885h297v-907c0 -216 114 -311 281 -311c166 0 284 93 284 311v907h295v-895c0 -351 -158 -571 -579 -571z" />
    <glyph glyph-name="Ubreve" unicode="&#x16c;" horiz-adv-x="1448" 
d="M740 1566c-167 0 -315 86 -350 255h185c20 -65 79 -112 165 -112s147 47 168 112h184c-35 -167 -181 -255 -352 -255zM740 -20c-423 0 -578 221 -578 581v885h297v-907c0 -216 114 -311 281 -311c166 0 284 93 284 311v907h295v-895c0 -351 -158 -571 -579 -571z" />
    <glyph glyph-name="Ucircumflex" unicode="&#xdb;" horiz-adv-x="1448" 
d="M377 1567l264 259h202l257 -259h-229l-131 140l-147 -140h-216zM740 -20c-423 0 -578 221 -578 581v885h297v-907c0 -216 114 -311 281 -311c166 0 284 93 284 311v907h295v-895c0 -351 -158 -571 -579 -571z" />
    <glyph glyph-name="uni0214" unicode="&#x214;" horiz-adv-x="1448" 
d="M456 1567l-311 291h275l247 -291h-211zM809 1567l-257 291h266l201 -291h-210zM740 -20c-423 0 -578 221 -578 581v885h297v-907c0 -216 114 -311 281 -311c166 0 284 93 284 311v907h295v-895c0 -351 -158 -571 -579 -571z" />
    <glyph glyph-name="Udieresis" unicode="&#xdc;" horiz-adv-x="1448" 
d="M836 1620l3 238h273l-2 -238h-274zM370 1620l3 238h273l-2 -238h-274zM740 -20c-423 0 -578 221 -578 581v885h297v-907c0 -216 114 -311 281 -311c166 0 284 93 284 311v907h295v-895c0 -351 -158 -571 -579 -571z" />
    <glyph glyph-name="uni1EE4" unicode="&#x1ee4;" horiz-adv-x="1448" 
d="M740 -20c-423 0 -578 221 -578 581v885h297v-907c0 -216 114 -311 281 -311c166 0 284 93 284 311v907h295v-895c0 -351 -158 -571 -579 -571zM601 -396v237h278v-237h-278z" />
    <glyph glyph-name="Ugrave" unicode="&#xd9;" horiz-adv-x="1448" 
d="M633 1567l-296 291h300l206 -291h-210zM740 -20c-423 0 -578 221 -578 581v885h297v-907c0 -216 114 -311 281 -311c166 0 284 93 284 311v907h295v-895c0 -351 -158 -571 -579 -571z" />
    <glyph glyph-name="uni1EE6" unicode="&#x1ee6;" horiz-adv-x="1448" 
d="M824 1565l-69 109c52 33 74 80 46 125c-24 40 -84 41 -132 10l-69 106c122 78 255 54 316 -41c73 -113 43 -228 -92 -309zM740 -20c-423 0 -578 221 -578 581v885h297v-907c0 -216 114 -311 281 -311c166 0 284 93 284 311v907h295v-895c0 -351 -158 -571 -579 -571z" />
    <glyph glyph-name="Uhorn" unicode="&#x1af;" horiz-adv-x="1721" 
d="M740 -20c-423 0 -578 221 -578 581v885h297v-907c0 -216 114 -311 281 -311c166 0 284 93 284 311v907h295v-172c90 4 128 36 140 211h193c-3 -265 -79 -373 -333 -359v-575c0 -351 -158 -571 -579 -571z" />
    <glyph glyph-name="uni1EE8" unicode="&#x1ee8;" horiz-adv-x="1721" 
d="M632 1567l206 291h301l-297 -291h-210zM740 -20c-423 0 -578 221 -578 581v885h297v-907c0 -216 114 -311 281 -311c166 0 284 93 284 311v907h295v-172c90 4 128 36 140 211h193c-3 -265 -79 -373 -333 -359v-575c0 -351 -158 -571 -579 -571z" />
    <glyph glyph-name="uni1EF0" unicode="&#x1ef0;" horiz-adv-x="1721" 
d="M740 -20c-423 0 -578 221 -578 581v885h297v-907c0 -216 114 -311 281 -311c166 0 284 93 284 311v907h295v-172c90 4 128 36 140 211h193c-3 -265 -79 -373 -333 -359v-575c0 -351 -158 -571 -579 -571zM601 -396v237h278v-237h-278z" />
    <glyph glyph-name="uni1EEA" unicode="&#x1eea;" horiz-adv-x="1721" 
d="M633 1567l-296 291h300l206 -291h-210zM740 -20c-423 0 -578 221 -578 581v885h297v-907c0 -216 114 -311 281 -311c166 0 284 93 284 311v907h295v-172c90 4 128 36 140 211h193c-3 -265 -79 -373 -333 -359v-575c0 -351 -158 -571 -579 -571z" />
    <glyph glyph-name="uni1EEC" unicode="&#x1eec;" horiz-adv-x="1721" 
d="M824 1565l-69 109c52 33 74 80 46 125c-24 40 -84 41 -132 10l-69 106c122 78 255 54 316 -41c73 -113 43 -228 -92 -309zM740 -20c-423 0 -578 221 -578 581v885h297v-907c0 -216 114 -311 281 -311c166 0 284 93 284 311v907h295v-172c90 4 128 36 140 211h193
c-3 -265 -79 -373 -333 -359v-575c0 -351 -158 -571 -579 -571z" />
    <glyph glyph-name="uni1EEE" unicode="&#x1eee;" horiz-adv-x="1713" 
d="M446 1603l-45 153c49 50 102 91 193 91c112 0 205 -61 295 -61c69 0 124 37 166 69l36 -173c-41 -35 -112 -70 -201 -70c-112 0 -185 55 -287 55c-67 0 -105 -21 -157 -64zM740 -20c-423 0 -578 221 -578 581v885h297v-907c0 -216 114 -311 281 -311
c166 0 284 93 284 311v907h295v-172c90 4 128 36 140 211h193c-3 -265 -79 -373 -333 -359v-575c0 -351 -158 -571 -579 -571z" />
    <glyph glyph-name="Uhungarumlaut" unicode="&#x170;" horiz-adv-x="1448" 
d="M814 1567l246 291h276l-312 -291h-210zM461 1567l201 291h266l-257 -291h-210zM740 -20c-423 0 -578 221 -578 581v885h297v-907c0 -216 114 -311 281 -311c166 0 284 93 284 311v907h295v-895c0 -351 -158 -571 -579 -571z" />
    <glyph glyph-name="uni0216" unicode="&#x216;" horiz-adv-x="1448" 
d="M388 1592c35 169 183 255 350 255c171 0 317 -88 352 -255h-183c-22 66 -83 113 -169 113s-145 -47 -165 -113h-185zM740 -20c-423 0 -578 221 -578 581v885h297v-907c0 -216 114 -311 281 -311c166 0 284 93 284 311v907h295v-895c0 -351 -158 -571 -579 -571z" />
    <glyph glyph-name="Umacron" unicode="&#x16a;" horiz-adv-x="1448" 
d="M389 1617v187h703v-187h-703zM740 -20c-423 0 -578 221 -578 581v885h297v-907c0 -216 114 -311 281 -311c166 0 284 93 284 311v907h295v-895c0 -351 -158 -571 -579 -571z" />
    <glyph glyph-name="Uogonek" unicode="&#x172;" horiz-adv-x="1448" 
d="M747 -335c-136 0 -217 57 -217 164c0 58 23 110 114 155c-351 32 -482 246 -482 577v885h297v-907c0 -216 114 -311 281 -311c166 0 284 93 284 311v907h295v-895c0 -313 -125 -521 -451 -563c-96 -42 -127 -77 -127 -123c0 -43 22 -64 72 -64c60 0 106 21 145 44v-133
c-37 -22 -121 -47 -211 -47z" />
    <glyph glyph-name="Uring" unicode="&#x16e;" horiz-adv-x="1448" 
d="M741 1547c-122 0 -217 97 -217 221c0 117 97 210 217 210c121 0 218 -95 218 -214c0 -122 -97 -217 -218 -217zM739 1661c56 0 99 48 99 102c0 57 -43 99 -99 99c-54 0 -101 -42 -101 -99c0 -54 47 -102 101 -102zM740 -20c-423 0 -578 221 -578 581v885h297v-907
c0 -216 114 -311 281 -311c166 0 284 93 284 311v907h295v-895c0 -351 -158 -571 -579 -571z" />
    <glyph glyph-name="Utilde" unicode="&#x168;" horiz-adv-x="1448" 
d="M446 1603l-45 153c49 50 102 91 193 91c112 0 205 -61 295 -61c69 0 124 37 166 69l36 -173c-41 -35 -112 -70 -201 -70c-112 0 -185 55 -287 55c-67 0 -105 -21 -157 -64zM740 -20c-423 0 -578 221 -578 581v885h297v-907c0 -216 114 -311 281 -311
c166 0 284 93 284 311v907h295v-895c0 -351 -158 -571 -579 -571z" />
    <glyph glyph-name="V" unicode="V" horiz-adv-x="1407" 
d="M538 0l-500 1446h279l387 -1107l385 1107h280l-500 -1446h-331z" />
    <glyph glyph-name="W" unicode="W" horiz-adv-x="1937" 
d="M464 0l-426 1446h286l269 -955l269 955h211l272 -955l269 955h285l-427 -1446h-233l-272 945l-274 -945h-229z" />
    <glyph glyph-name="Wacute" unicode="&#x1e82;" horiz-adv-x="1937" 
d="M858 1567l206 291h301l-296 -291h-211zM464 0l-426 1446h286l269 -955l269 955h211l272 -955l269 955h285l-427 -1446h-233l-272 945l-274 -945h-229z" />
    <glyph glyph-name="Wcircumflex" unicode="&#x174;" horiz-adv-x="1937" 
d="M603 1567l265 259h201l257 -259h-228l-132 140l-146 -140h-217zM464 0l-426 1446h286l269 -955l269 955h211l272 -955l269 955h285l-427 -1446h-233l-272 945l-274 -945h-229z" />
    <glyph glyph-name="Wdieresis" unicode="&#x1e84;" horiz-adv-x="1937" 
d="M1062 1620l3 238h274l-3 -238h-274zM596 1620l3 238h274l-3 -238h-274zM464 0l-426 1446h286l269 -955l269 955h211l272 -955l269 955h285l-427 -1446h-233l-272 945l-274 -945h-229z" />
    <glyph glyph-name="Wgrave" unicode="&#x1e80;" horiz-adv-x="1937" 
d="M859 1567l-296 291h301l206 -291h-211zM464 0l-426 1446h286l269 -955l269 955h211l272 -955l269 955h285l-427 -1446h-233l-272 945l-274 -945h-229z" />
    <glyph glyph-name="X" unicode="X" horiz-adv-x="1434" 
d="M55 0l481 734l-466 712h361l289 -468l286 468h310l-446 -674l509 -772h-364l-326 522l-320 -522h-314z" />
    <glyph glyph-name="Y" unicode="Y" horiz-adv-x="1335" 
d="M521 0v609l-502 837h316l333 -586l329 586h319l-503 -838v-608h-292z" />
    <glyph glyph-name="Yacute" unicode="&#xdd;" horiz-adv-x="1335" 
d="M592 1568l206 291h301l-297 -291h-210zM521 0v609l-502 837h316l333 -586l329 586h319l-503 -838v-608h-292z" />
    <glyph glyph-name="Ycircumflex" unicode="&#x176;" horiz-adv-x="1335" 
d="M337 1568l264 260h202l257 -260h-229l-131 140l-146 -140h-217zM521 0v609l-502 837h316l333 -586l329 586h319l-503 -838v-608h-292z" />
    <glyph glyph-name="Ydieresis" unicode="&#x178;" horiz-adv-x="1335" 
d="M796 1622l3 237h274l-3 -237h-274zM330 1622l3 237h274l-3 -237h-274zM521 0v609l-502 837h316l333 -586l329 586h319l-503 -838v-608h-292z" />
    <glyph glyph-name="uni1EF4" unicode="&#x1ef4;" horiz-adv-x="1335" 
d="M521 0v609l-502 837h316l333 -586l329 586h319l-503 -838v-608h-292zM529 -398v238h279v-238h-279z" />
    <glyph glyph-name="Ygrave" unicode="&#x1ef2;" horiz-adv-x="1335" 
d="M593 1568l-296 291h301l206 -291h-211zM521 0v609l-502 837h316l333 -586l329 586h319l-503 -838v-608h-292z" />
    <glyph glyph-name="uni1EF6" unicode="&#x1ef6;" horiz-adv-x="1335" 
d="M784 1567l-69 108c53 33 74 80 46 125c-24 40 -84 42 -132 10l-69 106c122 78 255 54 316 -41c73 -113 43 -228 -92 -308zM521 0v609l-502 837h316l333 -586l329 586h319l-503 -838v-608h-292z" />
    <glyph glyph-name="uni1EF8" unicode="&#x1ef8;" horiz-adv-x="1335" 
d="M406 1604l-45 153c49 50 102 92 193 92c112 0 205 -62 295 -62c69 0 124 37 166 69l36 -173c-41 -34 -112 -70 -201 -70c-112 0 -185 56 -287 56c-67 0 -105 -21 -157 -65zM521 0v609l-502 837h316l333 -586l329 586h319l-503 -838v-608h-292z" />
    <glyph glyph-name="Z" unicode="Z" horiz-adv-x="1339" 
d="M108 0v142l734 1060h-685v244h1101v-136l-744 -1063h736v-247h-1142z" />
    <glyph glyph-name="Zacute" unicode="&#x179;" horiz-adv-x="1339" 
d="M612 1567l206 291h301l-296 -291h-211zM108 0v142l734 1060h-685v244h1101v-136l-744 -1063h736v-247h-1142z" />
    <glyph glyph-name="Zcaron" unicode="&#x17d;" horiz-adv-x="1339" 
d="M620 1567l-263 261h217l146 -150l132 150h228l-257 -261h-203zM108 0v142l734 1060h-685v244h1101v-136l-744 -1063h736v-247h-1142z" />
    <glyph glyph-name="Zdotaccent" unicode="&#x17b;" horiz-adv-x="1339" 
d="M582 1620v238h278v-238h-278zM108 0v142l734 1060h-685v244h1101v-136l-744 -1063h736v-247h-1142z" />
    <glyph glyph-name="uni1E92" unicode="&#x1e92;" horiz-adv-x="1339" 
d="M108 0v142l734 1060h-685v244h1101v-136l-744 -1063h736v-247h-1142zM556 -398v238h279v-238h-279z" />
    <glyph glyph-name="a" unicode="a" horiz-adv-x="1133" 
d="M432 -20c-197 0 -349 114 -349 316c0 226 163 346 528 350l130 2v62c0 95 -54 148 -171 147c-85 -1 -171 -36 -200 -131h-243c11 224 198 328 457 328c316 0 437 -124 437 -327v-727h-244l-24 178c-71 -150 -176 -198 -321 -198zM531 172c105 0 209 84 210 173v153
l-105 -2c-146 -2 -276 -45 -276 -171c0 -96 75 -153 171 -153z" />
    <glyph glyph-name="aacute" unicode="&#xe1;" horiz-adv-x="1133" 
d="M477 1155l206 291h301l-296 -291h-211zM432 -20c-197 0 -349 114 -349 316c0 226 163 346 528 350l130 2v62c0 95 -54 148 -171 147c-85 -1 -171 -36 -200 -131h-243c11 224 198 328 457 328c316 0 437 -124 437 -327v-727h-244l-24 178c-71 -150 -176 -198 -321 -198z
M531 172c105 0 209 84 210 173v153l-105 -2c-146 -2 -276 -45 -276 -171c0 -96 75 -153 171 -153z" />
    <glyph glyph-name="abreve" unicode="&#x103;" horiz-adv-x="1133" 
d="M586 1154c-168 0 -315 86 -350 255h184c21 -65 79 -112 166 -112c85 0 146 47 168 112h183c-34 -167 -181 -255 -351 -255zM432 -20c-197 0 -349 114 -349 316c0 226 163 346 528 350l130 2v62c0 95 -54 148 -171 147c-85 -1 -171 -36 -200 -131h-243
c11 224 198 328 457 328c316 0 437 -124 437 -327v-727h-244l-24 178c-71 -150 -176 -198 -321 -198zM531 172c105 0 209 84 210 173v153l-105 -2c-146 -2 -276 -45 -276 -171c0 -96 75 -153 171 -153z" />
    <glyph glyph-name="uni1EAF" unicode="&#x1eaf;" horiz-adv-x="1133" 
d="M509 1468l152 261h225l-225 -261h-152zM588 1154c-168 0 -315 86 -350 255h184c21 -65 79 -112 166 -112c85 0 146 47 168 112h183c-34 -167 -181 -255 -351 -255zM432 -20c-197 0 -349 114 -349 316c0 226 163 346 528 350l130 2v62c0 95 -54 148 -171 147
c-85 -1 -171 -36 -200 -131h-243c11 224 198 328 457 328c316 0 437 -124 437 -327v-727h-244l-24 178c-71 -150 -176 -198 -321 -198zM531 172c105 0 209 84 210 173v153l-105 -2c-146 -2 -276 -45 -276 -171c0 -96 75 -153 171 -153z" />
    <glyph glyph-name="uni1EB7" unicode="&#x1eb7;" horiz-adv-x="1133" 
d="M586 1154c-168 0 -315 86 -350 255h184c21 -65 79 -112 166 -112c85 0 146 47 168 112h183c-34 -167 -181 -255 -351 -255zM432 -20c-197 0 -349 114 -349 316c0 226 163 346 528 350l130 2v62c0 95 -54 148 -171 147c-85 -1 -171 -36 -200 -131h-243
c11 224 198 328 457 328c316 0 437 -124 437 -327v-727h-244l-24 178c-71 -150 -176 -198 -321 -198zM531 172c105 0 209 84 210 173v153l-105 -2c-146 -2 -276 -45 -276 -171c0 -96 75 -153 171 -153zM443 -398v238h279v-238h-279z" />
    <glyph glyph-name="uni1EB1" unicode="&#x1eb1;" horiz-adv-x="1133" 
d="M522 1467l-226 261h226l157 -261h-157zM588 1154c-168 0 -315 86 -350 255h184c21 -65 79 -112 166 -112c85 0 146 47 168 112h183c-34 -167 -181 -255 -351 -255zM432 -20c-197 0 -349 114 -349 316c0 226 163 346 528 350l130 2v62c0 95 -54 148 -171 147
c-85 -1 -171 -36 -200 -131h-243c11 224 198 328 457 328c316 0 437 -124 437 -327v-727h-244l-24 178c-71 -150 -176 -198 -321 -198zM531 172c105 0 209 84 210 173v153l-105 -2c-146 -2 -276 -45 -276 -171c0 -96 75 -153 171 -153z" />
    <glyph glyph-name="uni1EB3" unicode="&#x1eb3;" horiz-adv-x="1133" 
d="M597 1392l-69 108c52 33 74 80 46 126c-25 40 -84 41 -132 9l-69 106c50 32 101 48 149 48c69 0 131 -32 167 -88c73 -114 43 -228 -92 -309zM588 1154c-168 0 -315 86 -350 255h184c21 -65 79 -112 166 -112c85 0 146 47 168 112h183c-34 -167 -181 -255 -351 -255z
M432 -20c-197 0 -349 114 -349 316c0 226 163 346 528 350l130 2v62c0 95 -54 148 -171 147c-85 -1 -171 -36 -200 -131h-243c11 224 198 328 457 328c316 0 437 -124 437 -327v-727h-244l-24 178c-71 -150 -176 -198 -321 -198zM531 172c105 0 209 84 210 173v153l-105 -2
c-146 -2 -276 -45 -276 -171c0 -96 75 -153 171 -153z" />
    <glyph glyph-name="uni1EB5" unicode="&#x1eb5;" horiz-adv-x="1133" 
d="M284 1505l-44 153c48 50 101 92 192 92c112 0 205 -62 295 -62c69 0 124 37 166 69l37 -173c-42 -34 -113 -70 -202 -70c-112 0 -185 56 -287 56c-66 0 -105 -21 -157 -65zM588 1154c-168 0 -315 86 -350 255h184c21 -65 79 -112 166 -112c85 0 146 47 168 112h183
c-34 -167 -181 -255 -351 -255zM432 -20c-197 0 -349 114 -349 316c0 226 163 346 528 350l130 2v62c0 95 -54 148 -171 147c-85 -1 -171 -36 -200 -131h-243c11 224 198 328 457 328c316 0 437 -124 437 -327v-727h-244l-24 178c-71 -150 -176 -198 -321 -198zM531 172
c105 0 209 84 210 173v153l-105 -2c-146 -2 -276 -45 -276 -171c0 -96 75 -153 171 -153z" />
    <glyph glyph-name="acircumflex" unicode="&#xe2;" horiz-adv-x="1133" 
d="M223 1155l264 259h201l258 -259h-229l-132 140l-146 -140h-216zM432 -20c-197 0 -349 114 -349 316c0 226 163 346 528 350l130 2v62c0 95 -54 148 -171 147c-85 -1 -171 -36 -200 -131h-243c11 224 198 328 457 328c316 0 437 -124 437 -327v-727h-244l-24 178
c-71 -150 -176 -198 -321 -198zM531 172c105 0 209 84 210 173v153l-105 -2c-146 -2 -276 -45 -276 -171c0 -96 75 -153 171 -153z" />
    <glyph glyph-name="uni1EA5" unicode="&#x1ea5;" horiz-adv-x="1133" 
d="M813 1398l152 262h225l-225 -262h-152zM223 1155l264 259h201l258 -259h-229l-132 140l-146 -140h-216zM432 -20c-197 0 -349 114 -349 316c0 226 163 346 528 350l130 2v62c0 95 -54 148 -171 147c-85 -1 -171 -36 -200 -131h-243c11 224 198 328 457 328
c316 0 437 -124 437 -327v-727h-244l-24 178c-71 -150 -176 -198 -321 -198zM531 172c105 0 209 84 210 173v153l-105 -2c-146 -2 -276 -45 -276 -171c0 -96 75 -153 171 -153z" />
    <glyph glyph-name="uni1EAD" unicode="&#x1ead;" horiz-adv-x="1133" 
d="M223 1155l264 259h201l258 -259h-229l-132 140l-146 -140h-216zM432 -20c-197 0 -349 114 -349 316c0 226 163 346 528 350l130 2v62c0 95 -54 148 -171 147c-85 -1 -171 -36 -200 -131h-243c11 224 198 328 457 328c316 0 437 -124 437 -327v-727h-244l-24 178
c-71 -150 -176 -198 -321 -198zM531 172c105 0 209 84 210 173v153l-105 -2c-146 -2 -276 -45 -276 -171c0 -96 75 -153 171 -153zM443 -398v238h279v-238h-279z" />
    <glyph glyph-name="uni1EA7" unicode="&#x1ea7;" horiz-adv-x="1133" 
d="M900 1398l-226 261h226l157 -261h-157zM223 1155l264 259h201l258 -259h-229l-132 140l-146 -140h-216zM432 -20c-197 0 -349 114 -349 316c0 226 163 346 528 350l130 2v62c0 95 -54 148 -171 147c-85 -1 -171 -36 -200 -131h-243c11 224 198 328 457 328
c316 0 437 -124 437 -327v-727h-244l-24 178c-71 -150 -176 -198 -321 -198zM531 172c105 0 209 84 210 173v153l-105 -2c-146 -2 -276 -45 -276 -171c0 -96 75 -153 171 -153z" />
    <glyph glyph-name="uni1EA9" unicode="&#x1ea9;" horiz-adv-x="1133" 
d="M885 1353l-69 109c53 33 74 80 46 125c-24 40 -84 41 -131 10l-69 106c122 78 254 54 315 -41c73 -113 43 -228 -92 -309zM229 1155l265 259h201l257 -259h-228l-132 140l-146 -140h-217zM432 -20c-197 0 -349 114 -349 316c0 226 163 346 528 350l130 2v62
c0 95 -54 148 -171 147c-85 -1 -171 -36 -200 -131h-243c11 224 198 328 457 328c316 0 437 -124 437 -327v-727h-244l-24 178c-71 -150 -176 -198 -321 -198zM531 172c105 0 209 84 210 173v153l-105 -2c-146 -2 -276 -45 -276 -171c0 -96 75 -153 171 -153z" />
    <glyph glyph-name="uni1EAB" unicode="&#x1eab;" horiz-adv-x="1133" 
d="M285 1506l-44 153c48 51 101 92 192 92c112 0 205 -62 295 -62c69 0 124 37 166 70l37 -174c-42 -34 -113 -70 -202 -70c-112 0 -185 56 -287 56c-66 0 -105 -21 -157 -65zM225 1155l264 259h202l257 -259h-228l-132 140l-146 -140h-217zM432 -20
c-197 0 -349 114 -349 316c0 226 163 346 528 350l130 2v62c0 95 -54 148 -171 147c-85 -1 -171 -36 -200 -131h-243c11 224 198 328 457 328c316 0 437 -124 437 -327v-727h-244l-24 178c-71 -150 -176 -198 -321 -198zM531 172c105 0 209 84 210 173v153l-105 -2
c-146 -2 -276 -45 -276 -171c0 -96 75 -153 171 -153z" />
    <glyph glyph-name="uni0201" unicode="&#x201;" horiz-adv-x="1133" 
d="M302 1155l-312 291h276l246 -291h-210zM655 1155l-258 291h267l201 -291h-210zM432 -20c-197 0 -349 114 -349 316c0 226 163 346 528 350l130 2v62c0 95 -54 148 -171 147c-85 -1 -171 -36 -200 -131h-243c11 224 198 328 457 328c316 0 437 -124 437 -327v-727h-244
l-24 178c-71 -150 -176 -198 -321 -198zM531 172c105 0 209 84 210 173v153l-105 -2c-146 -2 -276 -45 -276 -171c0 -96 75 -153 171 -153z" />
    <glyph glyph-name="adieresis" unicode="&#xe4;" horiz-adv-x="1133" 
d="M682 1208l2 238h274l-3 -238h-273zM216 1208l2 238h274l-3 -238h-273zM432 -20c-197 0 -349 114 -349 316c0 226 163 346 528 350l130 2v62c0 95 -54 148 -171 147c-85 -1 -171 -36 -200 -131h-243c11 224 198 328 457 328c316 0 437 -124 437 -327v-727h-244l-24 178
c-71 -150 -176 -198 -321 -198zM531 172c105 0 209 84 210 173v153l-105 -2c-146 -2 -276 -45 -276 -171c0 -96 75 -153 171 -153z" />
    <glyph glyph-name="uni1EA1" unicode="&#x1ea1;" horiz-adv-x="1133" 
d="M432 -20c-197 0 -349 114 -349 316c0 226 163 346 528 350l130 2v62c0 95 -54 148 -171 147c-85 -1 -171 -36 -200 -131h-243c11 224 198 328 457 328c316 0 437 -124 437 -327v-727h-244l-24 178c-71 -150 -176 -198 -321 -198zM531 172c105 0 209 84 210 173v153
l-105 -2c-146 -2 -276 -45 -276 -171c0 -96 75 -153 171 -153zM443 -398v238h279v-238h-279z" />
    <glyph glyph-name="agrave" unicode="&#xe0;" horiz-adv-x="1133" 
d="M479 1155l-297 291h301l206 -291h-210zM432 -20c-197 0 -349 114 -349 316c0 226 163 346 528 350l130 2v62c0 95 -54 148 -171 147c-85 -1 -171 -36 -200 -131h-243c11 224 198 328 457 328c316 0 437 -124 437 -327v-727h-244l-24 178c-71 -150 -176 -198 -321 -198z
M531 172c105 0 209 84 210 173v153l-105 -2c-146 -2 -276 -45 -276 -171c0 -96 75 -153 171 -153z" />
    <glyph glyph-name="uni1EA3" unicode="&#x1ea3;" horiz-adv-x="1133" 
d="M670 1153l-69 109c52 33 74 80 46 125c-25 40 -85 41 -132 10l-69 106c122 78 255 54 316 -41c73 -113 43 -228 -92 -309zM432 -20c-197 0 -349 114 -349 316c0 226 163 346 528 350l130 2v62c0 95 -54 148 -171 147c-85 -1 -171 -36 -200 -131h-243
c11 224 198 328 457 328c316 0 437 -124 437 -327v-727h-244l-24 178c-71 -150 -176 -198 -321 -198zM531 172c105 0 209 84 210 173v153l-105 -2c-146 -2 -276 -45 -276 -171c0 -96 75 -153 171 -153z" />
    <glyph glyph-name="uni0203" unicode="&#x203;" horiz-adv-x="1133" 
d="M234 1180c35 169 182 255 350 255c170 0 317 -88 352 -255h-184c-21 66 -83 113 -168 113c-86 0 -145 -47 -166 -113h-184zM432 -20c-197 0 -349 114 -349 316c0 226 163 346 528 350l130 2v62c0 95 -54 148 -171 147c-85 -1 -171 -36 -200 -131h-243
c11 224 198 328 457 328c316 0 437 -124 437 -327v-727h-244l-24 178c-71 -150 -176 -198 -321 -198zM531 172c105 0 209 84 210 173v153l-105 -2c-146 -2 -276 -45 -276 -171c0 -96 75 -153 171 -153z" />
    <glyph glyph-name="amacron" unicode="&#x101;" horiz-adv-x="1133" 
d="M235 1205v187h703v-187h-703zM432 -20c-197 0 -349 114 -349 316c0 226 163 346 528 350l130 2v62c0 95 -54 148 -171 147c-85 -1 -171 -36 -200 -131h-243c11 224 198 328 457 328c316 0 437 -124 437 -327v-727h-244l-24 178c-71 -150 -176 -198 -321 -198zM531 172
c105 0 209 84 210 173v153l-105 -2c-146 -2 -276 -45 -276 -171c0 -96 75 -153 171 -153z" />
    <glyph glyph-name="aogonek" unicode="&#x105;" horiz-adv-x="1133" 
d="M432 -20c-197 0 -349 114 -349 316c0 226 163 346 528 350l130 2v62c0 95 -54 148 -171 147c-85 -1 -171 -36 -200 -131h-243c11 224 198 328 457 328c316 0 437 -124 437 -327v-727h-37c-119 -47 -157 -85 -157 -135c0 -43 22 -64 72 -64c61 0 106 22 145 44v-132
c-37 -23 -120 -48 -210 -48c-137 0 -218 57 -218 164c0 67 31 126 160 176l-23 173c-71 -150 -176 -198 -321 -198zM531 172c105 0 209 84 210 173v153l-105 -2c-146 -2 -276 -45 -276 -171c0 -96 75 -153 171 -153z" />
    <glyph glyph-name="aring" unicode="&#xe5;" horiz-adv-x="1133" 
d="M587 1135c-122 0 -218 97 -218 221c0 117 98 210 218 210c121 0 218 -95 218 -214c0 -122 -97 -217 -218 -217zM585 1249c56 0 99 48 99 102c0 57 -43 99 -99 99c-55 0 -102 -42 -102 -99c0 -54 47 -102 102 -102zM432 -20c-197 0 -349 114 -349 316
c0 226 163 346 528 350l130 2v62c0 95 -54 148 -171 147c-85 -1 -171 -36 -200 -131h-243c11 224 198 328 457 328c316 0 437 -124 437 -327v-727h-244l-24 178c-71 -150 -176 -198 -321 -198zM531 172c105 0 209 84 210 173v153l-105 -2c-146 -2 -276 -45 -276 -171
c0 -96 75 -153 171 -153z" />
    <glyph glyph-name="aringacute" unicode="&#x1fb;" horiz-adv-x="1133" 
d="M432 -20c-197 0 -349 114 -349 316c0 226 163 346 528 350l130 2v62c0 95 -54 148 -171 147c-85 -1 -171 -36 -200 -131h-243c9 174 124 276 296 312c-32 35 -52 83 -52 138c0 92 64 165 150 186l32 134h170l-59 -142c73 -30 124 -97 124 -182c0 -52 -19 -97 -49 -130
c202 -37 282 -150 282 -315v-727h-244l-24 178c-71 -150 -176 -198 -321 -198zM577 1068c56 0 100 49 100 102c0 57 -44 99 -100 99c-53 0 -101 -42 -101 -99c0 -53 48 -102 101 -102zM531 172c105 0 209 84 210 173v153l-105 -2c-146 -2 -276 -45 -276 -171
c0 -96 75 -153 171 -153z" />
    <glyph glyph-name="atilde" unicode="&#xe3;" horiz-adv-x="1133" 
d="M292 1191l-45 153c48 50 101 91 192 91c112 0 205 -61 295 -61c70 0 125 37 167 69l36 -173c-42 -35 -113 -70 -202 -70c-111 0 -184 55 -286 55c-67 0 -105 -21 -157 -64zM432 -20c-197 0 -349 114 -349 316c0 226 163 346 528 350l130 2v62c0 95 -54 148 -171 147
c-85 -1 -171 -36 -200 -131h-243c11 224 198 328 457 328c316 0 437 -124 437 -327v-727h-244l-24 178c-71 -150 -176 -198 -321 -198zM531 172c105 0 209 84 210 173v153l-105 -2c-146 -2 -276 -45 -276 -171c0 -96 75 -153 171 -153z" />
    <glyph glyph-name="ae" unicode="&#xe6;" horiz-adv-x="1827" 
d="M432 -20c-197 0 -349 114 -349 316c0 226 163 346 529 350l130 2v62c0 97 -64 148 -172 147c-84 -1 -171 -38 -200 -131h-243c11 214 199 328 457 328c172 0 292 -47 356 -126c77 80 185 126 319 126c316 0 482 -215 482 -525v-79h-694c-2 -158 81 -259 220 -259
c100 0 180 40 210 137h263c-35 -221 -250 -348 -466 -348c-190 0 -342 79 -430 218c-52 -137 -192 -218 -412 -218zM1046 624h422c0 125 -69 226 -209 226c-135 0 -214 -112 -213 -226zM531 172c123 0 208 99 209 188v138l-104 -2c-146 -2 -276 -45 -276 -171
c0 -96 75 -153 171 -153z" />
    <glyph glyph-name="aeacute" unicode="&#x1fd;" horiz-adv-x="1827" 
d="M761 1155l206 291h301l-296 -291h-211zM432 -20c-197 0 -349 114 -349 316c0 226 163 346 529 350l130 2v62c0 97 -64 148 -172 147c-84 -1 -171 -38 -200 -131h-243c11 214 199 328 457 328c172 0 292 -47 356 -126c77 80 185 126 319 126c316 0 482 -215 482 -525v-79
h-694c-2 -158 81 -259 220 -259c100 0 180 40 210 137h263c-35 -221 -250 -348 -466 -348c-190 0 -342 79 -430 218c-52 -137 -192 -218 -412 -218zM1046 624h422c0 125 -69 226 -209 226c-135 0 -214 -112 -213 -226zM531 172c123 0 208 99 209 188v138l-104 -2
c-146 -2 -276 -45 -276 -171c0 -96 75 -153 171 -153z" />
    <glyph glyph-name="b" unicode="b" horiz-adv-x="1217" 
d="M701 -20c-204 0 -294 118 -331 232l-33 -212h-212v1486h293v-592c50 88 163 160 311 160c256 0 412 -194 412 -531c0 -328 -152 -543 -440 -543zM637 190c126 0 219 95 219 337c0 215 -85 315 -221 315c-146 0 -216 -104 -217 -315c0 -244 71 -337 219 -337z" />
    <glyph glyph-name="c" unicode="c" horiz-adv-x="1094" 
d="M575 -20c-288 0 -499 202 -499 533c0 321 198 541 499 541c259 0 420 -175 436 -397h-243c-13 82 -71 175 -191 175c-136 0 -229 -104 -229 -317c0 -202 87 -328 235 -328c118 0 176 103 188 174h237c-13 -214 -180 -381 -433 -381z" />
    <glyph glyph-name="cacute" unicode="&#x107;" horiz-adv-x="1094" 
d="M465 1155l206 291h300l-296 -291h-210zM575 -20c-288 0 -499 202 -499 533c0 321 198 541 499 541c259 0 420 -175 436 -397h-243c-13 82 -71 175 -191 175c-136 0 -229 -104 -229 -317c0 -202 87 -328 235 -328c118 0 176 103 188 174h237c-13 -214 -180 -381 -433 -381
z" />
    <glyph glyph-name="ccaron" unicode="&#x10d;" horiz-adv-x="1094" 
d="M472 1155l-263 261h217l147 -150l131 150h229l-258 -261h-203zM575 -20c-288 0 -499 202 -499 533c0 321 198 541 499 541c259 0 420 -175 436 -397h-243c-13 82 -71 175 -191 175c-136 0 -229 -104 -229 -317c0 -202 87 -328 235 -328c118 0 176 103 188 174h237
c-13 -214 -180 -381 -433 -381z" />
    <glyph glyph-name="ccedilla" unicode="&#xe7;" horiz-adv-x="1094" 
d="M565 -425c-83 0 -163 13 -230 54l40 98c42 -26 96 -49 154 -49c63 0 100 23 100 62c0 52 -45 80 -169 82c-17 0 -24 2 -17 19l63 143c-252 30 -430 225 -430 529c0 321 198 541 499 541c259 0 420 -175 436 -397h-243c-13 82 -71 175 -191 175
c-136 0 -229 -104 -229 -317c0 -202 87 -328 235 -328c118 0 176 103 188 174h237c-12 -196 -154 -353 -372 -378l-34 -90c150 -3 202 -86 202 -156c0 -102 -111 -162 -239 -162z" />
    <glyph glyph-name="ccircumflex" unicode="&#x109;" horiz-adv-x="1094" 
d="M210 1155l264 259h201l258 -259h-229l-131 140l-147 -140h-216zM575 -20c-288 0 -499 202 -499 533c0 321 198 541 499 541c259 0 420 -175 436 -397h-243c-13 82 -71 175 -191 175c-136 0 -229 -104 -229 -317c0 -202 87 -328 235 -328c118 0 176 103 188 174h237
c-13 -214 -180 -381 -433 -381z" />
    <glyph glyph-name="cdotaccent" unicode="&#x10b;" horiz-adv-x="1094" 
d="M434 1208v238h279v-238h-279zM575 -20c-288 0 -499 202 -499 533c0 321 198 541 499 541c259 0 420 -175 436 -397h-243c-13 82 -71 175 -191 175c-136 0 -229 -104 -229 -317c0 -202 87 -328 235 -328c118 0 176 103 188 174h237c-13 -214 -180 -381 -433 -381z" />
    <glyph glyph-name="d" unicode="d" horiz-adv-x="1217" 
d="M516 -20c-278 0 -440 201 -440 543c0 324 145 531 411 531c148 0 262 -72 312 -160v592h293v-1486h-212l-33 212c-37 -114 -127 -232 -331 -232zM580 190c147 0 219 93 219 337c-2 211 -72 315 -217 315c-127 0 -221 -88 -221 -315c0 -230 85 -337 219 -337z" />
    <glyph glyph-name="eth" unicode="&#xf0;" horiz-adv-x="1151" 
d="M570 -20c-301 0 -494 224 -494 519c0 345 220 528 475 528c53 0 100 -8 143 -22c-24 64 -57 124 -94 180l-275 -81l-38 127l228 68c-62 73 -126 134 -178 182h235c47 -33 97 -74 147 -122l259 77l39 -127l-199 -59c141 -174 257 -413 257 -702
c0 -353 -181 -568 -505 -568zM578 197c150 0 213 138 213 314c0 189 -70 308 -212 308c-149 0 -218 -127 -218 -308c0 -171 60 -314 217 -314z" />
    <glyph glyph-name="dcaron" unicode="&#x10f;" horiz-adv-x="1210" 
d="M516 -20c-278 0 -440 201 -440 543c0 324 145 531 411 531c148 0 262 -72 312 -160v592h293v-1486h-212l-33 212c-37 -114 -127 -232 -331 -232zM1196 1050l81 202l-71 12v222h200v-233l-86 -203h-124zM580 190c147 0 219 93 219 337c-2 211 -72 315 -217 315
c-127 0 -221 -88 -221 -315c0 -230 85 -337 219 -337z" />
    <glyph glyph-name="dcroat" unicode="&#x111;" horiz-adv-x="1278" 
d="M516 -20c-278 0 -440 201 -440 543c0 324 145 531 411 531c148 0 262 -72 312 -160v266h-254v164h254v162h293v-162h126v-164h-126v-1160h-212l-33 212c-37 -114 -127 -232 -331 -232zM580 190c147 0 219 93 219 337c-2 211 -72 315 -217 315c-127 0 -221 -88 -221 -315
c0 -230 85 -337 219 -337z" />
    <glyph glyph-name="uni1E0D" unicode="&#x1e0d;" horiz-adv-x="1217" 
d="M516 -20c-278 0 -440 201 -440 543c0 324 145 531 411 531c148 0 262 -72 312 -160v592h293v-1486h-212l-33 212c-37 -114 -127 -232 -331 -232zM580 190c147 0 219 93 219 337c-2 211 -72 315 -217 315c-127 0 -221 -88 -221 -315c0 -230 85 -337 219 -337zM406 -398
v238h278v-238h-278z" />
    <glyph glyph-name="e" unicode="e" horiz-adv-x="1153" 
d="M600 -20c-307 0 -517 204 -517 525c0 311 185 549 502 549c316 0 482 -215 482 -525v-79h-695c-1 -158 81 -259 221 -259c100 0 180 40 210 137h263c-35 -221 -251 -348 -466 -348zM372 624h422c0 125 -69 226 -210 226c-134 0 -213 -112 -212 -226z" />
    <glyph glyph-name="eacute" unicode="&#xe9;" horiz-adv-x="1153" 
d="M477 1155l206 291h301l-297 -291h-210zM600 -20c-307 0 -517 204 -517 525c0 311 185 549 502 549c316 0 482 -215 482 -525v-79h-695c-1 -158 81 -259 221 -259c100 0 180 40 210 137h263c-35 -221 -251 -348 -466 -348zM372 624h422c0 125 -69 226 -210 226
c-134 0 -213 -112 -212 -226z" />
    <glyph glyph-name="ebreve" unicode="&#x115;" horiz-adv-x="1153" 
d="M585 1154c-167 0 -315 86 -350 255h185c20 -65 79 -112 165 -112s147 47 168 112h184c-35 -167 -181 -255 -352 -255zM600 -20c-307 0 -517 204 -517 525c0 311 185 549 502 549c316 0 482 -215 482 -525v-79h-695c-1 -158 81 -259 221 -259c100 0 180 40 210 137h263
c-35 -221 -251 -348 -466 -348zM372 624h422c0 125 -69 226 -210 226c-134 0 -213 -112 -212 -226z" />
    <glyph glyph-name="ecaron" unicode="&#x11b;" horiz-adv-x="1137" 
d="M474 1155l-264 261h217l147 -150l131 150h229l-257 -261h-203zM600 -20c-307 0 -517 204 -517 525c0 311 185 549 502 549c316 0 482 -215 482 -525v-79h-695c-1 -158 81 -259 221 -259c100 0 180 40 210 137h263c-35 -221 -251 -348 -466 -348zM372 624h422
c0 125 -69 226 -210 226c-134 0 -213 -112 -212 -226z" />
    <glyph glyph-name="ecircumflex" unicode="&#xea;" horiz-adv-x="1153" 
d="M222 1155l264 259h202l257 -259h-229l-131 140l-147 -140h-216zM600 -20c-307 0 -517 204 -517 525c0 311 185 549 502 549c316 0 482 -215 482 -525v-79h-695c-1 -158 81 -259 221 -259c100 0 180 40 210 137h263c-35 -221 -251 -348 -466 -348zM372 624h422
c0 125 -69 226 -210 226c-134 0 -213 -112 -212 -226z" />
    <glyph glyph-name="uni1EBF" unicode="&#x1ebf;" horiz-adv-x="1153" 
d="M813 1398l152 262h224l-224 -262h-152zM222 1155l264 259h202l257 -259h-229l-131 140l-147 -140h-216zM600 -20c-307 0 -517 204 -517 525c0 311 185 549 502 549c316 0 482 -215 482 -525v-79h-695c-1 -158 81 -259 221 -259c100 0 180 40 210 137h263
c-35 -221 -251 -348 -466 -348zM372 624h422c0 125 -69 226 -210 226c-134 0 -213 -112 -212 -226z" />
    <glyph glyph-name="uni1EC7" unicode="&#x1ec7;" horiz-adv-x="1153" 
d="M222 1155l264 259h202l257 -259h-229l-131 140l-147 -140h-216zM600 -20c-307 0 -517 204 -517 525c0 311 185 549 502 549c316 0 482 -215 482 -525v-79h-695c-1 -158 81 -259 221 -259c100 0 180 40 210 137h263c-35 -221 -251 -348 -466 -348zM372 624h422
c0 125 -69 226 -210 226c-134 0 -213 -112 -212 -226zM451 -398v238h279v-238h-279z" />
    <glyph glyph-name="uni1EC1" unicode="&#x1ec1;" horiz-adv-x="1153" 
d="M900 1398l-227 261h226l157 -261h-156zM222 1155l264 259h202l257 -259h-229l-131 140l-147 -140h-216zM600 -20c-307 0 -517 204 -517 525c0 311 185 549 502 549c316 0 482 -215 482 -525v-79h-695c-1 -158 81 -259 221 -259c100 0 180 40 210 137h263
c-35 -221 -251 -348 -466 -348zM372 624h422c0 125 -69 226 -210 226c-134 0 -213 -112 -212 -226z" />
    <glyph glyph-name="uni1EC3" unicode="&#x1ec3;" horiz-adv-x="1153" 
d="M885 1353l-69 109c52 33 74 80 46 125c-25 40 -84 41 -132 10l-69 106c122 78 255 54 316 -41c73 -113 43 -228 -92 -309zM229 1155l264 259h201l258 -259h-229l-131 140l-147 -140h-216zM600 -20c-307 0 -517 204 -517 525c0 311 185 549 502 549
c316 0 482 -215 482 -525v-79h-695c-1 -158 81 -259 221 -259c100 0 180 40 210 137h263c-35 -221 -251 -348 -466 -348zM372 624h422c0 125 -69 226 -210 226c-134 0 -213 -112 -212 -226z" />
    <glyph glyph-name="uni1EC5" unicode="&#x1ec5;" horiz-adv-x="1153" 
d="M285 1506l-45 153c48 51 101 92 192 92c112 0 205 -62 296 -62c69 0 124 37 166 70l36 -174c-42 -34 -113 -70 -202 -70c-111 0 -184 56 -286 56c-67 0 -105 -21 -157 -65zM225 1155l264 259h201l258 -259h-229l-131 140l-147 -140h-216zM600 -20
c-307 0 -517 204 -517 525c0 311 185 549 502 549c316 0 482 -215 482 -525v-79h-695c-1 -158 81 -259 221 -259c100 0 180 40 210 137h263c-35 -221 -251 -348 -466 -348zM372 624h422c0 125 -69 226 -210 226c-134 0 -213 -112 -212 -226z" />
    <glyph glyph-name="uni0205" unicode="&#x205;" horiz-adv-x="1153" 
d="M301 1155l-311 291h275l247 -291h-211zM654 1155l-257 291h266l201 -291h-210zM600 -20c-307 0 -517 204 -517 525c0 311 185 549 502 549c316 0 482 -215 482 -525v-79h-695c-1 -158 81 -259 221 -259c100 0 180 40 210 137h263c-35 -221 -251 -348 -466 -348zM372 624
h422c0 125 -69 226 -210 226c-134 0 -213 -112 -212 -226z" />
    <glyph glyph-name="edieresis" unicode="&#xeb;" horiz-adv-x="1153" 
d="M681 1208l3 238h273l-2 -238h-274zM215 1208l3 238h273l-2 -238h-274zM600 -20c-307 0 -517 204 -517 525c0 311 185 549 502 549c316 0 482 -215 482 -525v-79h-695c-1 -158 81 -259 221 -259c100 0 180 40 210 137h263c-35 -221 -251 -348 -466 -348zM372 624h422
c0 125 -69 226 -210 226c-134 0 -213 -112 -212 -226z" />
    <glyph glyph-name="edotaccent" unicode="&#x117;" horiz-adv-x="1153" 
d="M446 1208v238h279v-238h-279zM600 -20c-307 0 -517 204 -517 525c0 311 185 549 502 549c316 0 482 -215 482 -525v-79h-695c-1 -158 81 -259 221 -259c100 0 180 40 210 137h263c-35 -221 -251 -348 -466 -348zM372 624h422c0 125 -69 226 -210 226
c-134 0 -213 -112 -212 -226z" />
    <glyph glyph-name="uni1EB9" unicode="&#x1eb9;" horiz-adv-x="1153" 
d="M600 -20c-307 0 -517 204 -517 525c0 311 185 549 502 549c316 0 482 -215 482 -525v-79h-695c-1 -158 81 -259 221 -259c100 0 180 40 210 137h263c-35 -221 -251 -348 -466 -348zM372 624h422c0 125 -69 226 -210 226c-134 0 -213 -112 -212 -226zM451 -398v238h279
v-238h-279z" />
    <glyph glyph-name="egrave" unicode="&#xe8;" horiz-adv-x="1153" 
d="M478 1155l-296 291h300l206 -291h-210zM600 -20c-307 0 -517 204 -517 525c0 311 185 549 502 549c316 0 482 -215 482 -525v-79h-695c-1 -158 81 -259 221 -259c100 0 180 40 210 137h263c-35 -221 -251 -348 -466 -348zM372 624h422c0 125 -69 226 -210 226
c-134 0 -213 -112 -212 -226z" />
    <glyph glyph-name="uni1EBB" unicode="&#x1ebb;" horiz-adv-x="1153" 
d="M669 1153l-69 109c52 33 74 80 46 125c-24 40 -84 41 -132 10l-69 106c122 78 255 54 316 -41c73 -113 43 -228 -92 -309zM600 -20c-307 0 -517 204 -517 525c0 311 185 549 502 549c316 0 482 -215 482 -525v-79h-695c-1 -158 81 -259 221 -259c100 0 180 40 210 137
h263c-35 -221 -251 -348 -466 -348zM372 624h422c0 125 -69 226 -210 226c-134 0 -213 -112 -212 -226z" />
    <glyph glyph-name="uni0207" unicode="&#x207;" horiz-adv-x="1153" 
d="M233 1180c35 169 183 255 350 255c171 0 317 -88 352 -255h-183c-22 66 -83 113 -169 113s-145 -47 -165 -113h-185zM600 -20c-307 0 -517 204 -517 525c0 311 185 549 502 549c316 0 482 -215 482 -525v-79h-695c-1 -158 81 -259 221 -259c100 0 180 40 210 137h263
c-35 -221 -251 -348 -466 -348zM372 624h422c0 125 -69 226 -210 226c-134 0 -213 -112 -212 -226z" />
    <glyph glyph-name="emacron" unicode="&#x113;" horiz-adv-x="1153" 
d="M234 1205v187h703v-187h-703zM600 -20c-307 0 -517 204 -517 525c0 311 185 549 502 549c316 0 482 -215 482 -525v-79h-695c-1 -158 81 -259 221 -259c100 0 180 40 210 137h263c-35 -221 -251 -348 -466 -348zM372 624h422c0 125 -69 226 -210 226
c-134 0 -213 -112 -212 -226z" />
    <glyph glyph-name="eogonek" unicode="&#x119;" horiz-adv-x="1153" 
d="M675 -312c-136 0 -217 57 -217 165c0 48 16 92 74 131c-270 27 -449 223 -449 521c0 311 185 549 502 549c316 0 482 -215 482 -525v-79h-695c-1 -158 81 -259 221 -259c100 0 180 40 210 137h263c-22 -138 -105 -227 -243 -300c-103 -53 -154 -89 -154 -140
c0 -43 22 -64 72 -64c60 0 106 22 145 44v-132c-37 -23 -121 -48 -211 -48zM372 624h422c0 125 -69 226 -210 226c-134 0 -213 -112 -212 -226z" />
    <glyph glyph-name="uni1EBD" unicode="&#x1ebd;" horiz-adv-x="1153" 
d="M291 1191l-45 153c49 50 102 91 193 91c112 0 205 -61 295 -61c69 0 124 37 166 69l36 -173c-41 -35 -112 -70 -201 -70c-112 0 -185 55 -287 55c-67 0 -105 -21 -157 -64zM600 -20c-307 0 -517 204 -517 525c0 311 185 549 502 549c316 0 482 -215 482 -525v-79h-695
c-1 -158 81 -259 221 -259c100 0 180 40 210 137h263c-35 -221 -251 -348 -466 -348zM372 624h422c0 125 -69 226 -210 226c-134 0 -213 -112 -212 -226z" />
    <glyph glyph-name="uni0259" unicode="&#x259;" horiz-adv-x="1153" 
d="M568 -20c-316 0 -482 215 -482 525v79h694c2 159 -81 259 -220 259c-100 0 -180 -40 -210 -137h-263c35 221 250 348 466 348c307 0 516 -204 516 -525c0 -311 -184 -549 -501 -549zM568 184c135 0 214 112 213 227h-422c0 -126 69 -227 209 -227z" />
    <glyph glyph-name="f" unicode="f" horiz-adv-x="793" 
d="M241 0v831h-191v203h191v149c0 167 103 263 282 263h237l2 -194h-137c-74 0 -97 -34 -97 -118v-100h224v-203h-218v-831h-293z" />
    <glyph glyph-name="g" unicode="g" horiz-adv-x="1257" 
d="M605 -342c-368 0 -563 102 -563 254c0 141 181 184 201 195c-32 19 -127 56 -127 154c0 73 69 142 212 167c-137 63 -209 183 -209 298c0 204 209 324 490 324c142 0 224 -33 301 -81c62 24 217 86 304 122l-2 -226l-178 -29c14 -37 22 -82 22 -109
c0 -180 -159 -342 -468 -342c-24 0 -76 1 -102 4c-78 -4 -103 -22 -103 -43c0 -33 59 -38 181 -45c44 -3 124 -7 215 -13c253 -17 377 -133 377 -296c0 -194 -183 -334 -551 -334zM597 548c110 0 183 64 183 169c0 108 -73 179 -183 179c-111 0 -185 -72 -185 -179
c0 -103 70 -169 185 -169zM652 -179c162 0 226 41 226 116c0 62 -55 104 -157 111l-237 16c-94 5 -156 -54 -156 -118c0 -87 102 -125 324 -125z" />
    <glyph glyph-name="gbreve" unicode="&#x11f;" horiz-adv-x="1257" 
d="M608 1154c-168 0 -315 86 -350 255h184c21 -65 79 -112 166 -112c85 0 146 47 168 112h183c-35 -167 -181 -255 -351 -255zM605 -342c-368 0 -563 102 -563 254c0 141 181 184 201 195c-32 19 -127 56 -127 154c0 73 69 142 212 167c-137 63 -209 183 -209 298
c0 204 209 324 490 324c142 0 224 -33 301 -81c62 24 217 86 304 122l-2 -226l-178 -29c14 -37 22 -82 22 -109c0 -180 -159 -342 -468 -342c-24 0 -76 1 -102 4c-78 -4 -103 -22 -103 -43c0 -33 59 -38 181 -45c44 -3 124 -7 215 -13c253 -17 377 -133 377 -296
c0 -194 -183 -334 -551 -334zM597 548c110 0 183 64 183 169c0 108 -73 179 -183 179c-111 0 -185 -72 -185 -179c0 -103 70 -169 185 -169zM652 -179c162 0 226 41 226 116c0 62 -55 104 -157 111l-237 16c-94 5 -156 -54 -156 -118c0 -87 102 -125 324 -125z" />
    <glyph glyph-name="gcircumflex" unicode="&#x11d;" horiz-adv-x="1257" 
d="M244 1155l264 259h202l257 -259h-228l-132 140l-146 -140h-217zM605 -342c-368 0 -563 102 -563 254c0 141 181 184 201 195c-32 19 -127 56 -127 154c0 73 69 142 212 167c-137 63 -209 183 -209 298c0 204 209 324 490 324c142 0 224 -33 301 -81c62 24 217 86 304 122
l-2 -226l-178 -29c14 -37 22 -82 22 -109c0 -180 -159 -342 -468 -342c-24 0 -76 1 -102 4c-78 -4 -103 -22 -103 -43c0 -33 59 -38 181 -45c44 -3 124 -7 215 -13c253 -17 377 -133 377 -296c0 -194 -183 -334 -551 -334zM597 548c110 0 183 64 183 169
c0 108 -73 179 -183 179c-111 0 -185 -72 -185 -179c0 -103 70 -169 185 -169zM652 -179c162 0 226 41 226 116c0 62 -55 104 -157 111l-237 16c-94 5 -156 -54 -156 -118c0 -87 102 -125 324 -125z" />
    <glyph glyph-name="uni0123" unicode="&#x123;" horiz-adv-x="1257" 
d="M485 1155v177l145 195h107l-89 -162l81 -9v-201h-244zM605 -342c-368 0 -563 102 -563 254c0 141 181 184 201 195c-32 19 -127 56 -127 154c0 73 69 142 212 167c-137 63 -209 183 -209 298c0 204 209 324 490 324c142 0 224 -33 301 -81c62 24 217 86 304 122l-2 -226
l-178 -29c14 -37 22 -82 22 -109c0 -180 -159 -342 -468 -342c-24 0 -76 1 -102 4c-78 -4 -103 -22 -103 -43c0 -33 59 -38 181 -45c44 -3 124 -7 215 -13c253 -17 377 -133 377 -296c0 -194 -183 -334 -551 -334zM597 548c110 0 183 64 183 169c0 108 -73 179 -183 179
c-111 0 -185 -72 -185 -179c0 -103 70 -169 185 -169zM652 -179c162 0 226 41 226 116c0 62 -55 104 -157 111l-237 16c-94 5 -156 -54 -156 -118c0 -87 102 -125 324 -125z" />
    <glyph glyph-name="gdotaccent" unicode="&#x121;" horiz-adv-x="1257" 
d="M468 1208v238h279v-238h-279zM605 -342c-368 0 -563 102 -563 254c0 141 181 184 201 195c-32 19 -127 56 -127 154c0 73 69 142 212 167c-137 63 -209 183 -209 298c0 204 209 324 490 324c142 0 224 -33 301 -81c62 24 217 86 304 122l-2 -226l-178 -29
c14 -37 22 -82 22 -109c0 -180 -159 -342 -468 -342c-24 0 -76 1 -102 4c-78 -4 -103 -22 -103 -43c0 -33 59 -38 181 -45c44 -3 124 -7 215 -13c253 -17 377 -133 377 -296c0 -194 -183 -334 -551 -334zM597 548c110 0 183 64 183 169c0 108 -73 179 -183 179
c-111 0 -185 -72 -185 -179c0 -103 70 -169 185 -169zM652 -179c162 0 226 41 226 116c0 62 -55 104 -157 111l-237 16c-94 5 -156 -54 -156 -118c0 -87 102 -125 324 -125z" />
    <glyph glyph-name="h" unicode="h" horiz-adv-x="1185" 
d="M125 0v1486h290v-601c50 71 133 155 297 155c197 0 361 -119 361 -328v-712h-293v669c0 94 -78 145 -173 145c-96 0 -190 -52 -190 -154v-660h-292z" />
    <glyph glyph-name="hbar" unicode="&#x127;" horiz-adv-x="1237" 
d="M177 0v1160h-137v164h137v162h290v-162h246v-164h-246v-275c50 71 133 155 297 155c197 0 361 -119 361 -328v-712h-292v669c0 94 -78 145 -173 145c-97 0 -191 -52 -191 -154v-660h-292z" />
    <glyph glyph-name="hcircumflex" unicode="&#x125;" horiz-adv-x="1185" 
d="M-97 1567l264 259h202l257 -259h-228l-132 140l-146 -140h-217zM125 0v1486h290v-601c50 71 133 155 297 155c197 0 361 -119 361 -328v-712h-293v669c0 94 -78 145 -173 145c-96 0 -190 -52 -190 -154v-660h-292z" />
    <glyph glyph-name="uni1E25" unicode="&#x1e25;" horiz-adv-x="1185" 
d="M125 0v1486h290v-601c50 71 133 155 297 155c197 0 361 -119 361 -328v-712h-293v669c0 94 -78 145 -173 145c-96 0 -190 -52 -190 -154v-660h-292zM468 -398v238h279v-238h-279z" />
    <glyph glyph-name="i" unicode="i" horiz-adv-x="534" 
d="M125 1182v263h284v-263h-284zM128 0v1034h279v-1034h-279z" />
    <glyph glyph-name="dotlessi" unicode="&#x131;" horiz-adv-x="529" 
d="M125 0v1034h279v-1034h-279z" />
    <glyph glyph-name="iacute" unicode="&#xed;" horiz-adv-x="529" 
d="M358 1155l-198 2l130 289h287zM125 0v1034h279v-1034h-279z" />
    <glyph glyph-name="ibreve" unicode="&#x12d;" horiz-adv-x="529" 
d="M268 1154c-168 0 -315 86 -350 255h184c21 -65 80 -112 166 -112c85 0 147 47 168 112h183c-34 -167 -181 -255 -351 -255zM125 0v1034h279v-1034h-279z" />
    <glyph glyph-name="icircumflex" unicode="&#xee;" horiz-adv-x="529" 
d="M-95 1155l264 259h201l258 -259h-229l-131 140l-147 -140h-216zM125 0v1034h279v-1034h-279z" />
    <glyph glyph-name="uni0209" unicode="&#x209;" horiz-adv-x="529" 
d="M-16 1155l-312 291h276l246 -291h-210zM337 1155l-258 291h267l201 -291h-210zM125 0v1034h279v-1034h-279z" />
    <glyph glyph-name="idieresis" unicode="&#xef;" horiz-adv-x="768" 
d="M479 1204l2 238h274l-3 -238h-273zM13 1204l2 238h274l-3 -238h-273zM236 0v1034h280v-1034h-280z" />
    <glyph glyph-name="i.loclTRK" horiz-adv-x="529" 
d="M129 1208v238h279v-238h-279zM125 0v1034h279v-1034h-279z" />
    <glyph glyph-name="uni1ECB" unicode="&#x1ecb;" horiz-adv-x="534" 
d="M125 1182v263h284v-263h-284zM128 0v1034h279v-1034h-279zM128 -398v238h279v-238h-279z" />
    <glyph glyph-name="igrave" unicode="&#xec;" horiz-adv-x="529" 
d="M173 1155l-219 291h287l130 -289zM125 0v1034h279v-1034h-279z" />
    <glyph glyph-name="uni1EC9" unicode="&#x1ec9;" horiz-adv-x="529" 
d="M352 1153l-69 109c52 33 74 80 46 125c-25 40 -84 41 -132 10l-69 106c122 78 255 54 316 -41c73 -113 43 -228 -92 -309zM125 0v1034h279v-1034h-279z" />
    <glyph glyph-name="uni020B" unicode="&#x20b;" horiz-adv-x="692" 
d="M-7 1180c35 169 183 255 350 255c170 0 317 -88 352 -255h-184c-21 66 -82 113 -168 113s-145 -47 -165 -113h-185zM202 0v1034h279v-1034h-279z" />
    <glyph glyph-name="imacron" unicode="&#x12b;" horiz-adv-x="701" 
d="M-2 1205v187h703v-187h-703zM206 0v1034h280v-1034h-280z" />
    <glyph glyph-name="iogonek" unicode="&#x12f;" horiz-adv-x="529" 
d="M129 1208v238h279v-238h-279zM125 0v1034h279v-1025h4c-1 -1 -2 -1 -4 -1v-8h-19c-123 -48 -162 -86 -162 -137c0 -43 22 -64 72 -64c60 0 106 22 145 44v-132c-37 -23 -121 -48 -211 -48c-136 0 -217 57 -217 164c0 66 30 124 153 173h-40z" />
    <glyph glyph-name="itilde" unicode="&#x129;" horiz-adv-x="680" 
d="M40 1191l-45 153c48 50 101 91 192 91c112 0 205 -61 296 -61c69 0 124 37 166 69l36 -173c-42 -35 -113 -70 -202 -70c-111 0 -184 55 -286 55c-67 0 -105 -21 -157 -64zM191 0v1034h279v-1034h-279z" />
    <glyph glyph-name="j" unicode="j" horiz-adv-x="577" 
d="M154 1182v263h298v-263h-298zM101 -332c-108 0 -132 29 -132 29l-1 195l80 8c83 11 110 43 110 110v1024h291v-1027c0 -226 -103 -339 -348 -339z" />
    <glyph glyph-name="uni0237" unicode="&#x237;" horiz-adv-x="575" 
d="M100 -332c-108 0 -131 24 -131 29l-1 195l79 8c82 11 111 43 111 110v1024h292v-1027c0 -226 -105 -339 -350 -339z" />
    <glyph glyph-name="jcircumflex" unicode="&#x135;" horiz-adv-x="575" 
d="M-61 1155l264 259h202l257 -259h-228l-132 140l-146 -140h-217zM100 -332c-108 0 -131 24 -131 29l-1 195l79 8c82 11 111 43 111 110v1024h292v-1027c0 -226 -105 -339 -350 -339z" />
    <glyph glyph-name="k" unicode="k" horiz-adv-x="1159" 
d="M125 0v1486h292v-881l380 429h314l-376 -412l389 -622h-291l-279 446l-137 -146v-300h-292z" />
    <glyph glyph-name="uni0137" unicode="&#x137;" horiz-adv-x="1159" 
d="M125 0v1486h292v-881l380 429h314l-376 -412l389 -622h-291l-279 446l-137 -146v-300h-292zM447 -440l92 149l-80 10v187h248v-156l-156 -190h-104z" />
    <glyph glyph-name="kgreenlandic" unicode="&#x138;" horiz-adv-x="1202" 
d="M125 0v1034h292v-457l422 457h297l-344 -347l375 -687h-334l-236 475l-180 -175v-300h-292z" />
    <glyph glyph-name="l" unicode="l" horiz-adv-x="658" 
d="M455 -18c-306 0 -330 159 -330 308v1196h286v-1160c0 -76 27 -126 117 -136l49 -3v-180c-40 -14 -83 -25 -122 -25z" />
    <glyph glyph-name="lacute" unicode="&#x13a;" horiz-adv-x="658" 
d="M158 1649l206 291h301l-296 -291h-211zM455 -18c-306 0 -330 159 -330 308v1196h286v-1160c0 -76 27 -126 117 -136l49 -3v-180c-40 -14 -83 -25 -122 -25z" />
    <glyph glyph-name="lcaron" unicode="&#x13e;" horiz-adv-x="658" 
d="M455 -18c-306 0 -330 159 -330 308v1196h286v-1160c0 -76 27 -126 117 -136l49 -3v-180c-40 -14 -83 -25 -122 -25zM516 1050l81 202l-71 12v222h199v-233l-85 -203h-124z" />
    <glyph glyph-name="uni013C" unicode="&#x13c;" horiz-adv-x="658" 
d="M455 -18c-306 0 -330 159 -330 308v1196h286v-1160c0 -76 27 -126 117 -136l49 -3v-180c-40 -14 -83 -25 -122 -25zM128 -440l92 150l-81 9v188h249v-156l-156 -191h-104z" />
    <glyph glyph-name="ldot" unicode="&#x140;" horiz-adv-x="848" 
d="M455 -18c-306 0 -330 159 -330 308v1196h286v-1160c0 -76 27 -126 117 -136l49 -3v-180c-40 -14 -83 -25 -122 -25zM543 631v287h298v-287h-298z" />
    <glyph glyph-name="lslash" unicode="&#x142;" horiz-adv-x="742" 
d="M70 302v250l128 90v844h286v-642l165 116v-238l-165 -120v-276c0 -76 27 -126 117 -136l48 -3v-180c-39 -14 -83 -25 -121 -25c-306 0 -330 159 -330 308v104z" />
    <glyph glyph-name="m" unicode="m" horiz-adv-x="1791" 
d="M125 0v1034h286v-146c62 91 165 166 327 166c106 0 229 -57 290 -166c67 94 179 166 313 166c154 0 338 -93 338 -372v-682h-292v646c0 125 -83 170 -166 170c-77 0 -175 -44 -175 -154v-662h-291v672c0 94 -87 144 -164 144c-80 0 -174 -50 -174 -154v-662h-292z" />
    <glyph glyph-name="n" unicode="n" horiz-adv-x="1186" 
d="M125 0v1034h287v-146c47 75 137 155 300 155c189 0 362 -105 362 -361v-682h-292v646c0 112 -77 168 -172 168c-96 0 -193 -51 -193 -152v-662h-292z" />
    <glyph glyph-name="nacute" unicode="&#x144;" horiz-adv-x="1186" 
d="M496 1155l206 291h301l-297 -291h-210zM125 0v1034h287v-146c47 75 137 155 300 155c189 0 362 -105 362 -361v-682h-292v646c0 112 -77 168 -172 168c-96 0 -193 -51 -193 -152v-662h-292z" />
    <glyph glyph-name="ncaron" unicode="&#x148;" horiz-adv-x="1186" 
d="M504 1155l-264 261h217l147 -150l131 150h229l-258 -261h-202zM125 0v1034h287v-146c47 75 137 155 300 155c189 0 362 -105 362 -361v-682h-292v646c0 112 -77 168 -172 168c-96 0 -193 -51 -193 -152v-662h-292z" />
    <glyph glyph-name="uni0146" unicode="&#x146;" horiz-adv-x="1186" 
d="M125 0v1034h287v-146c47 75 137 155 300 155c189 0 362 -105 362 -361v-682h-292v646c0 112 -77 168 -172 168c-96 0 -193 -51 -193 -152v-662h-292zM464 -440l91 149l-80 10v187h248v-156l-156 -190h-103z" />
    <glyph glyph-name="uni1E45" unicode="&#x1e45;" horiz-adv-x="1186" 
d="M465 1208v238h279v-238h-279zM125 0v1034h287v-146c47 75 137 155 300 155c189 0 362 -105 362 -361v-682h-292v646c0 112 -77 168 -172 168c-96 0 -193 -51 -193 -152v-662h-292z" />
    <glyph glyph-name="eng" unicode="&#x14b;" horiz-adv-x="1200" 
d="M733 -332c-109 0 -121 19 -121 24v200l66 5c74 7 105 36 105 109v691c0 87 -48 144 -147 144c-82 0 -152 -44 -216 -125v-716h-295l4 1034h285v-160c114 115 223 180 352 180c188 0 309 -122 309 -307v-733c0 -215 -133 -346 -342 -346z" />
    <glyph glyph-name="ntilde" unicode="&#xf1;" horiz-adv-x="1186" 
d="M310 1191l-45 153c48 50 102 91 192 91c113 0 206 -61 296 -61c69 0 124 37 166 69l36 -173c-42 -35 -113 -70 -202 -70c-111 0 -184 55 -286 55c-67 0 -105 -21 -157 -64zM125 0v1034h287v-146c47 75 137 155 300 155c189 0 362 -105 362 -361v-682h-292v646
c0 112 -77 168 -172 168c-96 0 -193 -51 -193 -152v-662h-292z" />
    <glyph glyph-name="o" unicode="o" horiz-adv-x="1151" 
d="M576 -20c-304 0 -500 205 -500 531s194 543 501 543c305 0 499 -212 499 -543c0 -311 -185 -531 -500 -531zM577 197c153 0 213 150 213 324c0 164 -51 318 -213 318c-155 0 -216 -142 -216 -318c0 -162 52 -324 216 -324z" />
    <glyph glyph-name="oacute" unicode="&#xf3;" horiz-adv-x="1151" 
d="M467 1155l206 291h301l-296 -291h-211zM576 -20c-304 0 -500 205 -500 531s194 543 501 543c305 0 499 -212 499 -543c0 -311 -185 -531 -500 -531zM577 197c153 0 213 150 213 324c0 164 -51 318 -213 318c-155 0 -216 -142 -216 -318c0 -162 52 -324 216 -324z" />
    <glyph glyph-name="obreve" unicode="&#x14f;" horiz-adv-x="1151" 
d="M576 1154c-168 0 -315 86 -350 255h184c21 -65 79 -112 166 -112c85 0 146 47 168 112h183c-34 -167 -181 -255 -351 -255zM576 -20c-304 0 -500 205 -500 531s194 543 501 543c305 0 499 -212 499 -543c0 -311 -185 -531 -500 -531zM577 197c153 0 213 150 213 324
c0 164 -51 318 -213 318c-155 0 -216 -142 -216 -318c0 -162 52 -324 216 -324z" />
    <glyph glyph-name="ocircumflex" unicode="&#xf4;" horiz-adv-x="1151" 
d="M212 1155l265 259h201l257 -259h-228l-132 140l-146 -140h-217zM576 -20c-304 0 -500 205 -500 531s194 543 501 543c305 0 499 -212 499 -543c0 -311 -185 -531 -500 -531zM577 197c153 0 213 150 213 324c0 164 -51 318 -213 318c-155 0 -216 -142 -216 -318
c0 -162 52 -324 216 -324z" />
    <glyph glyph-name="uni1ED1" unicode="&#x1ed1;" horiz-adv-x="1151" 
d="M803 1398l152 262h225l-225 -262h-152zM212 1155l265 259h201l257 -259h-228l-132 140l-146 -140h-217zM576 -20c-304 0 -500 205 -500 531s194 543 501 543c305 0 499 -212 499 -543c0 -311 -185 -531 -500 -531zM577 197c153 0 213 150 213 324c0 164 -51 318 -213 318
c-155 0 -216 -142 -216 -318c0 -162 52 -324 216 -324z" />
    <glyph glyph-name="uni1ED9" unicode="&#x1ed9;" horiz-adv-x="1151" 
d="M212 1155l265 259h201l257 -259h-228l-132 140l-146 -140h-217zM576 -20c-304 0 -500 205 -500 531s194 543 501 543c305 0 499 -212 499 -543c0 -311 -185 -531 -500 -531zM577 197c153 0 213 150 213 324c0 164 -51 318 -213 318c-155 0 -216 -142 -216 -318
c0 -162 52 -324 216 -324zM434 -398v238h279v-238h-279z" />
    <glyph glyph-name="uni1ED3" unicode="&#x1ed3;" horiz-adv-x="1151" 
d="M890 1398l-226 261h226l157 -261h-157zM212 1155l265 259h201l257 -259h-228l-132 140l-146 -140h-217zM576 -20c-304 0 -500 205 -500 531s194 543 501 543c305 0 499 -212 499 -543c0 -311 -185 -531 -500 -531zM577 197c153 0 213 150 213 324c0 164 -51 318 -213 318
c-155 0 -216 -142 -216 -318c0 -162 52 -324 216 -324z" />
    <glyph glyph-name="uni1ED5" unicode="&#x1ed5;" horiz-adv-x="1151" 
d="M875 1353l-69 109c53 33 74 80 46 125c-24 40 -84 41 -132 10l-69 106c122 78 255 54 316 -41c73 -113 43 -228 -92 -309zM219 1155l264 259h202l257 -259h-228l-132 140l-146 -140h-217zM576 -20c-304 0 -500 205 -500 531s194 543 501 543c305 0 499 -212 499 -543
c0 -311 -185 -531 -500 -531zM577 197c153 0 213 150 213 324c0 164 -51 318 -213 318c-155 0 -216 -142 -216 -318c0 -162 52 -324 216 -324z" />
    <glyph glyph-name="uni1ED7" unicode="&#x1ed7;" horiz-adv-x="1151" 
d="M275 1506l-44 153c48 51 101 92 192 92c112 0 205 -62 295 -62c69 0 124 37 166 70l37 -174c-42 -34 -113 -70 -202 -70c-112 0 -185 56 -287 56c-67 0 -105 -21 -157 -65zM215 1155l264 259h202l257 -259h-228l-132 140l-146 -140h-217zM576 -20
c-304 0 -500 205 -500 531s194 543 501 543c305 0 499 -212 499 -543c0 -311 -185 -531 -500 -531zM577 197c153 0 213 150 213 324c0 164 -51 318 -213 318c-155 0 -216 -142 -216 -318c0 -162 52 -324 216 -324z" />
    <glyph glyph-name="uni020D" unicode="&#x20d;" horiz-adv-x="1151" 
d="M292 1155l-312 291h275l247 -291h-210zM644 1155l-257 291h267l201 -291h-211zM576 -20c-304 0 -500 205 -500 531s194 543 501 543c305 0 499 -212 499 -543c0 -311 -185 -531 -500 -531zM577 197c153 0 213 150 213 324c0 164 -51 318 -213 318
c-155 0 -216 -142 -216 -318c0 -162 52 -324 216 -324z" />
    <glyph glyph-name="odieresis" unicode="&#xf6;" horiz-adv-x="1151" 
d="M671 1208l3 238h274l-3 -238h-274zM205 1208l3 238h274l-3 -238h-274zM576 -20c-304 0 -500 205 -500 531s194 543 501 543c305 0 499 -212 499 -543c0 -311 -185 -531 -500 -531zM577 197c153 0 213 150 213 324c0 164 -51 318 -213 318c-155 0 -216 -142 -216 -318
c0 -162 52 -324 216 -324z" />
    <glyph glyph-name="uni1ECD" unicode="&#x1ecd;" horiz-adv-x="1151" 
d="M576 -20c-304 0 -500 205 -500 531s194 543 501 543c305 0 499 -212 499 -543c0 -311 -185 -531 -500 -531zM577 197c153 0 213 150 213 324c0 164 -51 318 -213 318c-155 0 -216 -142 -216 -318c0 -162 52 -324 216 -324zM434 -398v238h279v-238h-279z" />
    <glyph glyph-name="ograve" unicode="&#xf2;" horiz-adv-x="1151" 
d="M468 1155l-296 291h301l206 -291h-211zM576 -20c-304 0 -500 205 -500 531s194 543 501 543c305 0 499 -212 499 -543c0 -311 -185 -531 -500 -531zM577 197c153 0 213 150 213 324c0 164 -51 318 -213 318c-155 0 -216 -142 -216 -318c0 -162 52 -324 216 -324z" />
    <glyph glyph-name="uni1ECF" unicode="&#x1ecf;" horiz-adv-x="1151" 
d="M659 1153l-68 109c52 33 74 80 46 125c-25 40 -85 41 -132 10l-69 106c122 78 255 54 316 -41c73 -113 42 -228 -93 -309zM576 -20c-304 0 -500 205 -500 531s194 543 501 543c305 0 499 -212 499 -543c0 -311 -185 -531 -500 -531zM577 197c153 0 213 150 213 324
c0 164 -51 318 -213 318c-155 0 -216 -142 -216 -318c0 -162 52 -324 216 -324z" />
    <glyph glyph-name="ohorn" unicode="&#x1a1;" horiz-adv-x="1282" 
d="M576 -20c-304 0 -500 205 -500 531s194 543 501 543c155 0 281 -55 368 -152c100 3 139 26 153 211h192c-2 -237 -62 -348 -258 -359c28 -68 44 -150 44 -243c0 -311 -185 -531 -500 -531zM577 197c153 0 213 150 213 324c0 164 -51 318 -213 318
c-155 0 -216 -142 -216 -318c0 -162 52 -324 216 -324z" />
    <glyph glyph-name="uni1EDB" unicode="&#x1edb;" horiz-adv-x="1282" 
d="M462 1155l206 291h300l-296 -291h-210zM576 -20c-304 0 -500 205 -500 531s194 543 501 543c155 0 281 -55 368 -152c100 3 139 26 153 211h192c-2 -237 -62 -348 -258 -359c28 -68 44 -150 44 -243c0 -311 -185 -531 -500 -531zM577 197c153 0 213 150 213 324
c0 164 -51 318 -213 318c-155 0 -216 -142 -216 -318c0 -162 52 -324 216 -324z" />
    <glyph glyph-name="uni1EE3" unicode="&#x1ee3;" horiz-adv-x="1282" 
d="M576 -20c-304 0 -500 205 -500 531s194 543 501 543c155 0 281 -55 368 -152c100 3 139 26 153 211h192c-2 -237 -62 -348 -258 -359c28 -68 44 -150 44 -243c0 -311 -185 -531 -500 -531zM577 197c153 0 213 150 213 324c0 164 -51 318 -213 318
c-155 0 -216 -142 -216 -318c0 -162 52 -324 216 -324zM409 -398v238h278v-238h-278z" />
    <glyph glyph-name="uni1EDD" unicode="&#x1edd;" horiz-adv-x="1282" 
d="M457 1155l-296 291h301l206 -291h-211zM576 -20c-304 0 -500 205 -500 531s194 543 501 543c155 0 281 -55 368 -152c100 3 139 26 153 211h192c-2 -237 -62 -348 -258 -359c28 -68 44 -150 44 -243c0 -311 -185 -531 -500 -531zM577 197c153 0 213 150 213 324
c0 164 -51 318 -213 318c-155 0 -216 -142 -216 -318c0 -162 52 -324 216 -324z" />
    <glyph glyph-name="uni1EDF" unicode="&#x1edf;" horiz-adv-x="1282" 
d="M647 1153l-69 109c52 33 74 80 46 125c-24 40 -84 41 -132 10l-69 106c122 78 255 54 316 -41c73 -113 43 -228 -92 -309zM576 -20c-304 0 -500 205 -500 531s194 543 501 543c155 0 281 -55 368 -152c100 3 139 26 153 211h192c-2 -237 -62 -348 -258 -359
c28 -68 44 -150 44 -243c0 -311 -185 -531 -500 -531zM577 197c153 0 213 150 213 324c0 164 -51 318 -213 318c-155 0 -216 -142 -216 -318c0 -162 52 -324 216 -324z" />
    <glyph glyph-name="uni1EE1" unicode="&#x1ee1;" horiz-adv-x="1282" 
d="M269 1191l-45 153c49 50 102 91 193 91c112 0 205 -61 295 -61c69 0 124 37 166 69l36 -173c-41 -35 -112 -70 -201 -70c-112 0 -185 55 -287 55c-67 0 -105 -21 -157 -64zM576 -20c-304 0 -500 205 -500 531s194 543 501 543c155 0 281 -55 368 -152
c100 3 139 26 153 211h192c-2 -237 -62 -348 -258 -359c28 -68 44 -150 44 -243c0 -311 -185 -531 -500 -531zM577 197c153 0 213 150 213 324c0 164 -51 318 -213 318c-155 0 -216 -142 -216 -318c0 -162 52 -324 216 -324z" />
    <glyph glyph-name="ohungarumlaut" unicode="&#x151;" horiz-adv-x="1151" 
d="M649 1155l247 291h275l-312 -291h-210zM296 1155l201 291h267l-257 -291h-211zM576 -20c-304 0 -500 205 -500 531s194 543 501 543c305 0 499 -212 499 -543c0 -311 -185 -531 -500 -531zM577 197c153 0 213 150 213 324c0 164 -51 318 -213 318
c-155 0 -216 -142 -216 -318c0 -162 52 -324 216 -324z" />
    <glyph glyph-name="uni020F" unicode="&#x20f;" horiz-adv-x="1151" 
d="M224 1180c35 169 182 255 350 255c170 0 317 -88 351 -255h-183c-22 66 -83 113 -168 113c-87 0 -145 -47 -166 -113h-184zM576 -20c-304 0 -500 205 -500 531s194 543 501 543c305 0 499 -212 499 -543c0 -311 -185 -531 -500 -531zM577 197c153 0 213 150 213 324
c0 164 -51 318 -213 318c-155 0 -216 -142 -216 -318c0 -162 52 -324 216 -324z" />
    <glyph glyph-name="omacron" unicode="&#x14d;" horiz-adv-x="1151" 
d="M225 1205v187h703v-187h-703zM576 -20c-304 0 -500 205 -500 531s194 543 501 543c305 0 499 -212 499 -543c0 -311 -185 -531 -500 -531zM577 197c153 0 213 150 213 324c0 164 -51 318 -213 318c-155 0 -216 -142 -216 -318c0 -162 52 -324 216 -324z" />
    <glyph glyph-name="uni01EB" unicode="&#x1eb;" horiz-adv-x="1151" 
d="M585 -336c-137 0 -218 58 -218 165c0 59 25 112 119 157c-252 37 -410 232 -410 525c0 326 194 543 501 543c305 0 499 -212 499 -543c0 -246 -115 -434 -318 -503c-137 -51 -180 -90 -180 -143c0 -43 22 -64 72 -64c61 0 106 21 145 43v-132c-37 -23 -120 -48 -210 -48z
M577 197c153 0 213 150 213 324c0 164 -51 318 -213 318c-155 0 -216 -142 -216 -318c0 -162 52 -324 216 -324z" />
    <glyph glyph-name="oslash" unicode="&#xf8;" horiz-adv-x="1223" 
d="M147 -15l-96 103l140 133c-43 80 -66 178 -66 290c0 326 194 543 501 543c133 0 244 -40 327 -112l111 104l95 -102l-115 -109c52 -87 81 -197 81 -324c0 -311 -185 -531 -500 -531c-143 0 -262 45 -349 128zM410 521c0 -30 2 -59 6 -88l357 339c-33 41 -81 67 -147 67
c-155 0 -216 -142 -216 -318zM626 197c153 0 214 150 214 324c0 38 -3 76 -10 111l-366 -347c34 -53 86 -88 162 -88z" />
    <glyph glyph-name="oslashacute" unicode="&#x1ff;" horiz-adv-x="1223" 
d="M497 1155l206 291h300l-296 -291h-210zM147 -15l-96 103l140 133c-43 80 -66 178 -66 290c0 326 194 543 501 543c133 0 244 -40 327 -112l111 104l95 -102l-115 -109c52 -87 81 -197 81 -324c0 -311 -185 -531 -500 -531c-143 0 -262 45 -349 128zM410 521
c0 -30 2 -59 6 -88l357 339c-33 41 -81 67 -147 67c-155 0 -216 -142 -216 -318zM626 197c153 0 214 150 214 324c0 38 -3 76 -10 111l-366 -347c34 -53 86 -88 162 -88z" />
    <glyph glyph-name="otilde" unicode="&#xf5;" horiz-adv-x="1151" 
d="M281 1191l-44 153c48 50 101 91 192 91c112 0 205 -61 295 -61c70 0 124 37 167 69l36 -173c-42 -35 -113 -70 -202 -70c-112 0 -185 55 -287 55c-66 0 -105 -21 -157 -64zM576 -20c-304 0 -500 205 -500 531s194 543 501 543c305 0 499 -212 499 -543
c0 -311 -185 -531 -500 -531zM577 197c153 0 213 150 213 324c0 164 -51 318 -213 318c-155 0 -216 -142 -216 -318c0 -162 52 -324 216 -324z" />
    <glyph glyph-name="oe" unicode="&#x153;" horiz-adv-x="1868" 
d="M1782 529v-79h-694c-1 -158 81 -259 220 -259c100 0 181 40 210 137h263c-35 -221 -250 -348 -466 -348c-160 0 -292 60 -376 169c-79 -106 -200 -169 -363 -169c-304 0 -500 205 -500 531s194 543 501 543c157 0 283 -59 363 -171c79 108 202 171 360 171
c316 0 482 -215 482 -525zM1087 624h422c0 125 -69 226 -209 226c-135 0 -213 -112 -213 -226zM577 197c153 0 213 150 213 324c0 164 -51 318 -213 318c-155 0 -216 -142 -216 -318c0 -162 52 -324 216 -324z" />
    <glyph glyph-name="p" unicode="p" horiz-adv-x="1214" 
d="M125 -322v1356h293l1 -149c63 96 180 169 321 169c231 0 398 -167 398 -529c0 -375 -182 -545 -427 -545c-133 0 -237 78 -294 175v-477h-292zM641 194c126 0 224 100 224 329c0 199 -90 319 -224 319c-152 0 -224 -138 -224 -319c0 -173 72 -329 224 -329z" />
    <glyph glyph-name="thorn" unicode="&#xfe;" horiz-adv-x="1208" 
d="M125 -322v1768h292v-543c66 73 152 151 314 151c226 0 402 -169 402 -529c0 -375 -180 -545 -419 -545c-102 0 -187 31 -262 99c-28 25 -35 25 -35 -11v-390h-292zM608 165c138 0 228 101 228 366c0 252 -92 337 -224 337c-113 0 -195 -80 -195 -159v-444
c52 -59 111 -100 191 -100z" />
    <glyph glyph-name="q" unicode="q" horiz-adv-x="1214" 
d="M797 -322v477c-57 -97 -161 -175 -294 -175c-233 0 -427 156 -427 545c0 349 156 529 398 529c141 0 258 -73 321 -169l2 149h292v-1356h-292zM573 194c152 0 225 156 225 329c0 181 -73 319 -225 319c-126 0 -224 -108 -224 -319c0 -217 90 -329 224 -329z" />
    <glyph glyph-name="r" unicode="r" horiz-adv-x="824" 
d="M125 0v1034h281v-245c49 158 165 265 328 265c19 0 37 -2 45 -6v-278c-12 5 -30 6 -44 7c-230 20 -318 -72 -318 -211v-566h-292z" />
    <glyph glyph-name="racute" unicode="&#x155;" horiz-adv-x="824" 
d="M339 1155l206 291h301l-296 -291h-211zM125 0v1034h281v-245c49 158 165 265 328 265c19 0 37 -2 45 -6v-278c-12 5 -30 6 -44 7c-230 20 -318 -72 -318 -211v-566h-292z" />
    <glyph glyph-name="rcaron" unicode="&#x159;" horiz-adv-x="824" 
d="M347 1155l-263 261h217l146 -150l132 150h228l-257 -261h-203zM125 0v1034h281v-245c49 158 165 265 328 265c19 0 37 -2 45 -6v-278c-12 5 -30 6 -44 7c-230 20 -318 -72 -318 -211v-566h-292z" />
    <glyph glyph-name="uni0157" unicode="&#x157;" horiz-adv-x="824" 
d="M125 0v1034h281v-245c49 158 165 265 328 265c19 0 37 -2 45 -6v-278c-12 5 -30 6 -44 7c-230 20 -318 -72 -318 -211v-566h-292zM134 -440l91 149l-80 10v187h248v-156l-156 -190h-103z" />
    <glyph glyph-name="uni0211" unicode="&#x211;" horiz-adv-x="824" 
d="M164 1155l-312 291h275l247 -291h-210zM516 1155l-257 291h266l202 -291h-211zM125 0v1034h281v-245c49 158 165 265 328 265c19 0 37 -2 45 -6v-278c-12 5 -30 6 -44 7c-230 20 -318 -72 -318 -211v-566h-292z" />
    <glyph glyph-name="uni1E5B" unicode="&#x1e5b;" horiz-adv-x="824" 
d="M125 0v1034h281v-245c49 158 165 265 328 265c19 0 37 -2 45 -6v-278c-12 5 -30 6 -44 7c-230 20 -318 -72 -318 -211v-566h-292zM131 -398v238h279v-238h-279z" />
    <glyph glyph-name="uni0213" unicode="&#x213;" horiz-adv-x="824" 
d="M96 1153c35 169 182 255 350 255c170 0 317 -88 351 -255h-183c-22 65 -83 112 -168 112c-87 0 -145 -47 -166 -112h-184zM125 0v1034h281v-245c49 158 165 265 328 265c19 0 37 -2 45 -6v-278c-12 5 -30 6 -44 7c-230 20 -318 -72 -318 -211v-566h-292z" />
    <glyph glyph-name="s" unicode="s" horiz-adv-x="1054" 
d="M541 -20c-216 0 -427 101 -464 346h252c27 -110 130 -146 211 -146c111 0 187 34 187 108c0 56 -37 87 -131 105l-182 38c-183 38 -304 125 -305 296c-1 186 151 327 434 327c254 0 419 -118 422 -321h-244c-15 80 -84 125 -182 125c-100 0 -173 -36 -173 -109
c0 -54 51 -83 164 -105l168 -38c230 -57 279 -208 279 -302c0 -207 -178 -324 -436 -324z" />
    <glyph glyph-name="sacute" unicode="&#x15b;" horiz-adv-x="1054" 
d="M435 1155l206 291h301l-297 -291h-210zM541 -20c-216 0 -427 101 -464 346h252c27 -110 130 -146 211 -146c111 0 187 34 187 108c0 56 -37 87 -131 105l-182 38c-183 38 -304 125 -305 296c-1 186 151 327 434 327c254 0 419 -118 422 -321h-244
c-15 80 -84 125 -182 125c-100 0 -173 -36 -173 -109c0 -54 51 -83 164 -105l168 -38c230 -57 279 -208 279 -302c0 -207 -178 -324 -436 -324z" />
    <glyph glyph-name="scaron" unicode="&#x161;" horiz-adv-x="1054" 
d="M443 1155l-264 261h217l147 -150l131 150h229l-258 -261h-202zM541 -20c-216 0 -427 101 -464 346h252c27 -110 130 -146 211 -146c111 0 187 34 187 108c0 56 -37 87 -131 105l-182 38c-183 38 -304 125 -305 296c-1 186 151 327 434 327c254 0 419 -118 422 -321h-244
c-15 80 -84 125 -182 125c-100 0 -173 -36 -173 -109c0 -54 51 -83 164 -105l168 -38c230 -57 279 -208 279 -302c0 -207 -178 -324 -436 -324z" />
    <glyph glyph-name="scedilla" unicode="&#x15f;" horiz-adv-x="1054" 
d="M525 -425c-83 0 -163 13 -230 54l40 98c42 -26 96 -49 155 -49c62 0 99 23 99 62c0 52 -45 80 -169 82c-17 0 -24 2 -16 19l62 143c-188 22 -356 126 -389 342h252c27 -110 130 -146 211 -146c111 0 187 34 187 108c0 56 -37 87 -131 105l-182 38
c-183 38 -304 125 -305 296c-1 186 151 327 434 327c254 0 419 -118 422 -321h-244c-15 80 -84 125 -182 125c-100 0 -173 -36 -173 -109c0 -54 51 -83 164 -105l168 -38c230 -57 279 -208 279 -302c0 -192 -153 -307 -381 -322l-34 -89c151 -3 203 -86 203 -156
c0 -102 -112 -162 -240 -162z" />
    <glyph glyph-name="scircumflex" unicode="&#x15d;" horiz-adv-x="1054" 
d="M180 1155l264 259h201l258 -259h-229l-131 140l-147 -140h-216zM541 -20c-216 0 -427 101 -464 346h252c27 -110 130 -146 211 -146c111 0 187 34 187 108c0 56 -37 87 -131 105l-182 38c-183 38 -304 125 -305 296c-1 186 151 327 434 327c254 0 419 -118 422 -321h-244
c-15 80 -84 125 -182 125c-100 0 -173 -36 -173 -109c0 -54 51 -83 164 -105l168 -38c230 -57 279 -208 279 -302c0 -207 -178 -324 -436 -324z" />
    <glyph glyph-name="uni0219" unicode="&#x219;" horiz-adv-x="1054" 
d="M541 -20c-216 0 -427 101 -464 346h252c27 -110 130 -146 211 -146c111 0 187 34 187 108c0 56 -37 87 -131 105l-182 38c-183 38 -304 125 -305 296c-1 186 151 327 434 327c254 0 419 -118 422 -321h-244c-15 80 -84 125 -182 125c-100 0 -173 -36 -173 -109
c0 -54 51 -83 164 -105l168 -38c230 -57 279 -208 279 -302c0 -207 -178 -324 -436 -324zM399 -440l91 149l-80 10v187h248v-156l-156 -190h-103z" />
    <glyph glyph-name="uni1E63" unicode="&#x1e63;" horiz-adv-x="1054" 
d="M541 -20c-216 0 -427 101 -464 346h252c27 -110 130 -146 211 -146c111 0 187 34 187 108c0 56 -37 87 -131 105l-182 38c-183 38 -304 125 -305 296c-1 186 151 327 434 327c254 0 419 -118 422 -321h-244c-15 80 -84 125 -182 125c-100 0 -173 -36 -173 -109
c0 -54 51 -83 164 -105l168 -38c230 -57 279 -208 279 -302c0 -207 -178 -324 -436 -324zM396 -398v238h279v-238h-279z" />
    <glyph glyph-name="germandbls" unicode="&#xdf;" horiz-adv-x="1254" 
d="M754 -20c-110 0 -204 27 -268 67l87 180c44 -27 93 -59 171 -59c98 0 171 47 171 138c0 95 -79 126 -194 171c-115 47 -216 118 -216 259c0 100 54 163 132 221c64 54 135 96 135 178c0 70 -55 122 -157 122c-126 0 -202 -82 -202 -213v-1044h-286l-2 989
c6 241 143 457 504 457c269 0 407 -117 407 -296c0 -143 -88 -216 -260 -290c-41 -21 -57 -32 -57 -56c0 -25 15 -34 58 -48c189 -80 400 -162 400 -419c0 -233 -172 -357 -423 -357z" />
    <glyph glyph-name="t" unicode="t" horiz-adv-x="833" 
d="M571 -11c-273 0 -343 113 -343 279v563h-168v203h177l74 312h208v-311h230v-204h-230l2 -551c0 -76 28 -86 92 -86h139v-180c-28 -12 -80 -25 -181 -25z" />
    <glyph glyph-name="tbar" unicode="&#x167;" horiz-adv-x="833" 
d="M79 493v165h149v173h-168v203h177l74 312h208v-311h230v-204h-230l1 -173h208v-165h-208l1 -213c0 -76 28 -86 92 -86h139v-180c-28 -12 -80 -25 -181 -25c-273 0 -343 113 -343 279v225h-149z" />
    <glyph glyph-name="tcaron" unicode="&#x165;" horiz-adv-x="900" 
d="M591 1119l81 201l-71 12v223h200v-233l-86 -203h-124zM571 -11c-273 0 -343 113 -343 279v563h-168v203h177l74 312h208v-311h230v-204h-230l2 -551c0 -76 28 -86 92 -86h139v-180c-28 -12 -80 -25 -181 -25z" />
    <glyph glyph-name="uni0163" unicode="&#x163;" horiz-adv-x="833" 
d="M571 -11h-25l-32 -84c150 -3 202 -85 202 -156c0 -102 -111 -162 -239 -162c-83 0 -163 13 -230 54l40 99c42 -26 96 -50 154 -50c63 0 100 23 100 62c0 53 -45 81 -169 82c-17 0 -24 3 -17 19l66 151c-150 36 -193 134 -193 264v563h-168v203h177l74 312h208v-311h230
v-204h-230l2 -551c0 -76 28 -86 92 -86h139v-180c-28 -12 -80 -25 -181 -25z" />
    <glyph glyph-name="uni021B" unicode="&#x21b;" horiz-adv-x="833" 
d="M571 -11c-273 0 -343 113 -343 279v563h-168v203h177l74 312h208v-311h230v-204h-230l2 -551c0 -76 28 -86 92 -86h139v-180c-28 -12 -80 -25 -181 -25zM350 -428l92 149l-80 10v188h248v-156l-156 -191h-104z" />
    <glyph glyph-name="uni1E6D" unicode="&#x1e6d;" horiz-adv-x="833" 
d="M571 -11c-273 0 -343 113 -343 279v563h-168v203h177l74 312h208v-311h230v-204h-230l2 -551c0 -76 28 -86 92 -86h139v-180c-28 -12 -80 -25 -181 -25zM348 -385v237h278v-237h-278z" />
    <glyph glyph-name="u" unicode="u" horiz-adv-x="1190" 
d="M506 -20c-190 1 -394 119 -394 339v715h292v-678c0 -96 64 -164 185 -164c114 0 187 62 187 169v673h289v-1034h-220l-34 205c-37 -181 -183 -226 -305 -225z" />
    <glyph glyph-name="uacute" unicode="&#xfa;" horiz-adv-x="1190" 
d="M482 1155l206 291h301l-296 -291h-211zM506 -20c-190 1 -394 119 -394 339v715h292v-678c0 -96 64 -164 185 -164c114 0 187 62 187 169v673h289v-1034h-220l-34 205c-37 -181 -183 -226 -305 -225z" />
    <glyph glyph-name="ubreve" unicode="&#x16d;" horiz-adv-x="1190" 
d="M591 1154c-168 0 -315 86 -350 255h184c21 -65 79 -112 166 -112c85 0 146 47 168 112h183c-34 -167 -181 -255 -351 -255zM506 -20c-190 1 -394 119 -394 339v715h292v-678c0 -96 64 -164 185 -164c114 0 187 62 187 169v673h289v-1034h-220l-34 205
c-37 -181 -183 -226 -305 -225z" />
    <glyph glyph-name="uni01D4" unicode="&#x1d4;" horiz-adv-x="1190" 
d="M490 1155l-263 261h217l146 -150l132 150h228l-257 -261h-203zM506 -20c-190 1 -394 119 -394 339v715h292v-678c0 -96 64 -164 185 -164c114 0 187 62 187 169v673h289v-1034h-220l-34 205c-37 -181 -183 -226 -305 -225z" />
    <glyph glyph-name="ucircumflex" unicode="&#xfb;" horiz-adv-x="1190" 
d="M227 1155l265 259h201l257 -259h-228l-132 140l-146 -140h-217zM506 -20c-190 1 -394 119 -394 339v715h292v-678c0 -96 64 -164 185 -164c114 0 187 62 187 169v673h289v-1034h-220l-34 205c-37 -181 -183 -226 -305 -225z" />
    <glyph glyph-name="uni0215" unicode="&#x215;" horiz-adv-x="1190" 
d="M307 1155l-312 291h275l247 -291h-210zM659 1155l-257 291h267l201 -291h-211zM506 -20c-190 1 -394 119 -394 339v715h292v-678c0 -96 64 -164 185 -164c114 0 187 62 187 169v673h289v-1034h-220l-34 205c-37 -181 -183 -226 -305 -225z" />
    <glyph glyph-name="udieresis" unicode="&#xfc;" horiz-adv-x="1190" 
d="M686 1208l3 238h274l-3 -238h-274zM220 1208l3 238h274l-3 -238h-274zM506 -20c-190 1 -394 119 -394 339v715h292v-678c0 -96 64 -164 185 -164c114 0 187 62 187 169v673h289v-1034h-220l-34 205c-37 -181 -183 -226 -305 -225z" />
    <glyph glyph-name="uni1EE5" unicode="&#x1ee5;" horiz-adv-x="1190" 
d="M506 -20c-190 1 -394 119 -394 339v715h292v-678c0 -96 64 -164 185 -164c114 0 187 62 187 169v673h289v-1034h-220l-34 205c-37 -181 -183 -226 -305 -225zM457 -398v238h279v-238h-279z" />
    <glyph glyph-name="ugrave" unicode="&#xf9;" horiz-adv-x="1190" 
d="M483 1155l-296 291h301l206 -291h-211zM506 -20c-190 1 -394 119 -394 339v715h292v-678c0 -96 64 -164 185 -164c114 0 187 62 187 169v673h289v-1034h-220l-34 205c-37 -181 -183 -226 -305 -225z" />
    <glyph glyph-name="uni1EE7" unicode="&#x1ee7;" horiz-adv-x="1190" 
d="M674 1153l-68 109c52 33 74 80 46 125c-25 40 -85 41 -132 10l-69 106c122 78 255 54 316 -41c73 -113 42 -228 -93 -309zM506 -20c-190 1 -394 119 -394 339v715h292v-678c0 -96 64 -164 185 -164c114 0 187 62 187 169v673h289v-1034h-220l-34 205
c-37 -181 -183 -226 -305 -225z" />
    <glyph glyph-name="uhorn" unicode="&#x1b0;" horiz-adv-x="1420" 
d="M506 -20c-190 1 -394 119 -394 339v715h292v-678c0 -96 64 -164 185 -164c114 0 187 62 187 169v673h289v-133c101 2 140 29 153 212h193c-3 -270 -81 -377 -346 -359v-754h-220l-34 205c-37 -181 -183 -226 -305 -225z" />
    <glyph glyph-name="uni1EE9" unicode="&#x1ee9;" horiz-adv-x="1420" 
d="M496 1155l206 291h301l-296 -291h-211zM506 -20c-190 1 -394 119 -394 339v715h292v-678c0 -96 64 -164 185 -164c114 0 187 62 187 169v673h289v-133c101 2 140 29 153 212h193c-3 -270 -81 -377 -346 -359v-754h-220l-34 205c-37 -181 -183 -226 -305 -225z" />
    <glyph glyph-name="uni1EF1" unicode="&#x1ef1;" horiz-adv-x="1420" 
d="M506 -20c-190 1 -394 119 -394 339v715h292v-678c0 -96 64 -164 185 -164c114 0 187 62 187 169v673h289v-133c101 2 140 29 153 212h193c-3 -270 -81 -377 -346 -359v-754h-220l-34 205c-37 -181 -183 -226 -305 -225zM448 -398v238h279v-238h-279z" />
    <glyph glyph-name="uni1EEB" unicode="&#x1eeb;" horiz-adv-x="1420" 
d="M492 1155l-297 291h301l206 -291h-210zM506 -20c-190 1 -394 119 -394 339v715h292v-678c0 -96 64 -164 185 -164c114 0 187 62 187 169v673h289v-133c101 2 140 29 153 212h193c-3 -270 -81 -377 -346 -359v-754h-220l-34 205c-37 -181 -183 -226 -305 -225z" />
    <glyph glyph-name="uni1EED" unicode="&#x1eed;" horiz-adv-x="1420" 
d="M682 1153l-69 109c52 33 74 80 46 125c-25 40 -84 41 -132 10l-69 106c122 78 255 54 316 -41c73 -113 43 -228 -92 -309zM506 -20c-190 1 -394 119 -394 339v715h292v-678c0 -96 64 -164 185 -164c114 0 187 62 187 169v673h289v-133c101 2 140 29 153 212h193
c-3 -270 -81 -377 -346 -359v-754h-220l-34 205c-37 -181 -183 -226 -305 -225z" />
    <glyph glyph-name="uni1EEF" unicode="&#x1eef;" horiz-adv-x="1420" 
d="M304 1191l-45 153c48 50 101 91 192 91c112 0 205 -61 296 -61c69 0 124 37 166 69l36 -173c-42 -35 -113 -70 -202 -70c-111 0 -184 55 -286 55c-67 0 -105 -21 -157 -64zM506 -20c-190 1 -394 119 -394 339v715h292v-678c0 -96 64 -164 185 -164c114 0 187 62 187 169
v673h289v-133c101 2 140 29 153 212h193c-3 -270 -81 -377 -346 -359v-754h-220l-34 205c-37 -181 -183 -226 -305 -225z" />
    <glyph glyph-name="uhungarumlaut" unicode="&#x171;" horiz-adv-x="1190" 
d="M664 1155l247 291h275l-312 -291h-210zM311 1155l201 291h267l-257 -291h-211zM506 -20c-190 1 -394 119 -394 339v715h292v-678c0 -96 64 -164 185 -164c114 0 187 62 187 169v673h289v-1034h-220l-34 205c-37 -181 -183 -226 -305 -225z" />
    <glyph glyph-name="uni0217" unicode="&#x217;" horiz-adv-x="1190" 
d="M239 1180c35 169 182 255 350 255c170 0 317 -88 351 -255h-183c-22 66 -83 113 -168 113c-87 0 -145 -47 -166 -113h-184zM506 -20c-190 1 -394 119 -394 339v715h292v-678c0 -96 64 -164 185 -164c114 0 187 62 187 169v673h289v-1034h-220l-34 205
c-37 -181 -183 -226 -305 -225z" />
    <glyph glyph-name="umacron" unicode="&#x16b;" horiz-adv-x="1190" 
d="M240 1205v187h703v-187h-703zM506 -20c-190 1 -394 119 -394 339v715h292v-678c0 -96 64 -164 185 -164c114 0 187 62 187 169v673h289v-1034h-220l-34 205c-37 -181 -183 -226 -305 -225z" />
    <glyph glyph-name="uogonek" unicode="&#x173;" horiz-adv-x="1190" 
d="M506 -20c-190 1 -394 119 -394 339v715h292v-678c0 -96 64 -164 185 -164c114 0 187 62 187 169v673h289v-1034h-32c-122 -48 -161 -86 -161 -137c0 -43 22 -64 72 -64c60 0 106 22 145 44v-132c-37 -23 -120 -48 -210 -48c-137 0 -218 57 -218 165c0 70 35 132 182 183
l-32 194c-37 -181 -183 -226 -305 -225z" />
    <glyph glyph-name="uring" unicode="&#x16f;" horiz-adv-x="1190" 
d="M592 1135c-122 0 -218 97 -218 221c0 117 98 210 218 210c121 0 218 -95 218 -214c0 -122 -97 -217 -218 -217zM590 1249c55 0 99 48 99 102c0 57 -44 99 -99 99s-102 -42 -102 -99c0 -54 47 -102 102 -102zM506 -20c-190 1 -394 119 -394 339v715h292v-678
c0 -96 64 -164 185 -164c114 0 187 62 187 169v673h289v-1034h-220l-34 205c-37 -181 -183 -226 -305 -225z" />
    <glyph glyph-name="utilde" unicode="&#x169;" horiz-adv-x="1190" 
d="M296 1191l-44 153c48 50 101 91 192 91c112 0 205 -61 295 -61c70 0 124 37 167 69l36 -173c-42 -35 -113 -70 -202 -70c-112 0 -185 55 -287 55c-66 0 -105 -21 -157 -64zM506 -20c-190 1 -394 119 -394 339v715h292v-678c0 -96 64 -164 185 -164c114 0 187 62 187 169
v673h289v-1034h-220l-34 205c-37 -181 -183 -226 -305 -225z" />
    <glyph glyph-name="v" unicode="v" horiz-adv-x="1041" 
d="M415 0l-388 1034h264l226 -659h8l223 659h267l-388 -1034h-212z" />
    <glyph glyph-name="w" unicode="w" horiz-adv-x="1577" 
d="M365 0l-335 1034h258l198 -641h7l190 641h209l192 -641h8l192 641h264l-340 -1034h-233l-192 626l-193 -626h-225z" />
    <glyph glyph-name="wacute" unicode="&#x1e83;" horiz-adv-x="1577" 
d="M688 1155l206 291h300l-296 -291h-210zM365 0l-335 1034h258l198 -641h7l190 641h209l192 -641h8l192 641h264l-340 -1034h-233l-192 626l-193 -626h-225z" />
    <glyph glyph-name="wcircumflex" unicode="&#x175;" horiz-adv-x="1577" 
d="M433 1155l264 259h201l258 -259h-229l-131 140l-147 -140h-216zM365 0l-335 1034h258l198 -641h7l190 641h209l192 -641h8l192 641h264l-340 -1034h-233l-192 626l-193 -626h-225z" />
    <glyph glyph-name="wdieresis" unicode="&#x1e85;" horiz-adv-x="1577" 
d="M892 1208l2 238h274l-3 -238h-273zM426 1208l2 238h274l-3 -238h-273zM365 0l-335 1034h258l198 -641h7l190 641h209l192 -641h8l192 641h264l-340 -1034h-233l-192 626l-193 -626h-225z" />
    <glyph glyph-name="wgrave" unicode="&#x1e81;" horiz-adv-x="1577" 
d="M689 1155l-297 291h301l206 -291h-210zM365 0l-335 1034h258l198 -641h7l190 641h209l192 -641h8l192 641h264l-340 -1034h-233l-192 626l-193 -626h-225z" />
    <glyph glyph-name="x" unicode="x" horiz-adv-x="1176" 
d="M35 0l397 539l-363 495h306l215 -290l214 290h305l-366 -495l398 -539h-306l-247 337l-247 -337h-306z" />
    <glyph glyph-name="y" unicode="y" horiz-adv-x="1126" 
d="M287 -330c-142 0 -194 35 -194 35v186l103 -4c179 -11 202 69 214 99l19 57l-402 991h289l248 -674l250 674h286l-419 -1040c-108 -264 -233 -324 -394 -324z" />
    <glyph glyph-name="yacute" unicode="&#xfd;" horiz-adv-x="1126" 
d="M454 1155l206 291h301l-296 -291h-211zM287 -330c-142 0 -194 35 -194 35v186l103 -4c179 -11 202 69 214 99l19 57l-402 991h289l248 -674l250 674h286l-419 -1040c-108 -264 -233 -324 -394 -324z" />
    <glyph glyph-name="ycircumflex" unicode="&#x177;" horiz-adv-x="1126" 
d="M208 1155l264 259h201l258 -259h-229l-131 140l-147 -140h-216zM287 -330c-142 0 -194 35 -194 35v186l103 -4c179 -11 202 69 214 99l19 57l-402 991h289l248 -674l250 674h286l-419 -1040c-108 -264 -233 -324 -394 -324z" />
    <glyph glyph-name="ydieresis" unicode="&#xff;" horiz-adv-x="1126" 
d="M659 1208l2 238h274l-3 -238h-273zM193 1208l2 238h274l-3 -238h-273zM287 -330c-142 0 -194 35 -194 35v186l103 -4c179 -11 202 69 214 99l19 57l-402 991h289l248 -674l250 674h286l-419 -1040c-108 -264 -233 -324 -394 -324z" />
    <glyph glyph-name="uni1EF5" unicode="&#x1ef5;" horiz-adv-x="1126" 
d="M287 -330c-142 0 -194 35 -194 35v186l103 -4c179 -11 202 69 214 99l19 57l-402 991h289l248 -674l250 674h286l-419 -1040c-108 -264 -233 -324 -394 -324zM726 -358v238h279v-238h-279z" />
    <glyph glyph-name="ygrave" unicode="&#x1ef3;" horiz-adv-x="1126" 
d="M456 1155l-297 291h301l206 -291h-210zM287 -330c-142 0 -194 35 -194 35v186l103 -4c179 -11 202 69 214 99l19 57l-402 991h289l248 -674l250 674h286l-419 -1040c-108 -264 -233 -324 -394 -324z" />
    <glyph glyph-name="uni1EF7" unicode="&#x1ef7;" horiz-adv-x="1126" 
d="M647 1153l-69 109c52 33 74 80 46 125c-25 40 -85 41 -132 10l-69 106c122 78 255 54 316 -41c73 -113 43 -228 -92 -309zM287 -330c-142 0 -194 35 -194 35v186l103 -4c179 -11 202 69 214 99l19 57l-402 991h289l248 -674l250 674h286l-419 -1040
c-108 -264 -233 -324 -394 -324z" />
    <glyph glyph-name="uni1EF9" unicode="&#x1ef9;" horiz-adv-x="1126" 
d="M269 1191l-45 153c48 50 101 91 192 91c112 0 205 -61 295 -61c70 0 125 37 167 69l36 -173c-42 -35 -113 -70 -202 -70c-111 0 -184 55 -286 55c-67 0 -105 -21 -157 -64zM287 -330c-142 0 -194 35 -194 35v186l103 -4c179 -11 202 69 214 99l19 57l-402 991h289
l248 -674l250 674h286l-419 -1040c-108 -264 -233 -324 -394 -324z" />
    <glyph glyph-name="z" unicode="z" horiz-adv-x="993" 
d="M63 0v163l510 667h-484v204h838v-163l-511 -667h514v-204h-867z" />
    <glyph glyph-name="zacute" unicode="&#x17a;" horiz-adv-x="993" 
d="M391 1155l206 291h301l-297 -291h-210zM63 0v163l510 667h-484v204h838v-163l-511 -667h514v-204h-867z" />
    <glyph glyph-name="zcaron" unicode="&#x17e;" horiz-adv-x="993" 
d="M399 1155l-264 261h218l146 -150l131 150h229l-257 -261h-203zM63 0v163l510 667h-484v204h838v-163l-511 -667h514v-204h-867z" />
    <glyph glyph-name="zdotaccent" unicode="&#x17c;" horiz-adv-x="993" 
d="M360 1208v238h279v-238h-279zM63 0v163l510 667h-484v204h838v-163l-511 -667h514v-204h-867z" />
    <glyph glyph-name="uni1E93" unicode="&#x1e93;" horiz-adv-x="993" 
d="M63 0v163l510 667h-484v204h838v-163l-511 -667h514v-204h-867zM362 -398v238h278v-238h-278z" />
    <glyph glyph-name="g.ss01" horiz-adv-x="1212" 
d="M575 -337c-290 0 -443 199 -456 324h270c13 -59 88 -110 183 -111c177 -1 257 113 258 232v76c-59 -106 -174 -138 -313 -138c-227 0 -431 206 -434 493c-3 248 145 513 430 513c141 0 256 -87 296 -156l1 136h287l1 -860c1 -314 -217 -509 -523 -509zM605 255
c155 0 208 113 207 241l-2 108c-1 117 -90 243 -209 243c-147 0 -223 -140 -223 -308c0 -156 91 -284 227 -284z" />
    <glyph glyph-name="l.ss01" horiz-adv-x="616" 
d="M162 0v1486h292v-1486h-292z" />
    <glyph glyph-name="ordfeminine" unicode="&#xaa;" horiz-adv-x="813" 
d="M297 794c-138 0 -214 73 -214 184c0 129 128 216 340 223l77 4v43c0 75 -53 95 -105 95c-54 0 -100 -17 -133 -84l-163 36c50 110 129 169 303 169c205 -1 279 -79 279 -207v-251c0 -22 0 -104 7 -141l14 -59h-187l-15 70c-70 -55 -122 -82 -203 -82zM369 913
c39 0 74 13 99 35c20 18 32 33 32 58v97l-64 -3c-105 -4 -167 -46 -167 -111c0 -46 38 -76 100 -76z" />
    <glyph glyph-name="ordmasculine" unicode="&#xba;" horiz-adv-x="806" 
d="M403 795c-199 0 -327 138 -327 332c0 202 137 338 327 338c198 0 328 -140 328 -338c0 -194 -130 -332 -328 -332zM403 923c90 0 134 71 134 209c0 137 -44 208 -134 208c-89 0 -133 -71 -133 -208c0 -138 44 -209 133 -209z" />
    <glyph glyph-name="pi" unicode="&#x3c0;" horiz-adv-x="1349" 
d="M114 0c58 223 110 566 110 811c0 12 -6 20 -17 20h-161v203h1243v-203h-189v-831h-280l-1 831h-315c0 -260 -54 -640 -118 -831h-272z" />
    <glyph glyph-name="zero" unicode="0" horiz-adv-x="1289" 
d="M646 -22c-350 0 -558 263 -558 741c0 481 213 747 558 747c344 0 556 -265 556 -746c0 -479 -208 -742 -556 -742zM646 217c173 0 249 140 249 502c0 369 -79 517 -250 517s-253 -150 -253 -517c0 -360 80 -502 254 -502z" />
    <glyph glyph-name="one" unicode="1" horiz-adv-x="856" 
d="M344 0v1083h-258v165c248 0 347 74 360 198h194v-1446h-296z" />
    <glyph glyph-name="two" unicode="2" horiz-adv-x="1270" 
d="M113 0v218c0 513 757 494 757 809c0 115 -87 197 -226 197c-146 0 -256 -84 -279 -253h-279c2 276 189 495 566 495c324 0 525 -176 525 -437c0 -512 -739 -463 -739 -770v-13h737v-246h-1062z" />
    <glyph glyph-name="three" unicode="3" horiz-adv-x="1330" 
d="M640 -22c-348 1 -548 178 -552 469h281c28 -165 136 -233 274 -233c179 0 288 85 288 205c0 124 -116 201 -278 205l-138 5v232l124 7c156 7 259 86 259 197c0 105 -107 175 -257 175c-138 0 -254 -63 -265 -239h-279c0 311 242 465 550 465c323 0 561 -123 561 -388
c0 -143 -78 -255 -264 -318c161 -44 298 -155 298 -350c0 -284 -271 -433 -602 -432z" />
    <glyph glyph-name="four" unicode="4" horiz-adv-x="1312" 
d="M751 0l1 320h-666v240l659 886h287v-881h223v-245h-223v-320h-281zM356 565h396v530z" />
    <glyph glyph-name="five" unicode="5" horiz-adv-x="1350" 
d="M698 -22c-285 0 -518 143 -610 340l228 135c78 -136 179 -240 352 -240s288 101 288 249c0 139 -113 245 -278 245c-89 0 -155 -17 -253 -94c-19 -8 -20 -8 -40 1l-212 98l66 734h929l-11 -239h-687l-28 -349c106 59 195 85 312 85c288 0 508 -168 508 -470
c0 -306 -219 -495 -564 -495z" />
    <glyph glyph-name="six" unicode="6" horiz-adv-x="1321" 
d="M683 -22c-370 0 -595 283 -595 717c0 476 227 771 607 771c271 0 503 -154 518 -417h-267c-35 122 -118 186 -245 186c-208 0 -316 -190 -288 -471c66 95 192 151 329 151c293 0 491 -175 491 -443c0 -284 -224 -494 -550 -494zM673 202c139 0 251 106 251 256
c0 159 -108 239 -250 239c-124 0 -250 -96 -250 -184c-2 -194 100 -311 249 -311z" />
    <glyph glyph-name="seven" unicode="7" horiz-adv-x="1252" 
d="M349 0c21 235 165 751 512 1207h-775v239h1080v-239c-228 -286 -491 -877 -502 -1207h-315z" />
    <glyph glyph-name="eight" unicode="8" horiz-adv-x="1342" 
d="M670 -21c-350 0 -582 164 -582 422c0 166 142 321 275 349c-119 56 -213 160 -213 309c0 263 225 407 520 407c297 0 520 -144 520 -407c0 -149 -92 -253 -211 -309c133 -28 275 -183 275 -349c0 -258 -233 -422 -584 -422zM670 863c133 0 229 75 229 202
c0 126 -97 204 -229 204c-131 0 -228 -79 -228 -204c0 -127 97 -202 228 -202zM670 199c170 0 273 83 273 210s-103 217 -273 217c-167 0 -271 -90 -271 -217s104 -210 271 -210z" />
    <glyph glyph-name="nine" unicode="9" horiz-adv-x="1318" 
d="M619 -22c-271 0 -509 165 -526 420h278c24 -112 110 -189 236 -189c208 0 352 138 328 485c-57 -107 -178 -175 -340 -175c-294 0 -503 176 -503 457c0 285 217 490 544 490c369 0 594 -278 594 -713c0 -518 -231 -775 -611 -775zM645 751c123 0 250 95 250 184
c2 195 -100 310 -250 310c-138 0 -239 -104 -239 -256c0 -151 97 -238 239 -238z" />
    <glyph glyph-name="zero.osf" horiz-adv-x="1289" 
d="M646 -22c-350 0 -558 263 -558 741c0 481 213 747 558 747c344 0 556 -265 556 -746c0 -479 -208 -742 -556 -742zM646 217c173 0 249 140 249 502c0 369 -79 517 -250 517s-253 -150 -253 -517c0 -360 80 -502 254 -502z" />
    <glyph glyph-name="one.osf" horiz-adv-x="856" 
d="M344 0v1083h-258v165c248 0 347 74 360 198h194v-1446h-296z" />
    <glyph glyph-name="two.osf" horiz-adv-x="1270" 
d="M113 0v218c0 513 757 494 757 809c0 115 -87 197 -226 197c-146 0 -256 -84 -279 -253h-279c2 276 189 495 566 495c324 0 525 -176 525 -437c0 -512 -739 -463 -739 -770v-13h737v-246h-1062z" />
    <glyph glyph-name="three.osf" horiz-adv-x="1330" 
d="M640 -19c-348 1 -548 178 -552 469h281c28 -165 136 -233 274 -233c179 0 288 85 288 205c0 125 -116 201 -278 205l-138 5v232l124 7c156 7 259 86 259 198c0 104 -107 174 -257 174c-138 0 -254 -63 -265 -239h-279c0 311 242 465 550 465c323 0 561 -123 561 -388
c0 -143 -78 -255 -264 -318c161 -44 298 -155 298 -350c0 -284 -271 -433 -602 -432z" />
    <glyph glyph-name="four.osf" horiz-adv-x="1312" 
d="M751 0l1 320h-666v240l659 886h287v-881h223v-245h-223v-320h-281zM356 565h396v530z" />
    <glyph glyph-name="five.osf" horiz-adv-x="1350" 
d="M698 -22c-285 0 -518 143 -610 340l228 135c78 -136 179 -240 352 -240s288 101 288 249c0 139 -113 245 -278 245c-89 0 -155 -17 -253 -94c-19 -8 -20 -8 -40 1l-212 98l66 734h929l-11 -239h-687l-28 -349c106 59 195 85 312 85c288 0 508 -168 508 -470
c0 -306 -219 -495 -564 -495z" />
    <glyph glyph-name="six.osf" horiz-adv-x="1321" 
d="M683 -22c-370 0 -595 283 -595 717c0 476 227 771 607 771c271 0 503 -154 518 -417h-267c-35 122 -118 186 -245 186c-208 0 -316 -190 -288 -471c66 95 192 151 329 151c293 0 491 -175 491 -443c0 -284 -224 -494 -550 -494zM673 202c139 0 251 106 251 256
c0 159 -108 239 -250 239c-124 0 -250 -96 -250 -184c-2 -194 100 -311 249 -311z" />
    <glyph glyph-name="seven.osf" horiz-adv-x="1252" 
d="M349 0c21 235 165 751 512 1207h-775v239h1080v-239c-228 -286 -491 -877 -502 -1207h-315z" />
    <glyph glyph-name="eight.osf" horiz-adv-x="1342" 
d="M670 -21c-350 0 -582 164 -582 422c0 166 142 321 275 349c-119 56 -213 160 -213 309c0 263 225 407 520 407c297 0 520 -144 520 -407c0 -149 -92 -253 -211 -309c133 -28 275 -183 275 -349c0 -258 -233 -422 -584 -422zM670 863c133 0 229 75 229 202
c0 126 -97 204 -229 204c-131 0 -228 -79 -228 -204c0 -127 97 -202 228 -202zM670 199c170 0 273 83 273 210s-103 217 -273 217c-167 0 -271 -90 -271 -217s104 -210 271 -210z" />
    <glyph glyph-name="nine.osf" horiz-adv-x="1318" 
d="M619 -22c-271 0 -509 165 -526 420h278c24 -112 110 -189 236 -189c208 0 352 138 328 485c-57 -107 -178 -175 -340 -175c-294 0 -503 176 -503 457c0 285 217 490 544 490c369 0 594 -278 594 -713c0 -518 -231 -775 -611 -775zM645 751c123 0 250 95 250 184
c2 195 -100 310 -250 310c-138 0 -239 -104 -239 -256c0 -151 97 -238 239 -238z" />
    <glyph glyph-name="zero.tf" horiz-adv-x="1400" 
d="M701 -22c-350 0 -558 263 -558 741c0 481 213 747 558 747c344 0 556 -265 556 -746c0 -479 -208 -742 -556 -742zM701 217c173 0 249 140 249 502c0 369 -79 517 -250 517s-253 -150 -253 -517c0 -360 80 -502 254 -502z" />
    <glyph glyph-name="one.tf" horiz-adv-x="1400" 
d="M185 0v246h405v888l-383 -115v254l547 174h120v-1201h364v-246h-1053z" />
    <glyph glyph-name="two.tf" horiz-adv-x="1400" 
d="M192 0v218c0 513 757 494 757 809c0 115 -86 197 -226 197c-145 0 -255 -84 -278 -253h-279c2 276 188 495 565 495c325 0 525 -176 525 -437c0 -512 -739 -463 -739 -770v-13h738v-246h-1063z" />
    <glyph glyph-name="three.tf" horiz-adv-x="1400" 
d="M685 -22c-348 1 -548 178 -552 469h281c28 -165 136 -233 274 -233c179 0 288 85 288 205c0 124 -116 201 -279 205l-137 5v232l124 7c156 7 259 86 259 197c0 105 -107 175 -257 175c-138 0 -254 -63 -265 -239h-279c0 311 242 465 550 465c323 0 561 -123 561 -388
c0 -143 -78 -255 -264 -318c161 -44 298 -155 298 -350c0 -284 -271 -433 -602 -432z" />
    <glyph glyph-name="four.tf" horiz-adv-x="1400" 
d="M779 0v320h-665v240l659 886h286v-881h223v-245h-223v-320h-280zM383 565h397v530z" />
    <glyph glyph-name="five.tf" horiz-adv-x="1400" 
d="M760 -22c-285 0 -518 143 -610 340l228 135c78 -136 179 -240 352 -240s288 101 288 249c0 139 -113 245 -278 245c-89 0 -155 -17 -253 -94c-19 -8 -20 -8 -40 1l-212 98l66 734h929l-11 -239h-687l-28 -349c106 59 195 85 312 85c288 0 508 -168 508 -470
c0 -306 -219 -495 -564 -495z" />
    <glyph glyph-name="six.tf" horiz-adv-x="1400" 
d="M724 -22c-370 0 -596 283 -596 717c0 476 227 771 607 771c271 0 503 -154 518 -417h-266c-36 122 -119 186 -245 186c-208 0 -317 -190 -289 -471c67 95 193 151 329 151c293 0 491 -175 491 -443c0 -284 -224 -494 -549 -494zM714 202c138 0 250 106 250 256
c0 159 -107 239 -250 239c-123 0 -250 -96 -250 -184c-1 -194 100 -311 250 -311z" />
    <glyph glyph-name="seven.tf" horiz-adv-x="1400" 
d="M387 0c21 235 241 751 588 1207h-852v239h1158v-239c-228 -286 -564 -877 -576 -1207h-318z" />
    <glyph glyph-name="eight.tf" horiz-adv-x="1400" 
d="M700 -21c-350 0 -583 164 -583 422c0 166 142 321 275 349c-119 56 -212 160 -212 309c0 263 224 407 520 407c297 0 520 -144 520 -407c0 -149 -93 -253 -212 -309c133 -28 275 -183 275 -349c0 -258 -232 -422 -583 -422zM700 863c132 0 228 75 228 202
c0 126 -97 204 -228 204c-132 0 -228 -79 -228 -204c0 -127 96 -202 228 -202zM700 199c169 0 273 83 273 210s-104 217 -273 217c-168 0 -272 -90 -272 -217s104 -210 272 -210z" />
    <glyph glyph-name="nine.tf" horiz-adv-x="1400" 
d="M667 -22c-271 0 -509 165 -526 420h278c24 -112 110 -189 236 -189c208 0 352 138 328 485c-57 -107 -178 -175 -340 -175c-294 0 -503 176 -503 457c0 285 217 490 544 490c369 0 594 -278 594 -713c0 -518 -231 -775 -611 -775zM693 751c123 0 250 95 250 184
c2 195 -100 310 -250 310c-138 0 -239 -104 -239 -256c0 -151 97 -238 239 -238z" />
    <glyph glyph-name="zero.subs" horiz-adv-x="804" 
d="M403 -343c-224 0 -351 167 -351 463c0 297 130 471 351 471s350 -173 350 -470c0 -296 -127 -464 -350 -464zM403 -192c110 0 155 91 155 311c0 227 -47 323 -156 323s-156 -98 -156 -323c0 -219 47 -311 157 -311z" />
    <glyph glyph-name="one.subs" horiz-adv-x="513" 
d="M204 -331v679h-162v106c154 0 217 45 226 125h126v-910h-190z" />
    <glyph glyph-name="two.subs" horiz-adv-x="784" 
d="M59 -331v138c0 324 475 312 475 508c0 71 -54 122 -140 122c-89 0 -160 -51 -173 -159h-179c1 175 119 313 357 313c204 0 330 -111 330 -275c0 -322 -463 -292 -463 -482v-7h462v-158h-669z" />
    <glyph glyph-name="three.subs" horiz-adv-x="850" 
d="M409 -344c-221 1 -346 114 -347 296h179c17 -104 85 -145 170 -145c112 0 179 52 179 126c0 73 -66 124 -173 127l-87 3v149l79 4c95 4 160 53 160 122c0 64 -67 107 -158 107c-87 0 -159 -39 -165 -149h-179c0 194 150 294 347 294c203 0 353 -77 353 -244
c0 -90 -49 -159 -163 -199c98 -28 184 -96 184 -220c0 -179 -170 -272 -379 -271z" />
    <glyph glyph-name="four.subs" horiz-adv-x="820" 
d="M458 -328l1 201h-417v152l413 557h183v-553h140v-156h-140v-201h-180zM215 29h244v326z" />
    <glyph glyph-name="five.subs" horiz-adv-x="843" 
d="M437 -342c-181 0 -328 89 -385 215l146 84c49 -86 114 -150 220 -150c108 0 178 64 178 154c0 87 -70 152 -172 152c-56 0 -98 -11 -159 -60c-12 -4 -12 -4 -25 2l-134 61l41 464h586l-7 -154h-431l-17 -211c65 32 119 50 194 50c181 0 319 -107 319 -297
c0 -193 -138 -310 -354 -310z" />
    <glyph glyph-name="six.subs" horiz-adv-x="824" 
d="M427 -339c-235 0 -375 176 -375 446c0 305 146 485 382 485c172 0 319 -99 327 -264h-171c-22 77 -75 116 -152 116c-129 0 -195 -117 -180 -283c46 55 123 86 205 86c187 0 310 -112 310 -280c0 -180 -143 -306 -346 -306zM420 -198c86 0 155 64 155 157
c0 102 -69 147 -155 147c-78 0 -154 -61 -154 -113c-1 -122 63 -191 154 -191z" />
    <glyph glyph-name="seven.subs" horiz-adv-x="745" 
d="M207 -331c12 147 102 471 320 757h-485v153h681v-153c-144 -178 -309 -550 -315 -757h-201z" />
    <glyph glyph-name="eight.subs" horiz-adv-x="859" 
d="M430 -338c-221 0 -368 101 -368 265c0 103 86 199 169 220c-75 36 -130 101 -130 191c0 163 139 256 329 256s328 -93 328 -256c0 -90 -54 -155 -130 -191c84 -21 169 -117 169 -220c0 -164 -147 -265 -367 -265zM430 218c84 0 142 47 142 124s-60 126 -142 126
c-83 0 -142 -49 -142 -126s57 -124 142 -124zM430 -198c105 0 169 51 169 130c0 80 -65 134 -169 134c-105 0 -169 -54 -169 -134c0 -79 63 -130 169 -130z" />
    <glyph glyph-name="nine.subs" horiz-adv-x="823" 
d="M387 -343c-174 0 -322 105 -332 264h177c15 -70 70 -116 146 -116c130 0 217 84 205 290c-39 -62 -113 -102 -212 -102c-186 0 -316 113 -316 288c0 181 139 308 342 308c234 0 374 -177 374 -447c0 -330 -149 -485 -384 -485zM403 142c77 0 154 62 155 114
c1 122 -63 192 -155 192c-85 0 -148 -63 -148 -158c0 -98 63 -148 148 -148z" />
    <glyph glyph-name="zero.dnom" horiz-adv-x="804" 
d="M403 -13c-224 0 -351 167 -351 463c0 297 130 471 351 471s350 -173 350 -470c0 -296 -127 -464 -350 -464zM403 138c110 0 155 91 155 311c0 227 -47 323 -156 323s-156 -98 -156 -323c0 -219 47 -311 157 -311z" />
    <glyph glyph-name="one.dnom" horiz-adv-x="513" 
d="M204 -1v679h-162v106c154 0 217 45 226 125h126v-910h-190z" />
    <glyph glyph-name="two.dnom" horiz-adv-x="784" 
d="M59 -1v138c0 324 475 312 475 508c0 71 -54 122 -140 122c-89 0 -160 -51 -173 -159h-179c1 175 119 313 357 313c204 0 330 -111 330 -275c0 -322 -463 -292 -463 -482v-7h462v-158h-669z" />
    <glyph glyph-name="three.dnom" horiz-adv-x="850" 
d="M409 -14c-221 1 -346 114 -347 296h179c17 -104 85 -145 170 -145c112 0 179 52 179 126c0 73 -66 124 -173 127l-87 3v149l79 4c95 4 160 53 160 122c0 64 -67 107 -158 107c-87 0 -159 -39 -165 -149h-179c0 194 150 294 347 294c203 0 353 -77 353 -244
c0 -90 -49 -159 -163 -199c98 -28 184 -96 184 -220c0 -179 -170 -272 -379 -271z" />
    <glyph glyph-name="four.dnom" horiz-adv-x="820" 
d="M458 2l1 201h-417v152l413 557h183v-553h140v-156h-140v-201h-180zM215 359h244v326z" />
    <glyph glyph-name="five.dnom" horiz-adv-x="843" 
d="M437 -12c-181 0 -328 89 -385 215l146 84c49 -86 114 -150 220 -150c108 0 178 64 178 154c0 87 -70 152 -172 152c-56 0 -98 -11 -159 -60c-12 -4 -12 -4 -25 2l-134 61l41 464h586l-7 -154h-431l-17 -211c65 32 119 50 194 50c181 0 319 -107 319 -297
c0 -193 -138 -310 -354 -310z" />
    <glyph glyph-name="six.dnom" horiz-adv-x="824" 
d="M427 -9c-235 0 -375 176 -375 446c0 305 146 485 382 485c172 0 319 -99 327 -264h-171c-22 77 -75 116 -152 116c-129 0 -195 -117 -180 -283c46 55 123 86 205 86c187 0 310 -112 310 -280c0 -180 -143 -306 -346 -306zM420 132c86 0 155 64 155 157
c0 102 -69 147 -155 147c-78 0 -154 -61 -154 -113c-1 -122 63 -191 154 -191z" />
    <glyph glyph-name="seven.dnom" horiz-adv-x="745" 
d="M207 -1c12 147 102 471 320 757h-485v153h681v-153c-144 -178 -309 -550 -315 -757h-201z" />
    <glyph glyph-name="eight.dnom" horiz-adv-x="859" 
d="M430 -10c-221 0 -368 101 -368 265c0 103 86 199 169 220c-75 36 -130 101 -130 191c0 163 139 256 329 256s328 -93 328 -256c0 -90 -54 -155 -130 -191c84 -21 169 -117 169 -220c0 -164 -147 -265 -367 -265zM430 546c84 0 142 47 142 124s-60 126 -142 126
c-83 0 -142 -49 -142 -126s57 -124 142 -124zM430 130c105 0 169 51 169 130c0 80 -65 134 -169 134c-105 0 -169 -54 -169 -134c0 -79 63 -130 169 -130z" />
    <glyph glyph-name="nine.dnom" horiz-adv-x="823" 
d="M387 -13c-174 0 -322 105 -332 264h177c15 -70 70 -116 146 -116c130 0 217 84 205 290c-39 -62 -113 -102 -212 -102c-186 0 -316 113 -316 288c0 181 139 308 342 308c234 0 374 -177 374 -447c0 -330 -149 -485 -384 -485zM403 472c77 0 154 62 155 114
c1 122 -63 192 -155 192c-85 0 -148 -63 -148 -158c0 -98 63 -148 148 -148z" />
    <glyph glyph-name="zero.numr" horiz-adv-x="804" 
d="M403 525c-224 0 -351 167 -351 463c0 297 130 471 351 471s350 -173 350 -470c0 -296 -127 -464 -350 -464zM403 676c110 0 155 91 155 311c0 227 -47 323 -156 323s-156 -98 -156 -323c0 -219 47 -311 157 -311z" />
    <glyph glyph-name="one.numr" horiz-adv-x="513" 
d="M204 536v679h-162v106c154 0 217 45 226 125h126v-910h-190z" />
    <glyph glyph-name="two.numr" horiz-adv-x="784" 
d="M59 537v138c0 324 475 312 475 508c0 71 -54 122 -140 122c-89 0 -160 -51 -173 -159h-179c1 175 119 313 357 313c204 0 330 -111 330 -275c0 -322 -463 -292 -463 -482v-7h462v-158h-669z" />
    <glyph glyph-name="three.numr" horiz-adv-x="850" 
d="M409 526c-221 1 -346 114 -347 296h179c17 -104 85 -145 170 -145c112 0 179 52 179 126c0 73 -66 124 -173 127l-87 3v149l79 4c95 4 160 53 160 122c0 64 -67 107 -158 107c-87 0 -159 -39 -165 -149h-179c0 194 150 294 347 294c203 0 353 -77 353 -244
c0 -90 -49 -159 -163 -199c98 -28 184 -96 184 -220c0 -179 -170 -272 -379 -271z" />
    <glyph glyph-name="four.numr" horiz-adv-x="820" 
d="M458 537l1 201h-417v152l413 557h183v-553h140v-156h-140v-201h-180zM215 894h244v326z" />
    <glyph glyph-name="five.numr" horiz-adv-x="843" 
d="M437 524c-181 0 -328 89 -385 215l146 84c49 -86 114 -150 220 -150c108 0 178 64 178 154c0 87 -70 152 -172 152c-56 0 -98 -11 -159 -60c-12 -4 -12 -4 -25 2l-134 61l41 464h586l-7 -154h-431l-17 -211c65 32 119 50 194 50c181 0 319 -107 319 -297
c0 -193 -138 -310 -354 -310z" />
    <glyph glyph-name="six.numr" horiz-adv-x="824" 
d="M427 526c-235 0 -375 176 -375 446c0 305 146 485 382 485c172 0 319 -99 327 -264h-171c-22 77 -75 116 -152 116c-129 0 -195 -117 -180 -283c46 55 123 86 205 86c187 0 310 -112 310 -280c0 -180 -143 -306 -346 -306zM420 667c86 0 155 64 155 157
c0 102 -69 147 -155 147c-78 0 -154 -61 -154 -113c-1 -122 63 -191 154 -191z" />
    <glyph glyph-name="seven.numr" horiz-adv-x="745" 
d="M207 537c12 147 102 471 320 757h-485v153h681v-153c-144 -178 -309 -550 -315 -757h-201z" />
    <glyph glyph-name="eight.numr" horiz-adv-x="859" 
d="M430 525c-221 0 -368 101 -368 265c0 103 86 199 169 220c-75 36 -130 101 -130 191c0 163 139 256 329 256s328 -93 328 -256c0 -90 -54 -155 -130 -191c84 -21 169 -117 169 -220c0 -164 -147 -265 -367 -265zM430 1081c84 0 142 47 142 124s-60 126 -142 126
c-83 0 -142 -49 -142 -126s57 -124 142 -124zM430 665c105 0 169 51 169 130c0 80 -65 134 -169 134c-105 0 -169 -54 -169 -134c0 -79 63 -130 169 -130z" />
    <glyph glyph-name="nine.numr" horiz-adv-x="823" 
d="M387 525c-174 0 -322 105 -332 264h177c15 -70 70 -116 146 -116c130 0 217 84 205 290c-39 -62 -113 -102 -212 -102c-186 0 -316 113 -316 288c0 181 139 308 342 308c234 0 374 -177 374 -447c0 -330 -149 -485 -384 -485zM403 1010c77 0 154 62 155 114
c1 122 -63 192 -155 192c-85 0 -148 -63 -148 -158c0 -98 63 -148 148 -148z" />
    <glyph glyph-name="uni2070" unicode="&#x2070;" horiz-adv-x="804" 
d="M403 733c-224 0 -351 167 -351 463c0 297 130 471 351 471s350 -173 350 -470c0 -296 -127 -464 -350 -464zM403 884c110 0 155 91 155 311c0 227 -47 323 -156 323s-156 -98 -156 -323c0 -219 47 -311 157 -311z" />
    <glyph glyph-name="uni00B9" unicode="&#xb9;" horiz-adv-x="513" 
d="M204 744v679h-162v106c154 0 217 45 226 125h126v-910h-190z" />
    <glyph glyph-name="uni00B2" unicode="&#xb2;" horiz-adv-x="784" 
d="M59 747v138c0 324 475 312 475 508c0 71 -54 122 -140 122c-89 0 -160 -51 -173 -159h-179c1 175 119 313 357 313c204 0 330 -111 330 -275c0 -322 -463 -292 -463 -482v-7h462v-158h-669z" />
    <glyph glyph-name="uni00B3" unicode="&#xb3;" horiz-adv-x="850" 
d="M409 736c-221 1 -346 114 -347 296h179c17 -104 85 -145 170 -145c112 0 179 52 179 126c0 73 -66 124 -173 127l-87 3v149l79 4c95 4 160 53 160 122c0 64 -67 107 -158 107c-87 0 -159 -39 -165 -149h-179c0 194 150 294 347 294c203 0 353 -77 353 -244
c0 -90 -49 -159 -163 -199c98 -28 184 -96 184 -220c0 -179 -170 -272 -379 -271z" />
    <glyph glyph-name="uni2074" unicode="&#x2074;" horiz-adv-x="820" 
d="M458 745l1 201h-417v152l413 557h183v-553h140v-156h-140v-201h-180zM215 1102h244v326z" />
    <glyph glyph-name="uni2075" unicode="&#x2075;" horiz-adv-x="843" 
d="M437 732c-181 0 -328 89 -385 215l146 84c49 -86 114 -150 220 -150c108 0 178 64 178 154c0 87 -70 152 -172 152c-56 0 -98 -11 -159 -60c-12 -4 -12 -4 -25 2l-134 61l41 464h586l-7 -154h-431l-17 -211c65 32 119 50 194 50c181 0 319 -107 319 -297
c0 -193 -138 -310 -354 -310z" />
    <glyph glyph-name="uni2076" unicode="&#x2076;" horiz-adv-x="824" 
d="M427 736c-235 0 -375 176 -375 446c0 305 146 485 382 485c172 0 319 -99 327 -264h-171c-22 77 -75 116 -152 116c-129 0 -195 -117 -180 -283c46 55 123 86 205 86c187 0 310 -112 310 -280c0 -180 -143 -306 -346 -306zM420 877c86 0 155 64 155 157
c0 102 -69 147 -155 147c-78 0 -154 -61 -154 -113c-1 -122 63 -191 154 -191z" />
    <glyph glyph-name="uni2077" unicode="&#x2077;" horiz-adv-x="745" 
d="M207 747c12 147 102 471 320 757h-485v153h681v-153c-144 -178 -309 -550 -315 -757h-201z" />
    <glyph glyph-name="uni2078" unicode="&#x2078;" horiz-adv-x="859" 
d="M430 735c-221 0 -368 101 -368 265c0 103 86 199 169 220c-75 36 -130 101 -130 191c0 163 139 256 329 256s328 -93 328 -256c0 -90 -54 -155 -130 -191c84 -21 169 -117 169 -220c0 -164 -147 -265 -367 -265zM430 1291c84 0 142 47 142 124s-60 126 -142 126
c-83 0 -142 -49 -142 -126s57 -124 142 -124zM430 875c105 0 169 51 169 130c0 80 -65 134 -169 134c-105 0 -169 -54 -169 -134c0 -79 63 -130 169 -130z" />
    <glyph glyph-name="uni2079" unicode="&#x2079;" horiz-adv-x="823" 
d="M387 735c-174 0 -322 105 -332 264h177c15 -70 70 -116 146 -116c130 0 217 84 205 290c-39 -62 -113 -102 -212 -102c-186 0 -316 113 -316 288c0 181 139 308 342 308c234 0 374 -177 374 -447c0 -330 -149 -485 -384 -485zM403 1220c77 0 154 62 155 114
c1 122 -63 192 -155 192c-85 0 -148 -63 -148 -158c0 -98 63 -148 148 -148z" />
    <glyph glyph-name="fraction.alt" horiz-adv-x="1377" 
d="M288 -8l-172 3l975 1467h169z" />
    <glyph glyph-name="fraction" unicode="&#x2044;" horiz-adv-x="474" 
d="M-161 -8l-173 3l975 1467h170z" />
    <glyph glyph-name="onehalf" unicode="&#xbd;" horiz-adv-x="1803" 
d="M398 -8l-172 3l975 1467h169zM204 536v679h-162v106c154 0 217 45 226 125h126v-910h-190zM1077 -1v138c0 324 475 312 475 508c0 71 -53 122 -140 122c-88 0 -159 -51 -173 -159h-178c0 175 118 313 356 313c205 0 330 -111 330 -275c0 -322 -462 -292 -462 -482v-7h462
v-158h-670z" />
    <glyph glyph-name="uni2153" unicode="&#x2153;" horiz-adv-x="1847" 
d="M398 -8l-172 3l975 1467h169zM204 536v679h-162v106c154 0 217 45 226 125h126v-910h-190zM1406 -14c-221 1 -346 114 -348 296h180c17 -104 85 -145 170 -145c111 0 179 52 179 126c0 73 -67 124 -173 127l-88 3v149l80 4c95 4 160 53 160 122c0 64 -67 107 -159 107
c-86 0 -159 -39 -165 -149h-178c-1 194 149 294 347 294c203 0 353 -77 353 -244c0 -90 -49 -159 -163 -199c98 -28 184 -96 184 -220c0 -179 -171 -272 -379 -271z" />
    <glyph glyph-name="uni2154" unicode="&#x2154;" horiz-adv-x="2168" 
d="M720 -8l-173 3l975 1467h170zM59 537v138c0 324 475 312 475 508c0 71 -54 122 -140 122c-89 0 -160 -51 -173 -159h-179c1 175 119 313 357 313c204 0 330 -111 330 -275c0 -322 -463 -292 -463 -482v-7h462v-158h-669zM1727 -14c-221 1 -346 114 -347 296h179
c17 -104 85 -145 170 -145c112 0 179 52 179 126c0 73 -66 124 -173 127l-87 3v149l79 4c95 4 160 53 160 122c0 64 -67 107 -158 107c-87 0 -159 -39 -165 -149h-179c0 194 150 294 347 294c203 0 353 -77 353 -244c0 -90 -49 -159 -163 -199c98 -28 184 -96 184 -220
c0 -179 -170 -272 -379 -271z" />
    <glyph glyph-name="onequarter" unicode="&#xbc;" horiz-adv-x="1662" 
d="M398 -8l-172 3l975 1467h169zM204 536v679h-162v106c154 0 217 45 226 125h126v-910h-190zM1300 2l1 201h-417v152l413 557h183v-553h140v-156h-140v-201h-180zM1057 359h244v326z" />
    <glyph glyph-name="threequarters" unicode="&#xbe;" horiz-adv-x="1919" 
d="M655 -8l-172 3l975 1467h169zM409 526c-221 1 -346 114 -347 296h179c17 -104 85 -145 170 -145c112 0 179 52 179 126c0 73 -66 124 -173 127l-87 3v149l79 4c95 4 160 53 160 122c0 64 -67 107 -158 107c-87 0 -159 -39 -165 -149h-179c0 194 150 294 347 294
c203 0 353 -77 353 -244c0 -90 -49 -159 -163 -199c98 -28 184 -96 184 -220c0 -179 -170 -272 -379 -271zM1557 2l1 201h-417v152l412 557h184v-553h140v-156h-140v-201h-180zM1314 359h244v326z" />
    <glyph glyph-name="oneeighth" unicode="&#x215b;" horiz-adv-x="1856" 
d="M398 -8l-172 3l975 1467h169zM204 536v679h-162v106c154 0 217 45 226 125h126v-910h-190zM1426 -10c-220 0 -368 101 -368 265c0 103 87 199 170 220c-76 36 -130 101 -130 191c0 163 138 256 328 256s329 -93 329 -256c0 -90 -54 -155 -130 -191
c83 -21 169 -117 169 -220c0 -164 -147 -265 -368 -265zM1426 546c85 0 142 47 142 124s-59 126 -142 126c-82 0 -141 -49 -141 -126s57 -124 141 -124zM1426 130c106 0 169 51 169 130c0 80 -65 134 -169 134s-169 -54 -169 -134c0 -79 64 -130 169 -130z" />
    <glyph glyph-name="threeeighths" unicode="&#x215c;" horiz-adv-x="2113" 
d="M655 -8l-172 3l975 1467h169zM409 526c-221 1 -346 114 -347 296h179c17 -104 85 -145 170 -145c112 0 179 52 179 126c0 73 -66 124 -173 127l-87 3v149l79 4c95 4 160 53 160 122c0 64 -67 107 -158 107c-87 0 -159 -39 -165 -149h-179c0 194 150 294 347 294
c203 0 353 -77 353 -244c0 -90 -49 -159 -163 -199c98 -28 184 -96 184 -220c0 -179 -170 -272 -379 -271zM1683 -10c-220 0 -368 101 -368 265c0 103 87 199 170 220c-76 36 -130 101 -130 191c0 163 138 256 328 256s329 -93 329 -256c0 -90 -55 -155 -130 -191
c83 -21 169 -117 169 -220c0 -164 -147 -265 -368 -265zM1683 546c85 0 142 47 142 124s-59 126 -142 126c-82 0 -141 -49 -141 -126s57 -124 141 -124zM1683 130c105 0 169 51 169 130c0 80 -65 134 -169 134s-169 -54 -169 -134c0 -79 63 -130 169 -130z" />
    <glyph glyph-name="fiveeighths" unicode="&#x215d;" horiz-adv-x="2106" 
d="M648 -8l-172 3l975 1467h169zM437 524c-181 0 -328 89 -385 215l146 84c49 -86 114 -150 220 -150c108 0 178 64 178 154c0 87 -70 152 -172 152c-56 0 -98 -11 -159 -60c-12 -4 -12 -4 -25 2l-134 61l41 464h586l-7 -154h-431l-17 -211c65 32 119 50 194 50
c181 0 319 -107 319 -297c0 -193 -138 -310 -354 -310zM1676 -10c-220 0 -368 101 -368 265c0 103 87 199 170 220c-76 36 -130 101 -130 191c0 163 138 256 328 256s329 -93 329 -256c0 -90 -55 -155 -130 -191c83 -21 169 -117 169 -220c0 -164 -147 -265 -368 -265z
M1676 546c85 0 142 47 142 124s-59 126 -142 126c-82 0 -141 -49 -141 -126s57 -124 141 -124zM1676 130c105 0 169 51 169 130c0 80 -65 134 -169 134s-169 -54 -169 -134c0 -79 63 -130 169 -130z" />
    <glyph glyph-name="seveneighths" unicode="&#x215e;" horiz-adv-x="1937" 
d="M480 -8l-173 3l975 1467h170zM207 537c12 147 102 471 320 757h-485v153h681v-153c-144 -178 -309 -550 -315 -757h-201zM1508 -10c-221 0 -368 101 -368 265c0 103 86 199 169 220c-75 36 -130 101 -130 191c0 163 139 256 329 256s328 -93 328 -256
c0 -90 -54 -155 -130 -191c84 -21 169 -117 169 -220c0 -164 -147 -265 -367 -265zM1508 546c84 0 142 47 142 124s-60 126 -142 126c-83 0 -142 -49 -142 -126s57 -124 142 -124zM1508 130c105 0 169 51 169 130c0 80 -65 134 -169 134c-105 0 -169 -54 -169 -134
c0 -79 63 -130 169 -130z" />
    <glyph glyph-name="period" unicode="." horiz-adv-x="539" 
d="M99 0v318h320v-318h-320z" />
    <glyph glyph-name="comma" unicode="," horiz-adv-x="554" 
d="M94 -280l116 272l-102 9v283h295v-249l-201 -315h-108z" />
    <glyph glyph-name="colon" unicode=":" horiz-adv-x="539" 
d="M99 696v313h320v-313h-320zM99 6v312h320v-312h-320z" />
    <glyph glyph-name="semicolon" unicode=";" horiz-adv-x="557" 
d="M114 687v318h320v-318h-320zM99 -309l131 309h-113v314h320v-278l-219 -345h-119z" />
    <glyph glyph-name="ellipsis" unicode="&#x2026;" horiz-adv-x="1789" 
d="M1349 0v318h320v-318h-320zM99 0v318h320v-318h-320zM724 0v318h320v-318h-320z" />
    <glyph glyph-name="exclam" unicode="!" horiz-adv-x="564" 
d="M183 446l-82 1000h342l-77 -1000h-183zM112 0v312h319v-312h-319z" />
    <glyph glyph-name="exclamdown" unicode="&#xa1;" horiz-adv-x="565" 
d="M112 722v312h319v-312h-319zM101 -322l82 908h182l79 -908h-343z" />
    <glyph glyph-name="question" unicode="?" horiz-adv-x="1069" 
d="M386 452c0 369 331 452 331 659c0 95 -80 155 -188 155s-215 -74 -259 -188l-248 60c85 211 266 328 509 328c287 0 476 -152 476 -340c0 -326 -386 -368 -386 -674h-235zM343 0v312h320v-312h-320z" />
    <glyph glyph-name="questiondown" unicode="&#xbf;" horiz-adv-x="1087" 
d="M411 722v312h320v-312h-320zM542 -342c-314 0 -475 152 -475 342c0 323 384 325 384 595h236c0 -334 -331 -377 -331 -580c0 -89 81 -150 189 -150s216 74 258 182l249 -59c-86 -211 -265 -330 -510 -330z" />
    <glyph glyph-name="periodcentered" unicode="&#xb7;" horiz-adv-x="518" 
d="M99 585v287h299v-287h-299z" />
    <glyph glyph-name="bullet" unicode="&#x2022;" horiz-adv-x="706" 
d="M342 484c-139 0 -250 114 -250 252c0 137 111 250 250 250c138 0 251 -113 251 -250c0 -138 -113 -252 -251 -252z" />
    <glyph glyph-name="asterisk" unicode="*" horiz-adv-x="946" 
d="M301 649l-157 109l207 247l-294 82l62 170l277 -121l-22 310h191l-27 -311l283 124l54 -170l-286 -83l202 -242l-157 -110l-166 274z" />
    <glyph glyph-name="numbersign" unicode="#" horiz-adv-x="1232" 
d="M371 -5l-152 21l65 434h-228v152h250l39 258h-225v152h247l66 437l151 -15l-63 -422h270l65 437l153 -15l-63 -422h217v-152h-239l-38 -258h213v-152h-236l-67 -455l-154 21l65 434h-269zM461 602h269l38 258h-269z" />
    <glyph glyph-name="slash" unicode="/" horiz-adv-x="762" 
d="M23 -37l506 1483h203l-505 -1483h-204z" />
    <glyph glyph-name="backslash" unicode="\" horiz-adv-x="762" 
d="M528 -37l-505 1483h204l505 -1483h-204z" />
    <glyph glyph-name="period.tf" horiz-adv-x="600" 
d="M140 0v318h320v-318h-320z" />
    <glyph glyph-name="comma.tf" horiz-adv-x="600" 
d="M145 -280l117 272l-103 9v283h296v-249l-202 -315h-108z" />
    <glyph glyph-name="parenleft" unicode="(" horiz-adv-x="666" 
d="M397 -286c-167 281 -278 536 -278 878c0 332 114 641 284 890h207c-139 -261 -230 -574 -230 -892c0 -304 78 -575 222 -876h-205z" />
    <glyph glyph-name="parenright" unicode=")" horiz-adv-x="673" 
d="M31 -286c144 301 223 572 223 876c0 318 -92 631 -230 892h206c170 -249 285 -558 285 -890c0 -342 -111 -597 -279 -878h-205z" />
    <glyph glyph-name="braceleft" unicode="{" horiz-adv-x="769" 
d="M561 -322c-158 0 -311 80 -311 239v407c0 94 -68 173 -226 173v147c160 1 226 64 226 181v385c0 157 155 236 306 236h145v-165h-87c-114 0 -124 -46 -124 -104v-396c-4 -140 -115 -194 -210 -204c-16 -2 -18 -11 0 -13c93 -8 206 -52 210 -215v-400
c0 -74 28 -105 124 -105h87v-166h-140z" />
    <glyph glyph-name="braceright" unicode="}" horiz-adv-x="768" 
d="M29 -322v166h87c96 0 124 31 124 105v400c5 163 117 207 211 215c18 2 16 11 0 13c-96 10 -206 64 -211 204v396c0 58 -10 104 -124 104h-87v165h145c151 0 306 -79 306 -236v-385c0 -117 66 -180 226 -181v-147c-158 0 -226 -79 -226 -173v-407
c0 -159 -152 -239 -311 -239h-140z" />
    <glyph glyph-name="bracketleft" unicode="[" horiz-adv-x="674" 
d="M149 -322l-1 1768h459v-165h-219v-1437h218v-166h-457z" />
    <glyph glyph-name="bracketright" unicode="]" horiz-adv-x="674" 
d="M68 -322v166h219l-1 1437h-218v165h458l-1 -1768h-457z" />
    <glyph glyph-name="hyphen" unicode="-" horiz-adv-x="786" 
d="M120 408v213h546v-212z" />
    <glyph glyph-name="uni00AD" unicode="&#xad;" horiz-adv-x="786" 
d="M120 408v213h546v-212z" />
    <glyph glyph-name="endash" unicode="&#x2013;" horiz-adv-x="1185" 
d="M120 390v213l944 1v-213z" />
    <glyph glyph-name="emdash" unicode="&#x2014;" horiz-adv-x="2297" 
d="M360 390v213l1577 1v-213z" />
    <glyph glyph-name="underscore" unicode="_" horiz-adv-x="1106" 
d="M116 -276v211l867 1v-212h-867z" />
    <glyph glyph-name="emdash.alt" horiz-adv-x="1576" 
d="M0 390v213l1576 1v-213z" />
    <glyph glyph-name="quotesinglbase" unicode="&#x201a;" horiz-adv-x="554" 
d="M94 -277l115 272l-101 9v283h295v-249l-201 -315h-108z" />
    <glyph glyph-name="quotedblbase" unicode="&#x201e;" horiz-adv-x="997" 
d="M537 -277l116 272l-102 9v283h295v-249l-201 -315h-108zM94 -277l115 272l-101 9v283h295v-249l-201 -315h-108z" />
    <glyph glyph-name="quotedblleft" unicode="&#x201c;" horiz-adv-x="959" 
d="M77 884v248l201 314h108l-116 -271l102 -10v-281h-295zM510 884v248l201 314h108l-116 -271l102 -10v-281h-295z" />
    <glyph glyph-name="quotedblright" unicode="&#x201d;" horiz-adv-x="956" 
d="M531 884l118 272l-103 10v280h296v-247l-201 -315h-110zM100 884l116 272l-102 10v280h295v-247l-201 -315h-108z" />
    <glyph glyph-name="quoteleft" unicode="&#x2018;" horiz-adv-x="526" 
d="M77 944v248l201 315h108l-116 -273l102 -9v-281h-295z" />
    <glyph glyph-name="quoteright" unicode="&#x2019;" horiz-adv-x="523" 
d="M100 884l116 272l-102 10v280h295v-247l-201 -315h-108z" />
    <glyph glyph-name="guillemotleft" unicode="&#xab;" horiz-adv-x="999" 
d="M719 129l-238 373l237 389h156l-163 -389l162 -373h-154zM338 129l-237 373l236 389h156l-163 -389l162 -373h-154z" />
    <glyph glyph-name="guillemotright" unicode="&#xbb;" horiz-adv-x="1022" 
d="M502 129l164 373l-165 389h157l236 -389l-236 -373h-156zM123 129l162 373l-163 389h155l236 -389l-236 -373h-154z" />
    <glyph glyph-name="guilsinglleft" unicode="&#x2039;" horiz-adv-x="618" 
d="M338 129l-237 373l236 389h156l-163 -389l162 -373h-154z" />
    <glyph glyph-name="guilsinglright" unicode="&#x203a;" horiz-adv-x="617" 
d="M126 129l161 373l-163 389h156l236 -389l-237 -373h-153z" />
    <glyph glyph-name="quotedbl" unicode="&#x22;" horiz-adv-x="959" 
d="M625 886l-76 560h298l-77 -560h-145zM188 886l-76 560h298l-77 -560h-145z" />
    <glyph glyph-name="quotesingle" unicode="'" horiz-adv-x="522" 
d="M188 886l-76 560h298l-77 -560h-145z" />
    <glyph glyph-name="space" unicode=" " horiz-adv-x="451" 
 />
    <glyph glyph-name="uni00A0" unicode="&#xa0;" horiz-adv-x="451" 
 />
    <glyph glyph-name="CR" unicode="&#xd;" horiz-adv-x="476" 
 />
    <glyph glyph-name="cent" unicode="&#xa2;" horiz-adv-x="1122" 
d="M504 0v210c-236 41 -401 233 -401 525c0 284 156 490 401 533v178h193v-178c203 -38 327 -195 341 -389h-243c-13 82 -70 175 -190 175c-137 0 -230 -104 -230 -317c0 -202 88 -328 235 -328c119 0 176 103 188 174h237c-11 -186 -139 -336 -338 -373v-210h-193z" />
    <glyph glyph-name="colonmonetary" unicode="&#x20a1;" horiz-adv-x="1436" 
d="M418 -122l32 169c-224 113 -354 360 -354 688c0 443 235 717 624 730l18 95h129l-19 -101c34 -4 67 -12 98 -21l23 122h129l-33 -173c155 -87 257 -240 275 -420h-306c-7 34 -17 67 -30 96l-157 -823c103 41 166 144 187 260h306c-34 -264 -171 -501 -542 -519l-20 -103
h-129l20 106c-34 4 -67 10 -99 18l-23 -124h-129zM616 244c30 -13 63 -20 99 -23l183 964c-28 17 -60 29 -96 36zM417 731c0 -182 31 -310 88 -393l168 882c-161 -30 -256 -174 -256 -489z" />
    <glyph glyph-name="currency" unicode="&#xa4;" horiz-adv-x="1156" 
d="M197 234l-122 126l132 130c-47 74 -70 144 -70 237c0 83 19 154 60 220c7 14 7 21 -3 31l-118 118l122 127l134 -135c69 45 153 73 235 73s161 -22 230 -65c8 -5 16 -5 23 2l111 112l122 -125l-122 -121c46 -71 72 -150 72 -236c0 -81 -22 -163 -66 -227
c-4 -6 -4 -11 0 -16l117 -113l-122 -125l-121 121c-72 -46 -152 -74 -237 -74c-82 0 -160 22 -227 62c-12 8 -23 6 -31 -3zM571 487c138 0 240 112 240 241c0 127 -102 241 -240 241c-137 0 -241 -114 -241 -241c0 -129 104 -241 241 -241z" />
    <glyph glyph-name="dollar" unicode="$" horiz-adv-x="1361" 
d="M577 -191v178c-274 31 -451 167 -478 420l304 6c31 -132 143 -202 303 -202c144 0 247 77 247 180c0 107 -67 151 -208 183l-237 51c-221 45 -363 174 -366 396c-2 236 182 395 440 434v198h253v-199c252 -44 405 -216 402 -423l-295 -5c-18 128 -76 206 -230 206
c-159 0 -257 -72 -257 -177c0 -84 46 -126 203 -167l233 -57c263 -63 372 -221 372 -438c0 -218 -167 -370 -434 -405v-179h-252z" />
    <glyph glyph-name="dong" unicode="&#x20ab;" horiz-adv-x="1072" 
d="M414 249c-194 0 -338 146 -338 433c0 272 160 449 355 449c89 0 150 -29 210 -86c18 -13 28 -11 28 12v149h-225v129h225v110h245v-110h121v-129h-121v-941h-241v106c-56 -62 -126 -122 -259 -122zM510 405c91 0 156 67 156 139v348c-46 50 -89 78 -154 78
c-107 0 -183 -83 -183 -285s74 -280 181 -280zM131 0v141h786v-141h-786z" />
    <glyph glyph-name="Euro" unicode="&#x20ac;" horiz-adv-x="1303" 
d="M1 482v159h160c-2 30 -3 62 -4 94c0 24 1 49 3 73h-159v157l181 1c72 313 295 500 595 500c183 0 344 -77 446 -200l-200 -153c-59 63 -123 121 -220 121c-140 0 -241 -82 -284 -268h331v-158h-352c-2 -25 -2 -51 -2 -78c0 -31 1 -61 3 -89l351 1v-160h-326
c49 -177 156 -256 293 -256c98 0 196 64 248 128l157 -168c-101 -117 -261 -206 -444 -206c-295 0 -515 195 -591 502h-186z" />
    <glyph glyph-name="florin" unicode="&#x192;" horiz-adv-x="1038" 
d="M-55 -335l29 196h119c79 1 111 31 129 138l147 832h-168l36 203h167l26 149c31 167 152 263 327 263h238l-32 -194h-132c-58 0 -112 -52 -124 -120l-17 -98h225l-37 -203h-217l-157 -897c-29 -167 -150 -269 -329 -269h-230z" />
    <glyph glyph-name="franc" unicode="&#x20a3;" horiz-adv-x="1249" 
d="M138 0v238h-176v159h176v1049h1032l-1 -243h-699v-374h518v-237h-518v-195l298 1v-160h-298v-238h-332z" />
    <glyph glyph-name="lira" unicode="&#x20a4;" horiz-adv-x="1296" 
d="M41 0v242h68c85 0 151 51 165 168c4 18 5 38 4 65c0 10 -6 14 -17 14h-208v158h204l-20 134h-184v160h160l-7 79c-35 312 192 446 451 446c185 0 389 -95 468 -287l-255 -78c-32 74 -77 133 -169 133c-95 0 -163 -62 -163 -169c0 -24 5 -60 11 -103c2 -14 10 -21 23 -21
h269v-159l-264 -1l18 -134h246v-158h-251c-12 -88 -52 -183 -124 -245h275c121 0 188 44 226 160l247 -54c-60 -228 -226 -350 -451 -350h-722z" />
    <glyph glyph-name="uni20BA" unicode="&#x20ba;" horiz-adv-x="1311" 
d="M269 0v435l-156 -57l-55 154l211 77v151l-183 -67l-56 154l239 87v512h334v-391l241 88l57 -152l-298 -109v-151l268 97l55 -154l-323 -118v-312h70c149 5 270 111 346 316l259 -55c-99 -278 -302 -505 -724 -505h-285z" />
    <glyph glyph-name="uni20A6" unicode="&#x20a6;" horiz-adv-x="1661" 
d="M226 0v462h-209v144h209v275h-209v144h209v421h289l290 -420h370v420h292v-420h177v-144h-177v-275h177v-144l-177 -1v-462h-263l-319 462h-368v-462h-291zM904 881l190 -275h81v276zM517 881v-275h268l-190 275h-78z" />
    <glyph glyph-name="uni20B9" unicode="&#x20b9;" horiz-adv-x="1286" 
d="M706 0l-225 634h-440v211h423c154 0 235 49 257 158l-678 -1v144l676 1c-26 99 -109 144 -241 144h-437v155h2l1192 1v-144l-255 -1c42 -43 70 -95 83 -155h172v-144h-167c-22 -163 -134 -267 -264 -315c-11 -3 -11 -16 -7 -29l269 -659h-360z" />
    <glyph glyph-name="sterling" unicode="&#xa3;" horiz-adv-x="1296" 
d="M41 0v242h68c99 0 171 60 171 206c0 64 -6 120 -21 229h-204v162h171l-20 181c-40 288 192 446 451 446c216 0 390 -107 467 -287l-254 -78c-43 93 -86 133 -169 133c-95 0 -163 -62 -163 -169c0 -56 12 -130 32 -225h293v-162h-270c7 -91 9 -145 -5 -211
c-14 -115 -58 -169 -116 -223h269c129 0 184 42 226 160l247 -54c-64 -232 -212 -350 -451 -350h-722z" />
    <glyph glyph-name="uni20A9" unicode="&#x20a9;" horiz-adv-x="2237" 
d="M599 0l-216 730h-360v158h314l-46 154h-268v158h222l-73 246h286l69 -246h400l69 246h212l70 -246h401l69 246h285l-72 -246l239 1v-158h-286l-45 -155l331 1v-158h-378l-216 -731h-233l-210 730h-124l-211 -730h-229zM1322 1042l44 -154h225l43 154h-312zM572 1042
l44 -154h223l43 154h-310zM1101 945l-16 -57h33zM1479 491l68 239h-136zM728 491l67 239h-135z" />
    <glyph glyph-name="yen" unicode="&#xa5;" horiz-adv-x="1318" 
d="M201 224v158h298v155h-298v159h242l-454 750h378l329 -579l326 579h307l-462 -750l263 1v-160h-299v-155l299 1v-158h-299v-225h-332v224h-298z" />
    <glyph glyph-name="cent.tf" horiz-adv-x="1400" 
d="M640 0v210c-237 41 -401 233 -401 525c0 284 156 490 401 533v178h193v-178c203 -38 327 -195 341 -389h-243c-13 82 -71 175 -191 175c-136 0 -229 -104 -229 -317c0 -202 88 -328 235 -328c119 0 176 103 188 174h237c-11 -186 -139 -336 -338 -373v-210h-193z" />
    <glyph glyph-name="colonmonetary.tf" horiz-adv-x="1400" 
d="M390 -122l33 169c-224 113 -354 360 -354 688c0 443 235 717 623 730l18 95h129l-19 -101c34 -4 67 -12 99 -21l23 122h129l-33 -173c155 -87 256 -240 275 -420h-307c-6 34 -16 67 -30 96l-156 -823c103 41 166 144 186 260h307c-34 -264 -171 -501 -543 -519l-19 -103
h-129l20 106c-34 4 -67 10 -99 18l-24 -124h-129zM589 244c30 -13 63 -20 98 -23l184 964c-28 17 -60 29 -96 36zM390 731c0 -182 31 -310 88 -393l168 882c-161 -30 -256 -174 -256 -489z" />
    <glyph glyph-name="dollar.tf" horiz-adv-x="1400" 
d="M596 -191v178c-273 31 -450 167 -478 420l304 6c31 -132 143 -202 303 -202c144 0 247 77 247 180c0 107 -66 151 -208 183l-237 51c-220 45 -363 174 -366 396c-2 236 183 395 441 434v198h252v-199c252 -44 406 -216 403 -423l-296 -5c-18 128 -75 206 -230 206
c-158 0 -257 -72 -257 -177c0 -84 46 -126 203 -167l233 -57c263 -63 372 -221 372 -438c0 -218 -167 -370 -434 -405v-179h-252z" />
    <glyph glyph-name="dong.tf" horiz-adv-x="1400" 
d="M558 249c-193 0 -337 146 -337 433c0 272 159 449 354 449c89 0 150 -29 210 -86c18 -13 29 -11 29 12v149h-226v129h226v110h244v-110h121v-129h-121v-941h-240v106c-57 -62 -127 -122 -260 -122zM654 405c91 0 156 67 156 139v348c-45 50 -89 78 -153 78
c-108 0 -184 -83 -184 -285s75 -280 181 -280zM275 0v141h786v-141h-786z" />
    <glyph glyph-name="Euro.tf" horiz-adv-x="1400" 
d="M83 482v159h159c-2 30 -3 62 -3 94c0 24 1 49 2 73h-158v157l181 1c71 313 294 500 595 500c183 0 343 -77 445 -200l-200 -153c-59 63 -123 121 -219 121c-141 0 -242 -82 -285 -268h331v-158h-352c-2 -25 -2 -51 -2 -78c0 -31 1 -61 3 -89l351 1v-160h-325
c48 -177 155 -256 292 -256c98 0 196 64 249 128l156 -168c-101 -117 -261 -206 -443 -206c-296 0 -515 195 -592 502h-185z" />
    <glyph glyph-name="florin.tf" horiz-adv-x="1400" 
d="M145 -335l30 196h118c80 1 111 31 129 138l147 832h-167l35 203h167l26 149c31 167 153 263 327 263h238l-32 -194h-132c-58 0 -112 -52 -124 -120l-17 -98h225l-36 -203h-218l-157 -897c-29 -167 -150 -269 -329 -269h-230z" />
    <glyph glyph-name="franc.tf" horiz-adv-x="1400" 
d="M102 238v159h176v1049h1032l-2 -243h-698v-374h518v-237h-518v-195l298 1v-160h-298v-238h-332v238h-176z" />
    <glyph glyph-name="lira.tf" horiz-adv-x="1400" 
d="M113 0v242h69c85 0 151 51 165 168c4 18 5 38 4 65c0 10 -6 14 -17 14h-209v158h205l-21 134h-184v160h161l-7 79c-35 312 192 446 451 446c184 0 389 -95 468 -287l-256 -78c-31 74 -77 133 -168 133c-95 0 -163 -62 -163 -169c0 -24 5 -60 11 -103c2 -14 10 -21 23 -21
h269v-159l-264 -1l17 -134h247v-158h-251c-12 -88 -52 -183 -124 -245h275c120 0 188 44 226 160l247 -54c-60 -228 -226 -350 -451 -350h-723z" />
    <glyph glyph-name="uni20BA.tf" horiz-adv-x="1400" 
d="M322 0v435l-157 -57l-55 154l212 77v151l-184 -67l-56 154l240 87v512h333v-391l242 88l57 -152l-299 -109v-151l268 97l55 -154l-323 -118v-312h70c149 5 270 111 346 316l259 -55c-99 -278 -302 -505 -724 -505h-284z" />
    <glyph glyph-name="uni20B9.tf" horiz-adv-x="1400" 
d="M767 0l-225 634h-439v211h422c155 0 236 49 258 158l-679 -1v144l676 1c-26 99 -108 144 -240 144h-437v155h1l1193 1v-144l-256 -1c42 -43 71 -95 84 -155h172v-144h-167c-22 -163 -134 -267 -264 -315c-11 -3 -12 -16 -7 -29l269 -659h-361z" />
    <glyph glyph-name="sterling.tf" horiz-adv-x="1400" 
d="M113 0v242h69c99 0 170 60 170 206c0 64 -6 120 -20 229h-204v162h171l-20 181c-40 288 192 446 451 446c216 0 390 -107 467 -287l-255 -78c-42 93 -85 133 -168 133c-95 0 -163 -62 -163 -169c0 -56 11 -130 32 -225h293v-162h-270c7 -91 8 -145 -5 -211
c-14 -115 -58 -169 -116 -223h269c129 0 183 42 226 160l247 -54c-65 -232 -213 -350 -451 -350h-723z" />
    <glyph glyph-name="yen.tf" horiz-adv-x="1400" 
d="M242 224v158h298v155h-298v159h242l-454 750h378l329 -579l326 579h307l-462 -750l263 1v-160h-299v-155l299 1v-158h-299v-225h-332v224h-298z" />
    <glyph glyph-name="uni2219" unicode="&#x2219;" horiz-adv-x="708" 
d="M344 579c-85 0 -154 69 -154 154s69 154 154 154s154 -69 154 -154s-69 -154 -154 -154z" />
    <glyph glyph-name="uni2215" unicode="&#x2215;" horiz-adv-x="1220" 
d="M260 -8l-172 3l875 1467h169z" />
    <glyph glyph-name="plus" unicode="+" horiz-adv-x="1177" 
d="M483 256v365h-367v213h367v367h213v-367h365v-213h-365v-365h-213z" />
    <glyph glyph-name="minus" unicode="&#x2212;" horiz-adv-x="1177" 
d="M116 621v213h945v-213h-945z" />
    <glyph glyph-name="multiply" unicode="&#xd7;" horiz-adv-x="1153" 
d="M267 269l-149 151l307 307l-309 309l149 151l310 -309l310 310l151 -151l-310 -310l308 -307l-151 -151l-308 307z" />
    <glyph glyph-name="divide" unicode="&#xf7;" horiz-adv-x="1177" 
d="M438 975v293h304v-293h-304zM116 621v213h945v-213h-945zM438 187v293h304v-293h-304z" />
    <glyph glyph-name="equal" unicode="=" horiz-adv-x="1177" 
d="M116 811v213l945 1v-213zM116 354v213h945v-213h-945z" />
    <glyph glyph-name="notequal" unicode="&#x2260;" horiz-adv-x="1177" 
d="M208 68l127 286h-219v213h313l108 244h-421v213h515l121 274h141l-120 -274l288 1v-213l-381 -1l-106 -244h487v-213h-580l-125 -286h-148z" />
    <glyph glyph-name="greater" unicode="&#x3e;" horiz-adv-x="1155" 
d="M117 208v251l602 225l-603 232v251l923 -360v-242z" />
    <glyph glyph-name="less" unicode="&#x3c;" horiz-adv-x="1155" 
d="M1038 208l-922 357v242l922 360v-251l-601 -232l601 -225v-251z" />
    <glyph glyph-name="greaterequal" unicode="&#x2265;" horiz-adv-x="1177" 
d="M132 402v252l602 227l-603 230v252l923 -359v-243zM116 62v211l945 1v-212h-945z" />
    <glyph glyph-name="lessequal" unicode="&#x2264;" horiz-adv-x="1177" 
d="M1043 402l-920 359v243l921 359v-252l-601 -230l600 -227v-252zM116 62v212l945 -1v-211h-945z" />
    <glyph glyph-name="plusminus" unicode="&#xb1;" horiz-adv-x="1177" 
d="M696 1004l365 1v-213l-365 -1v-364h-213v364h-367v213h367v367h213v-367zM116 71v212h945v-211z" />
    <glyph glyph-name="approxequal" unicode="&#x2248;" horiz-adv-x="1217" 
d="M199 716l-83 146c98 101 186 179 316 179c162 0 243 -122 370 -122c96 0 166 65 213 141l85 -145c-66 -117 -177 -180 -293 -180c-158 0 -241 122 -377 122c-102 0 -168 -70 -231 -141zM201 295l-85 147c98 101 186 179 316 179c162 0 243 -123 370 -123
c96 0 166 66 213 141l85 -145c-66 -116 -177 -180 -293 -180c-161 0 -243 123 -377 123c-102 0 -169 -72 -229 -142z" />
    <glyph glyph-name="asciitilde" unicode="~" horiz-adv-x="1224" 
d="M196 555l-83 147c98 101 186 179 316 179c162 0 243 -123 370 -123c96 0 166 65 213 142l85 -145c-66 -118 -177 -181 -293 -181c-161 0 -243 123 -377 123c-102 0 -168 -71 -231 -142z" />
    <glyph glyph-name="logicalnot" unicode="&#xac;" horiz-adv-x="1177" 
d="M116 621v213h945v-515h-237l-1 302h-707z" />
    <glyph glyph-name="asciicircum" unicode="^" horiz-adv-x="968" 
d="M681 245l-207 511l-208 -510h-197l311 736c38 90 148 97 189 1l310 -738h-198z" />
    <glyph glyph-name="emptyset" unicode="&#x2205;" horiz-adv-x="1195" 
d="M180 243l-98 102l138 127c-49 73 -78 161 -78 256c0 248 202 451 450 451c108 0 207 -38 285 -101l121 112l94 -100l-122 -114c47 -71 75 -157 75 -248c0 -250 -204 -453 -453 -453c-103 0 -199 36 -275 95zM276 728c0 -60 16 -115 45 -163l455 420
c-52 37 -115 59 -184 59c-174 0 -316 -144 -316 -316zM592 410c176 0 318 142 318 318c0 56 -15 109 -41 154l-452 -419c50 -34 111 -53 175 -53z" />
    <glyph glyph-name="infinity" unicode="&#x221e;" horiz-adv-x="1585" 
d="M429 182c-180 0 -336 139 -336 354c0 214 152 356 360 356c156 0 229 -79 322 -180c21 -23 29 -22 49 0c70 79 161 180 323 180c189 0 331 -133 331 -343v-4c0 -230 -160 -363 -348 -363c-154 0 -234 89 -325 195c-15 16 -20 20 -37 0c-37 -38 -145 -195 -339 -195z
M446 364h5c83 0 161 75 202 132c22 31 20 37 -3 75c-60 89 -122 144 -206 144c-96 0 -162 -72 -162 -173c0 -105 73 -178 164 -178zM1140 364c97 0 149 92 149 176c0 92 -59 175 -155 175h-2c-87 0 -153 -74 -207 -138c-24 -28 -16 -53 0 -71c89 -124 171 -142 215 -142z
" />
    <glyph glyph-name="integral" unicode="&#x222b;" horiz-adv-x="938" 
d="M246 -343c-104 0 -168 19 -222 51l61 241c41 -22 83 -39 143 -39c76 0 126 51 126 210c0 346 -56 777 -56 1057c0 329 124 494 377 494c107 0 175 -21 225 -52l-59 -241c-44 22 -86 40 -147 40c-79 0 -128 -54 -128 -206c0 -355 54 -771 54 -1050
c0 -338 -126 -505 -374 -505z" />
    <glyph glyph-name="uni2126" unicode="&#x2126;" horiz-adv-x="1535" 
d="M123 0v252h276c-102 85 -307 273 -307 578c0 338 246 674 680 674c447 0 671 -357 671 -672c0 -237 -97 -396 -315 -580h284v-252h-587v221c120 86 285 263 285 574c0 296 -131 470 -338 470c-202 0 -347 -166 -347 -477c0 -258 111 -442 286 -567v-221h-588z" />
    <glyph glyph-name="uni2206" unicode="&#x2206;" horiz-adv-x="1542" 
d="M33 0l751 1446l724 -1446h-1475zM458 245h637l-311 664z" />
    <glyph glyph-name="product" unicode="&#x220f;" horiz-adv-x="1396" 
d="M216 0v1205h-179v241h1308v-241h-181v-1205h-301v1205h-345v-1205h-302z" />
    <glyph glyph-name="summation" unicode="&#x2211;" horiz-adv-x="1145" 
d="M57 0v177l416 540l-393 531v198h961v-235h-563l358 -462l-396 -502h637v-247h-1020z" />
    <glyph glyph-name="radical" unicode="&#x221a;" horiz-adv-x="1370" 
d="M551 -322l-303 827l-158 -59l-60 165l380 137l284 -797l428 1700h245l-519 -1973h-297z" />
    <glyph glyph-name="partialdiff" unicode="&#x2202;" horiz-adv-x="1211" 
d="M574 -20c-308 0 -491 206 -491 475c0 265 175 465 468 465c137 0 201 -43 272 -93c28 -21 32 -6 32 12c0 204 -110 410 -377 410c-129 0 -207 -48 -270 -89l-81 172c60 56 212 134 405 134c347 0 589 -241 589 -750c0 -448 -183 -736 -547 -736zM564 189h2
c145 0 244 141 265 348c4 39 2 50 -12 70c-41 60 -129 116 -224 116c-139 0 -234 -121 -234 -281c0 -157 89 -253 203 -253z" />
    <glyph glyph-name="uni00B5" unicode="&#xb5;" horiz-adv-x="1208" 
d="M112 -330v1390h299v-659c0 -81 71 -141 166 -141c88 0 159 54 203 139v661h303l-5 -1060h-292v164c-69 -69 -128 -106 -200 -117c-61 -9 -121 -4 -175 23v-400h-299z" />
    <glyph glyph-name="percent" unicode="%" horiz-adv-x="1878" 
d="M459 648c-209 0 -366 179 -366 406c0 230 160 414 366 414s363 -184 363 -414c0 -227 -155 -406 -363 -406zM345 -8l977 1470h169l-972 -1470h-174zM457 796c104 0 151 89 151 258c0 174 -49 267 -151 267c-101 0 -150 -95 -150 -267c0 -168 47 -258 150 -258zM1408 -20
c-209 0 -367 178 -367 408c0 231 160 414 367 414s364 -183 364 -414c0 -230 -155 -408 -364 -408zM1406 130c104 0 150 89 150 256c0 175 -49 267 -150 267c-102 0 -149 -94 -149 -267c0 -166 46 -256 149 -256z" />
    <glyph glyph-name="perthousand" unicode="&#x2030;" horiz-adv-x="2705" 
d="M459 648c-209 0 -366 179 -366 406c0 230 160 414 366 414s363 -184 363 -414c0 -227 -155 -406 -363 -406zM381 -8l977 1470h170l-972 -1470h-175zM457 796c104 0 151 89 151 258c0 174 -49 267 -151 267c-101 0 -150 -95 -150 -267c0 -168 47 -258 150 -258zM1408 -20
c-209 0 -367 178 -367 408c0 231 160 414 367 414s364 -183 364 -414c0 -230 -155 -408 -364 -408zM2236 -20c-211 0 -367 178 -367 408c0 231 159 414 367 414c205 0 363 -183 363 -414c0 -230 -155 -408 -363 -408zM1406 130c104 0 150 89 150 256c0 175 -49 267 -150 267
c-102 0 -149 -94 -149 -267c0 -166 46 -256 149 -256zM2234 130c104 0 149 89 149 256c0 175 -48 267 -149 267c-102 0 -150 -94 -150 -267c0 -166 47 -256 150 -256z" />
    <glyph glyph-name="lozenge" unicode="&#x25ca;" horiz-adv-x="1112" 
d="M471 0l-353 723l362 723h195l353 -719l-363 -727h-194zM575 207l231 516l-231 511l-231 -505z" />
    <glyph glyph-name="at" unicode="@" horiz-adv-x="1655" 
d="M838 -220c-479 0 -762 328 -762 729c0 421 310 779 800 779c352 0 703 -187 703 -627c0 -297 -158 -503 -384 -503c-114 0 -166 47 -188 93c-10 15 -13 14 -25 0c-58 -70 -147 -121 -260 -121c-166 0 -297 136 -295 345c0 239 155 451 394 451c108 0 166 -44 212 -100
c6 -7 13 -5 15 7l11 43h168l-72 -430c-16 -94 11 -123 60 -123c94 0 188 109 188 326c0 359 -261 479 -527 479c-426 0 -620 -283 -620 -616c0 -360 231 -581 614 -581c180 0 264 53 362 119l89 -119c-101 -82 -273 -151 -483 -151zM773 307c113 0 201 114 210 234
c10 124 -55 210 -147 210c-113 0 -202 -113 -202 -256c0 -105 46 -188 139 -188z" />
    <glyph glyph-name="ampersand" unicode="&#x26;" horiz-adv-x="1567" 
d="M560 -10c-318 0 -466 154 -466 373c0 198 122 317 364 445c-102 114 -173 194 -173 322c0 192 174 338 426 338c246 0 443 -126 443 -314c0 -128 -104 -259 -320 -386l226 -266c27 61 83 185 98 319h299c-50 -177 -171 -342 -259 -487l286 -334h-335l-124 142
c-155 -113 -322 -152 -465 -152zM713 915c145 90 185 154 185 226c0 106 -83 152 -173 149c-95 -2 -152 -64 -152 -140c0 -66 48 -137 99 -192zM632 213c77 0 183 34 253 100l-284 329c-106 -60 -196 -149 -180 -263c13 -108 115 -166 211 -166z" />
    <glyph glyph-name="paragraph" unicode="&#xb6;" horiz-adv-x="1198" 
d="M486 -166v764c-228 16 -410 164 -410 419c0 233 162 429 465 429h545v-165h-125v-1447h-179v1447h-116v-1447h-180z" />
    <glyph glyph-name="section" unicode="&#xa7;" horiz-adv-x="1025" 
d="M515 -155c-229 0 -398 107 -459 232l179 90c55 -76 136 -144 275 -144c105 0 180 37 180 109c0 53 -35 95 -157 142l-153 57c-212 80 -303 169 -303 320c0 123 69 213 176 262c-124 74 -162 151 -162 245c0 174 153 308 403 308c205 0 360 -106 420 -220l-180 -88
c-58 66 -128 130 -231 130c-95 0 -152 -41 -152 -103c0 -47 45 -83 112 -109l156 -60c223 -86 318 -177 318 -333c0 -126 -67 -205 -163 -260c122 -68 175 -144 175 -254c0 -190 -154 -324 -434 -324zM568 515c81 -8 136 54 130 128c-6 58 -43 101 -153 143l-89 35
c-90 -7 -143 -65 -143 -128c0 -58 28 -88 156 -138z" />
    <glyph glyph-name="copyright" unicode="&#xa9;" horiz-adv-x="1661" 
d="M823 -20c-410 0 -742 330 -742 744c0 408 332 742 742 742s744 -334 744 -742c0 -414 -334 -744 -744 -744zM823 143c326 0 566 226 566 581c0 350 -240 582 -566 582c-332 0 -565 -232 -565 -582c0 -355 233 -581 565 -581zM829 313c-233 0 -399 168 -399 412
c0 248 169 417 399 417c195 0 309 -135 349 -259l-203 -23c-24 65 -60 129 -139 129c-102 0 -171 -87 -171 -260c0 -180 72 -263 183 -263c93 0 143 59 184 139l146 -37c-33 -97 -138 -255 -349 -255z" />
    <glyph glyph-name="registered" unicode="&#xae;" horiz-adv-x="1105" 
d="M547 536c-260 0 -466 206 -466 464s206 466 466 466c256 0 464 -208 464 -466s-208 -464 -464 -464zM547 652c202 0 337 136 337 348c0 211 -135 350 -337 350c-207 0 -340 -139 -340 -350c0 -212 133 -348 340 -348zM359 767v461h216c110 0 176 -43 176 -123
c0 -64 -43 -104 -93 -124l91 -214h-126l-70 202h-80v-202h-114zM473 1050h97c35 0 62 16 62 48c0 30 -24 50 -68 50h-91v-98z" />
    <glyph glyph-name="uni2117" unicode="&#x2117;" horiz-adv-x="1661" 
d="M823 -20c-410 0 -742 330 -742 744c0 408 332 742 742 742s744 -334 744 -742c0 -414 -334 -744 -744 -744zM823 143c326 0 566 226 566 581c0 350 -240 582 -566 582c-332 0 -565 -232 -565 -582c0 -355 233 -581 565 -581zM540 336v772h344c168 0 302 -75 302 -245
c0 -166 -116 -253 -283 -253h-176v-274h-187zM727 744h153c68 0 116 40 116 115c0 82 -55 112 -123 112h-146v-227z" />
    <glyph glyph-name="trademark" unicode="&#x2122;" horiz-adv-x="1906" 
d="M861 0v904h266l206 -644l208 644h265v-904h-184v691l-218 -691h-143l-216 688v-688h-184zM294 0v741h-273v163h724v-163h-268v-741h-183z" />
    <glyph glyph-name="degree" unicode="&#xb0;" horiz-adv-x="948" 
d="M467 1001c-193 0 -334 139 -334 335c0 195 141 337 334 337c192 0 335 -142 335 -337c0 -196 -143 -335 -335 -335zM465 1165c99 0 161 69 161 169c0 98 -62 168 -163 168c-98 0 -162 -70 -160 -168c2 -100 62 -169 162 -169z" />
    <glyph glyph-name="bar" unicode="|" horiz-adv-x="537" 
d="M162 -322v1974h213v-1974h-213z" />
    <glyph glyph-name="brokenbar" unicode="&#xa6;" horiz-adv-x="537" 
d="M162 837v815h213v-815h-213zM162 -322v816h213v-816h-213z" />
    <glyph glyph-name="uni2113" unicode="&#x2113;" horiz-adv-x="1140" 
d="M608 -17c-233 0 -358 107 -400 328l-97 -65l-68 160l163 122v443c0 334 177 495 425 495c244 0 333 -151 333 -337c0 -292 -228 -485 -460 -678c0 -184 39 -253 170 -253c97 0 182 49 279 167l98 -97c-49 -111 -169 -285 -443 -285zM504 687c138 128 266 285 266 460
c0 89 -37 144 -116 144c-90 0 -150 -71 -150 -317v-287z" />
    <glyph glyph-name="dagger" unicode="&#x2020;" horiz-adv-x="1041" 
d="M374 -322l54 1096l-366 -42v254l356 -37l-46 497h284l-47 -497l356 37v-254l-366 42l55 -1096h-280z" />
    <glyph glyph-name="daggerdbl" unicode="&#x2021;" horiz-adv-x="1041" 
d="M372 -322l47 471l-357 -39v255l363 -41v422l-363 -41v253l356 -38l-46 526h282l-45 -526l356 38v-253l-364 41v-422l364 41v-255l-358 39l49 -471h-284z" />
    <glyph glyph-name="uni2116" unicode="&#x2116;" horiz-adv-x="2370" 
d="M1967 795c-199 0 -327 138 -327 332c0 202 137 338 327 338c198 0 328 -140 328 -338c0 -194 -130 -332 -328 -332zM162 0v1446h289l660 -957v957h292v-1446h-263l-687 995v-995h-291zM1967 923c90 0 134 71 134 209c0 137 -44 208 -134 208c-89 0 -133 -71 -133 -208
c0 -138 44 -209 133 -209z" />
    <glyph glyph-name="uni2120" unicode="&#x2120;" horiz-adv-x="2022" 
d="M438 -13c-181 0 -359 90 -378 271h188c17 -82 91 -127 200 -127c86 0 170 37 170 115c0 62 -48 88 -126 106l-169 38c-146 29 -236 106 -236 253c0 168 152 272 353 272c225 0 350 -121 352 -274h-183c-9 94 -80 130 -174 130c-109 0 -157 -52 -157 -110
c0 -55 36 -88 120 -105l157 -34c175 -35 246 -130 246 -258c0 -164 -150 -277 -363 -277zM977 0v904h266l206 -644l208 644h265v-904h-184v691l-218 -691h-143l-216 688v-688h-184z" />
    <glyph glyph-name="uni02BC" unicode="&#x2bc;" horiz-adv-x="509" 
d="M100 912v86l22 2c57 7 122 62 122 134v18l-144 12v280h295v-248c0 -162 -132 -317 -295 -284z" />
    <glyph glyph-name="uni02BB" unicode="&#x2bb;" horiz-adv-x="509" 
d="M100 907v248c0 162 132 317 295 284v-85l-22 -3c-57 -7 -121 -62 -121 -134v-18l143 -12v-280h-295z" />
    <glyph glyph-name="uni0308" unicode="&#x308;" 
d="M476 1208l3 238h273l-2 -238h-274zM10 1208l3 238h273l-2 -238h-274z" />
    <glyph glyph-name="uni0307" unicode="&#x307;" 
d="M10 1208v238h279v-238h-279z" />
    <glyph glyph-name="gravecomb" unicode="&#x300;" 
d="M307 1155l-296 291h301l206 -291h-211z" />
    <glyph glyph-name="acutecomb" unicode="&#x301;" 
d="M10 1155l206 291h301l-297 -291h-210z" />
    <glyph glyph-name="uni030B" unicode="&#x30b;" 
d="M363 1155l247 291h275l-311 -291h-211zM10 1155l202 291h266l-257 -291h-211z" />
    <glyph glyph-name="uni030C.alt" 
d="M104 1010l82 202l-71 12v222h199v-233l-86 -203h-124z" />
    <glyph glyph-name="uni0302" unicode="&#x302;" 
d="M17 1155l264 259h202l257 -259h-228l-132 140l-146 -140h-217z" />
    <glyph glyph-name="uni030C" unicode="&#x30c;" 
d="M280 1155l-263 261h217l146 -150l132 150h228l-257 -261h-203z" />
    <glyph glyph-name="uni0306" unicode="&#x306;" 
d="M381 1156c-168 0 -315 85 -350 255h184c21 -66 79 -113 166 -113c85 0 146 47 168 113h183c-35 -167 -181 -255 -351 -255z" />
    <glyph glyph-name="uni030A" unicode="&#x30a;" 
d="M252 1120c-122 0 -217 97 -217 221c0 117 97 210 217 210c121 0 218 -95 218 -214c0 -122 -97 -217 -218 -217zM250 1234c56 0 99 48 99 102c0 57 -43 99 -99 99c-55 0 -102 -42 -102 -99c0 -54 47 -102 102 -102z" />
    <glyph glyph-name="tildecomb" unicode="&#x303;" 
d="M112 1191l-45 153c48 50 101 91 192 91c112 0 205 -61 295 -61c70 0 125 37 167 69l36 -173c-42 -35 -113 -70 -202 -70c-111 0 -184 55 -286 55c-67 0 -105 -21 -157 -64z" />
    <glyph glyph-name="uni0304" unicode="&#x304;" 
d="M35 1205v187h703v-187h-703z" />
    <glyph glyph-name="hookabovecomb" unicode="&#x309;" 
d="M666 1162l-69 108c53 33 74 80 46 125c-24 40 -84 42 -132 10l-68 106c121 78 254 54 315 -41c73 -113 43 -228 -92 -308z" />
    <glyph glyph-name="uni030F" unicode="&#x30f;" 
d="M322 1155l-312 291h275l247 -291h-210zM674 1155l-257 291h267l201 -291h-211z" />
    <glyph glyph-name="uni0311" unicode="&#x311;" 
d="M20 1180c35 169 182 255 350 255c170 0 317 -88 351 -255h-183c-21 66 -83 113 -168 113c-86 0 -145 -47 -166 -113h-184z" />
    <glyph glyph-name="uni0312" unicode="&#x312;" 
d="M114 1155v177l145 195h107l-89 -162l81 -9v-201h-244z" />
    <glyph glyph-name="uni031B" unicode="&#x31b;" 
d="M0 911v148c133 -2 182 -3 197 207h192c-2 -284 -89 -388 -389 -355z" />
    <glyph glyph-name="dotbelowcomb" unicode="&#x323;" 
d="M10 -398v238h279v-238h-279z" />
    <glyph glyph-name="uni0326" unicode="&#x326;" 
d="M5 -440l92 149l-80 10v187h248v-156l-156 -190h-104z" />
    <glyph glyph-name="uni0327" unicode="&#x327;" 
d="M260 -425c-84 0 -163 13 -230 54l40 98c41 -26 95 -49 154 -49c63 0 100 23 100 62c0 52 -46 80 -170 82c-17 0 -23 2 -16 19l73 169h130l-45 -117c151 -3 203 -86 203 -156c0 -102 -111 -162 -239 -162z" />
    <glyph glyph-name="uni0328" unicode="&#x328;" 
d="M252 -336c-136 0 -217 57 -217 164c0 72 36 135 192 187l204 -5c-141 -52 -185 -92 -185 -146c0 -43 22 -64 72 -64c60 0 106 21 145 44v-132c-37 -23 -121 -48 -211 -48z" />
    <glyph glyph-name="dieresis" unicode="&#xa8;" horiz-adv-x="762" 
d="M476 1208l3 238h273l-2 -238h-274zM10 1208l3 238h273l-2 -238h-274z" />
    <glyph glyph-name="dotaccent" unicode="&#x2d9;" horiz-adv-x="299" 
d="M10 1208v238h279v-238h-279z" />
    <glyph glyph-name="grave" unicode="`" horiz-adv-x="528" 
d="M307 1155l-296 291h301l206 -291h-211z" />
    <glyph glyph-name="acute" unicode="&#xb4;" horiz-adv-x="528" 
d="M10 1155l206 291h301l-297 -291h-210z" />
    <glyph glyph-name="hungarumlaut" unicode="&#x2dd;" horiz-adv-x="895" 
d="M363 1155l247 291h275l-311 -291h-211zM10 1155l202 291h266l-257 -291h-211z" />
    <glyph glyph-name="circumflex" unicode="&#x2c6;" horiz-adv-x="757" 
d="M17 1155l264 259h202l257 -259h-228l-132 140l-146 -140h-217z" />
    <glyph glyph-name="caron" unicode="&#x2c7;" horiz-adv-x="776" 
d="M280 1155l-263 261h217l146 -150l132 150h228l-257 -261h-203z" />
    <glyph glyph-name="breve" unicode="&#x2d8;" horiz-adv-x="762" 
d="M381 1156c-168 0 -315 85 -350 255h184c21 -66 79 -113 166 -113c85 0 146 47 168 113h183c-35 -167 -181 -255 -351 -255z" />
    <glyph glyph-name="ring" unicode="&#x2da;" horiz-adv-x="516" 
d="M252 1120c-122 0 -217 97 -217 221c0 117 97 210 217 210c121 0 218 -95 218 -214c0 -122 -97 -217 -218 -217zM250 1234c56 0 99 48 99 102c0 57 -43 99 -99 99c-55 0 -102 -42 -102 -99c0 -54 47 -102 102 -102z" />
    <glyph glyph-name="tilde" unicode="&#x2dc;" horiz-adv-x="831" 
d="M112 1191l-45 153c48 50 101 91 192 91c112 0 205 -61 295 -61c70 0 125 37 167 69l36 -173c-42 -35 -113 -70 -202 -70c-111 0 -184 55 -286 55c-67 0 -105 -21 -157 -64z" />
    <glyph glyph-name="macron" unicode="&#xaf;" horiz-adv-x="786" 
d="M35 1205v187h703v-187h-703z" />
    <glyph glyph-name="cedilla" unicode="&#xb8;" horiz-adv-x="546" 
d="M260 -425c-84 0 -163 13 -230 54l40 98c41 -26 95 -49 154 -49c63 0 100 23 100 62c0 52 -46 80 -170 82c-17 0 -23 2 -16 19l73 169h130l-45 -117c151 -3 203 -86 203 -156c0 -102 -111 -162 -239 -162z" />
    <glyph glyph-name="ogonek" unicode="&#x2db;" horiz-adv-x="509" 
d="M252 -336c-136 0 -217 57 -217 164c0 72 36 135 192 187l204 -5c-141 -52 -185 -92 -185 -146c0 -43 22 -64 72 -64c60 0 106 21 145 44v-132c-37 -23 -121 -48 -211 -48z" />
    <glyph glyph-name="gravecomb.narrow" 
d="M243 1155l-219 291h287l130 -289z" />
    <glyph glyph-name="acutecomb.narrow" 
d="M222 1155l-198 2l130 289h287z" />
    <glyph glyph-name="gravecomb.viet" 
d="M223 1155l-227 261h226l157 -261h-156z" />
    <glyph glyph-name="acutecomb.viet" 
d="M10 1155l152 261h225l-225 -261h-152z" />
    <glyph glyph-name="uni03060301" 
d="M302 1469l152 261h225l-225 -261h-152zM381 1156c-168 0 -315 85 -350 255h184c21 -66 79 -113 166 -113c85 0 146 47 168 113h183c-35 -167 -181 -255 -351 -255z" />
    <glyph glyph-name="uni03060300" 
d="M315 1469l-227 261h226l158 -261h-157zM381 1156c-168 0 -315 85 -350 255h184c21 -66 79 -113 166 -113c85 0 146 47 168 113h183c-35 -167 -181 -255 -351 -255z" />
    <glyph glyph-name="uni03060309" 
d="M390 1393l-69 109c52 33 74 80 46 125c-25 40 -85 41 -132 10l-69 106c49 31 101 47 149 47c69 0 130 -32 167 -88c73 -113 43 -228 -92 -309zM381 1156c-168 0 -315 85 -350 255h184c21 -66 79 -113 166 -113c85 0 146 47 168 113h183c-35 -167 -181 -255 -351 -255z
" />
    <glyph glyph-name="uni03060303" 
d="M77 1506l-44 153c48 51 101 92 192 92c112 0 205 -62 295 -62c69 0 124 37 166 70l37 -174c-42 -34 -113 -70 -202 -70c-112 0 -185 56 -287 56c-67 0 -105 -21 -157 -65zM381 1156c-168 0 -315 85 -350 255h184c21 -66 79 -113 166 -113c85 0 146 47 168 113h183
c-35 -167 -181 -255 -351 -255z" />
    <glyph glyph-name="uni03020301" 
d="M608 1398l152 262h225l-225 -262h-152zM17 1155l264 259h202l257 -259h-228l-132 140l-146 -140h-217z" />
    <glyph glyph-name="uni03020300" 
d="M695 1398l-227 261h226l158 -261h-157zM17 1155l264 259h202l257 -259h-228l-132 140l-146 -140h-217z" />
    <glyph glyph-name="uni03020309" 
d="M673 1353l-69 109c53 33 74 80 46 125c-24 40 -84 41 -132 10l-69 106c122 78 255 54 316 -41c73 -113 43 -228 -92 -309zM17 1155l264 259h202l257 -259h-228l-132 140l-146 -140h-217z" />
    <glyph glyph-name="uni03020303" 
d="M77 1506l-44 153c48 51 101 92 192 92c112 0 205 -62 295 -62c69 0 124 37 166 70l37 -174c-42 -34 -113 -70 -202 -70c-112 0 -185 56 -287 56c-67 0 -105 -21 -157 -65zM17 1155l264 259h202l257 -259h-228l-132 140l-146 -140h-217z" />
    <glyph glyph-name="uni0000" horiz-adv-x="53" 
 />
    <glyph glyph-name="uni0000" horiz-adv-x="53" 
 />
    </font>
</defs>
</svg>
