<?xml version="1.0" standalone="no"?>
<!DOCTYPE svg PUBLIC "-//W3C//DTD SVG 1.1//EN" "http://www.w3.org/Graphics/SVG/1.1/DTD/svg11.dtd" >
<svg xmlns="http://www.w3.org/2000/svg" xmlns:xlink="http://www.w3.org/1999/xlink" version="1.1">
<metadata>
Created by FontForge 20201107 at Fri Apr 29 19:27:11 2022
 By Emric Alwyn
Copyright 2015 The Public Sans Project Authors https:github.comuswdspublic-sans
</metadata>
<defs>
<font id="PublicSans-Medium" horiz-adv-x="0" >
  <font-face 
    font-family="Public Sans"
    font-weight="500"
    font-stretch="normal"
    units-per-em="2000"
    panose-1="0 0 0 0 0 0 0 0 0 0"
    ascent="1600"
    descent="-400"
    x-height="1034"
    cap-height="1446"
    bbox="-319 -480 2524 2146"
    underline-thickness="140"
    underline-position="-440"
    stemh="179"
    stemv="214"
    unicode-range="U+000D-FB02"
  />
<missing-glyph horiz-adv-x="1357" 
d="M221 1652h918c22 0 35 -16 35 -42v-1876c0 -40 -20 -56 -65 -56h-873c-42 0 -53 16 -53 48v1880c0 30 16 46 38 46zM1072 -113v1633c0 20 -11 34 -29 34h-687zM285 1433v-1617c0 -26 10 -40 44 -40h670z" />
    <glyph glyph-name="fi" unicode="fi" horiz-adv-x="1298" 
d="M277 0v880h-211v154h211v157c0 165 89 255 259 255h207l1 -148h-150c-82 0 -106 -42 -106 -132v-132h246v-154h-242v-880h-215zM937 1234v211h216v-211h-216zM942 0v1034h207v-1034h-207z" />
    <glyph glyph-name="fl" unicode="fl" horiz-adv-x="1412" 
d="M1217 -14c-245 0 -280 140 -280 287v1213h211v-1191c0 -97 38 -147 116 -153l54 -2v-136c-33 -11 -71 -18 -101 -18zM277 0v880h-211v154h211v157c0 165 89 255 259 255h207l1 -148h-150c-82 0 -106 -42 -106 -132v-132h246v-154h-242v-880h-215z" />
    <glyph glyph-name=".notdef" horiz-adv-x="1357" 
d="M221 1652h918c22 0 35 -16 35 -42v-1876c0 -40 -20 -56 -65 -56h-873c-42 0 -53 16 -53 48v1880c0 30 16 46 38 46zM1072 -113v1633c0 20 -11 34 -29 34h-687zM285 1433v-1617c0 -26 10 -40 44 -40h670z" />
    <glyph glyph-name="A" unicode="A" horiz-adv-x="1429" 
d="M75 0l522 1446h236l521 -1446h-216l-136 379h-573l-137 -379h-217zM482 573h464l-232 665z" />
    <glyph glyph-name="Aacute" unicode="&#xc1;" horiz-adv-x="1429" 
d="M626 1567l206 291h235l-280 -291h-161zM75 0l522 1446h236l521 -1446h-216l-136 379h-573l-137 -379h-217zM482 573h464l-232 665z" />
    <glyph glyph-name="Abreve" unicode="&#x102;" horiz-adv-x="1429" 
d="M713 1565c-152 0 -283 78 -314 227h148c21 -64 81 -110 166 -110s148 46 171 110h147c-31 -145 -159 -227 -318 -227zM75 0l522 1446h236l521 -1446h-216l-136 379h-573l-137 -379h-217zM482 573h464l-232 665z" />
    <glyph glyph-name="uni1EAE" unicode="&#x1eae;" horiz-adv-x="1429" 
d="M651 1829l147 248h187l-207 -248h-127zM717 1565c-153 0 -283 78 -315 227h148c22 -64 82 -110 167 -110c84 0 148 46 170 110h147c-31 -145 -159 -227 -317 -227zM75 0l522 1446h236l521 -1446h-216l-136 379h-573l-137 -379h-217zM482 573h464l-232 665z" />
    <glyph glyph-name="uni1EB6" unicode="&#x1eb6;" horiz-adv-x="1429" 
d="M713 1565c-152 0 -283 78 -314 227h148c21 -64 81 -110 166 -110s148 46 171 110h147c-31 -145 -159 -227 -318 -227zM75 0l522 1446h236l521 -1446h-216l-136 379h-573l-137 -379h-217zM482 573h464l-232 665zM609 -369v194h213v-194h-213z" />
    <glyph glyph-name="uni1EB0" unicode="&#x1eb0;" horiz-adv-x="1429" 
d="M665 1828l-215 248h187l159 -248h-131zM717 1565c-153 0 -283 78 -315 227h148c22 -64 82 -110 167 -110c84 0 148 46 170 110h147c-31 -145 -159 -227 -317 -227zM75 0l522 1446h236l521 -1446h-216l-136 379h-573l-137 -379h-217zM482 573h464l-232 665z" />
    <glyph glyph-name="uni1EB2" unicode="&#x1eb2;" horiz-adv-x="1429" 
d="M726 1782l-58 91c56 35 82 86 54 131c-26 43 -89 41 -141 6l-59 90c48 31 98 46 144 46c63 0 118 -28 151 -79c68 -104 32 -211 -91 -285zM717 1565c-153 0 -283 78 -315 227h148c22 -64 82 -110 167 -110c84 0 148 46 170 110h147c-31 -145 -159 -227 -317 -227zM75 0
l522 1446h236l521 -1446h-216l-136 379h-573l-137 -379h-217zM482 573h464l-232 665z" />
    <glyph glyph-name="uni1EB4" unicode="&#x1eb4;" horiz-adv-x="1429" 
d="M443 1903l-38 121c46 44 93 80 174 80c102 0 183 -58 272 -58c62 0 107 29 147 60l33 -136c-36 -29 -95 -61 -180 -61c-108 0 -169 52 -263 52c-66 0 -101 -24 -145 -58zM717 1565c-153 0 -283 78 -315 227h148c22 -64 82 -110 167 -110c84 0 148 46 170 110h147
c-31 -145 -159 -227 -317 -227zM75 0l522 1446h236l521 -1446h-216l-136 379h-573l-137 -379h-217zM482 573h464l-232 665z" />
    <glyph glyph-name="Acircumflex" unicode="&#xc2;" horiz-adv-x="1429" 
d="M385 1567l255 234h151l249 -234h-189l-138 133l-150 -133h-178zM75 0l522 1446h236l521 -1446h-216l-136 379h-573l-137 -379h-217zM482 573h464l-232 665z" />
    <glyph glyph-name="uni1EA4" unicode="&#x1ea4;" horiz-adv-x="1429" 
d="M910 1794l148 248h187l-207 -248h-128zM386 1567l254 234h152l249 -234h-189l-138 133l-150 -133h-178zM75 0l522 1446h236l521 -1446h-216l-136 379h-573l-137 -379h-217zM482 573h464l-232 665z" />
    <glyph glyph-name="uni1EAC" unicode="&#x1eac;" horiz-adv-x="1429" 
d="M386 1567l254 234h152l249 -234h-189l-138 133l-150 -133h-178zM75 0l522 1446h236l521 -1446h-216l-136 379h-573l-137 -379h-217zM482 573h464l-232 665zM609 -369v194h213v-194h-213z" />
    <glyph glyph-name="uni1EA6" unicode="&#x1ea6;" horiz-adv-x="1429" 
d="M1005 1794l-215 248h187l159 -248h-131zM386 1567l254 234h152l249 -234h-189l-138 133l-150 -133h-178zM75 0l522 1446h236l521 -1446h-216l-136 379h-573l-137 -379h-217zM482 573h464l-232 665z" />
    <glyph glyph-name="uni1EA8" unicode="&#x1ea8;" horiz-adv-x="1429" 
d="M968 1748l-58 91c56 35 82 86 54 131c-27 43 -89 41 -142 6l-58 90c115 74 238 54 295 -33c68 -104 32 -210 -91 -285zM391 1567l254 234h152l249 -234h-189l-138 133l-150 -133h-178zM75 0l522 1446h236l521 -1446h-216l-136 379h-573l-137 -379h-217zM482 573h464
l-232 665z" />
    <glyph glyph-name="uni1EAA" unicode="&#x1eaa;" horiz-adv-x="1429" 
d="M440 1905l-38 121c46 44 93 80 174 80c102 0 183 -58 272 -58c62 0 107 29 147 60l33 -136c-36 -28 -95 -61 -180 -61c-108 0 -169 53 -263 53c-66 0 -101 -25 -145 -59zM388 1567l254 234h152l249 -234h-190l-137 133l-150 -133h-178zM75 0l522 1446h236l521 -1446h-216
l-136 379h-573l-137 -379h-217zM482 573h464l-232 665z" />
    <glyph glyph-name="uni0200" unicode="&#x200;" horiz-adv-x="1429" 
d="M483 1567l-297 291h219l239 -291h-161zM782 1567l-250 291h213l198 -291h-161zM75 0l522 1446h236l521 -1446h-216l-136 379h-573l-137 -379h-217zM482 573h464l-232 665z" />
    <glyph glyph-name="Adieresis" unicode="&#xc4;" horiz-adv-x="1429" 
d="M816 1663l2 195h206l-2 -195h-206zM406 1663l2 195h206l-2 -195h-206zM75 0l522 1446h236l521 -1446h-216l-136 379h-573l-137 -379h-217zM482 573h464l-232 665z" />
    <glyph glyph-name="uni1EA0" unicode="&#x1ea0;" horiz-adv-x="1429" 
d="M75 0l522 1446h236l521 -1446h-216l-136 379h-573l-137 -379h-217zM482 573h464l-232 665zM609 -369v194h213v-194h-213z" />
    <glyph glyph-name="Agrave" unicode="&#xc0;" horiz-adv-x="1429" 
d="M637 1567l-280 291h235l206 -291h-161zM75 0l522 1446h236l521 -1446h-216l-136 379h-573l-137 -379h-217zM482 573h464l-232 665z" />
    <glyph glyph-name="uni1EA2" unicode="&#x1ea2;" horiz-adv-x="1429" 
d="M781 1564l-59 91c56 35 82 86 54 131c-26 43 -89 41 -141 6l-58 90c115 74 237 54 294 -33c69 -104 33 -210 -90 -285zM75 0l522 1446h236l521 -1446h-216l-136 379h-573l-137 -379h-217zM482 573h464l-232 665z" />
    <glyph glyph-name="uni0202" unicode="&#x202;" horiz-adv-x="1429" 
d="M395 1612c32 149 162 227 315 227c159 0 286 -82 317 -227h-146c-23 64 -87 110 -171 110c-85 0 -145 -46 -167 -110h-148zM75 0l522 1446h236l521 -1446h-216l-136 379h-573l-137 -379h-217zM482 573h464l-232 665z" />
    <glyph glyph-name="Amacron" unicode="&#x100;" horiz-adv-x="1429" 
d="M402 1639v146h625v-146h-625zM75 0l522 1446h236l521 -1446h-216l-136 379h-573l-137 -379h-217zM482 573h464l-232 665z" />
    <glyph glyph-name="Aogonek" unicode="&#x104;" horiz-adv-x="1429" 
d="M75 0l522 1446h236l520 -1443h4l-4 -1l1 -2h-5c-131 -53 -181 -96 -181 -156c0 -47 26 -71 86 -71c63 0 113 21 144 39v-107c-34 -20 -111 -43 -193 -43c-131 0 -203 60 -203 160c0 71 35 130 163 178h-27l-136 379h-573l-137 -379h-217zM482 573h464l-232 665z" />
    <glyph glyph-name="Aring" unicode="&#xc5;" horiz-adv-x="1429" 
d="M715 1560c-117 0 -209 93 -209 213c0 112 94 202 209 202c117 0 210 -91 210 -206c0 -118 -93 -209 -210 -209zM713 1661c59 0 104 51 104 107c0 61 -45 105 -104 105c-56 0 -106 -44 -106 -105c0 -56 50 -107 106 -107zM75 0l522 1446h236l521 -1446h-216l-136 379h-573
l-137 -379h-217zM482 573h464l-232 665z" />
    <glyph glyph-name="Aringacute" unicode="&#x1fa;" horiz-adv-x="1429" 
d="M75 0l507 1406c-44 36 -71 91 -71 157c0 94 69 169 160 186l30 131h148l-59 -139c75 -28 128 -97 128 -182c0 -64 -27 -117 -71 -152l507 -1407h-216l-136 379h-573l-137 -379h-217zM712 1450c59 0 105 51 105 107c0 61 -46 105 -105 105c-56 0 -106 -44 -106 -105
c0 -56 50 -107 106 -107zM482 573h464l-232 665z" />
    <glyph glyph-name="Atilde" unicode="&#xc3;" horiz-adv-x="1429" 
d="M443 1624l-37 121c45 44 93 79 173 79c103 0 184 -57 272 -57c62 0 107 29 147 59l34 -135c-37 -29 -96 -62 -181 -62c-108 0 -169 53 -263 53c-66 0 -101 -24 -145 -58zM75 0l522 1446h236l521 -1446h-216l-136 379h-573l-137 -379h-217zM482 573h464l-232 665z" />
    <glyph glyph-name="AE" unicode="&#xc6;" horiz-adv-x="1985" 
d="M0 0l793 1446h1053l-1 -183h-688v-443h610v-181h-610v-455h712v-184h-956v384h-486l-210 -384h-217zM511 573h402v724z" />
    <glyph glyph-name="AEacute" unicode="&#x1fc;" horiz-adv-x="1985" 
d="M1210 1567l206 291h235l-280 -291h-161zM0 0l793 1446h1053l-1 -183h-688v-443h610v-181h-610v-455h712v-184h-956v384h-486l-210 -384h-217zM511 573h402v724z" />
    <glyph glyph-name="B" unicode="B" horiz-adv-x="1348" 
d="M183 0v1446h481c359 0 542 -134 542 -377c0 -151 -69 -258 -263 -331c231 -53 298 -193 298 -348c0 -264 -183 -390 -560 -390h-498zM397 820h305c142 0 296 54 296 221c0 157 -131 232 -320 232h-281v-453zM397 174h285c223 0 342 77 342 230c0 166 -142 239 -322 239
h-305v-469z" />
    <glyph glyph-name="C" unicode="C" horiz-adv-x="1393" 
d="M730 -20c-393 0 -625 283 -625 750s230 736 625 736c311 0 531 -213 559 -475h-228c-31 165 -143 292 -336 292c-247 0 -384 -167 -384 -556c0 -391 137 -564 384 -564c193 0 305 140 336 304h228c-32 -255 -196 -487 -559 -487z" />
    <glyph glyph-name="Cacute" unicode="&#x106;" horiz-adv-x="1393" 
d="M637 1567l206 291h235l-280 -291h-161zM730 -20c-393 0 -625 283 -625 750s230 736 625 736c311 0 531 -213 559 -475h-228c-31 165 -143 292 -336 292c-247 0 -384 -167 -384 -556c0 -391 137 -564 384 -564c193 0 305 140 336 304h228c-32 -255 -196 -487 -559 -487z
" />
    <glyph glyph-name="Ccaron" unicode="&#x10c;" horiz-adv-x="1393" 
d="M650 1567l-255 235h180l150 -139l137 139h190l-249 -235h-153zM730 -20c-393 0 -625 283 -625 750s230 736 625 736c311 0 531 -213 559 -475h-228c-31 165 -143 292 -336 292c-247 0 -384 -167 -384 -556c0 -391 137 -564 384 -564c193 0 305 140 336 304h228
c-32 -255 -196 -487 -559 -487z" />
    <glyph glyph-name="Ccedilla" unicode="&#xc7;" horiz-adv-x="1393" 
d="M709 -415c-75 0 -143 14 -201 51l33 83c37 -26 83 -48 142 -48c70 0 106 26 106 70c0 56 -46 84 -162 87c-15 0 -19 3 -14 15l61 139c-360 26 -569 303 -569 748c0 467 230 736 625 736c311 0 531 -213 559 -475h-228c-31 165 -143 292 -336 292
c-247 0 -384 -167 -384 -556c0 -391 137 -564 384 -564c193 0 305 140 336 304h228c-30 -242 -181 -465 -508 -485l-35 -92c140 -5 186 -82 186 -149c0 -101 -103 -156 -223 -156z" />
    <glyph glyph-name="Ccircumflex" unicode="&#x108;" horiz-adv-x="1393" 
d="M397 1567l254 234h152l249 -234h-190l-137 133l-150 -133h-178zM730 -20c-393 0 -625 283 -625 750s230 736 625 736c311 0 531 -213 559 -475h-228c-31 165 -143 292 -336 292c-247 0 -384 -167 -384 -556c0 -391 137 -564 384 -564c193 0 305 140 336 304h228
c-32 -255 -196 -487 -559 -487z" />
    <glyph glyph-name="Cdotaccent" unicode="&#x10a;" horiz-adv-x="1393" 
d="M619 1663v195h213v-195h-213zM730 -20c-393 0 -625 283 -625 750s230 736 625 736c311 0 531 -213 559 -475h-228c-31 165 -143 292 -336 292c-247 0 -384 -167 -384 -556c0 -391 137 -564 384 -564c193 0 305 140 336 304h228c-32 -255 -196 -487 -559 -487z" />
    <glyph glyph-name="D" unicode="D" horiz-adv-x="1401" 
d="M183 0v1446c20 0 240 0 362 -2c530 -9 752 -262 752 -713c0 -471 -245 -731 -768 -731h-346zM401 180h130c327 0 541 147 541 550c0 396 -199 536 -535 536h-136v-1086z" />
    <glyph glyph-name="Eth" unicode="&#xd0;" horiz-adv-x="1437" 
d="M218 0v639h-148v166h148v641c21 0 240 0 363 -2c530 -9 751 -262 751 -713c0 -471 -245 -731 -768 -731h-346zM437 180h129c328 0 541 147 541 550c0 396 -199 536 -534 536h-136v-461h318v-166h-318v-459z" />
    <glyph glyph-name="Dcaron" unicode="&#x10e;" horiz-adv-x="1401" 
d="M615 1567l-255 235h180l150 -139l137 139h189l-248 -235h-153zM183 0v1446c20 0 240 0 362 -2c530 -9 752 -262 752 -713c0 -471 -245 -731 -768 -731h-346zM401 180h130c327 0 541 147 541 550c0 396 -199 536 -535 536h-136v-1086z" />
    <glyph glyph-name="Dcroat" unicode="&#x110;" horiz-adv-x="1437" 
d="M218 0v639h-148v166h148v641c21 0 240 0 363 -2c530 -9 751 -262 751 -713c0 -471 -245 -731 -768 -731h-346zM437 180h129c328 0 541 147 541 550c0 396 -199 536 -534 536h-136v-461h318v-166h-318v-459z" />
    <glyph glyph-name="uni1E0C" unicode="&#x1e0c;" horiz-adv-x="1401" 
d="M183 0v1446c20 0 240 0 362 -2c530 -9 752 -262 752 -713c0 -471 -245 -731 -768 -731h-346zM401 180h130c327 0 541 147 541 550c0 396 -199 536 -535 536h-136v-1086zM604 -369v194h213v-194h-213z" />
    <glyph glyph-name="E" unicode="E" horiz-adv-x="1249" 
d="M183 0v1446h934l-1 -186h-718v-439h641v-183h-642v-449l737 -1v-188h-951z" />
    <glyph glyph-name="Eacute" unicode="&#xc9;" horiz-adv-x="1249" 
d="M564 1567l206 291h235l-280 -291h-161zM183 0v1446h934l-1 -186h-718v-439h641v-183h-642v-449l737 -1v-188h-951z" />
    <glyph glyph-name="Ebreve" unicode="&#x114;" horiz-adv-x="1249" 
d="M651 1565c-153 0 -283 78 -315 227h148c22 -64 82 -110 167 -110c84 0 148 46 171 110h147c-32 -145 -159 -227 -318 -227zM183 0v1446h934l-1 -186h-718v-439h641v-183h-642v-449l737 -1v-188h-951z" />
    <glyph glyph-name="Ecaron" unicode="&#x11a;" horiz-adv-x="1249" 
d="M577 1567l-255 235h180l150 -139l137 139h189l-248 -235h-153zM183 0v1446h934l-1 -186h-718v-439h641v-183h-642v-449l737 -1v-188h-951z" />
    <glyph glyph-name="Ecircumflex" unicode="&#xca;" horiz-adv-x="1249" 
d="M323 1567l255 234h152l248 -234h-189l-137 133l-150 -133h-179zM183 0v1446h934l-1 -186h-718v-439h641v-183h-642v-449l737 -1v-188h-951z" />
    <glyph glyph-name="uni1EBE" unicode="&#x1ebe;" horiz-adv-x="1249" 
d="M848 1794l147 248h187l-207 -248h-127zM323 1567l255 234h152l248 -234h-189l-137 133l-150 -133h-179zM183 0v1446h934l-1 -186h-718v-439h641v-183h-642v-449l737 -1v-188h-951z" />
    <glyph glyph-name="uni1EC6" unicode="&#x1ec6;" horiz-adv-x="1249" 
d="M323 1567l255 234h152l248 -234h-189l-137 133l-150 -133h-179zM183 0v1446h934l-1 -186h-718v-439h641v-183h-642v-449l737 -1v-188h-951zM577 -369v194h213v-194h-213z" />
    <glyph glyph-name="uni1EC0" unicode="&#x1ec0;" horiz-adv-x="1249" 
d="M943 1794l-215 248h187l158 -248h-130zM323 1567l255 234h152l248 -234h-189l-137 133l-150 -133h-179zM183 0v1446h934l-1 -186h-718v-439h641v-183h-642v-449l737 -1v-188h-951z" />
    <glyph glyph-name="uni1EC2" unicode="&#x1ec2;" horiz-adv-x="1249" 
d="M906 1748l-58 91c55 35 82 86 54 131c-27 43 -90 41 -142 6l-58 90c115 74 238 54 295 -33c68 -104 32 -210 -91 -285zM329 1567l254 234h152l249 -234h-190l-137 133l-150 -133h-178zM183 0v1446h934l-1 -186h-718v-439h641v-183h-642v-449l737 -1v-188h-951z" />
    <glyph glyph-name="uni1EC4" unicode="&#x1ec4;" horiz-adv-x="1249" 
d="M377 1905l-37 121c45 44 93 80 173 80c103 0 184 -58 273 -58c62 0 106 29 147 60l33 -136c-37 -28 -96 -61 -181 -61c-108 0 -169 53 -263 53c-66 0 -101 -25 -145 -59zM325 1567l255 234h151l249 -234h-189l-137 133l-150 -133h-179zM183 0v1446h934l-1 -186h-718v-439
h641v-183h-642v-449l737 -1v-188h-951z" />
    <glyph glyph-name="uni0204" unicode="&#x204;" horiz-adv-x="1249" 
d="M420 1567l-296 291h218l240 -291h-162zM719 1567l-249 291h213l198 -291h-162zM183 0v1446h934l-1 -186h-718v-439h641v-183h-642v-449l737 -1v-188h-951z" />
    <glyph glyph-name="Edieresis" unicode="&#xcb;" horiz-adv-x="1249" 
d="M754 1663l2 195h206l-2 -195h-206zM344 1663l2 195h206l-2 -195h-206zM183 0v1446h934l-1 -186h-718v-439h641v-183h-642v-449l737 -1v-188h-951z" />
    <glyph glyph-name="Edotaccent" unicode="&#x116;" horiz-adv-x="1249" 
d="M546 1663v195h212v-195h-212zM183 0v1446h934l-1 -186h-718v-439h641v-183h-642v-449l737 -1v-188h-951z" />
    <glyph glyph-name="uni1EB8" unicode="&#x1eb8;" horiz-adv-x="1249" 
d="M183 0v1446h934l-1 -186h-718v-439h641v-183h-642v-449l737 -1v-188h-951zM577 -369v194h213v-194h-213z" />
    <glyph glyph-name="Egrave" unicode="&#xc8;" horiz-adv-x="1249" 
d="M575 1567l-280 291h235l206 -291h-161zM183 0v1446h934l-1 -186h-718v-439h641v-183h-642v-449l737 -1v-188h-951z" />
    <glyph glyph-name="uni1EBA" unicode="&#x1eba;" horiz-adv-x="1249" 
d="M718 1564l-58 91c56 35 82 86 54 131c-26 43 -89 41 -141 6l-59 90c116 74 238 54 295 -33c68 -104 32 -210 -91 -285zM183 0v1446h934l-1 -186h-718v-439h641v-183h-642v-449l737 -1v-188h-951z" />
    <glyph glyph-name="uni0206" unicode="&#x206;" horiz-adv-x="1249" 
d="M333 1612c32 149 162 227 315 227c158 0 286 -82 317 -227h-147c-23 64 -86 110 -170 110c-86 0 -145 -46 -167 -110h-148zM183 0v1446h934l-1 -186h-718v-439h641v-183h-642v-449l737 -1v-188h-951z" />
    <glyph glyph-name="Emacron" unicode="&#x112;" horiz-adv-x="1249" 
d="M339 1639v146h626v-146h-626zM183 0v1446h934l-1 -186h-718v-439h641v-183h-642v-449l737 -1v-188h-951z" />
    <glyph glyph-name="Eogonek" unicode="&#x118;" horiz-adv-x="1249" 
d="M183 0v1446h934l-1 -186h-718v-439h641v-183h-642v-449l737 -1v-182l18 -1c-137 -54 -189 -97 -189 -159c0 -47 26 -71 87 -71c62 0 112 21 143 39v-107c-34 -20 -110 -42 -192 -42c-132 0 -204 59 -204 159c0 70 35 128 158 176h-772z" />
    <glyph glyph-name="uni1EBC" unicode="&#x1ebc;" horiz-adv-x="1249" 
d="M380 1624l-37 121c46 44 93 79 174 79c102 0 183 -57 272 -57c62 0 106 29 147 59l33 -135c-36 -29 -95 -62 -180 -62c-109 0 -170 53 -264 53c-65 0 -101 -24 -145 -58zM183 0v1446h934l-1 -186h-718v-439h641v-183h-642v-449l737 -1v-188h-951z" />
    <glyph glyph-name="F" unicode="F" horiz-adv-x="1198" 
d="M183 0v1446h924l-1 -184h-705v-447h627v-182h-627v-633h-218z" />
    <glyph glyph-name="G" unicode="G" horiz-adv-x="1480" 
d="M729 -20c-386 0 -624 275 -624 739c0 468 247 747 634 747c306 0 542 -228 557 -475h-228c-28 154 -156 288 -333 288c-234 0 -398 -168 -398 -555c0 -404 179 -552 405 -552c222 0 335 174 345 307l7 117h-338v154l561 -2v-748h-155v212c-76 -118 -203 -232 -433 -232z
" />
    <glyph glyph-name="Gbreve" unicode="&#x11e;" horiz-adv-x="1480" 
d="M733 1565c-153 0 -283 78 -315 227h148c22 -64 81 -110 167 -110c84 0 147 46 170 110h147c-31 -145 -159 -227 -317 -227zM729 -20c-386 0 -624 275 -624 739c0 468 247 747 634 747c306 0 542 -228 557 -475h-228c-28 154 -156 288 -333 288
c-234 0 -398 -168 -398 -555c0 -404 179 -552 405 -552c222 0 335 174 345 307l7 117h-338v154l561 -2v-748h-155v212c-76 -118 -203 -232 -433 -232z" />
    <glyph glyph-name="Gcircumflex" unicode="&#x11c;" horiz-adv-x="1480" 
d="M405 1567l255 234h151l249 -234h-189l-138 133l-149 -133h-179zM729 -20c-386 0 -624 275 -624 739c0 468 247 747 634 747c306 0 542 -228 557 -475h-228c-28 154 -156 288 -333 288c-234 0 -398 -168 -398 -555c0 -404 179 -552 405 -552c222 0 335 174 345 307l7 117
h-338v154l561 -2v-748h-155v212c-76 -118 -203 -232 -433 -232z" />
    <glyph glyph-name="uni0122" unicode="&#x122;" horiz-adv-x="1480" 
d="M729 -20c-386 0 -624 275 -624 739c0 468 247 747 634 747c306 0 542 -228 557 -475h-228c-28 154 -156 288 -333 288c-234 0 -398 -168 -398 -555c0 -404 179 -552 405 -552c222 0 335 174 345 307l7 117h-338v154l561 -2v-748h-155v212c-76 -118 -203 -232 -433 -232z
M612 -397l85 131l-68 7v163h204v-137l-137 -164h-84z" />
    <glyph glyph-name="Gdotaccent" unicode="&#x120;" horiz-adv-x="1480" 
d="M628 1663v195h212v-195h-212zM729 -20c-386 0 -624 275 -624 739c0 468 247 747 634 747c306 0 542 -228 557 -475h-228c-28 154 -156 288 -333 288c-234 0 -398 -168 -398 -555c0 -404 179 -552 405 -552c222 0 335 174 345 307l7 117h-338v154l561 -2v-748h-155v212
c-76 -118 -203 -232 -433 -232z" />
    <glyph glyph-name="H" unicode="H" horiz-adv-x="1534" 
d="M183 0v1446h214v-606h740v606h214v-1446h-214v654h-740v-654h-214z" />
    <glyph glyph-name="Hbar" unicode="&#x126;" horiz-adv-x="1601" 
d="M223 0v1108h-194v132h194v206h214v-206h741v206h214v-206h180v-132h-180v-1108h-214v654h-741v-654h-214zM437 840h741v268h-741v-268z" />
    <glyph glyph-name="Hcircumflex" unicode="&#x124;" horiz-adv-x="1534" 
d="M437 1574l254 234h152l249 -234h-190l-137 132l-150 -132h-178zM183 0v1446h214v-606h740v606h214v-1446h-214v654h-740v-654h-214z" />
    <glyph glyph-name="uni1E24" unicode="&#x1e24;" horiz-adv-x="1534" 
d="M183 0v1446h214v-606h740v606h214v-1446h-214v654h-740v-654h-214zM674 -369v194h213v-194h-213z" />
    <glyph glyph-name="I" unicode="I" horiz-adv-x="580" 
d="M183 0v1446h214v-1446h-214z" />
    <glyph glyph-name="Iacute" unicode="&#xcd;" horiz-adv-x="580" 
d="M202 1567l206 291h235l-280 -291h-161zM183 0v1446h214v-1446h-214z" />
    <glyph glyph-name="Ibreve" unicode="&#x12c;" horiz-adv-x="580" 
d="M289 1565c-152 0 -283 78 -314 227h148c21 -64 81 -110 166 -110s148 46 171 110h147c-31 -145 -159 -227 -318 -227zM183 0v1446h214v-1446h-214z" />
    <glyph glyph-name="Icircumflex" unicode="&#xce;" horiz-adv-x="580" 
d="M-38 1567l254 234h152l249 -234h-189l-138 133l-150 -133h-178zM183 0v1446h214v-1446h-214z" />
    <glyph glyph-name="uni0208" unicode="&#x208;" horiz-adv-x="580" 
d="M59 1567l-297 291h219l239 -291h-161zM358 1567l-250 291h213l198 -291h-161zM183 0v1446h214v-1446h-214z" />
    <glyph glyph-name="Idieresis" unicode="&#xcf;" horiz-adv-x="580" 
d="M392 1663l2 195h206l-2 -195h-206zM-18 1663l2 195h206l-2 -195h-206zM183 0v1446h214v-1446h-214z" />
    <glyph glyph-name="Idotaccent" unicode="&#x130;" horiz-adv-x="580" 
d="M184 1663v195h213v-195h-213zM183 0v1446h214v-1446h-214z" />
    <glyph glyph-name="uni1ECA" unicode="&#x1eca;" horiz-adv-x="580" 
d="M183 0v1446h214v-1446h-214zM195 -369v194h213v-194h-213z" />
    <glyph glyph-name="Igrave" unicode="&#xcc;" horiz-adv-x="580" 
d="M213 1567l-280 291h235l206 -291h-161zM183 0v1446h214v-1446h-214z" />
    <glyph glyph-name="uni1EC8" unicode="&#x1ec8;" horiz-adv-x="580" 
d="M357 1564l-59 91c56 35 82 86 54 131c-26 43 -89 41 -141 6l-58 90c115 74 237 54 294 -33c69 -104 33 -210 -90 -285zM183 0v1446h214v-1446h-214z" />
    <glyph glyph-name="uni020A" unicode="&#x20a;" horiz-adv-x="580" 
d="M-29 1612c32 149 162 227 315 227c159 0 286 -82 318 -227h-147c-23 64 -87 110 -171 110c-85 0 -145 -46 -167 -110h-148zM183 0v1446h214v-1446h-214z" />
    <glyph glyph-name="Imacron" unicode="&#x12a;" horiz-adv-x="580" 
d="M-22 1639v146h625v-146h-625zM183 0v1446h214v-1446h-214z" />
    <glyph glyph-name="Iogonek" unicode="&#x12e;" horiz-adv-x="580" 
d="M183 0v1446h214v-1446h-1c-137 -55 -189 -97 -189 -159c0 -47 25 -71 86 -71c63 0 113 21 144 39v-107c-34 -20 -111 -43 -193 -43c-132 0 -203 60 -203 160c0 72 37 132 171 181h-29z" />
    <glyph glyph-name="Itilde" unicode="&#x128;" horiz-adv-x="580" 
d="M19 1624l-37 121c45 44 93 79 173 79c103 0 184 -57 272 -57c62 0 107 29 147 59l34 -135c-37 -29 -96 -62 -181 -62c-108 0 -169 53 -263 53c-66 0 -101 -24 -145 -58zM183 0v1446h214v-1446h-214z" />
    <glyph glyph-name="J" unicode="J" horiz-adv-x="784" 
d="M313 -20c-100 0 -204 29 -238 41l11 202c41 -13 91 -39 167 -39c131 0 170 65 170 233v1029h215v-1088c0 -244 -66 -378 -325 -378z" />
    <glyph glyph-name="Jcircumflex" unicode="&#x134;" horiz-adv-x="784" 
d="M197 1567l255 234h151l249 -234h-189l-138 133l-150 -133h-178zM313 -20c-100 0 -204 29 -238 41l11 202c41 -13 91 -39 167 -39c131 0 170 65 170 233v1029h215v-1088c0 -244 -66 -378 -325 -378z" />
    <glyph glyph-name="K" unicode="K" horiz-adv-x="1383" 
d="M183 0v1446h223v-725l615 725h252l-472 -566l516 -880h-238l-433 724l-240 -279v-445h-223z" />
    <glyph glyph-name="uni0136" unicode="&#x136;" horiz-adv-x="1383" 
d="M183 0v1446h223v-725l615 725h252l-472 -566l516 -880h-238l-433 724l-240 -279v-445h-223zM571 -397l84 131l-67 7v163h204v-137l-138 -164h-83z" />
    <glyph glyph-name="L" unicode="L" horiz-adv-x="1155" 
d="M183 0l1 1446h217v-1258h668v-188h-886z" />
    <glyph glyph-name="Lacute" unicode="&#x139;" horiz-adv-x="1155" 
d="M201 1567l206 291h235l-280 -291h-161zM183 0l1 1446h217v-1258h668v-188h-886z" />
    <glyph glyph-name="Lcaron" unicode="&#x13d;" horiz-adv-x="1155" 
d="M183 0l1 1446h217v-1258h668v-188h-886zM767 1045l78 189l-59 10v202h165v-212l-81 -189h-103z" />
    <glyph glyph-name="uni013B" unicode="&#x13b;" horiz-adv-x="1155" 
d="M183 0l1 1446h217v-1258h668v-188h-886zM500 -397l84 131l-67 7v163h203v-137l-137 -164h-83z" />
    <glyph glyph-name="Ldot" unicode="&#x13f;" horiz-adv-x="1155" 
d="M183 0l1 1446h217v-1258h668v-188h-886zM747 673v239h249v-239h-249z" />
    <glyph glyph-name="Lslash" unicode="&#x141;" horiz-adv-x="1167" 
d="M195 0v641l-178 -49v182l178 46l1 626h217v-569l309 81v-173l-309 -85v-512h668v-188h-886z" />
    <glyph glyph-name="M" unicode="M" horiz-adv-x="1788" 
d="M183 0v1446h302l407 -1150l413 1150h300v-1446h-219v1152l-400 -1152h-187l-398 1143v-1143h-218z" />
    <glyph glyph-name="N" unicode="N" horiz-adv-x="1523" 
d="M183 0v1446h207l736 -1078v1078h215v-1446h-192l-752 1101v-1101h-214z" />
    <glyph glyph-name="Nacute" unicode="&#x143;" horiz-adv-x="1523" 
d="M673 1567l206 291h235l-280 -291h-161zM183 0v1446h207l736 -1078v1078h215v-1446h-192l-752 1101v-1101h-214z" />
    <glyph glyph-name="Ncaron" unicode="&#x147;" horiz-adv-x="1523" 
d="M686 1567l-255 235h180l150 -139l137 139h189l-249 -235h-152zM183 0v1446h207l736 -1078v1078h215v-1446h-192l-752 1101v-1101h-214z" />
    <glyph glyph-name="uni0145" unicode="&#x145;" horiz-adv-x="1523" 
d="M183 0v1446h207l736 -1078v1078h215v-1446h-192l-752 1101v-1101h-214zM617 -397l84 131l-67 7v163h204v-137l-137 -164h-84z" />
    <glyph glyph-name="uni1E44" unicode="&#x1e44;" horiz-adv-x="1523" 
d="M655 1663v195h212v-195h-212zM183 0v1446h207l736 -1078v1078h215v-1446h-192l-752 1101v-1101h-214z" />
    <glyph glyph-name="Eng" unicode="&#x14a;" horiz-adv-x="1523" 
d="M1016 -480c-100 0 -205 29 -239 41l11 202c41 -13 91 -39 167 -39c121 0 171 56 171 204v104l-729 1069v-1101h-214v1446h207l736 -1078v1078h215l-1 -1547c0 -259 -78 -379 -324 -379z" />
    <glyph glyph-name="Ntilde" unicode="&#xd1;" horiz-adv-x="1523" 
d="M489 1624l-37 121c45 44 93 79 173 79c103 0 184 -57 273 -57c62 0 106 29 147 59l33 -135c-37 -29 -96 -62 -181 -62c-108 0 -169 53 -263 53c-66 0 -101 -24 -145 -58zM183 0v1446h207l736 -1078v1078h215v-1446h-192l-752 1101v-1101h-214z" />
    <glyph glyph-name="O" unicode="O" horiz-adv-x="1482" 
d="M744 -20c-394 0 -639 271 -639 740c0 471 249 746 639 746c388 0 634 -274 634 -746c0 -467 -243 -740 -634 -740zM744 163c252 0 399 169 399 554c0 393 -149 566 -399 566s-404 -175 -404 -566c0 -386 154 -554 404 -554z" />
    <glyph glyph-name="Oacute" unicode="&#xd3;" horiz-adv-x="1482" 
d="M655 1567l206 291h235l-280 -291h-161zM744 -20c-394 0 -639 271 -639 740c0 471 249 746 639 746c388 0 634 -274 634 -746c0 -467 -243 -740 -634 -740zM744 163c252 0 399 169 399 554c0 393 -149 566 -399 566s-404 -175 -404 -566c0 -386 154 -554 404 -554z" />
    <glyph glyph-name="Obreve" unicode="&#x14e;" horiz-adv-x="1482" 
d="M742 1565c-153 0 -283 78 -314 227h147c22 -64 82 -110 167 -110c84 0 148 46 171 110h147c-31 -145 -159 -227 -318 -227zM744 -20c-394 0 -639 271 -639 740c0 471 249 746 639 746c388 0 634 -274 634 -746c0 -467 -243 -740 -634 -740zM744 163
c252 0 399 169 399 554c0 393 -149 566 -399 566s-404 -175 -404 -566c0 -386 154 -554 404 -554z" />
    <glyph glyph-name="Ocircumflex" unicode="&#xd4;" horiz-adv-x="1482" 
d="M415 1567l254 234h152l249 -234h-189l-138 133l-150 -133h-178zM744 -20c-394 0 -639 271 -639 740c0 471 249 746 639 746c388 0 634 -274 634 -746c0 -467 -243 -740 -634 -740zM744 163c252 0 399 169 399 554c0 393 -149 566 -399 566s-404 -175 -404 -566
c0 -386 154 -554 404 -554z" />
    <glyph glyph-name="uni1ED0" unicode="&#x1ed0;" horiz-adv-x="1482" 
d="M939 1794l148 248h187l-207 -248h-128zM415 1567l254 234h152l249 -234h-189l-138 133l-150 -133h-178zM744 -20c-394 0 -639 271 -639 740c0 471 249 746 639 746c388 0 634 -274 634 -746c0 -467 -243 -740 -634 -740zM744 163c252 0 399 169 399 554
c0 393 -149 566 -399 566s-404 -175 -404 -566c0 -386 154 -554 404 -554z" />
    <glyph glyph-name="uni1ED8" unicode="&#x1ed8;" horiz-adv-x="1482" 
d="M415 1567l254 234h152l249 -234h-189l-138 133l-150 -133h-178zM744 -20c-394 0 -639 271 -639 740c0 471 249 746 639 746c388 0 634 -274 634 -746c0 -467 -243 -740 -634 -740zM744 163c252 0 399 169 399 554c0 393 -149 566 -399 566s-404 -175 -404 -566
c0 -386 154 -554 404 -554zM640 -369v194h212v-194h-212z" />
    <glyph glyph-name="uni1ED2" unicode="&#x1ed2;" horiz-adv-x="1482" 
d="M1034 1794l-215 248h187l159 -248h-131zM415 1567l254 234h152l249 -234h-189l-138 133l-150 -133h-178zM744 -20c-394 0 -639 271 -639 740c0 471 249 746 639 746c388 0 634 -274 634 -746c0 -467 -243 -740 -634 -740zM744 163c252 0 399 169 399 554
c0 393 -149 566 -399 566s-404 -175 -404 -566c0 -386 154 -554 404 -554z" />
    <glyph glyph-name="uni1ED4" unicode="&#x1ed4;" horiz-adv-x="1482" 
d="M997 1748l-58 91c56 35 82 86 54 131c-27 43 -89 41 -142 6l-58 90c115 74 238 54 295 -33c68 -104 32 -210 -91 -285zM420 1567l254 234h152l249 -234h-189l-138 133l-150 -133h-178zM744 -20c-394 0 -639 271 -639 740c0 471 249 746 639 746c388 0 634 -274 634 -746
c0 -467 -243 -740 -634 -740zM744 163c252 0 399 169 399 554c0 393 -149 566 -399 566s-404 -175 -404 -566c0 -386 154 -554 404 -554z" />
    <glyph glyph-name="uni1ED6" unicode="&#x1ed6;" horiz-adv-x="1482" 
d="M468 1905l-37 121c46 44 93 80 174 80c102 0 183 -58 272 -58c62 0 106 29 147 60l33 -136c-36 -28 -95 -61 -180 -61c-109 0 -170 53 -264 53c-65 0 -101 -25 -145 -59zM416 1567l255 234h152l248 -234h-189l-137 133l-150 -133h-179zM744 -20c-394 0 -639 271 -639 740
c0 471 249 746 639 746c388 0 634 -274 634 -746c0 -467 -243 -740 -634 -740zM744 163c252 0 399 169 399 554c0 393 -149 566 -399 566s-404 -175 -404 -566c0 -386 154 -554 404 -554z" />
    <glyph glyph-name="uni020C" unicode="&#x20c;" horiz-adv-x="1482" 
d="M512 1567l-297 291h219l239 -291h-161zM811 1567l-250 291h213l198 -291h-161zM744 -20c-394 0 -639 271 -639 740c0 471 249 746 639 746c388 0 634 -274 634 -746c0 -467 -243 -740 -634 -740zM744 163c252 0 399 169 399 554c0 393 -149 566 -399 566
s-404 -175 -404 -566c0 -386 154 -554 404 -554z" />
    <glyph glyph-name="Odieresis" unicode="&#xd6;" horiz-adv-x="1482" 
d="M845 1663l2 195h206l-2 -195h-206zM435 1663l2 195h206l-2 -195h-206zM744 -20c-394 0 -639 271 -639 740c0 471 249 746 639 746c388 0 634 -274 634 -746c0 -467 -243 -740 -634 -740zM744 163c252 0 399 169 399 554c0 393 -149 566 -399 566s-404 -175 -404 -566
c0 -386 154 -554 404 -554z" />
    <glyph glyph-name="uni1ECC" unicode="&#x1ecc;" horiz-adv-x="1482" 
d="M744 -20c-394 0 -639 271 -639 740c0 471 249 746 639 746c388 0 634 -274 634 -746c0 -467 -243 -740 -634 -740zM744 163c252 0 399 169 399 554c0 393 -149 566 -399 566s-404 -175 -404 -566c0 -386 154 -554 404 -554zM640 -369v194h212v-194h-212z" />
    <glyph glyph-name="Ograve" unicode="&#xd2;" horiz-adv-x="1482" 
d="M666 1567l-280 291h235l206 -291h-161zM744 -20c-394 0 -639 271 -639 740c0 471 249 746 639 746c388 0 634 -274 634 -746c0 -467 -243 -740 -634 -740zM744 163c252 0 399 169 399 554c0 393 -149 566 -399 566s-404 -175 -404 -566c0 -386 154 -554 404 -554z" />
    <glyph glyph-name="uni1ECE" unicode="&#x1ece;" horiz-adv-x="1482" 
d="M810 1564l-59 91c56 35 82 86 54 131c-26 43 -89 41 -141 6l-58 90c115 74 237 54 294 -33c69 -104 33 -210 -90 -285zM744 -20c-394 0 -639 271 -639 740c0 471 249 746 639 746c388 0 634 -274 634 -746c0 -467 -243 -740 -634 -740zM744 163c252 0 399 169 399 554
c0 393 -149 566 -399 566s-404 -175 -404 -566c0 -386 154 -554 404 -554z" />
    <glyph glyph-name="Ohorn" unicode="&#x1a0;" horiz-adv-x="1598" 
d="M744 -20c-394 0 -639 271 -639 740c0 471 249 746 639 746c191 0 346 -66 456 -189c112 3 152 25 163 203h160c-1 -213 -64 -315 -240 -324c61 -113 95 -260 95 -436c0 -467 -243 -740 -634 -740zM744 163c252 0 399 169 399 554c0 393 -149 566 -399 566
s-404 -175 -404 -566c0 -386 154 -554 404 -554z" />
    <glyph glyph-name="uni1EDA" unicode="&#x1eda;" horiz-adv-x="1598" 
d="M655 1567l206 291h235l-280 -291h-161zM744 -20c-394 0 -639 271 -639 740c0 471 249 746 639 746c191 0 346 -66 456 -189c112 3 152 25 163 203h160c-1 -213 -64 -315 -240 -324c61 -113 95 -260 95 -436c0 -467 -243 -740 -634 -740zM744 163c252 0 399 169 399 554
c0 393 -149 566 -399 566s-404 -175 -404 -566c0 -386 154 -554 404 -554z" />
    <glyph glyph-name="uni1EE2" unicode="&#x1ee2;" horiz-adv-x="1598" 
d="M744 -20c-394 0 -639 271 -639 740c0 471 249 746 639 746c191 0 346 -66 456 -189c112 3 152 25 163 203h160c-1 -213 -64 -315 -240 -324c61 -113 95 -260 95 -436c0 -467 -243 -740 -634 -740zM744 163c252 0 399 169 399 554c0 393 -149 566 -399 566
s-404 -175 -404 -566c0 -386 154 -554 404 -554zM640 -369v194h212v-194h-212z" />
    <glyph glyph-name="uni1EDC" unicode="&#x1edc;" horiz-adv-x="1598" 
d="M666 1567l-280 291h235l206 -291h-161zM744 -20c-394 0 -639 271 -639 740c0 471 249 746 639 746c191 0 346 -66 456 -189c112 3 152 25 163 203h160c-1 -213 -64 -315 -240 -324c61 -113 95 -260 95 -436c0 -467 -243 -740 -634 -740zM744 163c252 0 399 169 399 554
c0 393 -149 566 -399 566s-404 -175 -404 -566c0 -386 154 -554 404 -554z" />
    <glyph glyph-name="uni1EDE" unicode="&#x1ede;" horiz-adv-x="1598" 
d="M810 1564l-59 91c56 35 82 86 54 131c-26 43 -89 41 -141 6l-58 90c115 74 237 54 294 -33c69 -104 33 -210 -90 -285zM744 -20c-394 0 -639 271 -639 740c0 471 249 746 639 746c191 0 346 -66 456 -189c112 3 152 25 163 203h160c-1 -213 -64 -315 -240 -324
c61 -113 95 -260 95 -436c0 -467 -243 -740 -634 -740zM744 163c252 0 399 169 399 554c0 393 -149 566 -399 566s-404 -175 -404 -566c0 -386 154 -554 404 -554z" />
    <glyph glyph-name="uni1EE0" unicode="&#x1ee0;" horiz-adv-x="1598" 
d="M472 1624l-37 121c45 44 92 79 173 79c102 0 183 -57 272 -57c62 0 107 29 147 59l34 -135c-37 -29 -96 -62 -181 -62c-108 0 -169 53 -263 53c-66 0 -101 -24 -145 -58zM744 -20c-394 0 -639 271 -639 740c0 471 249 746 639 746c191 0 346 -66 456 -189
c112 3 152 25 163 203h160c-1 -213 -64 -315 -240 -324c61 -113 95 -260 95 -436c0 -467 -243 -740 -634 -740zM744 163c252 0 399 169 399 554c0 393 -149 566 -399 566s-404 -175 -404 -566c0 -386 154 -554 404 -554z" />
    <glyph glyph-name="Ohungarumlaut" unicode="&#x150;" horiz-adv-x="1482" 
d="M817 1567l239 291h219l-297 -291h-161zM517 1567l198 291h213l-249 -291h-162zM744 -20c-394 0 -639 271 -639 740c0 471 249 746 639 746c388 0 634 -274 634 -746c0 -467 -243 -740 -634 -740zM744 163c252 0 399 169 399 554c0 393 -149 566 -399 566
s-404 -175 -404 -566c0 -386 154 -554 404 -554z" />
    <glyph glyph-name="uni020E" unicode="&#x20e;" horiz-adv-x="1482" 
d="M424 1612c32 149 162 227 315 227c158 0 286 -82 317 -227h-146c-23 64 -87 110 -171 110c-85 0 -145 -46 -167 -110h-148zM744 -20c-394 0 -639 271 -639 740c0 471 249 746 639 746c388 0 634 -274 634 -746c0 -467 -243 -740 -634 -740zM744 163
c252 0 399 169 399 554c0 393 -149 566 -399 566s-404 -175 -404 -566c0 -386 154 -554 404 -554z" />
    <glyph glyph-name="Omacron" unicode="&#x14c;" horiz-adv-x="1482" 
d="M431 1639v146h625v-146h-625zM744 -20c-394 0 -639 271 -639 740c0 471 249 746 639 746c388 0 634 -274 634 -746c0 -467 -243 -740 -634 -740zM744 163c252 0 399 169 399 554c0 393 -149 566 -399 566s-404 -175 -404 -566c0 -386 154 -554 404 -554z" />
    <glyph glyph-name="uni01EA" unicode="&#x1ea;" horiz-adv-x="1482" 
d="M774 -337c-132 0 -203 60 -203 160c0 62 27 114 118 159c-361 24 -584 292 -584 738c0 471 249 746 639 746c388 0 634 -274 634 -746c0 -395 -175 -652 -465 -721c-128 -52 -177 -94 -177 -154c0 -47 26 -71 87 -71c63 0 113 21 144 39v-107c-35 -20 -111 -43 -193 -43z
M744 163c252 0 399 169 399 554c0 393 -149 566 -399 566s-404 -175 -404 -566c0 -386 154 -554 404 -554z" />
    <glyph glyph-name="Oslash" unicode="&#xd8;" horiz-adv-x="1515" 
d="M160 -27l-107 107l169 183c-69 117 -106 270 -106 455c0 472 247 748 638 748c180 0 327 -58 435 -168l162 173l107 -105l-175 -190c69 -118 106 -272 106 -456c0 -467 -244 -740 -636 -740c-180 0 -328 57 -433 162zM415 457l623 688c-63 97 -156 143 -284 143
c-235 0 -360 -159 -373 -492c-5 -125 7 -237 34 -339zM755 160c231 0 352 148 365 465c7 128 -4 245 -31 357l-621 -687c64 -91 158 -135 287 -135z" />
    <glyph glyph-name="Oslashacute" unicode="&#x1fe;" horiz-adv-x="1515" 
d="M664 1567l206 291h235l-280 -291h-161zM160 -27l-107 107l169 183c-69 117 -106 270 -106 455c0 472 247 748 638 748c180 0 327 -58 435 -168l162 173l107 -105l-175 -190c69 -118 106 -272 106 -456c0 -467 -244 -740 -636 -740c-180 0 -328 57 -433 162zM415 457
l623 688c-63 97 -156 143 -284 143c-235 0 -360 -159 -373 -492c-5 -125 7 -237 34 -339zM755 160c231 0 352 148 365 465c7 128 -4 245 -31 357l-621 -687c64 -91 158 -135 287 -135z" />
    <glyph glyph-name="Otilde" unicode="&#xd5;" horiz-adv-x="1482" 
d="M472 1624l-37 121c45 44 92 79 173 79c102 0 183 -57 272 -57c62 0 107 29 147 59l34 -135c-37 -29 -96 -62 -181 -62c-108 0 -169 53 -263 53c-66 0 -101 -24 -145 -58zM744 -20c-394 0 -639 271 -639 740c0 471 249 746 639 746c388 0 634 -274 634 -746
c0 -467 -243 -740 -634 -740zM744 163c252 0 399 169 399 554c0 393 -149 566 -399 566s-404 -175 -404 -566c0 -386 154 -554 404 -554z" />
    <glyph glyph-name="OE" unicode="&#x152;" horiz-adv-x="2241" 
d="M1389 638v-449l736 -1v-188h-950v200c-93 -144 -241 -220 -431 -220c-394 0 -639 271 -639 740c0 471 249 746 639 746c189 0 338 -76 431 -221v201h934l-1 -186h-718v-439h641v-183h-642zM744 163c252 0 399 169 399 554c0 393 -149 566 -399 566s-404 -175 -404 -566
c0 -386 154 -554 404 -554z" />
    <glyph glyph-name="P" unicode="P" horiz-adv-x="1282" 
d="M183 0v1446h501c311 0 541 -161 541 -462c0 -288 -207 -454 -512 -454h-312v-530h-218zM400 705h307c184 0 312 115 312 291c0 179 -133 277 -320 277h-299v-568z" />
    <glyph glyph-name="Thorn" unicode="&#xde;" horiz-adv-x="1318" 
d="M183 0v1446h218v-291h318c317 0 541 -131 541 -409c0 -290 -224 -426 -534 -426h-325v-320h-218zM401 503h317c189 0 319 64 319 243c0 167 -130 226 -327 226h-309v-469z" />
    <glyph glyph-name="Q" unicode="Q" horiz-adv-x="1509" 
d="M1368 -243c-155 0 -324 34 -456 240c-67 -12 -116 -17 -169 -17c-390 0 -638 265 -638 740c0 473 247 746 638 746c390 0 635 -273 635 -746c0 -289 -83 -500 -270 -630c44 -101 146 -152 260 -155v-178zM743 163c255 0 402 167 402 555c0 385 -146 565 -402 565
c-257 0 -402 -180 -402 -567c0 -386 147 -553 402 -553z" />
    <glyph glyph-name="R" unicode="R" horiz-adv-x="1363" 
d="M183 0v1446h574c322 0 477 -157 477 -405c0 -233 -136 -343 -273 -399l280 -642h-225l-256 605h-363v-605h-214zM397 778h302c200 0 317 89 317 253c0 160 -108 244 -280 244h-339v-497z" />
    <glyph glyph-name="Racute" unicode="&#x154;" horiz-adv-x="1363" 
d="M576 1567l206 291h235l-280 -291h-161zM183 0v1446h574c322 0 477 -157 477 -405c0 -233 -136 -343 -273 -399l280 -642h-225l-256 605h-363v-605h-214zM397 778h302c200 0 317 89 317 253c0 160 -108 244 -280 244h-339v-497z" />
    <glyph glyph-name="Rcaron" unicode="&#x158;" horiz-adv-x="1363" 
d="M589 1567l-255 235h180l150 -139l137 139h189l-248 -235h-153zM183 0v1446h574c322 0 477 -157 477 -405c0 -233 -136 -343 -273 -399l280 -642h-225l-256 605h-363v-605h-214zM397 778h302c200 0 317 89 317 253c0 160 -108 244 -280 244h-339v-497z" />
    <glyph glyph-name="uni0156" unicode="&#x156;" horiz-adv-x="1363" 
d="M183 0v1446h574c322 0 477 -157 477 -405c0 -233 -136 -343 -273 -399l280 -642h-225l-256 605h-363v-605h-214zM397 778h302c200 0 317 89 317 253c0 160 -108 244 -280 244h-339v-497zM564 -397l84 131l-67 7v163h204v-137l-137 -164h-84z" />
    <glyph glyph-name="uni0210" unicode="&#x210;" horiz-adv-x="1363" 
d="M432 1567l-296 291h218l240 -291h-162zM731 1567l-249 291h213l198 -291h-162zM183 0v1446h574c322 0 477 -157 477 -405c0 -233 -136 -343 -273 -399l280 -642h-225l-256 605h-363v-605h-214zM397 778h302c200 0 317 89 317 253c0 160 -108 244 -280 244h-339v-497z" />
    <glyph glyph-name="uni1E5A" unicode="&#x1e5a;" horiz-adv-x="1363" 
d="M183 0v1446h574c322 0 477 -157 477 -405c0 -233 -136 -343 -273 -399l280 -642h-225l-256 605h-363v-605h-214zM397 778h302c200 0 317 89 317 253c0 160 -108 244 -280 244h-339v-497zM576 -369v194h212v-194h-212z" />
    <glyph glyph-name="uni0212" unicode="&#x212;" horiz-adv-x="1363" 
d="M345 1612c32 149 162 227 315 227c158 0 286 -82 317 -227h-147c-23 64 -86 110 -170 110c-86 0 -145 -46 -167 -110h-148zM183 0v1446h574c322 0 477 -157 477 -405c0 -233 -136 -343 -273 -399l280 -642h-225l-256 605h-363v-605h-214zM397 778h302
c200 0 317 89 317 253c0 160 -108 244 -280 244h-339v-497z" />
    <glyph glyph-name="S" unicode="S" horiz-adv-x="1352" 
d="M687 -20c-283 0 -540 139 -576 412h223c34 -155 178 -238 364 -238c171 0 322 82 322 230c0 111 -74 170 -222 209l-290 72c-212 49 -353 159 -353 384c0 252 227 415 529 415c345 0 532 -198 534 -424h-218c-18 184 -157 249 -323 249c-198 0 -297 -101 -297 -221
c0 -111 72 -170 216 -205l280 -69c263 -59 361 -208 361 -391c0 -247 -221 -423 -550 -423z" />
    <glyph glyph-name="Sacute" unicode="&#x15a;" horiz-adv-x="1352" 
d="M585 1567l206 291h235l-280 -291h-161zM687 -20c-283 0 -540 139 -576 412h223c34 -155 178 -238 364 -238c171 0 322 82 322 230c0 111 -74 170 -222 209l-290 72c-212 49 -353 159 -353 384c0 252 227 415 529 415c345 0 532 -198 534 -424h-218
c-18 184 -157 249 -323 249c-198 0 -297 -101 -297 -221c0 -111 72 -170 216 -205l280 -69c263 -59 361 -208 361 -391c0 -247 -221 -423 -550 -423z" />
    <glyph glyph-name="Scaron" unicode="&#x160;" horiz-adv-x="1352" 
d="M598 1567l-254 235h179l150 -139l138 139h189l-249 -235h-153zM687 -20c-283 0 -540 139 -576 412h223c34 -155 178 -238 364 -238c171 0 322 82 322 230c0 111 -74 170 -222 209l-290 72c-212 49 -353 159 -353 384c0 252 227 415 529 415c345 0 532 -198 534 -424h-218
c-18 184 -157 249 -323 249c-198 0 -297 -101 -297 -221c0 -111 72 -170 216 -205l280 -69c263 -59 361 -208 361 -391c0 -247 -221 -423 -550 -423z" />
    <glyph glyph-name="Scedilla" unicode="&#x15e;" horiz-adv-x="1352" 
d="M642 -415c-75 0 -143 14 -201 51l33 83c37 -26 83 -48 142 -48c70 0 106 26 106 70c0 56 -47 84 -163 87c-14 0 -18 3 -13 15l62 141c-250 24 -465 161 -497 408h223c34 -155 178 -238 364 -238c171 0 322 82 322 230c0 111 -74 170 -222 209l-290 72
c-212 49 -353 159 -353 384c0 252 227 415 529 415c345 0 532 -198 534 -424h-218c-18 184 -157 249 -323 249c-198 0 -297 -101 -297 -221c0 -111 72 -170 216 -205l280 -69c263 -59 361 -208 361 -391c0 -240 -209 -413 -523 -423l-35 -90c140 -5 186 -82 186 -149
c0 -101 -103 -156 -223 -156z" />
    <glyph glyph-name="Scircumflex" unicode="&#x15c;" horiz-adv-x="1352" 
d="M345 1567l254 234h152l249 -234h-189l-138 133l-150 -133h-178zM687 -20c-283 0 -540 139 -576 412h223c34 -155 178 -238 364 -238c171 0 322 82 322 230c0 111 -74 170 -222 209l-290 72c-212 49 -353 159 -353 384c0 252 227 415 529 415c345 0 532 -198 534 -424
h-218c-18 184 -157 249 -323 249c-198 0 -297 -101 -297 -221c0 -111 72 -170 216 -205l280 -69c263 -59 361 -208 361 -391c0 -247 -221 -423 -550 -423z" />
    <glyph glyph-name="uni0218" unicode="&#x218;" horiz-adv-x="1352" 
d="M687 -20c-283 0 -540 139 -576 412h223c34 -155 178 -238 364 -238c171 0 322 82 322 230c0 111 -74 170 -222 209l-290 72c-212 49 -353 159 -353 384c0 252 227 415 529 415c345 0 532 -198 534 -424h-218c-18 184 -157 249 -323 249c-198 0 -297 -101 -297 -221
c0 -111 72 -170 216 -205l280 -69c263 -59 361 -208 361 -391c0 -247 -221 -423 -550 -423zM549 -397l84 131l-67 7v163h204v-137l-137 -164h-84z" />
    <glyph glyph-name="uni1E62" unicode="&#x1e62;" horiz-adv-x="1352" 
d="M687 -20c-283 0 -540 139 -576 412h223c34 -155 178 -238 364 -238c171 0 322 82 322 230c0 111 -74 170 -222 209l-290 72c-212 49 -353 159 -353 384c0 252 227 415 529 415c345 0 532 -198 534 -424h-218c-18 184 -157 249 -323 249c-198 0 -297 -101 -297 -221
c0 -111 72 -170 216 -205l280 -69c263 -59 361 -208 361 -391c0 -247 -221 -423 -550 -423zM561 -369v194h212v-194h-212z" />
    <glyph glyph-name="uni018F" unicode="&#x18f;" horiz-adv-x="1480" 
d="M740 -20c-380 0 -634 251 -634 800h1015c0 306 -136 482 -385 482c-248 0 -387 -173 -387 -307h-244c0 224 244 511 635 511c397 0 635 -271 635 -736c0 -500 -254 -750 -635 -750zM740 173c250 0 376 187 380 441l-753 1c0 -256 130 -442 373 -442z" />
    <glyph glyph-name="T" unicode="T" horiz-adv-x="1199" 
d="M502 0v1251h-458v195h1111v-195h-437v-1251h-216z" />
    <glyph glyph-name="Tbar" unicode="&#x166;" horiz-adv-x="1199" 
d="M502 0v635h-291v166h291v450h-458v195h1111v-195h-437v-450h269v-166h-269v-635h-216z" />
    <glyph glyph-name="Tcaron" unicode="&#x164;" horiz-adv-x="1199" 
d="M544 1567l-255 235h180l150 -139l137 139h189l-248 -235h-153zM502 0v1251h-458v195h1111v-195h-437v-1251h-216z" />
    <glyph glyph-name="uni0162" unicode="&#x162;" horiz-adv-x="1199" 
d="M502 0v1251h-458v195h1111v-195h-437v-1251h-44l-42 -107c140 -6 186 -82 186 -150c0 -100 -103 -156 -223 -156c-75 0 -143 14 -201 51l33 83c37 -26 83 -47 142 -47c70 0 106 25 106 70c0 56 -46 84 -162 86c-15 0 -19 3 -14 15l68 155h-65z" />
    <glyph glyph-name="uni021A" unicode="&#x21a;" horiz-adv-x="1199" 
d="M502 0v1251h-458v195h1111v-195h-437v-1251h-216zM502 -394l85 131l-68 6v163h204v-136l-137 -164h-84z" />
    <glyph glyph-name="uni1E6C" unicode="&#x1e6c;" horiz-adv-x="1199" 
d="M502 0v1251h-458v195h1111v-195h-437v-1251h-216zM514 -367v195h212v-195h-212z" />
    <glyph glyph-name="U" unicode="U" horiz-adv-x="1414" 
d="M725 -20c-389 0 -542 198 -542 551v915h221v-942c0 -229 118 -339 321 -339s326 108 326 339v942h217v-932c0 -338 -158 -534 -543 -534z" />
    <glyph glyph-name="Uacute" unicode="&#xda;" horiz-adv-x="1414" 
d="M638 1567l206 291h235l-280 -291h-161zM725 -20c-389 0 -542 198 -542 551v915h221v-942c0 -229 118 -339 321 -339s326 108 326 339v942h217v-932c0 -338 -158 -534 -543 -534z" />
    <glyph glyph-name="Ubreve" unicode="&#x16c;" horiz-adv-x="1414" 
d="M725 1565c-153 0 -283 78 -314 227h147c22 -64 82 -110 167 -110c84 0 148 46 171 110h147c-31 -145 -159 -227 -318 -227zM725 -20c-389 0 -542 198 -542 551v915h221v-942c0 -229 118 -339 321 -339s326 108 326 339v942h217v-932c0 -338 -158 -534 -543 -534z" />
    <glyph glyph-name="Ucircumflex" unicode="&#xdb;" horiz-adv-x="1414" 
d="M398 1567l254 234h152l249 -234h-189l-138 133l-150 -133h-178zM725 -20c-389 0 -542 198 -542 551v915h221v-942c0 -229 118 -339 321 -339s326 108 326 339v942h217v-932c0 -338 -158 -534 -543 -534z" />
    <glyph glyph-name="uni0214" unicode="&#x214;" horiz-adv-x="1414" 
d="M495 1567l-297 291h219l239 -291h-161zM794 1567l-250 291h213l198 -291h-161zM725 -20c-389 0 -542 198 -542 551v915h221v-942c0 -229 118 -339 321 -339s326 108 326 339v942h217v-932c0 -338 -158 -534 -543 -534z" />
    <glyph glyph-name="Udieresis" unicode="&#xdc;" horiz-adv-x="1414" 
d="M828 1663l2 195h206l-2 -195h-206zM418 1663l2 195h206l-2 -195h-206zM725 -20c-389 0 -542 198 -542 551v915h221v-942c0 -229 118 -339 321 -339s326 108 326 339v942h217v-932c0 -338 -158 -534 -543 -534z" />
    <glyph glyph-name="uni1EE4" unicode="&#x1ee4;" horiz-adv-x="1414" 
d="M725 -20c-389 0 -542 198 -542 551v915h221v-942c0 -229 118 -339 321 -339s326 108 326 339v942h217v-932c0 -338 -158 -534 -543 -534zM618 -367v195h212v-195h-212z" />
    <glyph glyph-name="Ugrave" unicode="&#xd9;" horiz-adv-x="1414" 
d="M649 1567l-280 291h235l206 -291h-161zM725 -20c-389 0 -542 198 -542 551v915h221v-942c0 -229 118 -339 321 -339s326 108 326 339v942h217v-932c0 -338 -158 -534 -543 -534z" />
    <glyph glyph-name="uni1EE6" unicode="&#x1ee6;" horiz-adv-x="1414" 
d="M793 1564l-59 91c56 35 82 86 54 131c-26 43 -89 41 -141 6l-58 90c115 74 237 54 294 -33c69 -104 33 -210 -90 -285zM725 -20c-389 0 -542 198 -542 551v915h221v-942c0 -229 118 -339 321 -339s326 108 326 339v942h217v-932c0 -338 -158 -534 -543 -534z" />
    <glyph glyph-name="Uhorn" unicode="&#x1af;" horiz-adv-x="1648" 
d="M725 -20c-389 0 -542 198 -542 551v915h221v-942c0 -229 118 -339 321 -339s326 108 326 339v942h217v-169c90 4 125 43 134 203h160c-2 -234 -77 -334 -294 -323v-643c0 -338 -158 -534 -543 -534z" />
    <glyph glyph-name="uni1EE8" unicode="&#x1ee8;" horiz-adv-x="1648" 
d="M638 1567l206 291h235l-280 -291h-161zM725 -20c-389 0 -542 198 -542 551v915h221v-942c0 -229 118 -339 321 -339s326 108 326 339v942h217v-169c90 4 125 43 134 203h160c-2 -234 -77 -334 -294 -323v-643c0 -338 -158 -534 -543 -534z" />
    <glyph glyph-name="uni1EF0" unicode="&#x1ef0;" horiz-adv-x="1648" 
d="M725 -20c-389 0 -542 198 -542 551v915h221v-942c0 -229 118 -339 321 -339s326 108 326 339v942h217v-169c90 4 125 43 134 203h160c-2 -234 -77 -334 -294 -323v-643c0 -338 -158 -534 -543 -534zM618 -367v195h212v-195h-212z" />
    <glyph glyph-name="uni1EEA" unicode="&#x1eea;" horiz-adv-x="1648" 
d="M649 1567l-280 291h235l206 -291h-161zM725 -20c-389 0 -542 198 -542 551v915h221v-942c0 -229 118 -339 321 -339s326 108 326 339v942h217v-169c90 4 125 43 134 203h160c-2 -234 -77 -334 -294 -323v-643c0 -338 -158 -534 -543 -534z" />
    <glyph glyph-name="uni1EEC" unicode="&#x1eec;" horiz-adv-x="1648" 
d="M793 1564l-59 91c56 35 82 86 54 131c-26 43 -89 41 -141 6l-58 90c115 74 237 54 294 -33c69 -104 33 -210 -90 -285zM725 -20c-389 0 -542 198 -542 551v915h221v-942c0 -229 118 -339 321 -339s326 108 326 339v942h217v-169c90 4 125 43 134 203h160
c-2 -234 -77 -334 -294 -323v-643c0 -338 -158 -534 -543 -534z" />
    <glyph glyph-name="uni1EEE" unicode="&#x1eee;" horiz-adv-x="1643" 
d="M455 1624l-37 121c45 44 92 79 173 79c102 0 183 -57 272 -57c62 0 107 29 147 59l34 -135c-37 -29 -96 -62 -181 -62c-108 0 -169 53 -263 53c-66 0 -101 -24 -145 -58zM725 -20c-389 0 -542 198 -542 551v915h221v-942c0 -229 118 -339 321 -339s326 108 326 339v942
h217v-169c90 4 125 43 134 203h160c-2 -234 -77 -334 -294 -323v-643c0 -338 -158 -534 -543 -534z" />
    <glyph glyph-name="Uhungarumlaut" unicode="&#x170;" horiz-adv-x="1414" 
d="M800 1567l239 291h219l-297 -291h-161zM500 1567l198 291h213l-249 -291h-162zM725 -20c-389 0 -542 198 -542 551v915h221v-942c0 -229 118 -339 321 -339s326 108 326 339v942h217v-932c0 -338 -158 -534 -543 -534z" />
    <glyph glyph-name="uni0216" unicode="&#x216;" horiz-adv-x="1414" 
d="M407 1612c32 149 162 227 315 227c158 0 286 -82 317 -227h-146c-23 64 -87 110 -171 110c-85 0 -145 -46 -167 -110h-148zM725 -20c-389 0 -542 198 -542 551v915h221v-942c0 -229 118 -339 321 -339s326 108 326 339v942h217v-932c0 -338 -158 -534 -543 -534z" />
    <glyph glyph-name="Umacron" unicode="&#x16a;" horiz-adv-x="1414" 
d="M414 1639v146h625v-146h-625zM725 -20c-389 0 -542 198 -542 551v915h221v-942c0 -229 118 -339 321 -339s326 108 326 339v942h217v-932c0 -338 -158 -534 -543 -534z" />
    <glyph glyph-name="Uogonek" unicode="&#x172;" horiz-adv-x="1414" 
d="M746 -335c-132 0 -203 60 -203 160c0 61 26 113 115 157c-339 22 -475 217 -475 549v915h221v-942c0 -229 118 -339 321 -339s326 108 326 339v942h217v-932c0 -296 -122 -484 -411 -525c-107 -47 -149 -87 -149 -143c0 -47 26 -70 87 -70c63 0 113 21 144 39v-107
c-35 -20 -111 -43 -193 -43z" />
    <glyph glyph-name="Uring" unicode="&#x16e;" horiz-adv-x="1414" 
d="M727 1560c-117 0 -209 93 -209 213c0 112 94 202 209 202c117 0 210 -91 210 -206c0 -118 -93 -209 -210 -209zM725 1661c59 0 104 51 104 107c0 61 -45 105 -104 105c-57 0 -106 -44 -106 -105c0 -56 49 -107 106 -107zM725 -20c-389 0 -542 198 -542 551v915h221v-942
c0 -229 118 -339 321 -339s326 108 326 339v942h217v-932c0 -338 -158 -534 -543 -534z" />
    <glyph glyph-name="Utilde" unicode="&#x168;" horiz-adv-x="1414" 
d="M455 1624l-37 121c45 44 92 79 173 79c102 0 183 -57 272 -57c62 0 107 29 147 59l34 -135c-37 -29 -96 -62 -181 -62c-108 0 -169 53 -263 53c-66 0 -101 -24 -145 -58zM725 -20c-389 0 -542 198 -542 551v915h221v-942c0 -229 118 -339 321 -339s326 108 326 339v942
h217v-932c0 -338 -158 -534 -543 -534z" />
    <glyph glyph-name="V" unicode="V" horiz-adv-x="1362" 
d="M555 0l-511 1446h209l428 -1201l427 1201h210l-511 -1446h-252z" />
    <glyph glyph-name="W" unicode="W" horiz-adv-x="1915" 
d="M463 0l-419 1446h214l306 -1098l310 1098h164l310 -1098l310 1098h213l-423 -1446h-188l-305 1073l-309 -1073h-183z" />
    <glyph glyph-name="Wacute" unicode="&#x1e82;" horiz-adv-x="1915" 
d="M867 1567l206 291h235l-280 -291h-161zM463 0l-419 1446h214l306 -1098l310 1098h164l310 -1098l310 1098h213l-423 -1446h-188l-305 1073l-309 -1073h-183z" />
    <glyph glyph-name="Wcircumflex" unicode="&#x174;" horiz-adv-x="1915" 
d="M627 1567l255 234h151l249 -234h-189l-138 133l-150 -133h-178zM463 0l-419 1446h214l306 -1098l310 1098h164l310 -1098l310 1098h213l-423 -1446h-188l-305 1073l-309 -1073h-183z" />
    <glyph glyph-name="Wdieresis" unicode="&#x1e84;" horiz-adv-x="1915" 
d="M1057 1663l2 195h206l-2 -195h-206zM647 1663l2 195h206l-2 -195h-206zM463 0l-419 1446h214l306 -1098l310 1098h164l310 -1098l310 1098h213l-423 -1446h-188l-305 1073l-309 -1073h-183z" />
    <glyph glyph-name="Wgrave" unicode="&#x1e80;" horiz-adv-x="1915" 
d="M878 1567l-280 291h235l206 -291h-161zM463 0l-419 1446h214l306 -1098l310 1098h164l310 -1098l310 1098h213l-423 -1446h-188l-305 1073l-309 -1073h-183z" />
    <glyph glyph-name="X" unicode="X" horiz-adv-x="1392" 
d="M75 0l488 737l-471 709h264l341 -529l338 529h232l-457 -685l507 -761h-266l-373 576l-368 -576h-235z" />
    <glyph glyph-name="Y" unicode="Y" horiz-adv-x="1247" 
d="M518 0v614l-496 832h234l370 -643l365 643h234l-493 -833v-613h-214z" />
    <glyph glyph-name="Yacute" unicode="&#xdd;" horiz-adv-x="1247" 
d="M557 1569l206 291h235l-280 -291h-161zM518 0v614l-496 832h234l370 -643l365 643h234l-493 -833v-613h-214z" />
    <glyph glyph-name="Ycircumflex" unicode="&#x176;" horiz-adv-x="1247" 
d="M316 1569l255 234h151l249 -234h-189l-137 133l-150 -133h-179zM518 0v614l-496 832h234l370 -643l365 643h234l-493 -833v-613h-214z" />
    <glyph glyph-name="Ydieresis" unicode="&#x178;" horiz-adv-x="1247" 
d="M747 1665l1 195h207l-2 -195h-206zM337 1665l1 195h207l-2 -195h-206zM518 0v614l-496 832h234l370 -643l365 643h234l-493 -833v-613h-214z" />
    <glyph glyph-name="uni1EF4" unicode="&#x1ef4;" horiz-adv-x="1247" 
d="M518 0v614l-496 832h234l370 -643l365 643h234l-493 -833v-613h-214zM520 -369v194h213v-194h-213z" />
    <glyph glyph-name="Ygrave" unicode="&#x1ef2;" horiz-adv-x="1247" 
d="M568 1569l-280 291h235l206 -291h-161zM518 0v614l-496 832h234l370 -643l365 643h234l-493 -833v-613h-214z" />
    <glyph glyph-name="uni1EF6" unicode="&#x1ef6;" horiz-adv-x="1247" 
d="M711 1566l-58 91c56 36 82 87 54 132c-27 42 -89 40 -141 6l-59 90c116 74 238 54 295 -33c68 -105 32 -211 -91 -286zM518 0v614l-496 832h234l370 -643l365 643h234l-493 -833v-613h-214z" />
    <glyph glyph-name="uni1EF8" unicode="&#x1ef8;" horiz-adv-x="1247" 
d="M373 1626l-37 121c45 44 93 80 173 80c103 0 184 -58 273 -58c62 0 106 29 147 60l33 -136c-37 -29 -96 -61 -181 -61c-108 0 -169 52 -263 52c-65 0 -101 -24 -145 -58zM518 0v614l-496 832h234l370 -643l365 643h234l-493 -833v-613h-214z" />
    <glyph glyph-name="Z" unicode="Z" horiz-adv-x="1292" 
d="M122 0v113l776 1149h-738v184h1040v-108l-784 -1152h779v-186h-1073z" />
    <glyph glyph-name="Zacute" unicode="&#x179;" horiz-adv-x="1292" 
d="M601 1567l206 291h235l-280 -291h-161zM122 0v113l776 1149h-738v184h1040v-108l-784 -1152h779v-186h-1073z" />
    <glyph glyph-name="Zcaron" unicode="&#x17d;" horiz-adv-x="1292" 
d="M614 1567l-255 235h180l150 -139l137 139h189l-249 -235h-152zM122 0v113l776 1149h-738v184h1040v-108l-784 -1152h779v-186h-1073z" />
    <glyph glyph-name="Zdotaccent" unicode="&#x17b;" horiz-adv-x="1292" 
d="M583 1663v195h212v-195h-212zM122 0v113l776 1149h-738v184h1040v-108l-784 -1152h779v-186h-1073z" />
    <glyph glyph-name="uni1E92" unicode="&#x1e92;" horiz-adv-x="1292" 
d="M122 0v113l776 1149h-738v184h1040v-108l-784 -1152h779v-186h-1073zM571 -369v194h213v-194h-213z" />
    <glyph glyph-name="a" unicode="a" horiz-adv-x="1113" 
d="M440 -20c-200 0 -343 112 -343 304c0 229 154 341 511 347l170 5v75c0 118 -69 191 -217 190c-109 -1 -205 -48 -232 -163h-185c11 207 174 316 427 316c282 0 413 -118 413 -331v-723h-182l-16 190c-78 -158 -199 -210 -346 -210zM507 129c130 0 270 104 271 212v171
l-140 -3c-213 -3 -335 -58 -335 -204c0 -111 85 -176 204 -176z" />
    <glyph glyph-name="aacute" unicode="&#xe1;" horiz-adv-x="1113" 
d="M484 1155l206 291h235l-280 -291h-161zM440 -20c-200 0 -343 112 -343 304c0 229 154 341 511 347l170 5v75c0 118 -69 191 -217 190c-109 -1 -205 -48 -232 -163h-185c11 207 174 316 427 316c282 0 413 -118 413 -331v-723h-182l-16 190c-78 -158 -199 -210 -346 -210z
M507 129c130 0 270 104 271 212v171l-140 -3c-213 -3 -335 -58 -335 -204c0 -111 85 -176 204 -176z" />
    <glyph glyph-name="abreve" unicode="&#x103;" horiz-adv-x="1113" 
d="M571 1153c-152 0 -283 78 -314 227h148c21 -64 81 -110 166 -110s148 46 171 110h147c-31 -145 -159 -227 -318 -227zM440 -20c-200 0 -343 112 -343 304c0 229 154 341 511 347l170 5v75c0 118 -69 191 -217 190c-109 -1 -205 -48 -232 -163h-185
c11 207 174 316 427 316c282 0 413 -118 413 -331v-723h-182l-16 190c-78 -158 -199 -210 -346 -210zM507 129c130 0 270 104 271 212v171l-140 -3c-213 -3 -335 -58 -335 -204c0 -111 85 -176 204 -176z" />
    <glyph glyph-name="uni1EAF" unicode="&#x1eaf;" horiz-adv-x="1113" 
d="M509 1417l147 248h187l-207 -248h-127zM575 1153c-153 0 -283 78 -315 227h148c22 -64 82 -110 167 -110c84 0 148 46 170 110h147c-31 -145 -159 -227 -317 -227zM440 -20c-200 0 -343 112 -343 304c0 229 154 341 511 347l170 5v75c0 118 -69 191 -217 190
c-109 -1 -205 -48 -232 -163h-185c11 207 174 316 427 316c282 0 413 -118 413 -331v-723h-182l-16 190c-78 -158 -199 -210 -346 -210zM507 129c130 0 270 104 271 212v171l-140 -3c-213 -3 -335 -58 -335 -204c0 -111 85 -176 204 -176z" />
    <glyph glyph-name="uni1EB7" unicode="&#x1eb7;" horiz-adv-x="1113" 
d="M571 1153c-152 0 -283 78 -314 227h148c21 -64 81 -110 166 -110s148 46 171 110h147c-31 -145 -159 -227 -318 -227zM440 -20c-200 0 -343 112 -343 304c0 229 154 341 511 347l170 5v75c0 118 -69 191 -217 190c-109 -1 -205 -48 -232 -163h-185
c11 207 174 316 427 316c282 0 413 -118 413 -331v-723h-182l-16 190c-78 -158 -199 -210 -346 -210zM507 129c130 0 270 104 271 212v171l-140 -3c-213 -3 -335 -58 -335 -204c0 -111 85 -176 204 -176zM464 -369v194h212v-194h-212z" />
    <glyph glyph-name="uni1EB1" unicode="&#x1eb1;" horiz-adv-x="1113" 
d="M523 1416l-215 248h188l158 -248h-131zM575 1153c-153 0 -283 78 -315 227h148c22 -64 82 -110 167 -110c84 0 148 46 170 110h147c-31 -145 -159 -227 -317 -227zM440 -20c-200 0 -343 112 -343 304c0 229 154 341 511 347l170 5v75c0 118 -69 191 -217 190
c-109 -1 -205 -48 -232 -163h-185c11 207 174 316 427 316c282 0 413 -118 413 -331v-723h-182l-16 190c-78 -158 -199 -210 -346 -210zM507 129c130 0 270 104 271 212v171l-140 -3c-213 -3 -335 -58 -335 -204c0 -111 85 -176 204 -176z" />
    <glyph glyph-name="uni1EB3" unicode="&#x1eb3;" horiz-adv-x="1113" 
d="M584 1370l-58 91c56 35 82 86 54 131c-26 43 -89 41 -141 6l-59 90c49 31 98 46 144 46c63 0 118 -28 151 -79c68 -104 32 -211 -91 -285zM575 1153c-153 0 -283 78 -315 227h148c22 -64 82 -110 167 -110c84 0 148 46 170 110h147c-31 -145 -159 -227 -317 -227z
M440 -20c-200 0 -343 112 -343 304c0 229 154 341 511 347l170 5v75c0 118 -69 191 -217 190c-109 -1 -205 -48 -232 -163h-185c11 207 174 316 427 316c282 0 413 -118 413 -331v-723h-182l-16 190c-78 -158 -199 -210 -346 -210zM507 129c130 0 270 104 271 212v171
l-140 -3c-213 -3 -335 -58 -335 -204c0 -111 85 -176 204 -176z" />
    <glyph glyph-name="uni1EB5" unicode="&#x1eb5;" horiz-adv-x="1113" 
d="M301 1491l-38 121c46 44 93 80 174 80c102 0 183 -58 272 -58c62 0 107 29 147 60l33 -136c-36 -29 -95 -61 -180 -61c-108 0 -169 52 -263 52c-66 0 -101 -24 -145 -58zM575 1153c-153 0 -283 78 -315 227h148c22 -64 82 -110 167 -110c84 0 148 46 170 110h147
c-31 -145 -159 -227 -317 -227zM440 -20c-200 0 -343 112 -343 304c0 229 154 341 511 347l170 5v75c0 118 -69 191 -217 190c-109 -1 -205 -48 -232 -163h-185c11 207 174 316 427 316c282 0 413 -118 413 -331v-723h-182l-16 190c-78 -158 -199 -210 -346 -210zM507 129
c130 0 270 104 271 212v171l-140 -3c-213 -3 -335 -58 -335 -204c0 -111 85 -176 204 -176z" />
    <glyph glyph-name="acircumflex" unicode="&#xe2;" horiz-adv-x="1113" 
d="M244 1155l254 234h152l249 -234h-189l-138 133l-150 -133h-178zM440 -20c-200 0 -343 112 -343 304c0 229 154 341 511 347l170 5v75c0 118 -69 191 -217 190c-109 -1 -205 -48 -232 -163h-185c11 207 174 316 427 316c282 0 413 -118 413 -331v-723h-182l-16 190
c-78 -158 -199 -210 -346 -210zM507 129c130 0 270 104 271 212v171l-140 -3c-213 -3 -335 -58 -335 -204c0 -111 85 -176 204 -176z" />
    <glyph glyph-name="uni1EA5" unicode="&#x1ea5;" horiz-adv-x="1113" 
d="M768 1382l148 248h187l-207 -248h-128zM244 1155l254 234h152l249 -234h-189l-138 133l-150 -133h-178zM440 -20c-200 0 -343 112 -343 304c0 229 154 341 511 347l170 5v75c0 118 -69 191 -217 190c-109 -1 -205 -48 -232 -163h-185c11 207 174 316 427 316
c282 0 413 -118 413 -331v-723h-182l-16 190c-78 -158 -199 -210 -346 -210zM507 129c130 0 270 104 271 212v171l-140 -3c-213 -3 -335 -58 -335 -204c0 -111 85 -176 204 -176z" />
    <glyph glyph-name="uni1EAD" unicode="&#x1ead;" horiz-adv-x="1113" 
d="M244 1155l254 234h152l249 -234h-189l-138 133l-150 -133h-178zM440 -20c-200 0 -343 112 -343 304c0 229 154 341 511 347l170 5v75c0 118 -69 191 -217 190c-109 -1 -205 -48 -232 -163h-185c11 207 174 316 427 316c282 0 413 -118 413 -331v-723h-182l-16 190
c-78 -158 -199 -210 -346 -210zM507 129c130 0 270 104 271 212v171l-140 -3c-213 -3 -335 -58 -335 -204c0 -111 85 -176 204 -176zM464 -369v194h212v-194h-212z" />
    <glyph glyph-name="uni1EA7" unicode="&#x1ea7;" horiz-adv-x="1113" 
d="M863 1382l-215 248h187l159 -248h-131zM244 1155l254 234h152l249 -234h-189l-138 133l-150 -133h-178zM440 -20c-200 0 -343 112 -343 304c0 229 154 341 511 347l170 5v75c0 118 -69 191 -217 190c-109 -1 -205 -48 -232 -163h-185c11 207 174 316 427 316
c282 0 413 -118 413 -331v-723h-182l-16 190c-78 -158 -199 -210 -346 -210zM507 129c130 0 270 104 271 212v171l-140 -3c-213 -3 -335 -58 -335 -204c0 -111 85 -176 204 -176z" />
    <glyph glyph-name="uni1EA9" unicode="&#x1ea9;" horiz-adv-x="1113" 
d="M826 1336l-58 91c56 35 82 86 54 131c-27 43 -89 41 -141 6l-59 90c116 74 238 54 295 -33c68 -104 32 -210 -91 -285zM249 1155l255 234h151l249 -234h-189l-138 133l-150 -133h-178zM440 -20c-200 0 -343 112 -343 304c0 229 154 341 511 347l170 5v75
c0 118 -69 191 -217 190c-109 -1 -205 -48 -232 -163h-185c11 207 174 316 427 316c282 0 413 -118 413 -331v-723h-182l-16 190c-78 -158 -199 -210 -346 -210zM507 129c130 0 270 104 271 212v171l-140 -3c-213 -3 -335 -58 -335 -204c0 -111 85 -176 204 -176z" />
    <glyph glyph-name="uni1EAB" unicode="&#x1eab;" horiz-adv-x="1113" 
d="M298 1493l-38 121c46 44 93 80 174 80c102 0 183 -58 272 -58c62 0 107 29 147 60l33 -136c-36 -28 -95 -61 -180 -61c-108 0 -169 53 -263 53c-66 0 -101 -25 -145 -59zM246 1155l254 234h152l249 -234h-190l-137 133l-150 -133h-178zM440 -20c-200 0 -343 112 -343 304
c0 229 154 341 511 347l170 5v75c0 118 -69 191 -217 190c-109 -1 -205 -48 -232 -163h-185c11 207 174 316 427 316c282 0 413 -118 413 -331v-723h-182l-16 190c-78 -158 -199 -210 -346 -210zM507 129c130 0 270 104 271 212v171l-140 -3c-213 -3 -335 -58 -335 -204
c0 -111 85 -176 204 -176z" />
    <glyph glyph-name="uni0201" unicode="&#x201;" horiz-adv-x="1113" 
d="M341 1155l-297 291h219l239 -291h-161zM640 1155l-250 291h213l198 -291h-161zM440 -20c-200 0 -343 112 -343 304c0 229 154 341 511 347l170 5v75c0 118 -69 191 -217 190c-109 -1 -205 -48 -232 -163h-185c11 207 174 316 427 316c282 0 413 -118 413 -331v-723h-182
l-16 190c-78 -158 -199 -210 -346 -210zM507 129c130 0 270 104 271 212v171l-140 -3c-213 -3 -335 -58 -335 -204c0 -111 85 -176 204 -176z" />
    <glyph glyph-name="adieresis" unicode="&#xe4;" horiz-adv-x="1113" 
d="M674 1251l2 195h206l-2 -195h-206zM264 1251l2 195h206l-2 -195h-206zM440 -20c-200 0 -343 112 -343 304c0 229 154 341 511 347l170 5v75c0 118 -69 191 -217 190c-109 -1 -205 -48 -232 -163h-185c11 207 174 316 427 316c282 0 413 -118 413 -331v-723h-182l-16 190
c-78 -158 -199 -210 -346 -210zM507 129c130 0 270 104 271 212v171l-140 -3c-213 -3 -335 -58 -335 -204c0 -111 85 -176 204 -176z" />
    <glyph glyph-name="uni1EA1" unicode="&#x1ea1;" horiz-adv-x="1113" 
d="M440 -20c-200 0 -343 112 -343 304c0 229 154 341 511 347l170 5v75c0 118 -69 191 -217 190c-109 -1 -205 -48 -232 -163h-185c11 207 174 316 427 316c282 0 413 -118 413 -331v-723h-182l-16 190c-78 -158 -199 -210 -346 -210zM507 129c130 0 270 104 271 212v171
l-140 -3c-213 -3 -335 -58 -335 -204c0 -111 85 -176 204 -176zM464 -369v194h212v-194h-212z" />
    <glyph glyph-name="agrave" unicode="&#xe0;" horiz-adv-x="1113" 
d="M495 1155l-280 291h235l206 -291h-161zM440 -20c-200 0 -343 112 -343 304c0 229 154 341 511 347l170 5v75c0 118 -69 191 -217 190c-109 -1 -205 -48 -232 -163h-185c11 207 174 316 427 316c282 0 413 -118 413 -331v-723h-182l-16 190c-78 -158 -199 -210 -346 -210z
M507 129c130 0 270 104 271 212v171l-140 -3c-213 -3 -335 -58 -335 -204c0 -111 85 -176 204 -176z" />
    <glyph glyph-name="uni1EA3" unicode="&#x1ea3;" horiz-adv-x="1113" 
d="M639 1152l-59 91c56 35 82 86 54 131c-26 43 -89 41 -141 6l-58 90c115 74 237 54 294 -33c69 -104 33 -210 -90 -285zM440 -20c-200 0 -343 112 -343 304c0 229 154 341 511 347l170 5v75c0 118 -69 191 -217 190c-109 -1 -205 -48 -232 -163h-185
c11 207 174 316 427 316c282 0 413 -118 413 -331v-723h-182l-16 190c-78 -158 -199 -210 -346 -210zM507 129c130 0 270 104 271 212v171l-140 -3c-213 -3 -335 -58 -335 -204c0 -111 85 -176 204 -176z" />
    <glyph glyph-name="uni0203" unicode="&#x203;" horiz-adv-x="1113" 
d="M253 1200c32 149 162 227 315 227c159 0 286 -82 318 -227h-147c-23 64 -87 110 -171 110c-85 0 -145 -46 -167 -110h-148zM440 -20c-200 0 -343 112 -343 304c0 229 154 341 511 347l170 5v75c0 118 -69 191 -217 190c-109 -1 -205 -48 -232 -163h-185
c11 207 174 316 427 316c282 0 413 -118 413 -331v-723h-182l-16 190c-78 -158 -199 -210 -346 -210zM507 129c130 0 270 104 271 212v171l-140 -3c-213 -3 -335 -58 -335 -204c0 -111 85 -176 204 -176z" />
    <glyph glyph-name="amacron" unicode="&#x101;" horiz-adv-x="1113" 
d="M260 1227v146h625v-146h-625zM440 -20c-200 0 -343 112 -343 304c0 229 154 341 511 347l170 5v75c0 118 -69 191 -217 190c-109 -1 -205 -48 -232 -163h-185c11 207 174 316 427 316c282 0 413 -118 413 -331v-723h-182l-16 190c-78 -158 -199 -210 -346 -210zM507 129
c130 0 270 104 271 212v171l-140 -3c-213 -3 -335 -58 -335 -204c0 -111 85 -176 204 -176z" />
    <glyph glyph-name="aogonek" unicode="&#x105;" horiz-adv-x="1113" 
d="M440 -20c-200 0 -343 112 -343 304c0 229 154 341 511 347l170 5v75c0 118 -69 191 -217 190c-109 -1 -205 -48 -232 -163h-185c11 207 174 316 427 316c282 0 413 -118 413 -331v-723h-30c-120 -50 -166 -91 -166 -150c0 -47 26 -70 87 -70c63 0 113 21 144 38v-106
c-35 -21 -111 -43 -193 -43c-132 0 -203 60 -203 160c0 73 38 134 178 183l-15 178c-78 -158 -199 -210 -346 -210zM507 129c130 0 270 104 271 212v171l-140 -3c-213 -3 -335 -58 -335 -204c0 -111 85 -176 204 -176z" />
    <glyph glyph-name="aring" unicode="&#xe5;" horiz-adv-x="1113" 
d="M573 1148c-117 0 -209 93 -209 213c0 112 94 202 209 202c117 0 210 -91 210 -206c0 -118 -93 -209 -210 -209zM571 1249c59 0 104 51 104 107c0 61 -45 105 -104 105c-56 0 -106 -44 -106 -105c0 -56 50 -107 106 -107zM440 -20c-200 0 -343 112 -343 304
c0 229 154 341 511 347l170 5v75c0 118 -69 191 -217 190c-109 -1 -205 -48 -232 -163h-185c11 207 174 316 427 316c282 0 413 -118 413 -331v-723h-182l-16 190c-78 -158 -199 -210 -346 -210zM507 129c130 0 270 104 271 212v171l-140 -3c-213 -3 -335 -58 -335 -204
c0 -111 85 -176 204 -176z" />
    <glyph glyph-name="aringacute" unicode="&#x1fb;" horiz-adv-x="1113" 
d="M440 -20c-200 0 -343 112 -343 304c0 229 154 341 511 347l170 5v75c0 118 -69 191 -217 190c-109 -1 -205 -48 -232 -163h-185c9 161 109 262 272 300c-33 35 -53 83 -53 139c0 95 69 170 159 187l31 131h147l-58 -139c75 -28 128 -97 127 -183c1 -52 -18 -98 -50 -132
c180 -37 265 -147 265 -318v-723h-182l-16 190c-78 -158 -199 -210 -346 -210zM564 1064c58 0 105 52 105 107c0 61 -47 106 -105 106c-56 0 -106 -45 -106 -106c0 -55 50 -107 106 -107zM507 129c130 0 270 104 271 212v171l-140 -3c-213 -3 -335 -58 -335 -204
c0 -111 85 -176 204 -176z" />
    <glyph glyph-name="atilde" unicode="&#xe3;" horiz-adv-x="1113" 
d="M301 1212l-37 121c45 44 93 79 173 79c103 0 184 -57 272 -57c62 0 107 29 147 59l34 -135c-37 -29 -96 -62 -181 -62c-108 0 -169 53 -263 53c-66 0 -101 -24 -145 -58zM440 -20c-200 0 -343 112 -343 304c0 229 154 341 511 347l170 5v75c0 118 -69 191 -217 190
c-109 -1 -205 -48 -232 -163h-185c11 207 174 316 427 316c282 0 413 -118 413 -331v-723h-182l-16 190c-78 -158 -199 -210 -346 -210zM507 129c130 0 270 104 271 212v171l-140 -3c-213 -3 -335 -58 -335 -204c0 -111 85 -176 204 -176z" />
    <glyph glyph-name="ae" unicode="&#xe6;" horiz-adv-x="1828" 
d="M440 -20c-200 0 -343 112 -343 304c0 229 154 341 512 347l169 5v75c0 123 -84 191 -217 190c-108 -1 -206 -53 -232 -163h-185c10 189 176 316 427 316c174 0 298 -60 355 -161c76 103 192 161 342 161c298 0 461 -203 461 -516v-71h-728c-1 -185 93 -325 277 -325
c123 0 220 56 248 167h198c-37 -213 -237 -329 -442 -329c-191 0 -343 85 -424 237c-49 -147 -211 -237 -418 -237zM1001 606h524c0 163 -83 291 -258 291c-178 0 -267 -148 -266 -291zM507 129c162 0 267 132 268 240v143l-137 -3c-213 -4 -335 -58 -335 -204
c0 -111 85 -176 204 -176z" />
    <glyph glyph-name="aeacute" unicode="&#x1fd;" horiz-adv-x="1828" 
d="M794 1155l206 291h235l-280 -291h-161zM440 -20c-200 0 -343 112 -343 304c0 229 154 341 512 347l169 5v75c0 123 -84 191 -217 190c-108 -1 -206 -53 -232 -163h-185c10 189 176 316 427 316c174 0 298 -60 355 -161c76 103 192 161 342 161c298 0 461 -203 461 -516
v-71h-728c-1 -185 93 -325 277 -325c123 0 220 56 248 167h198c-37 -213 -237 -329 -442 -329c-191 0 -343 85 -424 237c-49 -147 -211 -237 -418 -237zM1001 606h524c0 163 -83 291 -258 291c-178 0 -267 -148 -266 -291zM507 129c162 0 267 132 268 240v143l-137 -3
c-213 -4 -335 -58 -335 -204c0 -111 85 -176 204 -176z" />
    <glyph glyph-name="b" unicode="b" horiz-adv-x="1200" 
d="M674 -20c-232 0 -316 142 -345 232l-23 -212h-161v1486h216v-609c38 72 147 177 331 177c258 0 420 -185 420 -532c0 -327 -148 -542 -438 -542zM632 141c157 0 267 115 267 388c0 234 -96 362 -270 362c-189 0 -266 -128 -268 -362c0 -276 79 -388 271 -388z" />
    <glyph glyph-name="c" unicode="c" horiz-adv-x="1089" 
d="M570 -20c-282 0 -482 190 -482 533c0 322 179 541 482 541c233 0 396 -146 422 -361h-186c-17 102 -98 192 -234 192c-166 0 -281 -120 -281 -370c0 -229 100 -376 284 -376c135 0 217 96 233 191h182c-24 -209 -191 -350 -420 -350z" />
    <glyph glyph-name="cacute" unicode="&#x107;" horiz-adv-x="1089" 
d="M482 1155l206 291h235l-280 -291h-161zM570 -20c-282 0 -482 190 -482 533c0 322 179 541 482 541c233 0 396 -146 422 -361h-186c-17 102 -98 192 -234 192c-166 0 -281 -120 -281 -370c0 -229 100 -376 284 -376c135 0 217 96 233 191h182
c-24 -209 -191 -350 -420 -350z" />
    <glyph glyph-name="ccaron" unicode="&#x10d;" horiz-adv-x="1089" 
d="M495 1155l-255 235h180l150 -139l137 139h189l-248 -235h-153zM570 -20c-282 0 -482 190 -482 533c0 322 179 541 482 541c233 0 396 -146 422 -361h-186c-17 102 -98 192 -234 192c-166 0 -281 -120 -281 -370c0 -229 100 -376 284 -376c135 0 217 96 233 191h182
c-24 -209 -191 -350 -420 -350z" />
    <glyph glyph-name="ccedilla" unicode="&#xe7;" horiz-adv-x="1089" 
d="M546 -415c-75 0 -143 14 -201 51l33 83c37 -26 83 -48 142 -48c70 0 106 26 106 70c0 56 -47 84 -163 87c-14 0 -18 3 -13 15l61 140c-250 25 -423 212 -423 530c0 322 179 541 482 541c233 0 396 -146 422 -361h-186c-17 102 -98 192 -234 192
c-166 0 -281 -120 -281 -370c0 -229 100 -376 284 -376c135 0 217 96 233 191h182c-22 -194 -168 -329 -372 -348l-35 -92c140 -5 186 -82 186 -149c0 -101 -103 -156 -223 -156z" />
    <glyph glyph-name="ccircumflex" unicode="&#x109;" horiz-adv-x="1089" 
d="M241 1155l255 234h152l248 -234h-189l-137 133l-150 -133h-179zM570 -20c-282 0 -482 190 -482 533c0 322 179 541 482 541c233 0 396 -146 422 -361h-186c-17 102 -98 192 -234 192c-166 0 -281 -120 -281 -370c0 -229 100 -376 284 -376c135 0 217 96 233 191h182
c-24 -209 -191 -350 -420 -350z" />
    <glyph glyph-name="cdotaccent" unicode="&#x10b;" horiz-adv-x="1089" 
d="M464 1251v195h212v-195h-212zM570 -20c-282 0 -482 190 -482 533c0 322 179 541 482 541c233 0 396 -146 422 -361h-186c-17 102 -98 192 -234 192c-166 0 -281 -120 -281 -370c0 -229 100 -376 284 -376c135 0 217 96 233 191h182c-24 -209 -191 -350 -420 -350z" />
    <glyph glyph-name="d" unicode="d" horiz-adv-x="1200" 
d="M526 -20c-271 0 -438 191 -438 542c0 322 143 532 420 532c184 0 293 -105 331 -177v609h216v-1486h-161l-24 212c-29 -90 -112 -232 -344 -232zM567 141c193 0 272 112 272 388c-2 234 -79 362 -268 362c-159 0 -270 -107 -270 -362c0 -251 95 -388 266 -388z" />
    <glyph glyph-name="eth" unicode="&#xf0;" horiz-adv-x="1137" 
d="M566 -20c-308 0 -478 228 -478 524c0 335 194 533 468 533c70 0 132 -14 185 -38c-30 77 -72 149 -119 213l-274 -82l-32 104l232 70c-63 72 -129 132 -182 176h189c49 -35 100 -78 150 -128l254 76l31 -105l-204 -61c146 -178 262 -422 262 -727
c0 -332 -162 -555 -482 -555zM571 145c188 0 267 160 267 367c0 231 -92 365 -265 365c-185 0 -273 -149 -273 -365c0 -198 72 -367 271 -367z" />
    <glyph glyph-name="dcaron" unicode="&#x10f;" horiz-adv-x="1188" 
d="M526 -20c-271 0 -438 191 -438 542c0 322 143 532 420 532c184 0 293 -105 331 -177v609h216v-1486h-161l-24 212c-29 -90 -112 -232 -344 -232zM1161 1085l77 189l-59 10v202h166v-212l-81 -189h-103zM567 141c193 0 272 112 272 388c-2 234 -79 362 -268 362
c-159 0 -270 -107 -270 -362c0 -251 95 -388 266 -388z" />
    <glyph glyph-name="dcroat" unicode="&#x111;" horiz-adv-x="1246" 
d="M526 -20c-271 0 -438 191 -438 542c0 322 143 532 420 532c184 0 293 -105 331 -177v306h-286v129h286v174h216v-174h131v-129h-131v-1183h-161l-24 212c-29 -90 -112 -232 -344 -232zM567 141c193 0 272 112 272 388c-2 234 -79 362 -268 362
c-159 0 -270 -107 -270 -362c0 -251 95 -388 266 -388z" />
    <glyph glyph-name="uni1E0D" unicode="&#x1e0d;" horiz-adv-x="1200" 
d="M526 -20c-271 0 -438 191 -438 542c0 322 143 532 420 532c184 0 293 -105 331 -177v609h216v-1486h-161l-24 212c-29 -90 -112 -232 -344 -232zM567 141c193 0 272 112 272 388c-2 234 -79 362 -268 362c-159 0 -270 -107 -270 -362c0 -251 95 -388 266 -388zM439 -369
v194h212v-194h-212z" />
    <glyph glyph-name="e" unicode="e" horiz-adv-x="1139" 
d="M593 -20c-294 0 -496 199 -496 526c0 322 177 548 482 548c298 0 461 -203 461 -516v-71h-728c-1 -185 92 -325 276 -325c124 0 221 56 249 167h198c-37 -213 -237 -329 -442 -329zM312 606h524c0 163 -84 291 -258 291c-178 0 -267 -148 -266 -291z" />
    <glyph glyph-name="eacute" unicode="&#xe9;" horiz-adv-x="1139" 
d="M491 1155l206 291h235l-280 -291h-161zM593 -20c-294 0 -496 199 -496 526c0 322 177 548 482 548c298 0 461 -203 461 -516v-71h-728c-1 -185 92 -325 276 -325c124 0 221 56 249 167h198c-37 -213 -237 -329 -442 -329zM312 606h524c0 163 -84 291 -258 291
c-178 0 -267 -148 -266 -291z" />
    <glyph glyph-name="ebreve" unicode="&#x115;" horiz-adv-x="1139" 
d="M578 1153c-153 0 -283 78 -314 227h147c22 -64 82 -110 167 -110c84 0 148 46 171 110h147c-31 -145 -159 -227 -318 -227zM593 -20c-294 0 -496 199 -496 526c0 322 177 548 482 548c298 0 461 -203 461 -516v-71h-728c-1 -185 92 -325 276 -325c124 0 221 56 249 167
h198c-37 -213 -237 -329 -442 -329zM312 606h524c0 163 -84 291 -258 291c-178 0 -267 -148 -266 -291z" />
    <glyph glyph-name="ecaron" unicode="&#x11b;" horiz-adv-x="1129" 
d="M497 1155l-254 235h179l150 -139l138 139h189l-249 -235h-153zM593 -20c-294 0 -496 199 -496 526c0 322 177 548 482 548c298 0 461 -203 461 -516v-71h-728c-1 -185 92 -325 276 -325c124 0 221 56 249 167h198c-37 -213 -237 -329 -442 -329zM312 606h524
c0 163 -84 291 -258 291c-178 0 -267 -148 -266 -291z" />
    <glyph glyph-name="ecircumflex" unicode="&#xea;" horiz-adv-x="1139" 
d="M251 1155l254 234h152l249 -234h-189l-138 133l-150 -133h-178zM593 -20c-294 0 -496 199 -496 526c0 322 177 548 482 548c298 0 461 -203 461 -516v-71h-728c-1 -185 92 -325 276 -325c124 0 221 56 249 167h198c-37 -213 -237 -329 -442 -329zM312 606h524
c0 163 -84 291 -258 291c-178 0 -267 -148 -266 -291z" />
    <glyph glyph-name="uni1EBF" unicode="&#x1ebf;" horiz-adv-x="1139" 
d="M775 1382l148 248h187l-207 -248h-128zM251 1155l254 234h152l249 -234h-189l-138 133l-150 -133h-178zM593 -20c-294 0 -496 199 -496 526c0 322 177 548 482 548c298 0 461 -203 461 -516v-71h-728c-1 -185 92 -325 276 -325c124 0 221 56 249 167h198
c-37 -213 -237 -329 -442 -329zM312 606h524c0 163 -84 291 -258 291c-178 0 -267 -148 -266 -291z" />
    <glyph glyph-name="uni1EC7" unicode="&#x1ec7;" horiz-adv-x="1139" 
d="M251 1155l254 234h152l249 -234h-189l-138 133l-150 -133h-178zM593 -20c-294 0 -496 199 -496 526c0 322 177 548 482 548c298 0 461 -203 461 -516v-71h-728c-1 -185 92 -325 276 -325c124 0 221 56 249 167h198c-37 -213 -237 -329 -442 -329zM312 606h524
c0 163 -84 291 -258 291c-178 0 -267 -148 -266 -291zM476 -369v194h212v-194h-212z" />
    <glyph glyph-name="uni1EC1" unicode="&#x1ec1;" horiz-adv-x="1139" 
d="M870 1382l-215 248h187l159 -248h-131zM251 1155l254 234h152l249 -234h-189l-138 133l-150 -133h-178zM593 -20c-294 0 -496 199 -496 526c0 322 177 548 482 548c298 0 461 -203 461 -516v-71h-728c-1 -185 92 -325 276 -325c124 0 221 56 249 167h198
c-37 -213 -237 -329 -442 -329zM312 606h524c0 163 -84 291 -258 291c-178 0 -267 -148 -266 -291z" />
    <glyph glyph-name="uni1EC3" unicode="&#x1ec3;" horiz-adv-x="1139" 
d="M833 1336l-58 91c56 35 82 86 54 131c-27 43 -89 41 -142 6l-58 90c115 74 238 54 295 -33c68 -104 32 -210 -91 -285zM256 1155l254 234h152l249 -234h-189l-138 133l-150 -133h-178zM593 -20c-294 0 -496 199 -496 526c0 322 177 548 482 548c298 0 461 -203 461 -516
v-71h-728c-1 -185 92 -325 276 -325c124 0 221 56 249 167h198c-37 -213 -237 -329 -442 -329zM312 606h524c0 163 -84 291 -258 291c-178 0 -267 -148 -266 -291z" />
    <glyph glyph-name="uni1EC5" unicode="&#x1ec5;" horiz-adv-x="1139" 
d="M304 1493l-37 121c46 44 93 80 174 80c102 0 183 -58 272 -58c62 0 106 29 147 60l33 -136c-36 -28 -95 -61 -180 -61c-109 0 -170 53 -264 53c-65 0 -101 -25 -145 -59zM252 1155l255 234h152l248 -234h-189l-137 133l-150 -133h-179zM593 -20c-294 0 -496 199 -496 526
c0 322 177 548 482 548c298 0 461 -203 461 -516v-71h-728c-1 -185 92 -325 276 -325c124 0 221 56 249 167h198c-37 -213 -237 -329 -442 -329zM312 606h524c0 163 -84 291 -258 291c-178 0 -267 -148 -266 -291z" />
    <glyph glyph-name="uni0205" unicode="&#x205;" horiz-adv-x="1139" 
d="M348 1155l-297 291h219l239 -291h-161zM647 1155l-250 291h213l198 -291h-161zM593 -20c-294 0 -496 199 -496 526c0 322 177 548 482 548c298 0 461 -203 461 -516v-71h-728c-1 -185 92 -325 276 -325c124 0 221 56 249 167h198c-37 -213 -237 -329 -442 -329zM312 606
h524c0 163 -84 291 -258 291c-178 0 -267 -148 -266 -291z" />
    <glyph glyph-name="edieresis" unicode="&#xeb;" horiz-adv-x="1139" 
d="M681 1251l2 195h206l-2 -195h-206zM271 1251l2 195h206l-2 -195h-206zM593 -20c-294 0 -496 199 -496 526c0 322 177 548 482 548c298 0 461 -203 461 -516v-71h-728c-1 -185 92 -325 276 -325c124 0 221 56 249 167h198c-37 -213 -237 -329 -442 -329zM312 606h524
c0 163 -84 291 -258 291c-178 0 -267 -148 -266 -291z" />
    <glyph glyph-name="edotaccent" unicode="&#x117;" horiz-adv-x="1139" 
d="M473 1251v195h213v-195h-213zM593 -20c-294 0 -496 199 -496 526c0 322 177 548 482 548c298 0 461 -203 461 -516v-71h-728c-1 -185 92 -325 276 -325c124 0 221 56 249 167h198c-37 -213 -237 -329 -442 -329zM312 606h524c0 163 -84 291 -258 291
c-178 0 -267 -148 -266 -291z" />
    <glyph glyph-name="uni1EB9" unicode="&#x1eb9;" horiz-adv-x="1139" 
d="M593 -20c-294 0 -496 199 -496 526c0 322 177 548 482 548c298 0 461 -203 461 -516v-71h-728c-1 -185 92 -325 276 -325c124 0 221 56 249 167h198c-37 -213 -237 -329 -442 -329zM312 606h524c0 163 -84 291 -258 291c-178 0 -267 -148 -266 -291zM476 -369v194h212
v-194h-212z" />
    <glyph glyph-name="egrave" unicode="&#xe8;" horiz-adv-x="1139" 
d="M502 1155l-280 291h235l206 -291h-161zM593 -20c-294 0 -496 199 -496 526c0 322 177 548 482 548c298 0 461 -203 461 -516v-71h-728c-1 -185 92 -325 276 -325c124 0 221 56 249 167h198c-37 -213 -237 -329 -442 -329zM312 606h524c0 163 -84 291 -258 291
c-178 0 -267 -148 -266 -291z" />
    <glyph glyph-name="uni1EBB" unicode="&#x1ebb;" horiz-adv-x="1139" 
d="M646 1152l-59 91c56 35 82 86 54 131c-26 43 -89 41 -141 6l-58 90c115 74 237 54 294 -33c69 -104 33 -210 -90 -285zM593 -20c-294 0 -496 199 -496 526c0 322 177 548 482 548c298 0 461 -203 461 -516v-71h-728c-1 -185 92 -325 276 -325c124 0 221 56 249 167h198
c-37 -213 -237 -329 -442 -329zM312 606h524c0 163 -84 291 -258 291c-178 0 -267 -148 -266 -291z" />
    <glyph glyph-name="uni0207" unicode="&#x207;" horiz-adv-x="1139" 
d="M260 1200c32 149 162 227 315 227c158 0 286 -82 317 -227h-146c-23 64 -87 110 -171 110c-85 0 -145 -46 -167 -110h-148zM593 -20c-294 0 -496 199 -496 526c0 322 177 548 482 548c298 0 461 -203 461 -516v-71h-728c-1 -185 92 -325 276 -325c124 0 221 56 249 167
h198c-37 -213 -237 -329 -442 -329zM312 606h524c0 163 -84 291 -258 291c-178 0 -267 -148 -266 -291z" />
    <glyph glyph-name="emacron" unicode="&#x113;" horiz-adv-x="1139" 
d="M267 1227v146h625v-146h-625zM593 -20c-294 0 -496 199 -496 526c0 322 177 548 482 548c298 0 461 -203 461 -516v-71h-728c-1 -185 92 -325 276 -325c124 0 221 56 249 167h198c-37 -213 -237 -329 -442 -329zM312 606h524c0 163 -84 291 -258 291
c-178 0 -267 -148 -266 -291z" />
    <glyph glyph-name="eogonek" unicode="&#x119;" horiz-adv-x="1139" 
d="M670 -313c-132 0 -203 59 -203 160c0 51 18 97 79 136c-269 19 -449 212 -449 523c0 322 177 548 482 548c298 0 461 -203 461 -516v-71h-728c-1 -185 92 -325 276 -325c124 0 221 56 249 167h198c-24 -138 -109 -223 -239 -288c-110 -53 -164 -95 -164 -153
c0 -47 26 -71 87 -71c63 0 113 21 144 39v-107c-35 -20 -111 -42 -193 -42zM312 606h524c0 163 -84 291 -258 291c-178 0 -267 -148 -266 -291z" />
    <glyph glyph-name="uni1EBD" unicode="&#x1ebd;" horiz-adv-x="1139" 
d="M308 1212l-37 121c45 44 92 79 173 79c102 0 183 -57 272 -57c62 0 107 29 147 59l34 -135c-37 -29 -96 -62 -181 -62c-108 0 -169 53 -263 53c-66 0 -101 -24 -145 -58zM593 -20c-294 0 -496 199 -496 526c0 322 177 548 482 548c298 0 461 -203 461 -516v-71h-728
c-1 -185 92 -325 276 -325c124 0 221 56 249 167h198c-37 -213 -237 -329 -442 -329zM312 606h524c0 163 -84 291 -258 291c-178 0 -267 -148 -266 -291z" />
    <glyph glyph-name="uni0259" unicode="&#x259;" horiz-adv-x="1139" 
d="M559 -20c-298 0 -460 203 -460 516v71h728c1 186 -93 325 -277 325c-123 0 -220 -56 -248 -167h-198c37 213 237 329 442 329c294 0 496 -199 496 -526c0 -322 -177 -548 -483 -548zM561 137c177 0 267 148 265 292h-524c0 -164 84 -292 259 -292z" />
    <glyph glyph-name="f" unicode="f" horiz-adv-x="792" 
d="M277 0v880h-211v154h211v157c0 165 89 255 259 255h207l1 -148h-150c-82 0 -106 -42 -106 -132v-132h246v-154h-242v-880h-215z" />
    <glyph glyph-name="g" unicode="g" horiz-adv-x="1248" 
d="M594 -342c-336 0 -528 99 -528 267c0 147 173 200 197 217c-34 20 -112 52 -112 137c0 67 63 128 191 155c-126 61 -198 172 -198 290c0 202 181 326 461 326c137 0 220 -33 298 -87c49 19 211 86 275 112l-1 -186l-180 -33c19 -41 31 -93 31 -132
c0 -182 -147 -331 -441 -331c-19 0 -54 1 -73 3c-125 -4 -163 -33 -163 -62c0 -37 55 -46 193 -55c49 -4 128 -8 222 -14c226 -14 349 -119 349 -284c0 -190 -171 -323 -521 -323zM593 524c138 0 231 69 231 196c0 131 -93 205 -231 205c-140 0 -234 -75 -234 -205
c0 -123 86 -196 234 -196zM631 -211c183 0 277 53 277 157c0 77 -61 130 -180 138l-276 18c-82 4 -174 -65 -174 -152c0 -104 111 -161 353 -161z" />
    <glyph glyph-name="gbreve" unicode="&#x11f;" horiz-adv-x="1248" 
d="M601 1153c-153 0 -283 78 -315 227h148c22 -64 82 -110 167 -110c84 0 148 46 170 110h147c-31 -145 -159 -227 -317 -227zM594 -342c-336 0 -528 99 -528 267c0 147 173 200 197 217c-34 20 -112 52 -112 137c0 67 63 128 191 155c-126 61 -198 172 -198 290
c0 202 181 326 461 326c137 0 220 -33 298 -87c49 19 211 86 275 112l-1 -186l-180 -33c19 -41 31 -93 31 -132c0 -182 -147 -331 -441 -331c-19 0 -54 1 -73 3c-125 -4 -163 -33 -163 -62c0 -37 55 -46 193 -55c49 -4 128 -8 222 -14c226 -14 349 -119 349 -284
c0 -190 -171 -323 -521 -323zM593 524c138 0 231 69 231 196c0 131 -93 205 -231 205c-140 0 -234 -75 -234 -205c0 -123 86 -196 234 -196zM631 -211c183 0 277 53 277 157c0 77 -61 130 -180 138l-276 18c-82 4 -174 -65 -174 -152c0 -104 111 -161 353 -161z" />
    <glyph glyph-name="gcircumflex" unicode="&#x11d;" horiz-adv-x="1248" 
d="M273 1155l255 234h151l249 -234h-189l-137 133l-150 -133h-179zM594 -342c-336 0 -528 99 -528 267c0 147 173 200 197 217c-34 20 -112 52 -112 137c0 67 63 128 191 155c-126 61 -198 172 -198 290c0 202 181 326 461 326c137 0 220 -33 298 -87c49 19 211 86 275 112
l-1 -186l-180 -33c19 -41 31 -93 31 -132c0 -182 -147 -331 -441 -331c-19 0 -54 1 -73 3c-125 -4 -163 -33 -163 -62c0 -37 55 -46 193 -55c49 -4 128 -8 222 -14c226 -14 349 -119 349 -284c0 -190 -171 -323 -521 -323zM593 524c138 0 231 69 231 196
c0 131 -93 205 -231 205c-140 0 -234 -75 -234 -205c0 -123 86 -196 234 -196zM631 -211c183 0 277 53 277 157c0 77 -61 130 -180 138l-276 18c-82 4 -174 -65 -174 -152c0 -104 111 -161 353 -161z" />
    <glyph glyph-name="uni0123" unicode="&#x123;" horiz-adv-x="1248" 
d="M503 1155v174l117 172h90l-79 -153l68 -6v-187h-196zM594 -342c-336 0 -528 99 -528 267c0 147 173 200 197 217c-34 20 -112 52 -112 137c0 67 63 128 191 155c-126 61 -198 172 -198 290c0 202 181 326 461 326c137 0 220 -33 298 -87c49 19 211 86 275 112l-1 -186
l-180 -33c19 -41 31 -93 31 -132c0 -182 -147 -331 -441 -331c-19 0 -54 1 -73 3c-125 -4 -163 -33 -163 -62c0 -37 55 -46 193 -55c49 -4 128 -8 222 -14c226 -14 349 -119 349 -284c0 -190 -171 -323 -521 -323zM593 524c138 0 231 69 231 196c0 131 -93 205 -231 205
c-140 0 -234 -75 -234 -205c0 -123 86 -196 234 -196zM631 -211c183 0 277 53 277 157c0 77 -61 130 -180 138l-276 18c-82 4 -174 -65 -174 -152c0 -104 111 -161 353 -161z" />
    <glyph glyph-name="gdotaccent" unicode="&#x121;" horiz-adv-x="1248" 
d="M496 1251v195h212v-195h-212zM594 -342c-336 0 -528 99 -528 267c0 147 173 200 197 217c-34 20 -112 52 -112 137c0 67 63 128 191 155c-126 61 -198 172 -198 290c0 202 181 326 461 326c137 0 220 -33 298 -87c49 19 211 86 275 112l-1 -186l-180 -33
c19 -41 31 -93 31 -132c0 -182 -147 -331 -441 -331c-19 0 -54 1 -73 3c-125 -4 -163 -33 -163 -62c0 -37 55 -46 193 -55c49 -4 128 -8 222 -14c226 -14 349 -119 349 -284c0 -190 -171 -323 -521 -323zM593 524c138 0 231 69 231 196c0 131 -93 205 -231 205
c-140 0 -234 -75 -234 -205c0 -123 86 -196 234 -196zM631 -211c183 0 277 53 277 157c0 77 -61 130 -180 138l-276 18c-82 4 -174 -65 -174 -152c0 -104 111 -161 353 -161z" />
    <glyph glyph-name="h" unicode="h" horiz-adv-x="1162" 
d="M145 0v1486h211v-603c51 81 150 162 315 162c201 0 361 -119 361 -313v-732h-214v693c0 115 -89 181 -214 181c-128 0 -245 -63 -245 -192v-682h-214z" />
    <glyph glyph-name="hbar" unicode="&#x127;" horiz-adv-x="1194" 
d="M177 0v1183h-137v129h137v174h211v-174h285v-129h-285v-300c51 81 150 162 315 162c201 0 361 -119 361 -313v-732h-214v693c0 115 -89 181 -214 181c-128 0 -245 -63 -245 -192v-682h-214z" />
    <glyph glyph-name="hcircumflex" unicode="&#x125;" horiz-adv-x="1162" 
d="M-80 1567l254 234h152l249 -234h-190l-137 133l-150 -133h-178zM145 0v1486h211v-603c51 81 150 162 315 162c201 0 361 -119 361 -313v-732h-214v693c0 115 -89 181 -214 181c-128 0 -245 -63 -245 -192v-682h-214z" />
    <glyph glyph-name="uni1E25" unicode="&#x1e25;" horiz-adv-x="1162" 
d="M145 0v1486h211v-603c51 81 150 162 315 162c201 0 361 -119 361 -313v-732h-214v693c0 115 -89 181 -214 181c-128 0 -245 -63 -245 -192v-682h-214zM495 -369v194h213v-194h-213z" />
    <glyph glyph-name="i" unicode="i" horiz-adv-x="505" 
d="M145 1234v211h215v-211h-215zM150 0v1034h206v-1034h-206z" />
    <glyph glyph-name="dotlessi" unicode="&#x131;" horiz-adv-x="496" 
d="M145 0v1034h206v-1034h-206z" />
    <glyph glyph-name="iacute" unicode="&#xed;" horiz-adv-x="496" 
d="M320 1155l-151 1l134 290h225zM145 0v1034h206v-1034h-206z" />
    <glyph glyph-name="ibreve" unicode="&#x12d;" horiz-adv-x="496" 
d="M249 1153c-153 0 -283 78 -315 227h148c22 -64 82 -110 167 -110c84 0 148 46 170 110h147c-31 -145 -159 -227 -317 -227zM145 0v1034h206v-1034h-206z" />
    <glyph glyph-name="icircumflex" unicode="&#xee;" horiz-adv-x="496" 
d="M-79 1155l255 234h151l249 -234h-189l-137 133l-150 -133h-179zM145 0v1034h206v-1034h-206z" />
    <glyph glyph-name="uni0209" unicode="&#x209;" horiz-adv-x="496" 
d="M18 1155l-297 291h219l239 -291h-161zM317 1155l-249 291h213l197 -291h-161zM145 0v1034h206v-1034h-206z" />
    <glyph glyph-name="idieresis" unicode="&#xef;" horiz-adv-x="648" 
d="M425 1249l1 194h206l-1 -194h-206zM15 1249l1 194h206l-1 -194h-206zM216 0v1034h206v-1034h-206z" />
    <glyph glyph-name="i.loclTRK" horiz-adv-x="496" 
d="M144 1251v195h212v-195h-212zM145 0v1034h206v-1034h-206z" />
    <glyph glyph-name="uni1ECB" unicode="&#x1ecb;" horiz-adv-x="505" 
d="M145 1234v211h215v-211h-215zM150 0v1034h206v-1034h-206zM147 -369v194h213v-194h-213z" />
    <glyph glyph-name="igrave" unicode="&#xec;" horiz-adv-x="496" 
d="M177 1155l-208 291h225l134 -290zM145 0v1034h206v-1034h-206z" />
    <glyph glyph-name="uni1EC9" unicode="&#x1ec9;" horiz-adv-x="496" 
d="M316 1152l-58 91c56 35 82 86 54 131c-27 43 -89 41 -142 6l-58 90c115 74 238 54 295 -33c68 -104 32 -210 -91 -285zM145 0v1034h206v-1034h-206z" />
    <glyph glyph-name="uni020B" unicode="&#x20b;" horiz-adv-x="600" 
d="M-20 1200c31 149 162 227 314 227c159 0 287 -82 318 -227h-147c-23 64 -86 110 -171 110s-145 -46 -166 -110h-148zM194 0v1034h206v-1034h-206z" />
    <glyph glyph-name="imacron" unicode="&#x12b;" horiz-adv-x="605" 
d="M-11 1227v146h625v-146h-625zM197 0v1034h206v-1034h-206z" />
    <glyph glyph-name="iogonek" unicode="&#x12f;" horiz-adv-x="496" 
d="M144 1251v195h212v-195h-212zM145 0v1034h206v-1026v-8h-19c-122 -51 -170 -93 -170 -152c0 -47 26 -70 87 -70c63 0 113 21 144 38v-106c-35 -21 -111 -43 -193 -43c-132 0 -203 60 -203 160c0 68 33 126 151 173h-3z" />
    <glyph glyph-name="itilde" unicode="&#x129;" horiz-adv-x="592" 
d="M20 1212l-37 121c45 44 93 79 173 79c103 0 184 -57 273 -57c62 0 106 29 147 59l33 -135c-37 -29 -96 -62 -181 -62c-108 0 -169 53 -263 53c-66 0 -101 -24 -145 -58zM187 0v1034h206v-1034h-206z" />
    <glyph glyph-name="j" unicode="j" horiz-adv-x="539" 
d="M170 1234v211h224v-211h-224zM88 -332c-111 0 -130 25 -130 25v143l96 6c90 8 122 44 122 132v1060h214v-1066c0 -202 -81 -300 -302 -300z" />
    <glyph glyph-name="uni0237" unicode="&#x237;" horiz-adv-x="536" 
d="M88 -332c-111 0 -130 16 -130 25v143l96 6c89 8 123 44 123 132v1060h214v-1066c0 -202 -83 -300 -303 -300z" />
    <glyph glyph-name="jcircumflex" unicode="&#x135;" horiz-adv-x="536" 
d="M-46 1155l254 234h152l249 -234h-189l-138 133l-150 -133h-178zM88 -332c-111 0 -130 16 -130 25v143l96 6c89 8 123 44 123 132v1060h214v-1066c0 -202 -83 -300 -303 -300z" />
    <glyph glyph-name="k" unicode="k" horiz-adv-x="1133" 
d="M145 0v1486h214v-945l457 493h240l-374 -399l396 -635h-222l-311 499l-186 -193v-306h-214z" />
    <glyph glyph-name="uni0137" unicode="&#x137;" horiz-adv-x="1133" 
d="M145 0v1486h214v-945l457 493h240l-374 -399l396 -635h-222l-311 499l-186 -193v-306h-214zM448 -397l84 131l-67 7v163h203v-137l-137 -164h-83z" />
    <glyph glyph-name="kgreenlandic" unicode="&#x138;" horiz-adv-x="1160" 
d="M145 0v1034h214v-511l483 511h229l-353 -358l387 -676h-249l-284 518l-213 -212v-306h-214z" />
    <glyph glyph-name="l" unicode="l" horiz-adv-x="620" 
d="M425 -14c-245 0 -280 140 -280 287v1213h211v-1191c0 -97 38 -147 116 -153l54 -2v-136c-34 -11 -71 -18 -101 -18z" />
    <glyph glyph-name="lacute" unicode="&#x13a;" horiz-adv-x="620" 
d="M159 1648l206 291h235l-280 -291h-161zM425 -14c-245 0 -280 140 -280 287v1213h211v-1191c0 -97 38 -147 116 -153l54 -2v-136c-34 -11 -71 -18 -101 -18z" />
    <glyph glyph-name="lcaron" unicode="&#x13e;" horiz-adv-x="620" 
d="M425 -14c-245 0 -280 140 -280 287v1213h211v-1191c0 -97 38 -147 116 -153l54 -2v-136c-34 -11 -71 -18 -101 -18zM462 1085l77 189l-59 10v202h166v-212l-81 -189h-103z" />
    <glyph glyph-name="uni013C" unicode="&#x13c;" horiz-adv-x="620" 
d="M425 -14c-245 0 -280 140 -280 287v1213h211v-1191c0 -97 38 -147 116 -153l54 -2v-136c-34 -11 -71 -18 -101 -18zM145 -395l85 131l-68 6v163h204v-137l-137 -163h-84z" />
    <glyph glyph-name="ldot" unicode="&#x140;" horiz-adv-x="741" 
d="M425 -14c-245 0 -280 140 -280 287v1213h211v-1191c0 -97 38 -147 116 -153l54 -2v-136c-34 -11 -71 -18 -101 -18zM497 655v239h248v-239h-248z" />
    <glyph glyph-name="lslash" unicode="&#x142;" horiz-adv-x="715" 
d="M70 316v192l150 116v862h210v-699l176 137v-182l-176 -140v-307c0 -97 39 -147 117 -153l53 -2v-136c-33 -11 -71 -18 -101 -18c-245 0 -279 140 -279 287v161z" />
    <glyph glyph-name="m" unicode="m" horiz-adv-x="1746" 
d="M145 0v1034h208v-149c58 91 156 169 316 169c112 0 241 -58 296 -168c65 99 179 168 315 168c148 0 337 -78 337 -376v-678h-215v655c0 170 -97 220 -199 220c-92 0 -216 -48 -216 -192v-683h-214v701c0 115 -106 174 -197 174c-99 0 -217 -58 -217 -192v-683h-214z" />
    <glyph glyph-name="n" unicode="n" horiz-adv-x="1163" 
d="M145 0v1034h209v-149c50 83 152 162 317 162c194 0 362 -110 362 -369v-678h-214v655c0 148 -89 219 -213 219c-128 0 -247 -62 -247 -191v-683h-214z" />
    <glyph glyph-name="nacute" unicode="&#x144;" horiz-adv-x="1163" 
d="M511 1155l206 291h236l-280 -291h-162zM145 0v1034h209v-149c50 83 152 162 317 162c194 0 362 -110 362 -369v-678h-214v655c0 148 -89 219 -213 219c-128 0 -247 -62 -247 -191v-683h-214z" />
    <glyph glyph-name="ncaron" unicode="&#x148;" horiz-adv-x="1163" 
d="M525 1155l-255 235h180l149 -139l138 139h189l-249 -235h-152zM145 0v1034h209v-149c50 83 152 162 317 162c194 0 362 -110 362 -369v-678h-214v655c0 148 -89 219 -213 219c-128 0 -247 -62 -247 -191v-683h-214z" />
    <glyph glyph-name="uni0146" unicode="&#x146;" horiz-adv-x="1163" 
d="M145 0v1034h209v-149c50 83 152 162 317 162c194 0 362 -110 362 -369v-678h-214v655c0 148 -89 219 -213 219c-128 0 -247 -62 -247 -191v-683h-214zM473 -397l84 131l-67 7v163h204v-137l-138 -164h-83z" />
    <glyph glyph-name="uni1E45" unicode="&#x1e45;" horiz-adv-x="1163" 
d="M494 1251v195h212v-195h-212zM145 0v1034h209v-149c50 83 152 162 317 162c194 0 362 -110 362 -369v-678h-214v655c0 148 -89 219 -213 219c-128 0 -247 -62 -247 -191v-683h-214z" />
    <glyph glyph-name="eng" unicode="&#x14b;" horiz-adv-x="1179" 
d="M736 -332c-106 0 -118 13 -118 22v145l81 3c86 6 121 42 121 133v736c0 110 -54 185 -184 185c-97 0 -189 -55 -275 -147v-745h-216l3 1034h207v-159c136 125 238 179 367 179c193 0 312 -121 312 -300v-774c0 -195 -109 -312 -298 -312z" />
    <glyph glyph-name="ntilde" unicode="&#xf1;" horiz-adv-x="1163" 
d="M328 1212l-37 121c45 44 93 79 173 79c103 0 184 -57 272 -57c63 0 107 29 148 59l33 -135c-37 -29 -96 -62 -181 -62c-108 0 -169 53 -263 53c-66 0 -101 -24 -145 -58zM145 0v1034h209v-149c50 83 152 162 317 162c194 0 362 -110 362 -369v-678h-214v655
c0 148 -89 219 -213 219c-128 0 -247 -62 -247 -191v-683h-214z" />
    <glyph glyph-name="o" unicode="o" horiz-adv-x="1136" 
d="M569 -20c-291 0 -481 192 -481 532c0 325 176 542 482 542c291 0 478 -198 478 -542c0 -314 -168 -532 -479 -532zM570 145c177 0 267 149 267 373c0 206 -75 372 -267 372c-179 0 -270 -145 -270 -372c0 -203 75 -373 270 -373z" />
    <glyph glyph-name="oacute" unicode="&#xf3;" horiz-adv-x="1136" 
d="M480 1155l206 291h235l-280 -291h-161zM569 -20c-291 0 -481 192 -481 532c0 325 176 542 482 542c291 0 478 -198 478 -542c0 -314 -168 -532 -479 -532zM570 145c177 0 267 149 267 373c0 206 -75 372 -267 372c-179 0 -270 -145 -270 -372c0 -203 75 -373 270 -373z
" />
    <glyph glyph-name="obreve" unicode="&#x14f;" horiz-adv-x="1136" 
d="M567 1153c-152 0 -283 78 -314 227h148c21 -64 81 -110 166 -110s148 46 171 110h147c-31 -145 -159 -227 -318 -227zM569 -20c-291 0 -481 192 -481 532c0 325 176 542 482 542c291 0 478 -198 478 -542c0 -314 -168 -532 -479 -532zM570 145c177 0 267 149 267 373
c0 206 -75 372 -267 372c-179 0 -270 -145 -270 -372c0 -203 75 -373 270 -373z" />
    <glyph glyph-name="ocircumflex" unicode="&#xf4;" horiz-adv-x="1136" 
d="M240 1155l255 234h151l249 -234h-189l-138 133l-150 -133h-178zM569 -20c-291 0 -481 192 -481 532c0 325 176 542 482 542c291 0 478 -198 478 -542c0 -314 -168 -532 -479 -532zM570 145c177 0 267 149 267 373c0 206 -75 372 -267 372c-179 0 -270 -145 -270 -372
c0 -203 75 -373 270 -373z" />
    <glyph glyph-name="uni1ED1" unicode="&#x1ed1;" horiz-adv-x="1136" 
d="M764 1382l148 248h187l-207 -248h-128zM240 1155l255 234h151l249 -234h-189l-138 133l-150 -133h-178zM569 -20c-291 0 -481 192 -481 532c0 325 176 542 482 542c291 0 478 -198 478 -542c0 -314 -168 -532 -479 -532zM570 145c177 0 267 149 267 373
c0 206 -75 372 -267 372c-179 0 -270 -145 -270 -372c0 -203 75 -373 270 -373z" />
    <glyph glyph-name="uni1ED9" unicode="&#x1ed9;" horiz-adv-x="1136" 
d="M240 1155l255 234h151l249 -234h-189l-138 133l-150 -133h-178zM569 -20c-291 0 -481 192 -481 532c0 325 176 542 482 542c291 0 478 -198 478 -542c0 -314 -168 -532 -479 -532zM570 145c177 0 267 149 267 373c0 206 -75 372 -267 372c-179 0 -270 -145 -270 -372
c0 -203 75 -373 270 -373zM463 -369v194h212v-194h-212z" />
    <glyph glyph-name="uni1ED3" unicode="&#x1ed3;" horiz-adv-x="1136" 
d="M859 1382l-215 248h188l158 -248h-131zM240 1155l255 234h151l249 -234h-189l-138 133l-150 -133h-178zM569 -20c-291 0 -481 192 -481 532c0 325 176 542 482 542c291 0 478 -198 478 -542c0 -314 -168 -532 -479 -532zM570 145c177 0 267 149 267 373
c0 206 -75 372 -267 372c-179 0 -270 -145 -270 -372c0 -203 75 -373 270 -373z" />
    <glyph glyph-name="uni1ED5" unicode="&#x1ed5;" horiz-adv-x="1136" 
d="M822 1336l-58 91c56 35 82 86 54 131c-27 43 -89 41 -141 6l-59 90c116 74 238 54 295 -33c68 -104 32 -210 -91 -285zM245 1155l255 234h151l249 -234h-189l-138 133l-150 -133h-178zM569 -20c-291 0 -481 192 -481 532c0 325 176 542 482 542c291 0 478 -198 478 -542
c0 -314 -168 -532 -479 -532zM570 145c177 0 267 149 267 373c0 206 -75 372 -267 372c-179 0 -270 -145 -270 -372c0 -203 75 -373 270 -373z" />
    <glyph glyph-name="uni1ED7" unicode="&#x1ed7;" horiz-adv-x="1136" 
d="M294 1493l-37 121c45 44 92 80 173 80c102 0 183 -58 272 -58c62 0 107 29 147 60l34 -136c-37 -28 -96 -61 -181 -61c-108 0 -169 53 -263 53c-66 0 -101 -25 -145 -59zM242 1155l254 234h152l249 -234h-189l-138 133l-150 -133h-178zM569 -20c-291 0 -481 192 -481 532
c0 325 176 542 482 542c291 0 478 -198 478 -542c0 -314 -168 -532 -479 -532zM570 145c177 0 267 149 267 373c0 206 -75 372 -267 372c-179 0 -270 -145 -270 -372c0 -203 75 -373 270 -373z" />
    <glyph glyph-name="uni020D" unicode="&#x20d;" horiz-adv-x="1136" 
d="M337 1155l-297 291h219l239 -291h-161zM636 1155l-250 291h214l197 -291h-161zM569 -20c-291 0 -481 192 -481 532c0 325 176 542 482 542c291 0 478 -198 478 -542c0 -314 -168 -532 -479 -532zM570 145c177 0 267 149 267 373c0 206 -75 372 -267 372
c-179 0 -270 -145 -270 -372c0 -203 75 -373 270 -373z" />
    <glyph glyph-name="odieresis" unicode="&#xf6;" horiz-adv-x="1136" 
d="M670 1251l2 195h206l-2 -195h-206zM260 1251l2 195h206l-2 -195h-206zM569 -20c-291 0 -481 192 -481 532c0 325 176 542 482 542c291 0 478 -198 478 -542c0 -314 -168 -532 -479 -532zM570 145c177 0 267 149 267 373c0 206 -75 372 -267 372
c-179 0 -270 -145 -270 -372c0 -203 75 -373 270 -373z" />
    <glyph glyph-name="uni1ECD" unicode="&#x1ecd;" horiz-adv-x="1136" 
d="M569 -20c-291 0 -481 192 -481 532c0 325 176 542 482 542c291 0 478 -198 478 -542c0 -314 -168 -532 -479 -532zM570 145c177 0 267 149 267 373c0 206 -75 372 -267 372c-179 0 -270 -145 -270 -372c0 -203 75 -373 270 -373zM463 -369v194h212v-194h-212z" />
    <glyph glyph-name="ograve" unicode="&#xf2;" horiz-adv-x="1136" 
d="M491 1155l-280 291h235l206 -291h-161zM569 -20c-291 0 -481 192 -481 532c0 325 176 542 482 542c291 0 478 -198 478 -542c0 -314 -168 -532 -479 -532zM570 145c177 0 267 149 267 373c0 206 -75 372 -267 372c-179 0 -270 -145 -270 -372c0 -203 75 -373 270 -373z
" />
    <glyph glyph-name="uni1ECF" unicode="&#x1ecf;" horiz-adv-x="1136" 
d="M635 1152l-58 91c55 35 82 86 54 131c-27 43 -90 41 -142 6l-58 90c115 74 238 54 295 -33c68 -104 32 -210 -91 -285zM569 -20c-291 0 -481 192 -481 532c0 325 176 542 482 542c291 0 478 -198 478 -542c0 -314 -168 -532 -479 -532zM570 145c177 0 267 149 267 373
c0 206 -75 372 -267 372c-179 0 -270 -145 -270 -372c0 -203 75 -373 270 -373z" />
    <glyph glyph-name="ohorn" unicode="&#x1a1;" horiz-adv-x="1225" 
d="M569 -20c-291 0 -481 192 -481 532c0 325 176 542 482 542c146 0 266 -50 349 -143c92 6 127 40 137 202h159c-1 -206 -59 -307 -223 -321c37 -75 56 -168 56 -280c0 -314 -168 -532 -479 -532zM570 145c177 0 267 149 267 373c0 206 -75 372 -267 372
c-179 0 -270 -145 -270 -372c0 -203 75 -373 270 -373z" />
    <glyph glyph-name="uni1EDB" unicode="&#x1edb;" horiz-adv-x="1225" 
d="M484 1155l206 291h235l-280 -291h-161zM569 -20c-291 0 -481 192 -481 532c0 325 176 542 482 542c146 0 266 -50 349 -143c92 6 127 40 137 202h159c-1 -206 -59 -307 -223 -321c37 -75 56 -168 56 -280c0 -314 -168 -532 -479 -532zM570 145c177 0 267 149 267 373
c0 206 -75 372 -267 372c-179 0 -270 -145 -270 -372c0 -203 75 -373 270 -373z" />
    <glyph glyph-name="uni1EE3" unicode="&#x1ee3;" horiz-adv-x="1225" 
d="M569 -20c-291 0 -481 192 -481 532c0 325 176 542 482 542c146 0 266 -50 349 -143c92 6 127 40 137 202h159c-1 -206 -59 -307 -223 -321c37 -75 56 -168 56 -280c0 -314 -168 -532 -479 -532zM570 145c177 0 267 149 267 373c0 206 -75 372 -267 372
c-179 0 -270 -145 -270 -372c0 -203 75 -373 270 -373zM443 -369v194h212v-194h-212z" />
    <glyph glyph-name="uni1EDD" unicode="&#x1edd;" horiz-adv-x="1225" 
d="M480 1155l-280 291h236l206 -291h-162zM569 -20c-291 0 -481 192 -481 532c0 325 176 542 482 542c146 0 266 -50 349 -143c92 6 127 40 137 202h159c-1 -206 -59 -307 -223 -321c37 -75 56 -168 56 -280c0 -314 -168 -532 -479 -532zM570 145c177 0 267 149 267 373
c0 206 -75 372 -267 372c-179 0 -270 -145 -270 -372c0 -203 75 -373 270 -373z" />
    <glyph glyph-name="uni1EDF" unicode="&#x1edf;" horiz-adv-x="1225" 
d="M628 1152l-58 91c56 35 82 86 54 131c-26 43 -89 41 -141 6l-59 90c116 74 238 54 295 -33c68 -104 32 -210 -91 -285zM569 -20c-291 0 -481 192 -481 532c0 325 176 542 482 542c146 0 266 -50 349 -143c92 6 127 40 137 202h159c-1 -206 -59 -307 -223 -321
c37 -75 56 -168 56 -280c0 -314 -168 -532 -479 -532zM570 145c177 0 267 149 267 373c0 206 -75 372 -267 372c-179 0 -270 -145 -270 -372c0 -203 75 -373 270 -373z" />
    <glyph glyph-name="uni1EE1" unicode="&#x1ee1;" horiz-adv-x="1225" 
d="M290 1212l-37 121c46 44 93 79 174 79c102 0 183 -57 272 -57c62 0 106 29 147 59l33 -135c-36 -29 -95 -62 -180 -62c-109 0 -170 53 -264 53c-65 0 -101 -24 -145 -58zM569 -20c-291 0 -481 192 -481 532c0 325 176 542 482 542c146 0 266 -50 349 -143
c92 6 127 40 137 202h159c-1 -206 -59 -307 -223 -321c37 -75 56 -168 56 -280c0 -314 -168 -532 -479 -532zM570 145c177 0 267 149 267 373c0 206 -75 372 -267 372c-179 0 -270 -145 -270 -372c0 -203 75 -373 270 -373z" />
    <glyph glyph-name="ohungarumlaut" unicode="&#x151;" horiz-adv-x="1136" 
d="M642 1155l239 291h219l-297 -291h-161zM343 1155l197 291h213l-249 -291h-161zM569 -20c-291 0 -481 192 -481 532c0 325 176 542 482 542c291 0 478 -198 478 -542c0 -314 -168 -532 -479 -532zM570 145c177 0 267 149 267 373c0 206 -75 372 -267 372
c-179 0 -270 -145 -270 -372c0 -203 75 -373 270 -373z" />
    <glyph glyph-name="uni020F" unicode="&#x20f;" horiz-adv-x="1136" 
d="M249 1200c32 149 162 227 315 227c159 0 286 -82 318 -227h-147c-23 64 -87 110 -171 110c-85 0 -145 -46 -167 -110h-148zM569 -20c-291 0 -481 192 -481 532c0 325 176 542 482 542c291 0 478 -198 478 -542c0 -314 -168 -532 -479 -532zM570 145
c177 0 267 149 267 373c0 206 -75 372 -267 372c-179 0 -270 -145 -270 -372c0 -203 75 -373 270 -373z" />
    <glyph glyph-name="omacron" unicode="&#x14d;" horiz-adv-x="1136" 
d="M256 1227v146h625v-146h-625zM569 -20c-291 0 -481 192 -481 532c0 325 176 542 482 542c291 0 478 -198 478 -542c0 -314 -168 -532 -479 -532zM570 145c177 0 267 149 267 373c0 206 -75 372 -267 372c-179 0 -270 -145 -270 -372c0 -203 75 -373 270 -373z" />
    <glyph glyph-name="uni01EB" unicode="&#x1eb;" horiz-adv-x="1136" 
d="M596 -332c-131 0 -203 60 -203 160c0 60 26 112 112 155c-255 27 -417 215 -417 529c0 325 176 542 482 542c291 0 478 -198 478 -542c0 -250 -106 -438 -305 -505c-134 -54 -184 -97 -184 -158c0 -47 26 -70 86 -70c63 0 113 20 144 38v-106c-34 -21 -111 -43 -193 -43z
M570 145c177 0 267 149 267 373c0 206 -75 372 -267 372c-179 0 -270 -145 -270 -372c0 -203 75 -373 270 -373z" />
    <glyph glyph-name="oslash" unicode="&#xf8;" horiz-adv-x="1186" 
d="M124 -12l-81 85l141 135c-44 82 -68 184 -68 304c0 325 176 542 482 542c137 0 252 -44 334 -127l122 116l80 -85l-131 -126c47 -85 73 -192 73 -320c0 -314 -169 -532 -479 -532c-142 0 -260 46 -343 132zM327 518c0 -55 6 -108 18 -155l449 431c-43 60 -107 96 -196 96
c-179 0 -271 -145 -271 -372zM598 145c176 0 267 149 267 373c0 59 -6 114 -19 163l-451 -434c43 -63 109 -102 203 -102z" />
    <glyph glyph-name="oslashacute" unicode="&#x1ff;" horiz-adv-x="1186" 
d="M501 1155l206 291h235l-280 -291h-161zM124 -12l-81 85l141 135c-44 82 -68 184 -68 304c0 325 176 542 482 542c137 0 252 -44 334 -127l122 116l80 -85l-131 -126c47 -85 73 -192 73 -320c0 -314 -169 -532 -479 -532c-142 0 -260 46 -343 132zM327 518
c0 -55 6 -108 18 -155l449 431c-43 60 -107 96 -196 96c-179 0 -271 -145 -271 -372zM598 145c176 0 267 149 267 373c0 59 -6 114 -19 163l-451 -434c43 -63 109 -102 203 -102z" />
    <glyph glyph-name="otilde" unicode="&#xf5;" horiz-adv-x="1136" 
d="M297 1212l-37 121c45 44 93 79 173 79c103 0 184 -57 272 -57c63 0 107 29 148 59l33 -135c-37 -29 -96 -62 -181 -62c-108 0 -169 53 -263 53c-66 0 -101 -24 -145 -58zM569 -20c-291 0 -481 192 -481 532c0 325 176 542 482 542c291 0 478 -198 478 -542
c0 -314 -168 -532 -479 -532zM570 145c177 0 267 149 267 373c0 206 -75 372 -267 372c-179 0 -270 -145 -270 -372c0 -203 75 -373 270 -373z" />
    <glyph glyph-name="oe" unicode="&#x153;" horiz-adv-x="1888" 
d="M1789 538v-71h-728c0 -185 93 -325 277 -325c123 0 221 56 248 167h198c-37 -213 -237 -329 -442 -329c-174 0 -315 76 -393 214c-71 -134 -197 -214 -380 -214c-291 0 -481 192 -481 532c0 325 176 542 482 542c171 0 306 -72 380 -216c72 137 203 216 379 216
c298 0 460 -203 460 -516zM1062 606h524c0 163 -84 291 -259 291c-177 0 -266 -148 -265 -291zM570 145c177 0 267 149 267 373c0 206 -75 372 -267 372c-179 0 -270 -145 -270 -372c0 -203 75 -373 270 -373z" />
    <glyph glyph-name="p" unicode="p" horiz-adv-x="1197" 
d="M145 -322v1356h214l2 -172c51 88 158 192 334 192c243 0 414 -167 414 -525c0 -360 -167 -549 -432 -549c-171 0 -270 108 -317 198v-500h-215zM632 143c158 0 272 119 272 382c0 225 -98 366 -272 366c-181 0 -273 -151 -273 -366c0 -210 92 -382 273 -382z" />
    <glyph glyph-name="thorn" unicode="&#xfe;" horiz-adv-x="1187" 
d="M145 -322v1768h213v-551c54 60 141 159 323 159c235 0 418 -170 418 -525c0 -359 -181 -549 -437 -549c-114 0 -202 39 -271 99c-25 22 -32 20 -32 -12v-389h-214zM594 125c169 0 287 129 287 405c0 273 -124 378 -279 378c-142 0 -243 -106 -243 -199v-467
c67 -70 141 -117 235 -117z" />
    <glyph glyph-name="q" unicode="q" horiz-adv-x="1197" 
d="M837 -322v500c-47 -90 -146 -198 -317 -198c-244 0 -432 164 -432 549c0 335 151 525 414 525c176 0 283 -104 334 -192l3 172h213v-1356h-215zM565 143c181 0 274 172 274 382c0 215 -93 366 -274 366c-158 0 -272 -121 -272 -366c0 -242 98 -382 272 -382z" />
    <glyph glyph-name="r" unicode="r" horiz-adv-x="793" 
d="M145 0v1034h205v-212c51 152 172 232 312 232c27 0 55 -3 70 -11v-206c-18 8 -50 10 -69 11c-183 13 -304 -63 -304 -226v-622h-214z" />
    <glyph glyph-name="racute" unicode="&#x155;" horiz-adv-x="793" 
d="M341 1155l206 291h235l-280 -291h-161zM145 0v1034h205v-212c51 152 172 232 312 232c27 0 55 -3 70 -11v-206c-18 8 -50 10 -69 11c-183 13 -304 -63 -304 -226v-622h-214z" />
    <glyph glyph-name="rcaron" unicode="&#x159;" horiz-adv-x="793" 
d="M354 1155l-255 235h180l150 -139l137 139h190l-249 -235h-153zM145 0v1034h205v-212c51 152 172 232 312 232c27 0 55 -3 70 -11v-206c-18 8 -50 10 -69 11c-183 13 -304 -63 -304 -226v-622h-214z" />
    <glyph glyph-name="uni0157" unicode="&#x157;" horiz-adv-x="793" 
d="M145 0v1034h205v-212c51 152 172 232 312 232c27 0 55 -3 70 -11v-206c-18 8 -50 10 -69 11c-183 13 -304 -63 -304 -226v-622h-214zM133 -397l85 131l-68 7v163h204v-137l-137 -164h-84z" />
    <glyph glyph-name="uni0211" unicode="&#x211;" horiz-adv-x="793" 
d="M198 1155l-297 291h219l239 -291h-161zM497 1155l-250 291h213l198 -291h-161zM145 0v1034h205v-212c51 152 172 232 312 232c27 0 55 -3 70 -11v-206c-18 8 -50 10 -69 11c-183 13 -304 -63 -304 -226v-622h-214z" />
    <glyph glyph-name="uni1E5B" unicode="&#x1e5b;" horiz-adv-x="793" 
d="M145 0v1034h205v-212c51 152 172 232 312 232c27 0 55 -3 70 -11v-206c-18 8 -50 10 -69 11c-183 13 -304 -63 -304 -226v-622h-214zM145 -369v194h212v-194h-212z" />
    <glyph glyph-name="uni0213" unicode="&#x213;" horiz-adv-x="793" 
d="M110 1183c32 148 162 227 315 227c158 0 286 -83 317 -227h-147c-22 64 -86 109 -170 109c-85 0 -145 -45 -167 -109h-148zM145 0v1034h205v-212c51 152 172 232 312 232c27 0 55 -3 70 -11v-206c-18 8 -50 10 -69 11c-183 13 -304 -63 -304 -226v-622h-214z" />
    <glyph glyph-name="s" unicode="s" horiz-adv-x="1023" 
d="M530 -20c-217 0 -408 99 -440 328h191c26 -118 130 -173 248 -173c131 0 220 46 220 145c0 71 -42 111 -136 132l-206 49c-171 39 -282 120 -283 279c-1 182 137 314 405 314c233 0 386 -107 391 -304h-185c-14 94 -89 152 -208 152c-123 0 -210 -48 -210 -148
c0 -68 58 -103 172 -129l196 -49c202 -52 253 -185 253 -284c0 -195 -155 -312 -408 -312z" />
    <glyph glyph-name="sacute" unicode="&#x15b;" horiz-adv-x="1023" 
d="M442 1155l206 291h236l-280 -291h-162zM530 -20c-217 0 -408 99 -440 328h191c26 -118 130 -173 248 -173c131 0 220 46 220 145c0 71 -42 111 -136 132l-206 49c-171 39 -282 120 -283 279c-1 182 137 314 405 314c233 0 386 -107 391 -304h-185
c-14 94 -89 152 -208 152c-123 0 -210 -48 -210 -148c0 -68 58 -103 172 -129l196 -49c202 -52 253 -185 253 -284c0 -195 -155 -312 -408 -312z" />
    <glyph glyph-name="scaron" unicode="&#x161;" horiz-adv-x="1023" 
d="M456 1155l-255 235h180l149 -139l138 139h189l-249 -235h-152zM530 -20c-217 0 -408 99 -440 328h191c26 -118 130 -173 248 -173c131 0 220 46 220 145c0 71 -42 111 -136 132l-206 49c-171 39 -282 120 -283 279c-1 182 137 314 405 314c233 0 386 -107 391 -304h-185
c-14 94 -89 152 -208 152c-123 0 -210 -48 -210 -148c0 -68 58 -103 172 -129l196 -49c202 -52 253 -185 253 -284c0 -195 -155 -312 -408 -312z" />
    <glyph glyph-name="scedilla" unicode="&#x15f;" horiz-adv-x="1023" 
d="M491 -415c-75 0 -143 14 -201 51l34 83c36 -26 82 -48 141 -48c70 0 106 26 106 70c0 56 -46 84 -162 87c-15 0 -19 3 -14 15l62 141c-185 20 -339 121 -367 324h191c26 -118 130 -173 248 -173c131 0 220 46 220 145c0 71 -42 111 -136 132l-206 49
c-171 39 -282 120 -283 279c-1 182 137 314 405 314c233 0 386 -107 391 -304h-185c-14 94 -89 152 -208 152c-123 0 -210 -48 -210 -148c0 -68 58 -103 172 -129l196 -49c202 -52 253 -185 253 -284c0 -186 -141 -301 -375 -311l-35 -91c140 -5 186 -82 186 -149
c0 -101 -103 -156 -223 -156z" />
    <glyph glyph-name="scircumflex" unicode="&#x15d;" horiz-adv-x="1023" 
d="M202 1155l255 234h151l249 -234h-189l-138 133l-149 -133h-179zM530 -20c-217 0 -408 99 -440 328h191c26 -118 130 -173 248 -173c131 0 220 46 220 145c0 71 -42 111 -136 132l-206 49c-171 39 -282 120 -283 279c-1 182 137 314 405 314c233 0 386 -107 391 -304h-185
c-14 94 -89 152 -208 152c-123 0 -210 -48 -210 -148c0 -68 58 -103 172 -129l196 -49c202 -52 253 -185 253 -284c0 -195 -155 -312 -408 -312z" />
    <glyph glyph-name="uni0219" unicode="&#x219;" horiz-adv-x="1023" 
d="M530 -20c-217 0 -408 99 -440 328h191c26 -118 130 -173 248 -173c131 0 220 46 220 145c0 71 -42 111 -136 132l-206 49c-171 39 -282 120 -283 279c-1 182 137 314 405 314c233 0 386 -107 391 -304h-185c-14 94 -89 152 -208 152c-123 0 -210 -48 -210 -148
c0 -68 58 -103 172 -129l196 -49c202 -52 253 -185 253 -284c0 -195 -155 -312 -408 -312zM398 -397l85 131l-68 7v163h204v-137l-137 -164h-84z" />
    <glyph glyph-name="uni1E63" unicode="&#x1e63;" horiz-adv-x="1023" 
d="M530 -20c-217 0 -408 99 -440 328h191c26 -118 130 -173 248 -173c131 0 220 46 220 145c0 71 -42 111 -136 132l-206 49c-171 39 -282 120 -283 279c-1 182 137 314 405 314c233 0 386 -107 391 -304h-185c-14 94 -89 152 -208 152c-123 0 -210 -48 -210 -148
c0 -68 58 -103 172 -129l196 -49c202 -52 253 -185 253 -284c0 -195 -155 -312 -408 -312zM410 -369v194h212v-194h-212z" />
    <glyph glyph-name="germandbls" unicode="&#xdf;" horiz-adv-x="1199" 
d="M711 -20c-102 0 -205 27 -272 69l71 138c53 -31 105 -60 189 -60c130 0 218 63 218 178c0 125 -105 164 -231 209c-107 41 -214 96 -214 236c0 99 56 158 156 220c72 51 152 91 152 186c0 85 -66 143 -184 143c-144 0 -238 -90 -238 -255v-1044h-211l-2 1005
c4 248 150 441 466 441c254 0 367 -125 367 -282c0 -149 -97 -211 -245 -279c-69 -36 -95 -51 -95 -91s23 -52 92 -74c166 -65 384 -139 384 -394c0 -226 -172 -346 -403 -346z" />
    <glyph glyph-name="t" unicode="t" horiz-adv-x="793" 
d="M542 -7c-230 0 -291 96 -291 262v625h-168v154h175l52 304h156v-303h232v-155h-232l1 -617c0 -101 28 -111 116 -111h120v-139c-26 -11 -78 -20 -161 -20z" />
    <glyph glyph-name="tbar" unicode="&#x167;" horiz-adv-x="793" 
d="M96 527v130h155v223h-168v154h175l52 304h156v-303h232v-155h-232v-223h219v-130h-219l1 -264c0 -101 28 -111 116 -111h120v-139c-26 -11 -78 -20 -161 -20c-230 0 -291 96 -291 262v272h-155z" />
    <glyph glyph-name="tcaron" unicode="&#x165;" horiz-adv-x="860" 
d="M547 1129l78 188l-59 11v202h165v-212l-81 -189h-103zM542 -7c-230 0 -291 96 -291 262v625h-168v154h175l52 304h156v-303h232v-155h-232l1 -617c0 -101 28 -111 116 -111h120v-139c-26 -11 -78 -20 -161 -20z" />
    <glyph glyph-name="uni0163" unicode="&#x163;" horiz-adv-x="793" 
d="M542 -7h-22l-37 -95c140 -5 186 -82 186 -149c0 -101 -103 -157 -223 -157c-75 0 -143 15 -201 52l33 83c37 -26 83 -48 142 -48c70 0 106 26 106 70c0 56 -47 84 -163 86c-14 0 -18 4 -13 15l68 156c-129 31 -167 118 -167 249v625h-168v154h175l52 304h156v-303h232
v-155h-232l1 -617c0 -101 28 -111 116 -111h120v-139c-26 -11 -78 -20 -161 -20z" />
    <glyph glyph-name="uni021B" unicode="&#x21b;" horiz-adv-x="793" 
d="M542 -7c-230 0 -291 96 -291 262v625h-168v154h175l52 304h156v-303h232v-155h-232l1 -617c0 -101 28 -111 116 -111h120v-139c-26 -11 -78 -20 -161 -20zM353 -389l84 131l-67 6v164h204v-137l-137 -164h-84z" />
    <glyph glyph-name="uni1E6D" unicode="&#x1e6d;" horiz-adv-x="793" 
d="M542 -7c-230 0 -291 96 -291 262v625h-168v154h175l52 304h156v-303h232v-155h-232l1 -617c0 -101 28 -111 116 -111h120v-139c-26 -11 -78 -20 -161 -20zM365 -362v195h212v-195h-212z" />
    <glyph glyph-name="u" unicode="u" horiz-adv-x="1169" 
d="M525 -20c-208 2 -396 119 -396 349v705h215v-682c0 -124 77 -209 233 -209c141 0 234 75 234 218v673h213v-1034h-166l-24 200c-37 -162 -169 -221 -309 -220z" />
    <glyph glyph-name="uacute" unicode="&#xfa;" horiz-adv-x="1169" 
d="M491 1155l206 291h235l-280 -291h-161zM525 -20c-208 2 -396 119 -396 349v705h215v-682c0 -124 77 -209 233 -209c141 0 234 75 234 218v673h213v-1034h-166l-24 200c-37 -162 -169 -221 -309 -220z" />
    <glyph glyph-name="ubreve" unicode="&#x16d;" horiz-adv-x="1169" 
d="M578 1153c-152 0 -283 78 -314 227h148c21 -64 81 -110 166 -110s148 46 171 110h147c-31 -145 -159 -227 -318 -227zM525 -20c-208 2 -396 119 -396 349v705h215v-682c0 -124 77 -209 233 -209c141 0 234 75 234 218v673h213v-1034h-166l-24 200
c-37 -162 -169 -221 -309 -220z" />
    <glyph glyph-name="uni01D4" unicode="&#x1d4;" horiz-adv-x="1169" 
d="M505 1155l-255 235h179l150 -139l138 139h189l-249 -235h-152zM525 -20c-208 2 -396 119 -396 349v705h215v-682c0 -124 77 -209 233 -209c141 0 234 75 234 218v673h213v-1034h-166l-24 200c-37 -162 -169 -221 -309 -220z" />
    <glyph glyph-name="ucircumflex" unicode="&#xfb;" horiz-adv-x="1169" 
d="M251 1155l255 234h151l249 -234h-189l-138 133l-150 -133h-178zM525 -20c-208 2 -396 119 -396 349v705h215v-682c0 -124 77 -209 233 -209c141 0 234 75 234 218v673h213v-1034h-166l-24 200c-37 -162 -169 -221 -309 -220z" />
    <glyph glyph-name="uni0215" unicode="&#x215;" horiz-adv-x="1169" 
d="M348 1155l-297 291h219l239 -291h-161zM647 1155l-250 291h214l197 -291h-161zM525 -20c-208 2 -396 119 -396 349v705h215v-682c0 -124 77 -209 233 -209c141 0 234 75 234 218v673h213v-1034h-166l-24 200c-37 -162 -169 -221 -309 -220z" />
    <glyph glyph-name="udieresis" unicode="&#xfc;" horiz-adv-x="1169" 
d="M681 1251l2 195h206l-2 -195h-206zM271 1251l2 195h206l-2 -195h-206zM525 -20c-208 2 -396 119 -396 349v705h215v-682c0 -124 77 -209 233 -209c141 0 234 75 234 218v673h213v-1034h-166l-24 200c-37 -162 -169 -221 -309 -220z" />
    <glyph glyph-name="uni1EE5" unicode="&#x1ee5;" horiz-adv-x="1169" 
d="M525 -20c-208 2 -396 119 -396 349v705h215v-682c0 -124 77 -209 233 -209c141 0 234 75 234 218v673h213v-1034h-166l-24 200c-37 -162 -169 -221 -309 -220zM476 -369v194h213v-194h-213z" />
    <glyph glyph-name="ugrave" unicode="&#xf9;" horiz-adv-x="1169" 
d="M502 1155l-280 291h235l206 -291h-161zM525 -20c-208 2 -396 119 -396 349v705h215v-682c0 -124 77 -209 233 -209c141 0 234 75 234 218v673h213v-1034h-166l-24 200c-37 -162 -169 -221 -309 -220z" />
    <glyph glyph-name="uni1EE7" unicode="&#x1ee7;" horiz-adv-x="1169" 
d="M646 1152l-58 91c55 35 82 86 54 131c-27 43 -90 41 -142 6l-58 90c115 74 238 54 295 -33c68 -104 32 -210 -91 -285zM525 -20c-208 2 -396 119 -396 349v705h215v-682c0 -124 77 -209 233 -209c141 0 234 75 234 218v673h213v-1034h-166l-24 200
c-37 -162 -169 -221 -309 -220z" />
    <glyph glyph-name="uhorn" unicode="&#x1b0;" horiz-adv-x="1336" 
d="M525 -20c-208 2 -396 119 -396 349v705h215v-682c0 -124 77 -209 233 -209c141 0 234 75 234 218v673h213v-124c99 2 136 37 146 203h160c-2 -237 -80 -337 -306 -322v-791h-166l-24 200c-37 -162 -169 -221 -309 -220z" />
    <glyph glyph-name="uni1EE9" unicode="&#x1ee9;" horiz-adv-x="1336" 
d="M509 1155l206 291h235l-280 -291h-161zM525 -20c-208 2 -396 119 -396 349v705h215v-682c0 -124 77 -209 233 -209c141 0 234 75 234 218v673h213v-124c99 2 136 37 146 203h160c-2 -237 -80 -337 -306 -322v-791h-166l-24 200c-37 -162 -169 -221 -309 -220z" />
    <glyph glyph-name="uni1EF1" unicode="&#x1ef1;" horiz-adv-x="1336" 
d="M525 -20c-208 2 -396 119 -396 349v705h215v-682c0 -124 77 -209 233 -209c141 0 234 75 234 218v673h213v-124c99 2 136 37 146 203h160c-2 -237 -80 -337 -306 -322v-791h-166l-24 200c-37 -162 -169 -221 -309 -220zM471 -369v194h212v-194h-212z" />
    <glyph glyph-name="uni1EEB" unicode="&#x1eeb;" horiz-adv-x="1336" 
d="M506 1155l-280 291h235l206 -291h-161zM525 -20c-208 2 -396 119 -396 349v705h215v-682c0 -124 77 -209 233 -209c141 0 234 75 234 218v673h213v-124c99 2 136 37 146 203h160c-2 -237 -80 -337 -306 -322v-791h-166l-24 200c-37 -162 -169 -221 -309 -220z" />
    <glyph glyph-name="uni1EED" unicode="&#x1eed;" horiz-adv-x="1336" 
d="M654 1152l-58 91c56 35 82 86 54 131c-27 43 -89 41 -142 6l-58 90c115 74 238 54 295 -33c68 -104 32 -210 -91 -285zM525 -20c-208 2 -396 119 -396 349v705h215v-682c0 -124 77 -209 233 -209c141 0 234 75 234 218v673h213v-124c99 2 136 37 146 203h160
c-2 -237 -80 -337 -306 -322v-791h-166l-24 200c-37 -162 -169 -221 -309 -220z" />
    <glyph glyph-name="uni1EEF" unicode="&#x1eef;" horiz-adv-x="1336" 
d="M316 1212l-37 121c45 44 93 79 173 79c103 0 184 -57 273 -57c62 0 106 29 147 59l33 -135c-37 -29 -96 -62 -181 -62c-108 0 -169 53 -263 53c-66 0 -101 -24 -145 -58zM525 -20c-208 2 -396 119 -396 349v705h215v-682c0 -124 77 -209 233 -209c141 0 234 75 234 218
v673h213v-124c99 2 136 37 146 203h160c-2 -237 -80 -337 -306 -322v-791h-166l-24 200c-37 -162 -169 -221 -309 -220z" />
    <glyph glyph-name="uhungarumlaut" unicode="&#x171;" horiz-adv-x="1169" 
d="M653 1155l239 291h219l-297 -291h-161zM354 1155l197 291h213l-249 -291h-161zM525 -20c-208 2 -396 119 -396 349v705h215v-682c0 -124 77 -209 233 -209c141 0 234 75 234 218v673h213v-1034h-166l-24 200c-37 -162 -169 -221 -309 -220z" />
    <glyph glyph-name="uni0217" unicode="&#x217;" horiz-adv-x="1169" 
d="M260 1200c32 149 162 227 315 227c159 0 286 -82 318 -227h-147c-23 64 -87 110 -171 110c-85 0 -145 -46 -167 -110h-148zM525 -20c-208 2 -396 119 -396 349v705h215v-682c0 -124 77 -209 233 -209c141 0 234 75 234 218v673h213v-1034h-166l-24 200
c-37 -162 -169 -221 -309 -220z" />
    <glyph glyph-name="umacron" unicode="&#x16b;" horiz-adv-x="1169" 
d="M267 1227v146h625v-146h-625zM525 -20c-208 2 -396 119 -396 349v705h215v-682c0 -124 77 -209 233 -209c141 0 234 75 234 218v673h213v-1034h-166l-24 200c-37 -162 -169 -221 -309 -220z" />
    <glyph glyph-name="uogonek" unicode="&#x173;" horiz-adv-x="1169" 
d="M525 -20c-208 2 -396 119 -396 349v705h215v-682c0 -124 77 -209 233 -209c141 0 234 75 234 218v673h213v-1034h-24c-125 -52 -173 -94 -173 -153c0 -47 26 -71 86 -71c63 0 113 21 144 39v-107c-34 -20 -110 -42 -192 -42c-132 0 -204 59 -204 160c0 77 43 140 195 188
l-22 186c-37 -162 -169 -221 -309 -220z" />
    <glyph glyph-name="uring" unicode="&#x16f;" horiz-adv-x="1169" 
d="M580 1148c-117 0 -209 93 -209 213c0 112 94 202 209 202c117 0 210 -91 210 -206c0 -118 -93 -209 -210 -209zM578 1249c59 0 105 51 105 107c0 61 -46 105 -105 105c-56 0 -106 -44 -106 -105c0 -56 50 -107 106 -107zM525 -20c-208 2 -396 119 -396 349v705h215v-682
c0 -124 77 -209 233 -209c141 0 234 75 234 218v673h213v-1034h-166l-24 200c-37 -162 -169 -221 -309 -220z" />
    <glyph glyph-name="utilde" unicode="&#x169;" horiz-adv-x="1169" 
d="M308 1212l-37 121c45 44 93 79 173 79c103 0 184 -57 272 -57c63 0 107 29 148 59l33 -135c-37 -29 -96 -62 -181 -62c-108 0 -169 53 -263 53c-66 0 -101 -24 -145 -58zM525 -20c-208 2 -396 119 -396 349v705h215v-682c0 -124 77 -209 233 -209c141 0 234 75 234 218
v673h213v-1034h-166l-24 200c-37 -162 -169 -221 -309 -220z" />
    <glyph glyph-name="v" unicode="v" horiz-adv-x="1018" 
d="M420 0l-378 1034h198l262 -763h14l262 763h198l-376 -1034h-180z" />
    <glyph glyph-name="w" unicode="w" horiz-adv-x="1564" 
d="M370 0l-324 1034h195l226 -753h14l221 753h159l228 -751h14l218 751h198l-321 -1034h-196l-224 726l-215 -726h-193z" />
    <glyph glyph-name="wacute" unicode="&#x1e83;" horiz-adv-x="1564" 
d="M702 1155l206 291h235l-280 -291h-161zM370 0l-324 1034h195l226 -753h14l221 753h159l228 -751h14l218 751h198l-321 -1034h-196l-224 726l-215 -726h-193z" />
    <glyph glyph-name="wcircumflex" unicode="&#x175;" horiz-adv-x="1564" 
d="M461 1155l255 234h151l249 -234h-189l-137 133l-150 -133h-179zM370 0l-324 1034h195l226 -753h14l221 753h159l228 -751h14l218 751h198l-321 -1034h-196l-224 726l-215 -726h-193z" />
    <glyph glyph-name="wdieresis" unicode="&#x1e85;" horiz-adv-x="1564" 
d="M891 1251l2 195h206l-1 -195h-207zM481 1251l2 195h206l-1 -195h-207zM370 0l-324 1034h195l226 -753h14l221 753h159l228 -751h14l218 751h198l-321 -1034h-196l-224 726l-215 -726h-193z" />
    <glyph glyph-name="wgrave" unicode="&#x1e81;" horiz-adv-x="1564" 
d="M712 1155l-279 291h235l206 -291h-162zM370 0l-324 1034h195l226 -753h14l221 753h159l228 -751h14l218 751h198l-321 -1034h-196l-224 726l-215 -726h-193z" />
    <glyph glyph-name="x" unicode="x" horiz-adv-x="1142" 
d="M55 0l398 538l-365 496h230l254 -343l254 343h230l-368 -496l399 -538h-230l-286 387l-285 -387h-231z" />
    <glyph glyph-name="y" unicode="y" horiz-adv-x="1085" 
d="M264 -330c-126 0 -168 28 -168 28v138l105 -2c161 -7 194 64 212 109l32 87l-403 1004h214l290 -764l289 764h209l-431 -1092c-88 -216 -201 -272 -349 -272z" />
    <glyph glyph-name="yacute" unicode="&#xfd;" horiz-adv-x="1085" 
d="M457 1155l206 291h235l-280 -291h-161zM264 -330c-126 0 -168 28 -168 28v138l105 -2c161 -7 194 64 212 109l32 87l-403 1004h214l290 -764l289 764h209l-431 -1092c-88 -216 -201 -272 -349 -272z" />
    <glyph glyph-name="ycircumflex" unicode="&#x177;" horiz-adv-x="1085" 
d="M222 1155l255 234h151l249 -234h-189l-138 133l-149 -133h-179zM264 -330c-126 0 -168 28 -168 28v138l105 -2c161 -7 194 64 212 109l32 87l-403 1004h214l290 -764l289 764h209l-431 -1092c-88 -216 -201 -272 -349 -272z" />
    <glyph glyph-name="ydieresis" unicode="&#xff;" horiz-adv-x="1085" 
d="M647 1251l2 195h206l-2 -195h-206zM237 1251l2 195h206l-2 -195h-206zM264 -330c-126 0 -168 28 -168 28v138l105 -2c161 -7 194 64 212 109l32 87l-403 1004h214l290 -764l289 764h209l-431 -1092c-88 -216 -201 -272 -349 -272z" />
    <glyph glyph-name="uni1EF5" unicode="&#x1ef5;" horiz-adv-x="1085" 
d="M264 -330c-126 0 -168 28 -168 28v138l105 -2c161 -7 194 64 212 109l32 87l-403 1004h214l290 -764l289 764h209l-431 -1092c-88 -216 -201 -272 -349 -272zM707 -350v195h213v-195h-213z" />
    <glyph glyph-name="ygrave" unicode="&#x1ef3;" horiz-adv-x="1085" 
d="M468 1155l-280 291h235l206 -291h-161zM264 -330c-126 0 -168 28 -168 28v138l105 -2c161 -7 194 64 212 109l32 87l-403 1004h214l290 -764l289 764h209l-431 -1092c-88 -216 -201 -272 -349 -272z" />
    <glyph glyph-name="uni1EF7" unicode="&#x1ef7;" horiz-adv-x="1085" 
d="M612 1152l-59 91c56 35 82 86 54 131c-26 43 -89 41 -141 6l-58 90c115 74 237 54 294 -33c69 -104 33 -210 -90 -285zM264 -330c-126 0 -168 28 -168 28v138l105 -2c161 -7 194 64 212 109l32 87l-403 1004h214l290 -764l289 764h209l-431 -1092
c-88 -216 -201 -272 -349 -272z" />
    <glyph glyph-name="uni1EF9" unicode="&#x1ef9;" horiz-adv-x="1085" 
d="M274 1212l-37 121c45 44 93 79 173 79c103 0 184 -57 272 -57c62 0 107 29 147 59l34 -135c-37 -29 -96 -62 -181 -62c-108 0 -169 53 -263 53c-66 0 -101 -24 -145 -58zM264 -330c-126 0 -168 28 -168 28v138l105 -2c161 -7 194 64 212 109l32 87l-403 1004h214
l290 -764l289 764h209l-431 -1092c-88 -216 -201 -272 -349 -272z" />
    <glyph glyph-name="z" unicode="z" horiz-adv-x="970" 
d="M73 0v128l563 751h-538v155h795v-128l-564 -751h568v-155h-824z" />
    <glyph glyph-name="zacute" unicode="&#x17a;" horiz-adv-x="970" 
d="M404 1155l206 291h235l-280 -291h-161zM73 0v128l563 751h-538v155h795v-128l-564 -751h568v-155h-824z" />
    <glyph glyph-name="zcaron" unicode="&#x17e;" horiz-adv-x="970" 
d="M417 1155l-255 235h180l150 -139l137 139h189l-249 -235h-152zM73 0v128l563 751h-538v155h795v-128l-564 -751h568v-155h-824z" />
    <glyph glyph-name="zdotaccent" unicode="&#x17c;" horiz-adv-x="970" 
d="M386 1251v195h212v-195h-212zM73 0v128l563 751h-538v155h795v-128l-564 -751h568v-155h-824z" />
    <glyph glyph-name="uni1E93" unicode="&#x1e93;" horiz-adv-x="970" 
d="M73 0v128l563 751h-538v155h795v-128l-564 -751h568v-155h-824zM387 -369v194h212v-194h-212z" />
    <glyph glyph-name="g.ss01" horiz-adv-x="1195" 
d="M577 -337c-253 0 -412 162 -435 308h202c24 -91 121 -146 231 -147c207 -2 293 125 294 253l2 110c-61 -113 -180 -153 -325 -153c-251 0 -443 207 -449 492c-6 266 151 526 442 526c160 0 276 -102 313 -169l2 149h206l5 -912c1 -289 -202 -457 -488 -457zM603 194
c199 0 255 125 254 254l-3 194c-2 119 -115 253 -259 253c-182 0 -281 -160 -281 -369c0 -189 116 -332 289 -332z" />
    <glyph glyph-name="l.ss01" horiz-adv-x="573" 
d="M179 0v1486h215v-1486h-215z" />
    <glyph glyph-name="ordfeminine" unicode="&#xaa;" horiz-adv-x="817" 
d="M313 793c-138 0 -216 70 -216 181c0 128 120 208 329 219l101 8v46c0 84 -57 115 -133 115c-64 0 -114 -20 -155 -92l-126 32c48 103 134 161 288 161c187 -1 266 -82 266 -214v-239c0 -29 1 -96 8 -137l13 -68h-146l-16 80c-71 -63 -129 -92 -213 -92zM364 891
c47 0 88 15 121 45c26 23 42 45 42 74v104l-84 -6c-131 -8 -200 -54 -200 -126c0 -55 47 -91 121 -91z" />
    <glyph glyph-name="ordmasculine" unicode="&#xba;" horiz-adv-x="811" 
d="M405 795c-197 0 -317 138 -317 332c0 202 129 338 317 338c194 0 317 -139 317 -338c0 -194 -121 -332 -317 -332zM405 899c110 0 165 85 165 233c0 144 -55 228 -165 228c-109 0 -164 -84 -164 -228c0 -148 55 -233 164 -233z" />
    <glyph glyph-name="pi" unicode="&#x3c0;" horiz-adv-x="1326" 
d="M133 0c58 222 111 566 111 860c0 12 -6 20 -17 20h-176v154h1215v-154h-215v-880h-207l-1 880h-395c0 -310 -54 -689 -118 -880h-197z" />
    <glyph glyph-name="zero" unicode="0" horiz-adv-x="1242" 
d="M621 -22c-326 0 -527 254 -527 740c0 490 206 748 528 748c321 0 526 -257 526 -746c0 -487 -202 -742 -527 -742zM622 160c198 0 296 161 296 559c0 405 -102 571 -297 571c-196 0 -300 -168 -300 -571c0 -396 104 -559 301 -559z" />
    <glyph glyph-name="one" unicode="1" horiz-adv-x="825" 
d="M365 0v1132h-274v133c256 0 336 62 344 181h149v-1446h-219z" />
    <glyph glyph-name="two" unicode="2" horiz-adv-x="1213" 
d="M121 0v185c0 517 763 492 763 862c0 139 -105 234 -271 234c-177 0 -295 -106 -312 -282h-210c4 257 183 467 530 467c300 0 489 -168 489 -418c0 -518 -751 -471 -751 -837v-25h756v-186h-994z" />
    <glyph glyph-name="three" unicode="3" horiz-adv-x="1279" 
d="M616 -22c-312 2 -515 173 -522 446h211c27 -175 149 -266 317 -266c204 0 333 101 333 248c0 161 -148 250 -340 253l-133 3v178l124 4c181 4 312 109 312 237c0 116 -112 211 -297 211c-150 0 -294 -80 -301 -274h-210c0 289 230 448 514 448c306 0 524 -131 524 -377
c0 -143 -87 -262 -273 -326c182 -50 310 -171 310 -361c0 -269 -245 -426 -569 -424z" />
    <glyph glyph-name="four" unicode="4" horiz-adv-x="1272" 
d="M768 0v356h-677v188l670 902h215v-905h235v-185h-235v-356h-208zM293 541h472v633z" />
    <glyph glyph-name="five" unicode="5" horiz-adv-x="1300" 
d="M669 -22c-272 0 -495 150 -575 363l179 85c72 -157 193 -270 379 -270c196 0 327 119 327 310c0 178 -138 298 -314 298c-110 0 -193 -19 -299 -128c-11 -5 -12 -5 -25 1l-171 62l66 747h881l-7 -181h-697l-34 -435c98 80 205 113 334 113c268 0 492 -164 492 -470
c0 -302 -210 -495 -536 -495z" />
    <glyph glyph-name="six" unicode="6" horiz-adv-x="1266" 
d="M656 -22c-345 0 -562 275 -562 721c0 468 207 767 577 767c248 0 458 -143 485 -388h-199c-38 133 -137 213 -282 213c-243 0 -369 -213 -344 -584c57 132 199 219 360 219c287 0 481 -174 481 -454c0 -288 -203 -494 -516 -494zM652 150c167 0 291 127 291 312
c0 187 -110 295 -292 295c-150 0 -297 -116 -297 -247c-3 -214 118 -360 298 -360z" />
    <glyph glyph-name="seven" unicode="7" horiz-adv-x="1215" 
d="M352 0c37 256 205 795 541 1265h-802v181h1033v-181c-249 -335 -512 -955 -539 -1265h-233z" />
    <glyph glyph-name="eight" unicode="8" horiz-adv-x="1308" 
d="M653 -22c-337 0 -559 164 -559 416c0 168 145 329 287 357c-129 56 -224 162 -224 317c0 255 215 398 496 398c283 0 496 -143 496 -398c0 -155 -93 -261 -223 -317c143 -28 288 -189 288 -357c0 -252 -222 -416 -561 -416zM653 839c165 0 279 87 279 234
s-115 239 -279 239c-163 0 -278 -93 -278 -239c0 -147 115 -234 278 -234zM653 147c203 0 331 99 331 250s-128 259 -331 259c-200 0 -329 -108 -329 -259s129 -250 329 -250z" />
    <glyph glyph-name="nine" unicode="9" horiz-adv-x="1268" 
d="M591 -22c-248 0 -466 149 -493 388h206c30 -127 135 -213 280 -213c242 0 396 179 373 593c-52 -140 -190 -235 -367 -235c-288 0 -488 175 -488 463c0 289 198 492 511 492c345 0 560 -273 560 -719c0 -495 -212 -769 -582 -769zM618 689c150 0 298 116 298 246
c2 215 -119 361 -300 361c-165 0 -283 -127 -283 -312c0 -182 103 -295 285 -295z" />
    <glyph glyph-name="zero.osf" horiz-adv-x="1242" 
d="M621 -22c-326 0 -527 254 -527 740c0 490 206 748 528 748c321 0 526 -257 526 -746c0 -487 -202 -742 -527 -742zM622 160c198 0 296 161 296 559c0 405 -102 571 -297 571c-196 0 -300 -168 -300 -571c0 -396 104 -559 301 -559z" />
    <glyph glyph-name="one.osf" horiz-adv-x="825" 
d="M365 0v1132h-274v133c256 0 336 62 344 181h149v-1446h-219z" />
    <glyph glyph-name="two.osf" horiz-adv-x="1213" 
d="M121 0v185c0 517 763 492 763 862c0 139 -105 234 -271 234c-177 0 -295 -106 -312 -282h-210c4 257 183 467 530 467c300 0 489 -168 489 -418c0 -518 -751 -471 -751 -837v-25h756v-186h-994z" />
    <glyph glyph-name="three.osf" horiz-adv-x="1279" 
d="M616 -16c-312 2 -515 172 -522 446h211c27 -176 149 -266 317 -266c204 0 333 101 333 247c0 162 -148 251 -340 253l-133 4v177l124 5c181 4 312 108 312 237c0 115 -112 211 -297 211c-150 0 -294 -81 -301 -274h-210c0 288 230 448 514 448c306 0 524 -131 524 -378
c0 -143 -87 -261 -273 -326c182 -49 310 -171 310 -360c0 -270 -245 -427 -569 -424z" />
    <glyph glyph-name="four.osf" horiz-adv-x="1272" 
d="M768 0v356h-677v188l670 902h215v-905h235v-185h-235v-356h-208zM293 541h472v633z" />
    <glyph glyph-name="five.osf" horiz-adv-x="1300" 
d="M669 -22c-272 0 -495 150 -575 363l179 85c72 -157 193 -270 379 -270c196 0 327 119 327 310c0 178 -138 298 -314 298c-110 0 -193 -19 -299 -128c-11 -5 -12 -5 -25 1l-171 62l66 747h881l-7 -181h-697l-34 -435c98 80 205 113 334 113c268 0 492 -164 492 -470
c0 -302 -210 -495 -536 -495z" />
    <glyph glyph-name="six.osf" horiz-adv-x="1266" 
d="M656 -22c-345 0 -562 275 -562 721c0 468 207 767 577 767c248 0 458 -143 485 -388h-199c-38 133 -137 213 -282 213c-243 0 -369 -213 -344 -584c57 132 199 219 360 219c287 0 481 -174 481 -454c0 -288 -203 -494 -516 -494zM652 150c167 0 291 127 291 312
c0 187 -110 295 -292 295c-150 0 -297 -116 -297 -247c-3 -214 118 -360 298 -360z" />
    <glyph glyph-name="seven.osf" horiz-adv-x="1215" 
d="M352 0c37 256 205 795 541 1265h-802v181h1033v-181c-249 -335 -512 -955 -539 -1265h-233z" />
    <glyph glyph-name="eight.osf" horiz-adv-x="1308" 
d="M653 -22c-337 0 -559 164 -559 416c0 168 145 329 287 357c-129 56 -224 162 -224 317c0 255 215 398 496 398c283 0 496 -143 496 -398c0 -155 -93 -261 -223 -317c143 -28 288 -189 288 -357c0 -252 -222 -416 -561 -416zM653 839c165 0 279 87 279 234
s-115 239 -279 239c-163 0 -278 -93 -278 -239c0 -147 115 -234 278 -234zM653 147c203 0 331 99 331 250s-128 259 -331 259c-200 0 -329 -108 -329 -259s129 -250 329 -250z" />
    <glyph glyph-name="nine.osf" horiz-adv-x="1268" 
d="M591 -22c-248 0 -466 149 -493 388h206c30 -127 135 -213 280 -213c242 0 396 179 373 593c-52 -140 -190 -235 -367 -235c-288 0 -488 175 -488 463c0 289 198 492 511 492c345 0 560 -273 560 -719c0 -495 -212 -769 -582 -769zM618 689c150 0 298 116 298 246
c2 215 -119 361 -300 361c-165 0 -283 -127 -283 -312c0 -182 103 -295 285 -295z" />
    <glyph glyph-name="zero.tf" horiz-adv-x="1400" 
d="M700 -22c-326 0 -527 254 -527 740c0 490 206 748 528 748c321 0 526 -257 526 -746c0 -487 -202 -742 -527 -742zM701 160c198 0 296 161 296 559c0 405 -102 571 -297 571c-196 0 -300 -168 -300 -571c0 -396 104 -559 301 -559z" />
    <glyph glyph-name="one.tf" horiz-adv-x="1400" 
d="M198 0v186h429v1029l-407 -144v194l512 182h107v-1261h406v-186h-1047z" />
    <glyph glyph-name="two.tf" horiz-adv-x="1400" 
d="M230 0v185c0 517 763 492 763 862c0 139 -105 234 -271 234c-177 0 -295 -106 -312 -282h-210c4 257 183 467 530 467c299 0 489 -168 489 -418c0 -518 -751 -471 -751 -837v-25h756v-186h-994z" />
    <glyph glyph-name="three.tf" horiz-adv-x="1400" 
d="M686 -22c-312 2 -515 173 -522 446h211c27 -175 149 -266 316 -266c205 0 334 101 334 248c0 161 -148 250 -341 253l-132 3v178l124 4c181 4 312 109 312 237c0 116 -112 211 -297 211c-150 0 -294 -80 -301 -274h-210c0 289 230 448 513 448c307 0 525 -131 525 -377
c0 -143 -87 -262 -274 -326c183 -50 311 -171 311 -361c0 -269 -246 -426 -569 -424z" />
    <glyph glyph-name="four.tf" horiz-adv-x="1400" 
d="M814 0l1 356h-677v188l670 902h215v-905h235v-185h-235v-356h-209zM340 541h472v633z" />
    <glyph glyph-name="five.tf" horiz-adv-x="1400" 
d="M747 -22c-272 0 -495 150 -575 363l179 85c72 -157 193 -270 379 -270c196 0 327 119 327 310c0 178 -138 298 -314 298c-110 0 -193 -19 -299 -128c-11 -5 -12 -5 -25 1l-171 62l66 747h881l-7 -181h-697l-34 -435c98 80 205 113 334 113c268 0 492 -164 492 -470
c0 -302 -210 -495 -536 -495z" />
    <glyph glyph-name="six.tf" horiz-adv-x="1400" 
d="M724 -22c-345 0 -562 275 -562 721c0 468 207 767 577 767c248 0 458 -143 485 -388h-199c-38 133 -137 213 -282 213c-243 0 -369 -213 -345 -584c58 132 199 219 361 219c287 0 481 -174 481 -454c0 -288 -203 -494 -516 -494zM720 150c167 0 291 127 291 312
c0 187 -110 295 -292 295c-150 0 -298 -116 -298 -247c-2 -214 119 -360 299 -360z" />
    <glyph glyph-name="seven.tf" horiz-adv-x="1400" 
d="M405 0c37 256 292 795 628 1265h-892v181h1126v-181c-249 -335 -596 -955 -624 -1265h-238z" />
    <glyph glyph-name="eight.tf" horiz-adv-x="1400" 
d="M699 -22c-337 0 -559 164 -559 416c0 168 145 329 287 357c-129 56 -224 162 -224 317c0 255 215 398 496 398c284 0 496 -143 496 -398c0 -155 -93 -261 -222 -317c142 -28 287 -189 287 -357c0 -252 -222 -416 -561 -416zM699 839c165 0 279 87 279 234
s-115 239 -279 239c-162 0 -277 -93 -277 -239c0 -147 115 -234 277 -234zM699 147c203 0 332 99 332 250s-129 259 -332 259c-200 0 -329 -108 -329 -259s129 -250 329 -250z" />
    <glyph glyph-name="nine.tf" horiz-adv-x="1400" 
d="M664 -22c-248 0 -466 149 -494 388h207c30 -127 135 -213 279 -213c243 0 396 179 374 593c-52 -140 -190 -235 -367 -235c-289 0 -488 175 -488 463c0 289 197 492 511 492c344 0 560 -273 560 -719c0 -495 -212 -769 -582 -769zM691 689c150 0 297 116 297 246
c3 215 -118 361 -299 361c-165 0 -283 -127 -283 -312c0 -182 103 -295 285 -295z" />
    <glyph glyph-name="zero.subs" horiz-adv-x="771" 
d="M386 -344c-212 0 -332 167 -332 463c0 299 122 471 332 471s331 -172 331 -470c0 -295 -119 -464 -331 -464zM386 -225c127 0 183 106 183 345c0 243 -58 354 -184 354c-125 0 -184 -113 -184 -354c0 -237 59 -345 185 -345z" />
    <glyph glyph-name="one.subs" horiz-adv-x="488" 
d="M216 -331v708h-171v89c157 -1 210 34 215 113h100v-910h-144z" />
    <glyph glyph-name="two.subs" horiz-adv-x="747" 
d="M63 -331v118c0 326 478 311 478 539c0 85 -65 144 -167 144c-105 0 -183 -62 -193 -177h-136c1 163 114 298 334 298c189 0 308 -106 308 -264c0 -326 -468 -298 -468 -523v-12h472v-123h-628z" />
    <glyph glyph-name="three.subs" horiz-adv-x="816" 
d="M393 -344c-201 2 -326 113 -329 283h138c16 -110 93 -165 194 -165c126 0 206 61 206 150c0 93 -81 154 -210 156l-84 2v117l79 2c109 3 192 66 192 145c0 71 -69 129 -182 129c-94 0 -183 -50 -186 -170h-137c-1 178 139 284 324 284c192 0 330 -82 330 -238
c0 -90 -53 -162 -165 -203c108 -32 189 -106 189 -226c0 -171 -156 -268 -359 -266z" />
    <glyph glyph-name="four.subs" horiz-adv-x="795" 
d="M467 -328v222h-422v121l419 566h139v-566h147v-121h-147v-222h-136zM179 15h287v385z" />
    <glyph glyph-name="five.subs" horiz-adv-x="809" 
d="M417 -343c-173 0 -314 95 -363 231l117 54c45 -100 123 -168 235 -168c123 0 202 75 202 190c0 110 -85 183 -193 183c-70 0 -121 -12 -187 -82c-8 -1 -8 -1 -16 3l-110 39l42 473h556l-4 -119h-436l-21 -260c60 42 122 64 206 64c168 0 310 -104 310 -296
c0 -191 -133 -312 -338 -312z" />
    <glyph glyph-name="six.subs" horiz-adv-x="787" 
d="M408 -340c-221 0 -354 175 -354 450c0 305 137 482 363 482c160 0 292 -94 307 -247h-131c-23 85 -86 132 -173 132c-150 0 -224 -129 -213 -343c42 75 128 121 222 121c186 0 304 -113 304 -287c0 -184 -130 -308 -325 -308zM405 -228c103 0 179 77 179 190
c0 122 -73 181 -179 181c-96 0 -182 -75 -183 -150c-2 -136 74 -221 183 -221z" />
    <glyph glyph-name="seven.subs" horiz-adv-x="721" 
d="M208 -331c22 159 125 496 336 791h-499v119h651v-118c-156 -209 -321 -600 -337 -792h-151z" />
    <glyph glyph-name="eight.subs" horiz-adv-x="837" 
d="M418 -339c-212 0 -354 102 -354 263c0 102 86 203 174 225c-83 38 -134 102 -134 194c0 157 131 251 314 251c184 0 315 -94 315 -251c0 -92 -52 -156 -134 -194c88 -22 174 -123 174 -225c0 -161 -142 -263 -355 -263zM418 206c106 0 172 52 172 140
c0 90 -69 147 -172 147c-102 0 -171 -58 -171 -147c0 -88 66 -140 171 -140zM418 -228c126 0 204 61 204 153c0 95 -81 160 -204 160s-203 -65 -203 -160c0 -92 78 -153 203 -153z" />
    <glyph glyph-name="nine.subs" horiz-adv-x="789" 
d="M368 -344c-162 0 -296 99 -312 247h135c19 -79 84 -131 172 -131c150 0 240 109 231 347c-39 -79 -121 -131 -227 -131c-184 0 -308 114 -308 292c0 185 129 309 322 309c221 0 353 -176 353 -451c0 -319 -139 -482 -366 -482zM385 105c95 0 181 75 182 151
c2 135 -74 221 -183 221c-102 0 -174 -76 -174 -190c0 -120 69 -182 175 -182z" />
    <glyph glyph-name="zero.dnom" horiz-adv-x="771" 
d="M386 -14c-212 0 -332 167 -332 463c0 299 122 471 332 471s331 -172 331 -470c0 -295 -119 -464 -331 -464zM386 105c127 0 183 106 183 345c0 243 -58 354 -184 354c-125 0 -184 -113 -184 -354c0 -237 59 -345 185 -345z" />
    <glyph glyph-name="one.dnom" horiz-adv-x="488" 
d="M216 -1v708h-171v89c157 -1 210 34 215 113h100v-910h-144z" />
    <glyph glyph-name="two.dnom" horiz-adv-x="747" 
d="M63 -1v118c0 326 478 311 478 539c0 85 -65 144 -167 144c-105 0 -183 -62 -193 -177h-136c1 163 114 298 334 298c189 0 308 -106 308 -264c0 -326 -468 -298 -468 -523v-12h472v-123h-628z" />
    <glyph glyph-name="three.dnom" horiz-adv-x="816" 
d="M393 -14c-201 2 -326 113 -329 283h138c16 -110 93 -165 194 -165c126 0 206 61 206 150c0 93 -81 154 -210 156l-84 2v117l79 2c109 3 192 66 192 145c0 71 -69 129 -182 129c-94 0 -183 -50 -186 -170h-137c-1 178 139 284 324 284c192 0 330 -82 330 -238
c0 -90 -53 -162 -165 -203c108 -32 189 -106 189 -226c0 -171 -156 -268 -359 -266z" />
    <glyph glyph-name="four.dnom" horiz-adv-x="795" 
d="M467 2v222h-422v121l419 566h139v-566h147v-121h-147v-222h-136zM179 345h287v385z" />
    <glyph glyph-name="five.dnom" horiz-adv-x="809" 
d="M417 -13c-173 0 -314 95 -363 231l117 54c45 -100 123 -168 235 -168c123 0 202 75 202 190c0 110 -85 183 -193 183c-70 0 -121 -12 -187 -82c-8 -1 -8 -1 -16 3l-110 39l42 473h556l-4 -119h-436l-21 -260c60 42 122 64 206 64c168 0 310 -104 310 -296
c0 -191 -133 -312 -338 -312z" />
    <glyph glyph-name="six.dnom" horiz-adv-x="787" 
d="M408 -10c-221 0 -354 175 -354 450c0 305 137 482 363 482c160 0 292 -94 307 -247h-131c-23 85 -86 132 -173 132c-150 0 -224 -129 -213 -343c42 75 128 121 222 121c186 0 304 -113 304 -287c0 -184 -130 -308 -325 -308zM405 102c103 0 179 77 179 190
c0 122 -73 181 -179 181c-96 0 -182 -75 -183 -150c-2 -136 74 -221 183 -221z" />
    <glyph glyph-name="seven.dnom" horiz-adv-x="721" 
d="M208 -1c22 159 125 496 336 791h-499v119h651v-118c-156 -209 -321 -600 -337 -792h-151z" />
    <glyph glyph-name="eight.dnom" horiz-adv-x="837" 
d="M418 -11c-212 0 -354 102 -354 263c0 102 86 203 174 225c-83 38 -134 102 -134 194c0 157 131 251 314 251c184 0 315 -94 315 -251c0 -92 -52 -156 -134 -194c88 -22 174 -123 174 -225c0 -161 -142 -263 -355 -263zM418 534c106 0 172 52 172 140
c0 90 -69 147 -172 147c-102 0 -171 -58 -171 -147c0 -88 66 -140 171 -140zM418 100c126 0 204 61 204 153c0 95 -81 160 -204 160s-203 -65 -203 -160c0 -92 78 -153 203 -153z" />
    <glyph glyph-name="nine.dnom" horiz-adv-x="789" 
d="M368 -14c-162 0 -296 99 -312 247h135c19 -79 84 -131 172 -131c150 0 240 109 231 347c-39 -79 -121 -131 -227 -131c-184 0 -308 114 -308 292c0 185 129 309 322 309c221 0 353 -176 353 -451c0 -319 -139 -482 -366 -482zM385 435c95 0 181 75 182 151
c2 135 -74 221 -183 221c-102 0 -174 -76 -174 -190c0 -120 69 -182 175 -182z" />
    <glyph glyph-name="zero.numr" horiz-adv-x="771" 
d="M386 524c-212 0 -332 167 -332 463c0 299 122 471 332 471s331 -172 331 -470c0 -295 -119 -464 -331 -464zM386 643c127 0 183 106 183 345c0 243 -58 354 -184 354c-125 0 -184 -113 -184 -354c0 -237 59 -345 185 -345z" />
    <glyph glyph-name="one.numr" horiz-adv-x="488" 
d="M216 536v708h-171v89c157 -1 210 34 215 113h100v-910h-144z" />
    <glyph glyph-name="two.numr" horiz-adv-x="747" 
d="M63 537v118c0 326 478 311 478 539c0 85 -65 144 -167 144c-105 0 -183 -62 -193 -177h-136c1 163 114 298 334 298c189 0 308 -106 308 -264c0 -326 -468 -298 -468 -523v-12h472v-123h-628z" />
    <glyph glyph-name="three.numr" horiz-adv-x="816" 
d="M393 526c-201 2 -326 113 -329 283h138c16 -110 93 -165 194 -165c126 0 206 61 206 150c0 93 -81 154 -210 156l-84 2v117l79 2c109 3 192 66 192 145c0 71 -69 129 -182 129c-94 0 -183 -50 -186 -170h-137c-1 178 139 284 324 284c192 0 330 -82 330 -238
c0 -90 -53 -162 -165 -203c108 -32 189 -106 189 -226c0 -171 -156 -268 -359 -266z" />
    <glyph glyph-name="four.numr" horiz-adv-x="795" 
d="M467 537v222h-422v121l419 566h139v-566h147v-121h-147v-222h-136zM179 880h287v385z" />
    <glyph glyph-name="five.numr" horiz-adv-x="809" 
d="M417 523c-173 0 -314 95 -363 231l117 54c45 -100 123 -168 235 -168c123 0 202 75 202 190c0 110 -85 183 -193 183c-70 0 -121 -12 -187 -82c-8 -1 -8 -1 -16 3l-110 39l42 473h556l-4 -119h-436l-21 -260c60 42 122 64 206 64c168 0 310 -104 310 -296
c0 -191 -133 -312 -338 -312z" />
    <glyph glyph-name="six.numr" horiz-adv-x="787" 
d="M408 525c-221 0 -354 175 -354 450c0 305 137 482 363 482c160 0 292 -94 307 -247h-131c-23 85 -86 132 -173 132c-150 0 -224 -129 -213 -343c42 75 128 121 222 121c186 0 304 -113 304 -287c0 -184 -130 -308 -325 -308zM405 637c103 0 179 77 179 190
c0 122 -73 181 -179 181c-96 0 -182 -75 -183 -150c-2 -136 74 -221 183 -221z" />
    <glyph glyph-name="seven.numr" horiz-adv-x="721" 
d="M208 537c22 159 125 496 336 791h-499v119h651v-118c-156 -209 -321 -600 -337 -792h-151z" />
    <glyph glyph-name="eight.numr" horiz-adv-x="837" 
d="M418 524c-212 0 -354 102 -354 263c0 102 86 203 174 225c-83 38 -134 102 -134 194c0 157 131 251 314 251c184 0 315 -94 315 -251c0 -92 -52 -156 -134 -194c88 -22 174 -123 174 -225c0 -161 -142 -263 -355 -263zM418 1069c106 0 172 52 172 140
c0 90 -69 147 -172 147c-102 0 -171 -58 -171 -147c0 -88 66 -140 171 -140zM418 635c126 0 204 61 204 153c0 95 -81 160 -204 160s-203 -65 -203 -160c0 -92 78 -153 203 -153z" />
    <glyph glyph-name="nine.numr" horiz-adv-x="789" 
d="M368 524c-162 0 -296 99 -312 247h135c19 -79 84 -131 172 -131c150 0 240 109 231 347c-39 -79 -121 -131 -227 -131c-184 0 -308 114 -308 292c0 185 129 309 322 309c221 0 353 -176 353 -451c0 -319 -139 -482 -366 -482zM385 973c95 0 181 75 182 151
c2 135 -74 221 -183 221c-102 0 -174 -76 -174 -190c0 -120 69 -182 175 -182z" />
    <glyph glyph-name="uni2070" unicode="&#x2070;" horiz-adv-x="771" 
d="M386 732c-212 0 -332 167 -332 463c0 299 122 471 332 471s331 -172 331 -470c0 -295 -119 -464 -331 -464zM386 851c127 0 183 106 183 345c0 243 -58 354 -184 354c-125 0 -184 -113 -184 -354c0 -237 59 -345 185 -345z" />
    <glyph glyph-name="uni00B9" unicode="&#xb9;" horiz-adv-x="488" 
d="M216 744v708h-171v89c157 -1 210 34 215 113h100v-910h-144z" />
    <glyph glyph-name="uni00B2" unicode="&#xb2;" horiz-adv-x="747" 
d="M63 747v118c0 326 478 311 478 539c0 85 -65 144 -167 144c-105 0 -183 -62 -193 -177h-136c1 163 114 298 334 298c189 0 308 -106 308 -264c0 -326 -468 -298 -468 -523v-12h472v-123h-628z" />
    <glyph glyph-name="uni00B3" unicode="&#xb3;" horiz-adv-x="816" 
d="M393 736c-201 2 -326 113 -329 283h138c16 -110 93 -165 194 -165c126 0 206 61 206 150c0 93 -81 154 -210 156l-84 2v117l79 2c109 3 192 66 192 145c0 71 -69 129 -182 129c-94 0 -183 -50 -186 -170h-137c-1 178 139 284 324 284c192 0 330 -82 330 -238
c0 -90 -53 -162 -165 -203c108 -32 189 -106 189 -226c0 -171 -156 -268 -359 -266z" />
    <glyph glyph-name="uni2074" unicode="&#x2074;" horiz-adv-x="795" 
d="M467 745v222h-422v121l419 566h139v-566h147v-121h-147v-222h-136zM179 1088h287v385z" />
    <glyph glyph-name="uni2075" unicode="&#x2075;" horiz-adv-x="809" 
d="M417 731c-173 0 -314 95 -363 231l117 54c45 -100 123 -168 235 -168c123 0 202 75 202 190c0 110 -85 183 -193 183c-70 0 -121 -12 -187 -82c-8 -1 -8 -1 -16 3l-110 39l42 473h556l-4 -119h-436l-21 -260c60 42 122 64 206 64c168 0 310 -104 310 -296
c0 -191 -133 -312 -338 -312z" />
    <glyph glyph-name="uni2076" unicode="&#x2076;" horiz-adv-x="787" 
d="M408 735c-221 0 -354 175 -354 450c0 305 137 482 363 482c160 0 292 -94 307 -247h-131c-23 85 -86 132 -173 132c-150 0 -224 -129 -213 -343c42 75 128 121 222 121c186 0 304 -113 304 -287c0 -184 -130 -308 -325 -308zM405 847c103 0 179 77 179 190
c0 122 -73 181 -179 181c-96 0 -182 -75 -183 -150c-2 -136 74 -221 183 -221z" />
    <glyph glyph-name="uni2077" unicode="&#x2077;" horiz-adv-x="721" 
d="M208 747c22 159 125 496 336 791h-499v119h651v-118c-156 -209 -321 -600 -337 -792h-151z" />
    <glyph glyph-name="uni2078" unicode="&#x2078;" horiz-adv-x="837" 
d="M418 734c-212 0 -354 102 -354 263c0 102 86 203 174 225c-83 38 -134 102 -134 194c0 157 131 251 314 251c184 0 315 -94 315 -251c0 -92 -52 -156 -134 -194c88 -22 174 -123 174 -225c0 -161 -142 -263 -355 -263zM418 1279c106 0 172 52 172 140
c0 90 -69 147 -172 147c-102 0 -171 -58 -171 -147c0 -88 66 -140 171 -140zM418 845c126 0 204 61 204 153c0 95 -81 160 -204 160s-203 -65 -203 -160c0 -92 78 -153 203 -153z" />
    <glyph glyph-name="uni2079" unicode="&#x2079;" horiz-adv-x="789" 
d="M368 734c-162 0 -296 99 -312 247h135c19 -79 84 -131 172 -131c150 0 240 109 231 347c-39 -79 -121 -131 -227 -131c-184 0 -308 114 -308 292c0 185 129 309 322 309c221 0 353 -176 353 -451c0 -319 -139 -482 -366 -482zM385 1183c95 0 181 75 182 151
c2 135 -74 221 -183 221c-102 0 -174 -76 -174 -190c0 -120 69 -182 175 -182z" />
    <glyph glyph-name="fraction.alt" horiz-adv-x="1352" 
d="M259 -8l-138 2l976 1468h134z" />
    <glyph glyph-name="fraction" unicode="&#x2044;" horiz-adv-x="467" 
d="M-181 -8l-138 2l976 1468h134z" />
    <glyph glyph-name="onehalf" unicode="&#xbd;" horiz-adv-x="1752" 
d="M352 -8l-138 2l976 1468h134zM216 536v708h-171v89c157 -1 210 34 215 113h100v-910h-144zM1068 -1v118c0 326 477 311 477 539c0 85 -64 144 -166 144c-106 0 -183 -62 -193 -177h-137c1 163 115 298 335 298c189 0 308 -106 308 -264c0 -326 -469 -298 -469 -523v-12
h472v-123h-627z" />
    <glyph glyph-name="uni2153" unicode="&#x2153;" horiz-adv-x="1781" 
d="M352 -8l-138 2l976 1468h134zM216 536v708h-171v89c157 -1 210 34 215 113h100v-910h-144zM1358 -14c-201 2 -326 113 -329 283h138c16 -110 93 -165 194 -165c127 0 206 61 206 150c0 93 -81 154 -210 156l-84 2v117l79 2c109 3 192 66 192 145c0 71 -69 129 -182 129
c-94 0 -183 -50 -186 -170h-137c-1 178 139 284 324 284c193 0 330 -82 330 -238c0 -90 -53 -162 -165 -203c108 -32 189 -106 189 -226c0 -171 -156 -268 -359 -266z" />
    <glyph glyph-name="uni2154" unicode="&#x2154;" horiz-adv-x="2090" 
d="M661 -8l-138 2l976 1468h134zM63 537v118c0 326 478 311 478 539c0 85 -65 144 -167 144c-105 0 -183 -62 -193 -177h-136c1 163 114 298 334 298c189 0 308 -106 308 -264c0 -326 -468 -298 -468 -523v-12h472v-123h-628zM1667 -14c-201 2 -326 113 -329 283h138
c16 -110 93 -165 194 -165c126 0 206 61 206 150c0 93 -81 154 -210 156l-84 2v117l79 2c109 3 192 66 192 145c0 71 -69 129 -182 129c-94 0 -183 -50 -186 -170h-137c-1 178 139 284 324 284c192 0 330 -82 330 -238c0 -90 -53 -162 -165 -203c108 -32 189 -106 189 -226
c0 -171 -156 -268 -359 -266z" />
    <glyph glyph-name="onequarter" unicode="&#xbc;" horiz-adv-x="1605" 
d="M352 -8l-138 2l976 1468h134zM216 536v708h-171v89c157 -1 210 34 215 113h100v-910h-144zM1277 2v222h-422v121l419 566h139v-566h147v-121h-147v-222h-136zM989 345h287v385z" />
    <glyph glyph-name="threequarters" unicode="&#xbe;" horiz-adv-x="1859" 
d="M606 -8l-138 2l976 1468h134zM393 526c-201 2 -326 113 -329 283h138c16 -110 93 -165 194 -165c126 0 206 61 206 150c0 93 -81 154 -210 156l-84 2v117l79 2c109 3 192 66 192 145c0 71 -69 129 -182 129c-94 0 -183 -50 -186 -170h-137c-1 178 139 284 324 284
c192 0 330 -82 330 -238c0 -90 -53 -162 -165 -203c108 -32 189 -106 189 -226c0 -171 -156 -268 -359 -266zM1531 2l1 222h-423v121l419 566h140v-566h147v-121h-147v-222h-137zM1243 345h287v385z" />
    <glyph glyph-name="oneeighth" unicode="&#x215b;" horiz-adv-x="1802" 
d="M352 -8l-138 2l976 1468h134zM216 536v708h-171v89c157 -1 210 34 215 113h100v-910h-144zM1383 -11c-212 0 -354 102 -354 263c0 102 86 203 174 225c-82 38 -134 102 -134 194c0 157 131 251 314 251c184 0 315 -94 315 -251c0 -92 -51 -156 -134 -194
c89 -22 174 -123 174 -225c0 -161 -142 -263 -355 -263zM1383 534c106 0 172 52 172 140c0 90 -69 147 -172 147c-102 0 -171 -58 -171 -147c0 -88 66 -140 171 -140zM1383 100c126 0 205 61 205 153c0 95 -81 160 -205 160c-123 0 -203 -65 -203 -160
c0 -92 78 -153 203 -153z" />
    <glyph glyph-name="threeeighths" unicode="&#x215c;" horiz-adv-x="2056" 
d="M606 -8l-138 2l976 1468h134zM393 526c-201 2 -326 113 -329 283h138c16 -110 93 -165 194 -165c126 0 206 61 206 150c0 93 -81 154 -210 156l-84 2v117l79 2c109 3 192 66 192 145c0 71 -69 129 -182 129c-94 0 -183 -50 -186 -170h-137c-1 178 139 284 324 284
c192 0 330 -82 330 -238c0 -90 -53 -162 -165 -203c108 -32 189 -106 189 -226c0 -171 -156 -268 -359 -266zM1638 -11c-213 0 -354 102 -354 263c0 102 85 203 174 225c-83 38 -135 102 -135 194c0 157 131 251 315 251s314 -94 314 -251c0 -92 -51 -156 -133 -194
c88 -22 173 -123 173 -225c0 -161 -141 -263 -354 -263zM1638 534c105 0 172 52 172 140c0 90 -70 147 -172 147s-172 -58 -172 -147c0 -88 66 -140 172 -140zM1638 100c125 0 204 61 204 153c0 95 -81 160 -204 160c-124 0 -204 -65 -204 -160c0 -92 78 -153 204 -153z" />
    <glyph glyph-name="fiveeighths" unicode="&#x215d;" horiz-adv-x="2049" 
d="M599 -8l-138 2l976 1468h134zM417 523c-173 0 -314 95 -363 231l117 54c45 -100 123 -168 235 -168c123 0 202 75 202 190c0 110 -85 183 -193 183c-70 0 -121 -12 -187 -82c-8 -1 -8 -1 -16 3l-110 39l42 473h556l-4 -119h-436l-21 -260c60 42 122 64 206 64
c168 0 310 -104 310 -296c0 -191 -133 -312 -338 -312zM1631 -11c-213 0 -354 102 -354 263c0 102 85 203 174 225c-83 38 -135 102 -135 194c0 157 131 251 315 251s314 -94 314 -251c0 -92 -51 -156 -133 -194c88 -22 173 -123 173 -225c0 -161 -141 -263 -354 -263z
M1631 534c105 0 172 52 172 140c0 90 -70 147 -172 147s-172 -58 -172 -147c0 -88 66 -140 172 -140zM1631 100c125 0 204 61 204 153c0 95 -81 160 -204 160c-124 0 -204 -65 -204 -160c0 -92 78 -153 204 -153z" />
    <glyph glyph-name="seveneighths" unicode="&#x215e;" horiz-adv-x="1875" 
d="M425 -8l-138 2l976 1468h134zM208 537c22 159 125 496 336 791h-499v119h651v-118c-156 -209 -321 -600 -337 -792h-151zM1456 -11c-212 0 -354 102 -354 263c0 102 86 203 174 225c-83 38 -134 102 -134 194c0 157 131 251 314 251c184 0 315 -94 315 -251
c0 -92 -52 -156 -134 -194c88 -22 174 -123 174 -225c0 -161 -142 -263 -355 -263zM1456 534c106 0 172 52 172 140c0 90 -69 147 -172 147c-102 0 -171 -58 -171 -147c0 -88 66 -140 171 -140zM1456 100c126 0 204 61 204 153c0 95 -81 160 -204 160s-203 -65 -203 -160
c0 -92 78 -153 203 -153z" />
    <glyph glyph-name="period" unicode="." horiz-adv-x="474" 
d="M107 0v258h247v-258h-247z" />
    <glyph glyph-name="comma" unicode="," horiz-adv-x="502" 
d="M89 -259l113 254l-91 6v238h248v-208l-178 -290h-92z" />
    <glyph glyph-name="colon" unicode=":" horiz-adv-x="475" 
d="M107 741v256h248v-256h-248zM107 6v255h248v-255h-248z" />
    <glyph glyph-name="semicolon" unicode=";" horiz-adv-x="501" 
d="M128 735v259h248v-259h-248zM107 -292l119 292h-93v256h248v-227l-183 -321h-91z" />
    <glyph glyph-name="ellipsis" unicode="&#x2026;" horiz-adv-x="1604" 
d="M1237 0v258h247v-258h-247zM107 0v258h247v-258h-247zM672 0v258h247v-258h-247z" />
    <glyph glyph-name="exclam" unicode="!" horiz-adv-x="519" 
d="M185 389l-59 1057h255l-56 -1057h-140zM129 0v255h247v-255h-247z" />
    <glyph glyph-name="exclamdown" unicode="&#xa1;" horiz-adv-x="520" 
d="M129 779v255h247v-255h-247zM126 -322l59 965h139l57 -965h-255z" />
    <glyph glyph-name="question" unicode="?" horiz-adv-x="1049" 
d="M402 394c0 376 358 468 358 717c0 122 -97 198 -237 198c-124 0 -252 -82 -296 -195l-188 52c85 190 263 300 485 300c274 0 453 -147 453 -345c0 -336 -396 -400 -396 -727h-179zM368 0v255h247v-255h-247z" />
    <glyph glyph-name="questiondown" unicode="&#xbf;" horiz-adv-x="1050" 
d="M426 779v255h248v-255h-248zM517 -342c-292 0 -453 148 -453 347c0 327 395 332 395 643h180c0 -362 -358 -394 -358 -633c0 -118 97 -195 237 -195c124 0 253 82 296 191l188 -52c-85 -190 -261 -301 -485 -301z" />
    <glyph glyph-name="periodcentered" unicode="&#xb7;" horiz-adv-x="475" 
d="M107 609v239h248v-239h-248z" />
    <glyph glyph-name="bullet" unicode="&#x2022;" horiz-adv-x="653" 
d="M319 524c-116 0 -210 96 -210 212s94 210 210 210c117 0 211 -94 211 -210s-94 -212 -211 -212z" />
    <glyph glyph-name="asterisk" unicode="*" horiz-adv-x="831" 
d="M255 733l-123 85l194 238l-272 76l48 132l258 -107l-19 289h151l-21 -290l262 114l42 -131l-265 -82l189 -230l-123 -88l-159 259z" />
    <glyph glyph-name="numbersign" unicode="#" horiz-adv-x="1213" 
d="M356 -4l-124 18l68 450h-232v123h251l43 287h-230v123h249l68 452l123 -14l-66 -438h288l69 452l124 -14l-66 -438h215v-123h-234l-43 -287h213v-123h-231l-70 -468l-125 18l68 450h-288zM445 587h288l43 287h-288z" />
    <glyph glyph-name="slash" unicode="/" horiz-adv-x="718" 
d="M26 -66l502 1512h160l-502 -1512h-160z" />
    <glyph glyph-name="backslash" unicode="\" horiz-adv-x="718" 
d="M527 -66l-501 1512h160l502 -1512h-161z" />
    <glyph glyph-name="period.tf" horiz-adv-x="600" 
d="M176 0v258h247v-258h-247z" />
    <glyph glyph-name="comma.tf" horiz-adv-x="600" 
d="M165 -259l113 254l-91 6v238h248v-208l-178 -290h-92z" />
    <glyph glyph-name="parenleft" unicode="(" horiz-adv-x="622" 
d="M406 -258c-165 281 -272 538 -272 878c0 331 116 642 285 890h149c-137 -260 -233 -575 -233 -892c0 -301 76 -576 219 -876h-148z" />
    <glyph glyph-name="parenright" unicode=")" horiz-adv-x="633" 
d="M48 -258c143 300 220 575 220 876c0 317 -97 632 -233 892h148c169 -248 286 -559 286 -890c0 -340 -107 -597 -273 -878h-148z" />
    <glyph glyph-name="braceleft" unicode="{" horiz-adv-x="686" 
d="M520 -322c-157 0 -275 80 -275 218v425c0 94 -71 186 -226 186v121c157 1 226 77 226 194v411c0 136 123 213 271 213h113v-131h-76c-105 0 -124 -40 -124 -103v-418c-3 -146 -103 -210 -201 -220c-16 -2 -18 -11 0 -13c96 -8 198 -61 201 -224v-421
c0 -74 28 -106 125 -106h75v-132h-109z" />
    <glyph glyph-name="braceright" unicode="}" horiz-adv-x="692" 
d="M36 -322v132h75c97 0 125 32 125 106v421c3 163 105 216 201 224c18 2 16 11 0 13c-98 10 -198 74 -201 220v418c0 63 -19 103 -124 103h-76v131h113c148 0 271 -77 271 -213v-411c0 -117 69 -193 226 -194v-121c-155 0 -226 -92 -226 -186v-425
c0 -138 -118 -218 -275 -218h-109z" />
    <glyph glyph-name="bracketleft" unicode="[" horiz-adv-x="625" 
d="M172 -322l-1 1768h396v-131h-212l-1 -1505h212v-132h-394z" />
    <glyph glyph-name="bracketright" unicode="]" horiz-adv-x="625" 
d="M59 -322v132h212l-1 1505h-212v131h396l-1 -1768h-394z" />
    <glyph glyph-name="hyphen" unicode="-" horiz-adv-x="763" 
d="M123 433v164l518 1v-163z" />
    <glyph glyph-name="uni00AD" unicode="&#xad;" horiz-adv-x="763" 
d="M123 433v164l518 1v-163z" />
    <glyph glyph-name="endash" unicode="&#x2013;" horiz-adv-x="1131" 
d="M123 418v164l885 1v-164z" />
    <glyph glyph-name="emdash" unicode="&#x2014;" horiz-adv-x="2251" 
d="M368 418v164l1515 1v-164z" />
    <glyph glyph-name="underscore" unicode="_" horiz-adv-x="1054" 
d="M121 -248v163l808 1v-163z" />
    <glyph glyph-name="emdash.alt" horiz-adv-x="1515" 
d="M0 418v164l1515 1v-164z" />
    <glyph glyph-name="quotesinglbase" unicode="&#x201a;" horiz-adv-x="502" 
d="M89 -257l112 254l-90 6v238h248v-208l-178 -290h-92z" />
    <glyph glyph-name="quotedblbase" unicode="&#x201e;" horiz-adv-x="890" 
d="M477 -257l112 254l-90 6v238h248v-208l-178 -290h-92zM89 -257l112 254l-90 6v238h248v-208l-178 -290h-92z" />
    <glyph glyph-name="quotedblleft" unicode="&#x201c;" horiz-adv-x="871" 
d="M98 949v208l179 289h92l-113 -253l90 -7v-237h-248zM477 949v208l179 289h92l-114 -253l92 -7v-237h-249z" />
    <glyph glyph-name="quotedblright" unicode="&#x201d;" horiz-adv-x="858" 
d="M478 949l114 255l-91 6v236h248v-207l-178 -290h-93zM100 949l112 255l-90 6v236h248v-207l-178 -290h-92z" />
    <glyph glyph-name="quoteleft" unicode="&#x2018;" horiz-adv-x="492" 
d="M98 1012v207l178 290h92l-112 -255l90 -6v-236h-248z" />
    <glyph glyph-name="quoteright" unicode="&#x2019;" horiz-adv-x="479" 
d="M100 949l112 255l-90 6v236h248v-207l-178 -290h-92z" />
    <glyph glyph-name="guillemotleft" unicode="&#xab;" horiz-adv-x="934" 
d="M702 137l-256 365l256 381h120l-191 -381l189 -365h-118zM341 137l-255 365l255 381h120l-191 -381l189 -365h-118z" />
    <glyph glyph-name="guillemotright" unicode="&#xbb;" horiz-adv-x="975" 
d="M485 137l190 365l-192 381h120l254 -381l-254 -365h-118zM125 137l189 365l-191 381h119l254 -381l-254 -365h-117z" />
    <glyph glyph-name="guilsinglleft" unicode="&#x2039;" horiz-adv-x="573" 
d="M341 137l-255 365l255 381h120l-191 -381l189 -365h-118z" />
    <glyph glyph-name="guilsinglright" unicode="&#x203a;" horiz-adv-x="572" 
d="M114 137l189 365l-191 381h119l254 -381l-254 -365h-117z" />
    <glyph glyph-name="quotedbl" unicode="&#x22;" horiz-adv-x="880" 
d="M569 954l-63 492h245l-65 -492h-117zM192 954l-63 492h245l-65 -492h-117z" />
    <glyph glyph-name="quotesingle" unicode="'" horiz-adv-x="503" 
d="M192 954l-63 492h245l-65 -492h-117z" />
    <glyph glyph-name="space" unicode=" " horiz-adv-x="476" 
 />
    <glyph glyph-name="uni00A0" unicode="&#xa0;" horiz-adv-x="476" 
 />
    <glyph glyph-name="CR" unicode="&#xd;" horiz-adv-x="469" 
 />
    <glyph glyph-name="cent" unicode="&#xa2;" horiz-adv-x="1095" 
d="M508 0v207c-239 33 -402 219 -402 528c0 292 147 500 402 536v175h152v-175c193 -27 327 -164 349 -356h-185c-17 102 -99 192 -235 192c-166 0 -280 -120 -280 -370c0 -229 99 -376 284 -376c135 0 216 96 232 191h182c-21 -186 -156 -319 -347 -345v-207h-152z" />
    <glyph glyph-name="colonmonetary" unicode="&#x20a1;" horiz-adv-x="1393" 
d="M413 -122l31 164c-217 107 -339 349 -339 688c0 461 224 729 610 736l18 94h109l-19 -101c37 -5 73 -14 107 -25l24 126h109l-32 -172c146 -85 240 -231 258 -397h-228c-12 64 -36 123 -73 171l-189 -992c148 31 236 155 262 297h228c-31 -247 -186 -473 -526 -486
l-20 -103h-109l20 106c-38 3 -74 10 -108 20l-24 -126h-109zM341 727c0 -235 49 -391 142 -479l197 1033c-219 -19 -339 -189 -339 -554zM581 187c32 -12 69 -20 108 -23l205 1079c-31 17 -67 29 -106 35z" />
    <glyph glyph-name="currency" unicode="&#xa4;" horiz-adv-x="1100" 
d="M193 278l-98 103l123 121c-46 69 -69 139 -69 225c0 79 20 149 60 209c7 13 6 20 -3 29l-110 111l99 101l124 -126c63 45 144 71 223 71c77 0 151 -21 214 -63c9 -5 17 -5 24 2l108 109l98 -101l-119 -118c45 -66 71 -141 71 -223c0 -77 -21 -153 -63 -212
c-5 -8 -6 -14 1 -20l112 -108l-98 -101l-119 118c-67 -45 -143 -73 -225 -73c-78 0 -152 22 -214 61c-10 7 -20 7 -28 -3zM546 486c138 0 241 113 241 242c0 127 -103 242 -241 242s-242 -115 -242 -242c0 -129 104 -242 242 -242z" />
    <glyph glyph-name="dollar" unicode="$" horiz-adv-x="1329" 
d="M585 -204v189c-262 26 -439 158 -471 395l224 11c39 -155 168 -233 347 -233c161 0 302 88 302 218c0 122 -72 186 -229 226l-246 62c-216 52 -352 169 -354 373c-2 229 178 390 437 421v202h194v-203c247 -36 395 -208 400 -408l-217 -9c-26 160 -110 247 -280 247
c-163 0 -304 -81 -304 -228c0 -99 57 -147 239 -200l239 -65c249 -67 349 -220 349 -415c0 -212 -172 -365 -437 -394v-189h-193z" />
    <glyph glyph-name="dong" unicode="&#x20ab;" horiz-adv-x="1032" 
d="M430 248c-197 0 -349 144 -349 429c0 272 158 451 366 451c103 0 163 -37 220 -88c19 -15 26 -11 26 11v167h-254v106h254v121h182v-121h123v-106h-123v-954h-178v114c-46 -52 -118 -130 -267 -130zM497 375c112 0 192 85 192 165v367c-56 58 -112 90 -188 90
c-132 0 -226 -102 -226 -316c0 -217 97 -306 222 -306zM130 0v114h751v-114h-751z" />
    <glyph glyph-name="Euro" unicode="&#x20ac;" horiz-adv-x="1227" 
d="M-14 501v128h165c-2 32 -3 65 -4 100c0 31 2 63 4 93h-165v127h182c65 326 281 517 585 517c155 0 296 -62 394 -163l-148 -125c-63 60 -132 110 -228 110c-185 0 -308 -109 -354 -339l377 1v-127l-393 -1c-2 -30 -3 -62 -3 -96s1 -66 3 -96h393v-128l-375 -1
c48 -225 177 -334 366 -334c97 0 190 51 248 108l117 -131c-96 -95 -235 -164 -392 -164c-307 0 -522 197 -588 521h-184z" />
    <glyph glyph-name="florin" unicode="&#x192;" horiz-adv-x="946" 
d="M-115 -334l22 149l117 1c88 1 125 37 145 151l160 913h-167l27 154h167l27 157c30 165 140 255 305 255h206l-24 -148h-143c-67 0 -124 -57 -138 -136l-23 -128h248l-28 -154h-242l-167 -951c-28 -165 -135 -263 -306 -263h-186z" />
    <glyph glyph-name="franc" unicode="&#x20a3;" horiz-adv-x="1225" 
d="M162 0v258h-183v128l183 1v1059h969v-183h-725v-465h589v-179h-589v-232l318 1v-129h-318v-259h-244z" />
    <glyph glyph-name="lira" unicode="&#x20a4;" horiz-adv-x="1245" 
d="M33 0v182h73c92 -1 166 71 175 231c2 19 2 42 1 72c-1 9 -6 12 -17 12h-212v128h211l-27 165h-184v129h164l-7 65c-47 348 165 482 420 482c178 0 361 -95 426 -251l-190 -63c-37 79 -95 136 -206 136c-122 0 -217 -76 -217 -208c0 -30 8 -81 18 -142
c2 -13 10 -19 22 -19l302 1v-129l-301 -1l25 -165l276 1v-128h-275c-3 -108 -39 -236 -119 -314h330c129 0 207 43 249 162l183 -45c-60 -198 -212 -301 -418 -301h-702z" />
    <glyph glyph-name="uni20BA" unicode="&#x20ba;" horiz-adv-x="1183" 
d="M245 0v441l-152 -55l-45 129l197 72v180l-169 -62l-46 129l215 78v534h245v-445l262 95l48 -127l-310 -113v-180l279 101l46 -128l-325 -119v-346h89c169 3 296 107 380 335l195 -43c-95 -280 -295 -476 -650 -476h-259z" />
    <glyph glyph-name="uni20A6" unicode="&#x20a6;" horiz-adv-x="1558" 
d="M223 0v496l-209 -1v119h209v262h-209v118h209v452h207l308 -451h428v451h215v-451h163v-118h-163v-262h163v-118l-163 -1v-496h-192l-339 496h-413v-496h-214zM437 1101v-106h72zM819 876l179 -261h168v261h-347zM437 876v-262l332 1l-179 261h-153zM1166 368v128h-87z
" />
    <glyph glyph-name="uni20B9" unicode="&#x20b9;" horiz-adv-x="1201" 
d="M712 0l-239 662h-447v163h396c194 0 295 59 316 199l-709 -1v119l707 1c-23 119 -117 176 -281 176h-429v127h3l1129 1v-118l-268 -1c54 -48 88 -110 101 -185h167v-119h-165c-21 -178 -147 -275 -276 -320c-9 -3 -10 -13 -7 -24l267 -680h-265z" />
    <glyph glyph-name="sterling" unicode="&#xa3;" horiz-adv-x="1245" 
d="M33 0v182h73c101 0 178 76 178 255c0 67 -6 134 -22 248h-203v130h178l-27 169c-57 304 165 482 420 482c198 0 362 -103 425 -251l-189 -63c-44 91 -101 136 -206 136c-122 0 -217 -76 -217 -208c0 -71 17 -166 43 -264h314v-130h-296c12 -94 16 -154 7 -224
c-9 -157 -68 -231 -116 -278h326c134 0 204 42 249 162l183 -45c-63 -200 -203 -301 -418 -301h-702z" />
    <glyph glyph-name="uni20A9" unicode="&#x20a9;" horiz-adv-x="2106" 
d="M546 0l-193 666h-327v127l290 1l-53 184h-237v127h200l-99 341h214l95 -340h425l96 340h164l96 -340h428l96 340h213l-99 -340l217 1v-128h-254l-54 -185l308 1v-128h-346l-195 -667h-188l-189 667l-233 -1l-191 -666h-184zM1253 979l52 -185h252l52 185h-356zM1011 979
l-53 -185h159l-52 185h-54zM471 978l52 -184h250l52 184h-354zM1431 348l90 319h-180zM647 348l90 318h-178z" />
    <glyph glyph-name="yen" unicode="&#xa5;" horiz-adv-x="1249" 
d="M205 255v127h303v172l-303 -1v128l257 1l-458 764h278l367 -639l368 639h228l-466 -764l277 1v-129h-304v-171h304v-127l-304 -1v-255h-244v255h-303z" />
    <glyph glyph-name="cent.tf" horiz-adv-x="1400" 
d="M655 0v207c-239 33 -403 219 -403 528c0 292 148 500 403 536v175h151v-175c194 -27 327 -164 350 -356h-186c-17 102 -98 192 -234 192c-166 0 -280 -120 -280 -370c0 -229 99 -376 283 -376c136 0 217 96 233 191h182c-21 -186 -156 -319 -348 -345v-207h-151z" />
    <glyph glyph-name="colonmonetary.tf" horiz-adv-x="1400" 
d="M406 -122l31 164c-217 107 -339 349 -339 688c0 461 224 729 610 736l18 94h109l-19 -101c37 -5 73 -14 107 -25l24 126h109l-32 -172c146 -85 240 -231 258 -397h-227c-13 64 -37 123 -74 171l-189 -992c148 31 236 155 263 297h227c-31 -247 -186 -473 -526 -486
l-20 -103h-109l20 106c-38 3 -74 10 -108 20l-24 -126h-109zM334 727c0 -235 49 -391 142 -479l197 1033c-219 -19 -339 -189 -339 -554zM574 187c33 -12 69 -20 108 -23l205 1079c-31 17 -66 29 -106 35z" />
    <glyph glyph-name="dollar.tf" horiz-adv-x="1400" 
d="M621 -204v189c-262 26 -440 158 -472 395l224 11c39 -155 169 -233 347 -233c162 0 302 88 302 218c0 122 -71 186 -228 226l-246 62c-216 52 -353 169 -354 373c-2 229 177 390 437 421v202h193v-203c248 -36 396 -208 400 -408l-217 -9c-26 160 -110 247 -279 247
c-164 0 -304 -81 -304 -228c0 -99 57 -147 239 -200l238 -65c250 -67 350 -220 350 -415c0 -212 -172 -365 -437 -394v-189h-193z" />
    <glyph glyph-name="dong.tf" horiz-adv-x="1400" 
d="M591 248c-197 0 -349 144 -349 429c0 272 157 451 366 451c102 0 163 -37 219 -88c19 -15 26 -11 26 11v167h-254v106h254v121h183v-121h122v-106h-122v-954h-179v114c-46 -52 -117 -130 -266 -130zM657 375c113 0 192 85 192 165v367c-55 58 -111 90 -187 90
c-132 0 -227 -102 -227 -316c0 -217 98 -306 222 -306zM290 0v114h752v-114h-752z" />
    <glyph glyph-name="Euro.tf" horiz-adv-x="1400" 
d="M109 501v128h165c-3 32 -4 65 -4 100c0 31 1 63 3 93h-164v127h181c66 326 281 517 585 517c155 0 296 -62 394 -163l-148 -125c-63 60 -132 110 -228 110c-184 0 -308 -109 -354 -339l377 1v-127l-393 -1c-2 -30 -3 -62 -3 -96s1 -66 3 -96h393v-128l-375 -1
c48 -225 178 -334 366 -334c97 0 190 51 248 108l117 -131c-95 -95 -235 -164 -392 -164c-306 0 -521 197 -588 521h-183z" />
    <glyph glyph-name="florin.tf" horiz-adv-x="1400" 
d="M166 -334l23 149l116 1c88 1 126 37 145 151l160 913h-166l26 154h167l28 157c29 165 140 255 304 255h206l-24 -148h-143c-67 0 -124 -57 -138 -136l-23 -128h248l-28 -154h-242l-166 -951c-29 -165 -136 -263 -307 -263h-186z" />
    <glyph glyph-name="franc.tf" horiz-adv-x="1400" 
d="M125 258v128l182 1v1059h970l-1 -183h-725v-465h589v-179h-589v-232l319 1v-129h-319v-259h-244v258h-182z" />
    <glyph glyph-name="lira.tf" horiz-adv-x="1400" 
d="M140 0v182h73c92 -1 166 71 175 231c2 19 2 42 1 72c-1 9 -6 12 -17 12h-212v128h211l-27 165h-184v129h164l-7 65c-47 348 165 482 420 482c178 0 361 -95 426 -251l-190 -63c-37 79 -95 136 -206 136c-122 0 -217 -76 -217 -208c0 -30 8 -81 18 -142
c2 -13 10 -19 22 -19l302 1v-129l-301 -1l25 -165l276 1v-128h-275c-3 -108 -39 -236 -119 -314h330c129 0 207 43 249 162l183 -45c-60 -198 -212 -301 -418 -301h-702z" />
    <glyph glyph-name="uni20BA.tf" horiz-adv-x="1400" 
d="M364 0v441l-152 -55l-45 129l197 72v180l-169 -62l-46 129l215 78v534h245v-445l262 95l48 -127l-310 -113v-180l279 101l47 -128l-326 -119v-346h89c169 3 296 107 380 335l195 -43c-95 -280 -295 -476 -650 -476h-259z" />
    <glyph glyph-name="uni20B9.tf" horiz-adv-x="1400" 
d="M820 0l-239 662h-447v163h396c194 0 295 59 316 199l-709 -1v119l707 1c-23 119 -117 176 -281 176h-429v127h3l1129 1v-118l-268 -1c54 -48 88 -110 101 -185h167v-119h-165c-21 -178 -147 -275 -276 -320c-9 -3 -10 -13 -7 -24l267 -680h-265z" />
    <glyph glyph-name="sterling.tf" horiz-adv-x="1400" 
d="M140 0v182h73c101 0 178 76 178 255c0 67 -6 134 -22 248h-203v130h178l-27 169c-57 304 165 482 420 482c198 0 362 -103 425 -251l-189 -63c-44 91 -101 136 -206 136c-122 0 -217 -76 -217 -208c0 -71 17 -166 43 -264h314v-130h-296c12 -94 16 -154 7 -224
c-9 -157 -68 -231 -116 -278h326c134 0 204 42 249 162l183 -45c-63 -200 -203 -301 -418 -301h-702z" />
    <glyph glyph-name="yen.tf" horiz-adv-x="1400" 
d="M281 255v127h303v172l-303 -1v128l256 1l-458 764h278l368 -639l367 639h229l-466 -764l276 1v-129h-303v-171h303v-127l-303 -1v-255h-244v255h-303z" />
    <glyph glyph-name="uni2219" unicode="&#x2219;" horiz-adv-x="656" 
d="M321 602c-73 0 -131 59 -131 132s58 132 131 132s132 -59 132 -132s-59 -132 -132 -132z" />
    <glyph glyph-name="uni2215" unicode="&#x2215;" horiz-adv-x="1198" 
d="M232 -8l-138 2l876 1468h134z" />
    <glyph glyph-name="plus" unicode="+" horiz-adv-x="1128" 
d="M484 285v361l-363 -1v163h363l-1 363h163v-363l361 1v-163h-361l1 -361h-163z" />
    <glyph glyph-name="minus" unicode="&#x2212;" horiz-adv-x="1128" 
d="M121 645v163l886 1v-163z" />
    <glyph glyph-name="multiply" unicode="&#xd7;" horiz-adv-x="1100" 
d="M238 300l-115 116l310 311l-312 312l115 115l312 -312l313 314l116 -115l-313 -314l313 -311l-116 -116l-312 311z" />
    <glyph glyph-name="divide" unicode="&#xf7;" horiz-adv-x="1128" 
d="M439 970v242h252v-242h-252zM121 645v163l886 1v-163zM439 243v242h252v-242h-252z" />
    <glyph glyph-name="equal" unicode="=" horiz-adv-x="1128" 
d="M121 838v162l886 1v-162zM121 390v163l886 1v-163z" />
    <glyph glyph-name="notequal" unicode="&#x2260;" horiz-adv-x="1128" 
d="M221 104l128 286h-228v163h300l127 285h-427v162l499 1l120 270h115l-119 -270h271v-162l-343 -1l-125 -285l468 1v-163h-540l-126 -287h-120z" />
    <glyph glyph-name="greater" unicode="&#x3e;" horiz-adv-x="1108" 
d="M122 259v192l618 238l-619 242v195l866 -342v-188z" />
    <glyph glyph-name="less" unicode="&#x3c;" horiz-adv-x="1109" 
d="M986 259l-865 337v188l866 342v-195l-618 -242l617 -238v-192z" />
    <glyph glyph-name="greaterequal" unicode="&#x2265;" horiz-adv-x="1128" 
d="M132 441v193l618 239l-619 241v195l866 -341v-188zM121 98v162l886 1v-162z" />
    <glyph glyph-name="lessequal" unicode="&#x2264;" horiz-adv-x="1128" 
d="M995 441l-864 339v188l865 341v-195l-617 -241l616 -239v-193zM121 99v162l886 -1v-162z" />
    <glyph glyph-name="plusminus" unicode="&#xb1;" horiz-adv-x="1128" 
d="M646 966l361 1v-163h-361v-361h-162v361l-363 -1v162l363 1l-1 362h163v-362zM121 104v162l886 1v-162z" />
    <glyph glyph-name="approxequal" unicode="&#x2248;" horiz-adv-x="1163" 
d="M183 752l-62 117c81 81 160 148 283 148c154 0 239 -110 370 -110c99 0 161 57 204 120l63 -118c-52 -87 -147 -145 -265 -145c-154 0 -233 109 -371 109c-102 0 -167 -60 -222 -121zM184 348l-63 118c81 81 160 147 283 147c154 0 239 -110 370 -110
c99 0 161 59 204 120l63 -117c-52 -87 -147 -145 -265 -145c-159 0 -236 109 -371 109c-102 0 -168 -61 -221 -122z" />
    <glyph glyph-name="asciitilde" unicode="~" horiz-adv-x="1160" 
d="M177 591l-61 117c81 81 159 148 282 148c154 0 239 -110 370 -110c99 0 161 57 204 120l64 -117c-53 -88 -148 -146 -265 -146c-160 0 -237 110 -372 110c-102 0 -167 -62 -222 -122z" />
    <glyph glyph-name="logicalnot" unicode="&#xac;" horiz-adv-x="1128" 
d="M121 645v163l886 1v-454h-177l-1 291z" />
    <glyph glyph-name="asciicircum" unicode="^" horiz-adv-x="952" 
d="M694 253l-225 565l-227 -563h-158l301 727c37 90 128 97 168 1l302 -730h-161z" />
    <glyph glyph-name="emptyset" unicode="&#x2205;" horiz-adv-x="1168" 
d="M181 269l-82 84l135 125c-50 70 -80 157 -80 250c0 235 191 427 427 427c106 0 203 -39 278 -102l119 109l78 -84l-120 -111c47 -68 74 -151 74 -239c0 -237 -193 -429 -429 -429c-100 0 -193 35 -266 93zM265 728c0 -65 19 -125 52 -175l460 424c-54 42 -122 67 -196 67
c-175 0 -316 -144 -316 -316zM581 410c176 0 318 142 318 318c0 59 -17 115 -46 163l-455 -422c51 -37 115 -59 183 -59z" />
    <glyph glyph-name="infinity" unicode="&#x221e;" horiz-adv-x="1498" 
d="M410 204c-169 0 -314 130 -314 332c0 201 141 333 337 333c146 0 214 -73 301 -168c21 -21 28 -20 46 0c66 74 152 168 304 168c177 0 310 -123 310 -321v-3c0 -217 -150 -341 -327 -341c-144 0 -219 83 -305 183c-13 15 -18 19 -34 0c-34 -36 -136 -183 -318 -183z
M422 352h5c90 0 172 80 215 140c25 34 23 41 -3 81c-64 95 -129 154 -219 154c-103 0 -174 -76 -174 -185c0 -113 79 -190 176 -190zM1082 352c104 0 160 97 160 188c0 99 -64 187 -166 187h-2c-93 0 -163 -79 -221 -147c-25 -31 -16 -57 0 -76c96 -134 183 -152 229 -152z
" />
    <glyph glyph-name="integral" unicode="&#x222b;" horiz-adv-x="896" 
d="M243 -343c-106 0 -161 16 -224 54l50 185c53 -29 95 -45 158 -45c84 0 150 58 150 216c0 386 -74 826 -74 1170c0 288 126 434 339 434c108 0 166 -17 226 -55l-48 -184c-55 28 -97 45 -161 45c-88 0 -153 -60 -153 -213c0 -390 71 -826 71 -1166
c0 -294 -127 -441 -334 -441z" />
    <glyph glyph-name="uni2126" unicode="&#x2126;" horiz-adv-x="1532" 
d="M156 0v191h303c-82 68 -350 267 -350 634c0 346 237 679 660 679c431 0 654 -347 654 -677c0 -264 -102 -424 -356 -636h309v-191h-543v173c131 94 342 283 342 626c0 297 -143 522 -406 522c-260 0 -412 -219 -412 -526c0 -272 119 -460 343 -622v-173h-544z" />
    <glyph glyph-name="uni2206" unicode="&#x2206;" horiz-adv-x="1444" 
d="M36 0l693 1446l679 -1446h-1372zM350 186h749l-370 832z" />
    <glyph glyph-name="product" unicode="&#x220f;" horiz-adv-x="1335" 
d="M227 0v1264h-193v182h1258v-182h-195v-1264h-223v1264h-422v-1264h-225z" />
    <glyph glyph-name="summation" unicode="&#x2211;" horiz-adv-x="1081" 
d="M54 0v137l426 583l-400 575v151h908v-178h-614l374 -527l-409 -555h685v-186h-970z" />
    <glyph glyph-name="radical" unicode="&#x221a;" horiz-adv-x="1294" 
d="M554 -322l-323 878l-153 -59l-48 131l327 120l303 -856l450 1759h185l-518 -1973h-223z" />
    <glyph glyph-name="partialdiff" unicode="&#x2202;" horiz-adv-x="1189" 
d="M567 -20c-290 0 -474 202 -474 467c0 262 177 448 474 448c140 0 206 -41 290 -96c25 -17 29 -6 29 8c0 287 -128 490 -396 490c-131 0 -208 -48 -278 -94l-64 130c65 66 218 133 389 133c334 0 555 -242 555 -743c0 -462 -182 -743 -525 -743zM555 144h2
c166 0 291 161 314 400c4 40 2 52 -12 70c-50 66 -164 125 -275 125c-165 0 -280 -129 -280 -302c0 -172 111 -293 251 -293z" />
    <glyph glyph-name="uni00B5" unicode="&#xb5;" horiz-adv-x="1181" 
d="M129 -330v1390h220v-705c0 -94 86 -169 195 -169c104 0 195 64 270 165v709h222l-3 -1060h-213v164c-104 -93 -177 -134 -268 -141c-75 -6 -144 6 -203 48v-401h-220z" />
    <glyph glyph-name="percent" unicode="%" horiz-adv-x="1827" 
d="M452 644c-201 0 -349 169 -349 410c0 243 150 414 349 414s346 -171 346 -414c0 -241 -146 -410 -346 -410zM341 -8l977 1470h134l-972 -1470h-139zM450 760c122 0 188 102 188 294c0 195 -68 299 -188 299s-187 -106 -187 -299c0 -191 66 -294 187 -294zM1369 -20
c-200 0 -349 165 -349 412c0 245 150 414 349 414c200 0 347 -169 347 -414c0 -247 -146 -412 -347 -412zM1367 97c122 0 188 102 188 293c0 195 -67 299 -188 299c-120 0 -186 -106 -186 -299c0 -190 65 -293 186 -293z" />
    <glyph glyph-name="perthousand" unicode="&#x2030;" horiz-adv-x="2635" 
d="M452 644c-201 0 -349 169 -349 410c0 243 150 414 349 414s346 -171 346 -414c0 -241 -146 -410 -346 -410zM364 -8l977 1470h134l-972 -1470h-139zM450 760c122 0 188 102 188 294c0 195 -68 299 -188 299s-187 -106 -187 -299c0 -191 66 -294 187 -294zM1369 -20
c-200 0 -349 165 -349 412c0 245 150 414 349 414c200 0 347 -169 347 -414c0 -247 -146 -412 -347 -412zM2178 -20c-202 0 -350 165 -350 412c0 245 150 414 350 414c198 0 346 -169 346 -414c0 -247 -146 -412 -346 -412zM1367 97c122 0 188 102 188 293
c0 195 -67 299 -188 299c-120 0 -186 -106 -186 -299c0 -190 65 -293 186 -293zM2176 97c122 0 186 102 186 293c0 195 -66 299 -186 299s-187 -106 -187 -299c0 -190 66 -293 187 -293z" />
    <glyph glyph-name="lozenge" unicode="&#x25ca;" horiz-adv-x="1014" 
d="M433 0l-332 723l342 723h159l333 -719l-343 -727h-159zM519 162l239 561l-239 559l-239 -552z" />
    <glyph glyph-name="at" unicode="@" horiz-adv-x="1660" 
d="M845 -220c-475 0 -757 328 -757 729c0 421 313 779 791 779c343 0 693 -187 693 -626c0 -298 -160 -504 -380 -504c-106 0 -159 39 -180 100c-7 16 -11 15 -23 1c-58 -74 -145 -129 -267 -129c-155 0 -284 136 -283 345c0 244 155 451 384 451c107 0 175 -48 220 -115
c4 -5 12 -4 14 7l15 58h137l-74 -440c-18 -108 11 -142 71 -142c114 0 219 129 219 356c0 372 -280 506 -547 506c-422 0 -641 -296 -641 -647s229 -602 638 -602c179 0 263 56 364 124l75 -100c-111 -87 -275 -151 -469 -151zM758 274c123 0 224 122 240 259
c19 160 -65 250 -164 250c-132 0 -228 -131 -228 -295c0 -126 53 -214 152 -214z" />
    <glyph glyph-name="ampersand" unicode="&#x26;" horiz-adv-x="1458" 
d="M533 -10c-292 0 -444 153 -444 373c0 192 115 317 349 441c-110 118 -178 213 -178 341c0 182 158 323 387 323c222 0 409 -122 409 -310c0 -108 -77 -248 -336 -390l292 -342c35 56 107 192 119 364h214c-34 -198 -135 -352 -228 -491l255 -299h-248l-136 156
c-149 -119 -307 -166 -455 -166zM627 883c191 113 236 187 236 269c0 127 -104 177 -207 175c-118 -1 -183 -79 -183 -169s70 -184 117 -235zM582 159c102 0 219 48 300 126l-337 392c-130 -72 -228 -176 -218 -306c8 -132 125 -212 255 -212z" />
    <glyph glyph-name="paragraph" unicode="&#xb6;" horiz-adv-x="1140" 
d="M506 -166v762c-247 10 -418 178 -418 416c0 227 157 434 461 434h462v-128h-123v-1484h-138v1484h-105v-1484h-139z" />
    <glyph glyph-name="section" unicode="&#xa7;" horiz-adv-x="993" 
d="M507 -147c-205 0 -373 100 -439 232l138 71c59 -89 157 -161 300 -161c121 0 209 47 209 134c0 63 -40 116 -183 172l-167 63c-193 74 -273 164 -273 300c0 124 78 214 190 261c-145 80 -181 160 -181 253c0 163 148 288 382 288c188 0 332 -99 396 -208l-138 -72
c-61 74 -140 138 -249 138c-123 0 -195 -50 -195 -127c0 -55 42 -103 143 -144l163 -64c214 -84 301 -180 301 -325c0 -130 -78 -205 -174 -257c121 -68 182 -144 182 -254c0 -174 -152 -300 -405 -300zM556 485c93 -8 168 64 164 150c-4 73 -38 125 -166 175l-103 40
c-103 -8 -178 -80 -178 -157c0 -67 31 -105 169 -161z" />
    <glyph glyph-name="copyright" unicode="&#xa9;" horiz-adv-x="1641" 
d="M816 -20c-411 0 -743 330 -743 744c0 408 332 742 743 742c409 0 743 -334 743 -742c0 -414 -334 -744 -743 -744zM816 115c333 0 598 238 598 609c0 366 -265 610 -598 610c-340 0 -598 -244 -598 -610c0 -371 258 -609 598 -609zM821 312c-228 0 -387 168 -387 414
c0 248 162 419 387 419c175 0 283 -115 336 -233l-155 -29c-39 78 -91 137 -174 137c-126 0 -214 -106 -214 -290c0 -189 90 -293 221 -293c98 0 164 61 209 148l115 -37c-49 -107 -155 -236 -338 -236z" />
    <glyph glyph-name="registered" unicode="&#xae;" horiz-adv-x="1085" 
d="M539 536c-260 0 -466 206 -466 464s206 466 466 466c256 0 464 -208 464 -466s-208 -464 -464 -464zM539 635c213 0 358 142 358 365c0 222 -145 367 -358 367c-216 0 -360 -145 -360 -367c0 -223 144 -365 360 -365zM358 767v461h210c104 0 164 -41 164 -119
c0 -69 -47 -105 -95 -124l90 -218h-103l-75 209h-97v-209h-94zM452 1048h108c41 0 75 14 75 54c0 31 -22 55 -81 55h-102v-109z" />
    <glyph glyph-name="uni2117" unicode="&#x2117;" horiz-adv-x="1641" 
d="M816 -20c-411 0 -743 330 -743 744c0 408 332 742 743 742c409 0 743 -334 743 -742c0 -414 -334 -744 -743 -744zM816 115c333 0 598 238 598 609c0 366 -265 610 -598 610c-340 0 -598 -244 -598 -610c0 -371 258 -609 598 -609zM547 333v775h317
c167 0 294 -70 294 -229c0 -166 -116 -250 -279 -250h-185v-296h-147zM694 740h170c82 0 144 43 144 130c0 95 -67 125 -151 125h-163v-255z" />
    <glyph glyph-name="trademark" unicode="&#x2122;" horiz-adv-x="1847" 
d="M845 0v904h189l254 -719l258 719h188v-904h-137v720l-250 -720h-117l-248 714v-714h-137zM309 0v782h-286v122h695v-122h-274v-782h-135z" />
    <glyph glyph-name="degree" unicode="&#xb0;" horiz-adv-x="932" 
d="M462 1033c-185 0 -319 132 -319 319s134 321 319 321c183 0 319 -134 319 -321s-136 -319 -319 -319zM460 1162c110 0 178 77 178 188c0 110 -68 187 -180 187c-109 0 -181 -77 -179 -187c2 -111 70 -188 181 -188z" />
    <glyph glyph-name="bar" unicode="|" horiz-adv-x="529" 
d="M184 -322l-1 1974h163v-1974h-162z" />
    <glyph glyph-name="brokenbar" unicode="&#xa6;" horiz-adv-x="529" 
d="M184 847l-1 805h163v-805h-162zM184 -322l-1 806h163v-806h-162z" />
    <glyph glyph-name="uni2113" unicode="&#x2113;" horiz-adv-x="1046" 
d="M559 -15c-212 0 -324 115 -354 351l-101 -68l-58 126l159 117v484c0 321 162 471 378 471c211 0 300 -140 300 -321c0 -292 -239 -506 -460 -699c0 -218 49 -299 178 -299c95 0 172 42 264 166l81 -72c-59 -125 -167 -256 -387 -256zM423 633c139 126 308 316 308 531
c0 102 -45 161 -134 161c-108 0 -174 -82 -174 -351v-341z" />
    <glyph glyph-name="dagger" unicode="&#x2020;" horiz-adv-x="949" 
d="M363 -322l41 1116l-365 -31v195l356 -28l-33 516h218l-35 -516l356 28v-195l-364 31l42 -1116h-216z" />
    <glyph glyph-name="daggerdbl" unicode="&#x2021;" horiz-adv-x="949" 
d="M362 -322l34 499l-357 -28v196l363 -31v462l-363 -31v195l356 -28l-33 534h217l-34 -534l356 28v-195l-363 31v-462l363 31v-196l-357 28l36 -499h-218z" />
    <glyph glyph-name="uni2116" unicode="&#x2116;" horiz-adv-x="2334" 
d="M1928 795c-197 0 -317 138 -317 332c0 202 129 338 317 338c194 0 318 -139 318 -338c0 -194 -122 -332 -318 -332zM183 0v1446h207l736 -1078v1078h215v-1446h-192l-752 1101v-1101h-214zM1928 899c110 0 166 85 166 233c0 144 -56 228 -166 228
c-109 0 -164 -84 -164 -228c0 -148 55 -233 164 -233z" />
    <glyph glyph-name="uni2120" unicode="&#x2120;" horiz-adv-x="1981" 
d="M425 -13c-177 0 -338 87 -360 258h140c20 -97 110 -149 227 -149c107 0 201 52 201 145c0 69 -46 106 -139 130l-181 45c-133 30 -220 99 -220 240c0 157 141 259 330 259c216 0 333 -124 334 -265h-137c-11 115 -98 156 -201 156c-124 0 -186 -64 -186 -138
c0 -70 45 -107 135 -129l175 -43c164 -37 226 -130 226 -244c0 -154 -138 -265 -344 -265zM979 0v904h189l254 -719l258 719h188v-904h-137v720l-250 -720h-118l-248 714v-714h-136z" />
    <glyph glyph-name="uni02BC" unicode="&#x2bc;" horiz-adv-x="457" 
d="M100 969v75l18 1c53 5 108 65 108 133v14l-126 8v235h248v-208c0 -152 -120 -284 -248 -258z" />
    <glyph glyph-name="uni02BB" unicode="&#x2bb;" horiz-adv-x="457" 
d="M100 966v208c0 151 120 283 248 257v-74l-18 -2c-53 -4 -107 -65 -107 -133v-14l125 -8v-234h-248z" />
    <glyph glyph-name="uni0308" unicode="&#x308;" 
d="M420 1251l2 195h206l-2 -195h-206zM10 1251l2 195h206l-2 -195h-206z" />
    <glyph glyph-name="uni0307" unicode="&#x307;" 
d="M10 1251v195h212v-195h-212z" />
    <glyph glyph-name="gravecomb" unicode="&#x300;" 
d="M290 1155l-280 291h236l206 -291h-162z" />
    <glyph glyph-name="acutecomb" unicode="&#x301;" 
d="M10 1155l206 291h235l-280 -291h-161z" />
    <glyph glyph-name="uni030B" unicode="&#x30b;" 
d="M310 1155l239 291h219l-297 -291h-161zM11 1155l197 291h213l-249 -291h-161z" />
    <glyph glyph-name="uni030C.alt" 
d="M106 1045l78 189l-59 10v202h165v-212l-81 -189h-103z" />
    <glyph glyph-name="uni0302" unicode="&#x302;" 
d="M12 1155l254 234h152l249 -234h-189l-138 133l-150 -133h-178z" />
    <glyph glyph-name="uni030C" unicode="&#x30c;" 
d="M265 1155l-254 235h179l150 -139l138 139h189l-249 -235h-153z" />
    <glyph glyph-name="uni0306" unicode="&#x306;" 
d="M338 1155c-153 0 -283 79 -315 227h148c22 -64 82 -109 167 -109c84 0 148 45 170 109h147c-31 -144 -159 -227 -317 -227z" />
    <glyph glyph-name="uni030A" unicode="&#x30a;" 
d="M237 1139c-116 0 -208 93 -208 213c0 112 94 202 208 202c117 0 210 -91 210 -206c0 -118 -93 -209 -210 -209zM235 1240c59 0 105 50 105 107c0 61 -46 104 -105 104c-56 0 -106 -43 -106 -104c0 -57 50 -107 106 -107z" />
    <glyph glyph-name="tildecomb" unicode="&#x303;" 
d="M86 1212l-38 121c46 44 93 79 174 79c102 0 183 -57 272 -57c62 0 107 29 147 59l33 -135c-36 -29 -95 -62 -180 -62c-108 0 -169 53 -263 53c-66 0 -101 -24 -145 -58z" />
    <glyph glyph-name="uni0304" unicode="&#x304;" 
d="M29 1227v146h625v-146h-625z" />
    <glyph glyph-name="hookabovecomb" unicode="&#x309;" 
d="M665 1167l-59 90c56 36 82 87 54 132c-26 43 -89 41 -141 6l-58 90c115 74 237 54 294 -33c69 -104 33 -211 -90 -285z" />
    <glyph glyph-name="uni030F" unicode="&#x30f;" 
d="M307 1155l-297 291h219l239 -291h-161zM606 1155l-250 291h214l197 -291h-161z" />
    <glyph glyph-name="uni0311" unicode="&#x311;" 
d="M12 1200c32 149 162 227 315 227c158 0 286 -82 317 -227h-147c-22 64 -86 110 -170 110c-85 0 -145 -46 -167 -110h-148z" />
    <glyph glyph-name="uni0312" unicode="&#x312;" 
d="M120 1155v174l117 172h90l-79 -153l68 -6v-187h-196z" />
    <glyph glyph-name="uni031B" unicode="&#x31b;" 
d="M0 936v124c125 -2 170 9 181 196h160c-2 -250 -88 -347 -341 -320z" />
    <glyph glyph-name="dotbelowcomb" unicode="&#x323;" 
d="M10 -369v194h212v-194h-212z" />
    <glyph glyph-name="uni0326" unicode="&#x326;" 
d="M2 -397l84 131l-67 7v163h203v-137l-137 -164h-83z" />
    <glyph glyph-name="uni0327" unicode="&#x327;" 
d="M226 -415c-75 0 -143 14 -201 51l33 83c37 -26 83 -48 142 -48c70 0 106 26 106 70c0 56 -47 84 -163 87c-14 0 -18 3 -13 15l73 167h106l-46 -120c140 -5 185 -82 185 -149c0 -101 -102 -156 -222 -156z" />
    <glyph glyph-name="uni0328" unicode="&#x328;" 
d="M232 -333c-132 0 -203 59 -203 160c0 77 42 140 201 191l153 -10c-137 -55 -189 -98 -189 -160c0 -47 26 -71 87 -71c62 0 112 21 144 39v-106c-35 -21 -111 -43 -193 -43z" />
    <glyph glyph-name="dieresis" unicode="&#xa8;" horiz-adv-x="638" 
d="M420 1251l2 195h206l-2 -195h-206zM10 1251l2 195h206l-2 -195h-206z" />
    <glyph glyph-name="dotaccent" unicode="&#x2d9;" horiz-adv-x="232" 
d="M10 1251v195h212v-195h-212z" />
    <glyph glyph-name="grave" unicode="`" horiz-adv-x="462" 
d="M290 1155l-280 291h236l206 -291h-162z" />
    <glyph glyph-name="acute" unicode="&#xb4;" horiz-adv-x="462" 
d="M10 1155l206 291h235l-280 -291h-161z" />
    <glyph glyph-name="hungarumlaut" unicode="&#x2dd;" horiz-adv-x="778" 
d="M310 1155l239 291h219l-297 -291h-161zM11 1155l197 291h213l-249 -291h-161z" />
    <glyph glyph-name="circumflex" unicode="&#x2c6;" horiz-adv-x="678" 
d="M12 1155l254 234h152l249 -234h-189l-138 133l-150 -133h-178z" />
    <glyph glyph-name="caron" unicode="&#x2c7;" horiz-adv-x="691" 
d="M265 1155l-254 235h179l150 -139l138 139h189l-249 -235h-153z" />
    <glyph glyph-name="breve" unicode="&#x2d8;" horiz-adv-x="678" 
d="M338 1155c-153 0 -283 79 -315 227h148c22 -64 82 -109 167 -109c84 0 148 45 170 109h147c-31 -144 -159 -227 -317 -227z" />
    <glyph glyph-name="ring" unicode="&#x2da;" horiz-adv-x="483" 
d="M237 1139c-116 0 -208 93 -208 213c0 112 94 202 208 202c117 0 210 -91 210 -206c0 -118 -93 -209 -210 -209zM235 1240c59 0 105 50 105 107c0 61 -46 104 -105 104c-56 0 -106 -43 -106 -104c0 -57 50 -107 106 -107z" />
    <glyph glyph-name="tilde" unicode="&#x2dc;" horiz-adv-x="727" 
d="M86 1212l-38 121c46 44 93 79 174 79c102 0 183 -57 272 -57c62 0 107 29 147 59l33 -135c-36 -29 -95 -62 -180 -62c-108 0 -169 53 -263 53c-66 0 -101 -24 -145 -58z" />
    <glyph glyph-name="macron" unicode="&#xaf;" horiz-adv-x="691" 
d="M29 1227v146h625v-146h-625z" />
    <glyph glyph-name="cedilla" unicode="&#xb8;" horiz-adv-x="485" 
d="M226 -415c-75 0 -143 14 -201 51l33 83c37 -26 83 -48 142 -48c70 0 106 26 106 70c0 56 -47 84 -163 87c-14 0 -18 3 -13 15l73 167h106l-46 -120c140 -5 185 -82 185 -149c0 -101 -102 -156 -222 -156z" />
    <glyph glyph-name="ogonek" unicode="&#x2db;" horiz-adv-x="461" 
d="M232 -333c-132 0 -203 59 -203 160c0 77 42 140 201 191l153 -10c-137 -55 -189 -98 -189 -160c0 -47 26 -71 87 -71c62 0 112 21 144 39v-106c-35 -21 -111 -43 -193 -43z" />
    <glyph glyph-name="gravecomb.narrow" 
d="M227 1155l-208 291h226l133 -290z" />
    <glyph glyph-name="acutecomb.narrow" 
d="M169 1155l-150 1l133 290h226z" />
    <glyph glyph-name="gravecomb.viet" 
d="M216 1155l-215 248h188l158 -248h-131z" />
    <glyph glyph-name="acutecomb.viet" 
d="M10 1155l147 248h188l-208 -248h-127z" />
    <glyph glyph-name="uni03060301" 
d="M272 1420l147 247h187l-207 -247h-127zM338 1155c-153 0 -283 79 -315 227h148c22 -64 82 -109 167 -109c84 0 148 45 170 109h147c-31 -144 -159 -227 -317 -227z" />
    <glyph glyph-name="uni03060300" 
d="M286 1419l-215 247h188l158 -247h-131zM338 1155c-153 0 -283 79 -315 227h148c22 -64 82 -109 167 -109c84 0 148 45 170 109h147c-31 -144 -159 -227 -317 -227z" />
    <glyph glyph-name="uni03060309" 
d="M348 1372l-59 91c56 35 82 86 54 131c-26 43 -89 41 -141 6l-59 90c49 31 98 46 144 46c63 0 118 -28 151 -79c68 -104 33 -210 -90 -285zM338 1155c-153 0 -283 79 -315 227h148c22 -64 82 -109 167 -109c84 0 148 45 170 109h147c-31 -144 -159 -227 -317 -227z" />
    <glyph glyph-name="uni03060303" 
d="M64 1493l-37 121c45 44 92 80 173 80c102 0 183 -58 272 -58c62 0 107 29 147 60l34 -136c-37 -28 -96 -61 -181 -61c-108 0 -169 53 -263 53c-66 0 -101 -25 -145 -59zM338 1155c-153 0 -283 79 -315 227h148c22 -64 82 -109 167 -109c84 0 148 45 170 109h147
c-31 -144 -159 -227 -317 -227z" />
    <glyph glyph-name="uni03020301" 
d="M536 1382l147 248h188l-208 -248h-127zM12 1155l254 234h152l249 -234h-189l-138 133l-150 -133h-178z" />
    <glyph glyph-name="uni03020300" 
d="M631 1382l-215 248h187l159 -248h-131zM12 1155l254 234h152l249 -234h-189l-138 133l-150 -133h-178z" />
    <glyph glyph-name="uni03020309" 
d="M589 1336l-58 91c56 35 82 86 54 131c-27 43 -90 41 -142 6l-58 90c115 74 238 54 295 -33c68 -104 32 -210 -91 -285zM12 1155l254 234h152l249 -234h-189l-138 133l-150 -133h-178z" />
    <glyph glyph-name="uni03020303" 
d="M64 1493l-37 121c45 44 92 80 173 80c102 0 183 -58 272 -58c62 0 107 29 147 60l34 -136c-37 -28 -96 -61 -181 -61c-108 0 -169 53 -263 53c-66 0 -101 -25 -145 -59zM12 1155l254 234h152l249 -234h-189l-138 133l-150 -133h-178z" />
    <glyph glyph-name="uni0000" horiz-adv-x="53" 
 />
    <glyph glyph-name="uni0000" horiz-adv-x="53" 
 />
    </font>
</defs>
</svg>
